<svg width="21" height="16" fill="none" xmlns="http://www.w3.org/2000/svg"><g clip-path="url(#clip0_4001_354)"><rect y=".5" width="21" height="15" rx="3" fill="#F93939"/><path d="M19 .5H2a2 2 0 00-2 2v11a2 2 0 002 2h17a2 2 0 002-2v-11a2 2 0 00-2-2z" fill="#F93939"/><path fill-rule="evenodd" clip-rule="evenodd" d="M0 4.5h21v7H0v-7z" fill="#FFDA2C"/><path fill-rule="evenodd" clip-rule="evenodd" d="M9 6.723v2.52c0 .7-.672 1.26-1.5 1.26h-2C4.674 10.5 4 9.938 4 9.24V6.72c0-.572.448-1.05 1.064-1.205.186-.52.758-.054 1.436-.054.682 0 1.25-.463 1.436.055C8.55 5.676 9 6.155 9 6.723z" fill="#D4AF2C"/><path fill-rule="evenodd" clip-rule="evenodd" d="M9 7.5h1v3H9v-3zm-6 0h1v3H3v-3z" fill="#CBCBCB"/><path fill-rule="evenodd" clip-rule="evenodd" d="M9 9.5h1v1H9v-1zm-6 0h1v1H3v-1z" fill="#1A47B8"/><path fill-rule="evenodd" clip-rule="evenodd" d="M9 6.5h1v1H9v-1zm-6 0h1v1H3v-1z" fill="#D4AF2C"/><path fill-rule="evenodd" clip-rule="evenodd" d="M5 6.5h1V8H5V6.5zm2 2h1V10H7V8.5z" fill="#AF010D"/><path fill-rule="evenodd" clip-rule="evenodd" d="M5 8.5h1V10H5V8.5z" fill="#FFDA2C"/><path fill-rule="evenodd" clip-rule="evenodd" d="M7 6.5h1V8H7V6.5z" fill="#AE6A3E"/><path fill-rule="evenodd" clip-rule="evenodd" d="M6 6.5l-1-1h3l-1 1H6z" fill="#AF010D"/><path fill-rule="evenodd" clip-rule="evenodd" d="M6 4.5h1v1H6v-1z" fill="#D4AF2C"/></g><defs><clipPath id="clip0_4001_354"><rect y=".5" width="21" height="15" rx="3" fill="#fff"/></clipPath></defs></svg>