<svg width="21" height="16" fill="none" xmlns="http://www.w3.org/2000/svg"><g clip-path="url(#clip0_4001_1314)"><rect y=".5" width="21" height="15" rx="3" fill="#1A47B8"/><path fill-rule="evenodd" clip-rule="evenodd" d="M2.234.5H0V3l18.754 12.5H21V13L2.234.5z" fill="#fff"/><path d="M.745.5L21 14.035V15.5h-.728L0 1.95V.5h.745z" fill="#F93939"/><path fill-rule="evenodd" clip-rule="evenodd" d="M19 .5h2V3S8.01 11.328 2 15.5H0V13L19 .5z" fill="#fff"/><path d="M21 .5h-.678L0 14.047V15.5h.745L21 1.962V.5z" fill="#F93939"/><path fill-rule="evenodd" clip-rule="evenodd" d="M7.637.5h5.743v4.627H21v5.743h-7.62v4.63H7.637v-4.63H0V5.127h7.637V.5z" fill="#fff"/><path fill-rule="evenodd" clip-rule="evenodd" d="M8.842.5h3.316v5.77H21v3.46h-8.842v5.77H8.842V9.73H0V6.27h8.842V.5z" fill="#F93939"/></g><defs><clipPath id="clip0_4001_1314"><rect y=".5" width="21" height="15" rx="3" fill="#fff"/></clipPath></defs></svg>