<svg width="950" height="500" viewBox="0 0 950 500" fill="none" xmlns="http://www.w3.org/2000/svg">
<path d="M229.837 59C236.591 59 242.066 64.4749 242.066 71.2285V427.771C242.066 434.525 236.591 440.001 229.837 440.001C223.083 440.001 217.608 434.525 217.608 427.771V71.2285C217.609 64.475 223.083 59.0002 229.837 59ZM719.456 59C726.21 59 731.685 64.4749 731.686 71.2285V427.771C731.686 434.525 726.21 440.001 719.456 440.001C712.702 440.001 707.228 434.525 707.228 427.771V71.2285C707.228 64.4749 712.702 59.0001 719.456 59ZM175.436 115.888C182.189 115.888 187.664 121.362 187.664 128.116V370.885C187.664 377.638 182.189 383.113 175.436 383.113C168.682 383.113 163.206 377.638 163.206 370.885V128.116C163.206 121.362 168.682 115.888 175.436 115.888ZM284.239 115.888C290.993 115.888 296.469 121.362 296.469 128.116V370.885C296.469 377.638 290.993 383.113 284.239 383.113C277.486 383.113 272.011 377.638 272.011 370.885V128.116C272.011 121.362 277.486 115.888 284.239 115.888ZM665.054 115.888C671.808 115.888 677.283 121.362 677.283 128.116V370.885C677.283 377.638 671.807 383.113 665.054 383.113C658.3 383.113 652.825 377.638 652.825 370.885V128.116C652.825 121.363 658.3 115.888 665.054 115.888ZM773.858 115.888C780.612 115.888 786.087 121.362 786.087 128.116V370.885C786.087 377.638 780.612 383.113 773.858 383.113C767.105 383.113 761.629 377.638 761.629 370.885V128.116C761.629 121.362 767.105 115.888 773.858 115.888ZM121.033 150.484C127.787 150.484 133.261 155.959 133.262 162.713V336.287C133.262 343.041 127.787 348.517 121.033 348.517C114.279 348.517 108.804 343.041 108.804 336.287V162.713C108.804 155.959 114.279 150.484 121.033 150.484ZM338.642 150.484C345.395 150.484 350.87 155.959 350.87 162.713V336.287C350.87 343.041 345.395 348.517 338.642 348.517C331.888 348.517 326.412 343.041 326.412 336.287V162.713C326.412 155.959 331.888 150.484 338.642 150.484ZM610.652 150.484C617.406 150.485 622.881 155.959 622.881 162.713V336.287C622.881 343.041 617.406 348.516 610.652 348.517C603.898 348.517 598.423 343.041 598.423 336.287V162.713C598.423 155.959 603.899 150.484 610.652 150.484ZM828.261 150.484C835.014 150.485 840.489 155.959 840.489 162.713V336.287C840.489 343.041 835.014 348.516 828.261 348.517C821.507 348.517 816.031 343.041 816.031 336.287V162.713C816.031 155.959 821.507 150.484 828.261 150.484ZM66.6309 200.732C73.3847 200.732 78.8604 206.208 78.8604 212.962V286.039C78.8604 292.793 73.3847 298.269 66.6309 298.269C59.8771 298.268 54.4023 292.793 54.4023 286.039V212.962C54.4023 206.208 59.8771 200.733 66.6309 200.732ZM393.044 200.732C399.798 200.733 405.272 206.208 405.272 212.962V286.039C405.272 292.793 399.798 298.268 393.044 298.269C386.29 298.269 380.814 292.793 380.814 286.039V212.962C380.814 206.208 386.29 200.732 393.044 200.732ZM556.25 200.732C563.004 200.732 568.479 206.208 568.479 212.962V286.039C568.479 292.793 563.004 298.269 556.25 298.269C549.496 298.269 544.021 292.793 544.021 286.039V212.962C544.021 206.208 549.496 200.732 556.25 200.732ZM882.662 200.732C889.416 200.732 894.892 206.208 894.892 212.962V286.039C894.892 292.793 889.416 298.269 882.662 298.269C875.908 298.268 870.434 292.793 870.434 286.039V212.962C870.434 206.208 875.908 200.733 882.662 200.732ZM12.541 237.583C19.1224 237.583 24.4578 242.919 24.458 249.5C24.458 256.082 19.1225 261.417 12.541 261.417H11.917C5.33541 261.417 -4.4746e-08 256.082 0 249.5C0.000188974 242.919 5.33552 237.583 11.917 237.583H12.541ZM447.758 237.583C454.339 237.583 459.675 242.919 459.675 249.5C459.675 256.082 454.339 261.417 447.758 261.417H447.134C440.552 261.417 435.217 256.082 435.217 249.5C435.217 242.919 440.552 237.583 447.134 237.583H447.758ZM502.159 237.583C508.741 237.583 514.077 242.919 514.077 249.5C514.077 256.082 508.741 261.417 502.159 261.417H501.536C494.954 261.417 489.619 256.082 489.619 249.5C489.619 242.919 494.955 237.583 501.536 237.583H502.159ZM937.376 237.583C943.958 237.583 949.294 242.919 949.294 249.5C949.294 256.082 943.958 261.417 937.376 261.417H936.753C930.171 261.417 924.836 256.082 924.836 249.5C924.836 242.919 930.171 237.583 936.753 237.583H937.376Z" fill="url(#paint0_linear_653_9111)"/>
<defs>
<linearGradient id="paint0_linear_653_9111" x1="949.294" y1="133.061" x2="0.952621" y2="-26.3115" gradientUnits="userSpaceOnUse">
<stop stop-color="#206FE5" stop-opacity="0"/>
<stop offset="1" stop-color="#35FF89"/>
</linearGradient>
</defs>
</svg>
