<svg width="88" height="88" viewBox="0 0 88 88" fill="none" xmlns="http://www.w3.org/2000/svg">
<path d="M44.4092 79.1875C61.651 78.7507 75.8117 65.9157 78.3096 49.2646C78.8921 47.5718 79.2012 45.8096 79.2012 43.999L79.1895 43.3936C79.1286 41.7935 78.827 40.2335 78.3086 38.7285C75.7651 21.7883 61.15 8.79893 43.501 8.79883L42.5918 8.81055C23.8734 9.28512 8.78667 24.3724 8.3125 43.0908L8.30078 43.999C8.30089 63.4393 24.0607 79.1991 43.501 79.1992L44.4092 79.1875ZM11.5771 34.8574C15.5473 20.9672 28.336 10.7989 43.501 10.7988C57.7668 10.7989 69.9296 19.7975 74.627 32.4277C68.5752 25.3281 57.1276 20.5381 44.001 20.5381L43.0918 20.5459C28.9086 20.7856 16.8132 26.6185 11.5771 34.8574ZM11.4561 39.7803C12.7129 35.7678 15.7432 32.058 20.2197 29.0742C26.2181 25.0763 34.6205 22.5381 44.001 22.5381C53.3813 22.5381 61.7829 25.0764 67.7812 29.0742C72.0479 31.9179 75.0002 35.4216 76.3564 39.2178C76.3789 39.3737 76.4016 39.5299 76.4219 39.6865C71.0715 35.7217 58.5703 32.9395 44.001 32.9395L42.1895 32.9531C28.2884 33.1745 16.5165 35.9316 11.4561 39.7803ZM44.001 53.0596C34.4264 53.0596 25.8375 51.8375 19.71 49.9121C16.6346 48.9458 14.2911 47.8368 12.7598 46.6992C11.191 45.5338 10.8009 44.5986 10.8008 43.999C10.8009 43.3995 11.1913 42.4651 12.7598 41.2998C14.2911 40.1622 16.6346 39.0533 19.71 38.0869C25.8375 36.1616 34.4264 34.9395 44.001 34.9395C53.5753 34.9395 62.1635 36.1616 68.291 38.0869C71.3666 39.0533 73.7108 40.1622 75.2422 41.2998C75.9153 41.7999 76.3704 42.2582 76.6719 42.665C76.6894 43.1075 76.7012 43.5523 76.7012 43.999C76.7012 44.4465 76.6894 44.8918 76.6719 45.335C76.3704 45.7416 75.9148 46.1996 75.2422 46.6992C73.7108 47.8368 71.3665 48.9458 68.291 49.9121C62.1635 51.8374 53.5752 53.0596 44.001 53.0596ZM44.001 65.46C34.6205 65.4599 26.2181 62.9218 20.2197 58.9238C15.7435 55.9403 12.7131 52.2308 11.4561 48.2188C16.7354 52.2332 29.3179 55.0595 44.001 55.0596L45.8125 55.0449C59.6004 54.8253 71.2945 52.1111 76.4219 48.3115C76.4015 48.4685 76.379 48.625 76.3564 48.7812C75.0001 52.5771 72.0476 56.0803 67.7812 58.9238C61.7829 62.9217 53.3813 65.4599 44.001 65.46ZM43.501 77.1992C28.3389 77.1991 15.5518 67.0346 11.5791 53.1484C16.9291 61.5594 29.431 67.4599 44.001 67.46L44.9092 67.4521C57.653 67.237 68.7137 62.5073 74.626 55.5732C69.9278 68.2018 57.7657 77.1991 43.501 77.1992Z" fill="#0D1A35"/>
</svg>
