<svg width="80" height="80" viewBox="0 0 80 80" fill="none" xmlns="http://www.w3.org/2000/svg">
<path d="M40.6049 45.5769C43.5416 45.5769 45.9223 43.1962 45.9223 40.2595C45.9223 37.3228 43.5416 34.9421 40.6049 34.9421C37.6681 34.9421 35.2875 37.3228 35.2875 40.2595C35.2875 43.1962 37.6681 45.5769 40.6049 45.5769Z" fill="url(#paint0_linear_649_8739)"/>
<path d="M17.1102 30.2658C19.0681 30.2658 20.6552 28.6786 20.6552 26.7208C20.6552 24.763 19.0681 23.1759 17.1102 23.1759C15.1524 23.1759 13.5653 24.763 13.5653 26.7208C13.5653 28.6786 15.1524 30.2658 17.1102 30.2658Z" fill="url(#paint1_linear_649_8739)"/>
<path d="M8.24836 42.5976C9.26892 42.5976 10.0962 41.7703 10.0962 40.7497C10.0962 39.7291 9.26892 38.9018 8.24836 38.9018C7.2278 38.9018 6.40039 39.7291 6.40039 40.7497C6.40039 41.7703 7.2278 42.5976 8.24836 42.5976Z" fill="url(#paint2_linear_649_8739)"/>
<path d="M31.7428 37.0162C32.7633 37.0162 33.5906 36.1889 33.5906 35.1683C33.5906 34.1478 32.7633 33.3204 31.7428 33.3204C30.7222 33.3204 29.8949 34.1478 29.8949 35.1683C29.8949 36.1889 30.7222 37.0162 31.7428 37.0162Z" fill="url(#paint3_linear_649_8739)"/>
<path d="M22.4662 38.2984C25.2946 37.1294 26.3883 33.3582 26.3883 33.3582C26.3883 33.3582 22.9187 31.4348 20.128 32.6039C17.3374 33.773 16.206 37.5442 16.206 37.5442C16.206 37.5442 19.6755 39.4675 22.4662 38.2984Z" fill="url(#paint4_linear_649_8739)"/>
<path d="M29.8579 25.5895C30.2728 28.6064 27.5198 31.4726 27.5198 31.4726C27.5198 31.4726 24.1257 29.4361 23.7108 26.4192C23.296 23.4022 26.049 20.5361 26.049 20.5361C26.049 20.5361 29.4431 22.5725 29.8579 25.5895Z" fill="url(#paint5_linear_649_8739)"/>
<path d="M40.6049 45.5769C43.5416 45.5769 45.9223 43.1962 45.9223 40.2595C45.9223 37.3228 43.5416 34.9421 40.6049 34.9421C37.6681 34.9421 35.2875 37.3228 35.2875 40.2595C35.2875 43.1962 37.6681 45.5769 40.6049 45.5769Z" fill="url(#paint6_linear_649_8739)"/>
<path d="M17.1101 57.3808C19.0679 57.3808 20.655 55.7936 20.655 53.8358C20.655 51.878 19.0679 50.2909 17.1101 50.2909C15.1522 50.2909 13.5651 51.878 13.5651 53.8358C13.5651 55.7936 15.1522 57.3808 17.1101 57.3808Z" fill="url(#paint7_linear_649_8739)"/>
<path d="M24.8411 70.3537C25.8616 70.3537 26.6889 69.5263 26.6889 68.5058C26.6889 67.4852 25.8616 66.6579 24.8411 66.6579C23.8205 66.6579 22.9931 67.4852 22.9931 68.5058C22.9931 69.5263 23.8205 70.3537 24.8411 70.3537Z" fill="url(#paint8_linear_649_8739)"/>
<path d="M31.7426 47.2362C32.7631 47.2362 33.5904 46.4089 33.5904 45.3883C33.5904 44.3677 32.7631 43.5404 31.7426 43.5404C30.722 43.5404 29.8947 44.3677 29.8947 45.3883C29.8947 46.4089 30.722 47.2362 31.7426 47.2362Z" fill="url(#paint9_linear_649_8739)"/>
<path d="M29.8188 54.9672C30.2336 51.9502 27.4807 49.0841 27.4807 49.0841C27.4807 49.0841 24.0867 51.1205 23.6719 54.1375C23.257 57.1545 26.01 60.0206 26.01 60.0206C26.01 60.0206 29.404 57.9841 29.8188 54.9672Z" fill="url(#paint10_linear_649_8739)"/>
<path d="M22.465 42.2205C25.2934 43.3896 26.3871 47.1608 26.3871 47.1608C26.3871 47.1608 22.9175 49.0841 20.1269 47.915C17.3362 46.7459 16.2048 42.9747 16.2048 42.9747C16.2048 42.9747 19.6743 41.0514 22.465 42.2205Z" fill="url(#paint11_linear_649_8739)"/>
<path d="M40.567 45.5769C43.5037 45.5769 45.8844 43.1962 45.8844 40.2595C45.8844 37.3228 43.5037 34.9421 40.567 34.9421C37.6302 34.9421 35.2496 37.3228 35.2496 40.2595C35.2496 43.1962 37.6302 45.5769 40.567 45.5769Z" fill="url(#paint12_linear_649_8739)"/>
<path d="M40.5668 70.9194C42.5247 70.9194 44.1118 69.3322 44.1118 67.3744C44.1118 65.4166 42.5247 63.8295 40.5668 63.8295C38.609 63.8295 37.0219 65.4166 37.0219 67.3744C37.0219 69.3322 38.609 70.9194 40.5668 70.9194Z" fill="url(#paint13_linear_649_8739)"/>
<path d="M57.1605 69.8634C58.181 69.8634 59.0084 69.0361 59.0084 68.0155C59.0084 66.995 58.181 66.1676 57.1605 66.1676C56.1399 66.1676 55.3126 66.995 55.3126 68.0155C55.3126 69.0361 56.1399 69.8634 57.1605 69.8634Z" fill="url(#paint14_linear_649_8739)"/>
<path d="M40.5675 52.3273C41.5881 52.3273 42.4155 51.5 42.4155 50.4795C42.4155 49.4589 41.5881 48.6316 40.5675 48.6316C39.547 48.6316 38.7197 49.4589 38.7197 50.4795C38.7197 51.5 39.547 52.3273 40.5675 52.3273Z" fill="url(#paint15_linear_649_8739)"/>
<path d="M47.9205 56.9282C45.507 55.0803 41.6603 56.0231 41.6603 56.0231C41.6603 56.0231 41.7358 59.9829 44.1493 61.8307C46.5629 63.6786 50.4095 62.7358 50.4095 62.7358C50.4095 62.7358 50.3341 58.7761 47.9205 56.9282Z" fill="url(#paint16_linear_649_8739)"/>
<path d="M33.2133 56.9282C35.6269 55.0803 39.4735 56.0231 39.4735 56.0231C39.4735 56.0231 39.3981 59.9829 36.9845 61.8307C34.5709 63.6786 30.7243 62.7358 30.7243 62.7358C30.7243 62.7358 30.7997 58.7761 33.2133 56.9282Z" fill="url(#paint17_linear_649_8739)"/>
<path d="M40.567 45.5769C43.5037 45.5769 45.8844 43.1962 45.8844 40.2595C45.8844 37.3228 43.5037 34.9421 40.567 34.9421C37.6302 34.9421 35.2496 37.3228 35.2496 40.2595C35.2496 43.1962 37.6302 45.5769 40.567 45.5769Z" fill="url(#paint18_linear_649_8739)"/>
<path d="M64.0614 57.3808C66.0192 57.3808 67.6063 55.7936 67.6063 53.8358C67.6063 51.878 66.0192 50.2909 64.0614 50.2909C62.1035 50.2909 60.5164 51.878 60.5164 53.8358C60.5164 55.7936 62.1035 57.3808 64.0614 57.3808Z" fill="url(#paint19_linear_649_8739)"/>
<path d="M72.9239 41.6548C73.9445 41.6548 74.7718 40.8275 74.7718 39.8069C74.7718 38.7864 73.9445 37.9591 72.9239 37.9591C71.9034 37.9591 71.076 38.7864 71.076 39.8069C71.076 40.8275 71.9034 41.6548 72.9239 41.6548Z" fill="url(#paint20_linear_649_8739)"/>
<path d="M49.4293 47.2362C50.4499 47.2362 51.2772 46.4089 51.2772 45.3883C51.2772 44.3677 50.4499 43.5404 49.4293 43.5404C48.4087 43.5404 47.5815 44.3677 47.5815 45.3883C47.5815 46.4089 48.4087 47.2362 49.4293 47.2362Z" fill="url(#paint21_linear_649_8739)"/>
<path d="M58.6694 42.2205C55.841 43.3896 54.7473 47.1608 54.7473 47.1608C54.7473 47.1608 58.2168 49.0841 61.0075 47.915C63.7982 46.7459 64.9296 42.9747 64.9296 42.9747C64.9296 42.9747 61.4601 41.0514 58.6694 42.2205Z" fill="url(#paint22_linear_649_8739)"/>
<path d="M51.3151 54.9672C50.9003 51.9502 53.6532 49.0841 53.6532 49.0841C53.6532 49.0841 57.0474 51.1205 57.4622 54.1375C57.877 57.1545 55.1241 60.0206 55.1241 60.0206C55.1241 60.0206 51.73 57.9841 51.3151 54.9672Z" fill="url(#paint23_linear_649_8739)"/>
<path d="M40.567 45.5769C43.5037 45.5769 45.8844 43.1962 45.8844 40.2595C45.8844 37.3228 43.5037 34.9421 40.567 34.9421C37.6302 34.9421 35.2496 37.3228 35.2496 40.2595C35.2496 43.1962 37.6302 45.5769 40.567 45.5769Z" fill="url(#paint24_linear_649_8739)"/>
<path d="M64.0614 30.2658C66.0192 30.2658 67.6063 28.6787 67.6063 26.7209C67.6063 24.7631 66.0192 23.176 64.0614 23.176C62.1035 23.176 60.5164 24.7631 60.5164 26.7209C60.5164 28.6787 62.1035 30.2658 64.0614 30.2658Z" fill="url(#paint25_linear_649_8739)"/>
<path d="M56.331 13.8988C57.3516 13.8988 58.1789 13.0715 58.1789 12.0509C58.1789 11.0303 57.3516 10.203 56.331 10.203C55.3105 10.203 54.483 11.0303 54.483 12.0509C54.483 13.0715 55.3105 13.8988 56.331 13.8988Z" fill="url(#paint26_linear_649_8739)"/>
<path d="M49.4293 37.0163C50.4499 37.0163 51.2772 36.189 51.2772 35.1684C51.2772 34.1478 50.4499 33.3205 49.4293 33.3205C48.4087 33.3205 47.5815 34.1478 47.5815 35.1684C47.5815 36.189 48.4087 37.0163 49.4293 37.0163Z" fill="url(#paint27_linear_649_8739)"/>
<path d="M51.3151 25.5895C50.9003 28.6065 53.6533 31.4726 53.6533 31.4726C53.6533 31.4726 57.0474 29.4362 57.4622 26.4192C57.877 23.4022 55.1241 20.5361 55.1241 20.5361C55.1241 20.5361 51.73 22.5726 51.3151 25.5895Z" fill="url(#paint28_linear_649_8739)"/>
<path d="M58.6694 38.2985C55.841 37.1294 54.7473 33.3582 54.7473 33.3582C54.7473 33.3582 58.2168 31.4349 61.0075 32.604C63.7982 33.773 64.9296 37.5442 64.9296 37.5442C64.9296 37.5442 61.46 39.4676 58.6694 38.2985Z" fill="url(#paint29_linear_649_8739)"/>
<path d="M40.567 45.5769C43.5037 45.5769 45.8844 43.1962 45.8844 40.2595C45.8844 37.3228 43.5037 34.9421 40.567 34.9421C37.6302 34.9421 35.2496 37.3228 35.2496 40.2595C35.2496 43.1962 37.6302 45.5769 40.567 45.5769Z" fill="url(#paint30_linear_649_8739)"/>
<path d="M40.5668 16.6895C42.5246 16.6895 44.1118 15.1023 44.1118 13.1445C44.1118 11.1867 42.5246 9.59961 40.5668 9.59961C38.609 9.59961 37.0219 11.1867 37.0219 13.1445C37.0219 15.1023 38.609 16.6895 40.5668 16.6895Z" fill="url(#paint31_linear_649_8739)"/>
<path d="M24.0115 14.3513C25.0321 14.3513 25.8594 13.524 25.8594 12.5034C25.8594 11.4829 25.0321 10.6555 24.0115 10.6555C22.991 10.6555 22.1636 11.4829 22.1636 12.5034C22.1636 13.524 22.991 14.3513 24.0115 14.3513Z" fill="url(#paint32_linear_649_8739)"/>
<path d="M40.5675 31.9251C41.5881 31.9251 42.4155 31.0978 42.4155 30.0772C42.4155 29.0567 41.5881 28.2294 40.5675 28.2294C39.547 28.2294 38.7197 29.0567 38.7197 30.0772C38.7197 31.0978 39.547 31.9251 40.5675 31.9251Z" fill="url(#paint33_linear_649_8739)"/>
<path d="M33.2133 23.6285C35.6269 25.4764 39.4735 24.5335 39.4735 24.5335C39.4735 24.5335 39.3981 20.5738 36.9845 18.7259C34.5709 16.878 30.7243 17.8208 30.7243 17.8208C30.7243 17.8208 30.7997 21.7806 33.2133 23.6285Z" fill="url(#paint34_linear_649_8739)"/>
<path d="M47.9205 23.6285C45.5069 25.4764 41.6603 24.5336 41.6603 24.5336C41.6603 24.5336 41.7357 20.5738 44.1493 18.7259C46.5629 16.878 50.4095 17.8208 50.4095 17.8208C50.4095 17.8208 50.3341 21.7806 47.9205 23.6285Z" fill="url(#paint35_linear_649_8739)"/>
<defs>
<linearGradient id="paint0_linear_649_8739" x1="-12.6952" y1="22.626" x2="46.3615" y2="115.622" gradientUnits="userSpaceOnUse">
<stop stop-color="#35FF89"/>
<stop offset="1" stop-color="#3177F3"/>
</linearGradient>
<linearGradient id="paint1_linear_649_8739" x1="-12.6952" y1="22.626" x2="46.3615" y2="115.622" gradientUnits="userSpaceOnUse">
<stop stop-color="#35FF89"/>
<stop offset="1" stop-color="#3177F3"/>
</linearGradient>
<linearGradient id="paint2_linear_649_8739" x1="-12.6952" y1="22.626" x2="46.3615" y2="115.622" gradientUnits="userSpaceOnUse">
<stop stop-color="#35FF89"/>
<stop offset="1" stop-color="#3177F3"/>
</linearGradient>
<linearGradient id="paint3_linear_649_8739" x1="-12.6952" y1="22.626" x2="46.3615" y2="115.622" gradientUnits="userSpaceOnUse">
<stop stop-color="#35FF89"/>
<stop offset="1" stop-color="#3177F3"/>
</linearGradient>
<linearGradient id="paint4_linear_649_8739" x1="-12.6952" y1="22.626" x2="46.3615" y2="115.622" gradientUnits="userSpaceOnUse">
<stop stop-color="#35FF89"/>
<stop offset="1" stop-color="#3177F3"/>
</linearGradient>
<linearGradient id="paint5_linear_649_8739" x1="-12.6952" y1="22.626" x2="46.3615" y2="115.622" gradientUnits="userSpaceOnUse">
<stop stop-color="#35FF89"/>
<stop offset="1" stop-color="#3177F3"/>
</linearGradient>
<linearGradient id="paint6_linear_649_8739" x1="-12.6952" y1="22.626" x2="46.3615" y2="115.622" gradientUnits="userSpaceOnUse">
<stop stop-color="#35FF89"/>
<stop offset="1" stop-color="#3177F3"/>
</linearGradient>
<linearGradient id="paint7_linear_649_8739" x1="-12.6952" y1="22.626" x2="46.3615" y2="115.622" gradientUnits="userSpaceOnUse">
<stop stop-color="#35FF89"/>
<stop offset="1" stop-color="#3177F3"/>
</linearGradient>
<linearGradient id="paint8_linear_649_8739" x1="-12.6952" y1="22.626" x2="46.3615" y2="115.622" gradientUnits="userSpaceOnUse">
<stop stop-color="#35FF89"/>
<stop offset="1" stop-color="#3177F3"/>
</linearGradient>
<linearGradient id="paint9_linear_649_8739" x1="-12.6952" y1="22.626" x2="46.3615" y2="115.622" gradientUnits="userSpaceOnUse">
<stop stop-color="#35FF89"/>
<stop offset="1" stop-color="#3177F3"/>
</linearGradient>
<linearGradient id="paint10_linear_649_8739" x1="-12.6952" y1="22.626" x2="46.3615" y2="115.622" gradientUnits="userSpaceOnUse">
<stop stop-color="#35FF89"/>
<stop offset="1" stop-color="#3177F3"/>
</linearGradient>
<linearGradient id="paint11_linear_649_8739" x1="-12.6952" y1="22.626" x2="46.3615" y2="115.622" gradientUnits="userSpaceOnUse">
<stop stop-color="#35FF89"/>
<stop offset="1" stop-color="#3177F3"/>
</linearGradient>
<linearGradient id="paint12_linear_649_8739" x1="-12.6952" y1="22.626" x2="46.3615" y2="115.622" gradientUnits="userSpaceOnUse">
<stop stop-color="#35FF89"/>
<stop offset="1" stop-color="#3177F3"/>
</linearGradient>
<linearGradient id="paint13_linear_649_8739" x1="-12.6952" y1="22.626" x2="46.3615" y2="115.622" gradientUnits="userSpaceOnUse">
<stop stop-color="#35FF89"/>
<stop offset="1" stop-color="#3177F3"/>
</linearGradient>
<linearGradient id="paint14_linear_649_8739" x1="-12.6952" y1="22.626" x2="46.3615" y2="115.622" gradientUnits="userSpaceOnUse">
<stop stop-color="#35FF89"/>
<stop offset="1" stop-color="#3177F3"/>
</linearGradient>
<linearGradient id="paint15_linear_649_8739" x1="-12.6952" y1="22.626" x2="46.3615" y2="115.622" gradientUnits="userSpaceOnUse">
<stop stop-color="#35FF89"/>
<stop offset="1" stop-color="#3177F3"/>
</linearGradient>
<linearGradient id="paint16_linear_649_8739" x1="-12.6952" y1="22.626" x2="46.3615" y2="115.622" gradientUnits="userSpaceOnUse">
<stop stop-color="#35FF89"/>
<stop offset="1" stop-color="#3177F3"/>
</linearGradient>
<linearGradient id="paint17_linear_649_8739" x1="-12.6952" y1="22.626" x2="46.3615" y2="115.622" gradientUnits="userSpaceOnUse">
<stop stop-color="#35FF89"/>
<stop offset="1" stop-color="#3177F3"/>
</linearGradient>
<linearGradient id="paint18_linear_649_8739" x1="-12.6952" y1="22.626" x2="46.3615" y2="115.622" gradientUnits="userSpaceOnUse">
<stop stop-color="#35FF89"/>
<stop offset="1" stop-color="#3177F3"/>
</linearGradient>
<linearGradient id="paint19_linear_649_8739" x1="-12.6952" y1="22.626" x2="46.3615" y2="115.622" gradientUnits="userSpaceOnUse">
<stop stop-color="#35FF89"/>
<stop offset="1" stop-color="#3177F3"/>
</linearGradient>
<linearGradient id="paint20_linear_649_8739" x1="-12.6952" y1="22.626" x2="46.3615" y2="115.622" gradientUnits="userSpaceOnUse">
<stop stop-color="#35FF89"/>
<stop offset="1" stop-color="#3177F3"/>
</linearGradient>
<linearGradient id="paint21_linear_649_8739" x1="-12.6952" y1="22.626" x2="46.3615" y2="115.622" gradientUnits="userSpaceOnUse">
<stop stop-color="#35FF89"/>
<stop offset="1" stop-color="#3177F3"/>
</linearGradient>
<linearGradient id="paint22_linear_649_8739" x1="-12.6952" y1="22.626" x2="46.3615" y2="115.622" gradientUnits="userSpaceOnUse">
<stop stop-color="#35FF89"/>
<stop offset="1" stop-color="#3177F3"/>
</linearGradient>
<linearGradient id="paint23_linear_649_8739" x1="-12.6952" y1="22.626" x2="46.3615" y2="115.622" gradientUnits="userSpaceOnUse">
<stop stop-color="#35FF89"/>
<stop offset="1" stop-color="#3177F3"/>
</linearGradient>
<linearGradient id="paint24_linear_649_8739" x1="-12.6952" y1="22.626" x2="46.3615" y2="115.622" gradientUnits="userSpaceOnUse">
<stop stop-color="#35FF89"/>
<stop offset="1" stop-color="#3177F3"/>
</linearGradient>
<linearGradient id="paint25_linear_649_8739" x1="-12.6952" y1="22.626" x2="46.3615" y2="115.622" gradientUnits="userSpaceOnUse">
<stop stop-color="#35FF89"/>
<stop offset="1" stop-color="#3177F3"/>
</linearGradient>
<linearGradient id="paint26_linear_649_8739" x1="-12.6952" y1="22.626" x2="46.3615" y2="115.622" gradientUnits="userSpaceOnUse">
<stop stop-color="#35FF89"/>
<stop offset="1" stop-color="#3177F3"/>
</linearGradient>
<linearGradient id="paint27_linear_649_8739" x1="-12.6952" y1="22.626" x2="46.3615" y2="115.622" gradientUnits="userSpaceOnUse">
<stop stop-color="#35FF89"/>
<stop offset="1" stop-color="#3177F3"/>
</linearGradient>
<linearGradient id="paint28_linear_649_8739" x1="-12.6952" y1="22.626" x2="46.3615" y2="115.622" gradientUnits="userSpaceOnUse">
<stop stop-color="#35FF89"/>
<stop offset="1" stop-color="#3177F3"/>
</linearGradient>
<linearGradient id="paint29_linear_649_8739" x1="-12.6952" y1="22.626" x2="46.3615" y2="115.622" gradientUnits="userSpaceOnUse">
<stop stop-color="#35FF89"/>
<stop offset="1" stop-color="#3177F3"/>
</linearGradient>
<linearGradient id="paint30_linear_649_8739" x1="-12.6952" y1="22.626" x2="46.3615" y2="115.622" gradientUnits="userSpaceOnUse">
<stop stop-color="#35FF89"/>
<stop offset="1" stop-color="#3177F3"/>
</linearGradient>
<linearGradient id="paint31_linear_649_8739" x1="-12.6952" y1="22.626" x2="46.3615" y2="115.622" gradientUnits="userSpaceOnUse">
<stop stop-color="#35FF89"/>
<stop offset="1" stop-color="#3177F3"/>
</linearGradient>
<linearGradient id="paint32_linear_649_8739" x1="-12.6952" y1="22.626" x2="46.3615" y2="115.622" gradientUnits="userSpaceOnUse">
<stop stop-color="#35FF89"/>
<stop offset="1" stop-color="#3177F3"/>
</linearGradient>
<linearGradient id="paint33_linear_649_8739" x1="-12.6952" y1="22.626" x2="46.3615" y2="115.622" gradientUnits="userSpaceOnUse">
<stop stop-color="#35FF89"/>
<stop offset="1" stop-color="#3177F3"/>
</linearGradient>
<linearGradient id="paint34_linear_649_8739" x1="-12.6952" y1="22.626" x2="46.3615" y2="115.622" gradientUnits="userSpaceOnUse">
<stop stop-color="#35FF89"/>
<stop offset="1" stop-color="#3177F3"/>
</linearGradient>
<linearGradient id="paint35_linear_649_8739" x1="-12.6952" y1="22.626" x2="46.3615" y2="115.622" gradientUnits="userSpaceOnUse">
<stop stop-color="#35FF89"/>
<stop offset="1" stop-color="#3177F3"/>
</linearGradient>
</defs>
</svg>
