<svg width="80" height="80" viewBox="0 0 80 80" fill="none" xmlns="http://www.w3.org/2000/svg">
<path d="M32.0102 52.0738C33.2599 52.0738 34.2729 51.0607 34.2729 49.8111C34.2729 48.5614 33.2599 47.5484 32.0102 47.5484C30.7605 47.5484 29.7475 48.5614 29.7475 49.8111C29.7475 51.0607 30.7605 52.0738 32.0102 52.0738Z" fill="url(#paint0_linear_634_2436)"/>
<path d="M27.3344 56.7501C27.3344 55.581 28.2771 54.6382 29.4462 54.6382C30.6153 54.6382 31.5581 55.581 31.5581 56.7501C31.5581 57.9192 30.6153 58.862 29.4462 58.862C28.2771 58.862 27.3344 57.9192 27.3344 56.7501Z" fill="url(#paint1_linear_634_2436)"/>
<path d="M28.9557 63.312C28.9557 62.52 29.5968 61.8789 30.3888 61.8789C31.1807 61.8789 31.8218 62.52 31.8218 63.312C31.8218 64.1039 31.1807 64.745 30.3888 64.745C29.5968 64.745 28.9557 64.1039 28.9557 63.312Z" fill="url(#paint2_linear_634_2436)"/>
<path d="M34.198 69.4213C34.802 69.4213 35.2917 68.9317 35.2917 68.3277C35.2917 67.7237 34.802 67.234 34.198 67.234C33.594 67.234 33.1044 67.7237 33.1044 68.3277C33.1044 68.9317 33.594 69.4213 34.198 69.4213Z" fill="url(#paint3_linear_634_2436)"/>
<path d="M27.9379 45.1348C29.1875 45.1348 30.2006 44.1217 30.2006 42.8721C30.2006 41.6224 29.1875 40.6094 27.9379 40.6094C26.6882 40.6094 25.6752 41.6224 25.6752 42.8721C25.6752 44.1217 26.6882 45.1348 27.9379 45.1348Z" fill="url(#paint4_linear_634_2436)"/>
<path d="M21.7528 49.0946C22.9191 49.0946 23.8646 48.1491 23.8646 46.9827C23.8646 45.8163 22.9191 44.8708 21.7528 44.8708C20.5864 44.8708 19.6409 45.8163 19.6409 46.9827C19.6409 48.1491 20.5864 49.0946 21.7528 49.0946Z" fill="url(#paint5_linear_634_2436)"/>
<path d="M18.6608 54.2611C19.4523 54.2611 20.0938 53.6195 20.0938 52.828C20.0938 52.0366 19.4523 51.395 18.6608 51.395C17.8694 51.395 17.2277 52.0366 17.2277 52.828C17.2277 53.6195 17.8694 54.2611 18.6608 54.2611Z" fill="url(#paint6_linear_634_2436)"/>
<path d="M18.8112 60.2196C19.4152 60.2196 19.9049 59.7299 19.9049 59.1259C19.9049 58.5219 19.4152 58.0323 18.8112 58.0323C18.2072 58.0323 17.7176 58.5219 17.7176 59.1259C17.7176 59.7299 18.2072 60.2196 18.8112 60.2196Z" fill="url(#paint7_linear_634_2436)"/>
<path d="M28.6921 37.1398C29.9418 37.1398 30.9548 36.1268 30.9548 34.8771C30.9548 33.6274 29.9418 32.6144 28.6921 32.6144C27.4425 32.6144 26.4294 33.6274 26.4294 34.8771C26.4294 36.1268 27.4425 37.1398 28.6921 37.1398Z" fill="url(#paint8_linear_634_2436)"/>
<path d="M21.3008 36.6873C22.4672 36.6873 23.4127 35.7418 23.4127 34.5754C23.4127 33.4091 22.4672 32.4636 21.3008 32.4636C20.1345 32.4636 19.189 33.4091 19.189 34.5754C19.189 35.7418 20.1345 36.6873 21.3008 36.6873Z" fill="url(#paint9_linear_634_2436)"/>
<path d="M15.3427 38.9123C16.1342 38.9123 16.7758 38.2707 16.7758 37.4792C16.7758 36.6878 16.1342 36.0462 15.3427 36.0462C14.5513 36.0462 13.9097 36.6878 13.9097 37.4792C13.9097 38.2707 14.5513 38.9123 15.3427 38.9123Z" fill="url(#paint10_linear_634_2436)"/>
<path d="M11.7597 43.7395C12.3637 43.7395 12.8533 43.2498 12.8533 42.6458C12.8533 42.0418 12.3637 41.5522 11.7597 41.5522C11.1557 41.5522 10.666 42.0418 10.666 42.6458C10.666 43.2498 11.1557 43.7395 11.7597 43.7395Z" fill="url(#paint11_linear_634_2436)"/>
<path d="M34.0101 31.1059C35.2598 31.1059 36.2728 30.0929 36.2728 28.8432C36.2728 27.5935 35.2598 26.5805 34.0101 26.5805C32.7604 26.5805 31.7474 27.5935 31.7474 28.8432C31.7474 30.0929 32.7604 31.1059 34.0101 31.1059Z" fill="url(#paint12_linear_634_2436)"/>
<path d="M28.2025 26.3542C29.3688 26.3542 30.3143 25.4087 30.3143 24.2424C30.3143 23.076 29.3688 22.1305 28.2025 22.1305C27.0361 22.1305 26.0906 23.076 26.0906 24.2424C26.0906 25.4087 27.0361 26.3542 28.2025 26.3542Z" fill="url(#paint13_linear_634_2436)"/>
<path d="M21.6781 24.5063C22.4696 24.5063 23.1112 23.8647 23.1112 23.0733C23.1112 22.2818 22.4696 21.6402 21.6781 21.6402C20.8867 21.6402 20.2451 22.2818 20.2451 23.0733C20.2451 23.8647 20.8867 24.5063 21.6781 24.5063Z" fill="url(#paint14_linear_634_2436)"/>
<path d="M15.7197 26.2411C16.3237 26.2411 16.8133 25.7514 16.8133 25.1474C16.8133 24.5434 16.3237 24.0538 15.7197 24.0538C15.1157 24.0538 14.626 24.5434 14.626 25.1474C14.626 25.7514 15.1157 26.2411 15.7197 26.2411Z" fill="url(#paint15_linear_634_2436)"/>
<path d="M41.8914 29.3335C43.141 29.3335 44.1541 28.3204 44.1541 27.0707C44.1541 25.8211 43.141 24.808 41.8914 24.808C40.6417 24.808 39.6286 25.8211 39.6286 27.0707C39.6286 28.3204 40.6417 29.3335 41.8914 29.3335Z" fill="url(#paint16_linear_634_2436)"/>
<path d="M39.8926 22.055C41.059 22.055 42.0046 21.1095 42.0046 19.9432C42.0046 18.7768 41.059 17.8313 39.8926 17.8313C38.7263 17.8313 37.7808 18.7768 37.7808 19.9432C37.7808 21.1095 38.7263 22.055 39.8926 22.055Z" fill="url(#paint17_linear_634_2436)"/>
<path d="M35.2917 16.6245C36.0831 16.6245 36.7247 15.9829 36.7247 15.1914C36.7247 14.4 36.0831 13.7584 35.2917 13.7584C34.5002 13.7584 33.8586 14.4 33.8586 15.1914C33.8586 15.9829 34.5002 16.6245 35.2917 16.6245Z" fill="url(#paint18_linear_634_2436)"/>
<path d="M29.2577 14.4372C29.8617 14.4372 30.3513 13.9476 30.3513 13.3436C30.3513 12.7396 29.8617 12.2499 29.2577 12.2499C28.6537 12.2499 28.164 12.7396 28.164 13.3436C28.164 13.9476 28.6537 14.4372 29.2577 14.4372Z" fill="url(#paint19_linear_634_2436)"/>
<path d="M49.2835 32.539C50.5332 32.539 51.5463 31.5259 51.5463 30.2763C51.5463 29.0266 50.5332 28.0136 49.2835 28.0136C48.0339 28.0136 47.0208 29.0266 47.0208 30.2763C47.0208 31.5259 48.0339 32.539 49.2835 32.539Z" fill="url(#paint20_linear_634_2436)"/>
<path d="M51.8479 25.4491C53.0142 25.4491 53.9597 24.5036 53.9597 23.3373C53.9597 22.1709 53.0142 21.2254 51.8479 21.2254C50.6815 21.2254 49.7359 22.1709 49.7359 23.3373C49.7359 24.5036 50.6815 25.4491 51.8479 25.4491Z" fill="url(#paint21_linear_634_2436)"/>
<path d="M50.9048 18.2084C51.6962 18.2084 52.3378 17.5668 52.3378 16.7754C52.3378 15.9839 51.6962 15.3423 50.9048 15.3423C50.1133 15.3423 49.4717 15.9839 49.4717 16.7754C49.4717 17.5668 50.1133 18.2084 50.9048 18.2084Z" fill="url(#paint22_linear_634_2436)"/>
<path d="M47.0962 12.8533C47.7002 12.8533 48.1899 12.3637 48.1899 11.7597C48.1899 11.1557 47.7002 10.666 47.0962 10.666C46.4922 10.666 46.0026 11.1557 46.0026 11.7597C46.0026 12.3637 46.4922 12.8533 47.0962 12.8533Z" fill="url(#paint23_linear_634_2436)"/>
<path d="M53.356 39.478C54.6057 39.478 55.6187 38.465 55.6187 37.2153C55.6187 35.9656 54.6057 34.9526 53.356 34.9526C52.1063 34.9526 51.0933 35.9656 51.0933 37.2153C51.0933 38.465 52.1063 39.478 53.356 39.478Z" fill="url(#paint24_linear_634_2436)"/>
<path d="M59.5405 35.2165C60.7068 35.2165 61.6523 34.271 61.6523 33.1047C61.6523 31.9383 60.7068 30.9928 59.5405 30.9928C58.3741 30.9928 57.4286 31.9383 57.4286 33.1047C57.4286 34.271 58.3741 35.2165 59.5405 35.2165Z" fill="url(#paint25_linear_634_2436)"/>
<path d="M62.6329 28.6924C63.4244 28.6924 64.0659 28.0508 64.0659 27.2593C64.0659 26.4679 63.4244 25.8263 62.6329 25.8263C61.8414 25.8263 61.1998 26.4679 61.1998 27.2593C61.1998 28.0508 61.8414 28.6924 62.6329 28.6924Z" fill="url(#paint26_linear_634_2436)"/>
<path d="M62.5199 22.0551C63.1239 22.0551 63.6136 21.5654 63.6136 20.9614C63.6136 20.3574 63.1239 19.8678 62.5199 19.8678C61.9159 19.8678 61.4263 20.3574 61.4263 20.9614C61.4263 21.5654 61.9159 22.0551 62.5199 22.0551Z" fill="url(#paint27_linear_634_2436)"/>
<path d="M52.6018 47.4729C53.8515 47.4729 54.8645 46.4599 54.8645 45.2102C54.8645 43.9605 53.8515 42.9475 52.6018 42.9475C51.3521 42.9475 50.3391 43.9605 50.3391 45.2102C50.3391 46.4599 51.3521 47.4729 52.6018 47.4729Z" fill="url(#paint28_linear_634_2436)"/>
<path d="M59.9933 47.6238C61.1597 47.6238 62.1052 46.6782 62.1052 45.5119C62.1052 44.3455 61.1597 43.4 59.9933 43.4C58.827 43.4 57.8815 44.3455 57.8815 45.5119C57.8815 46.6782 58.827 47.6238 59.9933 47.6238Z" fill="url(#paint29_linear_634_2436)"/>
<path d="M65.9518 44.0411C66.7433 44.0411 67.3849 43.3995 67.3849 42.6081C67.3849 41.8166 66.7433 41.175 65.9518 41.175C65.1604 41.175 64.5188 41.8166 64.5188 42.6081C64.5188 43.3995 65.1604 44.0411 65.9518 44.0411Z" fill="url(#paint30_linear_634_2436)"/>
<path d="M69.5724 38.5352C70.1764 38.5352 70.6661 38.0455 70.6661 37.4415C70.6661 36.8375 70.1764 36.3479 69.5724 36.3479C68.9684 36.3479 68.4787 36.8375 68.4787 37.4415C68.4787 38.0455 68.9684 38.5352 69.5724 38.5352Z" fill="url(#paint31_linear_634_2436)"/>
<path d="M47.2848 53.5069C48.5345 53.5069 49.5475 52.4938 49.5475 51.2442C49.5475 49.9945 48.5345 48.9814 47.2848 48.9814C46.0351 48.9814 45.0221 49.9945 45.0221 51.2442C45.0221 52.4938 46.0351 53.5069 47.2848 53.5069Z" fill="url(#paint32_linear_634_2436)"/>
<path d="M53.0928 57.9569C54.2591 57.9569 55.2047 57.0113 55.2047 55.845C55.2047 54.6786 54.2591 53.7331 53.0928 53.7331C51.9264 53.7331 50.9809 54.6786 50.9809 55.845C50.9809 57.0113 51.9264 57.9569 53.0928 57.9569Z" fill="url(#paint33_linear_634_2436)"/>
<path d="M59.6166 58.4471C60.4081 58.4471 61.0497 57.8055 61.0497 57.0141C61.0497 56.2226 60.4081 55.581 59.6166 55.581C58.8252 55.581 58.1836 56.2226 58.1836 57.0141C58.1836 57.8055 58.8252 58.4471 59.6166 58.4471Z" fill="url(#paint34_linear_634_2436)"/>
<path d="M65.5749 56.0335C66.1789 56.0335 66.6685 55.5439 66.6685 54.9399C66.6685 54.3359 66.1789 53.8462 65.5749 53.8462C64.9709 53.8462 64.4812 54.3359 64.4812 54.9399C64.4812 55.5439 64.9709 56.0335 65.5749 56.0335Z" fill="url(#paint35_linear_634_2436)"/>
<path d="M39.4404 55.2793C40.69 55.2793 41.7031 54.2663 41.7031 53.0166C41.7031 51.7669 40.69 50.7539 39.4404 50.7539C38.1907 50.7539 37.1777 51.7669 37.1777 53.0166C37.1777 54.2663 38.1907 55.2793 39.4404 55.2793Z" fill="url(#paint36_linear_634_2436)"/>
<path d="M41.4016 62.256C42.5679 62.256 43.5134 61.3105 43.5134 60.1442C43.5134 58.9778 42.5679 58.0323 41.4016 58.0323C40.2352 58.0323 39.2897 58.9778 39.2897 60.1442C39.2897 61.3105 40.2352 62.256 41.4016 62.256Z" fill="url(#paint37_linear_634_2436)"/>
<path d="M46.0021 66.3289C46.7935 66.3289 47.4351 65.6873 47.4351 64.8959C47.4351 64.1044 46.7935 63.4628 46.0021 63.4628C45.2106 63.4628 44.569 64.1044 44.569 64.8959C44.569 65.6873 45.2106 66.3289 46.0021 66.3289Z" fill="url(#paint38_linear_634_2436)"/>
<path d="M52.0735 67.8374C52.6776 67.8374 53.1672 67.3478 53.1672 66.7438C53.1672 66.1398 52.6776 65.6501 52.0735 65.6501C51.4695 65.6501 50.9799 66.1398 50.9799 66.7438C50.9799 67.3478 51.4695 67.8374 52.0735 67.8374Z" fill="url(#paint39_linear_634_2436)"/>
<defs>
<linearGradient id="paint0_linear_634_2436" x1="-6.09156" y1="23.1476" x2="52.4602" y2="107.591" gradientUnits="userSpaceOnUse">
<stop stop-color="#35FF89"/>
<stop offset="1" stop-color="#3177F3"/>
</linearGradient>
<linearGradient id="paint1_linear_634_2436" x1="-6.09156" y1="23.1476" x2="52.4602" y2="107.591" gradientUnits="userSpaceOnUse">
<stop stop-color="#35FF89"/>
<stop offset="1" stop-color="#3177F3"/>
</linearGradient>
<linearGradient id="paint2_linear_634_2436" x1="-6.09156" y1="23.1476" x2="52.4602" y2="107.591" gradientUnits="userSpaceOnUse">
<stop stop-color="#35FF89"/>
<stop offset="1" stop-color="#3177F3"/>
</linearGradient>
<linearGradient id="paint3_linear_634_2436" x1="-6.09156" y1="23.1476" x2="52.4602" y2="107.591" gradientUnits="userSpaceOnUse">
<stop stop-color="#35FF89"/>
<stop offset="1" stop-color="#3177F3"/>
</linearGradient>
<linearGradient id="paint4_linear_634_2436" x1="-6.09156" y1="23.1476" x2="52.4602" y2="107.591" gradientUnits="userSpaceOnUse">
<stop stop-color="#35FF89"/>
<stop offset="1" stop-color="#3177F3"/>
</linearGradient>
<linearGradient id="paint5_linear_634_2436" x1="-6.09156" y1="23.1476" x2="52.4602" y2="107.591" gradientUnits="userSpaceOnUse">
<stop stop-color="#35FF89"/>
<stop offset="1" stop-color="#3177F3"/>
</linearGradient>
<linearGradient id="paint6_linear_634_2436" x1="-6.09156" y1="23.1476" x2="52.4602" y2="107.591" gradientUnits="userSpaceOnUse">
<stop stop-color="#35FF89"/>
<stop offset="1" stop-color="#3177F3"/>
</linearGradient>
<linearGradient id="paint7_linear_634_2436" x1="-6.09156" y1="23.1476" x2="52.4602" y2="107.591" gradientUnits="userSpaceOnUse">
<stop stop-color="#35FF89"/>
<stop offset="1" stop-color="#3177F3"/>
</linearGradient>
<linearGradient id="paint8_linear_634_2436" x1="-6.09156" y1="23.1476" x2="52.4602" y2="107.591" gradientUnits="userSpaceOnUse">
<stop stop-color="#35FF89"/>
<stop offset="1" stop-color="#3177F3"/>
</linearGradient>
<linearGradient id="paint9_linear_634_2436" x1="-6.09156" y1="23.1476" x2="52.4602" y2="107.591" gradientUnits="userSpaceOnUse">
<stop stop-color="#35FF89"/>
<stop offset="1" stop-color="#3177F3"/>
</linearGradient>
<linearGradient id="paint10_linear_634_2436" x1="-6.09156" y1="23.1476" x2="52.4602" y2="107.591" gradientUnits="userSpaceOnUse">
<stop stop-color="#35FF89"/>
<stop offset="1" stop-color="#3177F3"/>
</linearGradient>
<linearGradient id="paint11_linear_634_2436" x1="-6.09156" y1="23.1476" x2="52.4602" y2="107.591" gradientUnits="userSpaceOnUse">
<stop stop-color="#35FF89"/>
<stop offset="1" stop-color="#3177F3"/>
</linearGradient>
<linearGradient id="paint12_linear_634_2436" x1="-6.09156" y1="23.1476" x2="52.4602" y2="107.591" gradientUnits="userSpaceOnUse">
<stop stop-color="#35FF89"/>
<stop offset="1" stop-color="#3177F3"/>
</linearGradient>
<linearGradient id="paint13_linear_634_2436" x1="-6.09156" y1="23.1476" x2="52.4602" y2="107.591" gradientUnits="userSpaceOnUse">
<stop stop-color="#35FF89"/>
<stop offset="1" stop-color="#3177F3"/>
</linearGradient>
<linearGradient id="paint14_linear_634_2436" x1="-6.09156" y1="23.1476" x2="52.4602" y2="107.591" gradientUnits="userSpaceOnUse">
<stop stop-color="#35FF89"/>
<stop offset="1" stop-color="#3177F3"/>
</linearGradient>
<linearGradient id="paint15_linear_634_2436" x1="-6.09156" y1="23.1476" x2="52.4602" y2="107.591" gradientUnits="userSpaceOnUse">
<stop stop-color="#35FF89"/>
<stop offset="1" stop-color="#3177F3"/>
</linearGradient>
<linearGradient id="paint16_linear_634_2436" x1="-6.09156" y1="23.1476" x2="52.4602" y2="107.591" gradientUnits="userSpaceOnUse">
<stop stop-color="#35FF89"/>
<stop offset="1" stop-color="#3177F3"/>
</linearGradient>
<linearGradient id="paint17_linear_634_2436" x1="-6.09156" y1="23.1476" x2="52.4602" y2="107.591" gradientUnits="userSpaceOnUse">
<stop stop-color="#35FF89"/>
<stop offset="1" stop-color="#3177F3"/>
</linearGradient>
<linearGradient id="paint18_linear_634_2436" x1="-6.09156" y1="23.1476" x2="52.4602" y2="107.591" gradientUnits="userSpaceOnUse">
<stop stop-color="#35FF89"/>
<stop offset="1" stop-color="#3177F3"/>
</linearGradient>
<linearGradient id="paint19_linear_634_2436" x1="-6.09156" y1="23.1476" x2="52.4602" y2="107.591" gradientUnits="userSpaceOnUse">
<stop stop-color="#35FF89"/>
<stop offset="1" stop-color="#3177F3"/>
</linearGradient>
<linearGradient id="paint20_linear_634_2436" x1="-6.09156" y1="23.1476" x2="52.4602" y2="107.591" gradientUnits="userSpaceOnUse">
<stop stop-color="#35FF89"/>
<stop offset="1" stop-color="#3177F3"/>
</linearGradient>
<linearGradient id="paint21_linear_634_2436" x1="-6.09156" y1="23.1476" x2="52.4602" y2="107.591" gradientUnits="userSpaceOnUse">
<stop stop-color="#35FF89"/>
<stop offset="1" stop-color="#3177F3"/>
</linearGradient>
<linearGradient id="paint22_linear_634_2436" x1="-6.09156" y1="23.1476" x2="52.4602" y2="107.591" gradientUnits="userSpaceOnUse">
<stop stop-color="#35FF89"/>
<stop offset="1" stop-color="#3177F3"/>
</linearGradient>
<linearGradient id="paint23_linear_634_2436" x1="-6.09156" y1="23.1476" x2="52.4602" y2="107.591" gradientUnits="userSpaceOnUse">
<stop stop-color="#35FF89"/>
<stop offset="1" stop-color="#3177F3"/>
</linearGradient>
<linearGradient id="paint24_linear_634_2436" x1="-6.09156" y1="23.1476" x2="52.4602" y2="107.591" gradientUnits="userSpaceOnUse">
<stop stop-color="#35FF89"/>
<stop offset="1" stop-color="#3177F3"/>
</linearGradient>
<linearGradient id="paint25_linear_634_2436" x1="-6.09156" y1="23.1476" x2="52.4602" y2="107.591" gradientUnits="userSpaceOnUse">
<stop stop-color="#35FF89"/>
<stop offset="1" stop-color="#3177F3"/>
</linearGradient>
<linearGradient id="paint26_linear_634_2436" x1="-6.09156" y1="23.1476" x2="52.4602" y2="107.591" gradientUnits="userSpaceOnUse">
<stop stop-color="#35FF89"/>
<stop offset="1" stop-color="#3177F3"/>
</linearGradient>
<linearGradient id="paint27_linear_634_2436" x1="-6.09156" y1="23.1476" x2="52.4602" y2="107.591" gradientUnits="userSpaceOnUse">
<stop stop-color="#35FF89"/>
<stop offset="1" stop-color="#3177F3"/>
</linearGradient>
<linearGradient id="paint28_linear_634_2436" x1="-6.09156" y1="23.1476" x2="52.4602" y2="107.591" gradientUnits="userSpaceOnUse">
<stop stop-color="#35FF89"/>
<stop offset="1" stop-color="#3177F3"/>
</linearGradient>
<linearGradient id="paint29_linear_634_2436" x1="-6.09156" y1="23.1476" x2="52.4602" y2="107.591" gradientUnits="userSpaceOnUse">
<stop stop-color="#35FF89"/>
<stop offset="1" stop-color="#3177F3"/>
</linearGradient>
<linearGradient id="paint30_linear_634_2436" x1="-6.09156" y1="23.1476" x2="52.4602" y2="107.591" gradientUnits="userSpaceOnUse">
<stop stop-color="#35FF89"/>
<stop offset="1" stop-color="#3177F3"/>
</linearGradient>
<linearGradient id="paint31_linear_634_2436" x1="-6.09156" y1="23.1476" x2="52.4602" y2="107.591" gradientUnits="userSpaceOnUse">
<stop stop-color="#35FF89"/>
<stop offset="1" stop-color="#3177F3"/>
</linearGradient>
<linearGradient id="paint32_linear_634_2436" x1="-6.09156" y1="23.1476" x2="52.4602" y2="107.591" gradientUnits="userSpaceOnUse">
<stop stop-color="#35FF89"/>
<stop offset="1" stop-color="#3177F3"/>
</linearGradient>
<linearGradient id="paint33_linear_634_2436" x1="-6.09156" y1="23.1476" x2="52.4602" y2="107.591" gradientUnits="userSpaceOnUse">
<stop stop-color="#35FF89"/>
<stop offset="1" stop-color="#3177F3"/>
</linearGradient>
<linearGradient id="paint34_linear_634_2436" x1="-6.09156" y1="23.1476" x2="52.4602" y2="107.591" gradientUnits="userSpaceOnUse">
<stop stop-color="#35FF89"/>
<stop offset="1" stop-color="#3177F3"/>
</linearGradient>
<linearGradient id="paint35_linear_634_2436" x1="-6.09156" y1="23.1476" x2="52.4602" y2="107.591" gradientUnits="userSpaceOnUse">
<stop stop-color="#35FF89"/>
<stop offset="1" stop-color="#3177F3"/>
</linearGradient>
<linearGradient id="paint36_linear_634_2436" x1="-6.09156" y1="23.1476" x2="52.4602" y2="107.591" gradientUnits="userSpaceOnUse">
<stop stop-color="#35FF89"/>
<stop offset="1" stop-color="#3177F3"/>
</linearGradient>
<linearGradient id="paint37_linear_634_2436" x1="-6.09156" y1="23.1476" x2="52.4602" y2="107.591" gradientUnits="userSpaceOnUse">
<stop stop-color="#35FF89"/>
<stop offset="1" stop-color="#3177F3"/>
</linearGradient>
<linearGradient id="paint38_linear_634_2436" x1="-6.09156" y1="23.1476" x2="52.4602" y2="107.591" gradientUnits="userSpaceOnUse">
<stop stop-color="#35FF89"/>
<stop offset="1" stop-color="#3177F3"/>
</linearGradient>
<linearGradient id="paint39_linear_634_2436" x1="-6.09156" y1="23.1476" x2="52.4602" y2="107.591" gradientUnits="userSpaceOnUse">
<stop stop-color="#35FF89"/>
<stop offset="1" stop-color="#3177F3"/>
</linearGradient>
</defs>
</svg>
