<svg width="89" height="88" viewBox="0 0 89 88" fill="none" xmlns="http://www.w3.org/2000/svg">
<path d="M19.0995 43.3337L51.7896 25.543C65.7925 17.9224 82.849 28.0587 82.849 44.0009C82.849 59.9431 65.7925 70.0794 51.7896 62.4587L19.0995 44.6681V43.3337Z" stroke="#0D1A35" stroke-width="2" stroke-linejoin="round"/>
<path d="M35.0369 43.578L55.2583 32.4181C64.0756 27.5519 74.8803 33.9299 74.8803 44.0009C74.8803 54.0719 64.0756 60.4498 55.2583 55.5837L35.0369 44.4238V43.578Z" stroke="#0D1A35" stroke-width="2" stroke-linejoin="round"/>
<path d="M69.8999 43.3337L37.2098 25.543C23.2069 17.9224 6.15039 28.0587 6.15039 44.0009C6.15039 59.9431 23.2069 70.0794 37.2098 62.4587L69.8999 44.6681V43.3337Z" stroke="#0D1A35" stroke-width="2" stroke-linejoin="round"/>
<path d="M53.9625 43.578L33.7411 32.4181C24.9238 27.5519 14.1191 33.9299 14.1191 44.0009C14.1191 54.0719 24.9238 60.4498 33.7411 55.5837L53.9625 44.4238V43.578Z" stroke="#0D1A35" stroke-width="2" stroke-linejoin="round"/>
</svg>
