<svg width="89" height="88" viewBox="0 0 89 88" fill="none" xmlns="http://www.w3.org/2000/svg">
<g clip-path="url(#clip0_634_2627)">
<path d="M70.0242 68.7405C83.133 54.9502 82.9218 33.1421 69.3903 19.6104L68.7398 18.9765C54.9496 5.8676 33.1414 6.0788 19.6097 19.6104L18.9751 20.2615C6.07477 33.833 6.07512 55.1692 18.9758 68.7405L19.6097 69.391C33.3561 83.1372 55.6439 83.1372 69.3903 69.391L70.0242 68.7405ZM20.0061 66.9106C8.06943 53.8835 8.4078 33.6408 21.0239 21.0246C31.1422 10.9064 46.166 8.68587 58.4391 14.3602C50.1949 12.1242 41.0164 14.2407 34.5432 20.7138L34.0999 21.1696C25.4445 30.2753 25.0862 44.3732 33.0233 53.8933L20.0061 66.9106ZM34.4431 52.4736C27.1499 43.5806 27.6543 30.4317 35.9574 22.128C43.2949 14.7906 54.416 13.5435 63.0408 18.3847C58.752 17.3933 54.0644 18.5666 50.7224 21.9085L50.4849 22.1529C46.3002 26.5552 45.7354 33.1358 48.7903 38.1263L34.4431 52.4736ZM50.2549 36.6617C47.8977 32.4032 48.5232 26.9362 52.1366 23.3227C55.7501 19.7093 61.2172 19.0838 65.4757 21.441L50.2549 36.6617ZM67.9761 67.9767C55.135 80.8177 34.3935 80.9388 21.4009 68.3441L34.3664 55.3786L34.5439 55.5602C44.1663 65.1823 59.7671 65.1822 69.3896 55.5602L69.8343 55.1045C74.9919 49.6786 77.2036 42.4794 76.4697 35.5327C79.5922 46.7042 76.7625 59.1902 67.9761 67.9767ZM67.9754 54.146C59.134 62.9869 44.7994 62.9871 35.9581 54.146C35.8982 54.0861 35.8397 54.0249 35.7806 53.9644L49.978 39.767C50.1406 39.9589 50.3088 40.1481 50.4842 40.3326L50.7224 40.5764C55.8773 45.7311 64.2354 45.7311 69.3903 40.5764L69.6285 40.3326C72.2724 37.5512 73.4681 33.8999 73.2221 30.3295C76.163 38.3526 74.4151 47.7063 67.9754 54.146ZM67.9761 39.1621C63.6023 43.5358 56.5105 43.5358 52.1366 39.1621C51.8745 38.9001 51.6284 38.6277 51.3977 38.3473L67.1613 22.5838C67.4417 22.8145 67.714 23.0606 67.9761 23.3227C72.3497 27.6965 72.3498 34.7883 67.9761 39.1621Z" fill="#0D1A35"/>
</g>
<defs>
<clipPath id="clip0_634_2627">
<rect width="88" height="88" fill="white" transform="matrix(0 -1 -1 0 88.5 88)"/>
</clipPath>
</defs>
</svg>
