<svg width="80" height="80" viewBox="0 0 80 80" fill="none" xmlns="http://www.w3.org/2000/svg">
<path d="M44.6237 16.5281C46.8314 16.5281 48.6211 14.7384 48.6211 12.5307C48.6211 10.3229 46.8314 8.5332 44.6237 8.5332C42.4159 8.5332 40.6262 10.3229 40.6262 12.5307C40.6262 14.7384 42.4159 16.5281 44.6237 16.5281Z" fill="url(#paint0_linear_634_2442)"/>
<path d="M37.5714 22.0718C39.0918 22.0718 40.3243 20.8393 40.3243 19.3189C40.3243 17.7984 39.0918 16.5659 37.5714 16.5659C36.0509 16.5659 34.8184 17.7984 34.8184 19.3189C34.8184 20.8393 36.0509 22.0718 37.5714 22.0718Z" fill="url(#paint1_linear_634_2442)"/>
<path d="M34.1398 28.9731C35.2228 28.9731 36.1008 28.0952 36.1008 27.0121C36.1008 25.9291 35.2228 25.0511 34.1398 25.0511C33.0567 25.0511 32.1787 25.9291 32.1787 27.0121C32.1787 28.0952 33.0567 28.9731 34.1398 28.9731Z" fill="url(#paint2_linear_634_2442)"/>
<path d="M32.0655 33.4231C32.0655 34.1774 32.6689 34.8185 33.4608 34.8185C34.2528 34.8185 34.8562 34.2151 34.8562 33.4231C34.8562 32.6312 34.2528 32.0278 33.4608 32.0278C32.6689 32.0278 32.0655 32.6312 32.0655 33.4231Z" fill="url(#paint3_linear_634_2442)"/>
<path d="M20.8271 24.8625C23.0349 24.8625 24.8246 23.0728 24.8246 20.8651C24.8246 18.6573 23.0349 16.8676 20.8271 16.8676C18.6194 16.8676 16.8297 18.6573 16.8297 20.8651C16.8297 23.0728 18.6194 24.8625 20.8271 24.8625Z" fill="url(#paint4_linear_634_2442)"/>
<path d="M21.7701 33.3478C23.2906 33.3478 24.5231 32.1152 24.5231 30.5948C24.5231 29.0743 23.2906 27.8418 21.7701 27.8418C20.2497 27.8418 19.0172 29.0743 19.0172 30.5948C19.0172 32.1152 20.2497 33.3478 21.7701 33.3478Z" fill="url(#paint5_linear_634_2442)"/>
<path d="M25.6544 40.0605C26.7375 40.0605 27.6155 39.1825 27.6155 38.0995C27.6155 37.0164 26.7375 36.1384 25.6544 36.1384C24.5714 36.1384 23.6934 37.0164 23.6934 38.0995C23.6934 39.1825 24.5714 40.0605 25.6544 40.0605Z" fill="url(#paint6_linear_634_2442)"/>
<path d="M30.2171 44.0203C30.9877 44.0203 31.6124 43.3955 31.6124 42.6249C31.6124 41.8543 30.9877 41.2296 30.2171 41.2296C29.4464 41.2296 28.8217 41.8543 28.8217 42.6249C28.8217 43.3955 29.4464 44.0203 30.2171 44.0203Z" fill="url(#paint7_linear_634_2442)"/>
<path d="M12.5307 48.6211C14.7384 48.6211 16.5282 46.8313 16.5282 44.6236C16.5282 42.4158 14.7384 40.6261 12.5307 40.6261C10.3229 40.6261 8.5332 42.4158 8.5332 44.6236C8.5332 46.8313 10.3229 48.6211 12.5307 48.6211Z" fill="url(#paint8_linear_634_2442)"/>
<path d="M20.7143 52.7317C22.2347 52.7317 23.4672 51.4991 23.4672 49.9787C23.4672 48.4583 22.2347 47.2257 20.7143 47.2257C19.1938 47.2257 17.9613 48.4583 17.9613 49.9787C17.9613 51.4991 19.1938 52.7317 20.7143 52.7317Z" fill="url(#paint9_linear_634_2442)"/>
<path d="M29.0106 53.5613C30.0936 53.5613 30.9716 52.6833 30.9716 51.6003C30.9716 50.5173 30.0936 49.6393 29.0106 49.6393C27.9275 49.6393 27.0495 50.5173 27.0495 51.6003C27.0495 52.6833 27.9275 53.5613 29.0106 53.5613Z" fill="url(#paint10_linear_634_2442)"/>
<path d="M35.3842 52.2791C36.1549 52.2791 36.7796 51.6544 36.7796 50.8838C36.7796 50.1132 36.1549 49.4885 35.3842 49.4885C34.6136 49.4885 33.9889 50.1132 33.9889 50.8838C33.9889 51.6544 34.6136 52.2791 35.3842 52.2791Z" fill="url(#paint11_linear_634_2442)"/>
<path d="M25.9564 69.9661C28.1641 69.9661 29.9538 68.1763 29.9538 65.9686C29.9538 63.7608 28.1641 61.9711 25.9564 61.9711C23.7486 61.9711 21.9589 63.7608 21.9589 65.9686C21.9589 68.1763 23.7486 69.9661 25.9564 69.9661Z" fill="url(#paint12_linear_634_2442)"/>
<path d="M35.2337 65.6292C36.7541 65.6292 37.9866 64.3966 37.9866 62.8762C37.9866 61.3558 36.7541 60.1232 35.2337 60.1232C33.7132 60.1232 32.4807 61.3558 32.4807 62.8762C32.4807 64.3966 33.7132 65.6292 35.2337 65.6292Z" fill="url(#paint13_linear_634_2442)"/>
<path d="M41.6444 59.4067C42.7274 59.4067 43.6054 58.5287 43.6054 57.4457C43.6054 56.3626 42.7274 55.4846 41.6444 55.4846C40.5613 55.4846 39.6833 56.3626 39.6833 57.4457C39.6833 58.5287 40.5613 59.4067 41.6444 59.4067Z" fill="url(#paint14_linear_634_2442)"/>
<path d="M45.0764 53.3728C45.847 53.3728 46.4717 52.748 46.4717 51.9774C46.4717 51.2068 45.847 50.5821 45.0764 50.5821C44.3058 50.5821 43.681 51.2068 43.681 51.9774C43.681 52.748 44.3058 53.3728 45.0764 53.3728Z" fill="url(#paint15_linear_634_2442)"/>
<path d="M50.959 72.7568C53.1667 72.7568 54.9565 70.967 54.9565 68.7593C54.9565 66.5516 53.1667 64.7618 50.959 64.7618C48.7513 64.7618 46.9615 66.5516 46.9615 68.7593C46.9615 70.967 48.7513 72.7568 50.959 72.7568Z" fill="url(#paint16_linear_634_2442)"/>
<path d="M54.353 62.3483C55.8734 62.3483 57.106 61.1157 57.106 59.5953C57.106 58.0749 55.8734 56.8423 54.353 56.8423C52.8326 56.8423 51.6 58.0749 51.6 59.5953C51.6 61.1157 52.8326 62.3483 54.353 62.3483Z" fill="url(#paint17_linear_634_2442)"/>
<path d="M54.0895 53.1089C55.1726 53.1089 56.0506 52.2309 56.0506 51.1478C56.0506 50.0648 55.1726 49.1868 54.0895 49.1868C53.0065 49.1868 52.1285 50.0648 52.1285 51.1478C52.1285 52.2309 53.0065 53.1089 54.0895 53.1089Z" fill="url(#paint18_linear_634_2442)"/>
<path d="M51.9771 46.4715C52.7477 46.4715 53.3724 45.8468 53.3724 45.0762C53.3724 44.3055 52.7477 43.6808 51.9771 43.6808C51.2064 43.6808 50.5817 44.3055 50.5817 45.0762C50.5817 45.8468 51.2064 46.4715 51.9771 46.4715Z" fill="url(#paint19_linear_634_2442)"/>
<path d="M68.7599 54.9566C70.9676 54.9566 72.7573 53.1669 72.7573 50.9592C72.7573 48.7514 70.9676 46.9617 68.7599 46.9617C66.5521 46.9617 64.7624 48.7514 64.7624 50.9592C64.7624 53.1669 66.5521 54.9566 68.7599 54.9566Z" fill="url(#paint20_linear_634_2442)"/>
<path d="M63.7064 45.3401C65.2268 45.3401 66.4594 44.1075 66.4594 42.5871C66.4594 41.0667 65.2268 39.8341 63.7064 39.8341C62.186 39.8341 60.9534 41.0667 60.9534 42.5871C60.9534 44.1075 62.186 45.3401 63.7064 45.3401Z" fill="url(#paint21_linear_634_2442)"/>
<path d="M56.9557 39.4948C58.0387 39.4948 58.9167 38.6168 58.9167 37.5337C58.9167 36.4507 58.0387 35.5727 56.9557 35.5727C55.8726 35.5727 54.9946 36.4507 54.9946 37.5337C54.9946 38.6168 55.8726 39.4948 56.9557 39.4948Z" fill="url(#paint22_linear_634_2442)"/>
<path d="M50.8842 36.8172C51.6548 36.8172 52.2795 36.1925 52.2795 35.4218C52.2795 34.6512 51.6548 34.0265 50.8842 34.0265C50.1136 34.0265 49.4889 34.6512 49.4889 35.4218C49.4889 36.1925 50.1136 36.8172 50.8842 36.8172Z" fill="url(#paint23_linear_634_2442)"/>
<path d="M65.9305 29.9159C68.1383 29.9159 69.928 28.1261 69.928 25.9184C69.928 23.7106 68.1383 21.9209 65.9305 21.9209C63.7228 21.9209 61.9331 23.7106 61.9331 25.9184C61.9331 28.1261 63.7228 29.9159 65.9305 29.9159Z" fill="url(#paint24_linear_634_2442)"/>
<path d="M56.2386 27.3892C57.759 27.3892 58.9916 26.1566 58.9916 24.6362C58.9916 23.1158 57.759 21.8832 56.2386 21.8832C54.7182 21.8832 53.4856 23.1158 53.4856 24.6362C53.4856 26.1566 54.7182 27.3892 56.2386 27.3892Z" fill="url(#paint25_linear_634_2442)"/>
<path d="M48.093 28.7468C49.176 28.7468 50.054 27.8688 50.054 26.7858C50.054 25.7027 49.176 24.8248 48.093 24.8248C47.0099 24.8248 46.132 25.7027 46.132 26.7858C46.132 27.8688 47.0099 28.7468 48.093 28.7468Z" fill="url(#paint26_linear_634_2442)"/>
<path d="M42.6246 31.6129C43.3952 31.6129 44.0199 30.9882 44.0199 30.2176C44.0199 29.4469 43.3952 28.8222 42.6246 28.8222C41.8539 28.8222 41.2292 29.4469 41.2292 30.2176C41.2292 30.9882 41.8539 31.6129 42.6246 31.6129Z" fill="url(#paint27_linear_634_2442)"/>
<defs>
<linearGradient id="paint0_linear_634_2442" x1="-9.40414" y1="22.1765" x2="55.0565" y2="113.214" gradientUnits="userSpaceOnUse">
<stop stop-color="#35FF89"/>
<stop offset="1" stop-color="#3177F3"/>
</linearGradient>
<linearGradient id="paint1_linear_634_2442" x1="-9.40414" y1="22.1765" x2="55.0565" y2="113.214" gradientUnits="userSpaceOnUse">
<stop stop-color="#35FF89"/>
<stop offset="1" stop-color="#3177F3"/>
</linearGradient>
<linearGradient id="paint2_linear_634_2442" x1="-9.40414" y1="22.1765" x2="55.0565" y2="113.214" gradientUnits="userSpaceOnUse">
<stop stop-color="#35FF89"/>
<stop offset="1" stop-color="#3177F3"/>
</linearGradient>
<linearGradient id="paint3_linear_634_2442" x1="-9.40414" y1="22.1765" x2="55.0565" y2="113.214" gradientUnits="userSpaceOnUse">
<stop stop-color="#35FF89"/>
<stop offset="1" stop-color="#3177F3"/>
</linearGradient>
<linearGradient id="paint4_linear_634_2442" x1="-9.40414" y1="22.1765" x2="55.0565" y2="113.214" gradientUnits="userSpaceOnUse">
<stop stop-color="#35FF89"/>
<stop offset="1" stop-color="#3177F3"/>
</linearGradient>
<linearGradient id="paint5_linear_634_2442" x1="-9.40414" y1="22.1765" x2="55.0565" y2="113.214" gradientUnits="userSpaceOnUse">
<stop stop-color="#35FF89"/>
<stop offset="1" stop-color="#3177F3"/>
</linearGradient>
<linearGradient id="paint6_linear_634_2442" x1="-9.40414" y1="22.1765" x2="55.0565" y2="113.214" gradientUnits="userSpaceOnUse">
<stop stop-color="#35FF89"/>
<stop offset="1" stop-color="#3177F3"/>
</linearGradient>
<linearGradient id="paint7_linear_634_2442" x1="-9.40414" y1="22.1765" x2="55.0565" y2="113.214" gradientUnits="userSpaceOnUse">
<stop stop-color="#35FF89"/>
<stop offset="1" stop-color="#3177F3"/>
</linearGradient>
<linearGradient id="paint8_linear_634_2442" x1="-9.40414" y1="22.1765" x2="55.0565" y2="113.214" gradientUnits="userSpaceOnUse">
<stop stop-color="#35FF89"/>
<stop offset="1" stop-color="#3177F3"/>
</linearGradient>
<linearGradient id="paint9_linear_634_2442" x1="-9.40414" y1="22.1765" x2="55.0565" y2="113.214" gradientUnits="userSpaceOnUse">
<stop stop-color="#35FF89"/>
<stop offset="1" stop-color="#3177F3"/>
</linearGradient>
<linearGradient id="paint10_linear_634_2442" x1="-9.40414" y1="22.1765" x2="55.0565" y2="113.214" gradientUnits="userSpaceOnUse">
<stop stop-color="#35FF89"/>
<stop offset="1" stop-color="#3177F3"/>
</linearGradient>
<linearGradient id="paint11_linear_634_2442" x1="-9.40414" y1="22.1765" x2="55.0565" y2="113.214" gradientUnits="userSpaceOnUse">
<stop stop-color="#35FF89"/>
<stop offset="1" stop-color="#3177F3"/>
</linearGradient>
<linearGradient id="paint12_linear_634_2442" x1="-9.40414" y1="22.1765" x2="55.0565" y2="113.214" gradientUnits="userSpaceOnUse">
<stop stop-color="#35FF89"/>
<stop offset="1" stop-color="#3177F3"/>
</linearGradient>
<linearGradient id="paint13_linear_634_2442" x1="-9.40414" y1="22.1765" x2="55.0565" y2="113.214" gradientUnits="userSpaceOnUse">
<stop stop-color="#35FF89"/>
<stop offset="1" stop-color="#3177F3"/>
</linearGradient>
<linearGradient id="paint14_linear_634_2442" x1="-9.40414" y1="22.1765" x2="55.0565" y2="113.214" gradientUnits="userSpaceOnUse">
<stop stop-color="#35FF89"/>
<stop offset="1" stop-color="#3177F3"/>
</linearGradient>
<linearGradient id="paint15_linear_634_2442" x1="-9.40414" y1="22.1765" x2="55.0565" y2="113.214" gradientUnits="userSpaceOnUse">
<stop stop-color="#35FF89"/>
<stop offset="1" stop-color="#3177F3"/>
</linearGradient>
<linearGradient id="paint16_linear_634_2442" x1="-9.40414" y1="22.1765" x2="55.0565" y2="113.214" gradientUnits="userSpaceOnUse">
<stop stop-color="#35FF89"/>
<stop offset="1" stop-color="#3177F3"/>
</linearGradient>
<linearGradient id="paint17_linear_634_2442" x1="-9.40414" y1="22.1765" x2="55.0565" y2="113.214" gradientUnits="userSpaceOnUse">
<stop stop-color="#35FF89"/>
<stop offset="1" stop-color="#3177F3"/>
</linearGradient>
<linearGradient id="paint18_linear_634_2442" x1="-9.40414" y1="22.1765" x2="55.0565" y2="113.214" gradientUnits="userSpaceOnUse">
<stop stop-color="#35FF89"/>
<stop offset="1" stop-color="#3177F3"/>
</linearGradient>
<linearGradient id="paint19_linear_634_2442" x1="-9.40414" y1="22.1765" x2="55.0565" y2="113.214" gradientUnits="userSpaceOnUse">
<stop stop-color="#35FF89"/>
<stop offset="1" stop-color="#3177F3"/>
</linearGradient>
<linearGradient id="paint20_linear_634_2442" x1="-9.40414" y1="22.1765" x2="55.0565" y2="113.214" gradientUnits="userSpaceOnUse">
<stop stop-color="#35FF89"/>
<stop offset="1" stop-color="#3177F3"/>
</linearGradient>
<linearGradient id="paint21_linear_634_2442" x1="-9.40414" y1="22.1765" x2="55.0565" y2="113.214" gradientUnits="userSpaceOnUse">
<stop stop-color="#35FF89"/>
<stop offset="1" stop-color="#3177F3"/>
</linearGradient>
<linearGradient id="paint22_linear_634_2442" x1="-9.40414" y1="22.1765" x2="55.0565" y2="113.214" gradientUnits="userSpaceOnUse">
<stop stop-color="#35FF89"/>
<stop offset="1" stop-color="#3177F3"/>
</linearGradient>
<linearGradient id="paint23_linear_634_2442" x1="-9.40414" y1="22.1765" x2="55.0565" y2="113.214" gradientUnits="userSpaceOnUse">
<stop stop-color="#35FF89"/>
<stop offset="1" stop-color="#3177F3"/>
</linearGradient>
<linearGradient id="paint24_linear_634_2442" x1="-9.40414" y1="22.1765" x2="55.0565" y2="113.214" gradientUnits="userSpaceOnUse">
<stop stop-color="#35FF89"/>
<stop offset="1" stop-color="#3177F3"/>
</linearGradient>
<linearGradient id="paint25_linear_634_2442" x1="-9.40414" y1="22.1765" x2="55.0565" y2="113.214" gradientUnits="userSpaceOnUse">
<stop stop-color="#35FF89"/>
<stop offset="1" stop-color="#3177F3"/>
</linearGradient>
<linearGradient id="paint26_linear_634_2442" x1="-9.40414" y1="22.1765" x2="55.0565" y2="113.214" gradientUnits="userSpaceOnUse">
<stop stop-color="#35FF89"/>
<stop offset="1" stop-color="#3177F3"/>
</linearGradient>
<linearGradient id="paint27_linear_634_2442" x1="-9.40414" y1="22.1765" x2="55.0565" y2="113.214" gradientUnits="userSpaceOnUse">
<stop stop-color="#35FF89"/>
<stop offset="1" stop-color="#3177F3"/>
</linearGradient>
</defs>
</svg>
