<svg width="80" height="80" viewBox="0 0 80 80" fill="none" xmlns="http://www.w3.org/2000/svg">
<path d="M42.2583 14.3513C43.5704 14.3513 44.6341 13.2876 44.6341 11.9755C44.6341 10.6633 43.5704 9.59961 42.2583 9.59961C40.9461 9.59961 39.8824 10.6633 39.8824 11.9755C39.8824 13.2876 40.9461 14.3513 42.2583 14.3513Z" fill="url(#paint0_linear_634_2450)"/>
<path d="M37.7324 19.103C38.8779 19.103 39.8065 18.1744 39.8065 17.0289C39.8065 15.8833 38.8779 14.9547 37.7324 14.9547C36.5869 14.9547 35.6582 15.8833 35.6582 17.0289C35.6582 18.1744 36.5869 19.103 37.7324 19.103Z" fill="url(#paint1_linear_634_2450)"/>
<path d="M32.9435 27.6259C33.7142 27.6259 34.3389 27.0012 34.3389 26.2306C34.3389 25.46 33.7142 24.8352 32.9435 24.8352C32.1729 24.8352 31.5482 25.46 31.5482 26.2306C31.5482 27.0012 32.1729 27.6259 32.9435 27.6259Z" fill="url(#paint2_linear_634_2450)"/>
<path d="M34.4137 23.176C35.3093 23.176 36.0353 22.4499 36.0353 21.5543C36.0353 20.6587 35.3093 19.9327 34.4137 19.9327C33.5181 19.9327 32.7921 20.6587 32.7921 21.5543C32.7921 22.4499 33.5181 23.176 34.4137 23.176Z" fill="url(#paint3_linear_634_2450)"/>
<path d="M32.5662 31.6234C33.2327 31.6234 33.773 31.0831 33.773 30.4166C33.773 29.7501 33.2327 29.2098 32.5662 29.2098C31.8997 29.2098 31.3595 29.7501 31.3595 30.4166C31.3595 31.0831 31.8997 31.6234 32.5662 31.6234Z" fill="url(#paint4_linear_634_2450)"/>
<path d="M33.9991 34.8289C34.5614 34.8289 35.0173 34.373 35.0173 33.8107C35.0173 33.2483 34.5614 32.7925 33.9991 32.7925C33.4367 32.7925 32.9808 33.2483 32.9808 33.8107C32.9808 34.373 33.4367 34.8289 33.9991 34.8289Z" fill="url(#paint5_linear_634_2450)"/>
<path d="M31.6989 15.6335C33.0111 15.6335 34.0748 14.5698 34.0748 13.2577C34.0748 11.9455 33.0111 10.8818 31.6989 10.8818C30.3868 10.8818 29.323 11.9455 29.323 13.2577C29.323 14.5698 30.3868 15.6335 31.6989 15.6335Z" fill="url(#paint6_linear_634_2450)"/>
<path d="M29.3606 21.7052C30.5061 21.7052 31.4347 20.7765 31.4347 19.631C31.4347 18.4855 30.5061 17.5568 29.3606 17.5568C28.2151 17.5568 27.2864 18.4855 27.2864 19.631C27.2864 20.7765 28.2151 21.7052 29.3606 21.7052Z" fill="url(#paint7_linear_634_2450)"/>
<path d="M28.1911 31.3217C28.9617 31.3217 29.5864 30.697 29.5864 29.9263C29.5864 29.1557 28.9617 28.531 28.1911 28.531C27.4205 28.531 26.7957 29.1557 26.7957 29.9263C26.7957 30.697 27.4205 31.3217 28.1911 31.3217Z" fill="url(#paint8_linear_634_2450)"/>
<path d="M27.8898 26.6831C28.7854 26.6831 29.5114 25.9571 29.5114 25.0615C29.5114 24.1659 28.7854 23.4399 27.8898 23.4399C26.9942 23.4399 26.2681 24.1659 26.2681 25.0615C26.2681 25.9571 26.9942 26.6831 27.8898 26.6831Z" fill="url(#paint9_linear_634_2450)"/>
<path d="M29.3606 35.1683C30.0271 35.1683 30.5673 34.6281 30.5673 33.9616C30.5673 33.2951 30.0271 32.7548 29.3606 32.7548C28.6941 32.7548 28.1537 33.2951 28.1537 33.9616C28.1537 34.6281 28.6941 35.1683 29.3606 35.1683Z" fill="url(#paint10_linear_634_2450)"/>
<path d="M31.9249 37.6196C32.4872 37.6196 32.9431 37.1638 32.9431 36.6014C32.9431 36.0391 32.4872 35.5832 31.9249 35.5832C31.3625 35.5832 30.9067 36.0391 30.9067 36.6014C30.9067 37.1638 31.3625 37.6196 31.9249 37.6196Z" fill="url(#paint11_linear_634_2450)"/>
<path d="M22.384 20.6869C23.6962 20.6869 24.7599 19.6232 24.7599 18.3111C24.7599 16.9989 23.6962 15.9352 22.384 15.9352C21.0719 15.9352 20.0082 16.9989 20.0082 18.3111C20.0082 19.6232 21.0719 20.6869 22.384 20.6869Z" fill="url(#paint12_linear_634_2450)"/>
<path d="M22.4597 27.1357C23.6052 27.1357 24.5339 26.207 24.5339 25.0615C24.5339 23.916 23.6052 22.9873 22.4597 22.9873C21.3142 22.9873 20.3855 23.916 20.3855 25.0615C20.3855 26.207 21.3142 27.1357 22.4597 27.1357Z" fill="url(#paint13_linear_634_2450)"/>
<path d="M25.0991 36.526C25.8697 36.526 26.4944 35.9013 26.4944 35.1306C26.4944 34.36 25.8697 33.7353 25.0991 33.7353C24.3285 33.7353 23.7038 34.36 23.7038 35.1306C23.7038 35.9013 24.3285 36.526 25.0991 36.526Z" fill="url(#paint14_linear_634_2450)"/>
<path d="M23.0632 32.3022C23.9588 32.3022 24.6848 31.5762 24.6848 30.6806C24.6848 29.785 23.9588 29.059 23.0632 29.059C22.1676 29.059 21.4416 29.785 21.4416 30.6806C21.4416 31.5762 22.1676 32.3022 23.0632 32.3022Z" fill="url(#paint15_linear_634_2450)"/>
<path d="M27.6257 39.656C28.2922 39.656 28.8325 39.1157 28.8325 38.4493C28.8325 37.7828 28.2922 37.2425 27.6257 37.2425C26.9592 37.2425 26.4189 37.7828 26.4189 38.4493C26.4189 39.1157 26.9592 39.656 27.6257 39.656Z" fill="url(#paint16_linear_634_2450)"/>
<path d="M30.9819 41.0137C31.5442 41.0137 32.0001 40.5578 32.0001 39.9955C32.0001 39.4331 31.5442 38.9773 30.9819 38.9773C30.4195 38.9773 29.9636 39.4331 29.9636 39.9955C29.9636 40.5578 30.4195 41.0137 30.9819 41.0137Z" fill="url(#paint17_linear_634_2450)"/>
<path d="M15.4824 28.7573C16.7945 28.7573 17.8583 27.6936 17.8583 26.3815C17.8583 25.0693 16.7945 24.0056 15.4824 24.0056C14.1702 24.0056 13.1066 25.0693 13.1066 26.3815C13.1066 27.6936 14.1702 28.7573 15.4824 28.7573Z" fill="url(#paint18_linear_634_2450)"/>
<path d="M18.0092 34.7159C19.1547 34.7159 20.0834 33.7872 20.0834 32.6417C20.0834 31.4962 19.1547 30.5675 18.0092 30.5675C16.8637 30.5675 15.9351 31.4962 15.9351 32.6417C15.9351 33.7872 16.8637 34.7159 18.0092 34.7159Z" fill="url(#paint19_linear_634_2450)"/>
<path d="M24.081 42.4468C24.8516 42.4468 25.4764 41.8221 25.4764 41.0514C25.4764 40.2808 24.8516 39.6561 24.081 39.6561C23.3104 39.6561 22.6857 40.2808 22.6857 41.0514C22.6857 41.8221 23.3104 42.4468 24.081 42.4468Z" fill="url(#paint20_linear_634_2450)"/>
<path d="M20.5739 39.279C21.4695 39.279 22.1955 38.553 22.1955 37.6574C22.1955 36.7618 21.4695 36.0358 20.5739 36.0358C19.6783 36.0358 18.9522 36.7618 18.9522 37.6574C18.9522 38.553 19.6783 39.279 20.5739 39.279Z" fill="url(#paint21_linear_634_2450)"/>
<path d="M27.6637 44.4455C28.3301 44.4455 28.8705 43.9052 28.8705 43.2388C28.8705 42.5723 28.3301 42.032 27.6637 42.032C26.9972 42.032 26.4569 42.5723 26.4569 43.2388C26.4569 43.9052 26.9972 44.4455 27.6637 44.4455Z" fill="url(#paint22_linear_634_2450)"/>
<path d="M31.3596 44.5209C31.9219 44.5209 32.3778 44.0651 32.3778 43.5027C32.3778 42.9404 31.9219 42.4845 31.3596 42.4845C30.7972 42.4845 30.3413 42.9404 30.3413 43.5027C30.3413 44.0651 30.7972 44.5209 31.3596 44.5209Z" fill="url(#paint23_linear_634_2450)"/>
<path d="M11.9755 38.751C13.2876 38.751 14.3513 37.6873 14.3513 36.3751C14.3513 35.063 13.2876 33.9993 11.9755 33.9993C10.6633 33.9993 9.59961 35.063 9.59961 36.3751C9.59961 37.6873 10.6633 38.751 11.9755 38.751Z" fill="url(#paint24_linear_634_2450)"/>
<path d="M16.5765 43.3896C17.722 43.3896 18.6506 42.4609 18.6506 41.3154C18.6506 40.1699 17.722 39.2413 16.5765 39.2413C15.4309 39.2413 14.5023 40.1699 14.5023 41.3154C14.5023 42.4609 15.4309 43.3896 16.5765 43.3896Z" fill="url(#paint25_linear_634_2450)"/>
<path d="M25.3256 48.3676C26.0962 48.3676 26.7209 47.7429 26.7209 46.9722C26.7209 46.2016 26.0962 45.5769 25.3256 45.5769C24.555 45.5769 23.9303 46.2016 23.9303 46.9722C23.9303 47.7429 24.555 48.3676 25.3256 48.3676Z" fill="url(#paint26_linear_634_2450)"/>
<path d="M20.8002 46.7082C21.6958 46.7082 22.4218 45.9822 22.4218 45.0866C22.4218 44.191 21.6958 43.465 20.8002 43.465C19.9046 43.465 19.1785 44.191 19.1785 45.0866C19.1785 45.9822 19.9046 46.7082 20.8002 46.7082Z" fill="url(#paint27_linear_634_2450)"/>
<path d="M29.4358 48.9333C30.1023 48.9333 30.6426 48.393 30.6426 47.7265C30.6426 47.06 30.1023 46.5197 29.4358 46.5197C28.7693 46.5197 28.2291 47.06 28.2291 47.7265C28.2291 48.393 28.7693 48.9333 29.4358 48.9333Z" fill="url(#paint28_linear_634_2450)"/>
<path d="M32.943 47.6134C33.5054 47.6134 33.9612 47.1575 33.9612 46.5951C33.9612 46.0328 33.5054 45.5769 32.943 45.5769C32.3807 45.5769 31.9248 46.0328 31.9248 46.5951C31.9248 47.1575 32.3807 47.6134 32.943 47.6134Z" fill="url(#paint29_linear_634_2450)"/>
<path d="M12.3152 49.3481C13.6274 49.3481 14.6911 48.2844 14.6911 46.9722C14.6911 45.6601 13.6274 44.5964 12.3152 44.5964C11.0031 44.5964 9.93935 45.6601 9.93935 46.9722C9.93935 48.2844 11.0031 49.3481 12.3152 49.3481Z" fill="url(#paint30_linear_634_2450)"/>
<path d="M18.3867 51.9879C19.5323 51.9879 20.4609 51.0593 20.4609 49.9138C20.4609 48.7682 19.5323 47.8396 18.3867 47.8396C17.2412 47.8396 16.3126 48.7682 16.3126 49.9138C16.3126 51.0593 17.2412 51.9879 18.3867 51.9879Z" fill="url(#paint31_linear_634_2450)"/>
<path d="M28.5694 53.421C29.34 53.421 29.9647 52.7963 29.9647 52.0257C29.9647 51.255 29.34 50.6303 28.5694 50.6303C27.7988 50.6303 27.1741 51.255 27.1741 52.0257C27.1741 52.7963 27.7988 53.421 28.5694 53.421Z" fill="url(#paint32_linear_634_2450)"/>
<path d="M23.7042 53.5341C24.5998 53.5341 25.3258 52.8081 25.3258 51.9125C25.3258 51.0169 24.5998 50.2909 23.7042 50.2909C22.8087 50.2909 22.0826 51.0169 22.0826 51.9125C22.0826 52.8081 22.8087 53.5341 23.7042 53.5341Z" fill="url(#paint33_linear_634_2450)"/>
<path d="M32.6796 52.4405C33.3461 52.4405 33.8864 51.9002 33.8864 51.2337C33.8864 50.5672 33.3461 50.0269 32.6796 50.0269C32.0131 50.0269 31.4729 50.5672 31.4729 51.2337C31.4729 51.9002 32.0131 52.4405 32.6796 52.4405Z" fill="url(#paint34_linear_634_2450)"/>
<path d="M35.546 49.9515C36.1083 49.9515 36.5642 49.4956 36.5642 48.9333C36.5642 48.3709 36.1083 47.915 35.546 47.915C34.9836 47.915 34.5277 48.3709 34.5277 48.9333C34.5277 49.4956 34.9836 49.9515 35.546 49.9515Z" fill="url(#paint35_linear_634_2450)"/>
<path d="M16.4629 59.1155C17.7751 59.1155 18.8388 58.0518 18.8388 56.7397C18.8388 55.4275 17.7751 54.3638 16.4629 54.3638C15.1508 54.3638 14.0871 55.4275 14.0871 56.7397C14.0871 58.0518 15.1508 59.1155 16.4629 59.1155Z" fill="url(#paint36_linear_634_2450)"/>
<path d="M23.1761 59.3795C24.3216 59.3795 25.2502 58.4509 25.2502 57.3053C25.2502 56.1598 24.3216 55.2312 23.1761 55.2312C22.0305 55.2312 21.1019 56.1598 21.1019 57.3053C21.1019 58.4509 22.0305 59.3795 23.1761 59.3795Z" fill="url(#paint37_linear_634_2450)"/>
<path d="M33.4334 56.9659C34.204 56.9659 34.8287 56.3412 34.8287 55.5706C34.8287 54.8 34.204 54.1752 33.4334 54.1752C32.6628 54.1752 32.038 54.8 32.038 55.5706C32.038 56.3412 32.6628 56.9659 33.4334 56.9659Z" fill="url(#paint38_linear_634_2450)"/>
<path d="M28.8324 58.8516C29.728 58.8516 30.454 58.1255 30.454 57.2299C30.454 56.3343 29.728 55.6083 28.8324 55.6083C27.9368 55.6083 27.2108 56.3343 27.2108 57.2299C27.2108 58.1255 27.9368 58.8516 28.8324 58.8516Z" fill="url(#paint39_linear_634_2450)"/>
<path d="M36.9782 54.5523C37.6447 54.5523 38.185 54.012 38.185 53.3455C38.185 52.6791 37.6447 52.1388 36.9782 52.1388C36.3117 52.1388 35.7715 52.6791 35.7715 53.3455C35.7715 54.012 36.3117 54.5523 36.9782 54.5523Z" fill="url(#paint40_linear_634_2450)"/>
<path d="M38.8263 51.196C39.3887 51.196 39.8446 50.7401 39.8446 50.1778C39.8446 49.6154 39.3887 49.1595 38.8263 49.1595C38.264 49.1595 37.8081 49.6154 37.8081 50.1778C37.8081 50.7401 38.264 51.196 38.8263 51.196Z" fill="url(#paint41_linear_634_2450)"/>
<path d="M23.8543 66.7333C25.1665 66.7333 26.2302 65.6696 26.2302 64.3574C26.2302 63.0453 25.1665 61.9816 23.8543 61.9816C22.5422 61.9816 21.4785 63.0453 21.4785 64.3574C21.4785 65.6696 22.5422 66.7333 23.8543 66.7333Z" fill="url(#paint42_linear_634_2450)"/>
<path d="M30.341 64.5083C31.4865 64.5083 32.4152 63.5796 32.4152 62.4341C32.4152 61.2886 31.4865 60.3599 30.341 60.3599C29.1955 60.3599 28.2668 61.2886 28.2668 62.4341C28.2668 63.5796 29.1955 64.5083 30.341 64.5083Z" fill="url(#paint43_linear_634_2450)"/>
<path d="M39.2789 58.5121C40.0495 58.5121 40.6743 57.8874 40.6743 57.1167C40.6743 56.3461 40.0495 55.7214 39.2789 55.7214C38.5083 55.7214 37.8836 56.3461 37.8836 57.1167C37.8836 57.8874 38.5083 58.5121 39.2789 58.5121Z" fill="url(#paint44_linear_634_2450)"/>
<path d="M35.583 61.9438C36.4786 61.9438 37.2046 61.2178 37.2046 60.3222C37.2046 59.4266 36.4786 58.7006 35.583 58.7006C34.6874 58.7006 33.9614 59.4266 33.9614 60.3222C33.9614 61.2178 34.6874 61.9438 35.583 61.9438Z" fill="url(#paint45_linear_634_2450)"/>
<path d="M41.7677 55.0048C42.4342 55.0048 42.9745 54.4646 42.9745 53.7981C42.9745 53.1316 42.4342 52.5913 41.7677 52.5913C41.1012 52.5913 40.561 53.1316 40.561 53.7981C40.561 54.4646 41.1012 55.0048 41.7677 55.0048Z" fill="url(#paint46_linear_634_2450)"/>
<path d="M42.3333 51.1582C42.8956 51.1582 43.3515 50.7024 43.3515 50.14C43.3515 49.5777 42.8956 49.1218 42.3333 49.1218C41.7709 49.1218 41.315 49.5777 41.315 50.14C41.315 50.7024 41.7709 51.1582 42.3333 51.1582Z" fill="url(#paint47_linear_634_2450)"/>
<path d="M33.4712 71.1456C34.7833 71.1456 35.847 70.0819 35.847 68.7697C35.847 67.4576 34.7833 66.3939 33.4712 66.3939C32.159 66.3939 31.0953 67.4576 31.0953 68.7697C31.0953 70.0819 32.159 71.1456 33.4712 71.1456Z" fill="url(#paint48_linear_634_2450)"/>
<path d="M38.8263 66.6956C39.9718 66.6956 40.9004 65.7669 40.9004 64.6214C40.9004 63.4759 39.9718 62.5473 38.8263 62.5473C37.6807 62.5473 36.7521 63.4759 36.7521 64.6214C36.7521 65.7669 37.6807 66.6956 38.8263 66.6956Z" fill="url(#paint49_linear_634_2450)"/>
<path d="M45.2747 57.871C46.0453 57.871 46.67 57.2463 46.67 56.4756C46.67 55.705 46.0453 55.0803 45.2747 55.0803C44.504 55.0803 43.8793 55.705 43.8793 56.4756C43.8793 57.2463 44.504 57.871 45.2747 57.871Z" fill="url(#paint50_linear_634_2450)"/>
<path d="M42.9745 62.3964C43.8701 62.3964 44.5961 61.6704 44.5961 60.7748C44.5961 59.8792 43.8701 59.1532 42.9745 59.1532C42.0789 59.1532 41.3529 59.8792 41.3529 60.7748C41.3529 61.6704 42.0789 62.3964 42.9745 62.3964Z" fill="url(#paint51_linear_634_2450)"/>
<path d="M46.3686 53.6472C47.0351 53.6472 47.5754 53.1069 47.5754 52.4404C47.5754 51.7739 47.0351 51.2336 46.3686 51.2336C45.7021 51.2336 45.1618 51.7739 45.1618 52.4404C45.1618 53.1069 45.7021 53.6472 46.3686 53.6472Z" fill="url(#paint52_linear_634_2450)"/>
<path d="M45.6147 49.876C46.1771 49.876 46.633 49.4202 46.633 48.8578C46.633 48.2955 46.1771 47.8396 45.6147 47.8396C45.0524 47.8396 44.5965 48.2955 44.5965 48.8578C44.5965 49.4202 45.0524 49.876 45.6147 49.876Z" fill="url(#paint53_linear_634_2450)"/>
<path d="M44.0684 71.8244C45.3805 71.8244 46.4442 70.7607 46.4442 69.4486C46.4442 68.1364 45.3805 67.0727 44.0684 67.0727C42.7562 67.0727 41.6925 68.1364 41.6925 69.4486C41.6925 70.7607 42.7562 71.8244 44.0684 71.8244Z" fill="url(#paint54_linear_634_2450)"/>
<path d="M47.5756 65.7151C48.7211 65.7151 49.6497 64.7864 49.6497 63.6409C49.6497 62.4954 48.7211 61.5668 47.5756 61.5668C46.4301 61.5668 45.5014 62.4954 45.5014 63.6409C45.5014 64.7864 46.4301 65.7151 47.5756 65.7151Z" fill="url(#paint55_linear_634_2450)"/>
<path d="M50.5925 55.0803C51.3631 55.0803 51.9879 54.4556 51.9879 53.685C51.9879 52.9143 51.3631 52.2896 50.5925 52.2896C49.8218 52.2896 49.1971 52.9143 49.1971 53.685C49.1971 54.4556 49.8218 55.0803 50.5925 55.0803Z" fill="url(#paint56_linear_634_2450)"/>
<path d="M50.027 60.1714C50.9226 60.1714 51.6486 59.4454 51.6486 58.5498C51.6486 57.6542 50.9226 56.9282 50.027 56.9282C49.1314 56.9282 48.4053 57.6542 48.4053 58.5498C48.4053 59.4454 49.1314 60.1714 50.027 60.1714Z" fill="url(#paint57_linear_634_2450)"/>
<path d="M50.2152 50.7434C50.8817 50.7434 51.422 50.2031 51.422 49.5366C51.422 48.8702 50.8817 48.3299 50.2152 48.3299C49.5487 48.3299 49.0084 48.8702 49.0084 49.5366C49.0084 50.2031 49.5487 50.7434 50.2152 50.7434Z" fill="url(#paint58_linear_634_2450)"/>
<path d="M48.1787 47.4625C48.7411 47.4625 49.197 47.0066 49.197 46.4442C49.197 45.8819 48.7411 45.426 48.1787 45.426C47.6164 45.426 47.1606 45.8819 47.1606 46.4442C47.1606 47.0066 47.6164 47.4625 48.1787 47.4625Z" fill="url(#paint59_linear_634_2450)"/>
<path d="M54.1759 68.5812C55.488 68.5812 56.5517 67.5175 56.5517 66.2054C56.5517 64.8932 55.488 63.8295 54.1759 63.8295C52.8637 63.8295 51.8 64.8932 51.8 66.2054C51.8 67.5175 52.8637 68.5812 54.1759 68.5812Z" fill="url(#paint60_linear_634_2450)"/>
<path d="M55.3445 61.6045C56.4901 61.6045 57.4187 60.6759 57.4187 59.5303C57.4187 58.3848 56.4901 57.4562 55.3445 57.4562C54.199 57.4562 53.2704 58.3848 53.2704 59.5303C53.2704 60.6759 54.199 61.6045 55.3445 61.6045Z" fill="url(#paint61_linear_634_2450)"/>
<path d="M54.5902 50.5548C55.3609 50.5548 55.9856 49.9301 55.9856 49.1595C55.9856 48.3889 55.3609 47.7641 54.5902 47.7641C53.8196 47.7641 53.1949 48.3889 53.1949 49.1595C53.1949 49.9301 53.8196 50.5548 54.5902 50.5548Z" fill="url(#paint62_linear_634_2450)"/>
<path d="M55.797 55.5328C56.6926 55.5328 57.4186 54.8068 57.4186 53.9112C57.4186 53.0156 56.6926 52.2896 55.797 52.2896C54.9014 52.2896 54.1754 53.0156 54.1754 53.9112C54.1754 54.8068 54.9014 55.5328 55.797 55.5328Z" fill="url(#paint63_linear_634_2450)"/>
<path d="M52.7048 46.6328C53.3713 46.6328 53.9116 46.0925 53.9116 45.426C53.9116 44.7595 53.3713 44.2192 52.7048 44.2192C52.0383 44.2192 51.498 44.7595 51.498 45.426C51.498 46.0925 52.0383 46.6328 52.7048 46.6328Z" fill="url(#paint64_linear_634_2450)"/>
<path d="M49.6879 44.3324C50.2503 44.3324 50.7061 43.8765 50.7061 43.3142C50.7061 42.7518 50.2503 42.2959 49.6879 42.2959C49.1256 42.2959 48.6697 42.7518 48.6697 43.3142C48.6697 43.8765 49.1256 44.3324 49.6879 44.3324Z" fill="url(#paint65_linear_634_2450)"/>
<path d="M62.4336 61.9062C63.7458 61.9062 64.8095 60.8425 64.8095 59.5303C64.8095 58.2182 63.7458 57.1545 62.4336 57.1545C61.1215 57.1545 60.0578 58.2182 60.0578 59.5303C60.0578 60.8425 61.1215 61.9062 62.4336 61.9062Z" fill="url(#paint66_linear_634_2450)"/>
<path d="M61.1137 54.9672C62.2592 54.9672 63.1879 54.0386 63.1879 52.893C63.1879 51.7475 62.2592 50.8189 61.1137 50.8189C59.9682 50.8189 59.0395 51.7475 59.0395 52.893C59.0395 54.0386 59.9682 54.9672 61.1137 54.9672Z" fill="url(#paint67_linear_634_2450)"/>
<path d="M56.6636 44.8981C57.4343 44.8981 58.059 44.2734 58.059 43.5028C58.059 42.7321 57.4343 42.1074 56.6636 42.1074C55.893 42.1074 55.2683 42.7321 55.2683 43.5028C55.2683 44.2734 55.893 44.8981 56.6636 44.8981Z" fill="url(#paint68_linear_634_2450)"/>
<path d="M59.4927 49.1218C60.3883 49.1218 61.1144 48.3958 61.1144 47.5002C61.1144 46.6046 60.3883 45.8786 59.4927 45.8786C58.5971 45.8786 57.8711 46.6046 57.8711 47.5002C57.8711 48.3958 58.5971 49.1218 59.4927 49.1218Z" fill="url(#paint69_linear_634_2450)"/>
<path d="M53.5712 41.9188C54.2377 41.9188 54.778 41.3785 54.778 40.7121C54.778 40.0456 54.2377 39.5053 53.5712 39.5053C52.9047 39.5053 52.3644 40.0456 52.3644 40.7121C52.3644 41.3785 52.9047 41.9188 53.5712 41.9188Z" fill="url(#paint70_linear_634_2450)"/>
<path d="M49.989 40.8252C50.5513 40.8252 51.0072 40.3693 51.0072 39.807C51.0072 39.2446 50.5513 38.7887 49.989 38.7887C49.4266 38.7887 48.9707 39.2446 48.9707 39.807C48.9707 40.3693 49.4266 40.8252 49.989 40.8252Z" fill="url(#paint71_linear_634_2450)"/>
<path d="M67.7516 52.7421C69.0637 52.7421 70.1275 51.6784 70.1275 50.3663C70.1275 49.0541 69.0637 47.9904 67.7516 47.9904C66.4394 47.9904 65.3757 49.0541 65.3757 50.3663C65.3757 51.6784 66.4394 52.7421 67.7516 52.7421Z" fill="url(#paint72_linear_634_2450)"/>
<path d="M64.093 46.7082C65.2385 46.7082 66.1672 45.7796 66.1672 44.634C66.1672 43.4885 65.2385 42.5599 64.093 42.5599C62.9475 42.5599 62.0188 43.4885 62.0188 44.634C62.0188 45.7796 62.9475 46.7082 64.093 46.7082Z" fill="url(#paint73_linear_634_2450)"/>
<path d="M56.5503 38.9018C57.3209 38.9018 57.9457 38.2771 57.9457 37.5065C57.9457 36.7359 57.3209 36.1112 56.5503 36.1112C55.7797 36.1112 55.155 36.7359 55.155 37.5065C55.155 38.2771 55.7797 38.9018 56.5503 38.9018Z" fill="url(#paint74_linear_634_2450)"/>
<path d="M60.661 41.8056C61.5566 41.8056 62.2827 41.0796 62.2827 40.184C62.2827 39.2884 61.5566 38.5624 60.661 38.5624C59.7654 38.5624 59.0394 39.2884 59.0394 40.184C59.0394 41.0796 59.7654 41.8056 60.661 41.8056Z" fill="url(#paint75_linear_634_2450)"/>
<path d="M52.666 37.2048C53.3325 37.2048 53.8728 36.6645 53.8728 35.998C53.8728 35.3315 53.3325 34.7912 52.666 34.7912C51.9995 34.7912 51.4593 35.3315 51.4593 35.998C51.4593 36.6645 51.9995 37.2048 52.666 37.2048Z" fill="url(#paint76_linear_634_2450)"/>
<path d="M49.0082 37.4688C49.5706 37.4688 50.0265 37.0129 50.0265 36.4505C50.0265 35.8882 49.5706 35.4323 49.0082 35.4323C48.4459 35.4323 47.9901 35.8882 47.9901 36.4505C47.9901 37.0129 48.4459 37.4688 49.0082 37.4688Z" fill="url(#paint77_linear_634_2450)"/>
<path d="M69.3739 42.2582C70.6861 42.2582 71.7497 41.1945 71.7497 39.8824C71.7497 38.5702 70.6861 37.5065 69.3739 37.5065C68.0618 37.5065 66.998 38.5702 66.998 39.8824C66.998 41.1945 68.0618 42.2582 69.3739 42.2582Z" fill="url(#paint78_linear_634_2450)"/>
<path d="M63.9052 37.9213C65.0507 37.9213 65.9793 36.9927 65.9793 35.8472C65.9793 34.7017 65.0507 33.773 63.9052 33.773C62.7596 33.773 61.831 34.7017 61.831 35.8472C61.831 36.9927 62.7596 37.9213 63.9052 37.9213Z" fill="url(#paint79_linear_634_2450)"/>
<path d="M54.2882 33.3205C55.0589 33.3205 55.6836 32.6958 55.6836 31.9251C55.6836 31.1545 55.0589 30.5298 54.2882 30.5298C53.5176 30.5298 52.8928 31.1545 52.8928 31.9251C52.8928 32.6958 53.5176 33.3205 54.2882 33.3205Z" fill="url(#paint80_linear_634_2450)"/>
<path d="M59.0784 34.565C59.974 34.565 60.7 33.839 60.7 32.9434C60.7 32.0478 59.974 31.3218 59.0784 31.3218C58.1828 31.3218 57.4568 32.0478 57.4568 32.9434C57.4568 33.839 58.1828 34.565 59.0784 34.565Z" fill="url(#paint81_linear_634_2450)"/>
<path d="M50.1029 33.1319C50.7694 33.1319 51.3096 32.5916 51.3096 31.9251C51.3096 31.2587 50.7694 30.7184 50.1029 30.7184C49.4364 30.7184 48.8961 31.2587 48.8961 31.9251C48.8961 32.5916 49.4364 33.1319 50.1029 33.1319Z" fill="url(#paint82_linear_634_2450)"/>
<path d="M46.8594 34.6781C47.4218 34.6781 47.8776 34.2222 47.8776 33.6599C47.8776 33.0975 47.4218 32.6417 46.8594 32.6417C46.2971 32.6417 45.8412 33.0975 45.8412 33.6599C45.8412 34.2222 46.2971 34.6781 46.8594 34.6781Z" fill="url(#paint83_linear_634_2450)"/>
<path d="M67.0731 31.8874C68.3853 31.8874 69.4489 30.8237 69.4489 29.5115C69.4489 28.1994 68.3853 27.1357 67.0731 27.1357C65.761 27.1357 64.6972 28.1994 64.6972 29.5115C64.6972 30.8237 65.761 31.8874 67.0731 31.8874Z" fill="url(#paint84_linear_634_2450)"/>
<path d="M60.5483 29.8132C61.6938 29.8132 62.6225 28.8846 62.6225 27.7391C62.6225 26.5936 61.6938 25.6649 60.5483 25.6649C59.4028 25.6649 58.4742 26.5936 58.4742 27.7391C58.4742 28.8846 59.4028 29.8132 60.5483 29.8132Z" fill="url(#paint85_linear_634_2450)"/>
<path d="M50.1404 28.9081C50.9111 28.9081 51.5358 28.2834 51.5358 27.5128C51.5358 26.7422 50.9111 26.1174 50.1404 26.1174C49.3698 26.1174 48.7451 26.7422 48.7451 27.5128C48.7451 28.2834 49.3698 28.9081 50.1404 28.9081Z" fill="url(#paint86_linear_634_2450)"/>
<path d="M54.9675 28.3802C55.8631 28.3802 56.5891 27.6542 56.5891 26.7586C56.5891 25.863 55.8631 25.1369 54.9675 25.1369C54.0719 25.1369 53.3459 25.863 53.3459 26.7586C53.3459 27.6542 54.0719 28.3802 54.9675 28.3802Z" fill="url(#paint87_linear_634_2450)"/>
<path d="M46.2562 30.2658C46.9227 30.2658 47.463 29.7255 47.463 29.059C47.463 28.3925 46.9227 27.8522 46.2562 27.8522C45.5897 27.8522 45.0494 28.3925 45.0494 29.059C45.0494 29.7255 45.5897 30.2658 46.2562 30.2658Z" fill="url(#paint88_linear_634_2450)"/>
<path d="M43.8423 32.8679C44.4047 32.8679 44.8606 32.412 44.8606 31.8497C44.8606 31.2873 44.4047 30.8314 43.8423 30.8314C43.28 30.8314 42.8241 31.2873 42.8241 31.8497C42.8241 32.412 43.28 32.8679 43.8423 32.8679Z" fill="url(#paint89_linear_634_2450)"/>
<path d="M61.1888 23.0251C62.501 23.0251 63.5646 21.9614 63.5646 20.6493C63.5646 19.3371 62.501 18.2734 61.1888 18.2734C59.8767 18.2734 58.8129 19.3371 58.8129 20.6493C58.8129 21.9614 59.8767 23.0251 61.1888 23.0251Z" fill="url(#paint90_linear_634_2450)"/>
<path d="M54.4762 23.44C55.6217 23.44 56.5504 22.5113 56.5504 21.3658C56.5504 20.2203 55.6217 19.2916 54.4762 19.2916C53.3307 19.2916 52.4021 20.2203 52.4021 21.3658C52.4021 22.5113 53.3307 23.44 54.4762 23.44Z" fill="url(#paint91_linear_634_2450)"/>
<path d="M44.7091 26.3437C45.4798 26.3437 46.1045 25.719 46.1045 24.9484C46.1045 24.1778 45.4798 23.5531 44.7091 23.5531C43.9385 23.5531 43.3138 24.1778 43.3138 24.9484C43.3138 25.719 43.9385 26.3437 44.7091 26.3437Z" fill="url(#paint92_linear_634_2450)"/>
<path d="M48.9331 24.1188C49.8287 24.1188 50.5547 23.3927 50.5547 22.4971C50.5547 21.6016 49.8287 20.8755 48.9331 20.8755C48.0376 20.8755 47.3115 21.6016 47.3115 22.4971C47.3115 23.3927 48.0376 24.1188 48.9331 24.1188Z" fill="url(#paint93_linear_634_2450)"/>
<path d="M41.6167 28.9836C42.2832 28.9836 42.8235 28.4433 42.8235 27.7768C42.8235 27.1103 42.2832 26.57 41.6167 26.57C40.9502 26.57 40.4099 27.1103 40.4099 27.7768C40.4099 28.4433 40.9502 28.9836 41.6167 28.9836Z" fill="url(#paint94_linear_634_2450)"/>
<path d="M40.4098 32.2645C40.9722 32.2645 41.4281 31.8087 41.4281 31.2463C41.4281 30.684 40.9722 30.2281 40.4098 30.2281C39.8475 30.2281 39.3916 30.684 39.3916 31.2463C39.3916 31.8087 39.8475 32.2645 40.4098 32.2645Z" fill="url(#paint95_linear_634_2450)"/>
<path d="M52.5537 16.9157C53.8658 16.9157 54.9295 15.852 54.9295 14.5399C54.9295 13.2277 53.8658 12.164 52.5537 12.164C51.2415 12.164 50.1778 13.2277 50.1778 14.5399C50.1778 15.852 51.2415 16.9157 52.5537 16.9157Z" fill="url(#paint96_linear_634_2450)"/>
<path d="M46.5196 19.7064C47.6651 19.7064 48.5938 18.7777 48.5938 17.6322C48.5938 16.4867 47.6651 15.5581 46.5196 15.5581C45.3741 15.5581 44.4455 16.4867 44.4455 17.6322C44.4455 18.7777 45.3741 19.7064 46.5196 19.7064Z" fill="url(#paint97_linear_634_2450)"/>
<path d="M38.7127 25.8911C39.4834 25.8911 40.1081 25.2664 40.1081 24.4958C40.1081 23.7252 39.4834 23.1005 38.7127 23.1005C37.9421 23.1005 37.3174 23.7252 37.3174 24.4958C37.3174 25.2664 37.9421 25.8911 38.7127 25.8911Z" fill="url(#paint98_linear_634_2450)"/>
<path d="M41.7674 22.2708C42.663 22.2708 43.389 21.5448 43.389 20.6492C43.389 19.7536 42.663 19.0276 41.7674 19.0276C40.8718 19.0276 40.1458 19.7536 40.1458 20.6492C40.1458 21.5448 40.8718 22.2708 41.7674 22.2708Z" fill="url(#paint99_linear_634_2450)"/>
<path d="M36.865 29.4361C37.5315 29.4361 38.0719 28.8958 38.0719 28.2293C38.0719 27.5628 37.5315 27.0225 36.865 27.0225C36.1986 27.0225 35.6583 27.5628 35.6583 28.2293C35.6583 28.8958 36.1986 29.4361 36.865 29.4361Z" fill="url(#paint100_linear_634_2450)"/>
<path d="M36.9785 32.9433C37.5408 32.9433 37.9967 32.4874 37.9967 31.9251C37.9967 31.3627 37.5408 30.9069 36.9785 30.9069C36.4161 30.9069 35.9603 31.3627 35.9603 31.9251C35.9603 32.4874 36.4161 32.9433 36.9785 32.9433Z" fill="url(#paint101_linear_634_2450)"/>
<defs>
<linearGradient id="paint0_linear_634_2450" x1="-7.75847" y1="22.8183" x2="54.7211" y2="110.951" gradientUnits="userSpaceOnUse">
<stop stop-color="#35FF89"/>
<stop offset="1" stop-color="#3177F3"/>
</linearGradient>
<linearGradient id="paint1_linear_634_2450" x1="-7.75847" y1="22.8183" x2="54.7211" y2="110.951" gradientUnits="userSpaceOnUse">
<stop stop-color="#35FF89"/>
<stop offset="1" stop-color="#3177F3"/>
</linearGradient>
<linearGradient id="paint2_linear_634_2450" x1="-7.75847" y1="22.8183" x2="54.7211" y2="110.951" gradientUnits="userSpaceOnUse">
<stop stop-color="#35FF89"/>
<stop offset="1" stop-color="#3177F3"/>
</linearGradient>
<linearGradient id="paint3_linear_634_2450" x1="-7.75847" y1="22.8183" x2="54.7211" y2="110.951" gradientUnits="userSpaceOnUse">
<stop stop-color="#35FF89"/>
<stop offset="1" stop-color="#3177F3"/>
</linearGradient>
<linearGradient id="paint4_linear_634_2450" x1="-7.75847" y1="22.8183" x2="54.7211" y2="110.951" gradientUnits="userSpaceOnUse">
<stop stop-color="#35FF89"/>
<stop offset="1" stop-color="#3177F3"/>
</linearGradient>
<linearGradient id="paint5_linear_634_2450" x1="-7.75847" y1="22.8183" x2="54.7211" y2="110.951" gradientUnits="userSpaceOnUse">
<stop stop-color="#35FF89"/>
<stop offset="1" stop-color="#3177F3"/>
</linearGradient>
<linearGradient id="paint6_linear_634_2450" x1="-7.75847" y1="22.8183" x2="54.7211" y2="110.951" gradientUnits="userSpaceOnUse">
<stop stop-color="#35FF89"/>
<stop offset="1" stop-color="#3177F3"/>
</linearGradient>
<linearGradient id="paint7_linear_634_2450" x1="-7.75847" y1="22.8183" x2="54.7211" y2="110.951" gradientUnits="userSpaceOnUse">
<stop stop-color="#35FF89"/>
<stop offset="1" stop-color="#3177F3"/>
</linearGradient>
<linearGradient id="paint8_linear_634_2450" x1="-7.75847" y1="22.8183" x2="54.7211" y2="110.951" gradientUnits="userSpaceOnUse">
<stop stop-color="#35FF89"/>
<stop offset="1" stop-color="#3177F3"/>
</linearGradient>
<linearGradient id="paint9_linear_634_2450" x1="-7.75847" y1="22.8183" x2="54.7211" y2="110.951" gradientUnits="userSpaceOnUse">
<stop stop-color="#35FF89"/>
<stop offset="1" stop-color="#3177F3"/>
</linearGradient>
<linearGradient id="paint10_linear_634_2450" x1="-7.75847" y1="22.8183" x2="54.7211" y2="110.951" gradientUnits="userSpaceOnUse">
<stop stop-color="#35FF89"/>
<stop offset="1" stop-color="#3177F3"/>
</linearGradient>
<linearGradient id="paint11_linear_634_2450" x1="-7.75847" y1="22.8183" x2="54.7211" y2="110.951" gradientUnits="userSpaceOnUse">
<stop stop-color="#35FF89"/>
<stop offset="1" stop-color="#3177F3"/>
</linearGradient>
<linearGradient id="paint12_linear_634_2450" x1="-7.75847" y1="22.8183" x2="54.7211" y2="110.951" gradientUnits="userSpaceOnUse">
<stop stop-color="#35FF89"/>
<stop offset="1" stop-color="#3177F3"/>
</linearGradient>
<linearGradient id="paint13_linear_634_2450" x1="-7.75847" y1="22.8183" x2="54.7211" y2="110.951" gradientUnits="userSpaceOnUse">
<stop stop-color="#35FF89"/>
<stop offset="1" stop-color="#3177F3"/>
</linearGradient>
<linearGradient id="paint14_linear_634_2450" x1="-7.75847" y1="22.8183" x2="54.7211" y2="110.951" gradientUnits="userSpaceOnUse">
<stop stop-color="#35FF89"/>
<stop offset="1" stop-color="#3177F3"/>
</linearGradient>
<linearGradient id="paint15_linear_634_2450" x1="-7.75847" y1="22.8183" x2="54.7211" y2="110.951" gradientUnits="userSpaceOnUse">
<stop stop-color="#35FF89"/>
<stop offset="1" stop-color="#3177F3"/>
</linearGradient>
<linearGradient id="paint16_linear_634_2450" x1="-7.75847" y1="22.8183" x2="54.7211" y2="110.951" gradientUnits="userSpaceOnUse">
<stop stop-color="#35FF89"/>
<stop offset="1" stop-color="#3177F3"/>
</linearGradient>
<linearGradient id="paint17_linear_634_2450" x1="-7.75847" y1="22.8183" x2="54.7211" y2="110.951" gradientUnits="userSpaceOnUse">
<stop stop-color="#35FF89"/>
<stop offset="1" stop-color="#3177F3"/>
</linearGradient>
<linearGradient id="paint18_linear_634_2450" x1="-7.75847" y1="22.8183" x2="54.7211" y2="110.951" gradientUnits="userSpaceOnUse">
<stop stop-color="#35FF89"/>
<stop offset="1" stop-color="#3177F3"/>
</linearGradient>
<linearGradient id="paint19_linear_634_2450" x1="-7.75847" y1="22.8183" x2="54.7211" y2="110.951" gradientUnits="userSpaceOnUse">
<stop stop-color="#35FF89"/>
<stop offset="1" stop-color="#3177F3"/>
</linearGradient>
<linearGradient id="paint20_linear_634_2450" x1="-7.75847" y1="22.8183" x2="54.7211" y2="110.951" gradientUnits="userSpaceOnUse">
<stop stop-color="#35FF89"/>
<stop offset="1" stop-color="#3177F3"/>
</linearGradient>
<linearGradient id="paint21_linear_634_2450" x1="-7.75847" y1="22.8183" x2="54.7211" y2="110.951" gradientUnits="userSpaceOnUse">
<stop stop-color="#35FF89"/>
<stop offset="1" stop-color="#3177F3"/>
</linearGradient>
<linearGradient id="paint22_linear_634_2450" x1="-7.75847" y1="22.8183" x2="54.7211" y2="110.951" gradientUnits="userSpaceOnUse">
<stop stop-color="#35FF89"/>
<stop offset="1" stop-color="#3177F3"/>
</linearGradient>
<linearGradient id="paint23_linear_634_2450" x1="-7.75847" y1="22.8183" x2="54.7211" y2="110.951" gradientUnits="userSpaceOnUse">
<stop stop-color="#35FF89"/>
<stop offset="1" stop-color="#3177F3"/>
</linearGradient>
<linearGradient id="paint24_linear_634_2450" x1="-7.75847" y1="22.8183" x2="54.7211" y2="110.951" gradientUnits="userSpaceOnUse">
<stop stop-color="#35FF89"/>
<stop offset="1" stop-color="#3177F3"/>
</linearGradient>
<linearGradient id="paint25_linear_634_2450" x1="-7.75847" y1="22.8183" x2="54.7211" y2="110.951" gradientUnits="userSpaceOnUse">
<stop stop-color="#35FF89"/>
<stop offset="1" stop-color="#3177F3"/>
</linearGradient>
<linearGradient id="paint26_linear_634_2450" x1="-7.75847" y1="22.8183" x2="54.7211" y2="110.951" gradientUnits="userSpaceOnUse">
<stop stop-color="#35FF89"/>
<stop offset="1" stop-color="#3177F3"/>
</linearGradient>
<linearGradient id="paint27_linear_634_2450" x1="-7.75847" y1="22.8183" x2="54.7211" y2="110.951" gradientUnits="userSpaceOnUse">
<stop stop-color="#35FF89"/>
<stop offset="1" stop-color="#3177F3"/>
</linearGradient>
<linearGradient id="paint28_linear_634_2450" x1="-7.75847" y1="22.8183" x2="54.7211" y2="110.951" gradientUnits="userSpaceOnUse">
<stop stop-color="#35FF89"/>
<stop offset="1" stop-color="#3177F3"/>
</linearGradient>
<linearGradient id="paint29_linear_634_2450" x1="-7.75847" y1="22.8183" x2="54.7211" y2="110.951" gradientUnits="userSpaceOnUse">
<stop stop-color="#35FF89"/>
<stop offset="1" stop-color="#3177F3"/>
</linearGradient>
<linearGradient id="paint30_linear_634_2450" x1="-7.75847" y1="22.8183" x2="54.7211" y2="110.951" gradientUnits="userSpaceOnUse">
<stop stop-color="#35FF89"/>
<stop offset="1" stop-color="#3177F3"/>
</linearGradient>
<linearGradient id="paint31_linear_634_2450" x1="-7.75847" y1="22.8183" x2="54.7211" y2="110.951" gradientUnits="userSpaceOnUse">
<stop stop-color="#35FF89"/>
<stop offset="1" stop-color="#3177F3"/>
</linearGradient>
<linearGradient id="paint32_linear_634_2450" x1="-7.75847" y1="22.8183" x2="54.7211" y2="110.951" gradientUnits="userSpaceOnUse">
<stop stop-color="#35FF89"/>
<stop offset="1" stop-color="#3177F3"/>
</linearGradient>
<linearGradient id="paint33_linear_634_2450" x1="-7.75847" y1="22.8183" x2="54.7211" y2="110.951" gradientUnits="userSpaceOnUse">
<stop stop-color="#35FF89"/>
<stop offset="1" stop-color="#3177F3"/>
</linearGradient>
<linearGradient id="paint34_linear_634_2450" x1="-7.75847" y1="22.8183" x2="54.7211" y2="110.951" gradientUnits="userSpaceOnUse">
<stop stop-color="#35FF89"/>
<stop offset="1" stop-color="#3177F3"/>
</linearGradient>
<linearGradient id="paint35_linear_634_2450" x1="-7.75847" y1="22.8183" x2="54.7211" y2="110.951" gradientUnits="userSpaceOnUse">
<stop stop-color="#35FF89"/>
<stop offset="1" stop-color="#3177F3"/>
</linearGradient>
<linearGradient id="paint36_linear_634_2450" x1="-7.75847" y1="22.8183" x2="54.7211" y2="110.951" gradientUnits="userSpaceOnUse">
<stop stop-color="#35FF89"/>
<stop offset="1" stop-color="#3177F3"/>
</linearGradient>
<linearGradient id="paint37_linear_634_2450" x1="-7.75847" y1="22.8183" x2="54.7211" y2="110.951" gradientUnits="userSpaceOnUse">
<stop stop-color="#35FF89"/>
<stop offset="1" stop-color="#3177F3"/>
</linearGradient>
<linearGradient id="paint38_linear_634_2450" x1="-7.75847" y1="22.8183" x2="54.7211" y2="110.951" gradientUnits="userSpaceOnUse">
<stop stop-color="#35FF89"/>
<stop offset="1" stop-color="#3177F3"/>
</linearGradient>
<linearGradient id="paint39_linear_634_2450" x1="-7.75847" y1="22.8183" x2="54.7211" y2="110.951" gradientUnits="userSpaceOnUse">
<stop stop-color="#35FF89"/>
<stop offset="1" stop-color="#3177F3"/>
</linearGradient>
<linearGradient id="paint40_linear_634_2450" x1="-7.75847" y1="22.8183" x2="54.7211" y2="110.951" gradientUnits="userSpaceOnUse">
<stop stop-color="#35FF89"/>
<stop offset="1" stop-color="#3177F3"/>
</linearGradient>
<linearGradient id="paint41_linear_634_2450" x1="-7.75847" y1="22.8183" x2="54.7211" y2="110.951" gradientUnits="userSpaceOnUse">
<stop stop-color="#35FF89"/>
<stop offset="1" stop-color="#3177F3"/>
</linearGradient>
<linearGradient id="paint42_linear_634_2450" x1="-7.75847" y1="22.8183" x2="54.7211" y2="110.951" gradientUnits="userSpaceOnUse">
<stop stop-color="#35FF89"/>
<stop offset="1" stop-color="#3177F3"/>
</linearGradient>
<linearGradient id="paint43_linear_634_2450" x1="-7.75847" y1="22.8183" x2="54.7211" y2="110.951" gradientUnits="userSpaceOnUse">
<stop stop-color="#35FF89"/>
<stop offset="1" stop-color="#3177F3"/>
</linearGradient>
<linearGradient id="paint44_linear_634_2450" x1="-7.75847" y1="22.8183" x2="54.7211" y2="110.951" gradientUnits="userSpaceOnUse">
<stop stop-color="#35FF89"/>
<stop offset="1" stop-color="#3177F3"/>
</linearGradient>
<linearGradient id="paint45_linear_634_2450" x1="-7.75847" y1="22.8183" x2="54.7211" y2="110.951" gradientUnits="userSpaceOnUse">
<stop stop-color="#35FF89"/>
<stop offset="1" stop-color="#3177F3"/>
</linearGradient>
<linearGradient id="paint46_linear_634_2450" x1="-7.75847" y1="22.8183" x2="54.7211" y2="110.951" gradientUnits="userSpaceOnUse">
<stop stop-color="#35FF89"/>
<stop offset="1" stop-color="#3177F3"/>
</linearGradient>
<linearGradient id="paint47_linear_634_2450" x1="-7.75847" y1="22.8183" x2="54.7211" y2="110.951" gradientUnits="userSpaceOnUse">
<stop stop-color="#35FF89"/>
<stop offset="1" stop-color="#3177F3"/>
</linearGradient>
<linearGradient id="paint48_linear_634_2450" x1="-7.75847" y1="22.8183" x2="54.7211" y2="110.951" gradientUnits="userSpaceOnUse">
<stop stop-color="#35FF89"/>
<stop offset="1" stop-color="#3177F3"/>
</linearGradient>
<linearGradient id="paint49_linear_634_2450" x1="-7.75847" y1="22.8183" x2="54.7211" y2="110.951" gradientUnits="userSpaceOnUse">
<stop stop-color="#35FF89"/>
<stop offset="1" stop-color="#3177F3"/>
</linearGradient>
<linearGradient id="paint50_linear_634_2450" x1="-7.75847" y1="22.8183" x2="54.7211" y2="110.951" gradientUnits="userSpaceOnUse">
<stop stop-color="#35FF89"/>
<stop offset="1" stop-color="#3177F3"/>
</linearGradient>
<linearGradient id="paint51_linear_634_2450" x1="-7.75847" y1="22.8183" x2="54.7211" y2="110.951" gradientUnits="userSpaceOnUse">
<stop stop-color="#35FF89"/>
<stop offset="1" stop-color="#3177F3"/>
</linearGradient>
<linearGradient id="paint52_linear_634_2450" x1="-7.75847" y1="22.8183" x2="54.7211" y2="110.951" gradientUnits="userSpaceOnUse">
<stop stop-color="#35FF89"/>
<stop offset="1" stop-color="#3177F3"/>
</linearGradient>
<linearGradient id="paint53_linear_634_2450" x1="-7.75847" y1="22.8183" x2="54.7211" y2="110.951" gradientUnits="userSpaceOnUse">
<stop stop-color="#35FF89"/>
<stop offset="1" stop-color="#3177F3"/>
</linearGradient>
<linearGradient id="paint54_linear_634_2450" x1="-7.75847" y1="22.8183" x2="54.7211" y2="110.951" gradientUnits="userSpaceOnUse">
<stop stop-color="#35FF89"/>
<stop offset="1" stop-color="#3177F3"/>
</linearGradient>
<linearGradient id="paint55_linear_634_2450" x1="-7.75847" y1="22.8183" x2="54.7211" y2="110.951" gradientUnits="userSpaceOnUse">
<stop stop-color="#35FF89"/>
<stop offset="1" stop-color="#3177F3"/>
</linearGradient>
<linearGradient id="paint56_linear_634_2450" x1="-7.75847" y1="22.8183" x2="54.7211" y2="110.951" gradientUnits="userSpaceOnUse">
<stop stop-color="#35FF89"/>
<stop offset="1" stop-color="#3177F3"/>
</linearGradient>
<linearGradient id="paint57_linear_634_2450" x1="-7.75847" y1="22.8183" x2="54.7211" y2="110.951" gradientUnits="userSpaceOnUse">
<stop stop-color="#35FF89"/>
<stop offset="1" stop-color="#3177F3"/>
</linearGradient>
<linearGradient id="paint58_linear_634_2450" x1="-7.75847" y1="22.8183" x2="54.7211" y2="110.951" gradientUnits="userSpaceOnUse">
<stop stop-color="#35FF89"/>
<stop offset="1" stop-color="#3177F3"/>
</linearGradient>
<linearGradient id="paint59_linear_634_2450" x1="-7.75847" y1="22.8183" x2="54.7211" y2="110.951" gradientUnits="userSpaceOnUse">
<stop stop-color="#35FF89"/>
<stop offset="1" stop-color="#3177F3"/>
</linearGradient>
<linearGradient id="paint60_linear_634_2450" x1="-7.75847" y1="22.8183" x2="54.7211" y2="110.951" gradientUnits="userSpaceOnUse">
<stop stop-color="#35FF89"/>
<stop offset="1" stop-color="#3177F3"/>
</linearGradient>
<linearGradient id="paint61_linear_634_2450" x1="-7.75847" y1="22.8183" x2="54.7211" y2="110.951" gradientUnits="userSpaceOnUse">
<stop stop-color="#35FF89"/>
<stop offset="1" stop-color="#3177F3"/>
</linearGradient>
<linearGradient id="paint62_linear_634_2450" x1="-7.75847" y1="22.8183" x2="54.7211" y2="110.951" gradientUnits="userSpaceOnUse">
<stop stop-color="#35FF89"/>
<stop offset="1" stop-color="#3177F3"/>
</linearGradient>
<linearGradient id="paint63_linear_634_2450" x1="-7.75847" y1="22.8183" x2="54.7211" y2="110.951" gradientUnits="userSpaceOnUse">
<stop stop-color="#35FF89"/>
<stop offset="1" stop-color="#3177F3"/>
</linearGradient>
<linearGradient id="paint64_linear_634_2450" x1="-7.75847" y1="22.8183" x2="54.7211" y2="110.951" gradientUnits="userSpaceOnUse">
<stop stop-color="#35FF89"/>
<stop offset="1" stop-color="#3177F3"/>
</linearGradient>
<linearGradient id="paint65_linear_634_2450" x1="-7.75847" y1="22.8183" x2="54.7211" y2="110.951" gradientUnits="userSpaceOnUse">
<stop stop-color="#35FF89"/>
<stop offset="1" stop-color="#3177F3"/>
</linearGradient>
<linearGradient id="paint66_linear_634_2450" x1="-7.75847" y1="22.8183" x2="54.7211" y2="110.951" gradientUnits="userSpaceOnUse">
<stop stop-color="#35FF89"/>
<stop offset="1" stop-color="#3177F3"/>
</linearGradient>
<linearGradient id="paint67_linear_634_2450" x1="-7.75847" y1="22.8183" x2="54.7211" y2="110.951" gradientUnits="userSpaceOnUse">
<stop stop-color="#35FF89"/>
<stop offset="1" stop-color="#3177F3"/>
</linearGradient>
<linearGradient id="paint68_linear_634_2450" x1="-7.75847" y1="22.8183" x2="54.7211" y2="110.951" gradientUnits="userSpaceOnUse">
<stop stop-color="#35FF89"/>
<stop offset="1" stop-color="#3177F3"/>
</linearGradient>
<linearGradient id="paint69_linear_634_2450" x1="-7.75847" y1="22.8183" x2="54.7211" y2="110.951" gradientUnits="userSpaceOnUse">
<stop stop-color="#35FF89"/>
<stop offset="1" stop-color="#3177F3"/>
</linearGradient>
<linearGradient id="paint70_linear_634_2450" x1="-7.75847" y1="22.8183" x2="54.7211" y2="110.951" gradientUnits="userSpaceOnUse">
<stop stop-color="#35FF89"/>
<stop offset="1" stop-color="#3177F3"/>
</linearGradient>
<linearGradient id="paint71_linear_634_2450" x1="-7.75847" y1="22.8183" x2="54.7211" y2="110.951" gradientUnits="userSpaceOnUse">
<stop stop-color="#35FF89"/>
<stop offset="1" stop-color="#3177F3"/>
</linearGradient>
<linearGradient id="paint72_linear_634_2450" x1="-7.75847" y1="22.8183" x2="54.7211" y2="110.951" gradientUnits="userSpaceOnUse">
<stop stop-color="#35FF89"/>
<stop offset="1" stop-color="#3177F3"/>
</linearGradient>
<linearGradient id="paint73_linear_634_2450" x1="-7.75847" y1="22.8183" x2="54.7211" y2="110.951" gradientUnits="userSpaceOnUse">
<stop stop-color="#35FF89"/>
<stop offset="1" stop-color="#3177F3"/>
</linearGradient>
<linearGradient id="paint74_linear_634_2450" x1="-7.75847" y1="22.8183" x2="54.7211" y2="110.951" gradientUnits="userSpaceOnUse">
<stop stop-color="#35FF89"/>
<stop offset="1" stop-color="#3177F3"/>
</linearGradient>
<linearGradient id="paint75_linear_634_2450" x1="-7.75847" y1="22.8183" x2="54.7211" y2="110.951" gradientUnits="userSpaceOnUse">
<stop stop-color="#35FF89"/>
<stop offset="1" stop-color="#3177F3"/>
</linearGradient>
<linearGradient id="paint76_linear_634_2450" x1="-7.75847" y1="22.8183" x2="54.7211" y2="110.951" gradientUnits="userSpaceOnUse">
<stop stop-color="#35FF89"/>
<stop offset="1" stop-color="#3177F3"/>
</linearGradient>
<linearGradient id="paint77_linear_634_2450" x1="-7.75847" y1="22.8183" x2="54.7211" y2="110.951" gradientUnits="userSpaceOnUse">
<stop stop-color="#35FF89"/>
<stop offset="1" stop-color="#3177F3"/>
</linearGradient>
<linearGradient id="paint78_linear_634_2450" x1="-7.75847" y1="22.8183" x2="54.7211" y2="110.951" gradientUnits="userSpaceOnUse">
<stop stop-color="#35FF89"/>
<stop offset="1" stop-color="#3177F3"/>
</linearGradient>
<linearGradient id="paint79_linear_634_2450" x1="-7.75847" y1="22.8183" x2="54.7211" y2="110.951" gradientUnits="userSpaceOnUse">
<stop stop-color="#35FF89"/>
<stop offset="1" stop-color="#3177F3"/>
</linearGradient>
<linearGradient id="paint80_linear_634_2450" x1="-7.75847" y1="22.8183" x2="54.7211" y2="110.951" gradientUnits="userSpaceOnUse">
<stop stop-color="#35FF89"/>
<stop offset="1" stop-color="#3177F3"/>
</linearGradient>
<linearGradient id="paint81_linear_634_2450" x1="-7.75847" y1="22.8183" x2="54.7211" y2="110.951" gradientUnits="userSpaceOnUse">
<stop stop-color="#35FF89"/>
<stop offset="1" stop-color="#3177F3"/>
</linearGradient>
<linearGradient id="paint82_linear_634_2450" x1="-7.75847" y1="22.8183" x2="54.7211" y2="110.951" gradientUnits="userSpaceOnUse">
<stop stop-color="#35FF89"/>
<stop offset="1" stop-color="#3177F3"/>
</linearGradient>
<linearGradient id="paint83_linear_634_2450" x1="-7.75847" y1="22.8183" x2="54.7211" y2="110.951" gradientUnits="userSpaceOnUse">
<stop stop-color="#35FF89"/>
<stop offset="1" stop-color="#3177F3"/>
</linearGradient>
<linearGradient id="paint84_linear_634_2450" x1="-7.75847" y1="22.8183" x2="54.7211" y2="110.951" gradientUnits="userSpaceOnUse">
<stop stop-color="#35FF89"/>
<stop offset="1" stop-color="#3177F3"/>
</linearGradient>
<linearGradient id="paint85_linear_634_2450" x1="-7.75847" y1="22.8183" x2="54.7211" y2="110.951" gradientUnits="userSpaceOnUse">
<stop stop-color="#35FF89"/>
<stop offset="1" stop-color="#3177F3"/>
</linearGradient>
<linearGradient id="paint86_linear_634_2450" x1="-7.75847" y1="22.8183" x2="54.7211" y2="110.951" gradientUnits="userSpaceOnUse">
<stop stop-color="#35FF89"/>
<stop offset="1" stop-color="#3177F3"/>
</linearGradient>
<linearGradient id="paint87_linear_634_2450" x1="-7.75847" y1="22.8183" x2="54.7211" y2="110.951" gradientUnits="userSpaceOnUse">
<stop stop-color="#35FF89"/>
<stop offset="1" stop-color="#3177F3"/>
</linearGradient>
<linearGradient id="paint88_linear_634_2450" x1="-7.75847" y1="22.8183" x2="54.7211" y2="110.951" gradientUnits="userSpaceOnUse">
<stop stop-color="#35FF89"/>
<stop offset="1" stop-color="#3177F3"/>
</linearGradient>
<linearGradient id="paint89_linear_634_2450" x1="-7.75847" y1="22.8183" x2="54.7211" y2="110.951" gradientUnits="userSpaceOnUse">
<stop stop-color="#35FF89"/>
<stop offset="1" stop-color="#3177F3"/>
</linearGradient>
<linearGradient id="paint90_linear_634_2450" x1="-7.75847" y1="22.8183" x2="54.7211" y2="110.951" gradientUnits="userSpaceOnUse">
<stop stop-color="#35FF89"/>
<stop offset="1" stop-color="#3177F3"/>
</linearGradient>
<linearGradient id="paint91_linear_634_2450" x1="-7.75847" y1="22.8183" x2="54.7211" y2="110.951" gradientUnits="userSpaceOnUse">
<stop stop-color="#35FF89"/>
<stop offset="1" stop-color="#3177F3"/>
</linearGradient>
<linearGradient id="paint92_linear_634_2450" x1="-7.75847" y1="22.8183" x2="54.7211" y2="110.951" gradientUnits="userSpaceOnUse">
<stop stop-color="#35FF89"/>
<stop offset="1" stop-color="#3177F3"/>
</linearGradient>
<linearGradient id="paint93_linear_634_2450" x1="-7.75847" y1="22.8183" x2="54.7211" y2="110.951" gradientUnits="userSpaceOnUse">
<stop stop-color="#35FF89"/>
<stop offset="1" stop-color="#3177F3"/>
</linearGradient>
<linearGradient id="paint94_linear_634_2450" x1="-7.75847" y1="22.8183" x2="54.7211" y2="110.951" gradientUnits="userSpaceOnUse">
<stop stop-color="#35FF89"/>
<stop offset="1" stop-color="#3177F3"/>
</linearGradient>
<linearGradient id="paint95_linear_634_2450" x1="-7.75847" y1="22.8183" x2="54.7211" y2="110.951" gradientUnits="userSpaceOnUse">
<stop stop-color="#35FF89"/>
<stop offset="1" stop-color="#3177F3"/>
</linearGradient>
<linearGradient id="paint96_linear_634_2450" x1="-7.75847" y1="22.8183" x2="54.7211" y2="110.951" gradientUnits="userSpaceOnUse">
<stop stop-color="#35FF89"/>
<stop offset="1" stop-color="#3177F3"/>
</linearGradient>
<linearGradient id="paint97_linear_634_2450" x1="-7.75847" y1="22.8183" x2="54.7211" y2="110.951" gradientUnits="userSpaceOnUse">
<stop stop-color="#35FF89"/>
<stop offset="1" stop-color="#3177F3"/>
</linearGradient>
<linearGradient id="paint98_linear_634_2450" x1="-7.75847" y1="22.8183" x2="54.7211" y2="110.951" gradientUnits="userSpaceOnUse">
<stop stop-color="#35FF89"/>
<stop offset="1" stop-color="#3177F3"/>
</linearGradient>
<linearGradient id="paint99_linear_634_2450" x1="-7.75847" y1="22.8183" x2="54.7211" y2="110.951" gradientUnits="userSpaceOnUse">
<stop stop-color="#35FF89"/>
<stop offset="1" stop-color="#3177F3"/>
</linearGradient>
<linearGradient id="paint100_linear_634_2450" x1="-7.75847" y1="22.8183" x2="54.7211" y2="110.951" gradientUnits="userSpaceOnUse">
<stop stop-color="#35FF89"/>
<stop offset="1" stop-color="#3177F3"/>
</linearGradient>
<linearGradient id="paint101_linear_634_2450" x1="-7.75847" y1="22.8183" x2="54.7211" y2="110.951" gradientUnits="userSpaceOnUse">
<stop stop-color="#35FF89"/>
<stop offset="1" stop-color="#3177F3"/>
</linearGradient>
</defs>
</svg>
