<svg width="80" height="80" viewBox="0 0 80 80" fill="none" xmlns="http://www.w3.org/2000/svg">
<path d="M64.9946 31.2043C65.5153 31.2043 65.9374 30.7822 65.9374 30.2615C65.9374 29.7408 65.5153 29.3187 64.9946 29.3187C64.4739 29.3187 64.0518 29.7408 64.0518 30.2615C64.0518 30.7822 64.4739 31.2043 64.9946 31.2043Z" fill="url(#paint0_linear_634_2453)"/>
<path d="M61.7512 37.4268C62.6676 37.4268 63.4105 36.6839 63.4105 35.7674C63.4105 34.851 62.6676 34.1081 61.7512 34.1081C60.8347 34.1081 60.0918 34.851 60.0918 35.7674C60.0918 36.6839 60.8347 37.4268 61.7512 37.4268Z" fill="url(#paint1_linear_634_2453)"/>
<path d="M54.9252 44.2149C55.7584 44.2149 56.4337 43.5395 56.4337 42.7064C56.4337 41.8733 55.7584 41.1979 54.9252 41.1979C54.0921 41.1979 53.4167 41.8733 53.4167 42.7064C53.4167 43.5395 54.0921 44.2149 54.9252 44.2149Z" fill="url(#paint2_linear_634_2453)"/>
<path d="M58.6583 41.8767C59.6581 41.8767 60.4686 41.0663 60.4686 40.0666C60.4686 39.0668 59.6581 38.2564 58.6583 38.2564C57.6586 38.2564 56.8482 39.0668 56.8482 40.0666C56.8482 41.0663 57.6586 41.8767 58.6583 41.8767Z" fill="url(#paint3_linear_634_2453)"/>
<path d="M51.2671 45.0068C51.6836 45.0068 52.0213 44.6692 52.0213 44.2526C52.0213 43.836 51.6836 43.4984 51.2671 43.4984C50.8505 43.4984 50.5128 43.836 50.5128 44.2526C50.5128 44.6692 50.8505 45.0068 51.2671 45.0068Z" fill="url(#paint4_linear_634_2453)"/>
<path d="M66.8416 40.2551C67.3623 40.2551 67.7844 39.833 67.7844 39.3123C67.7844 38.7916 67.3623 38.3695 66.8416 38.3695C66.3209 38.3695 65.8988 38.7916 65.8988 39.3123C65.8988 39.833 66.3209 40.2551 66.8416 40.2551Z" fill="url(#paint5_linear_634_2453)"/>
<path d="M61.9391 45.0069C62.8555 45.0069 63.5984 44.2639 63.5984 43.3475C63.5984 42.4311 62.8555 41.6882 61.9391 41.6882C61.0227 41.6882 60.2798 42.4311 60.2798 43.3475C60.2798 44.2639 61.0227 45.0069 61.9391 45.0069Z" fill="url(#paint6_linear_634_2453)"/>
<path d="M53.1152 49.0797C53.9483 49.0797 54.6237 48.4043 54.6237 47.5712C54.6237 46.7381 53.9483 46.0627 53.1152 46.0627C52.2821 46.0627 51.6068 46.7381 51.6068 47.5712C51.6068 48.4043 52.2821 49.0797 53.1152 49.0797Z" fill="url(#paint7_linear_634_2453)"/>
<path d="M57.5647 48.1369C58.5644 48.1369 59.3748 47.3265 59.3748 46.3268C59.3748 45.327 58.5644 44.5166 57.5647 44.5166C56.565 44.5166 55.7545 45.327 55.7545 46.3268C55.7545 47.3265 56.565 48.1369 57.5647 48.1369Z" fill="url(#paint8_linear_634_2453)"/>
<path d="M49.1928 48.514C49.6094 48.514 49.9471 48.1763 49.9471 47.7598C49.9471 47.3432 49.6094 47.0055 49.1928 47.0055C48.7763 47.0055 48.4386 47.3432 48.4386 47.7598C48.4386 48.1763 48.7763 48.514 49.1928 48.514Z" fill="url(#paint9_linear_634_2453)"/>
<path d="M65.4844 49.3814C66.005 49.3814 66.4272 48.9593 66.4272 48.4386C66.4272 47.9179 66.005 47.4958 65.4844 47.4958C64.9637 47.4958 64.5415 47.9179 64.5415 48.4386C64.5415 48.9593 64.9637 49.3814 65.4844 49.3814Z" fill="url(#paint10_linear_634_2453)"/>
<path d="M59.488 52.2098C60.4045 52.2098 61.1474 51.4669 61.1474 50.5505C61.1474 49.6341 60.4045 48.8911 59.488 48.8911C58.5716 48.8911 57.8287 49.6341 57.8287 50.5505C57.8287 51.4669 58.5716 52.2098 59.488 52.2098Z" fill="url(#paint11_linear_634_2453)"/>
<path d="M49.7582 53.0018C50.5913 53.0018 51.2667 52.3264 51.2667 51.4933C51.2667 50.6602 50.5913 49.9848 49.7582 49.9848C48.925 49.9848 48.2497 50.6602 48.2497 51.4933C48.2497 52.3264 48.925 53.0018 49.7582 53.0018Z" fill="url(#paint12_linear_634_2453)"/>
<path d="M54.3586 53.6806C55.3584 53.6806 56.1688 52.8701 56.1688 51.8704C56.1688 50.8707 55.3584 50.0602 54.3586 50.0602C53.3589 50.0602 52.5485 50.8707 52.5485 51.8704C52.5485 52.8701 53.3589 53.6806 54.3586 53.6806Z" fill="url(#paint13_linear_634_2453)"/>
<path d="M46.0246 51.0785C46.4411 51.0785 46.7788 50.7408 46.7788 50.3242C46.7788 49.9077 46.4411 49.57 46.0246 49.57C45.608 49.57 45.2703 49.9077 45.2703 50.3242C45.2703 50.7408 45.608 51.0785 46.0246 51.0785Z" fill="url(#paint14_linear_634_2453)"/>
<path d="M61.1102 57.4895C61.6309 57.4895 62.053 57.0674 62.053 56.5467C62.053 56.026 61.6309 55.6039 61.1102 55.6039C60.5895 55.6039 60.1674 56.026 60.1674 56.5467C60.1674 57.0674 60.5895 57.4895 61.1102 57.4895Z" fill="url(#paint15_linear_634_2453)"/>
<path d="M54.7373 58.1683C55.6537 58.1683 56.3966 57.4254 56.3966 56.509C56.3966 55.5926 55.6537 54.8496 54.7373 54.8496C53.8209 54.8496 53.0779 55.5926 53.0779 56.509C53.0779 57.4254 53.8209 58.1683 54.7373 58.1683Z" fill="url(#paint16_linear_634_2453)"/>
<path d="M45.2707 55.5662C46.1038 55.5662 46.7792 54.8908 46.7792 54.0577C46.7792 53.2246 46.1038 52.5492 45.2707 52.5492C44.4376 52.5492 43.7623 53.2246 43.7623 54.0577C43.7623 54.8908 44.4376 55.5662 45.2707 55.5662Z" fill="url(#paint17_linear_634_2453)"/>
<path d="M49.4569 57.7535C50.4566 57.7535 51.2671 56.9431 51.2671 55.9433C51.2671 54.9436 50.4566 54.1332 49.4569 54.1332C48.4571 54.1332 47.6467 54.9436 47.6467 55.9433C47.6467 56.9431 48.4571 57.7535 49.4569 57.7535Z" fill="url(#paint18_linear_634_2453)"/>
<path d="M42.1411 52.4361C42.5577 52.4361 42.8953 52.0984 42.8953 51.6819C42.8953 51.2653 42.5577 50.9276 42.1411 50.9276C41.7246 50.9276 41.3868 51.2653 41.3868 51.6819C41.3868 52.0984 41.7246 52.4361 42.1411 52.4361Z" fill="url(#paint19_linear_634_2453)"/>
<path d="M54.2085 63.5989C54.7292 63.5989 55.1513 63.1768 55.1513 62.6561C55.1513 62.1354 54.7292 61.7133 54.2085 61.7133C53.6879 61.7133 53.2658 62.1354 53.2658 62.6561C53.2658 63.1768 53.6879 63.5989 54.2085 63.5989Z" fill="url(#paint20_linear_634_2453)"/>
<path d="M48.25 62.0904C49.1664 62.0904 49.9093 61.3475 49.9093 60.4311C49.9093 59.5146 49.1664 58.7717 48.25 58.7717C47.3336 58.7717 46.5906 59.5146 46.5906 60.4311C46.5906 61.3475 47.3336 62.0904 48.25 62.0904Z" fill="url(#paint21_linear_634_2453)"/>
<path d="M40.1793 56.4336C41.0124 56.4336 41.6877 55.7582 41.6877 54.9251C41.6877 54.092 41.0124 53.4166 40.1793 53.4166C39.3462 53.4166 38.6708 54.092 38.6708 54.9251C38.6708 55.7582 39.3462 56.4336 40.1793 56.4336Z" fill="url(#paint22_linear_634_2453)"/>
<path d="M43.4603 59.9408C44.46 59.9408 45.2705 59.1303 45.2705 58.1306C45.2705 57.1309 44.46 56.3204 43.4603 56.3204C42.4606 56.3204 41.6502 57.1309 41.6502 58.1306C41.6502 59.1303 42.4606 59.9408 43.4603 59.9408Z" fill="url(#paint23_linear_634_2453)"/>
<path d="M38.0679 52.3607C38.4844 52.3607 38.8221 52.023 38.8221 51.6064C38.8221 51.1899 38.4844 50.8522 38.0679 50.8522C37.6513 50.8522 37.3136 51.1899 37.3136 51.6064C37.3136 52.023 37.6513 52.3607 38.0679 52.3607Z" fill="url(#paint24_linear_634_2453)"/>
<path d="M45.61 67.0306C46.1307 67.0306 46.5528 66.6085 46.5528 66.0878C46.5528 65.5671 46.1307 65.145 45.61 65.145C45.0893 65.145 44.6672 65.5671 44.6672 66.0878C44.6672 66.6085 45.0893 67.0306 45.61 67.0306Z" fill="url(#paint25_linear_634_2453)"/>
<path d="M40.783 63.5989C41.6994 63.5989 42.4423 62.8559 42.4423 61.9395C42.4423 61.0231 41.6994 60.2802 40.783 60.2802C39.8666 60.2802 39.1237 61.0231 39.1237 61.9395C39.1237 62.8559 39.8666 63.5989 40.783 63.5989Z" fill="url(#paint26_linear_634_2453)"/>
<path d="M35.1264 55.4908C35.9595 55.4908 36.6348 54.8154 36.6348 53.9823C36.6348 53.1492 35.9595 52.4738 35.1264 52.4738C34.2933 52.4738 33.6178 53.1492 33.6178 53.9823C33.6178 54.8154 34.2933 55.4908 35.1264 55.4908Z" fill="url(#paint27_linear_634_2453)"/>
<path d="M37.0871 59.9408C38.0869 59.9408 38.8973 59.1303 38.8973 58.1306C38.8973 57.1309 38.0869 56.3204 37.0871 56.3204C36.0874 56.3204 35.277 57.1309 35.277 58.1306C35.277 59.1303 36.0874 59.9408 37.0871 59.9408Z" fill="url(#paint28_linear_634_2453)"/>
<path d="M34.2212 50.8899C34.6377 50.8899 34.9754 50.5522 34.9754 50.1357C34.9754 49.7191 34.6377 49.3814 34.2212 49.3814C33.8046 49.3814 33.4669 49.7191 33.4669 50.1357C33.4669 50.5522 33.8046 50.8899 34.2212 50.8899Z" fill="url(#paint29_linear_634_2453)"/>
<path d="M36.4087 67.2569C36.9294 67.2569 37.3515 66.8348 37.3515 66.3141C37.3515 65.7934 36.9294 65.3713 36.4087 65.3713C35.888 65.3713 35.4659 65.7934 35.4659 66.3141C35.4659 66.8348 35.888 67.2569 36.4087 67.2569Z" fill="url(#paint30_linear_634_2453)"/>
<path d="M33.2785 62.4298C34.195 62.4298 34.9379 61.6869 34.9379 60.7705C34.9379 59.854 34.195 59.1111 33.2785 59.1111C32.3621 59.1111 31.6192 59.854 31.6192 60.7705C31.6192 61.6869 32.3621 62.4298 33.2785 62.4298Z" fill="url(#paint31_linear_634_2453)"/>
<path d="M30.6767 52.8887C31.5099 52.8887 32.1853 52.2133 32.1853 51.3802C32.1853 50.5471 31.5099 49.8717 30.6767 49.8717C29.8436 49.8717 29.1683 50.5471 29.1683 51.3802C29.1683 52.2133 29.8436 52.8887 30.6767 52.8887Z" fill="url(#paint32_linear_634_2453)"/>
<path d="M31.0917 57.7535C32.0914 57.7535 32.9019 56.9431 32.9019 55.9434C32.9019 54.9436 32.0914 54.1332 31.0917 54.1332C30.092 54.1332 29.2815 54.9436 29.2815 55.9434C29.2815 56.9431 30.092 57.7535 31.0917 57.7535Z" fill="url(#paint33_linear_634_2453)"/>
<path d="M31.1296 48.2124C31.5461 48.2124 31.8838 47.8747 31.8838 47.4581C31.8838 47.0416 31.5461 46.7039 31.1296 46.7039C30.713 46.7039 30.3753 47.0416 30.3753 47.4581C30.3753 47.8747 30.713 48.2124 31.1296 48.2124Z" fill="url(#paint34_linear_634_2453)"/>
<path d="M27.6591 64.3531C28.1798 64.3531 28.6019 63.931 28.6019 63.4103C28.6019 62.8896 28.1798 62.4675 27.6591 62.4675C27.1384 62.4675 26.7163 62.8896 26.7163 63.4103C26.7163 63.931 27.1384 64.3531 27.6591 64.3531Z" fill="url(#paint35_linear_634_2453)"/>
<path d="M26.6033 58.8094C27.5197 58.8094 28.2626 58.0665 28.2626 57.1501C28.2626 56.2337 27.5197 55.4907 26.6033 55.4907C25.6868 55.4907 24.9439 56.2337 24.9439 57.1501C24.9439 58.0665 25.6868 58.8094 26.6033 58.8094Z" fill="url(#paint36_linear_634_2453)"/>
<path d="M27.3574 48.8911C28.1905 48.8911 28.8659 48.2158 28.8659 47.3827C28.8659 46.5495 28.1905 45.8742 27.3574 45.8742C26.5243 45.8742 25.849 46.5495 25.849 47.3827C25.849 48.2158 26.5243 48.8911 27.3574 48.8911Z" fill="url(#paint37_linear_634_2453)"/>
<path d="M26.1888 53.6429C27.1885 53.6429 27.999 52.8324 27.999 51.8327C27.999 50.833 27.1885 50.0225 26.1888 50.0225C25.189 50.0225 24.3786 50.833 24.3786 51.8327C24.3786 52.8324 25.189 53.6429 26.1888 53.6429Z" fill="url(#paint38_linear_634_2453)"/>
<path d="M29.1683 44.6297C29.5848 44.6297 29.9225 44.292 29.9225 43.8755C29.9225 43.4589 29.5848 43.1212 29.1683 43.1212C28.7517 43.1212 28.4141 43.4589 28.4141 43.8755C28.4141 44.292 28.7517 44.6297 29.1683 44.6297Z" fill="url(#paint39_linear_634_2453)"/>
<path d="M20.4188 58.6209C20.9395 58.6209 21.3616 58.1988 21.3616 57.6781C21.3616 57.1574 20.9395 56.7353 20.4188 56.7353C19.8981 56.7353 19.476 57.1574 19.476 57.6781C19.476 58.1988 19.8981 58.6209 20.4188 58.6209Z" fill="url(#paint40_linear_634_2453)"/>
<path d="M21.5882 53.0772C22.5047 53.0772 23.2476 52.3343 23.2476 51.4179C23.2476 50.5015 22.5047 49.7586 21.5882 49.7586C20.6718 49.7586 19.929 50.5015 19.929 51.4179C19.929 52.3343 20.6718 53.0772 21.5882 53.0772Z" fill="url(#paint41_linear_634_2453)"/>
<path d="M25.6229 44.0263C26.4561 44.0263 27.1314 43.3509 27.1314 42.5178C27.1314 41.6847 26.4561 41.0093 25.6229 41.0093C24.7898 41.0093 24.1145 41.6847 24.1145 42.5178C24.1145 43.3509 24.7898 44.0263 25.6229 44.0263Z" fill="url(#paint42_linear_634_2453)"/>
<path d="M23.0207 48.0993C24.0205 48.0993 24.8309 47.2888 24.8309 46.2891C24.8309 45.2893 24.0205 44.4789 23.0207 44.4789C22.021 44.4789 21.2106 45.2893 21.2106 46.2891C21.2106 47.2888 22.021 48.0993 23.0207 48.0993Z" fill="url(#paint43_linear_634_2453)"/>
<path d="M28.5267 40.5945C28.9433 40.5945 29.281 40.2569 29.281 39.8403C29.281 39.4237 28.9433 39.0861 28.5267 39.0861C28.1102 39.0861 27.7724 39.4237 27.7724 39.8403C27.7724 40.2569 28.1102 40.5945 28.5267 40.5945Z" fill="url(#paint44_linear_634_2453)"/>
<path d="M15.5914 50.7391C16.1121 50.7391 16.5342 50.3169 16.5342 49.7962C16.5342 49.2756 16.1121 48.8535 15.5914 48.8535C15.0707 48.8535 14.6486 49.2756 14.6486 49.7962C14.6486 50.3169 15.0707 50.7391 15.5914 50.7391Z" fill="url(#paint45_linear_634_2453)"/>
<path d="M18.8343 45.9873C19.7507 45.9873 20.4937 45.2444 20.4937 44.328C20.4937 43.4116 19.7507 42.6687 18.8343 42.6687C17.9179 42.6687 17.175 43.4116 17.175 44.328C17.175 45.2444 17.9179 45.9873 18.8343 45.9873Z" fill="url(#paint46_linear_634_2453)"/>
<path d="M25.6605 38.8598C26.4936 38.8598 27.169 38.1844 27.169 37.3513C27.169 36.5182 26.4936 35.8428 25.6605 35.8428C24.8274 35.8428 24.1521 36.5182 24.1521 37.3513C24.1521 38.1844 24.8274 38.8598 25.6605 38.8598Z" fill="url(#paint47_linear_634_2453)"/>
<path d="M21.9268 41.839C22.9266 41.839 23.737 41.0286 23.737 40.0289C23.737 39.0291 22.9266 38.2187 21.9268 38.2187C20.9271 38.2187 20.1166 39.0291 20.1166 40.0289C20.1166 41.0286 20.9271 41.839 21.9268 41.839Z" fill="url(#paint48_linear_634_2453)"/>
<path d="M29.2806 36.5971C29.6971 36.5971 30.0348 36.2594 30.0348 35.8428C30.0348 35.4263 29.6971 35.0886 29.2806 35.0886C28.864 35.0886 28.5263 35.4263 28.5263 35.8428C28.5263 36.2594 28.864 36.5971 29.2806 36.5971Z" fill="url(#paint49_linear_634_2453)"/>
<path d="M13.7436 41.7259C14.2643 41.7259 14.6864 41.3038 14.6864 40.7831C14.6864 40.2624 14.2643 39.8403 13.7436 39.8403C13.2229 39.8403 12.8008 40.2624 12.8008 40.7831C12.8008 41.3038 13.2229 41.7259 13.7436 41.7259Z" fill="url(#paint50_linear_634_2453)"/>
<path d="M18.6456 38.4073C19.5621 38.4073 20.305 37.6644 20.305 36.7479C20.305 35.8315 19.5621 35.0886 18.6456 35.0886C17.7292 35.0886 16.9863 35.8315 16.9863 36.7479C16.9863 37.6644 17.7292 38.4073 18.6456 38.4073Z" fill="url(#paint51_linear_634_2453)"/>
<path d="M27.4708 34.0327C28.3039 34.0327 28.9792 33.3573 28.9792 32.5242C28.9792 31.6911 28.3039 31.0157 27.4708 31.0157C26.6376 31.0157 25.9622 31.6911 25.9622 32.5242C25.9622 33.3573 26.6376 34.0327 27.4708 34.0327Z" fill="url(#paint52_linear_634_2453)"/>
<path d="M23.0206 35.5412C24.0204 35.5412 24.8308 34.7307 24.8308 33.731C24.8308 32.7312 24.0204 31.9208 23.0206 31.9208C22.0209 31.9208 21.2105 32.7312 21.2105 33.731C21.2105 34.7307 22.0209 35.5412 23.0206 35.5412Z" fill="url(#paint53_linear_634_2453)"/>
<path d="M31.3927 33.0898C31.8093 33.0898 32.1469 32.7521 32.1469 32.3356C32.1469 31.919 31.8093 31.5814 31.3927 31.5814C30.9762 31.5814 30.6385 31.919 30.6385 32.3356C30.6385 32.7521 30.9762 33.0898 31.3927 33.0898Z" fill="url(#paint54_linear_634_2453)"/>
<path d="M15.1008 32.5996C15.6215 32.5996 16.0436 32.1775 16.0436 31.6568C16.0436 31.1361 15.6215 30.714 15.1008 30.714C14.5801 30.714 14.158 31.1361 14.158 31.6568C14.158 32.1775 14.5801 32.5996 15.1008 32.5996Z" fill="url(#paint55_linear_634_2453)"/>
<path d="M21.0966 31.2042C22.0131 31.2042 22.756 30.4613 22.756 29.5449C22.756 28.6285 22.0131 27.8856 21.0966 27.8856C20.1802 27.8856 19.4373 28.6285 19.4373 29.5449C19.4373 30.4613 20.1802 31.2042 21.0966 31.2042Z" fill="url(#paint56_linear_634_2453)"/>
<path d="M30.8268 30.1106C31.6599 30.1106 32.3353 29.4352 32.3353 28.6021C32.3353 27.769 31.6599 27.0936 30.8268 27.0936C29.9937 27.0936 29.3183 27.769 29.3183 28.6021C29.3183 29.4352 29.9937 30.1106 30.8268 30.1106Z" fill="url(#paint57_linear_634_2453)"/>
<path d="M26.2258 30.0352C27.2255 30.0352 28.0359 29.2247 28.0359 28.225C28.0359 27.2253 27.2255 26.4148 26.2258 26.4148C25.226 26.4148 24.4155 27.2253 24.4155 28.225C24.4155 29.2247 25.226 30.0352 26.2258 30.0352Z" fill="url(#paint58_linear_634_2453)"/>
<path d="M34.56 30.4877C34.9766 30.4877 35.3143 30.15 35.3143 29.7334C35.3143 29.3169 34.9766 28.9792 34.56 28.9792C34.1435 28.9792 33.8058 29.3169 33.8058 29.7334C33.8058 30.15 34.1435 30.4877 34.56 30.4877Z" fill="url(#paint59_linear_634_2453)"/>
<path d="M19.4759 24.4915C19.9966 24.4915 20.4187 24.0694 20.4187 23.5487C20.4187 23.028 19.9966 22.6059 19.4759 22.6059C18.9552 22.6059 18.5331 23.028 18.5331 23.5487C18.5331 24.0694 18.9552 24.4915 19.4759 24.4915Z" fill="url(#paint60_linear_634_2453)"/>
<path d="M25.8492 25.2457C26.7657 25.2457 27.5086 24.5028 27.5086 23.5864C27.5086 22.67 26.7657 21.9271 25.8492 21.9271C24.9328 21.9271 24.1899 22.67 24.1899 23.5864C24.1899 24.5028 24.9328 25.2457 25.8492 25.2457Z" fill="url(#paint61_linear_634_2453)"/>
<path d="M35.3151 27.5462C36.1482 27.5462 36.8236 26.8708 36.8236 26.0377C36.8236 25.2046 36.1482 24.5292 35.3151 24.5292C34.482 24.5292 33.8066 25.2046 33.8066 26.0377C33.8066 26.8708 34.482 27.5462 35.3151 27.5462Z" fill="url(#paint62_linear_634_2453)"/>
<path d="M31.1293 25.9246C32.129 25.9246 32.9395 25.1141 32.9395 24.1144C32.9395 23.1147 32.129 22.3042 31.1293 22.3042C30.1296 22.3042 29.3191 23.1147 29.3191 24.1144C29.3191 25.1141 30.1296 25.9246 31.1293 25.9246Z" fill="url(#paint63_linear_634_2453)"/>
<path d="M38.4453 29.1678C38.8619 29.1678 39.1996 28.8301 39.1996 28.4136C39.1996 27.997 38.8619 27.6593 38.4453 27.6593C38.0288 27.6593 37.6911 27.997 37.6911 28.4136C37.6911 28.8301 38.0288 29.1678 38.4453 29.1678Z" fill="url(#paint64_linear_634_2453)"/>
<path d="M26.3775 18.3445C26.8982 18.3445 27.3203 17.9223 27.3203 17.4017C27.3203 16.881 26.8982 16.4589 26.3775 16.4589C25.8568 16.4589 25.4347 16.881 25.4347 17.4017C25.4347 17.9223 25.8568 18.3445 26.3775 18.3445Z" fill="url(#paint65_linear_634_2453)"/>
<path d="M32.3356 21.286C33.252 21.286 33.995 20.5431 33.995 19.6266C33.995 18.7102 33.252 17.9673 32.3356 17.9673C31.4192 17.9673 30.6763 18.7102 30.6763 19.6266C30.6763 20.5431 31.4192 21.286 32.3356 21.286Z" fill="url(#paint66_linear_634_2453)"/>
<path d="M40.4066 26.6788C41.2397 26.6788 41.9151 26.0035 41.9151 25.1703C41.9151 24.3372 41.2397 23.6619 40.4066 23.6619C39.5735 23.6619 38.8982 24.3372 38.8982 25.1703C38.8982 26.0035 39.5735 26.6788 40.4066 26.6788Z" fill="url(#paint67_linear_634_2453)"/>
<path d="M37.1259 23.775C38.1257 23.775 38.9361 22.9645 38.9361 21.9648C38.9361 20.9651 38.1257 20.1546 37.1259 20.1546C36.1262 20.1546 35.3157 20.9651 35.3157 21.9648C35.3157 22.9645 36.1262 23.775 37.1259 23.775Z" fill="url(#paint68_linear_634_2453)"/>
<path d="M42.5185 29.2432C42.9351 29.2432 43.2728 28.9056 43.2728 28.489C43.2728 28.0725 42.9351 27.7348 42.5185 27.7348C42.102 27.7348 41.7643 28.0725 41.7643 28.489C41.7643 28.9056 42.102 29.2432 42.5185 29.2432Z" fill="url(#paint69_linear_634_2453)"/>
<path d="M34.9382 14.9504C35.4589 14.9504 35.881 14.5283 35.881 14.0076C35.881 13.4869 35.4589 13.0648 34.9382 13.0648C34.4175 13.0648 33.9954 13.4869 33.9954 14.0076C33.9954 14.5283 34.4175 14.9504 34.9382 14.9504Z" fill="url(#paint70_linear_634_2453)"/>
<path d="M39.8035 19.8153C40.7199 19.8153 41.4628 19.0724 41.4628 18.1559C41.4628 17.2395 40.7199 16.4966 39.8035 16.4966C38.887 16.4966 38.1441 17.2395 38.1441 18.1559C38.1441 19.0724 38.887 19.8153 39.8035 19.8153Z" fill="url(#paint71_linear_634_2453)"/>
<path d="M45.4595 27.6216C46.2926 27.6216 46.968 26.9463 46.968 26.1131C46.968 25.28 46.2926 24.6047 45.4595 24.6047C44.6263 24.6047 43.951 25.28 43.951 26.1131C43.951 26.9463 44.6263 27.6216 45.4595 27.6216Z" fill="url(#paint72_linear_634_2453)"/>
<path d="M43.4991 23.775C44.4988 23.775 45.3092 22.9646 45.3092 21.9649C45.3092 20.9651 44.4988 20.1547 43.4991 20.1547C42.4993 20.1547 41.6888 20.9651 41.6888 21.9649C41.6888 22.9646 42.4993 23.775 43.4991 23.775Z" fill="url(#paint73_linear_634_2453)"/>
<path d="M46.3653 30.714C46.7818 30.714 47.1195 30.3763 47.1195 29.9598C47.1195 29.5432 46.7818 29.2055 46.3653 29.2055C45.9487 29.2055 45.611 29.5432 45.611 29.9598C45.611 30.3763 45.9487 30.714 46.3653 30.714Z" fill="url(#paint74_linear_634_2453)"/>
<path d="M44.1775 14.6864C44.6982 14.6864 45.1203 14.2643 45.1203 13.7436C45.1203 13.2229 44.6982 12.8008 44.1775 12.8008C43.6568 12.8008 43.2347 13.2229 43.2347 13.7436C43.2347 14.2643 43.6568 14.6864 44.1775 14.6864Z" fill="url(#paint75_linear_634_2453)"/>
<path d="M47.3071 20.9466C48.2236 20.9466 48.9665 20.2037 48.9665 19.2872C48.9665 18.3708 48.2236 17.6279 47.3071 17.6279C46.3907 17.6279 45.6478 18.3708 45.6478 19.2872C45.6478 20.2037 46.3907 20.9466 47.3071 20.9466Z" fill="url(#paint76_linear_634_2453)"/>
<path d="M49.9092 30.2238C50.7423 30.2238 51.4177 29.5484 51.4177 28.7153C51.4177 27.8822 50.7423 27.2068 49.9092 27.2068C49.0761 27.2068 48.4007 27.8822 48.4007 28.7153C48.4007 29.5484 49.0761 30.2238 49.9092 30.2238Z" fill="url(#paint77_linear_634_2453)"/>
<path d="M49.4946 25.9623C50.4943 25.9623 51.3047 25.1518 51.3047 24.1521C51.3047 23.1524 50.4943 22.3419 49.4946 22.3419C48.4948 22.3419 47.6844 23.1524 47.6844 24.1521C47.6844 25.1518 48.4948 25.9623 49.4946 25.9623Z" fill="url(#paint78_linear_634_2453)"/>
<path d="M49.4192 33.3915C49.8357 33.3915 50.1734 33.0539 50.1734 32.6373C50.1734 32.2207 49.8357 31.8831 49.4192 31.8831C49.0026 31.8831 48.6649 32.2207 48.6649 32.6373C48.6649 33.0539 49.0026 33.3915 49.4192 33.3915Z" fill="url(#paint79_linear_634_2453)"/>
<path d="M52.9269 17.6279C53.4476 17.6279 53.8697 17.2058 53.8697 16.6851C53.8697 16.1644 53.4476 15.7423 52.9269 15.7423C52.4062 15.7423 51.9841 16.1644 51.9841 16.6851C51.9841 17.2058 52.4062 17.6279 52.9269 17.6279Z" fill="url(#paint80_linear_634_2453)"/>
<path d="M53.9822 24.6046C54.8986 24.6046 55.6415 23.8617 55.6415 22.9453C55.6415 22.0289 54.8986 21.286 53.9822 21.286C53.0658 21.286 52.3229 22.0289 52.3229 22.9453C52.3229 23.8617 53.0658 24.6046 53.9822 24.6046Z" fill="url(#paint81_linear_634_2453)"/>
<path d="M53.2283 34.2212C54.0614 34.2212 54.7368 33.5459 54.7368 32.7127C54.7368 31.8796 54.0614 31.2043 53.2283 31.2043C52.3952 31.2043 51.7198 31.8796 51.7198 32.7127C51.7198 33.5459 52.3952 34.2212 53.2283 34.2212Z" fill="url(#paint82_linear_634_2453)"/>
<path d="M54.3595 30.0729C55.3593 30.0729 56.1698 29.2624 56.1698 28.2627C56.1698 27.263 55.3593 26.4525 54.3595 26.4525C53.3598 26.4525 52.5494 27.263 52.5494 28.2627C52.5494 29.2624 53.3598 30.0729 54.3595 30.0729Z" fill="url(#paint83_linear_634_2453)"/>
<path d="M51.418 36.9742C51.8346 36.9742 52.1722 36.6365 52.1722 36.2199C52.1722 35.8034 51.8346 35.4657 51.418 35.4657C51.0015 35.4657 50.6638 35.8034 50.6638 36.2199C50.6638 36.6365 51.0015 36.9742 51.418 36.9742Z" fill="url(#paint84_linear_634_2453)"/>
<path d="M60.1672 23.3602C60.6879 23.3602 61.11 22.9381 61.11 22.4174C61.11 21.8967 60.6879 21.4746 60.1672 21.4746C59.6465 21.4746 59.2244 21.8967 59.2244 22.4174C59.2244 22.9381 59.6465 23.3602 60.1672 23.3602Z" fill="url(#paint85_linear_634_2453)"/>
<path d="M58.9981 30.3369C59.9146 30.3369 60.6574 29.594 60.6574 28.6776C60.6574 27.7611 59.9146 27.0182 58.9981 27.0182C58.0817 27.0182 57.3388 27.7611 57.3388 28.6776C57.3388 29.594 58.0817 30.3369 58.9981 30.3369Z" fill="url(#paint86_linear_634_2453)"/>
<path d="M54.9628 39.0484C55.7959 39.0484 56.4713 38.373 56.4713 37.5399C56.4713 36.7068 55.7959 36.0314 54.9628 36.0314C54.1297 36.0314 53.4544 36.7068 53.4544 37.5399C53.4544 38.373 54.1297 39.0484 54.9628 39.0484Z" fill="url(#paint87_linear_634_2453)"/>
<path d="M57.5644 35.5788C58.5642 35.5788 59.3746 34.7684 59.3746 33.7687C59.3746 32.7689 58.5642 31.9585 57.5644 31.9585C56.5647 31.9585 55.7543 32.7689 55.7543 33.7687C55.7543 34.7684 56.5647 35.5788 57.5644 35.5788Z" fill="url(#paint88_linear_634_2453)"/>
<path d="M52.0587 41.0094C52.4753 41.0094 52.813 40.6717 52.813 40.2551C52.813 39.8386 52.4753 39.5009 52.0587 39.5009C51.6422 39.5009 51.3045 39.8386 51.3045 40.2551C51.3045 40.6717 51.6422 41.0094 52.0587 41.0094Z" fill="url(#paint89_linear_634_2453)"/>
<defs>
<linearGradient id="paint0_linear_634_2453" x1="-2.55576" y1="24.3691" x2="51.9246" y2="102.056" gradientUnits="userSpaceOnUse">
<stop stop-color="#35FF89"/>
<stop offset="1" stop-color="#3177F3"/>
</linearGradient>
<linearGradient id="paint1_linear_634_2453" x1="-2.55576" y1="24.3691" x2="51.9246" y2="102.056" gradientUnits="userSpaceOnUse">
<stop stop-color="#35FF89"/>
<stop offset="1" stop-color="#3177F3"/>
</linearGradient>
<linearGradient id="paint2_linear_634_2453" x1="-2.55576" y1="24.3691" x2="51.9246" y2="102.056" gradientUnits="userSpaceOnUse">
<stop stop-color="#35FF89"/>
<stop offset="1" stop-color="#3177F3"/>
</linearGradient>
<linearGradient id="paint3_linear_634_2453" x1="-2.55576" y1="24.3691" x2="51.9246" y2="102.056" gradientUnits="userSpaceOnUse">
<stop stop-color="#35FF89"/>
<stop offset="1" stop-color="#3177F3"/>
</linearGradient>
<linearGradient id="paint4_linear_634_2453" x1="-2.55576" y1="24.3691" x2="51.9246" y2="102.056" gradientUnits="userSpaceOnUse">
<stop stop-color="#35FF89"/>
<stop offset="1" stop-color="#3177F3"/>
</linearGradient>
<linearGradient id="paint5_linear_634_2453" x1="-2.55576" y1="24.3691" x2="51.9246" y2="102.056" gradientUnits="userSpaceOnUse">
<stop stop-color="#35FF89"/>
<stop offset="1" stop-color="#3177F3"/>
</linearGradient>
<linearGradient id="paint6_linear_634_2453" x1="-2.55576" y1="24.3691" x2="51.9246" y2="102.056" gradientUnits="userSpaceOnUse">
<stop stop-color="#35FF89"/>
<stop offset="1" stop-color="#3177F3"/>
</linearGradient>
<linearGradient id="paint7_linear_634_2453" x1="-2.55576" y1="24.3691" x2="51.9246" y2="102.056" gradientUnits="userSpaceOnUse">
<stop stop-color="#35FF89"/>
<stop offset="1" stop-color="#3177F3"/>
</linearGradient>
<linearGradient id="paint8_linear_634_2453" x1="-2.55576" y1="24.3691" x2="51.9246" y2="102.056" gradientUnits="userSpaceOnUse">
<stop stop-color="#35FF89"/>
<stop offset="1" stop-color="#3177F3"/>
</linearGradient>
<linearGradient id="paint9_linear_634_2453" x1="-2.55576" y1="24.3691" x2="51.9246" y2="102.056" gradientUnits="userSpaceOnUse">
<stop stop-color="#35FF89"/>
<stop offset="1" stop-color="#3177F3"/>
</linearGradient>
<linearGradient id="paint10_linear_634_2453" x1="-2.55576" y1="24.3691" x2="51.9246" y2="102.056" gradientUnits="userSpaceOnUse">
<stop stop-color="#35FF89"/>
<stop offset="1" stop-color="#3177F3"/>
</linearGradient>
<linearGradient id="paint11_linear_634_2453" x1="-2.55576" y1="24.3691" x2="51.9246" y2="102.056" gradientUnits="userSpaceOnUse">
<stop stop-color="#35FF89"/>
<stop offset="1" stop-color="#3177F3"/>
</linearGradient>
<linearGradient id="paint12_linear_634_2453" x1="-2.55576" y1="24.3691" x2="51.9246" y2="102.056" gradientUnits="userSpaceOnUse">
<stop stop-color="#35FF89"/>
<stop offset="1" stop-color="#3177F3"/>
</linearGradient>
<linearGradient id="paint13_linear_634_2453" x1="-2.55576" y1="24.3691" x2="51.9246" y2="102.056" gradientUnits="userSpaceOnUse">
<stop stop-color="#35FF89"/>
<stop offset="1" stop-color="#3177F3"/>
</linearGradient>
<linearGradient id="paint14_linear_634_2453" x1="-2.55576" y1="24.3691" x2="51.9246" y2="102.056" gradientUnits="userSpaceOnUse">
<stop stop-color="#35FF89"/>
<stop offset="1" stop-color="#3177F3"/>
</linearGradient>
<linearGradient id="paint15_linear_634_2453" x1="-2.55576" y1="24.3691" x2="51.9246" y2="102.056" gradientUnits="userSpaceOnUse">
<stop stop-color="#35FF89"/>
<stop offset="1" stop-color="#3177F3"/>
</linearGradient>
<linearGradient id="paint16_linear_634_2453" x1="-2.55576" y1="24.3691" x2="51.9246" y2="102.056" gradientUnits="userSpaceOnUse">
<stop stop-color="#35FF89"/>
<stop offset="1" stop-color="#3177F3"/>
</linearGradient>
<linearGradient id="paint17_linear_634_2453" x1="-2.55576" y1="24.3691" x2="51.9246" y2="102.056" gradientUnits="userSpaceOnUse">
<stop stop-color="#35FF89"/>
<stop offset="1" stop-color="#3177F3"/>
</linearGradient>
<linearGradient id="paint18_linear_634_2453" x1="-2.55576" y1="24.3691" x2="51.9246" y2="102.056" gradientUnits="userSpaceOnUse">
<stop stop-color="#35FF89"/>
<stop offset="1" stop-color="#3177F3"/>
</linearGradient>
<linearGradient id="paint19_linear_634_2453" x1="-2.55576" y1="24.3691" x2="51.9246" y2="102.056" gradientUnits="userSpaceOnUse">
<stop stop-color="#35FF89"/>
<stop offset="1" stop-color="#3177F3"/>
</linearGradient>
<linearGradient id="paint20_linear_634_2453" x1="-2.55576" y1="24.3691" x2="51.9246" y2="102.056" gradientUnits="userSpaceOnUse">
<stop stop-color="#35FF89"/>
<stop offset="1" stop-color="#3177F3"/>
</linearGradient>
<linearGradient id="paint21_linear_634_2453" x1="-2.55576" y1="24.3691" x2="51.9246" y2="102.056" gradientUnits="userSpaceOnUse">
<stop stop-color="#35FF89"/>
<stop offset="1" stop-color="#3177F3"/>
</linearGradient>
<linearGradient id="paint22_linear_634_2453" x1="-2.55576" y1="24.3691" x2="51.9246" y2="102.056" gradientUnits="userSpaceOnUse">
<stop stop-color="#35FF89"/>
<stop offset="1" stop-color="#3177F3"/>
</linearGradient>
<linearGradient id="paint23_linear_634_2453" x1="-2.55576" y1="24.3691" x2="51.9246" y2="102.056" gradientUnits="userSpaceOnUse">
<stop stop-color="#35FF89"/>
<stop offset="1" stop-color="#3177F3"/>
</linearGradient>
<linearGradient id="paint24_linear_634_2453" x1="-2.55576" y1="24.3691" x2="51.9246" y2="102.056" gradientUnits="userSpaceOnUse">
<stop stop-color="#35FF89"/>
<stop offset="1" stop-color="#3177F3"/>
</linearGradient>
<linearGradient id="paint25_linear_634_2453" x1="-2.55576" y1="24.3691" x2="51.9246" y2="102.056" gradientUnits="userSpaceOnUse">
<stop stop-color="#35FF89"/>
<stop offset="1" stop-color="#3177F3"/>
</linearGradient>
<linearGradient id="paint26_linear_634_2453" x1="-2.55576" y1="24.3691" x2="51.9246" y2="102.056" gradientUnits="userSpaceOnUse">
<stop stop-color="#35FF89"/>
<stop offset="1" stop-color="#3177F3"/>
</linearGradient>
<linearGradient id="paint27_linear_634_2453" x1="-2.55576" y1="24.3691" x2="51.9246" y2="102.056" gradientUnits="userSpaceOnUse">
<stop stop-color="#35FF89"/>
<stop offset="1" stop-color="#3177F3"/>
</linearGradient>
<linearGradient id="paint28_linear_634_2453" x1="-2.55576" y1="24.3691" x2="51.9246" y2="102.056" gradientUnits="userSpaceOnUse">
<stop stop-color="#35FF89"/>
<stop offset="1" stop-color="#3177F3"/>
</linearGradient>
<linearGradient id="paint29_linear_634_2453" x1="-2.55576" y1="24.3691" x2="51.9246" y2="102.056" gradientUnits="userSpaceOnUse">
<stop stop-color="#35FF89"/>
<stop offset="1" stop-color="#3177F3"/>
</linearGradient>
<linearGradient id="paint30_linear_634_2453" x1="-2.55576" y1="24.3691" x2="51.9246" y2="102.056" gradientUnits="userSpaceOnUse">
<stop stop-color="#35FF89"/>
<stop offset="1" stop-color="#3177F3"/>
</linearGradient>
<linearGradient id="paint31_linear_634_2453" x1="-2.55576" y1="24.3691" x2="51.9246" y2="102.056" gradientUnits="userSpaceOnUse">
<stop stop-color="#35FF89"/>
<stop offset="1" stop-color="#3177F3"/>
</linearGradient>
<linearGradient id="paint32_linear_634_2453" x1="-2.55576" y1="24.3691" x2="51.9246" y2="102.056" gradientUnits="userSpaceOnUse">
<stop stop-color="#35FF89"/>
<stop offset="1" stop-color="#3177F3"/>
</linearGradient>
<linearGradient id="paint33_linear_634_2453" x1="-2.55576" y1="24.3691" x2="51.9246" y2="102.056" gradientUnits="userSpaceOnUse">
<stop stop-color="#35FF89"/>
<stop offset="1" stop-color="#3177F3"/>
</linearGradient>
<linearGradient id="paint34_linear_634_2453" x1="-2.55576" y1="24.3691" x2="51.9246" y2="102.056" gradientUnits="userSpaceOnUse">
<stop stop-color="#35FF89"/>
<stop offset="1" stop-color="#3177F3"/>
</linearGradient>
<linearGradient id="paint35_linear_634_2453" x1="-2.55576" y1="24.3691" x2="51.9246" y2="102.056" gradientUnits="userSpaceOnUse">
<stop stop-color="#35FF89"/>
<stop offset="1" stop-color="#3177F3"/>
</linearGradient>
<linearGradient id="paint36_linear_634_2453" x1="-2.55576" y1="24.3691" x2="51.9246" y2="102.056" gradientUnits="userSpaceOnUse">
<stop stop-color="#35FF89"/>
<stop offset="1" stop-color="#3177F3"/>
</linearGradient>
<linearGradient id="paint37_linear_634_2453" x1="-2.55576" y1="24.3691" x2="51.9246" y2="102.056" gradientUnits="userSpaceOnUse">
<stop stop-color="#35FF89"/>
<stop offset="1" stop-color="#3177F3"/>
</linearGradient>
<linearGradient id="paint38_linear_634_2453" x1="-2.55576" y1="24.3691" x2="51.9246" y2="102.056" gradientUnits="userSpaceOnUse">
<stop stop-color="#35FF89"/>
<stop offset="1" stop-color="#3177F3"/>
</linearGradient>
<linearGradient id="paint39_linear_634_2453" x1="-2.55576" y1="24.3691" x2="51.9246" y2="102.056" gradientUnits="userSpaceOnUse">
<stop stop-color="#35FF89"/>
<stop offset="1" stop-color="#3177F3"/>
</linearGradient>
<linearGradient id="paint40_linear_634_2453" x1="-2.55576" y1="24.3691" x2="51.9246" y2="102.056" gradientUnits="userSpaceOnUse">
<stop stop-color="#35FF89"/>
<stop offset="1" stop-color="#3177F3"/>
</linearGradient>
<linearGradient id="paint41_linear_634_2453" x1="-2.55576" y1="24.3691" x2="51.9246" y2="102.056" gradientUnits="userSpaceOnUse">
<stop stop-color="#35FF89"/>
<stop offset="1" stop-color="#3177F3"/>
</linearGradient>
<linearGradient id="paint42_linear_634_2453" x1="-2.55576" y1="24.3691" x2="51.9246" y2="102.056" gradientUnits="userSpaceOnUse">
<stop stop-color="#35FF89"/>
<stop offset="1" stop-color="#3177F3"/>
</linearGradient>
<linearGradient id="paint43_linear_634_2453" x1="-2.55576" y1="24.3691" x2="51.9246" y2="102.056" gradientUnits="userSpaceOnUse">
<stop stop-color="#35FF89"/>
<stop offset="1" stop-color="#3177F3"/>
</linearGradient>
<linearGradient id="paint44_linear_634_2453" x1="-2.55576" y1="24.3691" x2="51.9246" y2="102.056" gradientUnits="userSpaceOnUse">
<stop stop-color="#35FF89"/>
<stop offset="1" stop-color="#3177F3"/>
</linearGradient>
<linearGradient id="paint45_linear_634_2453" x1="-2.55576" y1="24.3691" x2="51.9246" y2="102.056" gradientUnits="userSpaceOnUse">
<stop stop-color="#35FF89"/>
<stop offset="1" stop-color="#3177F3"/>
</linearGradient>
<linearGradient id="paint46_linear_634_2453" x1="-2.55576" y1="24.3691" x2="51.9246" y2="102.056" gradientUnits="userSpaceOnUse">
<stop stop-color="#35FF89"/>
<stop offset="1" stop-color="#3177F3"/>
</linearGradient>
<linearGradient id="paint47_linear_634_2453" x1="-2.55576" y1="24.3691" x2="51.9246" y2="102.056" gradientUnits="userSpaceOnUse">
<stop stop-color="#35FF89"/>
<stop offset="1" stop-color="#3177F3"/>
</linearGradient>
<linearGradient id="paint48_linear_634_2453" x1="-2.55576" y1="24.3691" x2="51.9246" y2="102.056" gradientUnits="userSpaceOnUse">
<stop stop-color="#35FF89"/>
<stop offset="1" stop-color="#3177F3"/>
</linearGradient>
<linearGradient id="paint49_linear_634_2453" x1="-2.55576" y1="24.3691" x2="51.9246" y2="102.056" gradientUnits="userSpaceOnUse">
<stop stop-color="#35FF89"/>
<stop offset="1" stop-color="#3177F3"/>
</linearGradient>
<linearGradient id="paint50_linear_634_2453" x1="-2.55576" y1="24.3691" x2="51.9246" y2="102.056" gradientUnits="userSpaceOnUse">
<stop stop-color="#35FF89"/>
<stop offset="1" stop-color="#3177F3"/>
</linearGradient>
<linearGradient id="paint51_linear_634_2453" x1="-2.55576" y1="24.3691" x2="51.9246" y2="102.056" gradientUnits="userSpaceOnUse">
<stop stop-color="#35FF89"/>
<stop offset="1" stop-color="#3177F3"/>
</linearGradient>
<linearGradient id="paint52_linear_634_2453" x1="-2.55576" y1="24.3691" x2="51.9246" y2="102.056" gradientUnits="userSpaceOnUse">
<stop stop-color="#35FF89"/>
<stop offset="1" stop-color="#3177F3"/>
</linearGradient>
<linearGradient id="paint53_linear_634_2453" x1="-2.55576" y1="24.3691" x2="51.9246" y2="102.056" gradientUnits="userSpaceOnUse">
<stop stop-color="#35FF89"/>
<stop offset="1" stop-color="#3177F3"/>
</linearGradient>
<linearGradient id="paint54_linear_634_2453" x1="-2.55576" y1="24.3691" x2="51.9246" y2="102.056" gradientUnits="userSpaceOnUse">
<stop stop-color="#35FF89"/>
<stop offset="1" stop-color="#3177F3"/>
</linearGradient>
<linearGradient id="paint55_linear_634_2453" x1="-2.55576" y1="24.3691" x2="51.9246" y2="102.056" gradientUnits="userSpaceOnUse">
<stop stop-color="#35FF89"/>
<stop offset="1" stop-color="#3177F3"/>
</linearGradient>
<linearGradient id="paint56_linear_634_2453" x1="-2.55576" y1="24.3691" x2="51.9246" y2="102.056" gradientUnits="userSpaceOnUse">
<stop stop-color="#35FF89"/>
<stop offset="1" stop-color="#3177F3"/>
</linearGradient>
<linearGradient id="paint57_linear_634_2453" x1="-2.55576" y1="24.3691" x2="51.9246" y2="102.056" gradientUnits="userSpaceOnUse">
<stop stop-color="#35FF89"/>
<stop offset="1" stop-color="#3177F3"/>
</linearGradient>
<linearGradient id="paint58_linear_634_2453" x1="-2.55576" y1="24.3691" x2="51.9246" y2="102.056" gradientUnits="userSpaceOnUse">
<stop stop-color="#35FF89"/>
<stop offset="1" stop-color="#3177F3"/>
</linearGradient>
<linearGradient id="paint59_linear_634_2453" x1="-2.55576" y1="24.3691" x2="51.9246" y2="102.056" gradientUnits="userSpaceOnUse">
<stop stop-color="#35FF89"/>
<stop offset="1" stop-color="#3177F3"/>
</linearGradient>
<linearGradient id="paint60_linear_634_2453" x1="-2.55576" y1="24.3691" x2="51.9246" y2="102.056" gradientUnits="userSpaceOnUse">
<stop stop-color="#35FF89"/>
<stop offset="1" stop-color="#3177F3"/>
</linearGradient>
<linearGradient id="paint61_linear_634_2453" x1="-2.55576" y1="24.3691" x2="51.9246" y2="102.056" gradientUnits="userSpaceOnUse">
<stop stop-color="#35FF89"/>
<stop offset="1" stop-color="#3177F3"/>
</linearGradient>
<linearGradient id="paint62_linear_634_2453" x1="-2.55576" y1="24.3691" x2="51.9246" y2="102.056" gradientUnits="userSpaceOnUse">
<stop stop-color="#35FF89"/>
<stop offset="1" stop-color="#3177F3"/>
</linearGradient>
<linearGradient id="paint63_linear_634_2453" x1="-2.55576" y1="24.3691" x2="51.9246" y2="102.056" gradientUnits="userSpaceOnUse">
<stop stop-color="#35FF89"/>
<stop offset="1" stop-color="#3177F3"/>
</linearGradient>
<linearGradient id="paint64_linear_634_2453" x1="-2.55576" y1="24.3691" x2="51.9246" y2="102.056" gradientUnits="userSpaceOnUse">
<stop stop-color="#35FF89"/>
<stop offset="1" stop-color="#3177F3"/>
</linearGradient>
<linearGradient id="paint65_linear_634_2453" x1="-2.55576" y1="24.3691" x2="51.9246" y2="102.056" gradientUnits="userSpaceOnUse">
<stop stop-color="#35FF89"/>
<stop offset="1" stop-color="#3177F3"/>
</linearGradient>
<linearGradient id="paint66_linear_634_2453" x1="-2.55576" y1="24.3691" x2="51.9246" y2="102.056" gradientUnits="userSpaceOnUse">
<stop stop-color="#35FF89"/>
<stop offset="1" stop-color="#3177F3"/>
</linearGradient>
<linearGradient id="paint67_linear_634_2453" x1="-2.55576" y1="24.3691" x2="51.9246" y2="102.056" gradientUnits="userSpaceOnUse">
<stop stop-color="#35FF89"/>
<stop offset="1" stop-color="#3177F3"/>
</linearGradient>
<linearGradient id="paint68_linear_634_2453" x1="-2.55576" y1="24.3691" x2="51.9246" y2="102.056" gradientUnits="userSpaceOnUse">
<stop stop-color="#35FF89"/>
<stop offset="1" stop-color="#3177F3"/>
</linearGradient>
<linearGradient id="paint69_linear_634_2453" x1="-2.55576" y1="24.3691" x2="51.9246" y2="102.056" gradientUnits="userSpaceOnUse">
<stop stop-color="#35FF89"/>
<stop offset="1" stop-color="#3177F3"/>
</linearGradient>
<linearGradient id="paint70_linear_634_2453" x1="-2.55576" y1="24.3691" x2="51.9246" y2="102.056" gradientUnits="userSpaceOnUse">
<stop stop-color="#35FF89"/>
<stop offset="1" stop-color="#3177F3"/>
</linearGradient>
<linearGradient id="paint71_linear_634_2453" x1="-2.55576" y1="24.3691" x2="51.9246" y2="102.056" gradientUnits="userSpaceOnUse">
<stop stop-color="#35FF89"/>
<stop offset="1" stop-color="#3177F3"/>
</linearGradient>
<linearGradient id="paint72_linear_634_2453" x1="-2.55576" y1="24.3691" x2="51.9246" y2="102.056" gradientUnits="userSpaceOnUse">
<stop stop-color="#35FF89"/>
<stop offset="1" stop-color="#3177F3"/>
</linearGradient>
<linearGradient id="paint73_linear_634_2453" x1="-2.55576" y1="24.3691" x2="51.9246" y2="102.056" gradientUnits="userSpaceOnUse">
<stop stop-color="#35FF89"/>
<stop offset="1" stop-color="#3177F3"/>
</linearGradient>
<linearGradient id="paint74_linear_634_2453" x1="-2.55576" y1="24.3691" x2="51.9246" y2="102.056" gradientUnits="userSpaceOnUse">
<stop stop-color="#35FF89"/>
<stop offset="1" stop-color="#3177F3"/>
</linearGradient>
<linearGradient id="paint75_linear_634_2453" x1="-2.55576" y1="24.3691" x2="51.9246" y2="102.056" gradientUnits="userSpaceOnUse">
<stop stop-color="#35FF89"/>
<stop offset="1" stop-color="#3177F3"/>
</linearGradient>
<linearGradient id="paint76_linear_634_2453" x1="-2.55576" y1="24.3691" x2="51.9246" y2="102.056" gradientUnits="userSpaceOnUse">
<stop stop-color="#35FF89"/>
<stop offset="1" stop-color="#3177F3"/>
</linearGradient>
<linearGradient id="paint77_linear_634_2453" x1="-2.55576" y1="24.3691" x2="51.9246" y2="102.056" gradientUnits="userSpaceOnUse">
<stop stop-color="#35FF89"/>
<stop offset="1" stop-color="#3177F3"/>
</linearGradient>
<linearGradient id="paint78_linear_634_2453" x1="-2.55576" y1="24.3691" x2="51.9246" y2="102.056" gradientUnits="userSpaceOnUse">
<stop stop-color="#35FF89"/>
<stop offset="1" stop-color="#3177F3"/>
</linearGradient>
<linearGradient id="paint79_linear_634_2453" x1="-2.55576" y1="24.3691" x2="51.9246" y2="102.056" gradientUnits="userSpaceOnUse">
<stop stop-color="#35FF89"/>
<stop offset="1" stop-color="#3177F3"/>
</linearGradient>
<linearGradient id="paint80_linear_634_2453" x1="-2.55576" y1="24.3691" x2="51.9246" y2="102.056" gradientUnits="userSpaceOnUse">
<stop stop-color="#35FF89"/>
<stop offset="1" stop-color="#3177F3"/>
</linearGradient>
<linearGradient id="paint81_linear_634_2453" x1="-2.55576" y1="24.3691" x2="51.9246" y2="102.056" gradientUnits="userSpaceOnUse">
<stop stop-color="#35FF89"/>
<stop offset="1" stop-color="#3177F3"/>
</linearGradient>
<linearGradient id="paint82_linear_634_2453" x1="-2.55576" y1="24.3691" x2="51.9246" y2="102.056" gradientUnits="userSpaceOnUse">
<stop stop-color="#35FF89"/>
<stop offset="1" stop-color="#3177F3"/>
</linearGradient>
<linearGradient id="paint83_linear_634_2453" x1="-2.55576" y1="24.3691" x2="51.9246" y2="102.056" gradientUnits="userSpaceOnUse">
<stop stop-color="#35FF89"/>
<stop offset="1" stop-color="#3177F3"/>
</linearGradient>
<linearGradient id="paint84_linear_634_2453" x1="-2.55576" y1="24.3691" x2="51.9246" y2="102.056" gradientUnits="userSpaceOnUse">
<stop stop-color="#35FF89"/>
<stop offset="1" stop-color="#3177F3"/>
</linearGradient>
<linearGradient id="paint85_linear_634_2453" x1="-2.55576" y1="24.3691" x2="51.9246" y2="102.056" gradientUnits="userSpaceOnUse">
<stop stop-color="#35FF89"/>
<stop offset="1" stop-color="#3177F3"/>
</linearGradient>
<linearGradient id="paint86_linear_634_2453" x1="-2.55576" y1="24.3691" x2="51.9246" y2="102.056" gradientUnits="userSpaceOnUse">
<stop stop-color="#35FF89"/>
<stop offset="1" stop-color="#3177F3"/>
</linearGradient>
<linearGradient id="paint87_linear_634_2453" x1="-2.55576" y1="24.3691" x2="51.9246" y2="102.056" gradientUnits="userSpaceOnUse">
<stop stop-color="#35FF89"/>
<stop offset="1" stop-color="#3177F3"/>
</linearGradient>
<linearGradient id="paint88_linear_634_2453" x1="-2.55576" y1="24.3691" x2="51.9246" y2="102.056" gradientUnits="userSpaceOnUse">
<stop stop-color="#35FF89"/>
<stop offset="1" stop-color="#3177F3"/>
</linearGradient>
<linearGradient id="paint89_linear_634_2453" x1="-2.55576" y1="24.3691" x2="51.9246" y2="102.056" gradientUnits="userSpaceOnUse">
<stop stop-color="#35FF89"/>
<stop offset="1" stop-color="#3177F3"/>
</linearGradient>
</defs>
</svg>
