<svg width="88" height="88" viewBox="0 0 88 88" fill="none" xmlns="http://www.w3.org/2000/svg">
<path fill-rule="evenodd" clip-rule="evenodd" d="M44.0002 7.56836C46.4084 7.56836 48.3613 9.52051 48.3615 11.9287C48.3615 14.3371 46.4086 16.29 44.0002 16.29C41.592 16.2898 39.6398 14.337 39.6398 11.9287C39.6401 9.52066 41.5921 7.5686 44.0002 7.56836ZM43.673 18.2813L44.0002 18.29C47.4032 18.29 50.1822 15.6175 50.3527 12.2568L50.3615 11.9287C50.3613 8.52584 47.6889 5.74669 44.3283 5.57617L44.0002 5.56836C40.4876 5.5686 37.6401 8.41609 37.6398 11.9287L37.6476 12.2568C37.8127 15.509 40.4208 18.1163 43.673 18.2813ZM55.9848 12.758C55.4934 12.6343 54.9788 12.9004 54.8022 13.3869C54.6257 13.8735 54.8497 14.408 55.3061 14.6282L55.4008 14.6672L56.0893 14.926C63.1697 17.6743 69.1098 22.7575 72.9194 29.345L73.2807 29.9866C76.9372 36.6435 78.2198 44.3559 76.9028 51.8508C75.5856 59.3457 71.7505 66.1586 66.0434 71.1701L65.4858 71.6496C59.4706 76.7017 51.8674 79.4721 44.0121 79.4748C36.4024 79.4775 29.0273 76.8825 23.102 72.1311L22.5326 71.6643C16.7021 66.7741 12.7216 60.0447 11.2377 52.5959L11.102 51.8733C9.7371 44.1376 11.1422 36.1682 15.0697 29.3655L15.4447 28.7326C19.259 22.4496 25.0398 17.5993 31.8901 14.9348L32.5785 14.676C33.0975 14.4872 33.365 13.9128 33.1762 13.3938C32.9991 12.9073 32.484 12.6414 31.9926 12.7658L31.8949 12.7961C24.3155 15.5537 17.9122 20.8133 13.7348 27.6946L13.3383 28.3655C9.17546 35.5756 7.68564 44.022 9.13225 52.2209L9.27678 52.9875C10.8497 60.8819 15.0682 68.0137 21.2475 73.1965L21.851 73.6907C28.1311 78.7267 35.9477 81.4776 44.0131 81.4748C52.3385 81.4719 60.3967 78.5353 66.7719 73.1809L67.3637 72.6731C73.4124 67.3615 77.4766 60.1401 78.8725 52.1965C80.2684 44.253 78.909 36.0792 75.0336 29.0237L74.6508 28.344C70.6132 21.362 64.3173 15.9746 56.8129 13.0617L56.0834 12.7873L55.9848 12.758ZM48.386 21.6749C47.8425 21.5771 47.3226 21.939 47.2249 22.4825C47.1272 23.0259 47.4881 23.5457 48.0315 23.6436C53.6218 24.6486 58.6355 27.7055 62.0891 32.2149L62.4084 32.6417C65.6441 37.0775 67.173 42.5393 66.7014 48.0215C66.2298 53.5039 63.7908 58.6243 59.845 62.4424L59.4583 62.8077C55.2853 66.6613 49.8229 68.817 44.1428 68.8526C38.6404 68.887 33.3173 66.9297 29.1526 63.3516L28.7542 63.0001C24.5333 59.1991 21.8841 53.9583 21.3264 48.3057C20.7688 42.653 22.3427 36.9959 25.7395 32.4434L26.0627 32.0206C29.3388 27.8372 33.9747 24.9298 39.1672 23.8028L39.6887 23.6963C40.231 23.5918 40.5862 23.0667 40.4817 22.5245C40.3836 22.0162 39.9162 21.6726 39.4114 21.7178L39.3098 21.7325C33.4324 22.8653 28.17 26.0848 24.4876 30.7872L24.136 31.2471C20.4411 36.1992 18.7296 42.3532 19.3362 48.502L19.3997 49.0772C20.1246 55.0056 22.9674 60.481 27.4153 64.4864L27.8499 64.8682C32.3801 68.7603 38.1701 70.89 44.1555 70.8526C50.3342 70.8139 56.2754 68.4683 60.8147 64.2764L61.2356 63.879C65.5277 59.7256 68.1807 54.156 68.6936 48.1924C69.2065 42.2289 67.5435 36.2882 64.0237 31.4629L63.677 30.9991C60.0377 26.2472 54.8063 22.9779 48.9543 21.7842L48.386 21.6749ZM55.2778 46.0686C55.2778 39.8403 50.2288 34.7913 44.0005 34.7913C37.7722 34.7913 32.7231 39.8403 32.7231 46.0686C32.7231 52.2969 37.7722 57.346 44.0005 57.346C50.2288 57.346 55.2778 52.297 55.2778 46.0686ZM44.0005 59.346L43.6577 59.3421C36.5971 59.1631 30.9059 53.472 30.727 46.4114L30.7231 46.0686C30.7231 38.7358 36.6676 32.7913 44.0005 32.7913L44.3432 32.7952C51.5177 32.977 57.2778 38.8503 57.2778 46.0686L57.2739 46.4114C57.0921 53.5859 51.2188 59.346 44.0005 59.346Z" fill="#0D1A35"/>
</svg>
