<svg width="220" height="221" fill="none" xmlns="http://www.w3.org/2000/svg"><path d="M55.617 92.344c7.503 0 13.585-6.082 13.585-13.585 0-7.504-6.082-13.586-13.585-13.586-7.503 0-13.586 6.082-13.586 13.586 0 7.503 6.083 13.585 13.586 13.585z" fill="url(#paint0_linear_653_31340)"/><path d="M80.611 100.226a7.052 7.052 0 100-14.104 7.052 7.052 0 000 14.104z" fill="url(#paint1_linear_653_31340)"/><path d="M30.519 71.292a7.052 7.052 0 100-14.104 7.052 7.052 0 000 14.104z" fill="url(#paint2_linear_653_31340)"/><path d="M70.032 60.713a7.052 7.052 0 100-14.104 7.052 7.052 0 000 14.104z" fill="url(#paint3_linear_653_31340)"/><path d="M41.098 110.908a7.052 7.052 0 100-14.104 7.052 7.052 0 100 14.104z" fill="url(#paint4_linear_653_31340)"/><path d="M78.64 178.318c7.503 0 13.585-6.082 13.585-13.586 0-7.503-6.082-13.585-13.585-13.585-7.503 0-13.586 6.082-13.586 13.585 0 7.504 6.083 13.586 13.586 13.586z" fill="url(#paint5_linear_653_31340)"/><path d="M93.055 146.687a7.052 7.052 0 10.001-14.105 7.052 7.052 0 000 14.105z" fill="url(#paint6_linear_653_31340)"/><path d="M64.12 196.882a7.052 7.052 0 100-14.104 7.052 7.052 0 100 14.104z" fill="url(#paint7_linear_653_31340)"/><path d="M53.542 157.266a7.053 7.053 0 10-.001-14.105 7.053 7.053 0 00.001 14.105z" fill="url(#paint8_linear_653_31340)"/><path d="M103.634 186.2a7.052 7.052 0 100-14.104 7.052 7.052 0 100 14.104z" fill="url(#paint9_linear_653_31340)"/><path d="M164.614 155.295c7.503 0 13.586-6.083 13.586-13.586s-6.083-13.585-13.586-13.585-13.586 6.082-13.586 13.585c0 7.503 6.083 13.586 13.586 13.586z" fill="url(#paint10_linear_653_31340)"/><path d="M139.516 134.242a7.052 7.052 0 100-14.104 7.052 7.052 0 100 14.104z" fill="url(#paint11_linear_653_31340)"/><path d="M189.608 163.177a7.052 7.052 0 100-14.104 7.052 7.052 0 100 14.104z" fill="url(#paint12_linear_653_31340)"/><path d="M150.094 173.859a7.053 7.053 0 100-14.106 7.053 7.053 0 000 14.106z" fill="url(#paint13_linear_653_31340)"/><path d="M179.029 123.664a7.052 7.052 0 100-14.104 7.052 7.052 0 000 14.104z" fill="url(#paint14_linear_653_31340)"/><path d="M141.592 69.321c7.503 0 13.585-6.082 13.585-13.586 0-7.503-6.082-13.585-13.585-13.585-7.504 0-13.586 6.082-13.586 13.585 0 7.504 6.082 13.586 13.586 13.586z" fill="url(#paint15_linear_653_31340)"/><path d="M127.072 87.885a7.052 7.052 0 100-14.104 7.052 7.052 0 000 14.104z" fill="url(#paint16_linear_653_31340)"/><path d="M156.007 37.69a7.052 7.052 0 100-14.103 7.052 7.052 0 000 14.103z" fill="url(#paint17_linear_653_31340)"/><path d="M166.585 77.203a7.053 7.053 0 100-14.106 7.053 7.053 0 000 14.106z" fill="url(#paint18_linear_653_31340)"/><path d="M116.494 48.269a7.053 7.053 0 10-.001-14.106 7.053 7.053 0 00.001 14.106z" fill="url(#paint19_linear_653_31340)"/><defs><linearGradient id="paint0_linear_653_31340" x1="-24.905" y1="60.4" x2="149.065" y2="305.949" gradientUnits="userSpaceOnUse"><stop stop-color="#35FF89"/><stop offset="1" stop-color="#3177F3"/></linearGradient><linearGradient id="paint1_linear_653_31340" x1="-24.905" y1="60.4" x2="149.065" y2="305.949" gradientUnits="userSpaceOnUse"><stop stop-color="#35FF89"/><stop offset="1" stop-color="#3177F3"/></linearGradient><linearGradient id="paint2_linear_653_31340" x1="-24.905" y1="60.4" x2="149.065" y2="305.949" gradientUnits="userSpaceOnUse"><stop stop-color="#35FF89"/><stop offset="1" stop-color="#3177F3"/></linearGradient><linearGradient id="paint3_linear_653_31340" x1="-24.905" y1="60.4" x2="149.065" y2="305.949" gradientUnits="userSpaceOnUse"><stop stop-color="#35FF89"/><stop offset="1" stop-color="#3177F3"/></linearGradient><linearGradient id="paint4_linear_653_31340" x1="-24.905" y1="60.4" x2="149.065" y2="305.949" gradientUnits="userSpaceOnUse"><stop stop-color="#35FF89"/><stop offset="1" stop-color="#3177F3"/></linearGradient><linearGradient id="paint5_linear_653_31340" x1="-24.905" y1="60.4" x2="149.065" y2="305.949" gradientUnits="userSpaceOnUse"><stop stop-color="#35FF89"/><stop offset="1" stop-color="#3177F3"/></linearGradient><linearGradient id="paint6_linear_653_31340" x1="-24.905" y1="60.4" x2="149.065" y2="305.949" gradientUnits="userSpaceOnUse"><stop stop-color="#35FF89"/><stop offset="1" stop-color="#3177F3"/></linearGradient><linearGradient id="paint7_linear_653_31340" x1="-24.905" y1="60.4" x2="149.065" y2="305.949" gradientUnits="userSpaceOnUse"><stop stop-color="#35FF89"/><stop offset="1" stop-color="#3177F3"/></linearGradient><linearGradient id="paint8_linear_653_31340" x1="-24.905" y1="60.4" x2="149.065" y2="305.949" gradientUnits="userSpaceOnUse"><stop stop-color="#35FF89"/><stop offset="1" stop-color="#3177F3"/></linearGradient><linearGradient id="paint9_linear_653_31340" x1="-24.905" y1="60.4" x2="149.065" y2="305.949" gradientUnits="userSpaceOnUse"><stop stop-color="#35FF89"/><stop offset="1" stop-color="#3177F3"/></linearGradient><linearGradient id="paint10_linear_653_31340" x1="-24.905" y1="60.4" x2="149.065" y2="305.949" gradientUnits="userSpaceOnUse"><stop stop-color="#35FF89"/><stop offset="1" stop-color="#3177F3"/></linearGradient><linearGradient id="paint11_linear_653_31340" x1="-24.905" y1="60.4" x2="149.065" y2="305.949" gradientUnits="userSpaceOnUse"><stop stop-color="#35FF89"/><stop offset="1" stop-color="#3177F3"/></linearGradient><linearGradient id="paint12_linear_653_31340" x1="-24.905" y1="60.4" x2="149.065" y2="305.949" gradientUnits="userSpaceOnUse"><stop stop-color="#35FF89"/><stop offset="1" stop-color="#3177F3"/></linearGradient><linearGradient id="paint13_linear_653_31340" x1="-24.905" y1="60.4" x2="149.065" y2="305.949" gradientUnits="userSpaceOnUse"><stop stop-color="#35FF89"/><stop offset="1" stop-color="#3177F3"/></linearGradient><linearGradient id="paint14_linear_653_31340" x1="-24.905" y1="60.4" x2="149.065" y2="305.949" gradientUnits="userSpaceOnUse"><stop stop-color="#35FF89"/><stop offset="1" stop-color="#3177F3"/></linearGradient><linearGradient id="paint15_linear_653_31340" x1="-24.905" y1="60.4" x2="149.065" y2="305.949" gradientUnits="userSpaceOnUse"><stop stop-color="#35FF89"/><stop offset="1" stop-color="#3177F3"/></linearGradient><linearGradient id="paint16_linear_653_31340" x1="-24.905" y1="60.4" x2="149.065" y2="305.949" gradientUnits="userSpaceOnUse"><stop stop-color="#35FF89"/><stop offset="1" stop-color="#3177F3"/></linearGradient><linearGradient id="paint17_linear_653_31340" x1="-24.905" y1="60.4" x2="149.065" y2="305.949" gradientUnits="userSpaceOnUse"><stop stop-color="#35FF89"/><stop offset="1" stop-color="#3177F3"/></linearGradient><linearGradient id="paint18_linear_653_31340" x1="-24.905" y1="60.4" x2="149.065" y2="305.949" gradientUnits="userSpaceOnUse"><stop stop-color="#35FF89"/><stop offset="1" stop-color="#3177F3"/></linearGradient><linearGradient id="paint19_linear_653_31340" x1="-24.905" y1="60.4" x2="149.065" y2="305.949" gradientUnits="userSpaceOnUse"><stop stop-color="#35FF89"/><stop offset="1" stop-color="#3177F3"/></linearGradient></defs></svg>