<svg width="89" height="88" fill="none" xmlns="http://www.w3.org/2000/svg"><path d="M44.91 8.813C63.93 9.293 79.2 24.863 79.2 44l-.011.908C78.707 63.93 63.137 79.201 44 79.201l-.91-.011C24.374 78.715 9.288 63.627 8.813 44.91L8.802 44c0-19.44 15.76-35.2 35.2-35.2l.908.011zM44 10.8c-18.336 0-33.2 14.864-33.2 33.2 0 18.336 14.864 33.2 33.2 33.2 18.336 0 33.2-14.864 33.2-33.2 0-18.336-14.864-33.2-33.2-33.2z" fill="#192237"/><mask id="a" style="mask-type:alpha" maskUnits="userSpaceOnUse" x="8" y="8" width="72" height="72"><circle cx="44.001" cy="44.001" r="35.2" fill="#ACACAC"/></mask><g mask="url(#a)" stroke="#0D1A35" stroke-width="2"><path d="M44.5 86.5V30.852c0-6.574 0-9.862 1.372-12.053a9 9 0 015.267-3.908c2.495-.678 5.64.274 11.934 2.18l31.31 9.478"/><path d="M44.5 97.254V41.606c0-6.575 0-9.862 1.372-12.053a9 9 0 015.267-3.908c2.495-.679 5.64.274 11.934 2.18l31.31 9.478"/><path d="M44.5 108.01V52.362c0-6.575 0-9.862 1.372-12.053a9 9 0 015.267-3.908c2.495-.679 5.64.274 11.934 2.179l31.31 9.48"/><path d="M44.5 118.764V63.116c0-6.575 0-9.862 1.372-12.053a9 9 0 015.267-3.909c2.495-.678 5.64.275 11.934 2.18l31.31 9.48"/><path d="M44.5 129.518V73.87c0-6.575 0-9.862 1.372-12.053a9 9 0 015.267-3.909c2.495-.678 5.64.275 11.934 2.18l31.31 9.479"/><path d="M44.5 140.274V84.626c0-6.575 0-9.862 1.372-12.053a9 9 0 015.267-3.909c2.495-.678 5.64.275 11.934 2.18l31.31 9.479M44.5 86.5V30.852c0-6.574 0-9.862-1.372-12.053a9 9 0 00-5.267-3.908c-2.495-.678-5.64.274-11.934 2.18l-31.31 9.478"/><path d="M44.5 97.254V41.606c0-6.575 0-9.862-1.372-12.053a9 9 0 00-5.267-3.908c-2.495-.679-5.64.274-11.934 2.18l-31.31 9.478"/><path d="M44.5 108.01V52.362c0-6.575 0-9.862-1.372-12.053a9 9 0 00-5.267-3.908c-2.495-.679-5.64.274-11.934 2.179l-31.31 9.48"/><path d="M44.5 118.764V63.116c0-6.575 0-9.862-1.372-12.053a9 9 0 00-5.267-3.909c-2.495-.678-5.64.275-11.934 2.18l-31.31 9.48"/><path d="M44.5 129.518V73.87c0-6.575 0-9.862-1.372-12.053a9 9 0 00-5.267-3.909c-2.495-.678-5.64.275-11.934 2.18l-31.31 9.479"/><path d="M44.5 140.274V84.626c0-6.575 0-9.862-1.372-12.053a9 9 0 00-5.267-3.909c-2.495-.678-5.64.275-11.934 2.18l-31.31 9.479"/></g></svg>