<svg width="89" height="88" fill="none" xmlns="http://www.w3.org/2000/svg"><circle cx="35.2" cy="35.2" r="34.2" transform="matrix(1 0 0 -1 8.8 79.2)" stroke="#0D1A35" stroke-width="2"/><path d="M55.31 62.723c8.096-4.674 12.788-13.68 15.452-21.69a74.222 74.222 0 002.61-10.362 65.19 65.19 0 00.487-3.195c.021-.169.038-.321.053-.455-.124-.054-.263-.116-.42-.182a65.016 65.016 0 00-3.011-1.176 74.212 74.212 0 00-10.28-2.922c-8.268-1.697-18.414-2.137-26.51 2.537-8.096 4.674-12.787 13.68-15.452 21.69A74.21 74.21 0 0015.63 57.33a65.437 65.437 0 00-.488 3.196c-.021.169-.037.321-.053.455.124.054.264.116.42.182a67.1 67.1 0 003.012 1.175 74.21 74.21 0 0010.28 2.921c8.268 1.697 18.414 2.137 26.51-2.537z" stroke="#0D1A35" stroke-width="2"/><path d="M42.52 51.397c9.25 2.478 18.194 2.666 24.837 2.229a80.887 80.887 0 007.957-.91c.376-.063.719-.126 1.028-.183-.24-.204-.505-.43-.799-.673a80.789 80.789 0 00-6.435-4.768c-5.534-3.7-13.374-8.01-22.625-10.488-9.251-2.479-18.195-2.666-24.838-2.23a80.841 80.841 0 00-7.958.912c-.376.063-.72.126-1.029.183.24.204.506.43.8.672a80.857 80.857 0 006.437 4.767c5.534 3.7 13.373 8.01 22.624 10.489z" stroke="#0D1A35" stroke-width="2"/></svg>