<svg width="220" height="220" fill="none" xmlns="http://www.w3.org/2000/svg"><path d="M116.212 39.468a6.533 6.533 0 100-13.067 6.533 6.533 0 000 13.067z" fill="url(#paint0_linear_653_8982)"/><path d="M103.766 52.535a5.703 5.703 0 005.703-5.704 5.703 5.703 0 10-11.407 0 5.704 5.704 0 005.704 5.704z" fill="url(#paint1_linear_653_8982)"/><path d="M90.596 75.973a3.837 3.837 0 100-7.674 3.837 3.837 0 000 7.674z" fill="url(#paint2_linear_653_8982)"/><path d="M94.64 63.735a4.46 4.46 0 100-8.918 4.46 4.46 0 000 8.918z" fill="url(#paint3_linear_653_8982)"/><path d="M89.559 86.966a3.319 3.319 0 100-6.638 3.319 3.319 0 000 6.638z" fill="url(#paint4_linear_653_8982)"/><path d="M93.499 95.781a2.8 2.8 0 100-5.6 2.8 2.8 0 000 5.6z" fill="url(#paint5_linear_653_8982)"/><path d="M87.174 42.994a6.534 6.534 0 100-13.068 6.534 6.534 0 000 13.068z" fill="url(#paint6_linear_653_8982)"/><path d="M80.743 59.69a5.704 5.704 0 100-11.407 5.704 5.704 0 000 11.408z" fill="url(#paint7_linear_653_8982)"/><path d="M77.527 86.136a3.837 3.837 0 100-7.674 3.837 3.837 0 000 7.674z" fill="url(#paint8_linear_653_8982)"/><path d="M76.698 73.38a4.46 4.46 0 100-8.919 4.46 4.46 0 000 8.92z" fill="url(#paint9_linear_653_8982)"/><path d="M80.743 96.714a3.319 3.319 0 100-6.637 3.319 3.319 0 000 6.637z" fill="url(#paint10_linear_653_8982)"/><path d="M87.795 103.455a2.8 2.8 0 100-5.6 2.8 2.8 0 000 5.6z" fill="url(#paint11_linear_653_8982)"/><path d="M61.558 56.89a6.534 6.534 0 100-13.067 6.534 6.534 0 000 13.068z" fill="url(#paint12_linear_653_8982)"/><path d="M61.766 74.624a5.704 5.704 0 100-11.407 5.704 5.704 0 000 11.407z" fill="url(#paint13_linear_653_8982)"/><path d="M69.024 100.448a3.837 3.837 0 100-7.674 3.837 3.837 0 000 7.674z" fill="url(#paint14_linear_653_8982)"/><path d="M63.425 88.832a4.46 4.46 0 100-8.918 4.46 4.46 0 000 8.918z" fill="url(#paint15_linear_653_8982)"/><path d="M75.972 109.056a3.319 3.319 0 100-6.638 3.319 3.319 0 000 6.638z" fill="url(#paint16_linear_653_8982)"/><path d="M85.202 112.789a2.8 2.8 0 100-5.6 2.8 2.8 0 000 5.6z" fill="url(#paint17_linear_653_8982)"/><path d="M42.578 79.084a6.534 6.534 0 100-13.067 6.534 6.534 0 000 13.067z" fill="url(#paint18_linear_653_8982)"/><path d="M49.527 95.47a5.704 5.704 0 100-11.408 5.704 5.704 0 000 11.408z" fill="url(#paint19_linear_653_8982)"/><path d="M66.224 116.73a3.837 3.837 0 100-7.675 3.837 3.837 0 000 7.675z" fill="url(#paint20_linear_653_8982)"/><path d="M56.58 108.019a4.46 4.46 0 10-.001-8.92 4.46 4.46 0 000 8.92z" fill="url(#paint21_linear_653_8982)"/><path d="M76.076 122.227a3.319 3.319 0 100-6.638 3.319 3.319 0 000 6.638z" fill="url(#paint22_linear_653_8982)"/><path d="M86.24 122.434a2.8 2.8 0 100-5.6 2.8 2.8 0 000 5.6z" fill="url(#paint23_linear_653_8982)"/><path d="M32.934 106.567a6.533 6.533 0 100-13.067 6.533 6.533 0 000 13.067z" fill="url(#paint24_linear_653_8982)"/><path d="M45.587 119.323a5.704 5.704 0 100-11.408 5.704 5.704 0 000 11.408z" fill="url(#paint25_linear_653_8982)"/><path d="M69.647 133.012a3.837 3.837 0 100-7.674 3.837 3.837 0 000 7.674z" fill="url(#paint26_linear_653_8982)"/><path d="M57.202 128.449a4.46 4.46 0 100-8.92 4.46 4.46 0 000 8.92z" fill="url(#paint27_linear_653_8982)"/><path d="M80.95 134.568a3.319 3.319 0 100-6.638 3.319 3.319 0 000 6.638z" fill="url(#paint28_linear_653_8982)"/><path d="M90.595 130.938a2.8 2.8 0 100-5.6 2.8 2.8 0 000 5.6z" fill="url(#paint29_linear_653_8982)"/><path d="M33.868 135.709a6.534 6.534 0 100-13.069 6.534 6.534 0 000 13.069z" fill="url(#paint30_linear_653_8982)"/><path d="M50.565 142.968a5.703 5.703 0 100-11.408 5.704 5.704 0 000 11.408z" fill="url(#paint31_linear_653_8982)"/><path d="M78.567 146.909a3.837 3.837 0 100-7.674 3.837 3.837 0 000 7.674z" fill="url(#paint32_linear_653_8982)"/><path d="M65.188 147.22a4.459 4.459 0 10.001-8.918 4.459 4.459 0 000 8.918z" fill="url(#paint33_linear_653_8982)"/><path d="M89.87 144.213a3.319 3.319 0 100-6.638 3.319 3.319 0 000 6.638z" fill="url(#paint34_linear_653_8982)"/><path d="M97.753 137.368a2.8 2.8 0 100-5.6 2.8 2.8 0 000 5.6z" fill="url(#paint35_linear_653_8982)"/><path d="M45.275 162.569a6.533 6.533 0 100-13.066 6.533 6.533 0 000 13.066z" fill="url(#paint36_linear_653_8982)"/><path d="M63.736 163.295a5.704 5.704 0 100-11.408 5.704 5.704 0 000 11.408z" fill="url(#paint37_linear_653_8982)"/><path d="M91.943 156.658a3.837 3.837 0 100-7.674 3.837 3.837 0 000 7.674z" fill="url(#paint38_linear_653_8982)"/><path d="M79.29 161.843a4.459 4.459 0 10.002-8.918 4.459 4.459 0 00-.001 8.918z" fill="url(#paint39_linear_653_8982)"/><path d="M101.692 150.02a3.318 3.318 0 100-6.636 3.318 3.318 0 000 6.636z" fill="url(#paint40_linear_653_8982)"/><path d="M106.774 140.79a2.8 2.8 0 100-5.6 2.8 2.8 0 000 5.6z" fill="url(#paint41_linear_653_8982)"/><path d="M65.6 183.518a6.534 6.534 0 10.001-13.067 6.534 6.534 0 000 13.067z" fill="url(#paint42_linear_653_8982)"/><path d="M83.44 177.399a5.704 5.704 0 10-.001-11.408 5.704 5.704 0 000 11.408z" fill="url(#paint43_linear_653_8982)"/><path d="M108.018 160.91a3.838 3.838 0 100-7.675 3.838 3.838 0 000 7.675z" fill="url(#paint44_linear_653_8982)"/><path d="M97.855 170.347a4.46 4.46 0 10-.001-8.92 4.46 4.46 0 000 8.92z" fill="url(#paint45_linear_653_8982)"/><path d="M114.863 151.265a3.318 3.318 0 100-6.636 3.318 3.318 0 000 6.636z" fill="url(#paint46_linear_653_8982)"/><path d="M116.418 140.687a2.8 2.8 0 10-.001-5.601 2.8 2.8 0 00.001 5.601z" fill="url(#paint47_linear_653_8982)"/><path d="M92.047 195.652a6.534 6.534 0 100-13.067 6.534 6.534 0 000 13.067z" fill="url(#paint48_linear_653_8982)"/><path d="M106.774 183.414a5.704 5.704 0 100-11.407 5.704 5.704 0 000 11.407z" fill="url(#paint49_linear_653_8982)"/><path d="M124.507 159.147a3.837 3.837 0 100-7.675 3.837 3.837 0 000 7.675z" fill="url(#paint50_linear_653_8982)"/><path d="M118.181 171.592a4.46 4.46 0 100-8.92 4.46 4.46 0 000 8.92z" fill="url(#paint51_linear_653_8982)"/><path d="M127.515 147.531a3.318 3.318 0 10.002-6.636 3.318 3.318 0 00-.002 6.636z" fill="url(#paint52_linear_653_8982)"/><path d="M125.442 137.161a2.8 2.8 0 10-.001-5.601 2.8 2.8 0 00.001 5.601z" fill="url(#paint53_linear_653_8982)"/><path d="M121.189 197.519a6.534 6.534 0 100-13.068 6.534 6.534 0 000 13.068z" fill="url(#paint54_linear_653_8982)"/><path d="M130.834 180.718a5.704 5.704 0 100-11.407 5.704 5.704 0 000 11.407z" fill="url(#paint55_linear_653_8982)"/><path d="M139.131 151.472a3.837 3.837 0 100-7.674 3.837 3.837 0 000 7.674z" fill="url(#paint56_linear_653_8982)"/><path d="M137.576 165.473a4.46 4.46 0 100-8.919 4.46 4.46 0 000 8.919z" fill="url(#paint57_linear_653_8982)"/><path d="M138.093 139.546a3.319 3.319 0 100-6.638 3.319 3.319 0 000 6.638z" fill="url(#paint58_linear_653_8982)"/><path d="M132.493 130.523a2.8 2.8 0 100-5.6 2.8 2.8 0 000 5.6z" fill="url(#paint59_linear_653_8982)"/><path d="M148.985 188.6a6.534 6.534 0 100-13.067 6.534 6.534 0 100 13.067z" fill="url(#paint60_linear_653_8982)"/><path d="M152.199 169.414a5.704 5.704 0 100-11.409 5.704 5.704 0 000 11.409z" fill="url(#paint61_linear_653_8982)"/><path d="M150.125 139.027a3.837 3.837 0 100-7.674 3.837 3.837 0 000 7.674z" fill="url(#paint62_linear_653_8982)"/><path d="M153.443 152.717a4.46 4.46 0 100-8.92 4.46 4.46 0 000 8.92z" fill="url(#paint63_linear_653_8982)"/><path d="M144.94 128.242a3.318 3.318 0 100-6.636 3.318 3.318 0 000 6.636z" fill="url(#paint64_linear_653_8982)"/><path d="M136.643 121.915a2.8 2.8 0 10.002-5.598 2.8 2.8 0 00-.002 5.598z" fill="url(#paint65_linear_653_8982)"/><path d="M171.694 170.243a6.534 6.534 0 100-13.068 6.534 6.534 0 000 13.068z" fill="url(#paint66_linear_653_8982)"/><path d="M168.064 151.161a5.704 5.704 0 100-11.407 5.704 5.704 0 000 11.407z" fill="url(#paint67_linear_653_8982)"/><path d="M155.826 123.471a3.837 3.837 0 10.001-7.675 3.837 3.837 0 00-.001 7.675z" fill="url(#paint68_linear_653_8982)"/><path d="M163.606 135.087a4.46 4.46 0 100-8.92 4.46 4.46 0 000 8.92z" fill="url(#paint69_linear_653_8982)"/><path d="M147.322 115.278a3.319 3.319 0 100-6.638 3.319 3.319 0 000 6.638z" fill="url(#paint70_linear_653_8982)"/><path d="M137.471 112.271a2.8 2.8 0 100-5.6 2.8 2.8 0 000 5.6z" fill="url(#paint71_linear_653_8982)"/><path d="M186.318 145.042a6.533 6.533 0 10.001-13.067 6.533 6.533 0 00-.001 13.067z" fill="url(#paint72_linear_653_8982)"/><path d="M176.257 128.449a5.704 5.704 0 100-11.409 5.704 5.704 0 000 11.409z" fill="url(#paint73_linear_653_8982)"/><path d="M155.515 106.982a3.837 3.837 0 100-7.675 3.837 3.837 0 000 7.675z" fill="url(#paint74_linear_653_8982)"/><path d="M166.819 114.967a4.46 4.46 0 100-8.92 4.46 4.46 0 000 8.92z" fill="url(#paint75_linear_653_8982)"/><path d="M144.833 102.315a3.319 3.319 0 100-6.638 3.319 3.319 0 000 6.638z" fill="url(#paint76_linear_653_8982)"/><path d="M134.774 103.041a2.8 2.8 0 100-5.6 2.8 2.8 0 000 5.6z" fill="url(#paint77_linear_653_8982)"/><path d="M190.78 116.212a6.534 6.534 0 10-.002-13.068 6.534 6.534 0 00.002 13.068z" fill="url(#paint78_linear_653_8982)"/><path d="M175.741 104.285a5.704 5.704 0 100-11.409 5.704 5.704 0 000 11.409z" fill="url(#paint79_linear_653_8982)"/><path d="M149.294 91.633a3.837 3.837 0 100-7.675 3.837 3.837 0 000 7.675z" fill="url(#paint80_linear_653_8982)"/><path d="M162.467 95.055a4.459 4.459 0 100-8.918 4.459 4.459 0 000 8.918z" fill="url(#paint81_linear_653_8982)"/><path d="M137.784 91.114a3.319 3.319 0 100-6.637 3.319 3.319 0 000 6.637z" fill="url(#paint82_linear_653_8982)"/><path d="M128.865 95.366a2.8 2.8 0 100-5.6 2.8 2.8 0 000 5.6z" fill="url(#paint83_linear_653_8982)"/><path d="M184.452 87.692a6.534 6.534 0 100-13.067 6.534 6.534 0 000 13.067z" fill="url(#paint84_linear_653_8982)"/><path d="M166.509 81.988a5.704 5.704 0 100-11.408 5.704 5.704 0 000 11.408z" fill="url(#paint85_linear_653_8982)"/><path d="M137.888 79.499a3.837 3.837 0 100-7.674 3.837 3.837 0 000 7.674z" fill="url(#paint86_linear_653_8982)"/><path d="M151.162 78.047a4.46 4.46 0 100-8.92 4.46 4.46 0 000 8.92z" fill="url(#paint87_linear_653_8982)"/><path d="M127.206 83.232a3.319 3.319 0 100-6.637 3.319 3.319 0 000 6.637z" fill="url(#paint88_linear_653_8982)"/><path d="M120.568 90.388a2.8 2.8 0 100-5.6 2.8 2.8 0 000 5.6z" fill="url(#paint89_linear_653_8982)"/><path d="M168.271 63.32a6.533 6.533 0 100-13.066 6.533 6.533 0 000 13.067z" fill="url(#paint90_linear_653_8982)"/><path d="M149.811 64.461a5.704 5.704 0 100-11.408 5.704 5.704 0 000 11.408z" fill="url(#paint91_linear_653_8982)"/><path d="M122.952 72.447a3.837 3.837 0 100-7.675 3.837 3.837 0 000 7.675z" fill="url(#paint92_linear_653_8982)"/><path d="M134.568 66.328a4.46 4.46 0 10-.001-8.92 4.46 4.46 0 00.001 8.92z" fill="url(#paint93_linear_653_8982)"/><path d="M114.447 79.706a3.319 3.319 0 100-6.637 3.319 3.319 0 000 6.637z" fill="url(#paint94_linear_653_8982)"/><path d="M111.129 88.729a2.8 2.8 0 100-5.6 2.8 2.8 0 000 5.6z" fill="url(#paint95_linear_653_8982)"/><path d="M144.524 46.52a6.534 6.534 0 100-13.069 6.534 6.534 0 000 13.069z" fill="url(#paint96_linear_653_8982)"/><path d="M127.93 54.194a5.703 5.703 0 100-11.408 5.703 5.703 0 00-5.703 5.704 5.703 5.703 0 005.703 5.704z" fill="url(#paint97_linear_653_8982)"/><path d="M106.461 71.202a3.837 3.837 0 10.001-7.675 3.837 3.837 0 00-.001 7.675z" fill="url(#paint98_linear_653_8982)"/><path d="M114.862 61.246a4.459 4.459 0 100-8.918 4.459 4.459 0 000 8.918z" fill="url(#paint99_linear_653_8982)"/><path d="M101.38 80.95a3.319 3.319 0 100-6.637 3.319 3.319 0 000 6.638z" fill="url(#paint100_linear_653_8982)"/><path d="M101.692 90.596a2.8 2.8 0 100-5.6 2.8 2.8 0 000 5.6z" fill="url(#paint101_linear_653_8982)"/><defs><linearGradient id="paint0_linear_653_8982" x1="-21.334" y1="62.752" x2="150.484" y2="305.117" gradientUnits="userSpaceOnUse"><stop stop-color="#35FF89"/><stop offset="1" stop-color="#3177F3"/></linearGradient><linearGradient id="paint1_linear_653_8982" x1="-21.334" y1="62.752" x2="150.484" y2="305.117" gradientUnits="userSpaceOnUse"><stop stop-color="#35FF89"/><stop offset="1" stop-color="#3177F3"/></linearGradient><linearGradient id="paint2_linear_653_8982" x1="-21.334" y1="62.752" x2="150.484" y2="305.117" gradientUnits="userSpaceOnUse"><stop stop-color="#35FF89"/><stop offset="1" stop-color="#3177F3"/></linearGradient><linearGradient id="paint3_linear_653_8982" x1="-21.334" y1="62.752" x2="150.484" y2="305.117" gradientUnits="userSpaceOnUse"><stop stop-color="#35FF89"/><stop offset="1" stop-color="#3177F3"/></linearGradient><linearGradient id="paint4_linear_653_8982" x1="-21.334" y1="62.752" x2="150.484" y2="305.117" gradientUnits="userSpaceOnUse"><stop stop-color="#35FF89"/><stop offset="1" stop-color="#3177F3"/></linearGradient><linearGradient id="paint5_linear_653_8982" x1="-21.334" y1="62.752" x2="150.484" y2="305.117" gradientUnits="userSpaceOnUse"><stop stop-color="#35FF89"/><stop offset="1" stop-color="#3177F3"/></linearGradient><linearGradient id="paint6_linear_653_8982" x1="-21.334" y1="62.752" x2="150.484" y2="305.117" gradientUnits="userSpaceOnUse"><stop stop-color="#35FF89"/><stop offset="1" stop-color="#3177F3"/></linearGradient><linearGradient id="paint7_linear_653_8982" x1="-21.334" y1="62.752" x2="150.484" y2="305.117" gradientUnits="userSpaceOnUse"><stop stop-color="#35FF89"/><stop offset="1" stop-color="#3177F3"/></linearGradient><linearGradient id="paint8_linear_653_8982" x1="-21.334" y1="62.752" x2="150.484" y2="305.117" gradientUnits="userSpaceOnUse"><stop stop-color="#35FF89"/><stop offset="1" stop-color="#3177F3"/></linearGradient><linearGradient id="paint9_linear_653_8982" x1="-21.334" y1="62.752" x2="150.484" y2="305.117" gradientUnits="userSpaceOnUse"><stop stop-color="#35FF89"/><stop offset="1" stop-color="#3177F3"/></linearGradient><linearGradient id="paint10_linear_653_8982" x1="-21.334" y1="62.752" x2="150.484" y2="305.117" gradientUnits="userSpaceOnUse"><stop stop-color="#35FF89"/><stop offset="1" stop-color="#3177F3"/></linearGradient><linearGradient id="paint11_linear_653_8982" x1="-21.334" y1="62.752" x2="150.484" y2="305.117" gradientUnits="userSpaceOnUse"><stop stop-color="#35FF89"/><stop offset="1" stop-color="#3177F3"/></linearGradient><linearGradient id="paint12_linear_653_8982" x1="-21.334" y1="62.752" x2="150.484" y2="305.117" gradientUnits="userSpaceOnUse"><stop stop-color="#35FF89"/><stop offset="1" stop-color="#3177F3"/></linearGradient><linearGradient id="paint13_linear_653_8982" x1="-21.334" y1="62.752" x2="150.484" y2="305.117" gradientUnits="userSpaceOnUse"><stop stop-color="#35FF89"/><stop offset="1" stop-color="#3177F3"/></linearGradient><linearGradient id="paint14_linear_653_8982" x1="-21.334" y1="62.752" x2="150.484" y2="305.117" gradientUnits="userSpaceOnUse"><stop stop-color="#35FF89"/><stop offset="1" stop-color="#3177F3"/></linearGradient><linearGradient id="paint15_linear_653_8982" x1="-21.334" y1="62.752" x2="150.484" y2="305.117" gradientUnits="userSpaceOnUse"><stop stop-color="#35FF89"/><stop offset="1" stop-color="#3177F3"/></linearGradient><linearGradient id="paint16_linear_653_8982" x1="-21.334" y1="62.752" x2="150.484" y2="305.117" gradientUnits="userSpaceOnUse"><stop stop-color="#35FF89"/><stop offset="1" stop-color="#3177F3"/></linearGradient><linearGradient id="paint17_linear_653_8982" x1="-21.334" y1="62.752" x2="150.484" y2="305.117" gradientUnits="userSpaceOnUse"><stop stop-color="#35FF89"/><stop offset="1" stop-color="#3177F3"/></linearGradient><linearGradient id="paint18_linear_653_8982" x1="-21.334" y1="62.752" x2="150.484" y2="305.117" gradientUnits="userSpaceOnUse"><stop stop-color="#35FF89"/><stop offset="1" stop-color="#3177F3"/></linearGradient><linearGradient id="paint19_linear_653_8982" x1="-21.334" y1="62.752" x2="150.484" y2="305.117" gradientUnits="userSpaceOnUse"><stop stop-color="#35FF89"/><stop offset="1" stop-color="#3177F3"/></linearGradient><linearGradient id="paint20_linear_653_8982" x1="-21.334" y1="62.752" x2="150.484" y2="305.117" gradientUnits="userSpaceOnUse"><stop stop-color="#35FF89"/><stop offset="1" stop-color="#3177F3"/></linearGradient><linearGradient id="paint21_linear_653_8982" x1="-21.334" y1="62.752" x2="150.484" y2="305.117" gradientUnits="userSpaceOnUse"><stop stop-color="#35FF89"/><stop offset="1" stop-color="#3177F3"/></linearGradient><linearGradient id="paint22_linear_653_8982" x1="-21.334" y1="62.752" x2="150.484" y2="305.117" gradientUnits="userSpaceOnUse"><stop stop-color="#35FF89"/><stop offset="1" stop-color="#3177F3"/></linearGradient><linearGradient id="paint23_linear_653_8982" x1="-21.334" y1="62.752" x2="150.484" y2="305.117" gradientUnits="userSpaceOnUse"><stop stop-color="#35FF89"/><stop offset="1" stop-color="#3177F3"/></linearGradient><linearGradient id="paint24_linear_653_8982" x1="-21.334" y1="62.752" x2="150.484" y2="305.117" gradientUnits="userSpaceOnUse"><stop stop-color="#35FF89"/><stop offset="1" stop-color="#3177F3"/></linearGradient><linearGradient id="paint25_linear_653_8982" x1="-21.334" y1="62.752" x2="150.484" y2="305.117" gradientUnits="userSpaceOnUse"><stop stop-color="#35FF89"/><stop offset="1" stop-color="#3177F3"/></linearGradient><linearGradient id="paint26_linear_653_8982" x1="-21.334" y1="62.752" x2="150.484" y2="305.117" gradientUnits="userSpaceOnUse"><stop stop-color="#35FF89"/><stop offset="1" stop-color="#3177F3"/></linearGradient><linearGradient id="paint27_linear_653_8982" x1="-21.334" y1="62.752" x2="150.484" y2="305.117" gradientUnits="userSpaceOnUse"><stop stop-color="#35FF89"/><stop offset="1" stop-color="#3177F3"/></linearGradient><linearGradient id="paint28_linear_653_8982" x1="-21.334" y1="62.752" x2="150.484" y2="305.117" gradientUnits="userSpaceOnUse"><stop stop-color="#35FF89"/><stop offset="1" stop-color="#3177F3"/></linearGradient><linearGradient id="paint29_linear_653_8982" x1="-21.334" y1="62.752" x2="150.484" y2="305.117" gradientUnits="userSpaceOnUse"><stop stop-color="#35FF89"/><stop offset="1" stop-color="#3177F3"/></linearGradient><linearGradient id="paint30_linear_653_8982" x1="-21.334" y1="62.752" x2="150.484" y2="305.117" gradientUnits="userSpaceOnUse"><stop stop-color="#35FF89"/><stop offset="1" stop-color="#3177F3"/></linearGradient><linearGradient id="paint31_linear_653_8982" x1="-21.334" y1="62.752" x2="150.484" y2="305.117" gradientUnits="userSpaceOnUse"><stop stop-color="#35FF89"/><stop offset="1" stop-color="#3177F3"/></linearGradient><linearGradient id="paint32_linear_653_8982" x1="-21.334" y1="62.752" x2="150.484" y2="305.117" gradientUnits="userSpaceOnUse"><stop stop-color="#35FF89"/><stop offset="1" stop-color="#3177F3"/></linearGradient><linearGradient id="paint33_linear_653_8982" x1="-21.334" y1="62.752" x2="150.484" y2="305.117" gradientUnits="userSpaceOnUse"><stop stop-color="#35FF89"/><stop offset="1" stop-color="#3177F3"/></linearGradient><linearGradient id="paint34_linear_653_8982" x1="-21.334" y1="62.752" x2="150.484" y2="305.117" gradientUnits="userSpaceOnUse"><stop stop-color="#35FF89"/><stop offset="1" stop-color="#3177F3"/></linearGradient><linearGradient id="paint35_linear_653_8982" x1="-21.334" y1="62.752" x2="150.484" y2="305.117" gradientUnits="userSpaceOnUse"><stop stop-color="#35FF89"/><stop offset="1" stop-color="#3177F3"/></linearGradient><linearGradient id="paint36_linear_653_8982" x1="-21.334" y1="62.752" x2="150.484" y2="305.117" gradientUnits="userSpaceOnUse"><stop stop-color="#35FF89"/><stop offset="1" stop-color="#3177F3"/></linearGradient><linearGradient id="paint37_linear_653_8982" x1="-21.334" y1="62.752" x2="150.484" y2="305.117" gradientUnits="userSpaceOnUse"><stop stop-color="#35FF89"/><stop offset="1" stop-color="#3177F3"/></linearGradient><linearGradient id="paint38_linear_653_8982" x1="-21.334" y1="62.752" x2="150.484" y2="305.117" gradientUnits="userSpaceOnUse"><stop stop-color="#35FF89"/><stop offset="1" stop-color="#3177F3"/></linearGradient><linearGradient id="paint39_linear_653_8982" x1="-21.334" y1="62.752" x2="150.484" y2="305.117" gradientUnits="userSpaceOnUse"><stop stop-color="#35FF89"/><stop offset="1" stop-color="#3177F3"/></linearGradient><linearGradient id="paint40_linear_653_8982" x1="-21.334" y1="62.752" x2="150.484" y2="305.117" gradientUnits="userSpaceOnUse"><stop stop-color="#35FF89"/><stop offset="1" stop-color="#3177F3"/></linearGradient><linearGradient id="paint41_linear_653_8982" x1="-21.334" y1="62.752" x2="150.484" y2="305.117" gradientUnits="userSpaceOnUse"><stop stop-color="#35FF89"/><stop offset="1" stop-color="#3177F3"/></linearGradient><linearGradient id="paint42_linear_653_8982" x1="-21.334" y1="62.752" x2="150.484" y2="305.117" gradientUnits="userSpaceOnUse"><stop stop-color="#35FF89"/><stop offset="1" stop-color="#3177F3"/></linearGradient><linearGradient id="paint43_linear_653_8982" x1="-21.334" y1="62.752" x2="150.484" y2="305.117" gradientUnits="userSpaceOnUse"><stop stop-color="#35FF89"/><stop offset="1" stop-color="#3177F3"/></linearGradient><linearGradient id="paint44_linear_653_8982" x1="-21.334" y1="62.752" x2="150.484" y2="305.117" gradientUnits="userSpaceOnUse"><stop stop-color="#35FF89"/><stop offset="1" stop-color="#3177F3"/></linearGradient><linearGradient id="paint45_linear_653_8982" x1="-21.334" y1="62.752" x2="150.484" y2="305.117" gradientUnits="userSpaceOnUse"><stop stop-color="#35FF89"/><stop offset="1" stop-color="#3177F3"/></linearGradient><linearGradient id="paint46_linear_653_8982" x1="-21.334" y1="62.752" x2="150.484" y2="305.117" gradientUnits="userSpaceOnUse"><stop stop-color="#35FF89"/><stop offset="1" stop-color="#3177F3"/></linearGradient><linearGradient id="paint47_linear_653_8982" x1="-21.334" y1="62.752" x2="150.484" y2="305.117" gradientUnits="userSpaceOnUse"><stop stop-color="#35FF89"/><stop offset="1" stop-color="#3177F3"/></linearGradient><linearGradient id="paint48_linear_653_8982" x1="-21.334" y1="62.752" x2="150.484" y2="305.117" gradientUnits="userSpaceOnUse"><stop stop-color="#35FF89"/><stop offset="1" stop-color="#3177F3"/></linearGradient><linearGradient id="paint49_linear_653_8982" x1="-21.334" y1="62.752" x2="150.484" y2="305.117" gradientUnits="userSpaceOnUse"><stop stop-color="#35FF89"/><stop offset="1" stop-color="#3177F3"/></linearGradient><linearGradient id="paint50_linear_653_8982" x1="-21.334" y1="62.752" x2="150.484" y2="305.117" gradientUnits="userSpaceOnUse"><stop stop-color="#35FF89"/><stop offset="1" stop-color="#3177F3"/></linearGradient><linearGradient id="paint51_linear_653_8982" x1="-21.334" y1="62.752" x2="150.484" y2="305.117" gradientUnits="userSpaceOnUse"><stop stop-color="#35FF89"/><stop offset="1" stop-color="#3177F3"/></linearGradient><linearGradient id="paint52_linear_653_8982" x1="-21.334" y1="62.752" x2="150.484" y2="305.117" gradientUnits="userSpaceOnUse"><stop stop-color="#35FF89"/><stop offset="1" stop-color="#3177F3"/></linearGradient><linearGradient id="paint53_linear_653_8982" x1="-21.334" y1="62.752" x2="150.484" y2="305.117" gradientUnits="userSpaceOnUse"><stop stop-color="#35FF89"/><stop offset="1" stop-color="#3177F3"/></linearGradient><linearGradient id="paint54_linear_653_8982" x1="-21.334" y1="62.752" x2="150.484" y2="305.117" gradientUnits="userSpaceOnUse"><stop stop-color="#35FF89"/><stop offset="1" stop-color="#3177F3"/></linearGradient><linearGradient id="paint55_linear_653_8982" x1="-21.334" y1="62.752" x2="150.484" y2="305.117" gradientUnits="userSpaceOnUse"><stop stop-color="#35FF89"/><stop offset="1" stop-color="#3177F3"/></linearGradient><linearGradient id="paint56_linear_653_8982" x1="-21.334" y1="62.752" x2="150.484" y2="305.117" gradientUnits="userSpaceOnUse"><stop stop-color="#35FF89"/><stop offset="1" stop-color="#3177F3"/></linearGradient><linearGradient id="paint57_linear_653_8982" x1="-21.334" y1="62.752" x2="150.484" y2="305.117" gradientUnits="userSpaceOnUse"><stop stop-color="#35FF89"/><stop offset="1" stop-color="#3177F3"/></linearGradient><linearGradient id="paint58_linear_653_8982" x1="-21.334" y1="62.752" x2="150.484" y2="305.117" gradientUnits="userSpaceOnUse"><stop stop-color="#35FF89"/><stop offset="1" stop-color="#3177F3"/></linearGradient><linearGradient id="paint59_linear_653_8982" x1="-21.334" y1="62.752" x2="150.484" y2="305.117" gradientUnits="userSpaceOnUse"><stop stop-color="#35FF89"/><stop offset="1" stop-color="#3177F3"/></linearGradient><linearGradient id="paint60_linear_653_8982" x1="-21.334" y1="62.752" x2="150.484" y2="305.117" gradientUnits="userSpaceOnUse"><stop stop-color="#35FF89"/><stop offset="1" stop-color="#3177F3"/></linearGradient><linearGradient id="paint61_linear_653_8982" x1="-21.334" y1="62.752" x2="150.484" y2="305.117" gradientUnits="userSpaceOnUse"><stop stop-color="#35FF89"/><stop offset="1" stop-color="#3177F3"/></linearGradient><linearGradient id="paint62_linear_653_8982" x1="-21.334" y1="62.752" x2="150.484" y2="305.117" gradientUnits="userSpaceOnUse"><stop stop-color="#35FF89"/><stop offset="1" stop-color="#3177F3"/></linearGradient><linearGradient id="paint63_linear_653_8982" x1="-21.334" y1="62.752" x2="150.484" y2="305.117" gradientUnits="userSpaceOnUse"><stop stop-color="#35FF89"/><stop offset="1" stop-color="#3177F3"/></linearGradient><linearGradient id="paint64_linear_653_8982" x1="-21.334" y1="62.752" x2="150.484" y2="305.117" gradientUnits="userSpaceOnUse"><stop stop-color="#35FF89"/><stop offset="1" stop-color="#3177F3"/></linearGradient><linearGradient id="paint65_linear_653_8982" x1="-21.334" y1="62.752" x2="150.484" y2="305.117" gradientUnits="userSpaceOnUse"><stop stop-color="#35FF89"/><stop offset="1" stop-color="#3177F3"/></linearGradient><linearGradient id="paint66_linear_653_8982" x1="-21.334" y1="62.752" x2="150.484" y2="305.117" gradientUnits="userSpaceOnUse"><stop stop-color="#35FF89"/><stop offset="1" stop-color="#3177F3"/></linearGradient><linearGradient id="paint67_linear_653_8982" x1="-21.334" y1="62.752" x2="150.484" y2="305.117" gradientUnits="userSpaceOnUse"><stop stop-color="#35FF89"/><stop offset="1" stop-color="#3177F3"/></linearGradient><linearGradient id="paint68_linear_653_8982" x1="-21.334" y1="62.752" x2="150.484" y2="305.117" gradientUnits="userSpaceOnUse"><stop stop-color="#35FF89"/><stop offset="1" stop-color="#3177F3"/></linearGradient><linearGradient id="paint69_linear_653_8982" x1="-21.334" y1="62.752" x2="150.484" y2="305.117" gradientUnits="userSpaceOnUse"><stop stop-color="#35FF89"/><stop offset="1" stop-color="#3177F3"/></linearGradient><linearGradient id="paint70_linear_653_8982" x1="-21.334" y1="62.752" x2="150.484" y2="305.117" gradientUnits="userSpaceOnUse"><stop stop-color="#35FF89"/><stop offset="1" stop-color="#3177F3"/></linearGradient><linearGradient id="paint71_linear_653_8982" x1="-21.334" y1="62.752" x2="150.484" y2="305.117" gradientUnits="userSpaceOnUse"><stop stop-color="#35FF89"/><stop offset="1" stop-color="#3177F3"/></linearGradient><linearGradient id="paint72_linear_653_8982" x1="-21.334" y1="62.752" x2="150.484" y2="305.117" gradientUnits="userSpaceOnUse"><stop stop-color="#35FF89"/><stop offset="1" stop-color="#3177F3"/></linearGradient><linearGradient id="paint73_linear_653_8982" x1="-21.334" y1="62.752" x2="150.484" y2="305.117" gradientUnits="userSpaceOnUse"><stop stop-color="#35FF89"/><stop offset="1" stop-color="#3177F3"/></linearGradient><linearGradient id="paint74_linear_653_8982" x1="-21.334" y1="62.752" x2="150.484" y2="305.117" gradientUnits="userSpaceOnUse"><stop stop-color="#35FF89"/><stop offset="1" stop-color="#3177F3"/></linearGradient><linearGradient id="paint75_linear_653_8982" x1="-21.334" y1="62.752" x2="150.484" y2="305.117" gradientUnits="userSpaceOnUse"><stop stop-color="#35FF89"/><stop offset="1" stop-color="#3177F3"/></linearGradient><linearGradient id="paint76_linear_653_8982" x1="-21.334" y1="62.752" x2="150.484" y2="305.117" gradientUnits="userSpaceOnUse"><stop stop-color="#35FF89"/><stop offset="1" stop-color="#3177F3"/></linearGradient><linearGradient id="paint77_linear_653_8982" x1="-21.334" y1="62.752" x2="150.484" y2="305.117" gradientUnits="userSpaceOnUse"><stop stop-color="#35FF89"/><stop offset="1" stop-color="#3177F3"/></linearGradient><linearGradient id="paint78_linear_653_8982" x1="-21.334" y1="62.752" x2="150.484" y2="305.117" gradientUnits="userSpaceOnUse"><stop stop-color="#35FF89"/><stop offset="1" stop-color="#3177F3"/></linearGradient><linearGradient id="paint79_linear_653_8982" x1="-21.334" y1="62.752" x2="150.484" y2="305.117" gradientUnits="userSpaceOnUse"><stop stop-color="#35FF89"/><stop offset="1" stop-color="#3177F3"/></linearGradient><linearGradient id="paint80_linear_653_8982" x1="-21.334" y1="62.752" x2="150.484" y2="305.117" gradientUnits="userSpaceOnUse"><stop stop-color="#35FF89"/><stop offset="1" stop-color="#3177F3"/></linearGradient><linearGradient id="paint81_linear_653_8982" x1="-21.334" y1="62.752" x2="150.484" y2="305.117" gradientUnits="userSpaceOnUse"><stop stop-color="#35FF89"/><stop offset="1" stop-color="#3177F3"/></linearGradient><linearGradient id="paint82_linear_653_8982" x1="-21.334" y1="62.752" x2="150.484" y2="305.117" gradientUnits="userSpaceOnUse"><stop stop-color="#35FF89"/><stop offset="1" stop-color="#3177F3"/></linearGradient><linearGradient id="paint83_linear_653_8982" x1="-21.334" y1="62.752" x2="150.484" y2="305.117" gradientUnits="userSpaceOnUse"><stop stop-color="#35FF89"/><stop offset="1" stop-color="#3177F3"/></linearGradient><linearGradient id="paint84_linear_653_8982" x1="-21.334" y1="62.752" x2="150.484" y2="305.117" gradientUnits="userSpaceOnUse"><stop stop-color="#35FF89"/><stop offset="1" stop-color="#3177F3"/></linearGradient><linearGradient id="paint85_linear_653_8982" x1="-21.334" y1="62.752" x2="150.484" y2="305.117" gradientUnits="userSpaceOnUse"><stop stop-color="#35FF89"/><stop offset="1" stop-color="#3177F3"/></linearGradient><linearGradient id="paint86_linear_653_8982" x1="-21.334" y1="62.752" x2="150.484" y2="305.117" gradientUnits="userSpaceOnUse"><stop stop-color="#35FF89"/><stop offset="1" stop-color="#3177F3"/></linearGradient><linearGradient id="paint87_linear_653_8982" x1="-21.334" y1="62.752" x2="150.484" y2="305.117" gradientUnits="userSpaceOnUse"><stop stop-color="#35FF89"/><stop offset="1" stop-color="#3177F3"/></linearGradient><linearGradient id="paint88_linear_653_8982" x1="-21.334" y1="62.752" x2="150.484" y2="305.117" gradientUnits="userSpaceOnUse"><stop stop-color="#35FF89"/><stop offset="1" stop-color="#3177F3"/></linearGradient><linearGradient id="paint89_linear_653_8982" x1="-21.334" y1="62.752" x2="150.484" y2="305.117" gradientUnits="userSpaceOnUse"><stop stop-color="#35FF89"/><stop offset="1" stop-color="#3177F3"/></linearGradient><linearGradient id="paint90_linear_653_8982" x1="-21.334" y1="62.752" x2="150.484" y2="305.117" gradientUnits="userSpaceOnUse"><stop stop-color="#35FF89"/><stop offset="1" stop-color="#3177F3"/></linearGradient><linearGradient id="paint91_linear_653_8982" x1="-21.334" y1="62.752" x2="150.484" y2="305.117" gradientUnits="userSpaceOnUse"><stop stop-color="#35FF89"/><stop offset="1" stop-color="#3177F3"/></linearGradient><linearGradient id="paint92_linear_653_8982" x1="-21.334" y1="62.752" x2="150.484" y2="305.117" gradientUnits="userSpaceOnUse"><stop stop-color="#35FF89"/><stop offset="1" stop-color="#3177F3"/></linearGradient><linearGradient id="paint93_linear_653_8982" x1="-21.334" y1="62.752" x2="150.484" y2="305.117" gradientUnits="userSpaceOnUse"><stop stop-color="#35FF89"/><stop offset="1" stop-color="#3177F3"/></linearGradient><linearGradient id="paint94_linear_653_8982" x1="-21.334" y1="62.752" x2="150.484" y2="305.117" gradientUnits="userSpaceOnUse"><stop stop-color="#35FF89"/><stop offset="1" stop-color="#3177F3"/></linearGradient><linearGradient id="paint95_linear_653_8982" x1="-21.334" y1="62.752" x2="150.484" y2="305.117" gradientUnits="userSpaceOnUse"><stop stop-color="#35FF89"/><stop offset="1" stop-color="#3177F3"/></linearGradient><linearGradient id="paint96_linear_653_8982" x1="-21.334" y1="62.752" x2="150.484" y2="305.117" gradientUnits="userSpaceOnUse"><stop stop-color="#35FF89"/><stop offset="1" stop-color="#3177F3"/></linearGradient><linearGradient id="paint97_linear_653_8982" x1="-21.334" y1="62.752" x2="150.484" y2="305.117" gradientUnits="userSpaceOnUse"><stop stop-color="#35FF89"/><stop offset="1" stop-color="#3177F3"/></linearGradient><linearGradient id="paint98_linear_653_8982" x1="-21.334" y1="62.752" x2="150.484" y2="305.117" gradientUnits="userSpaceOnUse"><stop stop-color="#35FF89"/><stop offset="1" stop-color="#3177F3"/></linearGradient><linearGradient id="paint99_linear_653_8982" x1="-21.334" y1="62.752" x2="150.484" y2="305.117" gradientUnits="userSpaceOnUse"><stop stop-color="#35FF89"/><stop offset="1" stop-color="#3177F3"/></linearGradient><linearGradient id="paint100_linear_653_8982" x1="-21.334" y1="62.752" x2="150.484" y2="305.117" gradientUnits="userSpaceOnUse"><stop stop-color="#35FF89"/><stop offset="1" stop-color="#3177F3"/></linearGradient><linearGradient id="paint101_linear_653_8982" x1="-21.334" y1="62.752" x2="150.484" y2="305.117" gradientUnits="userSpaceOnUse"><stop stop-color="#35FF89"/><stop offset="1" stop-color="#3177F3"/></linearGradient></defs></svg>