<svg width="89" height="88" fill="none" xmlns="http://www.w3.org/2000/svg"><path d="M66.87 70.758c7.545-6.456 12.33-16.049 12.33-26.759l-.01-.908C78.707 24.07 63.136 8.799 44 8.799l-.667.006a35.48 35.48 0 00-3.938.294l-.644.09c-11.825 7.422-3.129 23.235 14.98 36.83l.87.646c8.47 6.224 12.598 15.391 12.267 24.093zm1.787-4.53c-.988-7.741-5.188-15.359-12.453-20.863l-.418-.311C46.56 38.275 39.897 31.03 36.974 24.758c-1.455-3.122-1.91-5.843-1.479-8.086.4-2.078 1.606-3.977 3.979-5.566A33.497 33.497 0 0144 10.8c18.05 0 32.735 14.404 33.19 32.344l.01.856c0 8.55-3.232 16.343-8.544 22.23zM44.001 79.2c.879 0 1.75-.032 2.613-.096 14.48-7.06 5.35-24.075-14.16-38.41-7.99-5.868-12.114-14.354-12.282-22.6C13.182 24.528 8.8 33.752 8.8 44c0 19.44 15.76 35.2 35.2 35.2zm0-2c-18.336 0-33.2-14.864-33.2-33.2l.011-.903a33.048 33.048 0 017.81-20.5c1.333 7.377 5.592 14.525 12.647 19.709l.895.666c9.164 6.887 15.65 14.19 18.273 20.43 1.343 3.196 1.598 5.928.908 8.144-.652 2.092-2.245 4.034-5.273 5.59-.48.03-.964.05-1.45.058l-.621.006z" fill="#0D1A35"/><path d="M22.18 71.62C14.03 65.173 8.799 55.197 8.799 44l.012-.908C9.293 24.07 24.863 8.799 43.999 8.799l.845.01c1.684.04 3.339.2 4.957.468l.805.144c11.289 7.517 2.582 23.148-15.347 36.605l-.86.639c-8.752 6.43-12.866 16-12.22 24.955zm-1.943-4.44c.754-8.06 4.992-16.076 12.545-21.805l.432-.321c9.13-6.709 15.754-13.875 18.724-20.107 1.478-3.103 1.978-5.82 1.604-8.07-.347-2.08-1.476-3.97-3.718-5.563A33.368 33.368 0 0044 10.798c-18.05 0-32.735 14.404-33.19 32.344l-.01.856c0 9.02 3.598 17.196 9.438 23.18zM44 79.2c-.497 0-.991-.014-1.483-.034-14.665-7.021-5.538-24.096 14.03-38.473 7.692-5.65 11.802-13.727 12.247-21.678C75.22 25.392 79.2 34.23 79.2 43.999c0 19.44-15.76 35.2-35.2 35.2zm0-2c18.336 0 33.2-14.865 33.2-33.201l-.01-.861a33.035 33.035 0 00-7.008-19.552c-1.524 7.024-5.71 13.768-12.45 18.719l-.898.668c-9.19 6.908-15.687 14.234-18.293 20.485-1.334 3.2-1.574 5.933-.865 8.147.668 2.087 2.283 4.027 5.344 5.577l.283.008.697.01z" fill="#0D1A35"/></svg>