<svg width="840" height="500" fill="none" xmlns="http://www.w3.org/2000/svg"><path d="M651.472 221.796a7.67 7.67 0 017.669 7.67v91.02a7.67 7.67 0 01-15.338 0v-91.02a7.67 7.67 0 017.669-7.67zm42.254 0a7.67 7.67 0 017.669 7.67v91.02a7.67 7.67 0 01-15.338 0v-91.02a7.67 7.67 0 017.669-7.67zm-84.504-12.436a7.67 7.67 0 017.669 7.67v91.021a7.67 7.67 0 01-15.338 0V217.03a7.67 7.67 0 017.669-7.67zm126.754 0a7.67 7.67 0 017.669 7.67v91.021a7.67 7.67 0 01-15.338 0V217.03a7.67 7.67 0 017.669-7.67zM7.669 219.87a7.67 7.67 0 017.669 7.67v60.669a7.669 7.669 0 11-15.338 0V227.54a7.67 7.67 0 017.669-7.67zm824.662 0a7.67 7.67 0 017.669 7.67v60.669a7.67 7.67 0 01-15.338 0V227.54a7.67 7.67 0 017.669-7.67zm-265.363-31.4a7.669 7.669 0 017.669 7.669v91.02a7.669 7.669 0 11-15.338 0v-91.02a7.668 7.668 0 017.669-7.669zm211.263-.001a7.67 7.67 0 017.669 7.67v91.02a7.669 7.669 0 11-15.338 0v-91.02a7.67 7.67 0 017.669-7.67zm-253.513-24.124a7.67 7.67 0 017.669 7.67v91.02a7.669 7.669 0 11-15.338 0v-91.02a7.67 7.67 0 017.669-7.67zm281.433-3.731a7.67 7.67 0 017.669 7.67v91.021a7.669 7.669 0 11-15.338 0v-91.021a7.67 7.67 0 017.669-7.67zm-774.125-.722a7.669 7.669 0 017.67 7.669v91.02a7.669 7.669 0 01-7.67 7.669 7.669 7.669 0 01-7.669-7.669v-91.02a7.669 7.669 0 017.67-7.669zm450.438-19.694a7.67 7.67 0 017.669 7.67v91.021a7.67 7.67 0 01-15.338 0v-91.021a7.67 7.67 0 017.669-7.67zm-422.518-7.665a7.67 7.67 0 017.67 7.67v91.021a7.67 7.67 0 01-15.339 0v-91.021a7.67 7.67 0 017.67-7.67zm380.268-18.697a7.669 7.669 0 017.669 7.669v91.02a7.669 7.669 0 11-15.338 0v-91.02a7.668 7.668 0 017.669-7.669zm-338.018-7.664a7.668 7.668 0 017.669 7.669v91.02a7.669 7.669 0 11-15.338 0v-91.02a7.669 7.669 0 017.669-7.669zm549.276 62.722a7.669 7.669 0 017.669 7.668v27.159a7.67 7.67 0 01-15.338 0v-27.159a7.668 7.668 0 017.669-7.668zm42.254 0a7.67 7.67 0 017.669 7.668v27.159a7.67 7.67 0 01-15.338 0v-27.159a7.668 7.668 0 017.669-7.668zm-84.504-12.436a7.669 7.669 0 017.669 7.669v27.158a7.669 7.669 0 11-15.338 0v-27.158a7.669 7.669 0 017.669-7.669zm126.754 0a7.67 7.67 0 017.669 7.669v27.158a7.67 7.67 0 01-15.338 0v-27.158a7.669 7.669 0 017.669-7.669zM397.96 91.95a7.669 7.669 0 017.669 7.67v91.02a7.67 7.67 0 01-15.338 0V99.62a7.669 7.669 0 017.669-7.67zm-253.508-7.665a7.669 7.669 0 017.669 7.67v91.02a7.669 7.669 0 11-15.338 0v-91.02a7.67 7.67 0 017.669-7.67zm422.516 51.281a7.67 7.67 0 017.669 7.669v27.159a7.669 7.669 0 01-7.669 7.668 7.668 7.668 0 01-7.669-7.668v-27.159a7.67 7.67 0 017.669-7.669zm211.263 0a7.669 7.669 0 017.669 7.669v27.159a7.668 7.668 0 01-7.669 7.668 7.669 7.669 0 01-7.669-7.668v-27.159a7.67 7.67 0 017.669-7.669zM355.708 71.601a7.669 7.669 0 017.669 7.668v91.021a7.669 7.669 0 11-15.338 0V79.27a7.67 7.67 0 017.669-7.67zM186.7 66.379a7.669 7.669 0 017.669 7.669v91.02a7.669 7.669 0 11-15.338 0v-91.02a7.67 7.67 0 017.669-7.67zm126.76-8.502a7.67 7.67 0 017.669 7.669v91.02a7.668 7.668 0 01-7.669 7.669 7.668 7.668 0 01-7.669-7.669v-91.02a7.67 7.67 0 017.669-7.669zm-84.506-3.189a7.67 7.67 0 017.669 7.67v91.021a7.669 7.669 0 11-15.338 0v-91.02a7.67 7.67 0 017.669-7.67zm42.25-1.785a7.669 7.669 0 017.669 7.67v91.02a7.669 7.669 0 11-15.338 0v-91.02a7.67 7.67 0 017.669-7.67zm253.514 58.539a7.67 7.67 0 017.669 7.669v27.159a7.669 7.669 0 01-7.669 7.668 7.668 7.668 0 01-7.669-7.668v-27.159a7.67 7.67 0 017.669-7.669zm281.433 22.598a7.669 7.669 0 017.669 7.669v.83a7.67 7.67 0 01-15.338 0v-.83a7.67 7.67 0 017.669-7.669zm-774.125-.146a7.67 7.67 0 017.67 7.668v.253a7.67 7.67 0 01-15.339 0v-.253a7.669 7.669 0 017.67-7.668zm450.438-46.598a7.67 7.67 0 017.67 7.669v27.158a7.67 7.67 0 01-15.339 0V94.965a7.67 7.67 0 017.669-7.67zM59.946 79.63a7.669 7.669 0 017.67 7.669v27.158a7.67 7.67 0 01-15.338 0V87.3a7.67 7.67 0 017.668-7.67zm380.268-18.698a7.67 7.67 0 017.669 7.669V95.76a7.67 7.67 0 01-15.338 0V68.602a7.67 7.67 0 017.669-7.67zm-338.018-7.664a7.669 7.669 0 017.669 7.669v27.158a7.669 7.669 0 11-15.338 0V60.937a7.67 7.67 0 017.669-7.668zM397.96 39.047a7.67 7.67 0 017.669 7.669v27.158a7.67 7.67 0 01-15.338 0V46.716a7.67 7.67 0 017.669-7.67zm-253.508-7.665a7.669 7.669 0 017.669 7.669v27.158a7.67 7.67 0 01-15.338 0V39.051a7.67 7.67 0 017.669-7.67zm211.256-12.685a7.67 7.67 0 017.669 7.67v27.157a7.67 7.67 0 01-15.338 0V26.366a7.67 7.67 0 017.669-7.669zM186.7 13.476a7.669 7.669 0 017.669 7.668v27.159a7.669 7.669 0 11-15.338 0V21.145a7.67 7.67 0 017.669-7.67zm126.76-8.502a7.67 7.67 0 017.669 7.669V39.8a7.668 7.668 0 01-7.669 7.669 7.669 7.669 0 01-7.669-7.67V12.644a7.67 7.67 0 017.669-7.67zm-84.506-3.188a7.669 7.669 0 017.669 7.67v27.157a7.67 7.67 0 01-15.338 0V9.455a7.67 7.67 0 017.669-7.669zM271.204 0a7.669 7.669 0 017.669 7.669v27.158a7.67 7.67 0 01-15.338 0V7.67A7.67 7.67 0 01271.204 0z" fill="url(#paint0_linear_649_8749)"/><path d="M186.704 278.203a7.669 7.669 0 01-7.669-7.669v-91.02a7.669 7.669 0 1115.338 0v91.02a7.668 7.668 0 01-7.669 7.669zm-42.254.001a7.67 7.67 0 01-7.669-7.67v-91.02a7.669 7.669 0 1115.338 0v91.02a7.67 7.67 0 01-7.669 7.67zM102.2 290.64a7.67 7.67 0 01-7.669-7.67v-97.615a7.669 7.669 0 0115.338 0v97.615a7.67 7.67 0 01-7.669 7.67zm126.752 0a7.67 7.67 0 01-7.669-7.67v-91.021a7.67 7.67 0 0115.338 0v91.021a7.67 7.67 0 01-7.669 7.67zm42.256 20.891a7.67 7.67 0 01-7.669-7.67v-91.02a7.669 7.669 0 1115.338 0v91.02a7.67 7.67 0 01-7.669 7.67zm-211.262 0a7.67 7.67 0 01-7.669-7.67v-91.02a7.669 7.669 0 017.67-7.669 7.669 7.669 0 017.668 7.669v91.02a7.67 7.67 0 01-7.669 7.67zm253.512 24.124a7.67 7.67 0 01-7.669-7.67v-91.02a7.669 7.669 0 1115.338 0v91.02a7.67 7.67 0 01-7.669 7.67zm-281.434 3.731a7.67 7.67 0 01-7.669-7.669v-91.021a7.67 7.67 0 1115.338 0v91.021a7.67 7.67 0 01-7.669 7.669zm774.127.722a7.67 7.67 0 01-7.669-7.669v-91.021a7.67 7.67 0 0115.338 0v91.021a7.668 7.668 0 01-7.669 7.669zm-450.439 19.694a7.67 7.67 0 01-7.669-7.67v-91.021a7.669 7.669 0 1115.338 0v91.021a7.67 7.67 0 01-7.669 7.67zm422.519 7.665a7.671 7.671 0 01-7.669-7.67v-91.021a7.67 7.67 0 0115.338 0v91.021a7.67 7.67 0 01-7.669 7.67zm-380.267 18.697a7.668 7.668 0 01-7.669-7.669v-91.02a7.669 7.669 0 1115.338 0v91.02a7.67 7.67 0 01-7.669 7.669zm338.017 7.664a7.669 7.669 0 01-7.669-7.669v-97.264a7.67 7.67 0 0115.338 0v97.264a7.668 7.668 0 01-7.669 7.669zm-549.277-62.722a7.669 7.669 0 01-7.669-7.668v-27.159a7.67 7.67 0 0115.338 0v27.159a7.668 7.668 0 01-7.669 7.668zm-42.254 0a7.669 7.669 0 01-7.669-7.668v-27.159a7.67 7.67 0 0115.338 0v27.159a7.668 7.668 0 01-7.669 7.668zm84.502 12.436a7.669 7.669 0 01-7.669-7.669v-27.158a7.669 7.669 0 1115.338 0v27.158a7.669 7.669 0 01-7.669 7.669zm-126.752 0a7.669 7.669 0 01-7.669-7.669v-27.158a7.669 7.669 0 017.669-7.669 7.668 7.668 0 017.669 7.669v27.158a7.669 7.669 0 01-7.669 7.669zm338.016 64.508a7.669 7.669 0 01-7.669-7.669V309.36a7.669 7.669 0 1115.338 0v91.021a7.67 7.67 0 01-7.669 7.669zm253.51 7.665a7.669 7.669 0 01-7.669-7.669v-91.021a7.669 7.669 0 1115.338 0v91.021a7.67 7.67 0 01-7.669 7.669zm-422.518-51.281a7.67 7.67 0 01-7.669-7.669v-27.159a7.668 7.668 0 017.669-7.668 7.669 7.669 0 017.669 7.668v27.159a7.67 7.67 0 01-7.669 7.669zm-211.262 0a7.67 7.67 0 01-7.67-7.669v-27.159a7.67 7.67 0 017.67-7.668 7.668 7.668 0 017.67 7.668v27.159a7.67 7.67 0 01-7.67 7.669zm422.522 63.965a7.668 7.668 0 01-7.669-7.669v-91.02a7.669 7.669 0 1115.338 0v91.02a7.669 7.669 0 01-7.669 7.669zm169.01 5.222a7.668 7.668 0 01-7.669-7.669v-91.02a7.668 7.668 0 1115.337 0v91.02a7.668 7.668 0 01-7.668 7.669zm-126.758 8.502a7.67 7.67 0 01-7.669-7.67v-91.02a7.67 7.67 0 0115.338 0v91.02a7.67 7.67 0 01-7.669 7.67zm84.504 3.188a7.669 7.669 0 01-7.669-7.669v-91.021a7.669 7.669 0 1115.338 0v91.021a7.67 7.67 0 01-7.669 7.669zm-42.252 1.786a7.669 7.669 0 01-7.669-7.669v-91.021a7.669 7.669 0 1115.338 0v91.021a7.67 7.67 0 01-7.669 7.669zm-253.514-58.539a7.67 7.67 0 01-7.669-7.669V353.73a7.669 7.669 0 017.669-7.668 7.669 7.669 0 017.669 7.668v27.159a7.67 7.67 0 01-7.669 7.669zM32.024 366.579a7.67 7.67 0 01-7.669-7.669v-1.449a7.67 7.67 0 0115.338 0v1.449a7.67 7.67 0 01-7.669 7.669zm773.974-1.032a7.517 7.517 0 010-15.032h.307a7.516 7.516 0 010 15.032h-.307zm-450.286 47.157a7.67 7.67 0 01-7.67-7.669v-27.158a7.67 7.67 0 0115.339 0v27.158a7.67 7.67 0 01-7.669 7.669zm422.519 7.665a7.67 7.67 0 01-7.669-7.669v-27.158a7.669 7.669 0 1115.338 0V412.7a7.669 7.669 0 01-7.669 7.669zm-380.267 18.698a7.668 7.668 0 01-7.669-7.669V404.24a7.669 7.669 0 1115.338 0v27.158a7.669 7.669 0 01-7.669 7.669zm338.017 7.664a7.67 7.67 0 01-7.669-7.669v-27.158a7.67 7.67 0 0115.338 0v27.158a7.668 7.668 0 01-7.669 7.669zm-295.765 14.222a7.668 7.668 0 01-7.669-7.669v-27.158a7.67 7.67 0 0115.338 0v27.158a7.669 7.669 0 01-7.669 7.669zm253.51 7.665a7.668 7.668 0 01-7.669-7.669v-27.158a7.669 7.669 0 1115.338 0v27.158a7.67 7.67 0 01-7.669 7.669zm-211.258 12.685a7.669 7.669 0 01-7.669-7.669v-27.158a7.669 7.669 0 1115.338 0v27.158a7.67 7.67 0 01-7.669 7.669zm169.01 5.221a7.668 7.668 0 01-7.669-7.669v-27.158a7.669 7.669 0 1115.337 0v27.158a7.668 7.668 0 01-7.668 7.669zm-126.758 8.501a7.67 7.67 0 01-7.67-7.669v-27.158a7.67 7.67 0 0115.339 0v27.158a7.669 7.669 0 01-7.669 7.669zm84.504 3.189a7.669 7.669 0 01-7.669-7.669v-27.158a7.669 7.669 0 1115.338 0v27.158a7.67 7.67 0 01-7.669 7.669zM566.972 500a7.669 7.669 0 01-7.669-7.669v-27.158a7.669 7.669 0 1115.338 0v27.158a7.67 7.67 0 01-7.669 7.669z" fill="url(#paint1_linear_649_8749)"/><defs><linearGradient id="paint0_linear_649_8749" x1="125.263" y1="94.927" x2="752.397" y2="480.372" gradientUnits="userSpaceOnUse"><stop stop-color="#35FF89"/><stop offset="1" stop-color="#2099E5" stop-opacity="0"/></linearGradient><linearGradient id="paint1_linear_649_8749" x1="605.143" y1="515.662" x2="532.641" y2="119.607" gradientUnits="userSpaceOnUse"><stop stop-color="#35FF89"/><stop offset="1" stop-color="#2099E5" stop-opacity="0"/></linearGradient></defs></svg>