<svg width="32" height="26" viewBox="0 0 32 26" fill="none" xmlns="http://www.w3.org/2000/svg">
<path d="M27.107 2.53063C25.0356 1.56147 22.8208 0.857117 20.5052 0.456055C20.2208 0.970202 19.8886 1.66174 19.6595 2.21186C17.198 1.84168 14.7591 1.84168 12.3429 2.21186C12.1139 1.66174 11.7741 0.970202 11.4871 0.456055C9.16908 0.857117 6.95167 1.56405 4.88026 2.53576C0.70219 8.84937 -0.430415 15.0062 0.135889 21.0755C2.907 23.1449 5.59255 24.402 8.23277 25.2246C8.88465 24.3274 9.46605 23.3737 9.9669 22.3686C9.013 22.0061 8.09937 21.5588 7.2361 21.0396C7.46512 20.8699 7.68914 20.6925 7.90557 20.51C13.1709 22.9727 18.8919 22.9727 24.0943 20.51C24.3133 20.6925 24.5373 20.8699 24.7638 21.0396C23.898 21.5614 22.9818 22.0087 22.0279 22.3712C22.5288 23.3737 23.1077 24.33 23.7621 25.2272C26.4048 24.4046 29.0929 23.1475 31.864 21.0755C32.5285 14.0396 30.7289 7.93934 27.107 2.53063ZM10.6842 17.3429C9.10363 17.3429 7.8074 15.8673 7.8074 14.0704C7.8074 12.2735 9.07595 10.7954 10.6842 10.7954C12.2926 10.7954 13.5887 12.2709 13.5611 14.0704C13.5636 15.8673 12.2926 17.3429 10.6842 17.3429ZM21.3157 17.3429C19.735 17.3429 18.4388 15.8673 18.4388 14.0704C18.4388 12.2735 19.7073 10.7954 21.3157 10.7954C22.9239 10.7954 24.2202 12.2709 24.1925 14.0704C24.1925 15.8673 22.9239 17.3429 21.3157 17.3429Z" fill="#707682"/>
</svg>
