<svg width="32" height="26" viewBox="0 0 32 26" fill="none" xmlns="http://www.w3.org/2000/svg">
<path d="M27.107 2.5902C25.0356 1.62104 22.8208 0.916687 20.5052 0.515625C20.2208 1.02977 19.8886 1.72131 19.6595 2.27143C17.198 1.90125 14.7591 1.90125 12.3429 2.27143C12.1139 1.72131 11.7741 1.02977 11.4871 0.515625C9.16908 0.916687 6.95167 1.62362 4.88026 2.59533C0.70219 8.90894 -0.430415 15.0657 0.135889 21.1351C2.907 23.2045 5.59255 24.4616 8.23277 25.2842C8.88465 24.387 9.46605 23.4333 9.9669 22.4282C9.013 22.0657 8.09937 21.6184 7.2361 21.0991C7.46512 20.9294 7.68914 20.7521 7.90557 20.5695C13.1709 23.0323 18.8919 23.0323 24.0943 20.5695C24.3133 20.7521 24.5373 20.9294 24.7638 21.0991C23.898 21.6209 22.9818 22.0682 22.0279 22.4307C22.5288 23.4333 23.1077 24.3896 23.7621 25.2867C26.4048 24.4641 29.0929 23.2071 31.864 21.1351C32.5285 14.0991 30.7289 7.99891 27.107 2.5902ZM10.6842 17.4025C9.10363 17.4025 7.8074 15.9269 7.8074 14.13C7.8074 12.3331 9.07595 10.8549 10.6842 10.8549C12.2926 10.8549 13.5887 12.3305 13.5611 14.13C13.5636 15.9269 12.2926 17.4025 10.6842 17.4025ZM21.3157 17.4025C19.735 17.4025 18.4388 15.9269 18.4388 14.13C18.4388 12.3331 19.7073 10.8549 21.3157 10.8549C22.9239 10.8549 24.2202 12.3305 24.1925 14.13C24.1925 15.9269 22.9239 17.4025 21.3157 17.4025Z" fill="#707682"/>
</svg>
