<svg width="32" height="33" viewBox="0 0 32 33" fill="none" xmlns="http://www.w3.org/2000/svg">
<path d="M22.25 21.5762H18.5V32.7429C22.4769 32.1138 26.0705 30.0083 28.5637 26.8467C31.0568 23.685 32.2663 19.6996 31.9508 15.6856C31.6352 11.6715 29.8179 7.92406 26.8613 5.19079C23.9048 2.45753 20.0264 0.939453 16 0.939453C11.9736 0.939453 8.09521 2.45753 5.13866 5.19079C2.18211 7.92406 0.364768 11.6715 0.0492349 15.6856C-0.266298 19.6996 0.943174 23.685 3.43634 26.8467C5.92951 30.0083 9.52305 32.1138 13.5 32.7429V21.5762H9.41668V16.9096H13.5V13.1596C13.7222 8.21514 16.9444 6.32626 23.1667 7.49292V11.4096H21C19.3889 11.4651 18.5555 12.2985 18.5 13.9096V16.9096H22.9583" fill="#707682"/>
</svg>
