<svg width="32" height="28" viewBox="0 0 32 28" fill="none" xmlns="http://www.w3.org/2000/svg">
<path d="M29.8142 0.644405L0.833233 11.8592C0.815991 11.8658 0.799276 11.8738 0.783232 11.8829C0.548224 12.016 -1.09183 13.0192 1.22075 13.9186L1.2445 13.9274L8.14536 16.1568C8.19801 16.1739 8.25376 16.1793 8.30871 16.1726C8.36367 16.1659 8.41649 16.1473 8.4635 16.1181L25.5797 5.43895C25.6217 5.41275 25.6684 5.39512 25.7172 5.38707C25.9554 5.34769 26.641 5.27394 26.2072 5.82458C25.7166 6.44961 14.0256 16.9262 12.728 18.0881C12.6532 18.1553 12.6069 18.2486 12.5986 18.3488L12.0324 25.099C12.0323 25.1678 12.0482 25.2356 12.0789 25.2971C12.1097 25.3586 12.1543 25.4121 12.2093 25.4534C12.2873 25.5025 12.379 25.5253 12.471 25.5183C12.5629 25.5113 12.6502 25.475 12.7199 25.4146L16.82 21.7501C16.8848 21.6923 16.9674 21.6583 17.0542 21.6539C17.1409 21.6494 17.2266 21.6748 17.2969 21.7258L24.4503 26.9197L24.4734 26.9353C24.6466 27.0422 26.5166 28.1304 27.0566 25.7003L31.9943 2.22133C32.0012 2.14696 32.0681 1.32943 31.4837 0.846287C30.8699 0.34127 30.0011 0.596278 29.8705 0.623779C29.8512 0.629143 29.8324 0.636041 29.8142 0.644405Z" fill="#707682"/>
</svg>
