<svg width="32" height="28" viewBox="0 0 32 28" fill="none" xmlns="http://www.w3.org/2000/svg">
<path d="M29.8142 0.582882L0.833233 11.7976C0.815991 11.8043 0.799276 11.8122 0.783232 11.8214C0.548224 11.9545 -1.09183 12.9577 1.22075 13.8571L1.2445 13.8658L8.14536 16.0953C8.19801 16.1124 8.25376 16.1178 8.30871 16.1111C8.36367 16.1044 8.41649 16.0858 8.4635 16.0565L25.5797 5.37742C25.6217 5.35123 25.6684 5.3336 25.7172 5.32555C25.9554 5.28617 26.641 5.21242 26.2072 5.76306C25.7166 6.38808 14.0256 16.8647 12.728 18.0266C12.6532 18.0938 12.6069 18.187 12.5986 18.2872L12.0324 25.0375C12.0323 25.1062 12.0482 25.174 12.0789 25.2356C12.1097 25.2971 12.1543 25.3506 12.2093 25.3919C12.2873 25.441 12.379 25.4638 12.471 25.4568C12.5629 25.4498 12.6502 25.4135 12.7199 25.3531L16.82 21.6886C16.8848 21.6307 16.9674 21.5968 17.0542 21.5923C17.1409 21.5879 17.2266 21.6133 17.2969 21.6642L24.4503 26.8582L24.4734 26.8738C24.6466 26.9807 26.5166 28.0688 27.0566 25.6387L31.9943 2.15981C32.0012 2.08543 32.0681 1.26791 31.4837 0.784764C30.8699 0.279746 30.0011 0.534755 29.8705 0.562256C29.8512 0.56762 29.8324 0.574517 29.8142 0.582882Z" fill="#707682"/>
</svg>
