<svg width="81" height="81" fill="none" xmlns="http://www.w3.org/2000/svg"><mask id="a" style="mask-type:alpha" maskUnits="userSpaceOnUse" x="0" y="0" width="81" height="81"><circle cx="40" cy="40" r="40" transform="matrix(1 0 0 -1 .5 80.69)" fill="#D9D9D9"/></mask><g mask="url(#a)" clip-rule="evenodd" stroke="#0D1A35" stroke-width="2"><path d="M14.115 73.491a35.375 35.375 0 0152.007-.073l6.36-5.882a44.038 44.038 0 00-64.743.091l6.376 5.864zm-1.263-32.955A35.376 35.376 0 01-.438 46.34l1.767 8.48A44.038 44.038 0 0034.593-.721l-8.31 2.445a35.375 35.375 0 01-13.43 38.813zm68.752 6.542a35.375 35.375 0 01-24.786-45.72l-8.198-2.8a44.037 44.037 0 0030.856 56.917l2.128-8.397z"/><path d="M26.213 65.041a35.375 35.375 0 01-1.629 14.411l8.226 2.717A44.038 44.038 0 001.383 25.565L-.66 33.983a35.374 35.374 0 0126.873 31.058zm29.159 15.407a35.374 35.374 0 0125.975-45.055l-1.907-8.45a44.038 44.038 0 00-32.336 56.089l8.268-2.584zM25.883 16.11a35.375 35.375 0 01-11.572-8.741l-6.527 5.695a44.036 44.036 0 0064.718 1.786l-6.204-6.046a35.373 35.373 0 01-40.415 7.306z"/></g></svg>