<svg width="81" height="81" fill="none" xmlns="http://www.w3.org/2000/svg"><path fill-rule="evenodd" clip-rule="evenodd" d="M50.854 69.568c-3.303-1.292-6.805-3.133-10.354-5.465-3.549 2.332-7.05 4.173-10.354 5.465 3.107 6.142 6.86 9.121 10.354 9.121 3.495 0 7.247-2.98 10.354-9.121zm1.893.687C49.515 76.737 45.217 80.69 40.5 80.69s-9.015-3.952-12.247-10.434c-6.868 2.299-12.701 2.054-16.037-1.281-3.336-3.336-3.58-9.17-1.282-16.038C4.453 49.705.5 45.406.5 40.689s3.952-9.015 10.434-12.246C8.636 21.575 8.88 15.74 12.216 12.405c3.336-3.336 9.17-3.58 16.038-1.281C31.484 4.642 35.782.689 40.5.689c4.717 0 9.015 3.953 12.246 10.435 6.869-2.299 12.703-2.055 16.038 1.281 3.336 3.336 3.58 9.17 1.282 16.038C76.548 31.674 80.5 35.973 80.5 40.69s-3.952 9.015-10.434 12.246c2.298 6.868 2.054 12.702-1.282 16.038-3.335 3.335-9.17 3.58-16.037 1.281zm.852-1.824c6.54 2.146 11.3 1.6 13.771-.872 2.471-2.47 3.018-7.231.872-13.771-3.25 1.422-7.027 2.597-11.186 3.458-.86 4.158-2.035 7.935-3.457 11.185zm15.78-17.387c6.141-3.107 9.121-6.86 9.121-10.354 0-3.495-2.98-7.248-9.122-10.355-1.292 3.304-3.132 6.805-5.464 10.354 2.332 3.55 4.172 7.051 5.464 10.355zm-6.684-8.559c2.077 3.248 3.714 6.43 4.87 9.415-2.929 1.294-6.336 2.386-10.101 3.214.395-2.25.7-4.597.907-7.022a79.571 79.571 0 004.324-5.607zm0-3.591c2.077-3.248 3.714-6.43 4.87-9.415-2.929-1.294-6.336-2.386-10.101-3.214.395 2.25.7 4.597.907 7.022a79.596 79.596 0 014.324 5.607zm-4.101-2.167a74.904 74.904 0 012.912 3.962 74.905 74.905 0 01-2.912 3.963 88.707 88.707 0 000-7.925zm-2.498-6.03a74.96 74.96 0 00-.743-4.86 74.909 74.909 0 00-4.86-.744 88.637 88.637 0 015.603 5.604zm-8.997-5.937a85.738 85.738 0 014.843 4.487 85.7 85.7 0 014.488 4.844c.165 2.14.252 4.345.252 6.599 0 2.253-.087 4.457-.252 6.598a85.698 85.698 0 01-4.488 4.844 85.708 85.708 0 01-4.844 4.487c-2.14.166-4.345.252-6.598.252s-4.457-.086-6.598-.252a85.674 85.674 0 01-4.844-4.487 85.634 85.634 0 01-4.488-4.844 85.68 85.68 0 01-.252-6.598c0-2.253.087-4.458.252-6.599a85.71 85.71 0 014.488-4.844 85.738 85.738 0 014.844-4.487 85.735 85.735 0 016.598-.252c2.253 0 4.458.086 6.599.252zm.804-1.942a79.54 79.54 0 017.021.908c-.828-3.765-1.92-7.173-3.213-10.102-2.986 1.156-6.168 2.794-9.415 4.87a79.51 79.51 0 015.607 4.324zM40.5 19.684a74.916 74.916 0 013.962 2.912 88.858 88.858 0 00-7.924 0 74.9 74.9 0 013.962-2.912zm0-2.409c3.55-2.331 7.05-4.172 10.354-5.464C47.747 5.67 43.994 2.69 40.5 2.69c-3.495 0-7.247 2.98-10.354 9.122 3.303 1.292 6.805 3.132 10.354 5.465zm-11.21-3.651c2.985 1.156 6.167 2.794 9.414 4.87a79.51 79.51 0 00-5.606 4.324 79.512 79.512 0 00-7.022.908c.828-3.765 1.92-7.173 3.213-10.102zm-1.889-.676c-6.54-2.146-11.3-1.6-13.771.871s-3.018 7.232-.872 13.772c3.25-1.422 7.027-2.597 11.186-3.458.86-4.158 2.035-7.936 3.457-11.185zm-15.78 17.387C5.48 33.442 2.5 37.195 2.5 40.69s2.98 7.248 9.122 10.355c1.292-3.304 3.132-6.805 5.464-10.355-2.332-3.549-4.172-7.05-5.464-10.354zm6.684 8.559c-2.077-3.248-3.714-6.43-4.87-9.415 2.929-1.294 6.336-2.386 10.101-3.214a79.547 79.547 0 00-.907 7.022 79.558 79.558 0 00-4.324 5.607zm0 3.591c-2.077 3.248-3.714 6.43-4.87 9.416 2.929 1.293 6.336 2.385 10.101 3.213a79.55 79.55 0 01-.907-7.022 79.502 79.502 0 01-4.324-5.607zm4.101 2.167a74.895 74.895 0 01-2.912-3.963 74.893 74.893 0 012.912-3.962 88.694 88.694 0 000 7.925zm2.498 6.03c.2 1.67.45 3.292.743 4.86 1.568.294 3.191.543 4.86.743a88.65 88.65 0 01-5.603-5.603zm8.194 7.879a79.547 79.547 0 01-7.022-.908c.828 3.765 1.92 7.173 3.213 10.102 2.986-1.156 6.168-2.794 9.415-4.87a79.56 79.56 0 01-5.606-4.324zm9.198 4.323c3.248 2.077 6.429 3.715 9.415 4.871 1.294-2.93 2.386-6.337 3.213-10.102-2.25.396-4.597.701-7.021.907a79.515 79.515 0 01-5.607 4.324zM40.5 61.695a74.895 74.895 0 01-3.962-2.912 88.69 88.69 0 007.924 0 74.896 74.896 0 01-3.962 2.912zM13.63 67.56c2.471 2.472 7.232 3.018 13.771.872-1.422-3.25-2.597-7.027-3.457-11.185-4.159-.861-7.936-2.036-11.185-3.458-2.147 6.54-1.6 11.3.871 13.772zm41.723-12.016a74.912 74.912 0 01-4.86.742 88.754 88.754 0 005.603-5.603c-.2 1.67-.45 3.292-.743 4.86zM67.37 13.819c2.471 2.471 3.018 7.232.872 13.772-3.25-1.422-7.027-2.597-11.186-3.458-.86-4.158-2.035-7.936-3.457-11.185 6.54-2.146 11.3-1.6 13.771.871zM25.647 25.836a74.926 74.926 0 014.86-.742 88.852 88.852 0 00-5.603 5.603c.2-1.67.45-3.292.743-4.86z" fill="#0D1A35"/></svg>