<svg width="81" height="81" fill="none" xmlns="http://www.w3.org/2000/svg"><g clip-path="url(#clip0_451_3208)" stroke="#0D1A35" stroke-width="2"><circle cx="40.5" cy="40.69" r="39"/><path d="M43.5 2.69l17.257 17.257a6 6 0 010 8.485L43.5 45.69" stroke-linecap="round"/><path d="M52.5 80.69L34.743 62.931a6 6 0 010-8.485L52.5 36.689" stroke-linecap="round"/><path d="M37.5 80.69L19.743 62.931a6 6 0 010-8.485L37.5 36.689" stroke-linecap="round"/><path d="M28.5 2.69l17.257 17.257a6 6 0 010 8.485L28.5 45.69m30-43l17.257 17.257a6 6 0 010 8.485L58.5 45.69" stroke-linecap="round"/><path d="M67.5 80.69L49.743 62.931a6 6 0 010-8.485L67.5 36.689m6-33.999l17.257 17.257a6 6 0 010 8.485L73.5 45.69" stroke-linecap="round"/><path d="M82.5 80.69L64.743 62.931a6 6 0 010-8.485L82.5 36.689M13.5 2.69l17.257 17.257a6 6 0 010 8.485L13.5 45.69" stroke-linecap="round"/><path d="M22.5 80.69L4.743 62.931a6 6 0 010-8.485L22.5 36.689M-1.5 2.69l17.257 17.257a6 6 0 010 8.485L-1.5 45.69" stroke-linecap="round"/><path d="M7.5 80.69l-17.757-17.758a6 6 0 010-8.485L7.5 36.689" stroke-linecap="round"/></g><defs><clipPath id="clip0_451_3208"><rect x=".5" y=".689" width="80" height="80" rx="40" fill="#fff"/></clipPath></defs></svg>