<svg width="1201" height="359" fill="none" xmlns="http://www.w3.org/2000/svg"><path d="M370.026 358.689c6.359 0 11.513-5.154 11.513-11.512V11.513C381.539 5.154 376.385 0 370.026 0c-6.358 0-11.512 5.154-11.512 11.513v335.664c0 6.358 5.154 11.512 11.512 11.512zm-51.216-60.438c6.358 0 11.512-5.155 11.512-11.514V71.951c0-6.358-5.154-11.512-11.512-11.512-6.359 0-11.513 5.154-11.513 11.512v214.786c0 6.359 5.154 11.514 11.513 11.514zm102.432 0c6.359 0 11.514-5.155 11.514-11.514V71.951c0-6.358-5.156-11.512-11.514-11.512s-11.512 5.154-11.513 11.512v214.786c0 6.359 5.155 11.514 11.513 11.514zm409.731-3.013c6.358 0 11.512-5.154 11.512-11.512V74.963c0-6.358-5.154-11.513-11.512-11.513-6.359 0-11.513 5.155-11.513 11.513v208.763c0 6.358 5.154 11.512 11.513 11.512zm256.077-11.48c6.36 0 11.52-5.155 11.52-11.513v-185.8c0-6.359-5.16-11.513-11.52-11.513-6.35 0-11.51 5.154-11.51 11.512v185.801c0 6.358 5.16 11.513 11.51 11.513zm-819.456-28.743c6.358 0 11.512-5.155 11.512-11.513V115.187c0-6.359-5.154-11.513-11.512-11.513-6.358 0-11.513 5.154-11.513 11.513v128.315c0 6.358 5.154 11.513 11.513 11.513zm204.866 0c6.358 0 11.513-5.155 11.513-11.513V115.187c-.001-6.359-5.155-11.513-11.513-11.513s-11.513 5.154-11.513 11.513v128.315c0 6.358 5.155 11.513 11.513 11.513zM11.513 243.816c6.358 0 11.512-5.154 11.512-11.512V126.386c0-6.359-5.154-11.513-11.512-11.513C5.154 114.873 0 120.027 0 126.386v105.918c0 6.358 5.154 11.512 11.513 11.512zm204.865 0c6.358 0 11.513-5.154 11.513-11.512V126.386c0-6.359-5.155-11.513-11.513-11.513s-11.513 5.154-11.513 11.513v105.918c0 6.358 5.155 11.512 11.513 11.512zm563.379 0c6.358 0 11.512-5.154 11.513-11.512V126.386c0-6.359-5.155-11.513-11.513-11.513s-11.513 5.154-11.513 11.513v105.918c0 6.358 5.155 11.512 11.513 11.512zm102.434 0c6.359 0 11.513-5.154 11.513-11.512V126.386c0-6.359-5.154-11.513-11.513-11.513-6.358 0-11.512 5.154-11.512 11.513v105.918c0 6.358 5.154 11.512 11.512 11.512zm153.649 0c6.36 0 11.51-5.154 11.51-11.512V126.386c0-6.359-5.15-11.513-11.51-11.513-6.36 0-11.51 5.154-11.51 11.513v105.918c0 6.358 5.15 11.512 11.51 11.512zm102.43 0c6.36 0 11.51-5.154 11.51-11.512V126.386c0-6.359-5.15-11.513-11.51-11.513-6.36 0-11.51 5.154-11.51 11.513v105.918c0 6.358 5.15 11.512 11.51 11.512zM62.728 224.062c6.359 0 11.513-5.154 11.513-11.512v-66.41c0-6.359-5.154-11.513-11.513-11.513-6.358 0-11.512 5.154-11.512 11.513v66.41c0 6.358 5.154 11.512 11.512 11.512zm460.948.001c6.358-.001 11.512-5.155 11.512-11.513v-66.41c0-6.359-5.154-11.513-11.512-11.513-6.359 0-11.514 5.154-11.514 11.513v66.41c0 6.358 5.156 11.513 11.514 11.513zm204.865 0c6.358-.001 11.513-5.155 11.513-11.513v-66.41c0-6.359-5.155-11.513-11.513-11.513s-11.513 5.154-11.513 11.513v66.41c0 6.358 5.155 11.513 11.513 11.513zm204.866 0c6.358-.001 11.513-5.155 11.513-11.513v-66.41c0-6.359-5.154-11.513-11.513-11.513-6.358 0-11.512 5.154-11.512 11.513v66.41c0 6.358 5.154 11.513 11.512 11.513zm-358.515-4.914c6.358 0 11.512-5.154 11.512-11.512v-56.584c0-6.359-5.154-11.513-11.512-11.513-6.359 0-11.513 5.154-11.513 11.513v56.584c0 6.358 5.154 11.512 11.513 11.512zm102.432 0c6.358 0 11.513-5.154 11.513-11.512v-56.584c0-6.359-5.154-11.513-11.513-11.513-6.358 0-11.512 5.154-11.512 11.513v56.584c0 6.358 5.154 11.512 11.512 11.512zm-512.162-2.948c6.358 0 11.513-5.154 11.513-11.513v-50.687c0-6.358-5.155-11.514-11.513-11.514s-11.513 5.156-11.513 11.514v50.687c0 6.359 5.155 11.513 11.513 11.513zm1024.328-2.513c6.35-.001 11.51-5.155 11.51-11.513v-45.661c0-6.358-5.16-11.513-11.51-11.513-6.36 0-11.52 5.155-11.52 11.513v45.661c0 6.358 5.16 11.513 11.52 11.513zm-204.866-4.789c6.358 0 11.513-5.154 11.513-11.512v-36.084c0-6.359-5.155-11.513-11.513-11.513s-11.513 5.155-11.513 11.513v36.084c.001 6.358 5.155 11.512 11.513 11.512zm-870.679-7.928c6.359 0 11.513-5.155 11.513-11.513v-20.227c0-6.358-5.154-11.512-11.513-11.512-6.358 0-11.512 5.154-11.512 11.512v20.227c0 6.358 5.154 11.513 11.512 11.513zm512.164-2.705c6.358-.001 11.513-5.155 11.513-11.513v-14.816c0-6.359-5.154-11.513-11.513-11.513-6.358 0-11.512 5.154-11.512 11.513v14.816c0 6.358 5.154 11.513 11.512 11.513z" fill="url(#paint0_linear_649_8900)"/><defs><linearGradient id="paint0_linear_649_8900" x1="1200.41" y1="288.965" x2="27.119" y2="553.809" gradientUnits="userSpaceOnUse"><stop stop-color="#206FE5" stop-opacity="0"/><stop offset="1" stop-color="#35FF89"/></linearGradient></defs></svg>