<svg width="321" height="321" fill="none" xmlns="http://www.w3.org/2000/svg"><path fill-rule="evenodd" clip-rule="evenodd" d="M301.423 131.744c3.968-6.103 6.21-10.516 6.979-14.58a32.773 32.773 0 00-14.419-33.624c-3.059-1.975-7.099-3.31-12.903-4.51 1.04-5.836 1.3-10.084.601-13.657a32.771 32.771 0 00-25.87-25.87c-4.06-.794-8.99-.35-16.131 1.07-1.51-7.123-3.045-11.828-5.375-15.247a32.771 32.771 0 00-33.972-13.58c-3.559.767-7.359 2.679-12.311 5.934-3.391-4.861-6.21-8.048-9.23-10.08a32.772 32.772 0 00-36.586 0c-3.432 2.31-6.605 6.11-10.651 12.164-6.105-3.97-10.519-6.212-14.584-6.981a32.77 32.77 0 00-33.624 14.42c-1.975 3.057-3.31 7.098-4.51 12.902-5.835-1.04-10.083-1.3-13.656-.601a32.771 32.771 0 00-25.87 25.87c-.794 4.06-.35 8.99 1.07 16.13-7.123 1.51-11.829 3.046-15.247 5.376a32.77 32.77 0 00-13.58 33.972c.766 3.56 2.68 7.361 5.935 12.314-4.86 3.39-8.046 6.209-10.078 9.23a32.77 32.77 0 000 36.585c2.309 3.432 6.108 6.604 12.16 10.649-3.97 6.105-6.212 10.519-6.981 14.584a32.771 32.771 0 0014.42 33.624c3.058 1.975 7.098 3.31 12.903 4.51-1.04 5.835-1.3 10.082-.601 13.655a32.771 32.771 0 0025.87 25.87c4.06.794 8.99.35 16.13-1.069 1.51 7.122 3.046 11.829 5.376 15.247a32.77 32.77 0 0033.972 13.579c3.559-.765 7.361-2.679 12.315-5.935 3.391 4.862 6.21 8.049 9.231 10.082a32.775 32.775 0 0036.586 0c3.432-2.309 6.604-6.109 10.649-12.161 6.103 3.968 10.516 6.209 14.58 6.979a32.771 32.771 0 0033.624-14.42c1.975-3.058 3.31-7.099 4.511-12.903 5.835 1.04 10.082 1.3 13.655.601a32.771 32.771 0 0025.87-25.87c.794-4.06.35-8.99-1.069-16.131 7.122-1.509 11.828-3.045 15.246-5.375a32.77 32.77 0 0013.58-33.972c-.766-3.559-2.678-7.359-5.934-12.312 4.863-3.391 8.051-6.211 10.083-9.232a32.77 32.77 0 000-36.585c-2.309-3.433-6.11-6.606-12.164-10.652zm-19.684 65.611l.222-.135c6.688-4.065 11.976-7.279 16.181-10.039-2.881-4.124-6.598-9.072-11.301-15.331l-.156-.207a2988.126 2988.126 0 01-6.856-9.144c-4.422 6.337-7.472 10.974-10.205 15.764a173.17 173.17 0 00-1.726 3.096c.139 1.173.29 2.345.453 3.516.761 5.462 1.871 10.9 3.626 18.427 2.892-1.772 6.115-3.731 9.762-5.947zm-14.503-22.659c2.723-4.617 5.832-9.27 10.17-15.46-4.211-5.702-7.308-10.079-10.017-14.353a175.422 175.422 0 00-.153 29.813zm12.511-18.782c-4.578-6.225-7.742-10.785-10.593-15.505-.364-.603-.725-1.207-1.081-1.814.088-.699.181-1.397.278-2.094.761-5.462 1.871-10.9 3.626-18.426 2.892 1.772 6.114 3.73 9.761 5.946l.223.136c5.627 3.419 10.263 6.237 14.097 8.689-2.558 3.765-5.709 8.183-9.534 13.545l-.151.212c-2.477 3.473-4.667 6.542-6.626 9.311zm18.448-26.277c-3.914-2.505-8.61-5.359-14.232-8.775l-.006-.003c-4.211-2.56-7.845-4.768-11.047-6.735.873-3.656 1.882-7.788 3.05-12.576 1.851-7.587 3.341-13.69 4.386-18.734l.14.03c5.562 1.16 8.986 2.372 11.405 3.934a28.916 28.916 0 0112.723 29.669c-.536 2.829-2.018 6.145-5.011 10.974-.441.712-.91 1.449-1.408 2.216zm1.092 5.316c-2.611 3.846-5.803 8.32-9.624 13.677-2.862 4.013-5.333 7.476-7.501 10.547 2.244 3.016 4.799 6.416 7.761 10.357 4.692 6.243 8.467 11.267 11.415 15.49l.12-.084c4.654-3.259 7.323-5.722 8.93-8.111a28.913 28.913 0 000-32.281c-1.607-2.39-4.276-4.852-8.93-8.111-.687-.482-1.41-.975-2.171-1.484zm-56.408 142.531l.142.026c5.595.986 9.224 1.132 12.05.579a28.915 28.915 0 0022.826-22.826c.553-2.827.407-6.455-.579-12.05-.146-.826-.308-1.685-.486-2.582-4.564.873-9.985 1.78-16.474 2.866a2627.76 2627.76 0 00-12.762 2.154 2751.52 2751.52 0 00-1.836 12.81c-1.097 7.732-1.98 13.953-2.881 19.023zm.718-31.134c-.489 3.356-1.019 7.089-1.618 11.313l-.036.257c-1.1 7.75-1.97 13.877-2.849 18.83-4.926-1.022-10.938-2.488-18.543-4.344l-.253-.061-.033-.008c-4.13-1.008-7.781-1.899-11.069-2.689 4.081-6.562 7.141-11.192 10.465-15.592.713-.943 1.435-1.879 2.166-2.807 1.132-.335 2.268-.657 3.408-.969 5.319-1.454 10.754-2.576 18.362-3.93zm4.599-4.714c3.342-.573 7.06-1.195 11.268-1.899l.257-.043c6.496-1.087 11.847-1.983 16.318-2.836-.978-4.446-2.263-9.717-3.824-16.115l-.062-.253-.003-.011c-1.01-4.139-1.903-7.798-2.693-11.092-6.561 4.08-11.191 7.14-15.59 10.463-.563.426-1.123.854-1.681 1.286-.177.681-.349 1.362-.518 2.045-1.321 5.354-2.308 10.815-3.472 18.455zm-.94-16.536c-1.106 4.936-2.011 10.221-3.065 17.23-7.443 1.309-12.931 2.4-18.12 3.739a175.418 175.418 0 0121.185-20.969zm1.533-6.203a179.262 179.262 0 0115.14-38.302 179.324 179.324 0 01.158-41.182 179.242 179.242 0 01-16.377-37.789 179.247 179.247 0 01-29.004-29.228 179.28 179.28 0 01-38.304-15.14 179.272 179.272 0 01-41.18-.159 179.284 179.284 0 01-37.784 16.377 179.278 179.278 0 01-29.236 29.011 179.27 179.27 0 01-15.138 38.296 179.276 179.276 0 01-.159 41.183 179.28 179.28 0 0116.376 37.783 179.287 179.287 0 0129.013 29.237 179.24 179.24 0 0138.294 15.137 179.285 179.285 0 0141.184.158 179.316 179.316 0 0137.789-16.377 179.286 179.286 0 0129.228-29.005zm5.097-3.854A175.315 175.315 0 01264.81 187.3c.815 5.299 1.975 10.774 3.706 18.133-6.028 3.732-10.529 6.647-14.63 9.61zm-120.003 49.959a175.545 175.545 0 00-27.735-10.922c2.962 4.101 5.877 8.601 9.607 14.627 7.357-1.731 12.831-2.891 18.128-3.705zm-37.792-17.551a175.364 175.364 0 00-20.977-21.194c1.34 5.191 2.432 10.681 3.741 18.127 7.012 1.054 12.298 1.959 17.236 3.067zm-16.542.938c7.64 1.164 13.101 2.151 18.454 3.472.685.169 1.37.342 2.052.519.43.556.858 1.115 1.282 1.676 3.324 4.4 6.384 9.03 10.464 15.591-3.297.792-6.958 1.685-11.102 2.697l-.005.001-.252.061c-6.399 1.562-11.67 2.847-16.115 3.825-.853-4.471-1.75-9.822-2.836-16.317l-.043-.257a3121.39 3121.39 0 00-1.899-11.268zm-4.714-4.599c-1.354-7.608-2.476-13.044-3.93-18.363a177.413 177.413 0 00-.97-3.414c-.927-.73-1.862-1.451-2.804-2.163-4.4-3.324-9.03-6.385-15.594-10.466a3164.72 3164.72 0 01-2.697 11.103v.003l-.062.253c-1.856 7.605-3.322 13.617-4.344 18.543 4.953.879 11.08 1.75 18.83 2.849l.258.037c4.224.599 7.957 1.129 11.313 1.618zm-31.135-.718c5.07.901 11.291 1.784 19.023 2.881 4.88.692 9.092 1.29 12.811 1.836.639 3.704 1.34 7.899 2.154 12.761 1.086 6.489 1.993 11.91 2.866 16.474-.897.178-1.757.34-2.582.486-5.595.986-9.224 1.132-12.05.579a28.915 28.915 0 01-22.827-22.826c-.553-2.827-.407-6.455.58-12.05l.025-.141zm-3.053-4.509c1.045-5.043 2.534-11.147 4.386-18.734 1.168-4.79 2.177-8.922 3.05-12.579-3.201-1.967-6.834-4.174-11.044-6.733l-.004-.002c-5.623-3.417-10.32-6.272-14.236-8.777-.498.767-.968 1.506-1.41 2.219-2.993 4.829-4.475 8.144-5.01 10.974A28.915 28.915 0 0029.1 234.599c2.42 1.563 5.843 2.774 11.405 3.935l.14.029zm-15.71-50.035c3.834 2.453 8.47 5.271 14.1 8.692l.23.14c3.642 2.213 6.86 4.169 9.75 5.939 1.754-7.525 2.864-12.962 3.624-18.424.098-.697.19-1.394.279-2.092-.357-.607-.717-1.212-1.081-1.815-2.852-4.719-6.015-9.279-10.594-15.504-1.96 2.768-4.148 5.837-6.626 9.31l-.151.212c-3.824 5.361-6.974 9.778-9.531 13.542zm18.649-26.387c4.212 5.702 7.309 10.08 10.017 14.353.898-9.916.949-19.89.154-29.813-2.723 4.617-5.832 9.27-10.171 15.46zm9.509-22.124a174.997 174.997 0 01-1.727 3.098c-2.733 4.789-5.782 9.426-10.205 15.763-2.027-2.719-4.292-5.732-6.855-9.143l-.156-.208c-4.703-6.257-8.42-11.205-11.3-15.329 4.206-2.76 9.494-5.975 16.185-10.041l.223-.136.004-.002a3185.3 3185.3 0 009.752-5.942c1.755 7.525 2.865 12.963 3.625 18.424.163 1.171.315 2.343.454 3.516zm3.088-5.941a175.427 175.427 0 0010.922-27.738c-4.1 2.963-8.601 5.878-14.628 9.609 1.731 7.357 2.891 12.831 3.706 18.129zm17.551-37.793a175.422 175.422 0 0021.194-20.976c-5.191 1.34-10.68 2.431-18.127 3.74-1.054 7.012-1.96 12.298-3.067 17.236zm-.938-16.541c-1.164 7.64-2.151 13.1-3.472 18.454-.17.685-.342 1.368-.52 2.05-.555.43-1.112.857-1.673 1.28-4.4 3.325-9.03 6.385-15.594 10.467-.792-3.298-1.686-6.961-2.697-11.107l-.062-.252c-1.561-6.399-2.847-11.67-3.824-16.114 4.47-.854 9.821-1.75 16.317-2.837l.257-.043c4.207-.704 7.926-1.326 11.268-1.898zm4.6-4.715c7.607-1.353 13.043-2.476 18.362-3.93 1.141-.312 2.28-.635 3.413-.97.731-.928 1.453-1.864 2.166-2.807 3.324-4.399 6.384-9.03 10.465-15.591-3.299-.792-6.962-1.686-11.107-2.697l-.253-.062c-7.605-1.856-13.618-3.322-18.543-4.344-.88 4.953-1.75 11.08-2.85 18.831l-.036.258c-.6 4.224-1.129 7.956-1.618 11.312zm.717-31.135c-.901 5.07-1.784 11.291-2.88 19.024-.693 4.88-1.29 9.092-1.837 12.81-3.704.64-7.899 1.341-12.761 2.154-6.489 1.086-11.91 1.993-16.474 2.866-.178-.897-.34-1.757-.486-2.582-.987-5.595-1.133-9.224-.58-12.05a28.916 28.916 0 0122.827-22.827c2.826-.553 6.455-.407 12.05.58l.141.025zm4.509-3.053c5.043 1.044 11.147 2.534 18.734 4.385 4.79 1.17 8.923 2.178 12.579 3.051 1.968-3.202 4.176-6.836 6.735-11.047l.002-.004c3.417-5.621 6.271-10.318 8.775-14.232-.767-.498-1.506-.968-2.219-1.41-4.829-2.993-8.144-4.476-10.974-5.011a28.916 28.916 0 00-29.668 12.723c-1.563 2.42-2.774 5.843-3.935 11.404l-.03.14zm50.035-15.71c-2.452 3.834-5.27 8.47-8.69 14.098l-.135.222a2904.533 2904.533 0 01-5.946 9.76c7.525 1.754 12.962 2.864 18.423 3.624.698.097 1.396.19 2.094.279.607-.357 1.211-.717 1.814-1.08 4.719-2.852 9.279-6.016 15.504-10.594a3175.342 3175.342 0 01-9.31-6.626l-.212-.151c-5.361-3.825-9.778-6.974-13.542-9.532zm26.386 18.65c-5.701 4.21-10.078 7.308-14.351 10.016 9.915.897 19.888.948 29.811.154-4.617-2.723-9.27-5.832-15.46-10.17zm22.123 9.508a173.17 173.17 0 01-3.096-1.726c-4.789-2.733-9.427-5.783-15.763-10.205 2.718-2.027 5.732-4.292 9.143-6.855l.208-.157c6.259-4.704 11.207-8.42 15.332-11.302 2.76 4.206 5.975 9.494 10.041 16.185l.135.222c2.215 3.645 4.173 6.867 5.945 9.758-7.527 1.755-12.965 2.866-18.427 3.626a181.83 181.83 0 01-3.518.454zm5.941 3.088A175.44 175.44 0 00214.853 67.3c-2.964-4.102-5.879-8.603-9.611-14.632-7.36 1.732-12.836 2.892-18.135 3.707zm37.802 17.554a175.389 175.389 0 0020.968 21.185c-1.34-5.19-2.431-10.677-3.74-18.12-7.008-1.054-12.292-1.959-17.228-3.065zm16.534-.94c-7.639-1.164-13.101-2.151-18.455-3.473a160.64 160.64 0 01-2.043-.517c-.431-.557-.859-1.116-1.284-1.679-3.324-4.4-6.385-9.03-10.466-15.592 3.298-.792 6.959-1.685 11.103-2.696l.253-.062c6.398-1.561 11.669-2.847 16.114-3.824.854 4.47 1.75 9.821 2.837 16.318l.043.256c.704 4.207 1.326 7.926 1.898 11.27zm4.715 4.599c1.353 7.608 2.476 13.043 3.93 18.362.311 1.14.634 2.275.968 3.408.929.732 1.866 1.455 2.811 2.168 4.399 3.324 9.029 6.384 15.589 10.464.792-3.297 1.686-6.959 2.697-11.103l.062-.253c1.855-7.605 3.321-13.617 4.344-18.543-4.954-.879-11.081-1.75-18.831-2.849l-.258-.036c-4.224-.6-7.956-1.13-11.312-1.618zm31.135.718c-5.071-.901-11.292-1.784-19.024-2.881-4.881-.692-9.092-1.29-12.811-1.836-.638-3.705-1.34-7.9-2.154-12.762-1.085-6.49-1.992-11.91-2.865-16.474.897-.179 1.756-.34 2.582-.486 5.595-.987 9.224-1.133 12.05-.58a28.915 28.915 0 0122.826 22.827c.553 2.826.407 6.455-.579 12.05a6.825 6.825 0 00-.025.142zM158.984 39.023c-3.071-2.168-6.533-4.638-10.546-7.501-5.356-3.82-9.83-7.012-13.674-9.622.509-.76 1.002-1.483 1.483-2.17 3.259-4.654 5.722-7.323 8.111-8.931a28.917 28.917 0 0132.282 0c2.389 1.608 4.852 4.277 8.111 8.93l.081.117c-4.223 2.948-9.246 6.723-15.49 11.416a2595.299 2595.299 0 01-10.358 7.76zM38.83 162.2a2729.212 2729.212 0 01-7.5 10.547c-3.82 5.355-7.012 9.83-9.622 13.674-.76-.508-1.482-1.001-2.168-1.481-4.654-3.259-7.323-5.722-8.93-8.111a28.915 28.915 0 010-32.281c1.607-2.39 4.276-4.852 8.93-8.111l.116-.081c2.948 4.222 6.722 9.244 11.413 15.486 2.962 3.941 5.517 7.342 7.761 10.358zm100.994 105.89c1.038.565 2.071 1.14 3.098 1.727 4.789 2.733 9.427 5.782 15.763 10.205-2.718 2.027-5.732 4.292-9.143 6.855l-.207.156c-6.257 4.702-11.204 8.419-15.328 11.3-2.76-4.206-5.975-9.494-10.04-16.183l-.135-.222a3107.278 3107.278 0 00-5.946-9.76c7.525-1.754 12.962-2.865 18.423-3.625 1.171-.163 2.342-.314 3.515-.453zm22.125 9.509c-6.191-4.339-10.844-7.448-15.461-10.171a175.446 175.446 0 0129.815.153c-4.274 2.709-8.652 5.806-14.354 10.018zm.059 4.756c-3.016 2.243-6.416 4.799-10.357 7.76-6.242 4.691-11.264 8.465-15.487 11.413l.083.119c3.259 4.654 5.722 7.323 8.111 8.931a28.917 28.917 0 0032.281 0c2.39-1.608 4.853-4.277 8.112-8.931.48-.686.973-1.408 1.481-2.167-3.846-2.611-8.32-5.803-13.678-9.624-4.013-2.863-7.475-5.333-10.546-7.501zm26.331 13.895c-3.765-2.557-8.183-5.708-13.546-9.533l-.211-.151a3078.31 3078.31 0 00-9.311-6.626c6.225-4.579 10.785-7.743 15.505-10.594a166.77 166.77 0 011.815-1.081c.698.088 1.395.181 2.093.278 5.462.76 10.9 1.871 18.427 3.626-1.772 2.891-3.729 6.112-5.944 9.756l-.001.003-.135.222c-3.421 5.629-6.24 10.266-8.692 14.1zm3.21 2.138c2.505-3.915 5.359-8.612 8.776-14.236l.007-.011a2760.1 2760.1 0 016.73-11.039c3.652.873 7.78 1.88 12.562 3.047l.012.003c7.587 1.851 13.691 3.341 18.734 4.386a7.052 7.052 0 01-.029.141c-1.161 5.562-2.372 8.985-3.935 11.405a28.916 28.916 0 01-29.668 12.723c-2.83-.536-6.145-2.018-10.974-5.011-.712-.441-1.449-.91-2.215-1.408zm92.415-97.874c6.672-4.054 12.041-7.317 16.345-10.143l.078.119c3.112 4.753 4.676 8.031 5.282 10.846a28.914 28.914 0 01-11.982 29.975c-2.38 1.623-5.772 2.919-11.303 4.217-.816.192-1.67.382-2.564.571-.997-4.536-2.299-9.872-3.857-16.26l-.002-.005-.001-.005c-1.168-4.789-2.177-8.92-3.05-12.576 3.203-1.968 6.84-4.178 11.054-6.739zm-95.863 64.644a175.494 175.494 0 0127.342-11.892c-3.171 4.323-6.222 9.014-10.201 15.442-6.901-1.624-12.146-2.745-17.141-3.55zM56.026 188.292a175.454 175.454 0 0111.89 27.337c-4.321-3.17-9.012-6.22-15.439-10.199 1.623-6.899 2.745-12.143 3.55-17.138zm76.867-132.074a175.405 175.405 0 01-27.337 11.891c3.17-4.322 6.221-9.013 10.2-15.44 6.899 1.623 12.142 2.745 17.137 3.55zm132.073 76.867a175.41 175.41 0 01-11.892-27.343c4.323 3.172 9.014 6.222 15.442 10.202-1.624 6.901-2.745 12.145-3.55 17.141zm-64.634-95.85c2.557 4.208 4.764 7.84 6.73 11.039 3.655-.873 7.786-1.881 12.575-3.05 6.392-1.56 11.731-2.862 16.27-3.859-.19-.894-.38-1.748-.571-2.564-1.299-5.53-2.595-8.923-4.217-11.303a28.915 28.915 0 00-29.975-11.982c-2.816.606-6.093 2.17-10.846 5.282l-.119.078c2.827 4.304 6.09 9.674 10.146 16.348l.007.012zM37.038 120.86c4.21-2.559 7.844-4.766 11.045-6.734-.873-3.656-1.881-7.788-3.05-12.578-1.56-6.392-2.863-11.731-3.86-16.27-.894.19-1.748.38-2.564.571-5.531 1.299-8.924 2.595-11.303 4.217a28.915 28.915 0 00-11.982 29.975c.605 2.815 2.17 6.093 5.281 10.846l.08.122c4.305-2.828 9.674-6.09 16.349-10.146l.002-.001.002-.002zm83.634 163.292c-2.56-4.213-4.769-7.848-6.737-11.051-3.65.872-7.774 1.878-12.553 3.044l-.026.007c-6.392 1.56-11.732 2.863-16.27 3.859.19.895.379 1.749.57 2.565 1.3 5.531 2.595 8.924 4.217 11.303a28.916 28.916 0 0029.976 11.982c2.815-.606 6.093-2.17 10.846-5.282l.122-.08c-2.826-4.304-6.089-9.672-10.144-16.345l-.001-.002z" fill="url(#paint0_linear_490_2752)"/><defs><linearGradient id="paint0_linear_490_2752" x1="-86.8" y1="69.433" x2="231.71" y2="519.258" gradientUnits="userSpaceOnUse"><stop stop-color="#35FF89"/><stop offset="1" stop-color="#3177F3"/></linearGradient></defs></svg>