<svg width="321" height="321" fill="none" xmlns="http://www.w3.org/2000/svg"><path d="M267.234 43.514c-1.01-.92-2.032-1.828-3.066-2.723-11.831 13.602-25.701 26.207-41.324 37.59-54.243 39.524-129.38 64.096-212.559 64.096-2.42 0-4.834-.021-7.24-.063a159.24 159.24 0 00-.417 4.096c2.545.046 5.097.069 7.657.069 108.114 0 203.047-41.119 256.949-103.065z" fill="url(#paint0_linear_490_2757)"/><path d="M2.002 160.952a153.71 153.71 0 01.046-4.103h316.904c.031 1.276.046 2.556.046 3.84v.263H2.002z" fill="url(#paint1_linear_490_2757)"/><path d="M269.597 275.665c-53.462-63.482-149.6-105.825-259.312-105.825-2.681 0-5.354.025-8.019.075.079 1.371.175 2.737.288 4.098a422.67 422.67 0 017.731-.071c83.179 0 158.316 24.572 212.559 64.095 16.699 12.168 31.396 25.732 43.74 40.416a162.116 162.116 0 003.013-2.788z" fill="url(#paint2_linear_490_2757)"/><path d="M204.739 312.931C177.728 242.554 100.877 191.783 10.29 191.783c-1.748 0-3.49.019-5.228.056.273 1.369.563 2.731.87 4.086 1.45-.026 2.902-.04 4.358-.04 89.07 0 163.98 49.75 190.456 118.147 1.338-.35 2.669-.717 3.993-1.101z" fill="url(#paint3_linear_490_2757)"/><path d="M133.962 316.975c-10.527-58.452-61.475-102.86-122.868-103.246.491 1.383 1 2.757 1.529 4.122 58.16 1.096 106.326 43.035 117.018 98.334 1.433.283 2.874.546 4.321.79z" fill="url(#paint4_linear_490_2757)"/><path d="M88.069 301.706c-5.526-33.901-32.68-60.537-66.836-65.282a160.32 160.32 0 002.59 4.572c29.833 5.459 53.474 28.639 59.614 58.228 1.528.852 3.073 1.68 4.632 2.482z" fill="url(#paint5_linear_490_2757)"/><path d="M6.129 124.6c1.384.023 2.77.035 4.161.035 88.665 0 164.171-48.64 192.663-116.695a163.01 163.01 0 00-4.028-1.06C170.961 72.953 97.397 120.534 10.29 120.534c-1.052 0-2.103-.007-3.151-.021a156.33 156.33 0 00-1.01 4.088z" fill="url(#paint6_linear_490_2757)"/><path d="M12.96 102.664c58.75-1.226 107.589-42.77 119.965-98.083-1.475.259-2.944.538-4.405.838C116.057 57.496 70.08 96.55 14.663 98.512a157.216 157.216 0 00-1.703 4.152z" fill="url(#paint7_linear_490_2757)"/><path d="M24.348 79.498C55.173 73.946 79.77 50.47 86.96 20.248a158.389 158.389 0 00-4.965 2.72c-7.513 25.662-28.43 45.6-54.657 51.723a158.64 158.64 0 00-2.99 4.806z" fill="url(#paint8_linear_490_2757)"/><path fill-rule="evenodd" clip-rule="evenodd" d="M160.499 6.294c-85.27 0-154.395 69.125-154.395 154.395 0 85.27 69.125 154.395 154.395 154.395 85.27 0 154.395-69.125 154.395-154.395 0-85.27-69.125-154.395-154.395-154.395zm0-4.103C72.963 2.191 2.002 73.153 2.002 160.69c0 87.536 70.961 158.498 158.497 158.498 87.536 0 158.499-70.962 158.499-158.498 0-87.536-70.963-158.498-158.499-158.498z" fill="url(#paint9_linear_490_2757)"/><defs><linearGradient id="paint0_linear_490_2757" x1="-86.533" y1="69.532" x2="231.633" y2="518.872" gradientUnits="userSpaceOnUse"><stop stop-color="#35FF89"/><stop offset="1" stop-color="#3177F3"/></linearGradient><linearGradient id="paint1_linear_490_2757" x1="-86.533" y1="69.532" x2="231.633" y2="518.872" gradientUnits="userSpaceOnUse"><stop stop-color="#35FF89"/><stop offset="1" stop-color="#3177F3"/></linearGradient><linearGradient id="paint2_linear_490_2757" x1="-86.533" y1="69.532" x2="231.633" y2="518.872" gradientUnits="userSpaceOnUse"><stop stop-color="#35FF89"/><stop offset="1" stop-color="#3177F3"/></linearGradient><linearGradient id="paint3_linear_490_2757" x1="-86.533" y1="69.532" x2="231.633" y2="518.872" gradientUnits="userSpaceOnUse"><stop stop-color="#35FF89"/><stop offset="1" stop-color="#3177F3"/></linearGradient><linearGradient id="paint4_linear_490_2757" x1="-86.533" y1="69.532" x2="231.633" y2="518.872" gradientUnits="userSpaceOnUse"><stop stop-color="#35FF89"/><stop offset="1" stop-color="#3177F3"/></linearGradient><linearGradient id="paint5_linear_490_2757" x1="-86.533" y1="69.532" x2="231.633" y2="518.872" gradientUnits="userSpaceOnUse"><stop stop-color="#35FF89"/><stop offset="1" stop-color="#3177F3"/></linearGradient><linearGradient id="paint6_linear_490_2757" x1="-86.533" y1="69.532" x2="231.633" y2="518.872" gradientUnits="userSpaceOnUse"><stop stop-color="#35FF89"/><stop offset="1" stop-color="#3177F3"/></linearGradient><linearGradient id="paint7_linear_490_2757" x1="-86.533" y1="69.532" x2="231.633" y2="518.872" gradientUnits="userSpaceOnUse"><stop stop-color="#35FF89"/><stop offset="1" stop-color="#3177F3"/></linearGradient><linearGradient id="paint8_linear_490_2757" x1="-86.533" y1="69.532" x2="231.633" y2="518.872" gradientUnits="userSpaceOnUse"><stop stop-color="#35FF89"/><stop offset="1" stop-color="#3177F3"/></linearGradient><linearGradient id="paint9_linear_490_2757" x1="-86.533" y1="69.532" x2="231.633" y2="518.872" gradientUnits="userSpaceOnUse"><stop stop-color="#35FF89"/><stop offset="1" stop-color="#3177F3"/></linearGradient></defs></svg>