<svg width="321" height="321" fill="none" xmlns="http://www.w3.org/2000/svg"><path opacity=".3" fill-rule="evenodd" clip-rule="evenodd" d="M318.993 160.725v.047c-.044 87.497-70.989 158.415-158.497 158.415-87.536 0-158.498-70.962-158.498-158.498C1.998 73.153 72.96 2.191 160.496 2.191c87.507 0 158.452 70.917 158.497 158.414v.12zm-56.388 52.249c-28.877 0-52.286-23.41-52.286-52.286 0-28.877 23.409-52.286 52.286-52.286 28.858 0 52.256 23.379 52.286 52.231v.109c-.03 28.852-23.428 52.232-52.286 52.232zm45.687-19.229c-10.246 14.136-26.893 23.331-45.687 23.331-31.143 0-56.389-25.246-56.389-56.388 0-31.143 25.246-56.389 56.389-56.389 18.794 0 35.441 9.195 45.688 23.332-12.945-30.984-43.538-52.758-79.217-52.758-47.394 0-85.814 38.42-85.814 85.814 0 47.394 38.42 85.815 85.814 85.815 35.678 0 66.271-21.773 79.216-52.757zm-79.216 56.859c32.003 0 60.102-16.719 76.037-41.9-18.669 43.728-62.062 74.374-112.613 74.374-67.595 0-122.39-54.796-122.39-122.39 0-67.595 54.795-122.391 122.39-122.391 50.55 0 93.942 30.646 112.612 74.372-15.936-25.18-44.033-41.899-76.036-41.899-49.659 0-89.917 40.258-89.917 89.917 0 49.66 40.258 89.917 89.917 89.917zm69.97-21.708c-22.488 35.056-61.804 58.285-106.546 58.285-69.86 0-126.493-56.633-126.493-126.493 0-69.86 56.633-126.494 126.493-126.494 44.738 0 84.051 23.226 106.541 58.277-25.187-51.056-77.765-86.177-138.545-86.177-85.27 0-154.395 69.125-154.395 154.395 0 85.27 69.125 154.395 154.395 154.395 60.785 0 113.365-35.127 138.55-86.188z" fill="url(#paint0_linear_490_2767)"/><path fill-rule="evenodd" clip-rule="evenodd" d="M2.005 160.687v-.025c.014-87.523 70.97-158.47 158.497-158.47C248.038 2.191 319 73.152 319 160.688c0 87.536-70.962 158.498-158.498 158.498-87.535 0-158.497-70.964-158.497-158.5zm158.497 154.397c85.27 0 154.395-69.125 154.395-154.395 0-85.27-69.125-154.395-154.395-154.395-60.78 0-113.358 35.122-138.545 86.177C44.447 57.42 83.76 34.194 128.498 34.194c69.86 0 126.493 56.633 126.493 126.494 0 69.86-56.633 126.493-126.493 126.493-44.741 0-84.058-23.229-106.546-58.285 25.185 51.061 77.765 86.188 138.55 86.188zM6.107 160.687c0 28.877 23.41 52.287 52.286 52.287 28.877 0 52.286-23.41 52.286-52.286 0-28.877-23.409-52.286-52.286-52.286-28.876 0-52.286 23.409-52.286 52.285zm85.815 85.815c-35.678 0-66.271-21.773-79.216-52.757 10.246 14.136 26.893 23.331 45.687 23.331 31.143 0 56.389-25.246 56.389-56.388 0-31.143-25.246-56.389-56.389-56.389-18.794 0-35.441 9.195-45.687 23.332C25.65 96.647 56.243 74.873 91.922 74.873c47.394 0 85.814 38.42 85.814 85.814 0 47.394-38.42 85.815-85.814 85.815zm0-175.732c-32.003 0-60.1 16.72-76.035 41.899 18.669-43.726 62.061-74.372 112.611-74.372 67.595 0 122.391 54.796 122.391 122.391 0 67.594-54.796 122.39-122.391 122.39-50.55 0-93.944-30.646-112.612-74.374 15.934 25.181 44.033 41.9 76.036 41.9 49.659 0 89.917-40.257 89.917-89.917 0-49.659-40.258-89.917-89.917-89.917z" fill="url(#paint1_linear_490_2767)"/><defs><linearGradient id="paint0_linear_490_2767" x1="-86.536" y1="69.532" x2="231.63" y2="518.872" gradientUnits="userSpaceOnUse"><stop stop-color="#35FF89"/><stop offset="1" stop-color="#3177F3"/></linearGradient><linearGradient id="paint1_linear_490_2767" x1="-86.53" y1="69.532" x2="231.636" y2="518.872" gradientUnits="userSpaceOnUse"><stop stop-color="#35FF89"/><stop offset="1" stop-color="#3177F3"/></linearGradient></defs></svg>