<svg width="321" height="321" fill="none" xmlns="http://www.w3.org/2000/svg"><path fill-rule="evenodd" clip-rule="evenodd" d="M250.254 149.297c22.679-15.527 36.263-36.647 36.263-59.608 0-22.96-13.584-44.08-36.263-59.607C227.576 14.556 196.034 4.83 161 4.83c-35.034 0-66.576 9.727-89.254 25.253C49.066 45.61 35.483 66.73 35.483 89.69c0 22.961 13.584 44.081 36.263 59.608 22.678 15.526 54.22 25.253 89.254 25.253 35.034 0 66.576-9.727 89.254-25.253zM161 178.689c71.797 0 130-39.846 130-89 0-49.153-58.203-89-130-89s-130 39.847-130 89c0 49.154 58.203 89 130 89z" fill="url(#paint0_linear_522_2417)"/><path opacity=".9" fill-rule="evenodd" clip-rule="evenodd" d="M250.254 196.297c22.679-15.527 36.263-36.647 36.263-59.608 0-22.96-13.584-44.08-36.263-59.607C227.576 61.556 196.034 51.83 161 51.83c-35.034 0-66.576 9.727-89.254 25.253-22.68 15.527-36.263 36.647-36.263 59.607 0 22.961 13.584 44.081 36.263 59.608 22.678 15.526 54.22 25.253 89.254 25.253 35.034 0 66.576-9.727 89.254-25.253zM161 225.689c71.797 0 130-39.846 130-89 0-49.153-58.203-89-130-89s-130 39.847-130 89c0 49.154 58.203 89 130 89z" fill="url(#paint1_linear_522_2417)"/><path opacity=".6" fill-rule="evenodd" clip-rule="evenodd" d="M250.254 244.297c22.679-15.527 36.263-36.647 36.263-59.608 0-22.96-13.584-44.08-36.263-59.607-22.678-15.526-54.22-25.253-89.254-25.253-35.034 0-66.576 9.727-89.254 25.253-22.68 15.527-36.263 36.647-36.263 59.607 0 22.961 13.584 44.081 36.263 59.608 22.678 15.526 54.22 25.253 89.254 25.253 35.034 0 66.576-9.727 89.254-25.253zM161 273.689c71.797 0 130-39.846 130-89 0-49.153-58.203-89-130-89s-130 39.847-130 89c0 49.154 58.203 89 130 89z" fill="url(#paint2_linear_522_2417)"/><path opacity=".3" fill-rule="evenodd" clip-rule="evenodd" d="M250.254 291.297c22.679-15.527 36.263-36.647 36.263-59.608 0-22.96-13.584-44.08-36.263-59.607-22.678-15.526-54.22-25.253-89.254-25.253-35.034 0-66.576 9.727-89.254 25.253-22.68 15.527-36.263 36.647-36.263 59.607 0 22.961 13.584 44.081 36.263 59.608 22.678 15.526 54.22 25.253 89.254 25.253 35.034 0 66.576-9.727 89.254-25.253zM161 320.689c71.797 0 130-39.846 130-89 0-49.153-58.203-89-130-89s-130 39.847-130 89c0 49.154 58.203 89 130 89z" fill="url(#paint3_linear_522_2417)"/><defs><linearGradient id="paint0_linear_522_2417" x1="-41.616" y1="38.503" x2="107.077" y2="345.239" gradientUnits="userSpaceOnUse"><stop stop-color="#35FF89"/><stop offset="1" stop-color="#3177F3"/></linearGradient><linearGradient id="paint1_linear_522_2417" x1="-41.616" y1="85.503" x2="107.077" y2="392.239" gradientUnits="userSpaceOnUse"><stop stop-color="#35FF89"/><stop offset="1" stop-color="#3177F3"/></linearGradient><linearGradient id="paint2_linear_522_2417" x1="-41.616" y1="133.503" x2="107.077" y2="440.239" gradientUnits="userSpaceOnUse"><stop stop-color="#35FF89"/><stop offset="1" stop-color="#3177F3"/></linearGradient><linearGradient id="paint3_linear_522_2417" x1="-41.616" y1="180.503" x2="107.077" y2="487.239" gradientUnits="userSpaceOnUse"><stop stop-color="#35FF89"/><stop offset="1" stop-color="#3177F3"/></linearGradient></defs></svg>