<svg width="65" height="66" fill="none" xmlns="http://www.w3.org/2000/svg"><path fill="#fff" d="M0 .69h65v65H0z"/><mask id="a" fill="#fff"><path d="M52.886 33.988a20.9 20.9 0 00-2.362-9.663 20.33 20.33 0 00-6.527-7.382 19.69 19.69 0 00-9.15-3.356 19.558 19.558 0 00-9.615 1.462 20.044 20.044 0 00-7.806 5.934 20.727 20.727 0 00-4.156 9.006 20.995 20.995 0 00.477 9.95 20.606 20.606 0 004.997 8.545l14.142-14.496h20z"/></mask><path d="M52.886 33.988a20.9 20.9 0 00-2.362-9.663 20.33 20.33 0 00-6.527-7.382 19.69 19.69 0 00-9.15-3.356 19.558 19.558 0 00-9.615 1.462 20.044 20.044 0 00-7.806 5.934 20.727 20.727 0 00-4.156 9.006 20.995 20.995 0 00.477 9.95 20.606 20.606 0 004.997 8.545l14.142-14.496h20z" stroke="#0D1A35" stroke-width="4" mask="url(#a)"/><path d="M30 4.576a6 6 0 015.648-.188l.352.188 20.713 11.96a6 6 0 013 5.194v23.918a6 6 0 01-2.66 4.985l-.34.21L36 62.804a6 6 0 01-5.648.188L30 62.803 9.287 50.843a6 6 0 01-3-5.195V21.73a6 6 0 012.66-4.984l.34-.21L30 4.575z" stroke="#0D1A35" stroke-width="2" stroke-linecap="round"/></svg>