<svg width="65" height="66" fill="none" xmlns="http://www.w3.org/2000/svg"><g clip-path="url(#clip0_490_2784)"><path fill="#fff" d="M0 .69h65v65H0z"/><path d="M6.886 2.689a29.886 29.886 0 110 59.772M56.093 2.689a29.886 29.886 0 100 59.772M6.887 13.076a19.5 19.5 0 010 39" stroke="#0D1A35" stroke-width="2" stroke-linecap="round"/><path d="M56.093 13.076a19.502 19.502 0 00-18.016 26.962 19.501 19.501 0 0018.016 12.038m-49.206-28a8.5 8.5 0 110 17m49.206-17a8.499 8.499 0 100 17" stroke="#0D1A35" stroke-width="2" stroke-linecap="round"/></g><defs><clipPath id="clip0_490_2784"><path fill="#fff" transform="translate(0 .69)" d="M0 0h65v65H0z"/></clipPath></defs></svg>