<svg width="65" height="66" fill="none" xmlns="http://www.w3.org/2000/svg"><path fill="#fff" d="M0 .69h65v65H0z"/><path d="M55.845 9.69v0h-.55c-17.484.132-31.625 14.274-31.757 31.758v19.01" stroke="#0D1A35" stroke-width="2" stroke-linecap="round"/><path d="M61.998 18.15v0c-5.576 0-8.364 0-10.682.462a24 24 0 00-18.857 18.856c-.461 2.319-.461 5.106-.461 10.682v12.308" stroke="#0D1A35" stroke-width="2" stroke-linecap="round"/><path d="M55.076 28.15v0c-1.5 0-2.25 0-2.882.062a13 13 0 00-11.671 11.672c-.062.632-.062 1.382-.062 2.882v17.692M8.153 9.69v0h.55c17.484.132 31.625 14.274 31.757 31.758v19.01" stroke="#0D1A35" stroke-width="2" stroke-linecap="round"/><path d="M2 18.15v0c5.576 0 8.364 0 10.682.462A24 24 0 0131.54 37.468c.46 2.319.46 5.106.46 10.682v12.308" stroke="#0D1A35" stroke-width="2" stroke-linecap="round"/><path d="M8.922 28.15v0c1.5 0 2.25 0 2.882.062a13 13 0 0111.671 11.672c.062.632.062 1.382.062 2.882v17.692" stroke="#0D1A35" stroke-width="2" stroke-linecap="round"/></svg>