<svg width="65" height="66" fill="none" xmlns="http://www.w3.org/2000/svg"><path fill="#fff" d="M0 .69h65v65H0z"/><circle cx="32.773" cy="33.461" r="29" stroke="#0D1A35" stroke-width="2"/><path fill-rule="evenodd" clip-rule="evenodd" d="M46.226 34.31c-3.51 3.674-15.669 15.496-26.785 15.496-9.152 0-16.572-7.42-16.572-16.572s7.42-16.572 16.572-16.572c11.274 0 23.62 12.16 26.929 15.648h14.989v2H46.226zm-2.896-2.24c.44.434.828.826 1.155 1.164a74.334 74.334 0 01-7.449 6.71c-5.254 4.107-11.735 7.862-17.595 7.862-8.048 0-14.572-6.524-14.572-14.572 0-8.048 6.524-14.572 14.572-14.572 5.86 0 12.34 3.755 17.595 7.862a74.316 74.316 0 016.294 5.545z" fill="#0D1A35"/><path fill-rule="evenodd" clip-rule="evenodd" d="M18.977 34.31c3.51 3.674 15.67 15.496 26.785 15.496 9.152 0 16.572-7.42 16.572-16.572s-7.42-16.572-16.572-16.572c-11.274 0-23.62 12.16-26.929 15.648H3.844v2h15.133zm2.896-2.24c-.44.434-.828.826-1.155 1.164a74.322 74.322 0 007.45 6.71c5.253 4.107 11.735 7.862 17.594 7.862 8.048 0 14.572-6.524 14.572-14.572 0-8.048-6.524-14.572-14.572-14.572-5.86 0-12.34 3.755-17.595 7.862a74.304 74.304 0 00-6.294 5.545z" fill="#0D1A35"/></svg>