<svg width="950" height="500" fill="none" xmlns="http://www.w3.org/2000/svg"><path d="M229.837 59c6.754 0 12.229 5.475 12.229 12.228v356.543c0 6.754-5.475 12.23-12.229 12.23s-12.229-5.476-12.229-12.23V71.228C217.609 64.475 223.083 59 229.837 59zm489.619 0c6.754 0 12.229 5.475 12.23 12.228v356.543c0 6.754-5.476 12.23-12.23 12.23-6.754 0-12.228-5.476-12.228-12.23V71.228c0-6.753 5.474-12.228 12.228-12.228zm-544.02 56.888c6.753 0 12.228 5.474 12.228 12.228v242.769c0 6.753-5.475 12.228-12.228 12.228-6.754 0-12.23-5.475-12.23-12.228V128.116c0-6.754 5.476-12.228 12.23-12.228zm108.803 0c6.754 0 12.23 5.474 12.23 12.228v242.769c0 6.753-5.476 12.228-12.23 12.228-6.753 0-12.228-5.475-12.228-12.228V128.116c0-6.754 5.475-12.228 12.228-12.228zm380.815 0c6.754 0 12.229 5.474 12.229 12.228v242.769c0 6.753-5.476 12.228-12.229 12.228-6.754 0-12.229-5.475-12.229-12.228V128.116c0-6.753 5.475-12.228 12.229-12.228zm108.804 0c6.754 0 12.229 5.474 12.229 12.228v242.769c0 6.753-5.475 12.228-12.229 12.228-6.753 0-12.229-5.475-12.229-12.228V128.116c0-6.754 5.476-12.228 12.229-12.228zm-652.825 34.596c6.754 0 12.228 5.475 12.229 12.229v173.574c0 6.754-5.475 12.23-12.229 12.23s-12.229-5.476-12.229-12.23V162.713c0-6.754 5.475-12.229 12.229-12.229zm217.609 0c6.753 0 12.228 5.475 12.228 12.229v173.574c0 6.754-5.475 12.23-12.228 12.23-6.754 0-12.23-5.476-12.23-12.23V162.713c0-6.754 5.476-12.229 12.23-12.229zm272.01 0c6.754.001 12.229 5.475 12.229 12.229v173.574c0 6.754-5.475 12.229-12.229 12.23-6.754 0-12.229-5.476-12.229-12.23V162.713c0-6.754 5.476-12.229 12.229-12.229zm217.609 0c6.753.001 12.228 5.475 12.228 12.229v173.574c0 6.754-5.475 12.229-12.228 12.23-6.754 0-12.23-5.476-12.23-12.23V162.713c0-6.754 5.476-12.229 12.23-12.229zm-761.63 50.248c6.754 0 12.23 5.476 12.23 12.23v73.077c0 6.754-5.476 12.23-12.23 12.23-6.754-.001-12.229-5.476-12.229-12.23v-73.077c0-6.754 5.475-12.229 12.229-12.23zm326.413 0c6.754.001 12.228 5.476 12.228 12.23v73.077c0 6.754-5.474 12.229-12.228 12.23-6.754 0-12.23-5.476-12.23-12.23v-73.077c0-6.754 5.476-12.23 12.23-12.23zm163.206 0c6.754 0 12.229 5.476 12.229 12.23v73.077c0 6.754-5.475 12.23-12.229 12.23s-12.229-5.476-12.229-12.23v-73.077c0-6.754 5.475-12.23 12.229-12.23zm326.412 0c6.754 0 12.23 5.476 12.23 12.23v73.077c0 6.754-5.476 12.23-12.23 12.23-6.754-.001-12.228-5.476-12.228-12.23v-73.077c0-6.754 5.474-12.229 12.228-12.23zM12.541 237.583c6.581 0 11.917 5.336 11.917 11.917 0 6.582-5.335 11.917-11.917 11.917h-.624C5.335 261.417 0 256.082 0 249.5c0-6.581 5.336-11.917 11.917-11.917h.624zm435.217 0c6.581 0 11.917 5.336 11.917 11.917 0 6.582-5.336 11.917-11.917 11.917h-.624c-6.582 0-11.917-5.335-11.917-11.917 0-6.581 5.335-11.917 11.917-11.917h.624zm54.401 0c6.582 0 11.918 5.336 11.918 11.917 0 6.582-5.336 11.917-11.918 11.917h-.623c-6.582 0-11.917-5.335-11.917-11.917 0-6.581 5.336-11.917 11.917-11.917h.623zm435.217 0c6.582 0 11.918 5.336 11.918 11.917 0 6.582-5.336 11.917-11.918 11.917h-.623c-6.582 0-11.917-5.335-11.917-11.917 0-6.581 5.335-11.917 11.917-11.917h.623z" fill="url(#paint0_linear_653_9111)"/><defs><linearGradient id="paint0_linear_653_9111" x1="949.294" y1="133.061" x2=".953" y2="-26.311" gradientUnits="userSpaceOnUse"><stop stop-color="#206FE5" stop-opacity="0"/><stop offset="1" stop-color="#35FF89"/></linearGradient></defs></svg>