<svg width="80" height="80" fill="none" xmlns="http://www.w3.org/2000/svg"><path d="M42.258 14.351a2.376 2.376 0 100-4.751 2.376 2.376 0 000 4.751z" fill="url(#paint0_linear_634_2450)"/><path d="M37.732 19.103a2.074 2.074 0 100-4.148 2.074 2.074 0 000 4.148z" fill="url(#paint1_linear_634_2450)"/><path d="M32.944 27.626a1.395 1.395 0 100-2.79 1.395 1.395 0 000 2.79z" fill="url(#paint2_linear_634_2450)"/><path d="M34.414 23.176a1.622 1.622 0 100-3.243 1.622 1.622 0 000 3.243z" fill="url(#paint3_linear_634_2450)"/><path d="M32.566 31.623a1.207 1.207 0 100-2.413 1.207 1.207 0 000 2.413z" fill="url(#paint4_linear_634_2450)"/><path d="M34 34.829a1.018 1.018 0 10-.001-2.037 1.018 1.018 0 000 2.037z" fill="url(#paint5_linear_634_2450)"/><path d="M31.699 15.633a2.376 2.376 0 100-4.751 2.376 2.376 0 000 4.752z" fill="url(#paint6_linear_634_2450)"/><path d="M29.36 21.705a2.074 2.074 0 100-4.148 2.074 2.074 0 000 4.148z" fill="url(#paint7_linear_634_2450)"/><path d="M28.191 31.322a1.395 1.395 0 100-2.791 1.395 1.395 0 000 2.79z" fill="url(#paint8_linear_634_2450)"/><path d="M27.89 26.683a1.622 1.622 0 100-3.243 1.622 1.622 0 000 3.243z" fill="url(#paint9_linear_634_2450)"/><path d="M29.36 35.168a1.207 1.207 0 100-2.413 1.207 1.207 0 000 2.413z" fill="url(#paint10_linear_634_2450)"/><path d="M31.925 37.62a1.018 1.018 0 100-2.037 1.018 1.018 0 000 2.037z" fill="url(#paint11_linear_634_2450)"/><path d="M22.384 20.687a2.376 2.376 0 100-4.752 2.376 2.376 0 000 4.752z" fill="url(#paint12_linear_634_2450)"/><path d="M22.46 27.136a2.074 2.074 0 100-4.149 2.074 2.074 0 000 4.149z" fill="url(#paint13_linear_634_2450)"/><path d="M25.1 36.526a1.395 1.395 0 10-.001-2.79 1.395 1.395 0 000 2.79z" fill="url(#paint14_linear_634_2450)"/><path d="M23.063 32.302a1.622 1.622 0 100-3.243 1.622 1.622 0 000 3.243z" fill="url(#paint15_linear_634_2450)"/><path d="M27.626 39.656a1.207 1.207 0 100-2.414 1.207 1.207 0 000 2.414z" fill="url(#paint16_linear_634_2450)"/><path d="M30.982 41.014a1.018 1.018 0 100-2.037 1.018 1.018 0 000 2.037z" fill="url(#paint17_linear_634_2450)"/><path d="M15.482 28.757a2.376 2.376 0 100-4.752 2.376 2.376 0 000 4.752z" fill="url(#paint18_linear_634_2450)"/><path d="M18.01 34.716a2.074 2.074 0 100-4.149 2.074 2.074 0 000 4.149z" fill="url(#paint19_linear_634_2450)"/><path d="M24.081 42.447a1.395 1.395 0 100-2.791 1.395 1.395 0 000 2.79z" fill="url(#paint20_linear_634_2450)"/><path d="M20.574 39.279a1.622 1.622 0 100-3.243 1.622 1.622 0 000 3.243z" fill="url(#paint21_linear_634_2450)"/><path d="M27.664 44.446a1.207 1.207 0 100-2.414 1.207 1.207 0 000 2.414z" fill="url(#paint22_linear_634_2450)"/><path d="M31.36 44.52a1.018 1.018 0 100-2.035 1.018 1.018 0 000 2.036z" fill="url(#paint23_linear_634_2450)"/><path d="M11.976 38.751a2.376 2.376 0 100-4.752 2.376 2.376 0 000 4.752z" fill="url(#paint24_linear_634_2450)"/><path d="M16.576 43.39a2.074 2.074 0 100-4.149 2.074 2.074 0 000 4.149z" fill="url(#paint25_linear_634_2450)"/><path d="M25.326 48.368a1.395 1.395 0 100-2.791 1.395 1.395 0 000 2.79z" fill="url(#paint26_linear_634_2450)"/><path d="M20.8 46.708a1.622 1.622 0 100-3.243 1.622 1.622 0 000 3.243z" fill="url(#paint27_linear_634_2450)"/><path d="M29.436 48.933a1.207 1.207 0 100-2.413 1.207 1.207 0 000 2.413z" fill="url(#paint28_linear_634_2450)"/><path d="M32.943 47.613a1.018 1.018 0 100-2.036 1.018 1.018 0 000 2.036z" fill="url(#paint29_linear_634_2450)"/><path d="M12.315 49.348a2.376 2.376 0 100-4.752 2.376 2.376 0 000 4.752z" fill="url(#paint30_linear_634_2450)"/><path d="M18.387 51.988a2.074 2.074 0 100-4.148 2.074 2.074 0 000 4.148z" fill="url(#paint31_linear_634_2450)"/><path d="M28.57 53.421a1.395 1.395 0 100-2.79 1.395 1.395 0 000 2.79z" fill="url(#paint32_linear_634_2450)"/><path d="M23.704 53.534a1.622 1.622 0 100-3.243 1.622 1.622 0 000 3.243z" fill="url(#paint33_linear_634_2450)"/><path d="M32.68 52.44a1.207 1.207 0 100-2.413 1.207 1.207 0 000 2.413z" fill="url(#paint34_linear_634_2450)"/><path d="M35.546 49.952a1.018 1.018 0 100-2.037 1.018 1.018 0 000 2.037z" fill="url(#paint35_linear_634_2450)"/><path d="M16.463 59.115a2.376 2.376 0 100-4.751 2.376 2.376 0 000 4.752z" fill="url(#paint36_linear_634_2450)"/><path d="M23.176 59.38a2.074 2.074 0 100-4.149 2.074 2.074 0 000 4.148z" fill="url(#paint37_linear_634_2450)"/><path d="M33.433 56.966a1.395 1.395 0 100-2.79 1.395 1.395 0 000 2.79z" fill="url(#paint38_linear_634_2450)"/><path d="M28.832 58.852a1.622 1.622 0 100-3.244 1.622 1.622 0 000 3.244z" fill="url(#paint39_linear_634_2450)"/><path d="M36.978 54.552a1.207 1.207 0 100-2.413 1.207 1.207 0 000 2.413z" fill="url(#paint40_linear_634_2450)"/><path d="M38.826 51.196a1.018 1.018 0 100-2.037 1.018 1.018 0 000 2.037z" fill="url(#paint41_linear_634_2450)"/><path d="M23.854 66.733a2.376 2.376 0 100-4.751 2.376 2.376 0 000 4.751z" fill="url(#paint42_linear_634_2450)"/><path d="M30.341 64.508a2.074 2.074 0 100-4.148 2.074 2.074 0 000 4.148z" fill="url(#paint43_linear_634_2450)"/><path d="M39.279 58.512a1.395 1.395 0 100-2.79 1.395 1.395 0 000 2.79z" fill="url(#paint44_linear_634_2450)"/><path d="M35.583 61.944a1.622 1.622 0 100-3.243 1.622 1.622 0 000 3.243z" fill="url(#paint45_linear_634_2450)"/><path d="M41.768 55.005a1.207 1.207 0 100-2.414 1.207 1.207 0 000 2.414z" fill="url(#paint46_linear_634_2450)"/><path d="M42.333 51.158a1.018 1.018 0 100-2.036 1.018 1.018 0 000 2.036z" fill="url(#paint47_linear_634_2450)"/><path d="M33.471 71.146a2.376 2.376 0 100-4.752 2.376 2.376 0 000 4.752z" fill="url(#paint48_linear_634_2450)"/><path d="M38.826 66.696a2.074 2.074 0 100-4.149 2.074 2.074 0 000 4.149z" fill="url(#paint49_linear_634_2450)"/><path d="M45.275 57.871a1.395 1.395 0 100-2.79 1.395 1.395 0 000 2.79z" fill="url(#paint50_linear_634_2450)"/><path d="M42.974 62.396a1.622 1.622 0 100-3.243 1.622 1.622 0 000 3.243z" fill="url(#paint51_linear_634_2450)"/><path d="M46.369 53.647a1.207 1.207 0 100-2.413 1.207 1.207 0 000 2.413z" fill="url(#paint52_linear_634_2450)"/><path d="M45.615 49.876a1.018 1.018 0 100-2.036 1.018 1.018 0 000 2.036z" fill="url(#paint53_linear_634_2450)"/><path d="M44.068 71.824a2.376 2.376 0 100-4.751 2.376 2.376 0 000 4.751z" fill="url(#paint54_linear_634_2450)"/><path d="M47.576 65.715a2.074 2.074 0 100-4.148 2.074 2.074 0 000 4.148z" fill="url(#paint55_linear_634_2450)"/><path d="M50.593 55.08a1.395 1.395 0 100-2.79 1.395 1.395 0 000 2.79z" fill="url(#paint56_linear_634_2450)"/><path d="M50.027 60.171a1.622 1.622 0 100-3.243 1.622 1.622 0 000 3.243z" fill="url(#paint57_linear_634_2450)"/><path d="M50.215 50.743a1.207 1.207 0 100-2.413 1.207 1.207 0 000 2.413z" fill="url(#paint58_linear_634_2450)"/><path d="M48.179 47.462a1.018 1.018 0 100-2.036 1.018 1.018 0 000 2.036z" fill="url(#paint59_linear_634_2450)"/><path d="M54.176 68.581a2.376 2.376 0 100-4.751 2.376 2.376 0 000 4.751z" fill="url(#paint60_linear_634_2450)"/><path d="M55.344 61.605a2.074 2.074 0 100-4.149 2.074 2.074 0 000 4.148z" fill="url(#paint61_linear_634_2450)"/><path d="M54.59 50.555a1.395 1.395 0 100-2.79 1.395 1.395 0 000 2.79z" fill="url(#paint62_linear_634_2450)"/><path d="M55.797 55.533a1.622 1.622 0 100-3.243 1.622 1.622 0 000 3.243z" fill="url(#paint63_linear_634_2450)"/><path d="M52.705 46.633a1.207 1.207 0 100-2.414 1.207 1.207 0 000 2.414z" fill="url(#paint64_linear_634_2450)"/><path d="M49.688 44.332a1.018 1.018 0 100-2.036 1.018 1.018 0 000 2.036z" fill="url(#paint65_linear_634_2450)"/><path d="M62.434 61.906a2.376 2.376 0 100-4.752 2.376 2.376 0 000 4.752z" fill="url(#paint66_linear_634_2450)"/><path d="M61.114 54.967a2.074 2.074 0 100-4.148 2.074 2.074 0 000 4.148z" fill="url(#paint67_linear_634_2450)"/><path d="M56.664 44.898a1.395 1.395 0 100-2.79 1.395 1.395 0 000 2.79z" fill="url(#paint68_linear_634_2450)"/><path d="M59.493 49.122a1.622 1.622 0 100-3.244 1.622 1.622 0 000 3.244z" fill="url(#paint69_linear_634_2450)"/><path d="M53.571 41.919a1.207 1.207 0 100-2.414 1.207 1.207 0 000 2.414z" fill="url(#paint70_linear_634_2450)"/><path d="M49.989 40.825a1.018 1.018 0 100-2.036 1.018 1.018 0 000 2.036z" fill="url(#paint71_linear_634_2450)"/><path d="M67.752 52.742a2.376 2.376 0 100-4.752 2.376 2.376 0 000 4.752z" fill="url(#paint72_linear_634_2450)"/><path d="M64.093 46.708a2.074 2.074 0 100-4.148 2.074 2.074 0 000 4.148z" fill="url(#paint73_linear_634_2450)"/><path d="M56.55 38.902a1.395 1.395 0 100-2.791 1.395 1.395 0 000 2.79z" fill="url(#paint74_linear_634_2450)"/><path d="M60.661 41.806a1.622 1.622 0 100-3.244 1.622 1.622 0 000 3.244z" fill="url(#paint75_linear_634_2450)"/><path d="M52.666 37.205a1.207 1.207 0 100-2.414 1.207 1.207 0 000 2.414z" fill="url(#paint76_linear_634_2450)"/><path d="M49.008 37.469a1.018 1.018 0 100-2.037 1.018 1.018 0 000 2.037z" fill="url(#paint77_linear_634_2450)"/><path d="M69.374 42.258a2.376 2.376 0 100-4.751 2.376 2.376 0 000 4.751z" fill="url(#paint78_linear_634_2450)"/><path d="M63.905 37.921a2.074 2.074 0 100-4.148 2.074 2.074 0 000 4.148z" fill="url(#paint79_linear_634_2450)"/><path d="M54.288 33.32a1.395 1.395 0 100-2.79 1.395 1.395 0 000 2.79z" fill="url(#paint80_linear_634_2450)"/><path d="M59.078 34.565a1.622 1.622 0 100-3.243 1.622 1.622 0 000 3.243z" fill="url(#paint81_linear_634_2450)"/><path d="M50.103 33.132a1.207 1.207 0 100-2.414 1.207 1.207 0 000 2.414z" fill="url(#paint82_linear_634_2450)"/><path d="M46.86 34.678a1.018 1.018 0 100-2.036 1.018 1.018 0 000 2.036z" fill="url(#paint83_linear_634_2450)"/><path d="M67.073 31.887a2.376 2.376 0 100-4.751 2.376 2.376 0 000 4.751z" fill="url(#paint84_linear_634_2450)"/><path d="M60.548 29.813a2.074 2.074 0 100-4.148 2.074 2.074 0 000 4.148z" fill="url(#paint85_linear_634_2450)"/><path d="M50.14 28.908a1.395 1.395 0 100-2.79 1.395 1.395 0 000 2.79z" fill="url(#paint86_linear_634_2450)"/><path d="M54.968 28.38a1.622 1.622 0 100-3.243 1.622 1.622 0 000 3.243z" fill="url(#paint87_linear_634_2450)"/><path d="M46.256 30.266a1.207 1.207 0 100-2.414 1.207 1.207 0 000 2.414z" fill="url(#paint88_linear_634_2450)"/><path d="M43.842 32.868a1.018 1.018 0 100-2.037 1.018 1.018 0 000 2.037z" fill="url(#paint89_linear_634_2450)"/><path d="M61.189 23.025a2.376 2.376 0 100-4.751 2.376 2.376 0 000 4.751z" fill="url(#paint90_linear_634_2450)"/><path d="M54.476 23.44a2.074 2.074 0 100-4.149 2.074 2.074 0 000 4.149z" fill="url(#paint91_linear_634_2450)"/><path d="M44.71 26.344a1.395 1.395 0 100-2.791 1.395 1.395 0 000 2.79z" fill="url(#paint92_linear_634_2450)"/><path d="M48.933 24.119a1.622 1.622 0 100-3.244 1.622 1.622 0 000 3.244z" fill="url(#paint93_linear_634_2450)"/><path d="M41.617 28.984a1.207 1.207 0 100-2.414 1.207 1.207 0 000 2.414z" fill="url(#paint94_linear_634_2450)"/><path d="M40.41 32.264a1.018 1.018 0 100-2.036 1.018 1.018 0 000 2.036z" fill="url(#paint95_linear_634_2450)"/><path d="M52.554 16.916a2.376 2.376 0 100-4.752 2.376 2.376 0 000 4.752z" fill="url(#paint96_linear_634_2450)"/><path d="M46.52 19.706a2.074 2.074 0 100-4.148 2.074 2.074 0 000 4.148z" fill="url(#paint97_linear_634_2450)"/><path d="M38.713 25.891a1.395 1.395 0 100-2.79 1.395 1.395 0 000 2.79z" fill="url(#paint98_linear_634_2450)"/><path d="M41.767 22.27a1.622 1.622 0 100-3.242 1.622 1.622 0 000 3.243z" fill="url(#paint99_linear_634_2450)"/><path d="M36.865 29.436a1.207 1.207 0 100-2.414 1.207 1.207 0 000 2.414z" fill="url(#paint100_linear_634_2450)"/><path d="M36.978 32.943a1.018 1.018 0 100-2.036 1.018 1.018 0 000 2.036z" fill="url(#paint101_linear_634_2450)"/><defs><linearGradient id="paint0_linear_634_2450" x1="-7.758" y1="22.818" x2="54.721" y2="110.951" gradientUnits="userSpaceOnUse"><stop stop-color="#35FF89"/><stop offset="1" stop-color="#3177F3"/></linearGradient><linearGradient id="paint1_linear_634_2450" x1="-7.758" y1="22.818" x2="54.721" y2="110.951" gradientUnits="userSpaceOnUse"><stop stop-color="#35FF89"/><stop offset="1" stop-color="#3177F3"/></linearGradient><linearGradient id="paint2_linear_634_2450" x1="-7.758" y1="22.818" x2="54.721" y2="110.951" gradientUnits="userSpaceOnUse"><stop stop-color="#35FF89"/><stop offset="1" stop-color="#3177F3"/></linearGradient><linearGradient id="paint3_linear_634_2450" x1="-7.758" y1="22.818" x2="54.721" y2="110.951" gradientUnits="userSpaceOnUse"><stop stop-color="#35FF89"/><stop offset="1" stop-color="#3177F3"/></linearGradient><linearGradient id="paint4_linear_634_2450" x1="-7.758" y1="22.818" x2="54.721" y2="110.951" gradientUnits="userSpaceOnUse"><stop stop-color="#35FF89"/><stop offset="1" stop-color="#3177F3"/></linearGradient><linearGradient id="paint5_linear_634_2450" x1="-7.758" y1="22.818" x2="54.721" y2="110.951" gradientUnits="userSpaceOnUse"><stop stop-color="#35FF89"/><stop offset="1" stop-color="#3177F3"/></linearGradient><linearGradient id="paint6_linear_634_2450" x1="-7.758" y1="22.818" x2="54.721" y2="110.951" gradientUnits="userSpaceOnUse"><stop stop-color="#35FF89"/><stop offset="1" stop-color="#3177F3"/></linearGradient><linearGradient id="paint7_linear_634_2450" x1="-7.758" y1="22.818" x2="54.721" y2="110.951" gradientUnits="userSpaceOnUse"><stop stop-color="#35FF89"/><stop offset="1" stop-color="#3177F3"/></linearGradient><linearGradient id="paint8_linear_634_2450" x1="-7.758" y1="22.818" x2="54.721" y2="110.951" gradientUnits="userSpaceOnUse"><stop stop-color="#35FF89"/><stop offset="1" stop-color="#3177F3"/></linearGradient><linearGradient id="paint9_linear_634_2450" x1="-7.758" y1="22.818" x2="54.721" y2="110.951" gradientUnits="userSpaceOnUse"><stop stop-color="#35FF89"/><stop offset="1" stop-color="#3177F3"/></linearGradient><linearGradient id="paint10_linear_634_2450" x1="-7.758" y1="22.818" x2="54.721" y2="110.951" gradientUnits="userSpaceOnUse"><stop stop-color="#35FF89"/><stop offset="1" stop-color="#3177F3"/></linearGradient><linearGradient id="paint11_linear_634_2450" x1="-7.758" y1="22.818" x2="54.721" y2="110.951" gradientUnits="userSpaceOnUse"><stop stop-color="#35FF89"/><stop offset="1" stop-color="#3177F3"/></linearGradient><linearGradient id="paint12_linear_634_2450" x1="-7.758" y1="22.818" x2="54.721" y2="110.951" gradientUnits="userSpaceOnUse"><stop stop-color="#35FF89"/><stop offset="1" stop-color="#3177F3"/></linearGradient><linearGradient id="paint13_linear_634_2450" x1="-7.758" y1="22.818" x2="54.721" y2="110.951" gradientUnits="userSpaceOnUse"><stop stop-color="#35FF89"/><stop offset="1" stop-color="#3177F3"/></linearGradient><linearGradient id="paint14_linear_634_2450" x1="-7.758" y1="22.818" x2="54.721" y2="110.951" gradientUnits="userSpaceOnUse"><stop stop-color="#35FF89"/><stop offset="1" stop-color="#3177F3"/></linearGradient><linearGradient id="paint15_linear_634_2450" x1="-7.758" y1="22.818" x2="54.721" y2="110.951" gradientUnits="userSpaceOnUse"><stop stop-color="#35FF89"/><stop offset="1" stop-color="#3177F3"/></linearGradient><linearGradient id="paint16_linear_634_2450" x1="-7.758" y1="22.818" x2="54.721" y2="110.951" gradientUnits="userSpaceOnUse"><stop stop-color="#35FF89"/><stop offset="1" stop-color="#3177F3"/></linearGradient><linearGradient id="paint17_linear_634_2450" x1="-7.758" y1="22.818" x2="54.721" y2="110.951" gradientUnits="userSpaceOnUse"><stop stop-color="#35FF89"/><stop offset="1" stop-color="#3177F3"/></linearGradient><linearGradient id="paint18_linear_634_2450" x1="-7.758" y1="22.818" x2="54.721" y2="110.951" gradientUnits="userSpaceOnUse"><stop stop-color="#35FF89"/><stop offset="1" stop-color="#3177F3"/></linearGradient><linearGradient id="paint19_linear_634_2450" x1="-7.758" y1="22.818" x2="54.721" y2="110.951" gradientUnits="userSpaceOnUse"><stop stop-color="#35FF89"/><stop offset="1" stop-color="#3177F3"/></linearGradient><linearGradient id="paint20_linear_634_2450" x1="-7.758" y1="22.818" x2="54.721" y2="110.951" gradientUnits="userSpaceOnUse"><stop stop-color="#35FF89"/><stop offset="1" stop-color="#3177F3"/></linearGradient><linearGradient id="paint21_linear_634_2450" x1="-7.758" y1="22.818" x2="54.721" y2="110.951" gradientUnits="userSpaceOnUse"><stop stop-color="#35FF89"/><stop offset="1" stop-color="#3177F3"/></linearGradient><linearGradient id="paint22_linear_634_2450" x1="-7.758" y1="22.818" x2="54.721" y2="110.951" gradientUnits="userSpaceOnUse"><stop stop-color="#35FF89"/><stop offset="1" stop-color="#3177F3"/></linearGradient><linearGradient id="paint23_linear_634_2450" x1="-7.758" y1="22.818" x2="54.721" y2="110.951" gradientUnits="userSpaceOnUse"><stop stop-color="#35FF89"/><stop offset="1" stop-color="#3177F3"/></linearGradient><linearGradient id="paint24_linear_634_2450" x1="-7.758" y1="22.818" x2="54.721" y2="110.951" gradientUnits="userSpaceOnUse"><stop stop-color="#35FF89"/><stop offset="1" stop-color="#3177F3"/></linearGradient><linearGradient id="paint25_linear_634_2450" x1="-7.758" y1="22.818" x2="54.721" y2="110.951" gradientUnits="userSpaceOnUse"><stop stop-color="#35FF89"/><stop offset="1" stop-color="#3177F3"/></linearGradient><linearGradient id="paint26_linear_634_2450" x1="-7.758" y1="22.818" x2="54.721" y2="110.951" gradientUnits="userSpaceOnUse"><stop stop-color="#35FF89"/><stop offset="1" stop-color="#3177F3"/></linearGradient><linearGradient id="paint27_linear_634_2450" x1="-7.758" y1="22.818" x2="54.721" y2="110.951" gradientUnits="userSpaceOnUse"><stop stop-color="#35FF89"/><stop offset="1" stop-color="#3177F3"/></linearGradient><linearGradient id="paint28_linear_634_2450" x1="-7.758" y1="22.818" x2="54.721" y2="110.951" gradientUnits="userSpaceOnUse"><stop stop-color="#35FF89"/><stop offset="1" stop-color="#3177F3"/></linearGradient><linearGradient id="paint29_linear_634_2450" x1="-7.758" y1="22.818" x2="54.721" y2="110.951" gradientUnits="userSpaceOnUse"><stop stop-color="#35FF89"/><stop offset="1" stop-color="#3177F3"/></linearGradient><linearGradient id="paint30_linear_634_2450" x1="-7.758" y1="22.818" x2="54.721" y2="110.951" gradientUnits="userSpaceOnUse"><stop stop-color="#35FF89"/><stop offset="1" stop-color="#3177F3"/></linearGradient><linearGradient id="paint31_linear_634_2450" x1="-7.758" y1="22.818" x2="54.721" y2="110.951" gradientUnits="userSpaceOnUse"><stop stop-color="#35FF89"/><stop offset="1" stop-color="#3177F3"/></linearGradient><linearGradient id="paint32_linear_634_2450" x1="-7.758" y1="22.818" x2="54.721" y2="110.951" gradientUnits="userSpaceOnUse"><stop stop-color="#35FF89"/><stop offset="1" stop-color="#3177F3"/></linearGradient><linearGradient id="paint33_linear_634_2450" x1="-7.758" y1="22.818" x2="54.721" y2="110.951" gradientUnits="userSpaceOnUse"><stop stop-color="#35FF89"/><stop offset="1" stop-color="#3177F3"/></linearGradient><linearGradient id="paint34_linear_634_2450" x1="-7.758" y1="22.818" x2="54.721" y2="110.951" gradientUnits="userSpaceOnUse"><stop stop-color="#35FF89"/><stop offset="1" stop-color="#3177F3"/></linearGradient><linearGradient id="paint35_linear_634_2450" x1="-7.758" y1="22.818" x2="54.721" y2="110.951" gradientUnits="userSpaceOnUse"><stop stop-color="#35FF89"/><stop offset="1" stop-color="#3177F3"/></linearGradient><linearGradient id="paint36_linear_634_2450" x1="-7.758" y1="22.818" x2="54.721" y2="110.951" gradientUnits="userSpaceOnUse"><stop stop-color="#35FF89"/><stop offset="1" stop-color="#3177F3"/></linearGradient><linearGradient id="paint37_linear_634_2450" x1="-7.758" y1="22.818" x2="54.721" y2="110.951" gradientUnits="userSpaceOnUse"><stop stop-color="#35FF89"/><stop offset="1" stop-color="#3177F3"/></linearGradient><linearGradient id="paint38_linear_634_2450" x1="-7.758" y1="22.818" x2="54.721" y2="110.951" gradientUnits="userSpaceOnUse"><stop stop-color="#35FF89"/><stop offset="1" stop-color="#3177F3"/></linearGradient><linearGradient id="paint39_linear_634_2450" x1="-7.758" y1="22.818" x2="54.721" y2="110.951" gradientUnits="userSpaceOnUse"><stop stop-color="#35FF89"/><stop offset="1" stop-color="#3177F3"/></linearGradient><linearGradient id="paint40_linear_634_2450" x1="-7.758" y1="22.818" x2="54.721" y2="110.951" gradientUnits="userSpaceOnUse"><stop stop-color="#35FF89"/><stop offset="1" stop-color="#3177F3"/></linearGradient><linearGradient id="paint41_linear_634_2450" x1="-7.758" y1="22.818" x2="54.721" y2="110.951" gradientUnits="userSpaceOnUse"><stop stop-color="#35FF89"/><stop offset="1" stop-color="#3177F3"/></linearGradient><linearGradient id="paint42_linear_634_2450" x1="-7.758" y1="22.818" x2="54.721" y2="110.951" gradientUnits="userSpaceOnUse"><stop stop-color="#35FF89"/><stop offset="1" stop-color="#3177F3"/></linearGradient><linearGradient id="paint43_linear_634_2450" x1="-7.758" y1="22.818" x2="54.721" y2="110.951" gradientUnits="userSpaceOnUse"><stop stop-color="#35FF89"/><stop offset="1" stop-color="#3177F3"/></linearGradient><linearGradient id="paint44_linear_634_2450" x1="-7.758" y1="22.818" x2="54.721" y2="110.951" gradientUnits="userSpaceOnUse"><stop stop-color="#35FF89"/><stop offset="1" stop-color="#3177F3"/></linearGradient><linearGradient id="paint45_linear_634_2450" x1="-7.758" y1="22.818" x2="54.721" y2="110.951" gradientUnits="userSpaceOnUse"><stop stop-color="#35FF89"/><stop offset="1" stop-color="#3177F3"/></linearGradient><linearGradient id="paint46_linear_634_2450" x1="-7.758" y1="22.818" x2="54.721" y2="110.951" gradientUnits="userSpaceOnUse"><stop stop-color="#35FF89"/><stop offset="1" stop-color="#3177F3"/></linearGradient><linearGradient id="paint47_linear_634_2450" x1="-7.758" y1="22.818" x2="54.721" y2="110.951" gradientUnits="userSpaceOnUse"><stop stop-color="#35FF89"/><stop offset="1" stop-color="#3177F3"/></linearGradient><linearGradient id="paint48_linear_634_2450" x1="-7.758" y1="22.818" x2="54.721" y2="110.951" gradientUnits="userSpaceOnUse"><stop stop-color="#35FF89"/><stop offset="1" stop-color="#3177F3"/></linearGradient><linearGradient id="paint49_linear_634_2450" x1="-7.758" y1="22.818" x2="54.721" y2="110.951" gradientUnits="userSpaceOnUse"><stop stop-color="#35FF89"/><stop offset="1" stop-color="#3177F3"/></linearGradient><linearGradient id="paint50_linear_634_2450" x1="-7.758" y1="22.818" x2="54.721" y2="110.951" gradientUnits="userSpaceOnUse"><stop stop-color="#35FF89"/><stop offset="1" stop-color="#3177F3"/></linearGradient><linearGradient id="paint51_linear_634_2450" x1="-7.758" y1="22.818" x2="54.721" y2="110.951" gradientUnits="userSpaceOnUse"><stop stop-color="#35FF89"/><stop offset="1" stop-color="#3177F3"/></linearGradient><linearGradient id="paint52_linear_634_2450" x1="-7.758" y1="22.818" x2="54.721" y2="110.951" gradientUnits="userSpaceOnUse"><stop stop-color="#35FF89"/><stop offset="1" stop-color="#3177F3"/></linearGradient><linearGradient id="paint53_linear_634_2450" x1="-7.758" y1="22.818" x2="54.721" y2="110.951" gradientUnits="userSpaceOnUse"><stop stop-color="#35FF89"/><stop offset="1" stop-color="#3177F3"/></linearGradient><linearGradient id="paint54_linear_634_2450" x1="-7.758" y1="22.818" x2="54.721" y2="110.951" gradientUnits="userSpaceOnUse"><stop stop-color="#35FF89"/><stop offset="1" stop-color="#3177F3"/></linearGradient><linearGradient id="paint55_linear_634_2450" x1="-7.758" y1="22.818" x2="54.721" y2="110.951" gradientUnits="userSpaceOnUse"><stop stop-color="#35FF89"/><stop offset="1" stop-color="#3177F3"/></linearGradient><linearGradient id="paint56_linear_634_2450" x1="-7.758" y1="22.818" x2="54.721" y2="110.951" gradientUnits="userSpaceOnUse"><stop stop-color="#35FF89"/><stop offset="1" stop-color="#3177F3"/></linearGradient><linearGradient id="paint57_linear_634_2450" x1="-7.758" y1="22.818" x2="54.721" y2="110.951" gradientUnits="userSpaceOnUse"><stop stop-color="#35FF89"/><stop offset="1" stop-color="#3177F3"/></linearGradient><linearGradient id="paint58_linear_634_2450" x1="-7.758" y1="22.818" x2="54.721" y2="110.951" gradientUnits="userSpaceOnUse"><stop stop-color="#35FF89"/><stop offset="1" stop-color="#3177F3"/></linearGradient><linearGradient id="paint59_linear_634_2450" x1="-7.758" y1="22.818" x2="54.721" y2="110.951" gradientUnits="userSpaceOnUse"><stop stop-color="#35FF89"/><stop offset="1" stop-color="#3177F3"/></linearGradient><linearGradient id="paint60_linear_634_2450" x1="-7.758" y1="22.818" x2="54.721" y2="110.951" gradientUnits="userSpaceOnUse"><stop stop-color="#35FF89"/><stop offset="1" stop-color="#3177F3"/></linearGradient><linearGradient id="paint61_linear_634_2450" x1="-7.758" y1="22.818" x2="54.721" y2="110.951" gradientUnits="userSpaceOnUse"><stop stop-color="#35FF89"/><stop offset="1" stop-color="#3177F3"/></linearGradient><linearGradient id="paint62_linear_634_2450" x1="-7.758" y1="22.818" x2="54.721" y2="110.951" gradientUnits="userSpaceOnUse"><stop stop-color="#35FF89"/><stop offset="1" stop-color="#3177F3"/></linearGradient><linearGradient id="paint63_linear_634_2450" x1="-7.758" y1="22.818" x2="54.721" y2="110.951" gradientUnits="userSpaceOnUse"><stop stop-color="#35FF89"/><stop offset="1" stop-color="#3177F3"/></linearGradient><linearGradient id="paint64_linear_634_2450" x1="-7.758" y1="22.818" x2="54.721" y2="110.951" gradientUnits="userSpaceOnUse"><stop stop-color="#35FF89"/><stop offset="1" stop-color="#3177F3"/></linearGradient><linearGradient id="paint65_linear_634_2450" x1="-7.758" y1="22.818" x2="54.721" y2="110.951" gradientUnits="userSpaceOnUse"><stop stop-color="#35FF89"/><stop offset="1" stop-color="#3177F3"/></linearGradient><linearGradient id="paint66_linear_634_2450" x1="-7.758" y1="22.818" x2="54.721" y2="110.951" gradientUnits="userSpaceOnUse"><stop stop-color="#35FF89"/><stop offset="1" stop-color="#3177F3"/></linearGradient><linearGradient id="paint67_linear_634_2450" x1="-7.758" y1="22.818" x2="54.721" y2="110.951" gradientUnits="userSpaceOnUse"><stop stop-color="#35FF89"/><stop offset="1" stop-color="#3177F3"/></linearGradient><linearGradient id="paint68_linear_634_2450" x1="-7.758" y1="22.818" x2="54.721" y2="110.951" gradientUnits="userSpaceOnUse"><stop stop-color="#35FF89"/><stop offset="1" stop-color="#3177F3"/></linearGradient><linearGradient id="paint69_linear_634_2450" x1="-7.758" y1="22.818" x2="54.721" y2="110.951" gradientUnits="userSpaceOnUse"><stop stop-color="#35FF89"/><stop offset="1" stop-color="#3177F3"/></linearGradient><linearGradient id="paint70_linear_634_2450" x1="-7.758" y1="22.818" x2="54.721" y2="110.951" gradientUnits="userSpaceOnUse"><stop stop-color="#35FF89"/><stop offset="1" stop-color="#3177F3"/></linearGradient><linearGradient id="paint71_linear_634_2450" x1="-7.758" y1="22.818" x2="54.721" y2="110.951" gradientUnits="userSpaceOnUse"><stop stop-color="#35FF89"/><stop offset="1" stop-color="#3177F3"/></linearGradient><linearGradient id="paint72_linear_634_2450" x1="-7.758" y1="22.818" x2="54.721" y2="110.951" gradientUnits="userSpaceOnUse"><stop stop-color="#35FF89"/><stop offset="1" stop-color="#3177F3"/></linearGradient><linearGradient id="paint73_linear_634_2450" x1="-7.758" y1="22.818" x2="54.721" y2="110.951" gradientUnits="userSpaceOnUse"><stop stop-color="#35FF89"/><stop offset="1" stop-color="#3177F3"/></linearGradient><linearGradient id="paint74_linear_634_2450" x1="-7.758" y1="22.818" x2="54.721" y2="110.951" gradientUnits="userSpaceOnUse"><stop stop-color="#35FF89"/><stop offset="1" stop-color="#3177F3"/></linearGradient><linearGradient id="paint75_linear_634_2450" x1="-7.758" y1="22.818" x2="54.721" y2="110.951" gradientUnits="userSpaceOnUse"><stop stop-color="#35FF89"/><stop offset="1" stop-color="#3177F3"/></linearGradient><linearGradient id="paint76_linear_634_2450" x1="-7.758" y1="22.818" x2="54.721" y2="110.951" gradientUnits="userSpaceOnUse"><stop stop-color="#35FF89"/><stop offset="1" stop-color="#3177F3"/></linearGradient><linearGradient id="paint77_linear_634_2450" x1="-7.758" y1="22.818" x2="54.721" y2="110.951" gradientUnits="userSpaceOnUse"><stop stop-color="#35FF89"/><stop offset="1" stop-color="#3177F3"/></linearGradient><linearGradient id="paint78_linear_634_2450" x1="-7.758" y1="22.818" x2="54.721" y2="110.951" gradientUnits="userSpaceOnUse"><stop stop-color="#35FF89"/><stop offset="1" stop-color="#3177F3"/></linearGradient><linearGradient id="paint79_linear_634_2450" x1="-7.758" y1="22.818" x2="54.721" y2="110.951" gradientUnits="userSpaceOnUse"><stop stop-color="#35FF89"/><stop offset="1" stop-color="#3177F3"/></linearGradient><linearGradient id="paint80_linear_634_2450" x1="-7.758" y1="22.818" x2="54.721" y2="110.951" gradientUnits="userSpaceOnUse"><stop stop-color="#35FF89"/><stop offset="1" stop-color="#3177F3"/></linearGradient><linearGradient id="paint81_linear_634_2450" x1="-7.758" y1="22.818" x2="54.721" y2="110.951" gradientUnits="userSpaceOnUse"><stop stop-color="#35FF89"/><stop offset="1" stop-color="#3177F3"/></linearGradient><linearGradient id="paint82_linear_634_2450" x1="-7.758" y1="22.818" x2="54.721" y2="110.951" gradientUnits="userSpaceOnUse"><stop stop-color="#35FF89"/><stop offset="1" stop-color="#3177F3"/></linearGradient><linearGradient id="paint83_linear_634_2450" x1="-7.758" y1="22.818" x2="54.721" y2="110.951" gradientUnits="userSpaceOnUse"><stop stop-color="#35FF89"/><stop offset="1" stop-color="#3177F3"/></linearGradient><linearGradient id="paint84_linear_634_2450" x1="-7.758" y1="22.818" x2="54.721" y2="110.951" gradientUnits="userSpaceOnUse"><stop stop-color="#35FF89"/><stop offset="1" stop-color="#3177F3"/></linearGradient><linearGradient id="paint85_linear_634_2450" x1="-7.758" y1="22.818" x2="54.721" y2="110.951" gradientUnits="userSpaceOnUse"><stop stop-color="#35FF89"/><stop offset="1" stop-color="#3177F3"/></linearGradient><linearGradient id="paint86_linear_634_2450" x1="-7.758" y1="22.818" x2="54.721" y2="110.951" gradientUnits="userSpaceOnUse"><stop stop-color="#35FF89"/><stop offset="1" stop-color="#3177F3"/></linearGradient><linearGradient id="paint87_linear_634_2450" x1="-7.758" y1="22.818" x2="54.721" y2="110.951" gradientUnits="userSpaceOnUse"><stop stop-color="#35FF89"/><stop offset="1" stop-color="#3177F3"/></linearGradient><linearGradient id="paint88_linear_634_2450" x1="-7.758" y1="22.818" x2="54.721" y2="110.951" gradientUnits="userSpaceOnUse"><stop stop-color="#35FF89"/><stop offset="1" stop-color="#3177F3"/></linearGradient><linearGradient id="paint89_linear_634_2450" x1="-7.758" y1="22.818" x2="54.721" y2="110.951" gradientUnits="userSpaceOnUse"><stop stop-color="#35FF89"/><stop offset="1" stop-color="#3177F3"/></linearGradient><linearGradient id="paint90_linear_634_2450" x1="-7.758" y1="22.818" x2="54.721" y2="110.951" gradientUnits="userSpaceOnUse"><stop stop-color="#35FF89"/><stop offset="1" stop-color="#3177F3"/></linearGradient><linearGradient id="paint91_linear_634_2450" x1="-7.758" y1="22.818" x2="54.721" y2="110.951" gradientUnits="userSpaceOnUse"><stop stop-color="#35FF89"/><stop offset="1" stop-color="#3177F3"/></linearGradient><linearGradient id="paint92_linear_634_2450" x1="-7.758" y1="22.818" x2="54.721" y2="110.951" gradientUnits="userSpaceOnUse"><stop stop-color="#35FF89"/><stop offset="1" stop-color="#3177F3"/></linearGradient><linearGradient id="paint93_linear_634_2450" x1="-7.758" y1="22.818" x2="54.721" y2="110.951" gradientUnits="userSpaceOnUse"><stop stop-color="#35FF89"/><stop offset="1" stop-color="#3177F3"/></linearGradient><linearGradient id="paint94_linear_634_2450" x1="-7.758" y1="22.818" x2="54.721" y2="110.951" gradientUnits="userSpaceOnUse"><stop stop-color="#35FF89"/><stop offset="1" stop-color="#3177F3"/></linearGradient><linearGradient id="paint95_linear_634_2450" x1="-7.758" y1="22.818" x2="54.721" y2="110.951" gradientUnits="userSpaceOnUse"><stop stop-color="#35FF89"/><stop offset="1" stop-color="#3177F3"/></linearGradient><linearGradient id="paint96_linear_634_2450" x1="-7.758" y1="22.818" x2="54.721" y2="110.951" gradientUnits="userSpaceOnUse"><stop stop-color="#35FF89"/><stop offset="1" stop-color="#3177F3"/></linearGradient><linearGradient id="paint97_linear_634_2450" x1="-7.758" y1="22.818" x2="54.721" y2="110.951" gradientUnits="userSpaceOnUse"><stop stop-color="#35FF89"/><stop offset="1" stop-color="#3177F3"/></linearGradient><linearGradient id="paint98_linear_634_2450" x1="-7.758" y1="22.818" x2="54.721" y2="110.951" gradientUnits="userSpaceOnUse"><stop stop-color="#35FF89"/><stop offset="1" stop-color="#3177F3"/></linearGradient><linearGradient id="paint99_linear_634_2450" x1="-7.758" y1="22.818" x2="54.721" y2="110.951" gradientUnits="userSpaceOnUse"><stop stop-color="#35FF89"/><stop offset="1" stop-color="#3177F3"/></linearGradient><linearGradient id="paint100_linear_634_2450" x1="-7.758" y1="22.818" x2="54.721" y2="110.951" gradientUnits="userSpaceOnUse"><stop stop-color="#35FF89"/><stop offset="1" stop-color="#3177F3"/></linearGradient><linearGradient id="paint101_linear_634_2450" x1="-7.758" y1="22.818" x2="54.721" y2="110.951" gradientUnits="userSpaceOnUse"><stop stop-color="#35FF89"/><stop offset="1" stop-color="#3177F3"/></linearGradient></defs></svg>