<svg width="89" height="88" fill="none" xmlns="http://www.w3.org/2000/svg"><circle cx="44.001" cy="44.001" r="34.2" stroke="#0D1A35" stroke-width="2"/><mask id="a" style="mask-type:alpha" maskUnits="userSpaceOnUse" x="8" y="44" width="72" height="36"><path d="M79.2 44a35.2 35.2 0 01-70.4 0h18.194a17.006 17.006 0 0034.013 0h18.194z" fill="#D9D9D9"/></mask><g mask="url(#a)" stroke="#0D1A35" stroke-width="2"><path d="M5.744 44.762h77.514M5.744 62.361h77.514M5.744 68.227h77.514M5.744 74.094h77.514M5.744 79.961h77.514"/></g><mask id="b" style="mask-type:alpha" maskUnits="userSpaceOnUse" x="26" y="26" width="36" height="18"><path d="M26.664 44a17.336 17.336 0 1134.672 0H26.664z" fill="#D9D9D9"/></mask><g mask="url(#b)"><path stroke="#0D1A35" stroke-width="2" d="M5.744 44.76h77.514"/></g><path stroke="#0D1A35" stroke-width="2" d="M10.76 44.76h67.48"/><path stroke="#0D1A35" stroke-width="2" stroke-linecap="round" d="M38.154 27.16h12.692m-19.084 5.867H57.24m-28.131 5.866h30.78M11.438 50.627h16.505m32.928 0h16.805m-64.688 5.867h19.965m22.908 0h19.863"/></svg>