<svg width="89" height="88" fill="none" xmlns="http://www.w3.org/2000/svg"><g clip-path="url(#clip0_634_2627)"><path d="M70.024 68.74c13.109-13.79 12.898-35.598-.634-49.13l-.65-.633c-13.79-13.11-35.6-12.898-49.13.633l-.635.652c-12.9 13.571-12.9 34.907 0 48.478l.635.651c13.746 13.746 36.034 13.746 49.78 0l.634-.65zm-50.018-1.83C8.07 53.885 8.408 33.64 21.024 21.026c10.118-10.119 25.142-12.34 37.415-6.665-8.244-2.236-17.423-.12-23.896 6.354l-.443.456c-8.655 9.105-9.014 23.203-1.077 32.723L20.006 66.911zm14.437-14.436c-7.293-8.893-6.789-22.042 1.514-30.346 7.338-7.337 18.459-8.585 27.084-3.743a13.19 13.19 0 00-12.319 3.523l-.237.245c-4.185 4.402-4.75 10.983-1.695 15.973L34.443 52.474zm15.812-15.812c-2.357-4.259-1.732-9.726 1.882-13.34 3.613-3.613 9.08-4.238 13.339-1.881l-15.221 15.22zm17.721 31.315c-12.841 12.84-33.582 12.962-46.575.367L34.366 55.38l.178.181c9.622 9.622 25.223 9.622 34.846 0l.444-.456c5.158-5.425 7.37-12.625 6.636-19.571 3.122 11.171.293 23.657-8.494 32.444zm0-13.831c-8.842 8.84-23.177 8.841-32.018 0-.06-.06-.118-.121-.177-.182l14.197-14.197c.163.192.33.381.506.566l.238.243c5.155 5.155 13.513 5.155 18.668 0l.239-.243a13.167 13.167 0 003.593-10.003c2.941 8.023 1.193 17.376-5.247 23.816zm0-14.984c-4.374 4.374-11.465 4.374-15.84 0a11.328 11.328 0 01-.738-.815L67.16 22.584c.28.23.553.477.815.739 4.374 4.373 4.374 11.465 0 15.84z" fill="#0D1A35"/></g><defs><clipPath id="clip0_634_2627"><path fill="#fff" transform="matrix(0 -1 -1 0 88.5 88)" d="M0 0h88v88H0z"/></clipPath></defs></svg>