<svg width="80" height="80" fill="none" xmlns="http://www.w3.org/2000/svg"><path d="M40.605 45.577a5.317 5.317 0 100-10.635 5.317 5.317 0 000 10.635z" fill="url(#paint0_linear_649_8739)"/><path d="M17.11 30.266a3.545 3.545 0 100-7.09 3.545 3.545 0 000 7.09z" fill="url(#paint1_linear_649_8739)"/><path d="M8.248 42.598a1.848 1.848 0 100-3.696 1.848 1.848 0 000 3.696z" fill="url(#paint2_linear_649_8739)"/><path d="M31.743 37.016a1.848 1.848 0 100-3.695 1.848 1.848 0 000 3.695z" fill="url(#paint3_linear_649_8739)"/><path d="M22.466 38.298c2.829-1.169 3.922-4.94 3.922-4.94s-3.47-1.923-6.26-.754c-2.79 1.169-3.922 4.94-3.922 4.94s3.47 1.924 6.26.754z" fill="url(#paint4_linear_649_8739)"/><path d="M29.858 25.59c.415 3.016-2.338 5.883-2.338 5.883s-3.394-2.037-3.81-5.054c-.414-3.017 2.339-5.883 2.339-5.883s3.394 2.037 3.809 5.053z" fill="url(#paint5_linear_649_8739)"/><path d="M40.605 45.577a5.317 5.317 0 100-10.635 5.317 5.317 0 000 10.635z" fill="url(#paint6_linear_649_8739)"/><path d="M17.11 57.38a3.545 3.545 0 100-7.09 3.545 3.545 0 000 7.09z" fill="url(#paint7_linear_649_8739)"/><path d="M24.841 70.354a1.848 1.848 0 100-3.696 1.848 1.848 0 000 3.696z" fill="url(#paint8_linear_649_8739)"/><path d="M31.743 47.236a1.848 1.848 0 100-3.695 1.848 1.848 0 000 3.695z" fill="url(#paint9_linear_649_8739)"/><path d="M29.819 54.967c.415-3.017-2.338-5.883-2.338-5.883s-3.394 2.036-3.81 5.053c-.414 3.017 2.339 5.884 2.339 5.884s3.394-2.037 3.809-5.054z" fill="url(#paint10_linear_649_8739)"/><path d="M22.465 42.22c2.828 1.17 3.922 4.94 3.922 4.94s-3.47 1.924-6.26.755c-2.79-1.17-3.922-4.94-3.922-4.94s3.47-1.924 6.26-.755z" fill="url(#paint11_linear_649_8739)"/><path d="M40.567 45.577a5.317 5.317 0 100-10.635 5.317 5.317 0 000 10.635z" fill="url(#paint12_linear_649_8739)"/><path d="M40.567 70.92a3.545 3.545 0 100-7.09 3.545 3.545 0 000 7.09z" fill="url(#paint13_linear_649_8739)"/><path d="M57.16 69.863a1.848 1.848 0 100-3.695 1.848 1.848 0 000 3.695z" fill="url(#paint14_linear_649_8739)"/><path d="M40.568 52.327a1.848 1.848 0 100-3.696 1.848 1.848 0 000 3.696z" fill="url(#paint15_linear_649_8739)"/><path d="M47.92 56.928c-2.413-1.848-6.26-.905-6.26-.905s.076 3.96 2.49 5.808c2.413 1.848 6.26.905 6.26.905s-.076-3.96-2.49-5.808z" fill="url(#paint16_linear_649_8739)"/><path d="M33.213 56.928c2.414-1.848 6.26-.905 6.26-.905s-.075 3.96-2.489 5.808c-2.413 1.848-6.26.905-6.26.905s.076-3.96 2.49-5.808z" fill="url(#paint17_linear_649_8739)"/><path d="M40.567 45.577a5.317 5.317 0 100-10.635 5.317 5.317 0 000 10.635z" fill="url(#paint18_linear_649_8739)"/><path d="M64.061 57.38a3.545 3.545 0 100-7.09 3.545 3.545 0 000 7.09z" fill="url(#paint19_linear_649_8739)"/><path d="M72.924 41.655a1.848 1.848 0 100-3.696 1.848 1.848 0 000 3.696z" fill="url(#paint20_linear_649_8739)"/><path d="M49.43 47.236a1.848 1.848 0 100-3.696 1.848 1.848 0 000 3.696z" fill="url(#paint21_linear_649_8739)"/><path d="M58.67 42.22c-2.829 1.17-3.923 4.94-3.923 4.94s3.47 1.924 6.26.755c2.791-1.17 3.923-4.94 3.923-4.94s-3.47-1.924-6.26-.755z" fill="url(#paint22_linear_649_8739)"/><path d="M51.315 54.967c-.415-3.017 2.338-5.883 2.338-5.883s3.394 2.036 3.81 5.053c.414 3.017-2.339 5.884-2.339 5.884s-3.394-2.037-3.809-5.054z" fill="url(#paint23_linear_649_8739)"/><path d="M40.567 45.577a5.317 5.317 0 100-10.635 5.317 5.317 0 000 10.635z" fill="url(#paint24_linear_649_8739)"/><path d="M64.061 30.266a3.545 3.545 0 100-7.09 3.545 3.545 0 000 7.09z" fill="url(#paint25_linear_649_8739)"/><path d="M56.331 13.899a1.848 1.848 0 100-3.696 1.848 1.848 0 000 3.696z" fill="url(#paint26_linear_649_8739)"/><path d="M49.43 37.016a1.848 1.848 0 100-3.695 1.848 1.848 0 000 3.695z" fill="url(#paint27_linear_649_8739)"/><path d="M51.315 25.59c-.415 3.017 2.338 5.883 2.338 5.883s3.394-2.037 3.81-5.054c.414-3.017-2.339-5.883-2.339-5.883s-3.394 2.037-3.809 5.053z" fill="url(#paint28_linear_649_8739)"/><path d="M58.67 38.298c-2.829-1.169-3.923-4.94-3.923-4.94s3.47-1.923 6.26-.754c2.791 1.169 3.923 4.94 3.923 4.94s-3.47 1.924-6.26.755z" fill="url(#paint29_linear_649_8739)"/><path d="M40.567 45.577a5.317 5.317 0 100-10.635 5.317 5.317 0 000 10.635z" fill="url(#paint30_linear_649_8739)"/><path d="M40.567 16.69a3.545 3.545 0 100-7.09 3.545 3.545 0 000 7.09z" fill="url(#paint31_linear_649_8739)"/><path d="M24.012 14.351a1.848 1.848 0 100-3.695 1.848 1.848 0 000 3.695z" fill="url(#paint32_linear_649_8739)"/><path d="M40.568 31.925a1.848 1.848 0 100-3.696 1.848 1.848 0 000 3.696z" fill="url(#paint33_linear_649_8739)"/><path d="M33.213 23.628c2.414 1.848 6.26.905 6.26.905s-.075-3.96-2.489-5.807c-2.413-1.848-6.26-.905-6.26-.905s.076 3.96 2.49 5.807z" fill="url(#paint34_linear_649_8739)"/><path d="M47.92 23.628c-2.413 1.848-6.26.906-6.26.906s.076-3.96 2.49-5.808c2.413-1.848 6.26-.905 6.26-.905s-.076 3.96-2.49 5.807z" fill="url(#paint35_linear_649_8739)"/><defs><linearGradient id="paint0_linear_649_8739" x1="-12.695" y1="22.626" x2="46.361" y2="115.622" gradientUnits="userSpaceOnUse"><stop stop-color="#35FF89"/><stop offset="1" stop-color="#3177F3"/></linearGradient><linearGradient id="paint1_linear_649_8739" x1="-12.695" y1="22.626" x2="46.361" y2="115.622" gradientUnits="userSpaceOnUse"><stop stop-color="#35FF89"/><stop offset="1" stop-color="#3177F3"/></linearGradient><linearGradient id="paint2_linear_649_8739" x1="-12.695" y1="22.626" x2="46.361" y2="115.622" gradientUnits="userSpaceOnUse"><stop stop-color="#35FF89"/><stop offset="1" stop-color="#3177F3"/></linearGradient><linearGradient id="paint3_linear_649_8739" x1="-12.695" y1="22.626" x2="46.361" y2="115.622" gradientUnits="userSpaceOnUse"><stop stop-color="#35FF89"/><stop offset="1" stop-color="#3177F3"/></linearGradient><linearGradient id="paint4_linear_649_8739" x1="-12.695" y1="22.626" x2="46.361" y2="115.622" gradientUnits="userSpaceOnUse"><stop stop-color="#35FF89"/><stop offset="1" stop-color="#3177F3"/></linearGradient><linearGradient id="paint5_linear_649_8739" x1="-12.695" y1="22.626" x2="46.361" y2="115.622" gradientUnits="userSpaceOnUse"><stop stop-color="#35FF89"/><stop offset="1" stop-color="#3177F3"/></linearGradient><linearGradient id="paint6_linear_649_8739" x1="-12.695" y1="22.626" x2="46.361" y2="115.622" gradientUnits="userSpaceOnUse"><stop stop-color="#35FF89"/><stop offset="1" stop-color="#3177F3"/></linearGradient><linearGradient id="paint7_linear_649_8739" x1="-12.695" y1="22.626" x2="46.361" y2="115.622" gradientUnits="userSpaceOnUse"><stop stop-color="#35FF89"/><stop offset="1" stop-color="#3177F3"/></linearGradient><linearGradient id="paint8_linear_649_8739" x1="-12.695" y1="22.626" x2="46.361" y2="115.622" gradientUnits="userSpaceOnUse"><stop stop-color="#35FF89"/><stop offset="1" stop-color="#3177F3"/></linearGradient><linearGradient id="paint9_linear_649_8739" x1="-12.695" y1="22.626" x2="46.361" y2="115.622" gradientUnits="userSpaceOnUse"><stop stop-color="#35FF89"/><stop offset="1" stop-color="#3177F3"/></linearGradient><linearGradient id="paint10_linear_649_8739" x1="-12.695" y1="22.626" x2="46.361" y2="115.622" gradientUnits="userSpaceOnUse"><stop stop-color="#35FF89"/><stop offset="1" stop-color="#3177F3"/></linearGradient><linearGradient id="paint11_linear_649_8739" x1="-12.695" y1="22.626" x2="46.361" y2="115.622" gradientUnits="userSpaceOnUse"><stop stop-color="#35FF89"/><stop offset="1" stop-color="#3177F3"/></linearGradient><linearGradient id="paint12_linear_649_8739" x1="-12.695" y1="22.626" x2="46.361" y2="115.622" gradientUnits="userSpaceOnUse"><stop stop-color="#35FF89"/><stop offset="1" stop-color="#3177F3"/></linearGradient><linearGradient id="paint13_linear_649_8739" x1="-12.695" y1="22.626" x2="46.361" y2="115.622" gradientUnits="userSpaceOnUse"><stop stop-color="#35FF89"/><stop offset="1" stop-color="#3177F3"/></linearGradient><linearGradient id="paint14_linear_649_8739" x1="-12.695" y1="22.626" x2="46.361" y2="115.622" gradientUnits="userSpaceOnUse"><stop stop-color="#35FF89"/><stop offset="1" stop-color="#3177F3"/></linearGradient><linearGradient id="paint15_linear_649_8739" x1="-12.695" y1="22.626" x2="46.361" y2="115.622" gradientUnits="userSpaceOnUse"><stop stop-color="#35FF89"/><stop offset="1" stop-color="#3177F3"/></linearGradient><linearGradient id="paint16_linear_649_8739" x1="-12.695" y1="22.626" x2="46.361" y2="115.622" gradientUnits="userSpaceOnUse"><stop stop-color="#35FF89"/><stop offset="1" stop-color="#3177F3"/></linearGradient><linearGradient id="paint17_linear_649_8739" x1="-12.695" y1="22.626" x2="46.361" y2="115.622" gradientUnits="userSpaceOnUse"><stop stop-color="#35FF89"/><stop offset="1" stop-color="#3177F3"/></linearGradient><linearGradient id="paint18_linear_649_8739" x1="-12.695" y1="22.626" x2="46.361" y2="115.622" gradientUnits="userSpaceOnUse"><stop stop-color="#35FF89"/><stop offset="1" stop-color="#3177F3"/></linearGradient><linearGradient id="paint19_linear_649_8739" x1="-12.695" y1="22.626" x2="46.361" y2="115.622" gradientUnits="userSpaceOnUse"><stop stop-color="#35FF89"/><stop offset="1" stop-color="#3177F3"/></linearGradient><linearGradient id="paint20_linear_649_8739" x1="-12.695" y1="22.626" x2="46.361" y2="115.622" gradientUnits="userSpaceOnUse"><stop stop-color="#35FF89"/><stop offset="1" stop-color="#3177F3"/></linearGradient><linearGradient id="paint21_linear_649_8739" x1="-12.695" y1="22.626" x2="46.361" y2="115.622" gradientUnits="userSpaceOnUse"><stop stop-color="#35FF89"/><stop offset="1" stop-color="#3177F3"/></linearGradient><linearGradient id="paint22_linear_649_8739" x1="-12.695" y1="22.626" x2="46.361" y2="115.622" gradientUnits="userSpaceOnUse"><stop stop-color="#35FF89"/><stop offset="1" stop-color="#3177F3"/></linearGradient><linearGradient id="paint23_linear_649_8739" x1="-12.695" y1="22.626" x2="46.361" y2="115.622" gradientUnits="userSpaceOnUse"><stop stop-color="#35FF89"/><stop offset="1" stop-color="#3177F3"/></linearGradient><linearGradient id="paint24_linear_649_8739" x1="-12.695" y1="22.626" x2="46.361" y2="115.622" gradientUnits="userSpaceOnUse"><stop stop-color="#35FF89"/><stop offset="1" stop-color="#3177F3"/></linearGradient><linearGradient id="paint25_linear_649_8739" x1="-12.695" y1="22.626" x2="46.361" y2="115.622" gradientUnits="userSpaceOnUse"><stop stop-color="#35FF89"/><stop offset="1" stop-color="#3177F3"/></linearGradient><linearGradient id="paint26_linear_649_8739" x1="-12.695" y1="22.626" x2="46.361" y2="115.622" gradientUnits="userSpaceOnUse"><stop stop-color="#35FF89"/><stop offset="1" stop-color="#3177F3"/></linearGradient><linearGradient id="paint27_linear_649_8739" x1="-12.695" y1="22.626" x2="46.361" y2="115.622" gradientUnits="userSpaceOnUse"><stop stop-color="#35FF89"/><stop offset="1" stop-color="#3177F3"/></linearGradient><linearGradient id="paint28_linear_649_8739" x1="-12.695" y1="22.626" x2="46.361" y2="115.622" gradientUnits="userSpaceOnUse"><stop stop-color="#35FF89"/><stop offset="1" stop-color="#3177F3"/></linearGradient><linearGradient id="paint29_linear_649_8739" x1="-12.695" y1="22.626" x2="46.361" y2="115.622" gradientUnits="userSpaceOnUse"><stop stop-color="#35FF89"/><stop offset="1" stop-color="#3177F3"/></linearGradient><linearGradient id="paint30_linear_649_8739" x1="-12.695" y1="22.626" x2="46.361" y2="115.622" gradientUnits="userSpaceOnUse"><stop stop-color="#35FF89"/><stop offset="1" stop-color="#3177F3"/></linearGradient><linearGradient id="paint31_linear_649_8739" x1="-12.695" y1="22.626" x2="46.361" y2="115.622" gradientUnits="userSpaceOnUse"><stop stop-color="#35FF89"/><stop offset="1" stop-color="#3177F3"/></linearGradient><linearGradient id="paint32_linear_649_8739" x1="-12.695" y1="22.626" x2="46.361" y2="115.622" gradientUnits="userSpaceOnUse"><stop stop-color="#35FF89"/><stop offset="1" stop-color="#3177F3"/></linearGradient><linearGradient id="paint33_linear_649_8739" x1="-12.695" y1="22.626" x2="46.361" y2="115.622" gradientUnits="userSpaceOnUse"><stop stop-color="#35FF89"/><stop offset="1" stop-color="#3177F3"/></linearGradient><linearGradient id="paint34_linear_649_8739" x1="-12.695" y1="22.626" x2="46.361" y2="115.622" gradientUnits="userSpaceOnUse"><stop stop-color="#35FF89"/><stop offset="1" stop-color="#3177F3"/></linearGradient><linearGradient id="paint35_linear_649_8739" x1="-12.695" y1="22.626" x2="46.361" y2="115.622" gradientUnits="userSpaceOnUse"><stop stop-color="#35FF89"/><stop offset="1" stop-color="#3177F3"/></linearGradient></defs></svg>