<svg width="80" height="80" fill="none" xmlns="http://www.w3.org/2000/svg"><path d="M44.624 16.528a3.997 3.997 0 100-7.995 3.997 3.997 0 000 7.995z" fill="url(#paint0_linear_634_2442)"/><path d="M37.571 22.072a2.753 2.753 0 100-5.506 2.753 2.753 0 000 5.506z" fill="url(#paint1_linear_634_2442)"/><path d="M34.14 28.973a1.961 1.961 0 100-3.922 1.961 1.961 0 000 3.922z" fill="url(#paint2_linear_634_2442)"/><path d="M32.066 33.423c0 .754.603 1.395 1.395 1.395s1.395-.603 1.395-1.395-.603-1.395-1.395-1.395-1.395.603-1.395 1.395z" fill="url(#paint3_linear_634_2442)"/><path d="M20.827 24.863a3.997 3.997 0 100-7.995 3.997 3.997 0 000 7.995z" fill="url(#paint4_linear_634_2442)"/><path d="M21.77 33.348a2.753 2.753 0 100-5.506 2.753 2.753 0 000 5.506z" fill="url(#paint5_linear_634_2442)"/><path d="M25.654 40.06a1.961 1.961 0 100-3.922 1.961 1.961 0 000 3.922z" fill="url(#paint6_linear_634_2442)"/><path d="M30.217 44.02a1.395 1.395 0 100-2.79 1.395 1.395 0 000 2.79z" fill="url(#paint7_linear_634_2442)"/><path d="M12.53 48.621a3.998 3.998 0 100-7.995 3.998 3.998 0 000 7.995z" fill="url(#paint8_linear_634_2442)"/><path d="M20.714 52.732a2.753 2.753 0 100-5.506 2.753 2.753 0 000 5.506z" fill="url(#paint9_linear_634_2442)"/><path d="M29.01 53.561a1.961 1.961 0 100-3.922 1.961 1.961 0 000 3.922z" fill="url(#paint10_linear_634_2442)"/><path d="M35.384 52.28a1.395 1.395 0 100-2.792 1.395 1.395 0 000 2.791z" fill="url(#paint11_linear_634_2442)"/><path d="M25.956 69.966a3.997 3.997 0 100-7.995 3.997 3.997 0 000 7.995z" fill="url(#paint12_linear_634_2442)"/><path d="M35.234 65.63a2.753 2.753 0 100-5.507 2.753 2.753 0 000 5.506z" fill="url(#paint13_linear_634_2442)"/><path d="M41.644 59.407a1.961 1.961 0 100-3.922 1.961 1.961 0 000 3.922z" fill="url(#paint14_linear_634_2442)"/><path d="M45.076 53.373a1.395 1.395 0 100-2.791 1.395 1.395 0 000 2.79z" fill="url(#paint15_linear_634_2442)"/><path d="M50.959 72.757a3.998 3.998 0 100-7.995 3.998 3.998 0 000 7.995z" fill="url(#paint16_linear_634_2442)"/><path d="M54.353 62.348a2.753 2.753 0 100-5.506 2.753 2.753 0 000 5.506z" fill="url(#paint17_linear_634_2442)"/><path d="M54.09 53.109a1.961 1.961 0 100-3.922 1.961 1.961 0 000 3.922z" fill="url(#paint18_linear_634_2442)"/><path d="M51.977 46.471a1.395 1.395 0 100-2.79 1.395 1.395 0 000 2.79z" fill="url(#paint19_linear_634_2442)"/><path d="M68.76 54.957a3.997 3.997 0 100-7.995 3.997 3.997 0 000 7.995z" fill="url(#paint20_linear_634_2442)"/><path d="M63.706 45.34a2.753 2.753 0 100-5.506 2.753 2.753 0 000 5.506z" fill="url(#paint21_linear_634_2442)"/><path d="M56.956 39.495a1.961 1.961 0 100-3.922 1.961 1.961 0 000 3.922z" fill="url(#paint22_linear_634_2442)"/><path d="M50.884 36.817a1.395 1.395 0 100-2.79 1.395 1.395 0 000 2.79z" fill="url(#paint23_linear_634_2442)"/><path d="M65.93 29.916a3.998 3.998 0 100-7.995 3.998 3.998 0 000 7.995z" fill="url(#paint24_linear_634_2442)"/><path d="M56.239 27.39a2.753 2.753 0 100-5.507 2.753 2.753 0 000 5.506z" fill="url(#paint25_linear_634_2442)"/><path d="M48.093 28.747a1.961 1.961 0 100-3.922 1.961 1.961 0 000 3.922z" fill="url(#paint26_linear_634_2442)"/><path d="M42.625 31.613a1.395 1.395 0 100-2.79 1.395 1.395 0 000 2.79z" fill="url(#paint27_linear_634_2442)"/><defs><linearGradient id="paint0_linear_634_2442" x1="-9.404" y1="22.177" x2="55.056" y2="113.214" gradientUnits="userSpaceOnUse"><stop stop-color="#35FF89"/><stop offset="1" stop-color="#3177F3"/></linearGradient><linearGradient id="paint1_linear_634_2442" x1="-9.404" y1="22.177" x2="55.056" y2="113.214" gradientUnits="userSpaceOnUse"><stop stop-color="#35FF89"/><stop offset="1" stop-color="#3177F3"/></linearGradient><linearGradient id="paint2_linear_634_2442" x1="-9.404" y1="22.177" x2="55.056" y2="113.214" gradientUnits="userSpaceOnUse"><stop stop-color="#35FF89"/><stop offset="1" stop-color="#3177F3"/></linearGradient><linearGradient id="paint3_linear_634_2442" x1="-9.404" y1="22.177" x2="55.056" y2="113.214" gradientUnits="userSpaceOnUse"><stop stop-color="#35FF89"/><stop offset="1" stop-color="#3177F3"/></linearGradient><linearGradient id="paint4_linear_634_2442" x1="-9.404" y1="22.177" x2="55.056" y2="113.214" gradientUnits="userSpaceOnUse"><stop stop-color="#35FF89"/><stop offset="1" stop-color="#3177F3"/></linearGradient><linearGradient id="paint5_linear_634_2442" x1="-9.404" y1="22.177" x2="55.056" y2="113.214" gradientUnits="userSpaceOnUse"><stop stop-color="#35FF89"/><stop offset="1" stop-color="#3177F3"/></linearGradient><linearGradient id="paint6_linear_634_2442" x1="-9.404" y1="22.177" x2="55.056" y2="113.214" gradientUnits="userSpaceOnUse"><stop stop-color="#35FF89"/><stop offset="1" stop-color="#3177F3"/></linearGradient><linearGradient id="paint7_linear_634_2442" x1="-9.404" y1="22.177" x2="55.056" y2="113.214" gradientUnits="userSpaceOnUse"><stop stop-color="#35FF89"/><stop offset="1" stop-color="#3177F3"/></linearGradient><linearGradient id="paint8_linear_634_2442" x1="-9.404" y1="22.177" x2="55.056" y2="113.214" gradientUnits="userSpaceOnUse"><stop stop-color="#35FF89"/><stop offset="1" stop-color="#3177F3"/></linearGradient><linearGradient id="paint9_linear_634_2442" x1="-9.404" y1="22.177" x2="55.056" y2="113.214" gradientUnits="userSpaceOnUse"><stop stop-color="#35FF89"/><stop offset="1" stop-color="#3177F3"/></linearGradient><linearGradient id="paint10_linear_634_2442" x1="-9.404" y1="22.177" x2="55.056" y2="113.214" gradientUnits="userSpaceOnUse"><stop stop-color="#35FF89"/><stop offset="1" stop-color="#3177F3"/></linearGradient><linearGradient id="paint11_linear_634_2442" x1="-9.404" y1="22.177" x2="55.056" y2="113.214" gradientUnits="userSpaceOnUse"><stop stop-color="#35FF89"/><stop offset="1" stop-color="#3177F3"/></linearGradient><linearGradient id="paint12_linear_634_2442" x1="-9.404" y1="22.177" x2="55.056" y2="113.214" gradientUnits="userSpaceOnUse"><stop stop-color="#35FF89"/><stop offset="1" stop-color="#3177F3"/></linearGradient><linearGradient id="paint13_linear_634_2442" x1="-9.404" y1="22.177" x2="55.056" y2="113.214" gradientUnits="userSpaceOnUse"><stop stop-color="#35FF89"/><stop offset="1" stop-color="#3177F3"/></linearGradient><linearGradient id="paint14_linear_634_2442" x1="-9.404" y1="22.177" x2="55.056" y2="113.214" gradientUnits="userSpaceOnUse"><stop stop-color="#35FF89"/><stop offset="1" stop-color="#3177F3"/></linearGradient><linearGradient id="paint15_linear_634_2442" x1="-9.404" y1="22.177" x2="55.056" y2="113.214" gradientUnits="userSpaceOnUse"><stop stop-color="#35FF89"/><stop offset="1" stop-color="#3177F3"/></linearGradient><linearGradient id="paint16_linear_634_2442" x1="-9.404" y1="22.177" x2="55.056" y2="113.214" gradientUnits="userSpaceOnUse"><stop stop-color="#35FF89"/><stop offset="1" stop-color="#3177F3"/></linearGradient><linearGradient id="paint17_linear_634_2442" x1="-9.404" y1="22.177" x2="55.056" y2="113.214" gradientUnits="userSpaceOnUse"><stop stop-color="#35FF89"/><stop offset="1" stop-color="#3177F3"/></linearGradient><linearGradient id="paint18_linear_634_2442" x1="-9.404" y1="22.177" x2="55.056" y2="113.214" gradientUnits="userSpaceOnUse"><stop stop-color="#35FF89"/><stop offset="1" stop-color="#3177F3"/></linearGradient><linearGradient id="paint19_linear_634_2442" x1="-9.404" y1="22.177" x2="55.056" y2="113.214" gradientUnits="userSpaceOnUse"><stop stop-color="#35FF89"/><stop offset="1" stop-color="#3177F3"/></linearGradient><linearGradient id="paint20_linear_634_2442" x1="-9.404" y1="22.177" x2="55.056" y2="113.214" gradientUnits="userSpaceOnUse"><stop stop-color="#35FF89"/><stop offset="1" stop-color="#3177F3"/></linearGradient><linearGradient id="paint21_linear_634_2442" x1="-9.404" y1="22.177" x2="55.056" y2="113.214" gradientUnits="userSpaceOnUse"><stop stop-color="#35FF89"/><stop offset="1" stop-color="#3177F3"/></linearGradient><linearGradient id="paint22_linear_634_2442" x1="-9.404" y1="22.177" x2="55.056" y2="113.214" gradientUnits="userSpaceOnUse"><stop stop-color="#35FF89"/><stop offset="1" stop-color="#3177F3"/></linearGradient><linearGradient id="paint23_linear_634_2442" x1="-9.404" y1="22.177" x2="55.056" y2="113.214" gradientUnits="userSpaceOnUse"><stop stop-color="#35FF89"/><stop offset="1" stop-color="#3177F3"/></linearGradient><linearGradient id="paint24_linear_634_2442" x1="-9.404" y1="22.177" x2="55.056" y2="113.214" gradientUnits="userSpaceOnUse"><stop stop-color="#35FF89"/><stop offset="1" stop-color="#3177F3"/></linearGradient><linearGradient id="paint25_linear_634_2442" x1="-9.404" y1="22.177" x2="55.056" y2="113.214" gradientUnits="userSpaceOnUse"><stop stop-color="#35FF89"/><stop offset="1" stop-color="#3177F3"/></linearGradient><linearGradient id="paint26_linear_634_2442" x1="-9.404" y1="22.177" x2="55.056" y2="113.214" gradientUnits="userSpaceOnUse"><stop stop-color="#35FF89"/><stop offset="1" stop-color="#3177F3"/></linearGradient><linearGradient id="paint27_linear_634_2442" x1="-9.404" y1="22.177" x2="55.056" y2="113.214" gradientUnits="userSpaceOnUse"><stop stop-color="#35FF89"/><stop offset="1" stop-color="#3177F3"/></linearGradient></defs></svg>