<svg width="88" height="88" fill="none" xmlns="http://www.w3.org/2000/svg"><path d="M44.41 79.188c17.241-.437 31.402-13.272 33.9-29.923.582-1.693.891-3.455.891-5.266l-.011-.605c-.061-1.6-.363-3.16-.881-4.666C75.765 21.788 61.15 8.798 43.5 8.798l-.91.013C23.874 9.285 8.788 24.372 8.313 43.09l-.011.908c0 19.44 15.76 35.2 35.2 35.2l.908-.011zm-32.833-44.33c3.97-13.89 16.759-24.06 31.924-24.06 14.266 0 26.429 9 31.126 21.63-6.052-7.1-17.5-11.89-30.626-11.89l-.91.008c-14.182.24-26.278 6.073-31.514 14.311zm-.12 4.922c1.256-4.012 4.286-7.722 8.763-10.706 5.998-3.998 14.4-6.536 23.781-6.536 9.38 0 17.782 2.538 23.78 6.536 4.267 2.844 7.22 6.348 8.575 10.144.023.156.046.312.066.468C71.072 35.723 58.57 32.94 44 32.94l-1.811.013c-13.902.221-25.673 2.979-30.734 6.827zM44 53.06c-9.575 0-18.163-1.223-24.291-3.148-3.075-.966-5.419-2.075-6.95-3.213-1.569-1.165-1.96-2.1-1.96-2.7 0-.6.391-1.534 1.96-2.7 1.531-1.137 3.875-2.246 6.95-3.212 6.127-1.925 14.716-3.148 24.291-3.148 9.574 0 18.163 1.223 24.29 3.148 3.076.966 5.42 2.075 6.951 3.213.673.5 1.128.958 1.43 1.365.017.443.03.887.03 1.334 0 .447-.013.893-.03 1.336-.302.407-.757.865-1.43 1.364-1.531 1.138-3.876 2.247-6.951 3.213C62.163 51.837 53.574 53.06 44 53.06zm0 12.4c-9.38 0-17.783-2.538-23.781-6.536-4.476-2.984-7.507-6.693-8.764-10.705 5.28 4.014 17.862 6.84 32.545 6.84l1.812-.014c13.787-.22 25.481-2.934 30.609-6.733-.02.157-.043.313-.066.47-1.356 3.795-4.308 7.298-8.575 10.142-5.998 3.998-14.4 6.536-23.78 6.536zm-.5 11.74c-15.162 0-27.95-10.165-31.922-24.052C16.93 61.56 29.431 67.46 44.001 67.46l.908-.008c12.744-.215 23.805-4.945 29.717-11.879C69.928 68.202 57.766 77.2 43.501 77.2z" fill="#0D1A35"/></svg>