<svg width="89" height="88" fill="none" xmlns="http://www.w3.org/2000/svg"><path d="M19.1 43.334l32.69-17.791c14.003-7.62 31.059 2.516 31.059 18.458 0 15.942-17.056 26.078-31.06 18.458L19.1 44.669v-1.335z" stroke="#0D1A35" stroke-width="2" stroke-linejoin="round"/><path d="M35.037 43.578l20.221-11.16c8.818-4.866 19.622 1.512 19.622 11.583 0 10.07-10.804 16.449-19.622 11.583l-20.221-11.16v-.846z" stroke="#0D1A35" stroke-width="2" stroke-linejoin="round"/><path d="M69.9 43.334L37.21 25.543c-14.003-7.62-31.06 2.516-31.06 18.458 0 15.942 17.057 26.078 31.06 18.458l32.69-17.79v-1.335z" stroke="#0D1A35" stroke-width="2" stroke-linejoin="round"/><path d="M53.962 43.578l-20.22-11.16c-8.818-4.866-19.623 1.512-19.623 11.583 0 10.07 10.805 16.449 19.622 11.583l20.221-11.16v-.846z" stroke="#0D1A35" stroke-width="2" stroke-linejoin="round"/></svg>