<svg width="80" height="80" fill="none" xmlns="http://www.w3.org/2000/svg"><path d="M64.995 31.204a.943.943 0 100-1.885.943.943 0 000 1.885z" fill="url(#paint0_linear_634_2453)"/><path d="M61.751 37.427a1.66 1.66 0 100-3.319 1.66 1.66 0 000 3.319z" fill="url(#paint1_linear_634_2453)"/><path d="M54.925 44.215a1.508 1.508 0 100-3.017 1.508 1.508 0 000 3.017z" fill="url(#paint2_linear_634_2453)"/><path d="M58.658 41.877a1.81 1.81 0 100-3.62 1.81 1.81 0 000 3.62z" fill="url(#paint3_linear_634_2453)"/><path d="M51.267 45.007a.754.754 0 100-1.509.754.754 0 000 1.509z" fill="url(#paint4_linear_634_2453)"/><path d="M66.842 40.255a.943.943 0 100-1.885.943.943 0 000 1.885z" fill="url(#paint5_linear_634_2453)"/><path d="M61.94 45.007a1.66 1.66 0 10-.001-3.319 1.66 1.66 0 000 3.319z" fill="url(#paint6_linear_634_2453)"/><path d="M53.115 49.08a1.509 1.509 0 100-3.017 1.509 1.509 0 000 3.017z" fill="url(#paint7_linear_634_2453)"/><path d="M57.565 48.137a1.81 1.81 0 100-3.62 1.81 1.81 0 000 3.62z" fill="url(#paint8_linear_634_2453)"/><path d="M49.193 48.514a.754.754 0 100-1.509.754.754 0 000 1.509z" fill="url(#paint9_linear_634_2453)"/><path d="M65.484 49.381a.943.943 0 100-1.885.943.943 0 000 1.885z" fill="url(#paint10_linear_634_2453)"/><path d="M59.488 52.21a1.66 1.66 0 100-3.319 1.66 1.66 0 000 3.319z" fill="url(#paint11_linear_634_2453)"/><path d="M49.758 53.002a1.509 1.509 0 100-3.017 1.509 1.509 0 000 3.017z" fill="url(#paint12_linear_634_2453)"/><path d="M54.359 53.68a1.81 1.81 0 100-3.62 1.81 1.81 0 000 3.62z" fill="url(#paint13_linear_634_2453)"/><path d="M46.025 51.078a.754.754 0 100-1.508.754.754 0 000 1.508z" fill="url(#paint14_linear_634_2453)"/><path d="M61.11 57.49a.943.943 0 100-1.886.943.943 0 000 1.886z" fill="url(#paint15_linear_634_2453)"/><path d="M54.737 58.168a1.66 1.66 0 100-3.318 1.66 1.66 0 000 3.318z" fill="url(#paint16_linear_634_2453)"/><path d="M45.27 55.566a1.509 1.509 0 100-3.017 1.509 1.509 0 000 3.017z" fill="url(#paint17_linear_634_2453)"/><path d="M49.457 57.754a1.81 1.81 0 100-3.62 1.81 1.81 0 000 3.62z" fill="url(#paint18_linear_634_2453)"/><path d="M42.141 52.436a.754.754 0 100-1.508.754.754 0 000 1.508z" fill="url(#paint19_linear_634_2453)"/><path d="M54.209 63.599a.943.943 0 100-1.886.943.943 0 000 1.886z" fill="url(#paint20_linear_634_2453)"/><path d="M48.25 62.09a1.66 1.66 0 100-3.318 1.66 1.66 0 000 3.318z" fill="url(#paint21_linear_634_2453)"/><path d="M40.18 56.434a1.508 1.508 0 100-3.017 1.508 1.508 0 000 3.017z" fill="url(#paint22_linear_634_2453)"/><path d="M43.46 59.94a1.81 1.81 0 100-3.62 1.81 1.81 0 000 3.62z" fill="url(#paint23_linear_634_2453)"/><path d="M38.068 52.36a.754.754 0 100-1.508.754.754 0 000 1.509z" fill="url(#paint24_linear_634_2453)"/><path d="M45.61 67.03a.943.943 0 100-1.885.943.943 0 000 1.886z" fill="url(#paint25_linear_634_2453)"/><path d="M40.783 63.599a1.66 1.66 0 100-3.319 1.66 1.66 0 000 3.319z" fill="url(#paint26_linear_634_2453)"/><path d="M35.126 55.49a1.508 1.508 0 100-3.016 1.508 1.508 0 000 3.017z" fill="url(#paint27_linear_634_2453)"/><path d="M37.087 59.94a1.81 1.81 0 100-3.62 1.81 1.81 0 000 3.62z" fill="url(#paint28_linear_634_2453)"/><path d="M34.221 50.89a.754.754 0 100-1.509.754.754 0 000 1.509z" fill="url(#paint29_linear_634_2453)"/><path d="M36.409 67.257a.943.943 0 100-1.886.943.943 0 000 1.886z" fill="url(#paint30_linear_634_2453)"/><path d="M33.279 62.43a1.66 1.66 0 100-3.319 1.66 1.66 0 000 3.319z" fill="url(#paint31_linear_634_2453)"/><path d="M30.677 52.889a1.509 1.509 0 100-3.017 1.509 1.509 0 000 3.017z" fill="url(#paint32_linear_634_2453)"/><path d="M31.092 57.754a1.81 1.81 0 100-3.62 1.81 1.81 0 000 3.62z" fill="url(#paint33_linear_634_2453)"/><path d="M31.13 48.212a.754.754 0 100-1.508.754.754 0 000 1.508z" fill="url(#paint34_linear_634_2453)"/><path d="M27.66 64.353a.943.943 0 100-1.885.943.943 0 000 1.885z" fill="url(#paint35_linear_634_2453)"/><path d="M26.603 58.81a1.66 1.66 0 100-3.32 1.66 1.66 0 000 3.32z" fill="url(#paint36_linear_634_2453)"/><path d="M27.357 48.891a1.508 1.508 0 100-3.017 1.508 1.508 0 000 3.017z" fill="url(#paint37_linear_634_2453)"/><path d="M26.189 53.643a1.81 1.81 0 100-3.62 1.81 1.81 0 000 3.62z" fill="url(#paint38_linear_634_2453)"/><path d="M29.168 44.63a.754.754 0 100-1.509.754.754 0 000 1.509z" fill="url(#paint39_linear_634_2453)"/><path d="M20.419 58.62a.943.943 0 100-1.885.943.943 0 000 1.886z" fill="url(#paint40_linear_634_2453)"/><path d="M21.588 53.077a1.66 1.66 0 100-3.318 1.66 1.66 0 000 3.318z" fill="url(#paint41_linear_634_2453)"/><path d="M25.623 44.026a1.508 1.508 0 100-3.017 1.508 1.508 0 000 3.017z" fill="url(#paint42_linear_634_2453)"/><path d="M23.02 48.1a1.81 1.81 0 100-3.621 1.81 1.81 0 000 3.62z" fill="url(#paint43_linear_634_2453)"/><path d="M28.527 40.594a.754.754 0 100-1.508.754.754 0 000 1.508z" fill="url(#paint44_linear_634_2453)"/><path d="M15.591 50.74a.943.943 0 100-1.887.943.943 0 000 1.886z" fill="url(#paint45_linear_634_2453)"/><path d="M18.834 45.987a1.66 1.66 0 100-3.318 1.66 1.66 0 000 3.318z" fill="url(#paint46_linear_634_2453)"/><path d="M25.66 38.86a1.509 1.509 0 100-3.017 1.509 1.509 0 000 3.017z" fill="url(#paint47_linear_634_2453)"/><path d="M21.927 41.839a1.81 1.81 0 100-3.62 1.81 1.81 0 000 3.62z" fill="url(#paint48_linear_634_2453)"/><path d="M29.28 36.597a.754.754 0 100-1.508.754.754 0 000 1.508z" fill="url(#paint49_linear_634_2453)"/><path d="M13.744 41.726a.943.943 0 100-1.886.943.943 0 000 1.886z" fill="url(#paint50_linear_634_2453)"/><path d="M18.646 38.407a1.66 1.66 0 100-3.318 1.66 1.66 0 000 3.318z" fill="url(#paint51_linear_634_2453)"/><path d="M27.47 34.033a1.508 1.508 0 100-3.017 1.508 1.508 0 000 3.017z" fill="url(#paint52_linear_634_2453)"/><path d="M23.02 35.541a1.81 1.81 0 100-3.62 1.81 1.81 0 000 3.62z" fill="url(#paint53_linear_634_2453)"/><path d="M31.393 33.09a.754.754 0 100-1.509.754.754 0 000 1.509z" fill="url(#paint54_linear_634_2453)"/><path d="M15.1 32.6a.943.943 0 100-1.886.943.943 0 000 1.886z" fill="url(#paint55_linear_634_2453)"/><path d="M21.097 31.204a1.66 1.66 0 100-3.318 1.66 1.66 0 000 3.318z" fill="url(#paint56_linear_634_2453)"/><path d="M30.827 30.11a1.509 1.509 0 100-3.016 1.509 1.509 0 000 3.017z" fill="url(#paint57_linear_634_2453)"/><path d="M26.226 30.035a1.81 1.81 0 100-3.62 1.81 1.81 0 000 3.62z" fill="url(#paint58_linear_634_2453)"/><path d="M34.56 30.488a.754.754 0 100-1.509.754.754 0 000 1.509z" fill="url(#paint59_linear_634_2453)"/><path d="M19.476 24.491a.943.943 0 100-1.885.943.943 0 000 1.885z" fill="url(#paint60_linear_634_2453)"/><path d="M25.85 25.246a1.66 1.66 0 100-3.319 1.66 1.66 0 000 3.319z" fill="url(#paint61_linear_634_2453)"/><path d="M35.315 27.546a1.509 1.509 0 100-3.017 1.509 1.509 0 000 3.017z" fill="url(#paint62_linear_634_2453)"/><path d="M31.13 25.925a1.81 1.81 0 100-3.62 1.81 1.81 0 000 3.62z" fill="url(#paint63_linear_634_2453)"/><path d="M38.445 29.168a.754.754 0 100-1.509.754.754 0 000 1.509z" fill="url(#paint64_linear_634_2453)"/><path d="M26.378 18.345a.943.943 0 100-1.886.943.943 0 000 1.886z" fill="url(#paint65_linear_634_2453)"/><path d="M32.336 21.286a1.66 1.66 0 100-3.319 1.66 1.66 0 000 3.319z" fill="url(#paint66_linear_634_2453)"/><path d="M40.407 26.679a1.508 1.508 0 100-3.017 1.508 1.508 0 000 3.017z" fill="url(#paint67_linear_634_2453)"/><path d="M37.126 23.775a1.81 1.81 0 100-3.62 1.81 1.81 0 000 3.62z" fill="url(#paint68_linear_634_2453)"/><path d="M42.519 29.243a.754.754 0 100-1.508.754.754 0 000 1.508z" fill="url(#paint69_linear_634_2453)"/><path d="M34.938 14.95a.943.943 0 100-1.885.943.943 0 000 1.885z" fill="url(#paint70_linear_634_2453)"/><path d="M39.803 19.815a1.66 1.66 0 100-3.318 1.66 1.66 0 000 3.318z" fill="url(#paint71_linear_634_2453)"/><path d="M45.46 27.622a1.508 1.508 0 100-3.017 1.508 1.508 0 000 3.017z" fill="url(#paint72_linear_634_2453)"/><path d="M43.5 23.775a1.81 1.81 0 100-3.62 1.81 1.81 0 000 3.62z" fill="url(#paint73_linear_634_2453)"/><path d="M46.365 30.714a.754.754 0 100-1.508.754.754 0 000 1.508z" fill="url(#paint74_linear_634_2453)"/><path d="M44.178 14.686a.943.943 0 100-1.885.943.943 0 000 1.885z" fill="url(#paint75_linear_634_2453)"/><path d="M47.307 20.947a1.66 1.66 0 100-3.32 1.66 1.66 0 000 3.32z" fill="url(#paint76_linear_634_2453)"/><path d="M49.91 30.224a1.509 1.509 0 100-3.017 1.509 1.509 0 000 3.017z" fill="url(#paint77_linear_634_2453)"/><path d="M49.495 25.962a1.81 1.81 0 100-3.62 1.81 1.81 0 000 3.62z" fill="url(#paint78_linear_634_2453)"/><path d="M49.42 33.392a.754.754 0 100-1.509.754.754 0 000 1.509z" fill="url(#paint79_linear_634_2453)"/><path d="M52.927 17.628a.943.943 0 100-1.886.943.943 0 000 1.886z" fill="url(#paint80_linear_634_2453)"/><path d="M53.982 24.605a1.66 1.66 0 100-3.319 1.66 1.66 0 000 3.319z" fill="url(#paint81_linear_634_2453)"/><path d="M53.228 34.221a1.508 1.508 0 100-3.017 1.508 1.508 0 000 3.017z" fill="url(#paint82_linear_634_2453)"/><path d="M54.36 30.073a1.81 1.81 0 100-3.62 1.81 1.81 0 000 3.62z" fill="url(#paint83_linear_634_2453)"/><path d="M51.418 36.974a.754.754 0 100-1.508.754.754 0 000 1.508z" fill="url(#paint84_linear_634_2453)"/><path d="M60.167 23.36a.943.943 0 100-1.885.943.943 0 000 1.885z" fill="url(#paint85_linear_634_2453)"/><path d="M58.998 30.337a1.66 1.66 0 100-3.319 1.66 1.66 0 000 3.319z" fill="url(#paint86_linear_634_2453)"/><path d="M54.963 39.048a1.509 1.509 0 100-3.017 1.509 1.509 0 000 3.017z" fill="url(#paint87_linear_634_2453)"/><path d="M57.564 35.579a1.81 1.81 0 100-3.62 1.81 1.81 0 000 3.62z" fill="url(#paint88_linear_634_2453)"/><path d="M52.059 41.01a.754.754 0 100-1.51.754.754 0 000 1.51z" fill="url(#paint89_linear_634_2453)"/><defs><linearGradient id="paint0_linear_634_2453" x1="-2.556" y1="24.369" x2="51.925" y2="102.056" gradientUnits="userSpaceOnUse"><stop stop-color="#35FF89"/><stop offset="1" stop-color="#3177F3"/></linearGradient><linearGradient id="paint1_linear_634_2453" x1="-2.556" y1="24.369" x2="51.925" y2="102.056" gradientUnits="userSpaceOnUse"><stop stop-color="#35FF89"/><stop offset="1" stop-color="#3177F3"/></linearGradient><linearGradient id="paint2_linear_634_2453" x1="-2.556" y1="24.369" x2="51.925" y2="102.056" gradientUnits="userSpaceOnUse"><stop stop-color="#35FF89"/><stop offset="1" stop-color="#3177F3"/></linearGradient><linearGradient id="paint3_linear_634_2453" x1="-2.556" y1="24.369" x2="51.925" y2="102.056" gradientUnits="userSpaceOnUse"><stop stop-color="#35FF89"/><stop offset="1" stop-color="#3177F3"/></linearGradient><linearGradient id="paint4_linear_634_2453" x1="-2.556" y1="24.369" x2="51.925" y2="102.056" gradientUnits="userSpaceOnUse"><stop stop-color="#35FF89"/><stop offset="1" stop-color="#3177F3"/></linearGradient><linearGradient id="paint5_linear_634_2453" x1="-2.556" y1="24.369" x2="51.925" y2="102.056" gradientUnits="userSpaceOnUse"><stop stop-color="#35FF89"/><stop offset="1" stop-color="#3177F3"/></linearGradient><linearGradient id="paint6_linear_634_2453" x1="-2.556" y1="24.369" x2="51.925" y2="102.056" gradientUnits="userSpaceOnUse"><stop stop-color="#35FF89"/><stop offset="1" stop-color="#3177F3"/></linearGradient><linearGradient id="paint7_linear_634_2453" x1="-2.556" y1="24.369" x2="51.925" y2="102.056" gradientUnits="userSpaceOnUse"><stop stop-color="#35FF89"/><stop offset="1" stop-color="#3177F3"/></linearGradient><linearGradient id="paint8_linear_634_2453" x1="-2.556" y1="24.369" x2="51.925" y2="102.056" gradientUnits="userSpaceOnUse"><stop stop-color="#35FF89"/><stop offset="1" stop-color="#3177F3"/></linearGradient><linearGradient id="paint9_linear_634_2453" x1="-2.556" y1="24.369" x2="51.925" y2="102.056" gradientUnits="userSpaceOnUse"><stop stop-color="#35FF89"/><stop offset="1" stop-color="#3177F3"/></linearGradient><linearGradient id="paint10_linear_634_2453" x1="-2.556" y1="24.369" x2="51.925" y2="102.056" gradientUnits="userSpaceOnUse"><stop stop-color="#35FF89"/><stop offset="1" stop-color="#3177F3"/></linearGradient><linearGradient id="paint11_linear_634_2453" x1="-2.556" y1="24.369" x2="51.925" y2="102.056" gradientUnits="userSpaceOnUse"><stop stop-color="#35FF89"/><stop offset="1" stop-color="#3177F3"/></linearGradient><linearGradient id="paint12_linear_634_2453" x1="-2.556" y1="24.369" x2="51.925" y2="102.056" gradientUnits="userSpaceOnUse"><stop stop-color="#35FF89"/><stop offset="1" stop-color="#3177F3"/></linearGradient><linearGradient id="paint13_linear_634_2453" x1="-2.556" y1="24.369" x2="51.925" y2="102.056" gradientUnits="userSpaceOnUse"><stop stop-color="#35FF89"/><stop offset="1" stop-color="#3177F3"/></linearGradient><linearGradient id="paint14_linear_634_2453" x1="-2.556" y1="24.369" x2="51.925" y2="102.056" gradientUnits="userSpaceOnUse"><stop stop-color="#35FF89"/><stop offset="1" stop-color="#3177F3"/></linearGradient><linearGradient id="paint15_linear_634_2453" x1="-2.556" y1="24.369" x2="51.925" y2="102.056" gradientUnits="userSpaceOnUse"><stop stop-color="#35FF89"/><stop offset="1" stop-color="#3177F3"/></linearGradient><linearGradient id="paint16_linear_634_2453" x1="-2.556" y1="24.369" x2="51.925" y2="102.056" gradientUnits="userSpaceOnUse"><stop stop-color="#35FF89"/><stop offset="1" stop-color="#3177F3"/></linearGradient><linearGradient id="paint17_linear_634_2453" x1="-2.556" y1="24.369" x2="51.925" y2="102.056" gradientUnits="userSpaceOnUse"><stop stop-color="#35FF89"/><stop offset="1" stop-color="#3177F3"/></linearGradient><linearGradient id="paint18_linear_634_2453" x1="-2.556" y1="24.369" x2="51.925" y2="102.056" gradientUnits="userSpaceOnUse"><stop stop-color="#35FF89"/><stop offset="1" stop-color="#3177F3"/></linearGradient><linearGradient id="paint19_linear_634_2453" x1="-2.556" y1="24.369" x2="51.925" y2="102.056" gradientUnits="userSpaceOnUse"><stop stop-color="#35FF89"/><stop offset="1" stop-color="#3177F3"/></linearGradient><linearGradient id="paint20_linear_634_2453" x1="-2.556" y1="24.369" x2="51.925" y2="102.056" gradientUnits="userSpaceOnUse"><stop stop-color="#35FF89"/><stop offset="1" stop-color="#3177F3"/></linearGradient><linearGradient id="paint21_linear_634_2453" x1="-2.556" y1="24.369" x2="51.925" y2="102.056" gradientUnits="userSpaceOnUse"><stop stop-color="#35FF89"/><stop offset="1" stop-color="#3177F3"/></linearGradient><linearGradient id="paint22_linear_634_2453" x1="-2.556" y1="24.369" x2="51.925" y2="102.056" gradientUnits="userSpaceOnUse"><stop stop-color="#35FF89"/><stop offset="1" stop-color="#3177F3"/></linearGradient><linearGradient id="paint23_linear_634_2453" x1="-2.556" y1="24.369" x2="51.925" y2="102.056" gradientUnits="userSpaceOnUse"><stop stop-color="#35FF89"/><stop offset="1" stop-color="#3177F3"/></linearGradient><linearGradient id="paint24_linear_634_2453" x1="-2.556" y1="24.369" x2="51.925" y2="102.056" gradientUnits="userSpaceOnUse"><stop stop-color="#35FF89"/><stop offset="1" stop-color="#3177F3"/></linearGradient><linearGradient id="paint25_linear_634_2453" x1="-2.556" y1="24.369" x2="51.925" y2="102.056" gradientUnits="userSpaceOnUse"><stop stop-color="#35FF89"/><stop offset="1" stop-color="#3177F3"/></linearGradient><linearGradient id="paint26_linear_634_2453" x1="-2.556" y1="24.369" x2="51.925" y2="102.056" gradientUnits="userSpaceOnUse"><stop stop-color="#35FF89"/><stop offset="1" stop-color="#3177F3"/></linearGradient><linearGradient id="paint27_linear_634_2453" x1="-2.556" y1="24.369" x2="51.925" y2="102.056" gradientUnits="userSpaceOnUse"><stop stop-color="#35FF89"/><stop offset="1" stop-color="#3177F3"/></linearGradient><linearGradient id="paint28_linear_634_2453" x1="-2.556" y1="24.369" x2="51.925" y2="102.056" gradientUnits="userSpaceOnUse"><stop stop-color="#35FF89"/><stop offset="1" stop-color="#3177F3"/></linearGradient><linearGradient id="paint29_linear_634_2453" x1="-2.556" y1="24.369" x2="51.925" y2="102.056" gradientUnits="userSpaceOnUse"><stop stop-color="#35FF89"/><stop offset="1" stop-color="#3177F3"/></linearGradient><linearGradient id="paint30_linear_634_2453" x1="-2.556" y1="24.369" x2="51.925" y2="102.056" gradientUnits="userSpaceOnUse"><stop stop-color="#35FF89"/><stop offset="1" stop-color="#3177F3"/></linearGradient><linearGradient id="paint31_linear_634_2453" x1="-2.556" y1="24.369" x2="51.925" y2="102.056" gradientUnits="userSpaceOnUse"><stop stop-color="#35FF89"/><stop offset="1" stop-color="#3177F3"/></linearGradient><linearGradient id="paint32_linear_634_2453" x1="-2.556" y1="24.369" x2="51.925" y2="102.056" gradientUnits="userSpaceOnUse"><stop stop-color="#35FF89"/><stop offset="1" stop-color="#3177F3"/></linearGradient><linearGradient id="paint33_linear_634_2453" x1="-2.556" y1="24.369" x2="51.925" y2="102.056" gradientUnits="userSpaceOnUse"><stop stop-color="#35FF89"/><stop offset="1" stop-color="#3177F3"/></linearGradient><linearGradient id="paint34_linear_634_2453" x1="-2.556" y1="24.369" x2="51.925" y2="102.056" gradientUnits="userSpaceOnUse"><stop stop-color="#35FF89"/><stop offset="1" stop-color="#3177F3"/></linearGradient><linearGradient id="paint35_linear_634_2453" x1="-2.556" y1="24.369" x2="51.925" y2="102.056" gradientUnits="userSpaceOnUse"><stop stop-color="#35FF89"/><stop offset="1" stop-color="#3177F3"/></linearGradient><linearGradient id="paint36_linear_634_2453" x1="-2.556" y1="24.369" x2="51.925" y2="102.056" gradientUnits="userSpaceOnUse"><stop stop-color="#35FF89"/><stop offset="1" stop-color="#3177F3"/></linearGradient><linearGradient id="paint37_linear_634_2453" x1="-2.556" y1="24.369" x2="51.925" y2="102.056" gradientUnits="userSpaceOnUse"><stop stop-color="#35FF89"/><stop offset="1" stop-color="#3177F3"/></linearGradient><linearGradient id="paint38_linear_634_2453" x1="-2.556" y1="24.369" x2="51.925" y2="102.056" gradientUnits="userSpaceOnUse"><stop stop-color="#35FF89"/><stop offset="1" stop-color="#3177F3"/></linearGradient><linearGradient id="paint39_linear_634_2453" x1="-2.556" y1="24.369" x2="51.925" y2="102.056" gradientUnits="userSpaceOnUse"><stop stop-color="#35FF89"/><stop offset="1" stop-color="#3177F3"/></linearGradient><linearGradient id="paint40_linear_634_2453" x1="-2.556" y1="24.369" x2="51.925" y2="102.056" gradientUnits="userSpaceOnUse"><stop stop-color="#35FF89"/><stop offset="1" stop-color="#3177F3"/></linearGradient><linearGradient id="paint41_linear_634_2453" x1="-2.556" y1="24.369" x2="51.925" y2="102.056" gradientUnits="userSpaceOnUse"><stop stop-color="#35FF89"/><stop offset="1" stop-color="#3177F3"/></linearGradient><linearGradient id="paint42_linear_634_2453" x1="-2.556" y1="24.369" x2="51.925" y2="102.056" gradientUnits="userSpaceOnUse"><stop stop-color="#35FF89"/><stop offset="1" stop-color="#3177F3"/></linearGradient><linearGradient id="paint43_linear_634_2453" x1="-2.556" y1="24.369" x2="51.925" y2="102.056" gradientUnits="userSpaceOnUse"><stop stop-color="#35FF89"/><stop offset="1" stop-color="#3177F3"/></linearGradient><linearGradient id="paint44_linear_634_2453" x1="-2.556" y1="24.369" x2="51.925" y2="102.056" gradientUnits="userSpaceOnUse"><stop stop-color="#35FF89"/><stop offset="1" stop-color="#3177F3"/></linearGradient><linearGradient id="paint45_linear_634_2453" x1="-2.556" y1="24.369" x2="51.925" y2="102.056" gradientUnits="userSpaceOnUse"><stop stop-color="#35FF89"/><stop offset="1" stop-color="#3177F3"/></linearGradient><linearGradient id="paint46_linear_634_2453" x1="-2.556" y1="24.369" x2="51.925" y2="102.056" gradientUnits="userSpaceOnUse"><stop stop-color="#35FF89"/><stop offset="1" stop-color="#3177F3"/></linearGradient><linearGradient id="paint47_linear_634_2453" x1="-2.556" y1="24.369" x2="51.925" y2="102.056" gradientUnits="userSpaceOnUse"><stop stop-color="#35FF89"/><stop offset="1" stop-color="#3177F3"/></linearGradient><linearGradient id="paint48_linear_634_2453" x1="-2.556" y1="24.369" x2="51.925" y2="102.056" gradientUnits="userSpaceOnUse"><stop stop-color="#35FF89"/><stop offset="1" stop-color="#3177F3"/></linearGradient><linearGradient id="paint49_linear_634_2453" x1="-2.556" y1="24.369" x2="51.925" y2="102.056" gradientUnits="userSpaceOnUse"><stop stop-color="#35FF89"/><stop offset="1" stop-color="#3177F3"/></linearGradient><linearGradient id="paint50_linear_634_2453" x1="-2.556" y1="24.369" x2="51.925" y2="102.056" gradientUnits="userSpaceOnUse"><stop stop-color="#35FF89"/><stop offset="1" stop-color="#3177F3"/></linearGradient><linearGradient id="paint51_linear_634_2453" x1="-2.556" y1="24.369" x2="51.925" y2="102.056" gradientUnits="userSpaceOnUse"><stop stop-color="#35FF89"/><stop offset="1" stop-color="#3177F3"/></linearGradient><linearGradient id="paint52_linear_634_2453" x1="-2.556" y1="24.369" x2="51.925" y2="102.056" gradientUnits="userSpaceOnUse"><stop stop-color="#35FF89"/><stop offset="1" stop-color="#3177F3"/></linearGradient><linearGradient id="paint53_linear_634_2453" x1="-2.556" y1="24.369" x2="51.925" y2="102.056" gradientUnits="userSpaceOnUse"><stop stop-color="#35FF89"/><stop offset="1" stop-color="#3177F3"/></linearGradient><linearGradient id="paint54_linear_634_2453" x1="-2.556" y1="24.369" x2="51.925" y2="102.056" gradientUnits="userSpaceOnUse"><stop stop-color="#35FF89"/><stop offset="1" stop-color="#3177F3"/></linearGradient><linearGradient id="paint55_linear_634_2453" x1="-2.556" y1="24.369" x2="51.925" y2="102.056" gradientUnits="userSpaceOnUse"><stop stop-color="#35FF89"/><stop offset="1" stop-color="#3177F3"/></linearGradient><linearGradient id="paint56_linear_634_2453" x1="-2.556" y1="24.369" x2="51.925" y2="102.056" gradientUnits="userSpaceOnUse"><stop stop-color="#35FF89"/><stop offset="1" stop-color="#3177F3"/></linearGradient><linearGradient id="paint57_linear_634_2453" x1="-2.556" y1="24.369" x2="51.925" y2="102.056" gradientUnits="userSpaceOnUse"><stop stop-color="#35FF89"/><stop offset="1" stop-color="#3177F3"/></linearGradient><linearGradient id="paint58_linear_634_2453" x1="-2.556" y1="24.369" x2="51.925" y2="102.056" gradientUnits="userSpaceOnUse"><stop stop-color="#35FF89"/><stop offset="1" stop-color="#3177F3"/></linearGradient><linearGradient id="paint59_linear_634_2453" x1="-2.556" y1="24.369" x2="51.925" y2="102.056" gradientUnits="userSpaceOnUse"><stop stop-color="#35FF89"/><stop offset="1" stop-color="#3177F3"/></linearGradient><linearGradient id="paint60_linear_634_2453" x1="-2.556" y1="24.369" x2="51.925" y2="102.056" gradientUnits="userSpaceOnUse"><stop stop-color="#35FF89"/><stop offset="1" stop-color="#3177F3"/></linearGradient><linearGradient id="paint61_linear_634_2453" x1="-2.556" y1="24.369" x2="51.925" y2="102.056" gradientUnits="userSpaceOnUse"><stop stop-color="#35FF89"/><stop offset="1" stop-color="#3177F3"/></linearGradient><linearGradient id="paint62_linear_634_2453" x1="-2.556" y1="24.369" x2="51.925" y2="102.056" gradientUnits="userSpaceOnUse"><stop stop-color="#35FF89"/><stop offset="1" stop-color="#3177F3"/></linearGradient><linearGradient id="paint63_linear_634_2453" x1="-2.556" y1="24.369" x2="51.925" y2="102.056" gradientUnits="userSpaceOnUse"><stop stop-color="#35FF89"/><stop offset="1" stop-color="#3177F3"/></linearGradient><linearGradient id="paint64_linear_634_2453" x1="-2.556" y1="24.369" x2="51.925" y2="102.056" gradientUnits="userSpaceOnUse"><stop stop-color="#35FF89"/><stop offset="1" stop-color="#3177F3"/></linearGradient><linearGradient id="paint65_linear_634_2453" x1="-2.556" y1="24.369" x2="51.925" y2="102.056" gradientUnits="userSpaceOnUse"><stop stop-color="#35FF89"/><stop offset="1" stop-color="#3177F3"/></linearGradient><linearGradient id="paint66_linear_634_2453" x1="-2.556" y1="24.369" x2="51.925" y2="102.056" gradientUnits="userSpaceOnUse"><stop stop-color="#35FF89"/><stop offset="1" stop-color="#3177F3"/></linearGradient><linearGradient id="paint67_linear_634_2453" x1="-2.556" y1="24.369" x2="51.925" y2="102.056" gradientUnits="userSpaceOnUse"><stop stop-color="#35FF89"/><stop offset="1" stop-color="#3177F3"/></linearGradient><linearGradient id="paint68_linear_634_2453" x1="-2.556" y1="24.369" x2="51.925" y2="102.056" gradientUnits="userSpaceOnUse"><stop stop-color="#35FF89"/><stop offset="1" stop-color="#3177F3"/></linearGradient><linearGradient id="paint69_linear_634_2453" x1="-2.556" y1="24.369" x2="51.925" y2="102.056" gradientUnits="userSpaceOnUse"><stop stop-color="#35FF89"/><stop offset="1" stop-color="#3177F3"/></linearGradient><linearGradient id="paint70_linear_634_2453" x1="-2.556" y1="24.369" x2="51.925" y2="102.056" gradientUnits="userSpaceOnUse"><stop stop-color="#35FF89"/><stop offset="1" stop-color="#3177F3"/></linearGradient><linearGradient id="paint71_linear_634_2453" x1="-2.556" y1="24.369" x2="51.925" y2="102.056" gradientUnits="userSpaceOnUse"><stop stop-color="#35FF89"/><stop offset="1" stop-color="#3177F3"/></linearGradient><linearGradient id="paint72_linear_634_2453" x1="-2.556" y1="24.369" x2="51.925" y2="102.056" gradientUnits="userSpaceOnUse"><stop stop-color="#35FF89"/><stop offset="1" stop-color="#3177F3"/></linearGradient><linearGradient id="paint73_linear_634_2453" x1="-2.556" y1="24.369" x2="51.925" y2="102.056" gradientUnits="userSpaceOnUse"><stop stop-color="#35FF89"/><stop offset="1" stop-color="#3177F3"/></linearGradient><linearGradient id="paint74_linear_634_2453" x1="-2.556" y1="24.369" x2="51.925" y2="102.056" gradientUnits="userSpaceOnUse"><stop stop-color="#35FF89"/><stop offset="1" stop-color="#3177F3"/></linearGradient><linearGradient id="paint75_linear_634_2453" x1="-2.556" y1="24.369" x2="51.925" y2="102.056" gradientUnits="userSpaceOnUse"><stop stop-color="#35FF89"/><stop offset="1" stop-color="#3177F3"/></linearGradient><linearGradient id="paint76_linear_634_2453" x1="-2.556" y1="24.369" x2="51.925" y2="102.056" gradientUnits="userSpaceOnUse"><stop stop-color="#35FF89"/><stop offset="1" stop-color="#3177F3"/></linearGradient><linearGradient id="paint77_linear_634_2453" x1="-2.556" y1="24.369" x2="51.925" y2="102.056" gradientUnits="userSpaceOnUse"><stop stop-color="#35FF89"/><stop offset="1" stop-color="#3177F3"/></linearGradient><linearGradient id="paint78_linear_634_2453" x1="-2.556" y1="24.369" x2="51.925" y2="102.056" gradientUnits="userSpaceOnUse"><stop stop-color="#35FF89"/><stop offset="1" stop-color="#3177F3"/></linearGradient><linearGradient id="paint79_linear_634_2453" x1="-2.556" y1="24.369" x2="51.925" y2="102.056" gradientUnits="userSpaceOnUse"><stop stop-color="#35FF89"/><stop offset="1" stop-color="#3177F3"/></linearGradient><linearGradient id="paint80_linear_634_2453" x1="-2.556" y1="24.369" x2="51.925" y2="102.056" gradientUnits="userSpaceOnUse"><stop stop-color="#35FF89"/><stop offset="1" stop-color="#3177F3"/></linearGradient><linearGradient id="paint81_linear_634_2453" x1="-2.556" y1="24.369" x2="51.925" y2="102.056" gradientUnits="userSpaceOnUse"><stop stop-color="#35FF89"/><stop offset="1" stop-color="#3177F3"/></linearGradient><linearGradient id="paint82_linear_634_2453" x1="-2.556" y1="24.369" x2="51.925" y2="102.056" gradientUnits="userSpaceOnUse"><stop stop-color="#35FF89"/><stop offset="1" stop-color="#3177F3"/></linearGradient><linearGradient id="paint83_linear_634_2453" x1="-2.556" y1="24.369" x2="51.925" y2="102.056" gradientUnits="userSpaceOnUse"><stop stop-color="#35FF89"/><stop offset="1" stop-color="#3177F3"/></linearGradient><linearGradient id="paint84_linear_634_2453" x1="-2.556" y1="24.369" x2="51.925" y2="102.056" gradientUnits="userSpaceOnUse"><stop stop-color="#35FF89"/><stop offset="1" stop-color="#3177F3"/></linearGradient><linearGradient id="paint85_linear_634_2453" x1="-2.556" y1="24.369" x2="51.925" y2="102.056" gradientUnits="userSpaceOnUse"><stop stop-color="#35FF89"/><stop offset="1" stop-color="#3177F3"/></linearGradient><linearGradient id="paint86_linear_634_2453" x1="-2.556" y1="24.369" x2="51.925" y2="102.056" gradientUnits="userSpaceOnUse"><stop stop-color="#35FF89"/><stop offset="1" stop-color="#3177F3"/></linearGradient><linearGradient id="paint87_linear_634_2453" x1="-2.556" y1="24.369" x2="51.925" y2="102.056" gradientUnits="userSpaceOnUse"><stop stop-color="#35FF89"/><stop offset="1" stop-color="#3177F3"/></linearGradient><linearGradient id="paint88_linear_634_2453" x1="-2.556" y1="24.369" x2="51.925" y2="102.056" gradientUnits="userSpaceOnUse"><stop stop-color="#35FF89"/><stop offset="1" stop-color="#3177F3"/></linearGradient><linearGradient id="paint89_linear_634_2453" x1="-2.556" y1="24.369" x2="51.925" y2="102.056" gradientUnits="userSpaceOnUse"><stop stop-color="#35FF89"/><stop offset="1" stop-color="#3177F3"/></linearGradient></defs></svg>