<svg width="88" height="88" fill="none" xmlns="http://www.w3.org/2000/svg"><path fill-rule="evenodd" clip-rule="evenodd" d="M44 7.568a4.361 4.361 0 110 8.723 4.361 4.361 0 010-8.723zm-.327 10.713l.327.009a6.361 6.361 0 006.353-6.033l.008-.328a6.361 6.361 0 00-6.033-6.353L44 5.568a6.36 6.36 0 00-6.36 6.36l.008.329a6.362 6.362 0 006.025 6.024zm12.312-5.523a1 1 0 00-.679 1.87l.095.04.688.258a33.407 33.407 0 0116.83 14.419l.362.642a33.407 33.407 0 01-7.238 41.183l-.557.48a33.406 33.406 0 01-42.384.481l-.57-.467a33.407 33.407 0 01-11.294-19.068l-.136-.723a33.407 33.407 0 013.968-22.507l.375-.633A33.407 33.407 0 0131.89 14.935l.688-.259a1 1 0 00-.585-1.91l-.098.03a35.406 35.406 0 00-18.16 14.899l-.397.67a35.407 35.407 0 00-4.206 23.856l.145.767a35.407 35.407 0 0011.97 20.209l.604.494a35.407 35.407 0 0044.92-.51l.593-.508a35.407 35.407 0 007.67-43.65l-.383-.679a35.407 35.407 0 00-17.838-15.282l-.73-.275-.098-.029zm-7.599 8.917a1 1 0 00-.355 1.969 22.785 22.785 0 0114.058 8.57l.32.428a22.785 22.785 0 01-2.564 29.8l-.387.366a22.786 22.786 0 01-30.305.544L28.754 63a22.786 22.786 0 01-3.015-30.557l.324-.422a22.784 22.784 0 0113.104-8.218l.522-.107a1 1 0 00-.278-1.978l-.101.015a24.784 24.784 0 00-14.822 9.054l-.352.46a24.785 24.785 0 00-4.8 17.255l.064.575a24.785 24.785 0 008.015 15.41l.435.381a24.785 24.785 0 0032.965-.592l.42-.397a24.785 24.785 0 002.789-32.416l-.347-.464a24.785 24.785 0 00-14.723-9.215l-.568-.11zm6.892 24.394c0-6.229-5.05-11.278-11.277-11.278-6.229 0-11.278 5.05-11.278 11.278 0 6.228 5.05 11.277 11.278 11.277 6.228 0 11.277-5.049 11.277-11.277zM44 59.346l-.343-.004c-7.06-.179-12.752-5.87-12.931-12.93l-.004-.343c0-7.333 5.945-13.278 13.278-13.278l.342.004c7.175.182 12.935 6.055 12.935 13.274l-.004.342C57.092 53.586 51.219 59.346 44 59.346z" fill="#0D1A35"/></svg>