<svg width="80" height="80" fill="none" xmlns="http://www.w3.org/2000/svg"><path d="M32.01 52.074a2.263 2.263 0 100-4.526 2.263 2.263 0 000 4.526z" fill="url(#paint0_linear_634_2436)"/><path d="M27.334 56.75c0-1.169.943-2.112 2.112-2.112 1.17 0 2.112.943 2.112 2.112 0 1.17-.943 2.112-2.112 2.112a2.108 2.108 0 01-2.112-2.112z" fill="url(#paint1_linear_634_2436)"/><path d="M28.956 63.312a1.432 1.432 0 112.865-.001 1.432 1.432 0 01-2.865.001z" fill="url(#paint2_linear_634_2436)"/><path d="M34.198 69.421a1.094 1.094 0 100-2.187 1.094 1.094 0 000 2.187z" fill="url(#paint3_linear_634_2436)"/><path d="M27.938 45.135a2.263 2.263 0 100-4.526 2.263 2.263 0 000 4.526z" fill="url(#paint4_linear_634_2436)"/><path d="M21.753 49.095a2.112 2.112 0 100-4.224 2.112 2.112 0 000 4.224z" fill="url(#paint5_linear_634_2436)"/><path d="M18.66 54.261a1.433 1.433 0 100-2.866 1.433 1.433 0 000 2.866z" fill="url(#paint6_linear_634_2436)"/><path d="M18.811 60.22a1.094 1.094 0 100-2.188 1.094 1.094 0 000 2.188z" fill="url(#paint7_linear_634_2436)"/><path d="M28.692 37.14a2.263 2.263 0 100-4.525 2.263 2.263 0 000 4.525z" fill="url(#paint8_linear_634_2436)"/><path d="M21.3 36.687a2.112 2.112 0 100-4.223 2.112 2.112 0 000 4.223z" fill="url(#paint9_linear_634_2436)"/><path d="M15.343 38.912a1.433 1.433 0 100-2.866 1.433 1.433 0 000 2.866z" fill="url(#paint10_linear_634_2436)"/><path d="M11.76 43.74a1.094 1.094 0 100-2.188 1.094 1.094 0 000 2.188z" fill="url(#paint11_linear_634_2436)"/><path d="M34.01 31.106a2.263 2.263 0 100-4.525 2.263 2.263 0 000 4.525z" fill="url(#paint12_linear_634_2436)"/><path d="M28.203 26.354a2.112 2.112 0 100-4.223 2.112 2.112 0 000 4.223z" fill="url(#paint13_linear_634_2436)"/><path d="M21.678 24.506a1.433 1.433 0 100-2.866 1.433 1.433 0 000 2.866z" fill="url(#paint14_linear_634_2436)"/><path d="M15.72 26.241a1.094 1.094 0 100-2.187 1.094 1.094 0 000 2.187z" fill="url(#paint15_linear_634_2436)"/><path d="M41.891 29.334a2.263 2.263 0 100-4.526 2.263 2.263 0 000 4.526z" fill="url(#paint16_linear_634_2436)"/><path d="M39.893 22.055a2.112 2.112 0 100-4.224 2.112 2.112 0 000 4.224z" fill="url(#paint17_linear_634_2436)"/><path d="M35.292 16.625a1.433 1.433 0 100-2.867 1.433 1.433 0 000 2.867z" fill="url(#paint18_linear_634_2436)"/><path d="M29.258 14.437a1.094 1.094 0 100-2.187 1.094 1.094 0 000 2.187z" fill="url(#paint19_linear_634_2436)"/><path d="M49.283 32.539a2.263 2.263 0 100-4.526 2.263 2.263 0 000 4.526z" fill="url(#paint20_linear_634_2436)"/><path d="M51.848 25.45a2.112 2.112 0 100-4.225 2.112 2.112 0 000 4.224z" fill="url(#paint21_linear_634_2436)"/><path d="M50.905 18.208a1.433 1.433 0 100-2.866 1.433 1.433 0 000 2.866z" fill="url(#paint22_linear_634_2436)"/><path d="M47.096 12.853a1.094 1.094 0 100-2.187 1.094 1.094 0 000 2.187z" fill="url(#paint23_linear_634_2436)"/><path d="M53.356 39.478a2.263 2.263 0 100-4.525 2.263 2.263 0 000 4.525z" fill="url(#paint24_linear_634_2436)"/><path d="M59.54 35.217a2.112 2.112 0 100-4.224 2.112 2.112 0 000 4.224z" fill="url(#paint25_linear_634_2436)"/><path d="M62.633 28.692a1.433 1.433 0 100-2.866 1.433 1.433 0 000 2.866z" fill="url(#paint26_linear_634_2436)"/><path d="M62.52 22.055a1.094 1.094 0 100-2.187 1.094 1.094 0 000 2.187z" fill="url(#paint27_linear_634_2436)"/><path d="M52.602 47.473a2.263 2.263 0 100-4.525 2.263 2.263 0 000 4.525z" fill="url(#paint28_linear_634_2436)"/><path d="M59.993 47.624a2.112 2.112 0 100-4.224 2.112 2.112 0 000 4.224z" fill="url(#paint29_linear_634_2436)"/><path d="M65.952 44.041a1.433 1.433 0 100-2.866 1.433 1.433 0 000 2.866z" fill="url(#paint30_linear_634_2436)"/><path d="M69.572 38.535a1.094 1.094 0 100-2.187 1.094 1.094 0 000 2.187z" fill="url(#paint31_linear_634_2436)"/><path d="M47.285 53.507a2.263 2.263 0 100-4.526 2.263 2.263 0 000 4.526z" fill="url(#paint32_linear_634_2436)"/><path d="M53.093 57.957a2.112 2.112 0 100-4.224 2.112 2.112 0 000 4.224z" fill="url(#paint33_linear_634_2436)"/><path d="M59.617 58.447a1.433 1.433 0 100-2.866 1.433 1.433 0 000 2.866z" fill="url(#paint34_linear_634_2436)"/><path d="M65.575 56.033a1.094 1.094 0 100-2.187 1.094 1.094 0 000 2.188z" fill="url(#paint35_linear_634_2436)"/><path d="M39.44 55.28a2.263 2.263 0 100-4.526 2.263 2.263 0 000 4.525z" fill="url(#paint36_linear_634_2436)"/><path d="M41.402 62.256a2.112 2.112 0 100-4.224 2.112 2.112 0 000 4.224z" fill="url(#paint37_linear_634_2436)"/><path d="M46.002 66.329a1.433 1.433 0 100-2.866 1.433 1.433 0 000 2.866z" fill="url(#paint38_linear_634_2436)"/><path d="M52.074 67.837a1.094 1.094 0 100-2.187 1.094 1.094 0 000 2.187z" fill="url(#paint39_linear_634_2436)"/><defs><linearGradient id="paint0_linear_634_2436" x1="-6.092" y1="23.148" x2="52.46" y2="107.591" gradientUnits="userSpaceOnUse"><stop stop-color="#35FF89"/><stop offset="1" stop-color="#3177F3"/></linearGradient><linearGradient id="paint1_linear_634_2436" x1="-6.092" y1="23.148" x2="52.46" y2="107.591" gradientUnits="userSpaceOnUse"><stop stop-color="#35FF89"/><stop offset="1" stop-color="#3177F3"/></linearGradient><linearGradient id="paint2_linear_634_2436" x1="-6.092" y1="23.148" x2="52.46" y2="107.591" gradientUnits="userSpaceOnUse"><stop stop-color="#35FF89"/><stop offset="1" stop-color="#3177F3"/></linearGradient><linearGradient id="paint3_linear_634_2436" x1="-6.092" y1="23.148" x2="52.46" y2="107.591" gradientUnits="userSpaceOnUse"><stop stop-color="#35FF89"/><stop offset="1" stop-color="#3177F3"/></linearGradient><linearGradient id="paint4_linear_634_2436" x1="-6.092" y1="23.148" x2="52.46" y2="107.591" gradientUnits="userSpaceOnUse"><stop stop-color="#35FF89"/><stop offset="1" stop-color="#3177F3"/></linearGradient><linearGradient id="paint5_linear_634_2436" x1="-6.092" y1="23.148" x2="52.46" y2="107.591" gradientUnits="userSpaceOnUse"><stop stop-color="#35FF89"/><stop offset="1" stop-color="#3177F3"/></linearGradient><linearGradient id="paint6_linear_634_2436" x1="-6.092" y1="23.148" x2="52.46" y2="107.591" gradientUnits="userSpaceOnUse"><stop stop-color="#35FF89"/><stop offset="1" stop-color="#3177F3"/></linearGradient><linearGradient id="paint7_linear_634_2436" x1="-6.092" y1="23.148" x2="52.46" y2="107.591" gradientUnits="userSpaceOnUse"><stop stop-color="#35FF89"/><stop offset="1" stop-color="#3177F3"/></linearGradient><linearGradient id="paint8_linear_634_2436" x1="-6.092" y1="23.148" x2="52.46" y2="107.591" gradientUnits="userSpaceOnUse"><stop stop-color="#35FF89"/><stop offset="1" stop-color="#3177F3"/></linearGradient><linearGradient id="paint9_linear_634_2436" x1="-6.092" y1="23.148" x2="52.46" y2="107.591" gradientUnits="userSpaceOnUse"><stop stop-color="#35FF89"/><stop offset="1" stop-color="#3177F3"/></linearGradient><linearGradient id="paint10_linear_634_2436" x1="-6.092" y1="23.148" x2="52.46" y2="107.591" gradientUnits="userSpaceOnUse"><stop stop-color="#35FF89"/><stop offset="1" stop-color="#3177F3"/></linearGradient><linearGradient id="paint11_linear_634_2436" x1="-6.092" y1="23.148" x2="52.46" y2="107.591" gradientUnits="userSpaceOnUse"><stop stop-color="#35FF89"/><stop offset="1" stop-color="#3177F3"/></linearGradient><linearGradient id="paint12_linear_634_2436" x1="-6.092" y1="23.148" x2="52.46" y2="107.591" gradientUnits="userSpaceOnUse"><stop stop-color="#35FF89"/><stop offset="1" stop-color="#3177F3"/></linearGradient><linearGradient id="paint13_linear_634_2436" x1="-6.092" y1="23.148" x2="52.46" y2="107.591" gradientUnits="userSpaceOnUse"><stop stop-color="#35FF89"/><stop offset="1" stop-color="#3177F3"/></linearGradient><linearGradient id="paint14_linear_634_2436" x1="-6.092" y1="23.148" x2="52.46" y2="107.591" gradientUnits="userSpaceOnUse"><stop stop-color="#35FF89"/><stop offset="1" stop-color="#3177F3"/></linearGradient><linearGradient id="paint15_linear_634_2436" x1="-6.092" y1="23.148" x2="52.46" y2="107.591" gradientUnits="userSpaceOnUse"><stop stop-color="#35FF89"/><stop offset="1" stop-color="#3177F3"/></linearGradient><linearGradient id="paint16_linear_634_2436" x1="-6.092" y1="23.148" x2="52.46" y2="107.591" gradientUnits="userSpaceOnUse"><stop stop-color="#35FF89"/><stop offset="1" stop-color="#3177F3"/></linearGradient><linearGradient id="paint17_linear_634_2436" x1="-6.092" y1="23.148" x2="52.46" y2="107.591" gradientUnits="userSpaceOnUse"><stop stop-color="#35FF89"/><stop offset="1" stop-color="#3177F3"/></linearGradient><linearGradient id="paint18_linear_634_2436" x1="-6.092" y1="23.148" x2="52.46" y2="107.591" gradientUnits="userSpaceOnUse"><stop stop-color="#35FF89"/><stop offset="1" stop-color="#3177F3"/></linearGradient><linearGradient id="paint19_linear_634_2436" x1="-6.092" y1="23.148" x2="52.46" y2="107.591" gradientUnits="userSpaceOnUse"><stop stop-color="#35FF89"/><stop offset="1" stop-color="#3177F3"/></linearGradient><linearGradient id="paint20_linear_634_2436" x1="-6.092" y1="23.148" x2="52.46" y2="107.591" gradientUnits="userSpaceOnUse"><stop stop-color="#35FF89"/><stop offset="1" stop-color="#3177F3"/></linearGradient><linearGradient id="paint21_linear_634_2436" x1="-6.092" y1="23.148" x2="52.46" y2="107.591" gradientUnits="userSpaceOnUse"><stop stop-color="#35FF89"/><stop offset="1" stop-color="#3177F3"/></linearGradient><linearGradient id="paint22_linear_634_2436" x1="-6.092" y1="23.148" x2="52.46" y2="107.591" gradientUnits="userSpaceOnUse"><stop stop-color="#35FF89"/><stop offset="1" stop-color="#3177F3"/></linearGradient><linearGradient id="paint23_linear_634_2436" x1="-6.092" y1="23.148" x2="52.46" y2="107.591" gradientUnits="userSpaceOnUse"><stop stop-color="#35FF89"/><stop offset="1" stop-color="#3177F3"/></linearGradient><linearGradient id="paint24_linear_634_2436" x1="-6.092" y1="23.148" x2="52.46" y2="107.591" gradientUnits="userSpaceOnUse"><stop stop-color="#35FF89"/><stop offset="1" stop-color="#3177F3"/></linearGradient><linearGradient id="paint25_linear_634_2436" x1="-6.092" y1="23.148" x2="52.46" y2="107.591" gradientUnits="userSpaceOnUse"><stop stop-color="#35FF89"/><stop offset="1" stop-color="#3177F3"/></linearGradient><linearGradient id="paint26_linear_634_2436" x1="-6.092" y1="23.148" x2="52.46" y2="107.591" gradientUnits="userSpaceOnUse"><stop stop-color="#35FF89"/><stop offset="1" stop-color="#3177F3"/></linearGradient><linearGradient id="paint27_linear_634_2436" x1="-6.092" y1="23.148" x2="52.46" y2="107.591" gradientUnits="userSpaceOnUse"><stop stop-color="#35FF89"/><stop offset="1" stop-color="#3177F3"/></linearGradient><linearGradient id="paint28_linear_634_2436" x1="-6.092" y1="23.148" x2="52.46" y2="107.591" gradientUnits="userSpaceOnUse"><stop stop-color="#35FF89"/><stop offset="1" stop-color="#3177F3"/></linearGradient><linearGradient id="paint29_linear_634_2436" x1="-6.092" y1="23.148" x2="52.46" y2="107.591" gradientUnits="userSpaceOnUse"><stop stop-color="#35FF89"/><stop offset="1" stop-color="#3177F3"/></linearGradient><linearGradient id="paint30_linear_634_2436" x1="-6.092" y1="23.148" x2="52.46" y2="107.591" gradientUnits="userSpaceOnUse"><stop stop-color="#35FF89"/><stop offset="1" stop-color="#3177F3"/></linearGradient><linearGradient id="paint31_linear_634_2436" x1="-6.092" y1="23.148" x2="52.46" y2="107.591" gradientUnits="userSpaceOnUse"><stop stop-color="#35FF89"/><stop offset="1" stop-color="#3177F3"/></linearGradient><linearGradient id="paint32_linear_634_2436" x1="-6.092" y1="23.148" x2="52.46" y2="107.591" gradientUnits="userSpaceOnUse"><stop stop-color="#35FF89"/><stop offset="1" stop-color="#3177F3"/></linearGradient><linearGradient id="paint33_linear_634_2436" x1="-6.092" y1="23.148" x2="52.46" y2="107.591" gradientUnits="userSpaceOnUse"><stop stop-color="#35FF89"/><stop offset="1" stop-color="#3177F3"/></linearGradient><linearGradient id="paint34_linear_634_2436" x1="-6.092" y1="23.148" x2="52.46" y2="107.591" gradientUnits="userSpaceOnUse"><stop stop-color="#35FF89"/><stop offset="1" stop-color="#3177F3"/></linearGradient><linearGradient id="paint35_linear_634_2436" x1="-6.092" y1="23.148" x2="52.46" y2="107.591" gradientUnits="userSpaceOnUse"><stop stop-color="#35FF89"/><stop offset="1" stop-color="#3177F3"/></linearGradient><linearGradient id="paint36_linear_634_2436" x1="-6.092" y1="23.148" x2="52.46" y2="107.591" gradientUnits="userSpaceOnUse"><stop stop-color="#35FF89"/><stop offset="1" stop-color="#3177F3"/></linearGradient><linearGradient id="paint37_linear_634_2436" x1="-6.092" y1="23.148" x2="52.46" y2="107.591" gradientUnits="userSpaceOnUse"><stop stop-color="#35FF89"/><stop offset="1" stop-color="#3177F3"/></linearGradient><linearGradient id="paint38_linear_634_2436" x1="-6.092" y1="23.148" x2="52.46" y2="107.591" gradientUnits="userSpaceOnUse"><stop stop-color="#35FF89"/><stop offset="1" stop-color="#3177F3"/></linearGradient><linearGradient id="paint39_linear_634_2436" x1="-6.092" y1="23.148" x2="52.46" y2="107.591" gradientUnits="userSpaceOnUse"><stop stop-color="#35FF89"/><stop offset="1" stop-color="#3177F3"/></linearGradient></defs></svg>