<svg width="22" height="16" viewBox="0 0 22 16" fill="none" xmlns="http://www.w3.org/2000/svg">
<path d="M20.9996 0.827586C20.9996 1.28465 20.6291 1.65517 20.172 1.65517H1.61665C1.15959 1.65517 0.789062 1.28465 0.789062 0.827586C0.789062 0.370523 1.15959 0 1.61665 0H20.172C20.6291 0 20.9996 0.370523 20.9996 0.827586Z" fill="#E9EFF3"/>
<path d="M20.9996 8C20.9996 8.45706 20.6291 8.82759 20.172 8.82759H1.61665C1.15959 8.82759 0.789062 8.45706 0.789062 8C0.789062 7.54294 1.15959 7.17241 1.61665 7.17241H20.172C20.6291 7.17241 20.9996 7.54294 20.9996 8Z" fill="#E9EFF3"/>
<path d="M0.789062 15.1724C0.789062 15.6295 1.15959 16 1.61665 16H20.172C20.6291 16 20.9996 15.6295 20.9996 15.1724C20.9996 14.7154 20.6291 14.3448 20.172 14.3448H1.61665C1.15959 14.3448 0.789062 14.7154 0.789062 15.1724Z" fill="#E9EFF3"/>
</svg>
