<svg width="16" height="16" viewBox="0 0 16 16" fill="none" xmlns="http://www.w3.org/2000/svg">
<g clip-path="url(#clip0_653_31067)">
<path d="M14.0478 0.21967C14.3407 -0.073219 14.8154 -0.0732102 15.1083 0.21967C15.4012 0.512563 15.4012 0.987323 15.1083 1.28022L8.72455 7.66401L15.1083 14.0478C15.4009 14.3407 15.4011 14.8156 15.1083 15.1083C14.8156 15.4011 14.3407 15.4009 14.0478 15.1083L7.66401 8.72455L1.28022 15.1083C0.987293 15.4009 0.512436 15.4011 0.21967 15.1083C-0.0730723 14.8156 -0.0728356 14.3407 0.21967 14.0478L6.60346 7.66401L0.21967 1.28022C-0.073223 0.987323 -0.0732233 0.512563 0.21967 0.21967C0.512563 -0.0732233 0.987323 -0.0732234 1.28022 0.21967L7.66401 6.60346L14.0478 0.21967Z" fill="#E9EFF3"/>
</g>
<defs>
<clipPath id="clip0_653_31067">
<rect width="16" height="16" fill="white"/>
</clipPath>
</defs>
</svg>
