<svg width="523" height="170" viewBox="0 0 523 170" fill="none" xmlns="http://www.w3.org/2000/svg">
<rect x="1" y="1.68945" width="277.462" height="167.25" rx="23" stroke="#3177F3" stroke-width="2"/>
<path d="M11.7549 123.782L17.0695 101.286C18.8154 93.8954 19.6883 90.2002 22.4157 88.0421C25.143 85.8841 28.9399 85.8841 36.5337 85.8841H41.4623C46.2698 85.8841 48.6736 85.8841 50.6723 84.9587C51.8428 84.4169 52.8973 83.6537 53.7779 82.7112C55.2816 81.1019 56.033 78.8186 57.5357 74.2519L59.4459 68.4468C62.3513 59.6173 63.804 55.2025 65.8586 53.4021C69.2785 50.4054 74.2896 50.0932 78.055 52.6423C80.3172 54.1737 82.3067 58.374 86.2856 66.7746V66.7746C87.4571 69.2481 88.0429 70.4848 88.8565 71.4605C90.1973 73.0683 92.0089 74.2148 94.036 74.7383C95.2661 75.056 96.6345 75.056 99.3714 75.056H110.049C116.662 75.056 119.968 75.056 122.518 76.798C125.069 78.54 126.272 81.6194 128.678 87.7782L131.856 95.9133C137.933 111.467 140.971 119.243 146.112 120.432C147.439 120.739 148.816 120.772 150.156 120.528C155.348 119.582 158.749 111.958 165.552 96.7084V96.7084C167.668 91.9664 168.725 89.5954 170.618 88.0793C171.138 87.6631 171.698 87.2998 172.289 86.9948C174.445 85.8841 177.041 85.8841 182.234 85.8841H197.308C198.652 85.8841 199.324 85.8841 199.988 85.7947C200.652 85.7054 201.3 85.5277 202.596 85.1725L228.633 78.0349C233.942 76.5796 236.596 75.852 238.46 74.006C240.324 72.1601 241.077 69.5127 242.583 64.218L243.229 61.9445C245.218 54.9523 246.212 51.4562 248.887 49.4361C251.562 47.416 255.197 47.416 262.466 47.416H267.707" stroke="#3177F3" stroke-width="2"/>
<path opacity="0.5" d="M13 37.6895H267" stroke="#3177F3" stroke-width="2" stroke-dasharray="1 12"/>
<path opacity="0.5" d="M13 85.6895H267" stroke="#3177F3" stroke-width="2" stroke-dasharray="1 12"/>
<path opacity="0.5" d="M13 133.689H267" stroke="#3177F3" stroke-width="2" stroke-dasharray="1 12"/>
<rect x="296.462" y="1.68945" width="225.538" height="74.625" rx="23" stroke="#3177F3" stroke-width="2"/>
<path d="M308.231 22.5217H317.407C322.531 22.5217 325.092 22.5217 327.269 23.6598C329.446 24.7979 330.908 26.9014 333.831 31.1083L334.533 32.1188C337.457 36.3258 338.919 38.4293 341.096 39.5674C343.272 40.7055 345.834 40.7055 350.957 40.7055H413.676C417.354 40.7055 419.193 40.7055 420.858 40.096C421.363 39.9112 421.852 39.6861 422.321 39.4227C423.866 38.5539 425.062 37.1565 427.453 34.3615V34.3615C433.199 27.6459 436.073 24.2882 439.705 23.7092C440.773 23.539 441.862 23.5432 442.929 23.7216C446.557 24.3284 449.404 27.7082 455.099 34.4676L458.556 38.572C464.962 46.176 468.165 49.978 471.755 50.6011C473.937 50.9798 476.183 50.6236 478.14 49.5883C481.361 47.8847 483.231 43.2782 486.969 34.0651V34.0651C488.628 29.9754 489.458 27.9305 490.906 26.4907C491.806 25.5961 492.868 24.881 494.035 24.3834C495.914 23.5827 498.121 23.5827 502.534 23.5827H510.231" stroke="#3177F3" stroke-width="2"/>
<rect x="296.462" y="94.3145" width="225.538" height="74.625" rx="23" stroke="#3177F3" stroke-width="2"/>
<path d="M307.462 157.57L319.042 146.21C323.525 141.813 325.766 139.615 328.658 139.023C331.55 138.432 334.474 139.574 340.323 141.859L352.707 146.695C357.305 148.491 359.605 149.389 361.968 149.167C364.332 148.944 366.423 147.633 370.606 145.01L418.753 114.824C425.708 110.464 429.186 108.283 432.853 108.839C436.521 109.396 439.196 112.509 444.546 118.736L449.24 124.198C452.185 127.626 453.657 129.339 455.644 130.252C457.631 131.164 459.89 131.164 464.409 131.164H487.508C491.553 131.164 493.576 131.164 495.398 131.911C497.22 132.658 498.661 134.077 501.543 136.915L511 146.23" stroke="#3177F3" stroke-width="2"/>
</svg>
