<svg width="311" height="213" viewBox="0 0 311 213" fill="none" xmlns="http://www.w3.org/2000/svg">
<path d="M6.99023 73.6123L10.1505 60.1589C11.1887 55.7392 11.7078 53.5294 13.3296 52.2388C14.9514 50.9482 17.2092 50.9482 21.7249 50.9482H24.6556C27.5144 50.9482 28.9438 50.9482 30.1323 50.3949C30.8283 50.0708 31.4554 49.6144 31.9791 49.0508C32.8732 48.0884 33.32 46.7229 34.2136 43.9919L35.3495 40.5203C37.0772 35.24 37.9411 32.5999 39.1628 31.5232C41.1965 29.7311 44.1763 29.5444 46.4154 31.0688C47.7606 31.9846 48.9436 34.4965 51.3096 39.5203C52.0063 40.9995 52.3546 41.7391 52.8384 42.3226C53.6357 43.2841 54.713 43.9697 55.9184 44.2828C56.6499 44.4728 57.4636 44.4728 59.091 44.4728H65.4407C69.3726 44.4728 71.3385 44.4728 72.8553 45.5145C74.3721 46.5563 75.0875 48.3979 76.5183 52.081L78.4082 56.946C82.0214 66.2473 83.828 70.8979 86.8852 71.6089C87.6745 71.7924 88.4929 71.8119 89.2899 71.6659C92.3771 71.1007 94.3998 66.541 98.4452 57.4215C99.7032 54.5856 100.332 53.1677 101.458 52.261C101.767 52.0121 102.1 51.7949 102.451 51.6125C103.733 50.9482 105.277 50.9482 108.365 50.9482H117.329C118.128 50.9482 118.528 50.9482 118.922 50.8948C119.317 50.8414 119.702 50.7351 120.473 50.5227L135.956 46.2543C139.113 45.3839 140.691 44.9488 141.8 43.8449C142.908 42.7409 143.356 41.1578 144.251 37.9914L144.636 36.6318C145.818 32.4503 146.409 30.3595 148 29.1514C149.591 27.9434 151.752 27.9434 156.075 27.9434H159.191" stroke="#3177F3" stroke-width="2"/>
<path opacity="0.5" d="M7.73047 22.127H158.771M7.73047 50.8322H158.771M7.73047 79.5374H158.771" stroke="#3177F3" stroke-width="2" stroke-dasharray="1 12"/>
<path d="M14.2715 1H151.635C158.959 1 164.906 6.97278 164.906 14.3525V86.7139C164.906 94.0936 158.959 100.066 151.635 100.066H14.2715C6.94724 100.066 1.0001 94.0936 1 86.7139V14.3525C1.00004 6.97279 6.9472 1.00001 14.2715 1Z" stroke="#3177F3" stroke-width="2"/>
<path d="M183.289 13.0566H188.746C191.792 13.0566 193.315 13.0566 194.61 13.7373C195.904 14.4179 196.773 15.6758 198.512 18.1917L198.929 18.796C200.668 21.3119 201.537 22.5698 202.832 23.2504C204.126 23.931 205.649 23.931 208.696 23.931H245.991C248.179 23.931 249.272 23.931 250.262 23.5665C250.562 23.456 250.853 23.3214 251.132 23.1639C252.051 22.6443 252.762 21.8086 254.184 20.1372C257.601 16.1211 259.309 14.1131 261.469 13.7668C262.105 13.665 262.752 13.6675 263.386 13.7742C265.544 14.1371 267.237 16.1583 270.623 20.2006L272.679 22.6551C276.488 27.2025 278.393 29.4762 280.528 29.8489C281.825 30.0753 283.161 29.8623 284.325 29.2432C286.24 28.2244 287.352 25.4696 289.575 19.9599C290.561 17.5141 291.055 16.2913 291.916 15.4302C292.451 14.8952 293.083 14.4676 293.777 14.17C294.894 13.6912 296.206 13.6912 298.831 13.6912H303.407" stroke="#3177F3" stroke-width="2"/>
<path d="M189.691 1H296.728C304.052 1 309.999 6.97278 309.999 14.3525V31.6953C309.999 39.0751 304.052 45.0479 296.728 45.0479H189.691C182.367 45.0478 176.42 39.0751 176.42 31.6953V14.3525C176.42 6.97279 182.367 1.00001 189.691 1Z" stroke="#3177F3" stroke-width="2"/>
<path d="M182.832 93.819L189.718 87.0258C192.384 84.3962 193.717 83.0814 195.436 82.7278C197.156 82.3741 198.895 83.0572 202.373 84.4233L209.737 87.3155C212.471 88.3897 213.839 88.9267 215.244 88.7937C216.65 88.6607 217.893 87.8765 220.381 86.3081L249.011 68.2561C253.147 65.6483 255.215 64.3444 257.396 64.677C259.577 65.0096 261.167 66.8715 264.349 70.5951L267.14 73.8619C268.891 75.9116 269.766 76.9365 270.948 77.4822C272.129 78.0278 273.473 78.0278 276.16 78.0278H289.896C292.301 78.0278 293.504 78.0278 294.588 78.4744C295.671 78.921 296.528 79.7697 298.242 81.4671L303.865 87.0375" stroke="#3177F3" stroke-width="2"/>
<path d="M189.691 56.6172H296.728C304.052 56.6172 309.999 62.59 309.999 69.9697V87.3125C309.999 94.6923 304.052 100.665 296.728 100.665H189.691C182.367 100.665 176.42 94.6923 176.42 87.3125V69.9697C176.42 62.59 182.367 56.6172 189.691 56.6172Z" stroke="#3177F3" stroke-width="2"/>
<path d="M7.73047 173.279L17.4447 169.373C19.8757 168.395 21.0912 167.907 21.9744 166.991C22.8576 166.075 23.306 164.838 24.2027 162.364L31.0443 143.49C32.4224 139.688 33.1115 137.787 34.6469 136.707C36.1823 135.626 38.1942 135.626 42.2179 135.626H46.7824C50.2455 135.626 51.9771 135.626 53.386 136.473C54.7949 137.319 55.6153 138.853 57.2559 141.92L59.6657 146.425C61.3064 149.492 62.1267 151.026 63.5357 151.873C64.9446 152.719 66.6762 152.719 70.1393 152.719H73.8061C78.3368 152.719 80.6022 152.719 82.2263 154.016C83.8504 155.313 84.3636 157.533 85.3899 161.971L85.6648 163.159C88.5751 175.745 90.0303 182.038 93.9588 182.685C94.0679 182.703 94.1775 182.718 94.2875 182.73C98.2457 183.156 101.312 177.479 107.445 166.125C109.052 163.149 109.856 161.661 111.216 160.824C111.258 160.798 111.301 160.773 111.343 160.748C112.724 159.945 114.408 159.945 117.775 159.945H123.601C125.848 159.945 126.971 159.945 127.997 159.551C129.022 159.157 129.859 158.403 131.533 156.896L135.573 153.259C140.829 148.527 143.457 146.161 146.323 146.688C149.188 147.216 150.813 150.364 154.062 156.661L159.307 166.827C160.928 169.969 161.738 171.54 163.161 172.41C164.584 173.279 166.344 173.279 169.863 173.279H173.346C176.541 173.279 178.139 173.279 179.477 174.018C180.814 174.758 181.671 176.114 183.384 178.827L186.314 183.464C186.879 184.36 187.162 184.808 187.495 185.179C188.393 186.183 189.603 186.852 190.927 187.076C191.418 187.159 191.945 187.159 193 187.159C194.26 187.159 194.89 187.159 195.459 187.046C196.999 186.741 198.356 185.836 199.236 184.529C199.56 184.046 199.806 183.462 200.296 182.296L200.297 182.296L216.845 142.951C218.334 139.411 219.078 137.641 220.572 136.646C222.065 135.65 223.976 135.65 227.798 135.65H246.566C250.003 135.65 251.722 135.65 253.124 136.486C254.526 137.322 255.351 138.838 257 141.871L267.539 161.247C271.134 167.857 272.932 171.163 275.942 171.548C278.952 171.933 281.516 169.187 286.643 163.693L291.719 158.256C293.455 156.396 294.323 155.466 295.454 154.974C296.584 154.482 297.853 154.482 300.39 154.482H303.27" stroke="#3177F3" stroke-width="2"/>
<path opacity="0.5" d="M7.73047 132.762H303.27M7.73047 161.467H303.27M7.73047 190.172H303.27" stroke="#3177F3" stroke-width="2" stroke-dasharray="1 12"/>
<path d="M14.2715 111.635H296.729C304.053 111.635 310 117.608 310 124.987V197.946C310 205.326 304.053 211.299 296.729 211.299H14.2715C6.94718 211.299 1 205.326 1 197.946V124.987C1.00004 117.723 6.76307 111.821 13.9297 111.639L14.2715 111.635Z" stroke="#3177F3" stroke-width="2"/>
</svg>
