<svg width="1201" height="359" viewBox="0 0 1201 359" fill="none" xmlns="http://www.w3.org/2000/svg">
<path d="M370.026 358.689C376.385 358.689 381.539 353.535 381.539 347.177L381.539 11.5127C381.539 5.15439 376.385 6.10352e-05 370.026 0C363.668 0 358.514 5.15433 358.514 11.5127L358.514 347.177C358.514 353.535 363.668 358.689 370.026 358.689ZM318.81 298.251C325.168 298.251 330.322 293.096 330.322 286.737L330.322 71.9512C330.322 65.593 325.168 60.4385 318.81 60.4385C312.451 60.4387 307.297 65.5931 307.297 71.9512L307.297 286.737C307.297 293.096 312.451 298.251 318.81 298.251ZM421.242 298.251C427.601 298.251 432.756 293.096 432.756 286.737L432.756 71.9512C432.756 65.593 427.6 60.4385 421.242 60.4385C414.884 60.4387 409.73 65.5931 409.729 71.9512L409.729 286.737C409.729 293.096 414.884 298.251 421.242 298.251ZM830.973 295.238C837.331 295.238 842.485 290.084 842.485 283.726V74.9629C842.485 68.6048 837.331 63.4503 830.973 63.4502C824.614 63.4502 819.46 68.6048 819.46 74.9629V283.726C819.46 290.084 824.614 295.238 830.973 295.238ZM1087.05 283.758C1093.41 283.758 1098.57 278.603 1098.57 272.245V86.4443C1098.57 80.086 1093.41 74.9316 1087.05 74.9316C1080.7 74.9319 1075.54 80.0862 1075.54 86.4443V272.245C1075.54 278.603 1080.7 283.758 1087.05 283.758ZM267.594 255.015C273.952 255.015 279.106 249.86 279.106 243.502L279.106 115.187C279.106 108.828 273.952 103.674 267.594 103.674C261.236 103.674 256.081 108.828 256.081 115.187L256.081 243.502C256.081 249.86 261.235 255.015 267.594 255.015ZM472.46 255.015C478.818 255.015 483.973 249.86 483.973 243.502L483.973 115.187C483.972 108.828 478.818 103.674 472.46 103.674C466.102 103.674 460.947 108.828 460.947 115.187L460.947 243.502C460.947 249.86 466.102 255.015 472.46 255.015ZM11.5127 243.816C17.871 243.816 23.0253 238.662 23.0254 232.304L23.0254 126.386C23.0254 120.027 17.871 114.873 11.5127 114.873C5.1544 114.873 0 120.027 0 126.386L0 232.304C5.68771e-05 238.662 5.15443 243.816 11.5127 243.816ZM216.378 243.816C222.736 243.816 227.891 238.662 227.891 232.304V126.386C227.891 120.027 222.736 114.873 216.378 114.873C210.02 114.873 204.865 120.027 204.865 126.386V232.304C204.865 238.662 210.02 243.816 216.378 243.816ZM779.757 243.816C786.115 243.816 791.269 238.662 791.27 232.304V126.386C791.27 120.027 786.115 114.873 779.757 114.873C773.399 114.873 768.244 120.027 768.244 126.386V232.304C768.244 238.662 773.399 243.816 779.757 243.816ZM882.191 243.816C888.55 243.816 893.704 238.662 893.704 232.304V126.386C893.704 120.027 888.55 114.873 882.191 114.873C875.833 114.873 870.679 120.027 870.679 126.386V232.304C870.679 238.662 875.833 243.816 882.191 243.816ZM1035.84 243.816C1042.2 243.816 1047.35 238.662 1047.35 232.304V126.386C1047.35 120.027 1042.2 114.873 1035.84 114.873C1029.48 114.873 1024.33 120.027 1024.33 126.386V232.304C1024.33 238.662 1029.48 243.816 1035.84 243.816ZM1138.27 243.816C1144.63 243.816 1149.78 238.662 1149.78 232.304V126.386C1149.78 120.027 1144.63 114.873 1138.27 114.873C1131.91 114.873 1126.76 120.027 1126.76 126.386V232.304C1126.76 238.662 1131.91 243.816 1138.27 243.816ZM62.7285 224.062C69.0866 224.062 74.2411 218.908 74.2412 212.55L74.2412 146.14C74.2412 139.781 69.0867 134.627 62.7285 134.627C56.3702 134.627 51.2158 139.781 51.2158 146.14L51.2158 212.55C51.216 218.908 56.3703 224.062 62.7285 224.062ZM523.676 224.063C530.034 224.062 535.188 218.908 535.188 212.55V146.14C535.188 139.781 530.034 134.627 523.676 134.627C517.317 134.627 512.162 139.781 512.162 146.14V212.55C512.162 218.908 517.318 224.063 523.676 224.063ZM728.541 224.063C734.899 224.062 740.054 218.908 740.054 212.55V146.14C740.054 139.781 734.899 134.627 728.541 134.627C722.183 134.627 717.028 139.781 717.028 146.14V212.55C717.028 218.908 722.183 224.063 728.541 224.063ZM933.407 224.063C939.765 224.062 944.92 218.908 944.92 212.55V146.14C944.92 139.781 939.766 134.627 933.407 134.627C927.049 134.627 921.895 139.781 921.895 146.14V212.55C921.895 218.908 927.049 224.063 933.407 224.063ZM574.892 219.149C581.25 219.149 586.404 213.995 586.404 207.637V151.053C586.404 144.694 581.25 139.54 574.892 139.54C568.533 139.54 563.379 144.694 563.379 151.053V207.637C563.379 213.995 568.533 219.149 574.892 219.149ZM677.324 219.149C683.682 219.149 688.837 213.995 688.837 207.637V151.053C688.837 144.694 683.683 139.54 677.324 139.54C670.966 139.54 665.812 144.694 665.812 151.053V207.637C665.812 213.995 670.966 219.149 677.324 219.149ZM165.162 216.201C171.52 216.201 176.675 211.047 176.675 204.688V154.001C176.675 147.643 171.52 142.487 165.162 142.487C158.804 142.487 153.649 147.643 153.649 154.001V204.688C153.649 211.047 158.804 216.201 165.162 216.201ZM1189.49 213.688C1195.84 213.687 1201 208.533 1201 202.175V156.514C1201 150.156 1195.84 145.001 1189.49 145.001C1183.13 145.001 1177.97 150.156 1177.97 156.514V202.175C1177.97 208.533 1183.13 213.688 1189.49 213.688ZM984.624 208.899C990.982 208.899 996.137 203.745 996.137 197.387V161.303C996.137 154.944 990.982 149.79 984.624 149.79C978.266 149.79 973.111 154.945 973.111 161.303V197.387C973.112 203.745 978.266 208.899 984.624 208.899ZM113.945 200.971C120.304 200.971 125.458 195.816 125.458 189.458L125.458 169.231C125.458 162.873 120.304 157.719 113.945 157.719C107.587 157.719 102.433 162.873 102.433 169.231L102.433 189.458C102.433 195.816 107.587 200.971 113.945 200.971ZM626.109 198.266C632.467 198.265 637.622 193.111 637.622 186.753V171.937C637.622 165.578 632.468 160.424 626.109 160.424C619.751 160.424 614.597 165.578 614.597 171.937V186.753C614.597 193.111 619.751 198.266 626.109 198.266Z" fill="url(#paint0_linear_649_8900)"/>
<defs>
<linearGradient id="paint0_linear_649_8900" x1="1200.41" y1="288.965" x2="27.119" y2="553.809" gradientUnits="userSpaceOnUse">
<stop stop-color="#206FE5" stop-opacity="0"/>
<stop offset="1" stop-color="#35FF89"/>
</linearGradient>
</defs>
</svg>
