<svg width="32" height="28" fill="none" xmlns="http://www.w3.org/2000/svg"><path d="M29.814.583L.834 11.798a.37.37 0 00-.05.023c-.236.133-1.876 1.137.437 2.036l.023.009 6.901 2.23a.38.38 0 00.319-.04L25.58 5.377a.375.375 0 01.137-.051c.238-.04.924-.114.49.437-.49.625-12.181 11.102-13.479 12.264a.394.394 0 00-.13.26l-.566 6.75a.443.443 0 00.177.355.43.43 0 00.51-.039l4.101-3.664a.38.38 0 01.477-.025l7.153 5.194.023.016c.174.107 2.044 1.195 2.584-1.235l4.937-23.48c.007-.074.074-.891-.51-1.374C30.87.28 30 .535 29.87.562a.376.376 0 00-.056.02z" fill="#707682"/></svg>