<svg width="523" height="170" fill="none" xmlns="http://www.w3.org/2000/svg"><rect x="1" y="1.689" width="277.462" height="167.25" rx="23" stroke="#3177F3" stroke-width="2"/><path d="M11.755 123.782l5.315-22.496c1.745-7.39 2.618-11.086 5.346-13.244 2.727-2.158 6.524-2.158 14.118-2.158h4.928c4.808 0 7.212 0 9.21-.925a9.998 9.998 0 003.106-2.248c1.504-1.61 2.255-3.892 3.758-8.46l1.91-5.804c2.905-8.83 4.358-13.245 6.413-15.045a10 10 0 0112.196-.76c2.262 1.532 4.252 5.732 8.23 14.133v0c1.172 2.473 1.758 3.71 2.572 4.685a10 10 0 005.179 3.278c1.23.318 2.599.318 5.335.318h10.678c6.613 0 9.919 0 12.469 1.742 2.551 1.742 3.754 4.821 6.16 10.98l3.178 8.135c6.077 15.554 9.115 23.33 14.256 24.519a10 10 0 004.044.096c5.192-.946 8.593-8.57 15.396-23.82v0c2.116-4.742 3.173-7.113 5.066-8.629.52-.416 1.08-.78 1.671-1.084 2.156-1.11 4.752-1.11 9.945-1.11h15.074c1.344 0 2.016 0 2.68-.09.664-.09 1.312-.267 2.608-.623l26.037-7.137c5.309-1.455 7.963-2.183 9.827-4.029 1.864-1.846 2.617-4.493 4.123-9.788l.646-2.274c1.989-6.992 2.983-10.488 5.658-12.508 2.675-2.02 6.31-2.02 13.579-2.02h5.241" stroke="#3177F3" stroke-width="2"/><path opacity=".5" d="M13 37.69h254m-254 48h254M13 133.689h254" stroke="#3177F3" stroke-width="2" stroke-dasharray="1 12"/><rect x="296.462" y="1.689" width="225.538" height="74.625" rx="23" stroke="#3177F3" stroke-width="2"/><path d="M308.231 22.522h9.176c5.124 0 7.685 0 9.862 1.138 2.177 1.138 3.639 3.241 6.562 7.448l.702 1.01c2.924 4.208 4.386 6.311 6.563 7.45 2.176 1.138 4.738 1.138 9.861 1.138h62.719c3.678 0 5.517 0 7.182-.61.505-.185.994-.41 1.463-.673 1.545-.87 2.741-2.267 5.132-5.062v0c5.746-6.715 8.62-10.073 12.252-10.652a10.004 10.004 0 013.224.013c3.628.606 6.475 3.986 12.17 10.746l3.457 4.104c6.406 7.604 9.609 11.406 13.199 12.03a9.998 9.998 0 006.385-1.014c3.221-1.703 5.091-6.31 8.829-15.523v0c1.659-4.09 2.489-6.134 3.937-7.574.9-.895 1.962-1.61 3.129-2.108 1.879-.8 4.086-.8 8.499-.8h7.697" stroke="#3177F3" stroke-width="2"/><rect x="296.462" y="94.314" width="225.538" height="74.625" rx="23" stroke="#3177F3" stroke-width="2"/><path d="M307.462 157.57l11.58-11.36c4.483-4.397 6.724-6.595 9.616-7.187 2.892-.591 5.816.551 11.665 2.836l12.384 4.836c4.598 1.796 6.898 2.694 9.261 2.472 2.364-.223 4.455-1.534 8.638-4.157l48.147-30.186c6.955-4.36 10.433-6.541 14.1-5.985 3.668.557 6.343 3.67 11.693 9.897l4.694 5.462c2.945 3.428 4.417 5.141 6.404 6.054 1.987.912 4.246.912 8.765.912h23.099c4.045 0 6.068 0 7.89.747s3.263 2.166 6.145 5.004L511 146.23" stroke="#3177F3" stroke-width="2"/></svg>