<svg width="311" height="213" fill="none" xmlns="http://www.w3.org/2000/svg"><path d="M6.99 73.612l3.16-13.453c1.039-4.42 1.558-6.63 3.18-7.92 1.621-1.29 3.88-1.29 8.395-1.29h2.93c2.86 0 4.289 0 5.477-.554a5.95 5.95 0 001.847-1.344c.894-.963 1.341-2.328 2.235-5.06l1.136-3.47c1.727-5.281 2.591-7.921 3.813-8.998a5.92 5.92 0 017.252-.454c1.346.916 2.529 3.427 4.895 8.451.696 1.48 1.045 2.22 1.528 2.803a5.943 5.943 0 003.08 1.96c.732.19 1.546.19 3.173.19h6.35c3.932 0 5.897 0 7.414 1.041 1.517 1.042 2.233 2.884 3.663 6.567l1.89 4.865c3.613 9.301 5.42 13.952 8.477 14.663.79.183 1.608.203 2.405.057 3.087-.565 5.11-5.125 9.155-14.244 1.258-2.836 1.887-4.254 3.013-5.161.309-.249.642-.466.993-.649 1.282-.664 2.826-.664 5.914-.664h8.964c.799 0 1.199 0 1.593-.053.395-.054.78-.16 1.551-.372l15.483-4.269c3.157-.87 4.735-1.305 5.844-2.41 1.108-1.103 1.556-2.686 2.451-5.853l.385-1.36c1.182-4.18 1.773-6.271 3.364-7.48 1.591-1.208 3.752-1.208 8.075-1.208h3.116" stroke="#3177F3" stroke-width="2"/><path opacity=".5" d="M7.73 22.127h151.041M7.731 50.832h151.04M7.731 79.537h151.04" stroke="#3177F3" stroke-width="2" stroke-dasharray="1 12"/><path d="M14.271 1h137.364c7.324 0 13.271 5.973 13.271 13.352v72.362c0 7.38-5.947 13.352-13.271 13.352H14.272C6.947 100.066 1 94.094 1 86.714V14.352C1 6.972 6.947 1 14.271 1zm169.018 12.057h5.457c3.046 0 4.569 0 5.864.68 1.294.68 2.163 1.939 3.902 4.455l.417.604c1.739 2.516 2.608 3.774 3.903 4.454 1.294.681 2.817.681 5.864.681h37.295c2.188 0 3.281 0 4.271-.364.3-.111.591-.246.87-.403.919-.52 1.63-1.355 3.052-3.027 3.417-4.016 5.125-6.024 7.285-6.37a5.914 5.914 0 011.917.007c2.158.363 3.851 2.384 7.237 6.427l2.056 2.454c3.809 4.547 5.714 6.821 7.849 7.194a5.918 5.918 0 003.797-.606c1.915-1.019 3.027-3.773 5.25-9.283.986-2.446 1.48-3.669 2.341-4.53a5.947 5.947 0 011.861-1.26c1.117-.479 2.429-.479 5.054-.479h4.576" stroke="#3177F3" stroke-width="2"/><path d="M189.691 1h107.037c7.324 0 13.271 5.973 13.271 13.352v17.343c0 7.38-5.947 13.353-13.271 13.353H189.691c-7.324 0-13.271-5.973-13.271-13.353V14.352C176.42 6.972 182.367 1 189.691 1zm-6.859 92.819l6.886-6.793c2.666-2.63 3.999-3.945 5.718-4.298 1.72-.354 3.459.33 6.937 1.695l7.364 2.892c2.734 1.075 4.102 1.612 5.507 1.479 1.406-.133 2.649-.918 5.137-2.486l28.63-18.052c4.136-2.608 6.204-3.912 8.385-3.579 2.181.333 3.771 2.194 6.953 5.918l2.791 3.267c1.751 2.05 2.626 3.075 3.808 3.62 1.181.546 2.525.546 5.212.546h13.736c2.405 0 3.608 0 4.692.446 1.083.447 1.94 1.296 3.654 2.993l5.623 5.57" stroke="#3177F3" stroke-width="2"/><path d="M189.691 56.617h107.037c7.324 0 13.271 5.973 13.271 13.353v17.343c0 7.38-5.947 13.352-13.271 13.352H189.691c-7.324 0-13.271-5.973-13.271-13.353V69.97c0-7.38 5.947-13.353 13.271-13.353zM7.73 173.279l9.715-3.906c2.43-.978 3.646-1.466 4.53-2.382.883-.916 1.331-2.153 2.228-4.627l6.841-18.874c1.378-3.802 2.067-5.703 3.603-6.783 1.535-1.081 3.547-1.081 7.57-1.081h4.565c3.464 0 5.195 0 6.604.847 1.409.846 2.23 2.38 3.87 5.447l2.41 4.505c1.64 3.067 2.46 4.601 3.87 5.448 1.409.846 3.14.846 6.603.846h3.667c4.53 0 6.796 0 8.42 1.297 1.624 1.297 2.138 3.517 3.164 7.955l.275 1.188c2.91 12.586 4.365 18.879 8.294 19.526.109.018.218.033.328.045 3.959.426 7.025-5.251 13.158-16.605 1.607-2.976 2.411-4.464 3.771-5.301l.127-.076c1.381-.803 3.065-.803 6.432-.803h5.826c2.247 0 3.37 0 4.396-.394 1.025-.394 1.862-1.148 3.536-2.655l4.04-3.637c5.256-4.732 7.884-7.098 10.75-6.571 2.865.528 4.49 3.676 7.739 9.973l5.245 10.166c1.621 3.142 2.431 4.713 3.854 5.583 1.423.869 3.183.869 6.702.869h3.483c3.195 0 4.793 0 6.131.739 1.337.74 2.194 2.096 3.907 4.809l2.93 4.637c.565.896.848 1.344 1.181 1.715a5.934 5.934 0 003.432 1.897c.491.083 1.018.083 2.073.083 1.26 0 1.89 0 2.459-.113a5.948 5.948 0 003.777-2.517c.324-.483.57-1.067 1.06-2.233h.001l16.548-39.345c1.489-3.54 2.233-5.31 3.727-6.305 1.493-.996 3.404-.996 7.226-.996h18.768c3.437 0 5.156 0 6.558.836 1.402.836 2.227 2.352 3.876 5.385l10.539 19.376c3.595 6.61 5.393 9.916 8.403 10.301 3.01.385 5.574-2.361 10.701-7.855l5.076-5.437c1.736-1.86 2.604-2.79 3.735-3.282 1.13-.492 2.399-.492 4.936-.492h2.88" stroke="#3177F3" stroke-width="2"/><path opacity=".5" d="M7.73 132.762h295.54M7.73 161.467h295.54M7.73 190.172h295.54" stroke="#3177F3" stroke-width="2" stroke-dasharray="1 12"/><path d="M14.271 111.635H296.73c7.324 0 13.271 5.973 13.271 13.352v72.959c0 7.38-5.947 13.353-13.271 13.353H14.272C6.947 211.299 1 205.326 1 197.946v-72.959c0-7.264 5.763-13.166 12.93-13.348l.341-.004z" stroke="#3177F3" stroke-width="2"/></svg>