<svg width="81" height="81" viewBox="0 0 81 81" fill="none" xmlns="http://www.w3.org/2000/svg">
<mask id="mask0_448_1949" style="mask-type:alpha" maskUnits="userSpaceOnUse" x="0" y="0" width="81" height="81">
<circle cx="40" cy="40" r="40" transform="matrix(1 0 0 -1 0.5 80.6895)" fill="#D9D9D9"/>
</mask>
<g mask="url(#mask0_448_1949)">
<path fill-rule="evenodd" clip-rule="evenodd" d="M14.1146 73.491C17.4222 69.8947 21.4389 67.0225 25.9117 65.0556C30.3844 63.0887 35.2161 62.0697 40.1022 62.0629C44.9883 62.056 49.8228 63.0615 54.301 65.0158C58.7792 66.9701 62.8041 69.831 66.1217 73.418L72.4811 67.5362C68.351 63.0708 63.3406 59.5094 57.7658 57.0765C52.191 54.6436 46.1726 53.3919 40.09 53.4005C34.0074 53.409 27.9926 54.6775 22.4246 57.1261C16.8566 59.5746 11.8563 63.15 7.7387 67.627L14.1146 73.491ZM12.8524 40.5358C8.87087 43.368 4.34582 45.3448 -0.437564 46.3414L1.32929 54.8217C7.284 53.581 12.9171 51.1203 17.8736 47.5945C22.83 44.0687 27.0024 39.5543 30.1275 34.336C33.2527 29.1176 35.2629 23.3084 36.0315 17.2746C36.8001 11.2408 36.3103 5.11316 34.5932 -0.722006L26.2831 1.72347C27.6625 6.41082 28.0559 11.3331 27.4385 16.18C26.8211 21.027 25.2063 25.6934 22.6959 29.8853C20.1855 34.0772 16.8339 37.7035 12.8524 40.5358ZM81.6042 47.0785C76.8679 45.8781 72.4316 43.7094 68.575 40.7094C64.7183 37.7093 61.525 33.9428 59.1964 29.6473C56.8677 25.3518 55.4541 20.6205 55.0447 15.7516C54.6354 10.8827 55.2391 5.98174 56.8179 1.35773L48.6201 -1.44121C46.6547 4.31511 45.9032 10.4162 46.4128 16.4774C46.9224 22.5385 48.6821 28.4284 51.581 33.7758C54.4799 39.1231 58.4552 43.8119 63.2562 47.5466C68.0572 51.2814 73.5798 53.981 79.476 55.4754L81.6042 47.0785Z" stroke="#0D1A35" stroke-width="2"/>
<path fill-rule="evenodd" clip-rule="evenodd" d="M26.2127 65.0414C26.671 69.906 26.1165 74.8127 24.5843 79.4524L32.8098 82.1688C34.7172 76.393 35.4074 70.2847 34.8369 64.2289C34.2664 58.1732 32.4476 52.3012 29.495 46.9833C26.5425 41.6654 22.5203 37.0168 17.682 33.3305C12.8437 29.6442 7.29423 27.0002 1.38336 25.5652L-0.660352 33.9831C4.08781 35.1358 8.54568 37.2597 12.4323 40.2209C16.3188 43.1821 19.5498 46.9163 21.9216 51.1881C24.2933 55.46 25.7544 60.1768 26.2127 65.0414ZM55.3719 80.4485C53.9148 75.7847 53.4396 70.8697 53.9764 66.0131C54.5131 61.1566 56.0501 56.4639 58.4905 52.2309C60.9309 47.9979 64.2218 44.3163 68.1556 41.4183C72.0895 38.5202 76.581 36.4686 81.3472 35.3926L79.4396 26.9428C73.5064 28.2823 67.9149 30.8364 63.0178 34.4441C58.1206 38.0518 54.0239 42.6348 50.9859 47.9044C47.9479 53.174 46.0346 59.0158 45.3664 65.0616C44.6982 71.1073 45.2897 77.226 47.1036 83.0318L55.3719 80.4485ZM25.883 16.1094C21.4633 14.026 17.5232 11.0497 14.3109 7.36792L7.78365 13.0629C11.7825 17.6462 16.6875 21.3514 22.1895 23.9449C27.6914 26.5384 33.671 27.964 39.7513 28.1319C45.8315 28.2997 51.8806 27.2061 57.5173 24.9201C63.1539 22.634 68.2558 19.205 72.5015 14.8493L66.2983 8.80295C62.8878 12.3019 58.7895 15.0564 54.2616 16.8927C49.7337 18.7291 44.8745 19.6076 39.9903 19.4727C35.106 19.3379 30.3027 18.1927 25.883 16.1094Z" stroke="#0D1A35" stroke-width="2"/>
</g>
</svg>
