<svg width="81" height="81" viewBox="0 0 81 81" fill="none" xmlns="http://www.w3.org/2000/svg">
<g clip-path="url(#clip0_451_3208)">
<circle cx="40.5" cy="40.6895" r="39" stroke="#0D1A35" stroke-width="2"/>
<path d="M43.5 2.68945L60.7574 19.9468C63.1005 22.29 63.1005 26.0889 60.7574 28.4321L43.5 45.6895" stroke="#0D1A35" stroke-width="2" stroke-linecap="round"/>
<path d="M52.5 80.6895L34.7426 62.9321C32.3995 60.589 32.3995 56.79 34.7426 54.4468L52.5 36.6895" stroke="#0D1A35" stroke-width="2" stroke-linecap="round"/>
<path d="M37.5 80.6895L19.7426 62.9321C17.3995 60.589 17.3995 56.79 19.7426 54.4468L37.5 36.6895" stroke="#0D1A35" stroke-width="2" stroke-linecap="round"/>
<path d="M28.5 2.68945L45.7574 19.9468C48.1005 22.29 48.1005 26.0889 45.7574 28.4321L28.5 45.6895" stroke="#0D1A35" stroke-width="2" stroke-linecap="round"/>
<path d="M58.5 2.68945L75.7574 19.9468C78.1005 22.29 78.1005 26.0889 75.7574 28.4321L58.5 45.6895" stroke="#0D1A35" stroke-width="2" stroke-linecap="round"/>
<path d="M67.5 80.6895L49.7426 62.9321C47.3995 60.589 47.3995 56.79 49.7426 54.4468L67.5 36.6895" stroke="#0D1A35" stroke-width="2" stroke-linecap="round"/>
<path d="M73.5 2.68945L90.7574 19.9468C93.1005 22.29 93.1005 26.0889 90.7574 28.4321L73.5 45.6895" stroke="#0D1A35" stroke-width="2" stroke-linecap="round"/>
<path d="M82.5 80.6895L64.7426 62.9321C62.3995 60.589 62.3995 56.79 64.7426 54.4468L82.5 36.6895" stroke="#0D1A35" stroke-width="2" stroke-linecap="round"/>
<path d="M13.5 2.68945L30.7574 19.9468C33.1005 22.29 33.1005 26.0889 30.7574 28.4321L13.5 45.6895" stroke="#0D1A35" stroke-width="2" stroke-linecap="round"/>
<path d="M22.5 80.6895L4.74264 62.9321C2.3995 60.589 2.39949 56.79 4.74264 54.4468L22.5 36.6895" stroke="#0D1A35" stroke-width="2" stroke-linecap="round"/>
<path d="M-1.5 2.68945L15.7574 19.9468C18.1005 22.29 18.1005 26.0889 15.7574 28.4321L-1.5 45.6895" stroke="#0D1A35" stroke-width="2" stroke-linecap="round"/>
<path d="M7.5 80.6895L-10.2574 62.9321C-12.6005 60.589 -12.6005 56.79 -10.2574 54.4468L7.5 36.6895" stroke="#0D1A35" stroke-width="2" stroke-linecap="round"/>
</g>
<defs>
<clipPath id="clip0_451_3208">
<rect x="0.5" y="0.689453" width="80" height="80" rx="40" fill="white"/>
</clipPath>
</defs>
</svg>
