<svg width="81" height="81" viewBox="0 0 81 81" fill="none" xmlns="http://www.w3.org/2000/svg">
<path fill-rule="evenodd" clip-rule="evenodd" d="M50.8543 69.5677C47.5509 68.2757 44.0492 66.4354 40.5001 64.1034C36.951 66.4354 33.4492 68.2758 30.1458 69.5678C33.2526 75.7097 37.0055 78.6895 40.5 78.6895C43.9946 78.6895 47.7474 75.7097 50.8543 69.5677ZM52.7466 70.2551C49.5153 76.7369 45.2174 80.6895 40.5 80.6895C35.7826 80.6895 31.4848 76.737 28.2535 70.2552C21.3853 72.5536 15.5516 72.3094 12.2159 68.9737C8.88015 65.638 8.63596 59.8042 10.9344 52.936C4.45252 49.7047 0.5 45.4069 0.5 40.6894C0.5 35.972 4.4525 31.6742 10.9344 28.4429C8.63587 21.5747 8.88005 15.7408 12.2158 12.4051C15.5515 9.06937 21.3853 8.82519 28.2535 11.1236C31.4848 4.64189 35.7826 0.689453 40.5 0.689453C45.2174 0.689453 49.5152 4.64193 52.7465 11.1237C59.6148 8.82524 65.4487 9.0694 68.7844 12.4051C72.1201 15.7409 72.3643 21.5747 70.0658 28.443C76.5476 31.6743 80.5 35.9721 80.5 40.6895C80.5 45.4069 76.5476 49.7046 70.0658 52.9359C72.3642 59.8041 72.12 65.6379 68.7843 68.9736C65.4486 72.3093 59.6148 72.5535 52.7466 70.2551ZM53.5986 68.431C60.1384 70.5771 64.8991 70.0304 67.3701 67.5594C69.8411 65.0884 70.3877 60.3278 68.2417 53.788C64.9922 55.2102 61.2147 56.385 57.0562 57.2456C56.1956 61.4041 55.0208 65.1815 53.5986 68.431ZM69.3784 51.0436C75.5203 47.9368 78.5 44.184 78.5 40.6895C78.5 37.1949 75.5203 33.4421 69.3784 30.3353C68.0864 33.6387 66.2461 37.1404 63.9141 40.6894C66.2461 44.2385 68.0864 47.7402 69.3784 51.0436ZM62.6948 42.4852C64.7718 45.7328 66.4093 48.9141 67.5657 51.9004C64.6363 53.1943 61.2289 54.286 57.4638 55.1137C57.8592 52.8643 58.1649 50.5167 58.3711 48.092C59.9398 46.2316 61.3838 44.3554 62.6948 42.4852ZM62.6948 38.8937C64.7718 35.6461 66.4093 32.4648 67.5657 29.4785C64.6364 28.1846 61.229 27.0929 57.4638 26.2652C57.8592 28.5145 58.1648 30.8622 58.3711 33.2868C59.9398 35.1473 61.3838 37.0235 62.6948 38.8937ZM58.5937 36.727C59.6328 38.0491 60.6043 39.3728 61.5058 40.6894C60.6043 42.0061 59.6328 43.3297 58.5937 44.6519C58.652 43.3484 58.6818 42.0266 58.6818 40.6895C58.6818 39.3523 58.652 38.0305 58.5937 36.727ZM56.0959 30.6968C55.8958 29.0274 55.6469 27.4045 55.3533 25.8362C53.7849 25.5426 52.1621 25.2937 50.4926 25.0935C51.4554 25.9739 52.4111 26.8874 53.3565 27.8329C54.302 28.7783 55.2155 29.734 56.0959 30.6968ZM47.0985 24.7596C48.7293 26.1565 50.3492 27.654 51.9423 29.2471C53.5354 30.8402 55.033 32.4601 56.4298 34.0909C56.5953 36.2319 56.6818 38.4364 56.6818 40.6895C56.6818 42.9425 56.5953 45.147 56.4298 47.2879C55.033 48.9187 53.5355 50.5386 51.9424 52.1317C50.3493 53.7248 48.7293 55.2224 47.0984 56.6193C44.9575 56.7847 42.753 56.8713 40.5 56.8713C38.247 56.8713 36.0427 56.7847 33.9018 56.6193C32.2709 55.2224 30.6509 53.7248 29.0578 52.1316C27.4646 50.5385 25.967 48.9185 24.5702 47.2876C24.4047 45.1468 24.3182 42.9424 24.3182 40.6895C24.3182 38.4365 24.4047 36.2321 24.5702 34.0912C25.9671 32.4603 27.4647 30.8403 29.0579 29.2471C30.651 27.654 32.2709 26.1565 33.9017 24.7596C36.0426 24.5942 38.247 24.5076 40.5 24.5076C42.7531 24.5076 44.9576 24.5942 47.0985 24.7596ZM47.9026 22.8184C50.3273 23.0246 52.6749 23.3303 54.9242 23.7257C54.0965 19.9605 53.0049 16.5532 51.711 13.6238C48.7247 14.7802 45.5434 16.4177 42.2958 18.4948C44.166 19.8057 46.0422 21.2496 47.9026 22.8184ZM40.5001 19.6837C41.8168 20.5852 43.1404 21.5567 44.4625 22.5957C43.159 22.5375 41.8372 22.5076 40.5 22.5076C39.1629 22.5076 37.8412 22.5375 36.5378 22.5957C37.8599 21.5567 39.1835 20.5851 40.5001 19.6837ZM40.5001 17.2755C44.0491 14.9435 47.5508 13.1031 50.8542 11.8111C47.7474 5.6692 43.9945 2.68945 40.5 2.68945C37.0055 2.68945 33.2527 5.66917 30.1458 11.811C33.4493 13.1031 36.951 14.9434 40.5001 17.2755ZM29.2891 13.6237C32.2754 14.7801 35.4567 16.4176 38.7044 18.4948C36.8342 19.8057 34.958 21.2496 33.0976 22.8184C30.6729 23.0246 28.3252 23.3302 26.0758 23.7257C26.9035 19.9605 27.9951 16.5531 29.2891 13.6237ZM27.4015 12.9478C20.8616 10.8016 16.101 11.3483 13.63 13.8193C11.159 16.2903 10.6123 21.051 12.7585 27.5909C16.0079 26.1686 19.7853 24.9939 23.9438 24.1333C24.8044 19.9747 25.9792 16.1972 27.4015 12.9478ZM11.6217 30.3352C5.47977 33.4421 2.5 37.1949 2.5 40.6894C2.5 44.184 5.47977 47.9369 11.6217 51.0437C12.9138 47.7403 14.7541 44.2385 17.0861 40.6894C14.7541 37.1404 12.9138 33.6386 11.6217 30.3352ZM18.3054 38.8937C16.2283 35.6461 14.5909 32.4648 13.4344 29.4785C16.3638 28.1845 19.7711 27.0929 23.5362 26.2652C23.1408 28.5146 22.8351 30.8623 22.6289 33.2871C21.0602 35.1475 19.6163 37.0236 18.3054 38.8937ZM18.3055 42.4852C16.2284 45.7328 14.5909 48.9141 13.4344 51.9005C16.3638 53.1944 19.7711 54.286 23.5362 55.1137C23.1408 52.8643 22.8351 50.5165 22.6289 48.0917C21.0602 46.2314 19.6163 44.3553 18.3055 42.4852ZM22.4063 44.6516C21.3673 43.3295 20.3958 42.006 19.4944 40.6894C20.3958 39.3729 21.3673 38.0493 22.4063 36.7273C22.348 38.0307 22.3182 39.3524 22.3182 40.6895C22.3182 42.0265 22.348 43.3482 22.4063 44.6516ZM24.904 50.6817C25.1042 52.3513 25.3531 53.9743 25.6467 55.5427C27.2152 55.8363 28.8381 56.0852 30.5077 56.2854C29.5448 55.4049 28.5891 54.4914 27.6436 53.5458C26.6981 52.6003 25.7845 51.6446 24.904 50.6817ZM33.0977 58.5606C30.6729 58.3543 28.3252 58.0487 26.0758 57.6532C26.9035 61.4184 27.9951 64.8257 29.289 67.7551C32.2754 66.5987 35.4567 64.9612 38.7044 62.8841C36.8343 61.5732 34.9581 60.1293 33.0977 58.5606ZM42.2958 62.8841C45.5435 64.9611 48.7247 66.5986 51.711 67.755C53.0049 64.8257 54.0965 61.4183 54.9242 57.6532C52.6749 58.0486 50.3272 58.3543 47.9025 58.5605C46.0422 60.1292 44.166 61.5732 42.2958 62.8841ZM40.5001 61.6951C39.1835 60.7937 37.86 59.8222 36.5379 58.7832C37.8412 58.8415 39.163 58.8713 40.5 58.8713C41.8371 58.8713 43.1589 58.8414 44.4624 58.7832C43.1403 59.8222 41.8167 60.7937 40.5001 61.6951ZM13.6301 67.5595C16.1011 70.0305 20.8617 70.5771 27.4015 68.4311C25.9792 65.1816 24.8044 61.4042 23.9438 57.2456C19.7853 56.385 16.0079 55.2103 12.7585 53.788C10.6124 60.3279 11.1591 65.0885 13.6301 67.5595ZM55.3533 55.5427C53.7849 55.8363 52.162 56.0852 50.4925 56.2854C51.4554 55.4049 52.4111 54.4914 53.3566 53.5459C54.302 52.6005 55.2155 51.6448 56.096 50.682C55.8958 52.3515 55.6469 53.9744 55.3533 55.5427ZM67.3702 13.8194C69.8412 16.2904 70.3878 21.051 68.2417 27.591C64.9922 26.1687 61.2148 24.9939 57.0562 24.1333C56.1956 19.9747 55.0208 16.1973 53.5985 12.9478C60.1385 10.8017 64.8992 11.3483 67.3702 13.8194ZM25.6467 25.8362C27.2152 25.5426 28.8381 25.2937 30.5076 25.0935C29.5448 25.9739 28.5891 26.8875 27.6436 27.8329C26.6981 28.7784 25.7845 29.7342 24.904 30.6971C25.1042 29.0275 25.3531 27.4046 25.6467 25.8362Z" fill="#0D1A35"/>
</svg>
