<svg width="321" height="321" viewBox="0 0 321 321" fill="none" xmlns="http://www.w3.org/2000/svg">
<path fill-rule="evenodd" clip-rule="evenodd" d="M301.423 131.744C305.391 125.641 307.633 121.228 308.402 117.164C310.881 104.066 305.18 90.772 293.983 83.5398C290.924 81.5646 286.884 80.2294 281.08 79.0293C282.12 73.1939 282.38 68.9465 281.681 65.3733C279.122 52.2912 268.893 42.0628 255.811 39.5036C251.751 38.7093 246.821 39.1531 239.68 40.5726C238.17 33.4505 236.635 28.7446 234.305 25.3265C226.797 14.312 213.365 8.94287 200.333 11.7469C196.774 12.5126 192.974 14.425 188.022 17.6799C184.631 12.819 181.812 9.63227 178.792 7.60014C167.731 0.159327 153.266 0.159327 142.206 7.60014C138.774 9.90949 135.601 13.71 131.555 19.764C125.45 15.7947 121.036 13.5522 116.971 12.7827C103.873 10.3034 90.5792 16.0045 83.347 27.2022C81.3718 30.2604 80.0367 34.3005 78.8367 40.1045C73.0017 39.0644 68.7545 38.8046 65.1815 39.5036C52.0994 42.0628 41.871 52.2912 39.3117 65.3733C38.5175 69.4332 38.9613 74.3636 40.3809 81.5049C33.2584 83.0147 28.5523 84.5501 25.1341 86.8802C14.1195 94.3883 8.75045 107.82 11.5545 120.852C12.3204 124.412 14.2334 128.213 17.4894 133.166C12.6291 136.556 9.44268 139.375 7.4107 142.396C-0.0301237 153.456 -0.0301281 167.921 7.41069 178.981C9.71959 182.413 13.519 185.585 19.5711 189.63C15.6018 195.735 13.3595 200.149 12.59 204.214C10.1106 217.311 15.8118 230.606 27.0094 237.838C30.0678 239.813 34.1081 241.148 39.9126 242.348C38.8726 248.183 38.6128 252.43 39.3117 256.003C41.871 269.085 52.0994 279.314 65.1815 281.873C69.2413 282.667 74.1715 282.223 81.3124 280.804C82.8223 287.926 84.3577 292.633 86.6877 296.051C94.1959 307.065 107.628 312.435 120.66 309.63C124.219 308.865 128.021 306.951 132.975 303.695C136.366 308.557 139.185 311.744 142.206 313.777C153.266 321.217 167.731 321.217 178.792 313.777C182.224 311.468 185.396 307.668 189.441 301.616C195.544 305.584 199.957 307.825 204.021 308.595C217.119 311.074 230.413 305.373 237.645 294.175C239.62 291.117 240.955 287.076 242.156 281.272C247.991 282.312 252.238 282.572 255.811 281.873C268.893 279.314 279.122 269.085 281.681 256.003C282.475 251.943 282.031 247.013 280.612 239.872C287.734 238.363 292.44 236.827 295.858 234.497C306.873 226.989 312.242 213.557 309.438 200.525C308.672 196.966 306.76 193.166 303.504 188.213C308.367 184.822 311.555 182.002 313.587 178.981C321.028 167.921 321.028 153.456 313.587 142.396C311.278 138.963 307.477 135.79 301.423 131.744ZM281.739 197.355L281.961 197.22C288.649 193.155 293.937 189.941 298.142 187.181C295.261 183.057 291.544 178.109 286.841 171.85L286.685 171.643C284.121 168.232 281.856 165.218 279.829 162.499C275.407 168.836 272.357 173.473 269.624 178.263C269.038 179.289 268.463 180.321 267.898 181.359C268.037 182.532 268.188 183.704 268.351 184.875C269.112 190.337 270.222 195.775 271.977 203.302C274.869 201.53 278.092 199.571 281.739 197.355ZM267.236 174.696C269.959 170.079 273.068 165.426 277.406 159.236C273.195 153.534 270.098 149.157 267.389 144.883C266.492 154.799 266.441 164.773 267.236 174.696ZM279.747 155.914C275.169 149.689 272.005 145.129 269.154 140.409C268.79 139.806 268.429 139.202 268.073 138.595C268.161 137.896 268.254 137.198 268.351 136.501C269.112 131.039 270.222 125.601 271.977 118.075C274.869 119.847 278.091 121.805 281.738 124.021L281.961 124.157C287.588 127.576 292.224 130.394 296.058 132.846C293.5 136.611 290.349 141.029 286.524 146.391L286.373 146.603C283.896 150.076 281.706 153.145 279.747 155.914ZM298.195 129.637C294.281 127.132 289.585 124.278 283.963 120.862L283.957 120.859C279.746 118.299 276.112 116.091 272.91 114.124C273.783 110.468 274.792 106.336 275.96 101.548C277.811 93.961 279.301 87.8574 280.346 82.8145C280.393 82.8243 280.44 82.834 280.486 82.8438C286.048 84.0046 289.472 85.216 291.891 86.7785C301.771 93.1598 306.802 104.89 304.614 116.447C304.078 119.276 302.596 122.592 299.603 127.421C299.162 128.133 298.693 128.87 298.195 129.637ZM299.287 134.953C296.676 138.799 293.484 143.273 289.663 148.63C286.801 152.643 284.33 156.106 282.162 159.177C284.406 162.193 286.961 165.593 289.923 169.534C294.615 175.777 298.39 180.801 301.338 185.024L301.458 184.94C306.112 181.681 308.781 179.218 310.388 176.829C316.954 167.07 316.954 154.307 310.388 144.548C308.781 142.158 306.112 139.696 301.458 136.437C300.771 135.955 300.048 135.462 299.287 134.953ZM242.879 277.484C242.926 277.493 242.974 277.501 243.021 277.51C248.616 278.496 252.245 278.642 255.071 278.089C266.614 275.831 275.639 266.806 277.897 255.263C278.45 252.436 278.304 248.808 277.318 243.213C277.172 242.387 277.01 241.528 276.832 240.631C272.268 241.504 266.847 242.411 260.358 243.497C255.496 244.31 251.3 245.012 247.596 245.651C247.05 249.37 246.452 253.581 245.76 258.461C244.663 266.193 243.78 272.414 242.879 277.484ZM243.597 246.35C243.108 249.706 242.578 253.439 241.979 257.663L241.943 257.92C240.843 265.67 239.973 271.797 239.094 276.75C234.168 275.728 228.156 274.262 220.551 272.406L220.298 272.345L220.265 272.337C216.135 271.329 212.484 270.438 209.196 269.648C213.277 263.086 216.337 258.456 219.661 254.056C220.374 253.113 221.096 252.177 221.827 251.249C222.959 250.914 224.095 250.592 225.235 250.28C230.554 248.826 235.989 247.704 243.597 246.35ZM248.196 241.636C251.538 241.063 255.256 240.441 259.464 239.737L259.721 239.694C266.217 238.607 271.568 237.711 276.039 236.858C275.061 232.412 273.776 227.141 272.215 220.743L272.153 220.49L272.15 220.479C271.14 216.34 270.247 212.681 269.457 209.387C262.896 213.467 258.266 216.527 253.867 219.85C253.304 220.276 252.744 220.704 252.186 221.136C252.009 221.817 251.837 222.498 251.668 223.181C250.347 228.535 249.36 233.996 248.196 241.636ZM247.256 225.1C246.15 230.036 245.245 235.321 244.191 242.33C236.748 243.639 231.26 244.73 226.071 246.069C232.524 238.492 239.612 231.476 247.256 225.1ZM248.789 218.897C252.348 205.589 257.428 192.737 263.929 180.595C262.4 166.909 262.453 153.09 264.087 139.413C257.194 127.487 251.698 114.806 247.71 101.624C236.952 93.0285 227.22 83.2214 218.706 72.3961C205.397 68.8372 192.545 63.7565 180.402 57.2556C166.716 58.7846 152.898 58.7319 139.222 57.0973C127.297 63.99 114.618 69.4846 101.438 73.4735C92.8403 84.2339 83.0304 93.969 72.2016 102.485C68.6429 115.791 63.5631 128.641 57.0636 140.781C58.5929 154.468 58.5401 168.287 56.9054 181.964C63.7978 193.889 69.2923 206.567 73.281 219.747C84.042 228.345 93.7776 238.155 102.294 248.984C115.599 252.542 128.449 257.622 140.588 264.121C154.275 262.592 168.094 262.644 181.772 264.279C193.699 257.386 206.379 251.891 219.561 247.902C228.156 237.144 237.964 227.412 248.789 218.897ZM253.886 215.043C256.733 205.501 260.388 196.22 264.81 187.3C265.625 192.599 266.785 198.074 268.516 205.433C262.488 209.165 257.987 212.08 253.886 215.043ZM133.883 265.002C124.965 260.582 115.687 256.928 106.148 254.08C109.11 258.181 112.025 262.681 115.755 268.707C123.112 266.976 128.586 265.816 133.883 265.002ZM96.0914 247.451C89.7126 239.803 82.6947 232.712 75.1142 226.257C76.4543 231.448 77.5459 236.938 78.8554 244.384C85.867 245.438 91.1532 246.343 96.0914 247.451ZM79.5494 248.389C87.1885 249.553 92.6501 250.54 98.0035 251.861C98.6884 252.03 99.3722 252.203 100.055 252.38C100.485 252.936 100.913 253.495 101.337 254.056C104.661 258.456 107.721 263.086 111.801 269.647C108.504 270.439 104.843 271.332 100.699 272.344L100.694 272.345L100.442 272.406C94.0433 273.968 88.7723 275.253 84.3271 276.231C83.4735 271.76 82.5774 266.409 81.4906 259.914L81.4477 259.657C80.7437 255.449 80.1216 251.731 79.5494 248.389ZM74.8348 243.79C73.4812 236.182 72.3585 230.746 70.9047 225.427C70.5928 224.286 70.2693 223.148 69.9345 222.013C69.0076 221.283 68.0731 220.562 67.131 219.85C62.7311 216.526 58.1001 213.465 51.5368 209.384C50.7453 212.681 49.8517 216.343 48.8404 220.487L48.8398 220.49L48.7781 220.743C46.9222 228.348 45.4562 234.36 44.4339 239.286C49.3873 240.165 55.5141 241.036 63.2645 242.135L63.5215 242.172C67.7457 242.771 71.4788 243.301 74.8348 243.79ZM43.6998 243.072C48.7704 243.973 54.9911 244.856 62.7234 245.953C67.6037 246.645 71.8154 247.243 75.5342 247.789C76.1728 251.493 76.8746 255.688 77.6881 260.55C78.7738 267.039 79.6807 272.46 80.5537 277.024C79.6568 277.202 78.7974 277.364 77.9719 277.51C72.3768 278.496 68.748 278.642 65.9217 278.089C54.3786 275.831 45.3536 266.806 43.0954 255.263C42.5425 252.436 42.6884 248.808 43.6749 243.213C43.6831 243.166 43.6915 243.119 43.6998 243.072ZM40.6466 238.563C41.6916 233.52 43.1811 227.416 45.0326 219.829C46.2013 215.039 47.2098 210.907 48.083 207.25C44.8819 205.283 41.2494 203.076 37.0393 200.517L37.0354 200.515C31.4116 197.098 26.7141 194.243 22.7994 191.738C22.3006 192.505 21.8308 193.244 21.3889 193.957C18.3961 198.786 16.9138 202.101 16.3781 204.931C14.1904 216.488 19.2209 228.218 29.1012 234.599C31.5204 236.162 34.944 237.373 40.5056 238.534C40.5525 238.544 40.5995 238.553 40.6466 238.563ZM24.9366 188.528C28.7713 190.981 33.4079 193.799 39.0372 197.22L39.2679 197.36C42.9094 199.573 46.1277 201.529 49.0164 203.299C50.7708 195.774 51.8812 190.337 52.6414 184.875C52.7385 184.178 52.8313 183.481 52.9199 182.783C52.5633 182.176 52.2029 181.571 51.8388 180.968C48.9875 176.249 45.8237 171.689 41.245 165.464C39.2859 168.232 37.0966 171.301 34.6191 174.774L34.4678 174.986C30.6436 180.347 27.4939 184.764 24.9366 188.528ZM43.5859 162.141C47.7975 167.843 50.8948 172.221 53.6033 176.494C54.5005 166.578 54.5516 156.604 53.7567 146.681C51.0339 151.298 47.9245 155.951 43.5859 162.141ZM53.0948 140.017C52.5299 141.055 51.9544 142.088 51.3682 143.115C48.6351 147.904 45.5856 152.541 41.1632 158.878C39.136 156.159 36.8712 153.146 34.3083 149.735L34.1518 149.527C29.4492 143.27 25.7325 138.322 22.8516 134.198C27.0579 131.438 32.3464 128.223 39.0372 124.157L39.2597 124.021L39.2644 124.019C42.9073 121.805 46.1268 119.848 49.0165 118.077C50.7708 125.602 51.8812 131.04 52.6414 136.501C52.8044 137.672 52.9555 138.844 53.0948 140.017ZM56.1826 134.076C60.6034 125.158 64.2576 115.878 67.1052 106.338C63.0043 109.301 58.5038 112.216 52.4774 115.947C54.2082 123.304 55.3683 128.778 56.1826 134.076ZM73.7345 96.2827C81.3823 89.9042 88.4723 82.8867 94.9279 75.3067C89.7366 76.6468 84.2472 77.7384 76.8008 79.0479C75.7468 86.0589 74.8415 91.3448 73.7345 96.2827ZM72.7962 79.7418C71.6321 87.3811 70.6448 92.8428 69.3236 98.1963C69.1548 98.8806 68.9818 99.5638 68.8047 100.246C68.2495 100.676 67.6916 101.103 67.131 101.526C62.7311 104.851 58.1001 107.911 51.5369 111.993C50.7452 108.695 49.8513 105.032 48.8398 100.886L48.7781 100.634C47.2168 94.2354 45.9314 88.9646 44.954 84.5196C49.4245 83.666 54.7754 82.7699 61.2711 81.6831L61.5277 81.6401C65.7353 80.9362 69.4537 80.314 72.7962 79.7418ZM77.3951 75.0273C85.0033 73.6737 90.4387 72.551 95.7578 71.0972C96.8993 70.7852 98.0372 70.4617 99.1714 70.1269C99.9024 69.1991 100.624 68.2635 101.337 67.3204C104.661 62.9211 107.721 58.2908 111.802 51.7289C108.503 50.9372 104.84 50.0433 100.695 49.0317L100.442 48.9699C92.8367 47.1141 86.8244 45.6481 81.8985 44.6258C81.0194 49.5794 80.149 55.7064 79.0494 63.4573L79.0129 63.7147C78.4137 67.9386 77.8841 71.6714 77.3951 75.0273ZM78.1133 43.8917C77.2117 48.9624 76.3292 55.1832 75.2322 62.9157C74.5398 67.7965 73.9424 72.0076 73.3961 75.7267C69.6917 76.3652 65.497 77.067 60.6349 77.8805C54.1463 78.9661 48.7248 79.8732 44.1608 80.7462C43.9826 79.8491 43.8204 78.9894 43.6749 78.1637C42.6884 72.5686 42.5425 68.9399 43.0954 66.1135C45.3536 54.5704 54.3786 45.5454 65.9217 43.2872C68.748 42.7343 72.3768 42.8802 77.9719 43.8667C78.0189 43.875 78.066 43.8833 78.1133 43.8917ZM82.6219 40.8385C87.6649 41.8835 93.7687 43.373 101.356 45.2244C106.146 46.3933 110.279 47.4018 113.935 48.2751C115.903 45.073 118.111 41.4393 120.67 37.2276L120.672 37.2245C124.089 31.6025 126.943 26.9063 129.447 22.9923C128.68 22.4935 127.941 22.0236 127.228 21.5817C122.399 18.5889 119.084 17.1065 116.254 16.5709C104.697 14.3832 92.967 19.4137 86.5857 29.2939C85.0232 31.7132 83.8118 35.1368 82.651 40.6984C82.6413 40.745 82.6316 40.7917 82.6219 40.8385ZM132.657 25.1295C130.205 28.9635 127.387 33.599 123.967 39.2266L123.832 39.4489C121.617 43.0948 119.659 46.3168 117.886 49.2085C125.411 50.9627 130.848 52.073 136.309 52.8332C137.007 52.9303 137.705 53.0232 138.403 53.1119C139.01 52.7554 139.614 52.3952 140.217 52.0312C144.936 49.18 149.496 46.0162 155.721 41.4376C152.953 39.4786 149.884 37.2894 146.411 34.8119L146.199 34.6606C140.838 30.8365 136.421 27.6868 132.657 25.1295ZM159.043 43.7786C153.342 47.9897 148.965 51.0868 144.692 53.7953C154.607 54.6923 164.58 54.7434 174.503 53.9486C169.886 51.2259 165.233 48.1168 159.043 43.7786ZM181.166 53.2867C180.128 52.7221 179.096 52.1468 178.07 51.561C173.281 48.8279 168.643 45.7783 162.307 41.3558C165.025 39.3286 168.039 37.0636 171.45 34.5005L171.658 34.3442C177.917 29.6405 182.865 25.9232 186.99 23.042C189.75 27.2482 192.965 32.5363 197.031 39.2266L197.166 39.449C199.381 43.0945 201.339 46.3161 203.111 49.2074C195.584 50.9622 190.146 52.0728 184.684 52.8332C183.512 52.9963 182.34 53.1474 181.166 53.2867ZM187.107 56.3746C196.028 60.7967 205.31 64.4518 214.853 67.2998C211.889 63.1979 208.974 58.6965 205.242 52.6683C197.882 54.3998 192.406 55.5601 187.107 56.3746ZM224.909 73.9288C231.285 81.5734 238.3 88.6606 245.877 95.1139C244.537 89.9246 243.446 84.4368 242.137 76.9937C235.129 75.94 229.845 75.0351 224.909 73.9288ZM241.443 72.9891C233.804 71.8249 228.342 70.8376 222.988 69.5164C222.306 69.3481 221.625 69.1756 220.945 68.9991C220.514 68.4423 220.086 67.8827 219.661 67.3204C216.337 62.9209 213.276 58.2903 209.195 51.7278C212.493 50.9364 216.154 50.0428 220.298 49.0317L220.551 48.9699C226.949 47.4086 232.22 46.1232 236.665 45.1458C237.519 49.6164 238.415 54.9674 239.502 61.4635L239.545 61.7197C240.249 65.9275 240.871 69.6463 241.443 72.9891ZM246.158 77.5879C247.511 85.1959 248.634 90.6312 250.088 95.9502C250.399 97.0896 250.722 98.2254 251.056 99.3576C251.985 100.09 252.922 100.813 253.867 101.526C258.266 104.85 262.896 107.91 269.456 111.99C270.248 108.693 271.142 105.031 272.153 100.887L272.215 100.634C274.07 93.029 275.536 87.0169 276.559 82.0912C271.605 81.2121 265.478 80.3417 257.728 79.2422L257.47 79.2056C253.246 78.6064 249.514 78.0769 246.158 77.5879ZM277.293 78.306C272.222 77.4045 266.001 76.5219 258.269 75.425C253.388 74.7326 249.177 74.1352 245.458 73.5889C244.82 69.8844 244.118 65.6896 243.304 60.8273C242.219 54.3378 241.312 48.9171 240.439 44.3525C241.336 44.1743 242.195 44.0122 243.021 43.8667C248.616 42.8802 252.245 42.7343 255.071 43.2872C266.614 45.5454 275.639 54.5704 277.897 66.1135C278.45 68.9399 278.304 72.5686 277.318 78.1637C277.309 78.211 277.301 78.2585 277.293 78.306ZM158.984 39.0226C155.913 36.8547 152.451 34.3848 148.438 31.5219C143.082 27.7016 138.608 24.5104 134.764 21.9004C135.273 21.1396 135.766 20.4167 136.247 19.7295C139.506 15.0756 141.969 12.4066 144.358 10.799C154.117 4.23359 166.881 4.23359 176.64 10.799C179.029 12.4066 181.492 15.0756 184.751 19.7295L184.832 19.8464C180.609 22.7945 175.586 26.5694 169.342 31.2618C165.401 34.2235 162.001 36.7791 158.984 39.0226ZM38.83 162.2C36.6621 165.271 34.1922 168.734 31.3294 172.747C27.5091 178.102 24.3175 182.577 21.7075 186.421C20.948 185.913 20.2262 185.42 19.5401 184.94C14.8862 181.681 12.2171 179.218 10.6096 176.829C4.04415 167.07 4.04414 154.307 10.6096 144.548C12.2171 142.158 14.8862 139.696 19.5401 136.437L19.656 136.356C22.6037 140.578 26.3779 145.6 31.069 151.842C34.0307 155.783 36.5864 159.184 38.83 162.2ZM139.824 268.09C140.862 268.655 141.895 269.23 142.922 269.817C147.711 272.55 152.349 275.599 158.685 280.022C155.967 282.049 152.953 284.314 149.542 286.877L149.335 287.033C143.078 291.735 138.131 295.452 134.007 298.333C131.247 294.127 128.032 288.839 123.967 282.15L123.832 281.928C121.617 278.282 119.658 275.06 117.886 272.168C125.411 270.414 130.848 269.303 136.309 268.543C137.48 268.38 138.651 268.229 139.824 268.09ZM161.949 277.599C155.758 273.26 151.105 270.151 146.488 267.428C156.411 266.633 166.385 266.684 176.303 267.581C172.029 270.29 167.651 273.387 161.949 277.599ZM162.008 282.355C158.992 284.598 155.592 287.154 151.651 290.115C145.409 294.806 140.387 298.58 136.164 301.528L136.247 301.647C139.506 306.301 141.969 308.97 144.358 310.578C154.117 317.143 166.881 317.143 176.639 310.578C179.029 308.97 181.492 306.301 184.751 301.647C185.231 300.961 185.724 300.239 186.232 299.48C182.386 296.869 177.912 293.677 172.554 289.856C168.541 286.993 165.079 284.523 162.008 282.355ZM188.339 296.25C184.574 293.693 180.156 290.542 174.793 286.717L174.582 286.566C171.109 284.088 168.039 281.899 165.271 279.94C171.496 275.361 176.056 272.197 180.776 269.346C181.379 268.982 181.984 268.621 182.591 268.265C183.289 268.353 183.986 268.446 184.684 268.543C190.146 269.303 195.584 270.414 203.111 272.169C201.339 275.06 199.382 278.281 197.167 281.925L197.166 281.928L197.031 282.15C193.61 287.779 190.791 292.416 188.339 296.25ZM191.549 298.388C194.054 294.473 196.908 289.776 200.325 284.152L200.332 284.141C202.889 279.933 205.096 276.302 207.062 273.102C210.714 273.975 214.842 274.982 219.624 276.149L219.636 276.152C227.223 278.003 233.327 279.493 238.37 280.538C238.361 280.585 238.351 280.632 238.341 280.679C237.18 286.241 235.969 289.664 234.406 292.084C228.025 301.964 216.295 306.994 204.738 304.807C201.908 304.271 198.593 302.789 193.764 299.796C193.052 299.355 192.315 298.886 191.549 298.388ZM283.964 200.514C290.636 196.46 296.005 193.197 300.309 190.371L300.387 190.49C303.499 195.243 305.063 198.521 305.669 201.336C308.143 212.835 303.406 224.687 293.687 231.311C291.307 232.934 287.915 234.23 282.384 235.528C281.568 235.72 280.714 235.91 279.82 236.099C278.823 231.563 277.521 226.227 275.963 219.839L275.961 219.834L275.96 219.829C274.792 215.04 273.783 210.909 272.91 207.253C276.113 205.285 279.75 203.075 283.964 200.514ZM188.101 265.158C196.862 260.425 206.009 256.447 215.443 253.266C212.272 257.589 209.221 262.28 205.242 268.708C198.341 267.084 193.096 265.963 188.101 265.158ZM56.0264 188.292C60.7588 197.052 64.7364 206.197 67.9166 215.629C63.5949 212.459 58.9037 209.409 52.4773 205.43C54.1004 198.531 55.2216 193.287 56.0264 188.292ZM132.893 56.2184C124.134 60.951 114.988 64.9287 105.556 68.109C108.726 63.787 111.777 59.0958 115.756 52.6694C122.655 54.2924 127.898 55.4136 132.893 56.2184ZM264.966 133.085C260.233 124.324 256.254 115.176 253.074 105.742C257.397 108.914 262.088 111.964 268.516 115.944C266.892 122.845 265.771 128.089 264.966 133.085ZM200.332 37.2355C202.889 41.4434 205.096 45.0743 207.062 48.274C210.717 47.401 214.848 46.3929 219.637 45.2245C226.029 43.6647 231.368 42.3617 235.907 41.3651C235.717 40.4708 235.527 39.6171 235.336 38.8012C234.037 33.2702 232.741 29.8777 231.119 27.498C224.494 17.7793 212.643 13.0419 201.144 15.516C198.328 16.1218 195.051 17.6861 190.298 20.7979L190.179 20.8755C193.006 25.1805 196.269 30.55 200.325 37.2245L200.332 37.2355ZM37.0375 120.86C41.2484 118.301 44.8815 116.094 48.0831 114.126C47.2099 110.47 46.2015 106.338 45.0326 101.548C43.4729 95.1561 42.17 89.8168 41.1734 85.2778C40.2788 85.4676 39.4249 85.6574 38.6088 85.849C33.0777 87.1476 29.6853 88.4437 27.3056 90.0659C17.5869 96.6907 12.8495 108.542 15.3236 120.041C15.9294 122.856 17.4937 126.134 20.6055 130.887L20.685 131.009C24.9899 128.181 30.3594 124.919 37.0338 120.863L37.0355 120.862L37.0375 120.86ZM120.672 284.152C118.112 279.939 115.903 276.304 113.935 273.101C110.285 273.973 106.161 274.979 101.382 276.145L101.356 276.152C94.9641 277.712 89.6244 279.015 85.0853 280.011C85.2751 280.906 85.465 281.76 85.6566 282.576C86.9552 288.107 88.2513 291.5 89.8734 293.879C96.4983 303.598 108.35 308.335 119.849 305.861C122.664 305.255 125.942 303.691 130.695 300.579L130.817 300.499C127.991 296.195 124.728 290.827 120.673 284.154L120.672 284.152Z" fill="url(#paint0_linear_490_2752)"/>
<defs>
<linearGradient id="paint0_linear_490_2752" x1="-86.8001" y1="69.4328" x2="231.71" y2="519.258" gradientUnits="userSpaceOnUse">
<stop stop-color="#35FF89"/>
<stop offset="1" stop-color="#3177F3"/>
</linearGradient>
</defs>
</svg>
