<svg width="321" height="321" viewBox="0 0 321 321" fill="none" xmlns="http://www.w3.org/2000/svg">
<path d="M267.234 43.5145C266.224 42.5939 265.202 41.6861 264.168 40.7915C252.337 54.3929 238.467 66.9982 222.844 78.3815C168.601 117.905 93.4637 142.477 10.2854 142.477C7.86472 142.477 5.45084 142.456 3.04408 142.414C2.88794 143.774 2.74901 145.14 2.62752 146.51C5.17251 146.556 7.72527 146.579 10.2854 146.579C118.399 146.579 213.332 105.46 267.234 43.5145Z" fill="url(#paint0_linear_490_2757)"/>
<path d="M2.00217 160.952C2.00202 160.864 2.00195 160.777 2.00195 160.689C2.00195 159.405 2.01721 158.125 2.04755 156.849H318.952C318.983 158.125 318.998 159.405 318.998 160.689C318.998 160.777 318.998 160.864 318.998 160.952H2.00217Z" fill="url(#paint1_linear_490_2757)"/>
<path d="M269.597 275.665C216.135 212.183 119.997 169.84 10.2854 169.84C7.60403 169.84 4.93076 169.865 2.26603 169.915C2.3447 171.286 2.4408 172.652 2.55409 174.013C5.12317 173.966 7.70041 173.942 10.2854 173.942C93.4637 173.942 168.601 198.514 222.844 238.037C239.543 250.205 254.24 263.769 266.584 278.453C267.6 277.536 268.605 276.607 269.597 275.665Z" fill="url(#paint2_linear_490_2757)"/>
<path d="M204.739 312.931C177.728 242.554 100.877 191.783 10.29 191.783C8.54216 191.783 6.79938 191.802 5.06199 191.839C5.33469 193.208 5.62502 194.57 5.93271 195.925C7.38128 195.899 8.83379 195.885 10.2901 195.885C99.36 195.885 174.27 245.635 200.746 314.032C202.084 313.682 203.415 313.315 204.739 312.931Z" fill="url(#paint3_linear_490_2757)"/>
<path d="M133.962 316.975C123.435 258.523 72.4867 214.115 11.0943 213.729C11.5853 215.112 12.0949 216.486 12.6229 217.851C70.7822 218.947 118.949 260.886 129.641 316.185C131.074 316.468 132.515 316.731 133.962 316.975Z" fill="url(#paint4_linear_490_2757)"/>
<path d="M88.0685 301.706C82.5433 267.805 55.3891 241.169 21.2326 236.424C22.0716 237.963 22.9354 239.487 23.8234 240.996C53.6562 246.455 77.2974 269.635 83.437 299.224C84.9654 300.076 86.5095 300.904 88.0685 301.706Z" fill="url(#paint5_linear_490_2757)"/>
<path d="M6.12893 124.6C7.51265 124.623 8.89973 124.635 10.29 124.635C98.9553 124.635 174.461 75.9959 202.953 7.94031C201.617 7.56995 200.275 7.21663 198.925 6.88061C170.961 72.952 97.3969 120.533 10.2901 120.533C9.23759 120.533 8.18709 120.526 7.13861 120.512C6.78447 121.867 6.44783 123.23 6.12893 124.6Z" fill="url(#paint6_linear_490_2757)"/>
<path d="M12.9597 102.664C71.7107 101.438 120.549 59.8933 132.925 4.58112C131.45 4.84 129.981 5.1193 128.52 5.41871C116.057 57.4958 70.0809 96.5508 14.6627 98.5116C14.0761 99.8857 13.5083 101.27 12.9597 102.664Z" fill="url(#paint7_linear_490_2757)"/>
<path d="M24.3483 79.4975C55.173 73.9464 79.77 50.4702 86.9605 20.2475C85.2877 21.1253 83.6324 22.0321 81.9954 22.9672C74.4816 48.6302 53.5656 68.5686 27.3385 74.691C26.3141 76.274 25.3171 77.8764 24.3483 79.4975Z" fill="url(#paint8_linear_490_2757)"/>
<path fill-rule="evenodd" clip-rule="evenodd" d="M160.499 6.29397C75.2289 6.29396 6.10385 75.419 6.10384 160.689C6.10384 245.959 75.2288 315.084 160.499 315.084C245.769 315.084 314.894 245.959 314.894 160.689C314.894 75.419 245.769 6.29398 160.499 6.29397ZM160.499 2.19141C72.9631 2.1914 2.00196 73.1531 2.00195 160.689C2.00195 248.225 72.963 319.187 160.499 319.187C248.035 319.187 318.998 248.225 318.998 160.689C318.998 73.1532 248.035 2.19141 160.499 2.19141Z" fill="url(#paint9_linear_490_2757)"/>
<defs>
<linearGradient id="paint0_linear_490_2757" x1="-86.5328" y1="69.5319" x2="231.633" y2="518.872" gradientUnits="userSpaceOnUse">
<stop stop-color="#35FF89"/>
<stop offset="1" stop-color="#3177F3"/>
</linearGradient>
<linearGradient id="paint1_linear_490_2757" x1="-86.5328" y1="69.5319" x2="231.633" y2="518.872" gradientUnits="userSpaceOnUse">
<stop stop-color="#35FF89"/>
<stop offset="1" stop-color="#3177F3"/>
</linearGradient>
<linearGradient id="paint2_linear_490_2757" x1="-86.5328" y1="69.5319" x2="231.633" y2="518.872" gradientUnits="userSpaceOnUse">
<stop stop-color="#35FF89"/>
<stop offset="1" stop-color="#3177F3"/>
</linearGradient>
<linearGradient id="paint3_linear_490_2757" x1="-86.5328" y1="69.5319" x2="231.633" y2="518.872" gradientUnits="userSpaceOnUse">
<stop stop-color="#35FF89"/>
<stop offset="1" stop-color="#3177F3"/>
</linearGradient>
<linearGradient id="paint4_linear_490_2757" x1="-86.5328" y1="69.5319" x2="231.633" y2="518.872" gradientUnits="userSpaceOnUse">
<stop stop-color="#35FF89"/>
<stop offset="1" stop-color="#3177F3"/>
</linearGradient>
<linearGradient id="paint5_linear_490_2757" x1="-86.5328" y1="69.5319" x2="231.633" y2="518.872" gradientUnits="userSpaceOnUse">
<stop stop-color="#35FF89"/>
<stop offset="1" stop-color="#3177F3"/>
</linearGradient>
<linearGradient id="paint6_linear_490_2757" x1="-86.5328" y1="69.5319" x2="231.633" y2="518.872" gradientUnits="userSpaceOnUse">
<stop stop-color="#35FF89"/>
<stop offset="1" stop-color="#3177F3"/>
</linearGradient>
<linearGradient id="paint7_linear_490_2757" x1="-86.5328" y1="69.5319" x2="231.633" y2="518.872" gradientUnits="userSpaceOnUse">
<stop stop-color="#35FF89"/>
<stop offset="1" stop-color="#3177F3"/>
</linearGradient>
<linearGradient id="paint8_linear_490_2757" x1="-86.5328" y1="69.5319" x2="231.633" y2="518.872" gradientUnits="userSpaceOnUse">
<stop stop-color="#35FF89"/>
<stop offset="1" stop-color="#3177F3"/>
</linearGradient>
<linearGradient id="paint9_linear_490_2757" x1="-86.5328" y1="69.5319" x2="231.633" y2="518.872" gradientUnits="userSpaceOnUse">
<stop stop-color="#35FF89"/>
<stop offset="1" stop-color="#3177F3"/>
</linearGradient>
</defs>
</svg>
