<svg width="321" height="321" viewBox="0 0 321 321" fill="none" xmlns="http://www.w3.org/2000/svg">
<path opacity="0.3" fill-rule="evenodd" clip-rule="evenodd" d="M318.993 160.725L318.993 160.772C318.949 248.269 248.004 319.187 160.496 319.187C72.9598 319.187 1.99801 248.225 1.99805 160.689C1.99805 73.1532 72.9598 2.19137 160.496 2.19141C248.003 2.19141 318.948 73.1079 318.993 160.605V160.634C318.993 160.652 318.993 160.67 318.993 160.688C318.993 160.7 318.993 160.712 318.993 160.725ZM262.605 212.974C233.728 212.974 210.319 189.564 210.319 160.688C210.319 131.811 233.728 108.402 262.605 108.402C291.463 108.402 314.861 131.781 314.891 160.633V160.742C314.861 189.594 291.463 212.974 262.605 212.974ZM308.292 193.745C298.046 207.881 281.399 217.076 262.605 217.076C231.462 217.076 206.216 191.83 206.216 160.688C206.216 129.545 231.462 104.299 262.605 104.299C281.399 104.299 298.046 113.494 308.293 127.631C295.348 96.6466 264.755 74.8729 229.076 74.8729C181.682 74.8729 143.262 113.293 143.262 160.687C143.262 208.081 181.682 246.502 229.076 246.502C264.754 246.502 295.347 224.729 308.292 193.745ZM229.076 250.604C261.079 250.604 289.178 233.885 305.113 208.704C286.444 252.432 243.051 283.078 192.5 283.078C124.905 283.078 70.1092 228.282 70.1092 160.688C70.1093 93.0931 124.905 38.297 192.5 38.297C243.05 38.297 286.442 68.9427 305.112 112.669C289.176 87.4891 261.079 70.7704 229.076 70.7704C179.417 70.7704 139.159 111.028 139.159 160.687C139.159 210.347 179.417 250.604 229.076 250.604ZM299.046 228.896C276.558 263.952 237.242 287.181 192.5 287.181C122.64 287.181 66.0067 230.548 66.0067 160.688C66.0067 90.8274 122.64 34.1944 192.5 34.1944C237.238 34.1944 276.551 57.4197 299.041 92.4709C273.854 41.4155 221.276 6.29397 160.496 6.29397C75.2256 6.29394 6.10062 75.4189 6.10061 160.689C6.10058 245.959 75.2256 315.084 160.496 315.084C221.281 315.084 273.861 279.957 299.046 228.896Z" fill="url(#paint0_linear_490_2767)"/>
<path fill-rule="evenodd" clip-rule="evenodd" d="M2.00488 160.687L2.00488 160.662C2.01941 73.1386 72.9756 2.1914 160.502 2.19141C248.038 2.19138 319 73.1532 319 160.689C319 248.225 248.038 319.187 160.502 319.187C72.9667 319.187 2.00491 248.223 2.00488 160.687ZM160.502 315.084C245.772 315.084 314.897 245.959 314.897 160.689C314.897 75.4189 245.772 6.29394 160.502 6.29397C99.7218 6.29397 47.1442 41.4155 21.9572 92.4709C44.4467 57.4198 83.7601 34.1944 128.498 34.1944C198.358 34.1944 254.991 90.8274 254.991 160.688C254.991 230.548 198.358 287.181 128.498 287.181C83.7565 287.181 44.4402 263.952 21.9517 228.896C47.1366 279.957 99.7174 315.084 160.502 315.084ZM6.10745 160.687C6.10745 189.564 29.5167 212.974 58.3934 212.974C87.2702 212.974 110.679 189.564 110.679 160.688C110.679 131.811 87.2702 108.402 58.3934 108.402C29.5167 108.402 6.10745 131.811 6.10745 160.687ZM91.9218 246.502C56.2437 246.502 25.651 224.729 12.7061 193.745C22.9524 207.881 39.5992 217.076 58.3934 217.076C89.536 217.076 114.782 191.83 114.782 160.688C114.782 129.545 89.536 104.299 58.3934 104.299C39.5989 104.299 22.9518 113.494 12.7056 127.631C25.6502 96.6465 56.2432 74.8729 91.9218 74.8729C139.316 74.8729 177.736 113.293 177.736 160.687C177.736 208.081 139.316 246.502 91.9218 246.502ZM91.9218 70.7703C59.9193 70.7703 31.8216 87.4891 15.8865 112.669C34.5558 68.9427 77.9482 38.297 128.498 38.297C196.093 38.297 250.889 93.0931 250.889 160.688C250.889 228.282 196.093 283.078 128.498 283.078C77.9472 283.078 34.5542 252.432 15.8855 208.704C31.8204 233.885 59.9186 250.604 91.9218 250.604C141.581 250.604 181.839 210.347 181.839 160.687C181.839 111.028 141.581 70.7703 91.9218 70.7703Z" fill="url(#paint1_linear_490_2767)"/>
<defs>
<linearGradient id="paint0_linear_490_2767" x1="-86.5364" y1="69.5319" x2="231.63" y2="518.872" gradientUnits="userSpaceOnUse">
<stop stop-color="#35FF89"/>
<stop offset="1" stop-color="#3177F3"/>
</linearGradient>
<linearGradient id="paint1_linear_490_2767" x1="-86.5296" y1="69.5319" x2="231.636" y2="518.872" gradientUnits="userSpaceOnUse">
<stop stop-color="#35FF89"/>
<stop offset="1" stop-color="#3177F3"/>
</linearGradient>
</defs>
</svg>
