<svg width="321" height="321" viewBox="0 0 321 321" fill="none" xmlns="http://www.w3.org/2000/svg">
<path fill-rule="evenodd" clip-rule="evenodd" d="M250.254 149.297C272.933 133.77 286.517 112.65 286.517 89.6895C286.517 66.7286 272.933 45.6086 250.254 30.0823C227.576 14.5563 196.034 4.82899 161 4.82899C125.966 4.82899 94.4242 14.5563 71.7459 30.0823C49.0669 45.6086 35.4828 66.7286 35.4828 89.6895C35.4828 112.65 49.0669 133.77 71.7459 149.297C94.4242 164.823 125.966 174.55 161 174.55C196.034 174.55 227.576 164.823 250.254 149.297ZM161 178.689C232.797 178.689 291 138.843 291 89.6895C291 40.5361 232.797 0.689453 161 0.689453C89.203 0.689453 31 40.5361 31 89.6895C31 138.843 89.203 178.689 161 178.689Z" fill="url(#paint0_linear_522_2417)"/>
<path opacity="0.9" fill-rule="evenodd" clip-rule="evenodd" d="M250.254 196.297C272.933 180.77 286.517 159.65 286.517 136.689C286.517 113.729 272.933 92.6086 250.254 77.0823C227.576 61.5563 196.034 51.829 161 51.829C125.966 51.829 94.4242 61.5563 71.7459 77.0823C49.0669 92.6086 35.4828 113.729 35.4828 136.689C35.4828 159.65 49.0669 180.77 71.7459 196.297C94.4242 211.823 125.966 221.55 161 221.55C196.034 221.55 227.576 211.823 250.254 196.297ZM161 225.689C232.797 225.689 291 185.843 291 136.689C291 87.5361 232.797 47.6895 161 47.6895C89.203 47.6895 31 87.5361 31 136.689C31 185.843 89.203 225.689 161 225.689Z" fill="url(#paint1_linear_522_2417)"/>
<path opacity="0.6" fill-rule="evenodd" clip-rule="evenodd" d="M250.254 244.297C272.933 228.77 286.517 207.65 286.517 184.689C286.517 161.729 272.933 140.609 250.254 125.082C227.576 109.556 196.034 99.829 161 99.829C125.966 99.829 94.4242 109.556 71.7459 125.082C49.0669 140.609 35.4828 161.729 35.4828 184.689C35.4828 207.65 49.0669 228.77 71.7459 244.297C94.4242 259.823 125.966 269.55 161 269.55C196.034 269.55 227.576 259.823 250.254 244.297ZM161 273.689C232.797 273.689 291 233.843 291 184.689C291 135.536 232.797 95.6895 161 95.6895C89.203 95.6895 31 135.536 31 184.689C31 233.843 89.203 273.689 161 273.689Z" fill="url(#paint2_linear_522_2417)"/>
<path opacity="0.3" fill-rule="evenodd" clip-rule="evenodd" d="M250.254 291.297C272.933 275.77 286.517 254.65 286.517 231.689C286.517 208.729 272.933 187.609 250.254 172.082C227.576 156.556 196.034 146.829 161 146.829C125.966 146.829 94.4242 156.556 71.7459 172.082C49.0669 187.609 35.4828 208.729 35.4828 231.689C35.4828 254.65 49.0669 275.77 71.7459 291.297C94.4242 306.823 125.966 316.55 161 316.55C196.034 316.55 227.576 306.823 250.254 291.297ZM161 320.689C232.797 320.689 291 280.843 291 231.689C291 182.536 232.797 142.689 161 142.689C89.203 142.689 31 182.536 31 231.689C31 280.843 89.203 320.689 161 320.689Z" fill="url(#paint3_linear_522_2417)"/>
<defs>
<linearGradient id="paint0_linear_522_2417" x1="-41.6161" y1="38.5027" x2="107.077" y2="345.239" gradientUnits="userSpaceOnUse">
<stop stop-color="#35FF89"/>
<stop offset="1" stop-color="#3177F3"/>
</linearGradient>
<linearGradient id="paint1_linear_522_2417" x1="-41.6161" y1="85.5027" x2="107.077" y2="392.239" gradientUnits="userSpaceOnUse">
<stop stop-color="#35FF89"/>
<stop offset="1" stop-color="#3177F3"/>
</linearGradient>
<linearGradient id="paint2_linear_522_2417" x1="-41.6161" y1="133.503" x2="107.077" y2="440.239" gradientUnits="userSpaceOnUse">
<stop stop-color="#35FF89"/>
<stop offset="1" stop-color="#3177F3"/>
</linearGradient>
<linearGradient id="paint3_linear_522_2417" x1="-41.6161" y1="180.503" x2="107.077" y2="487.239" gradientUnits="userSpaceOnUse">
<stop stop-color="#35FF89"/>
<stop offset="1" stop-color="#3177F3"/>
</linearGradient>
</defs>
</svg>
