<svg width="65" height="66" viewBox="0 0 65 66" fill="none" xmlns="http://www.w3.org/2000/svg">
<g clip-path="url(#clip0_490_2784)">
<rect width="65" height="65" transform="translate(0 0.689453)" fill="white"/>
<path d="M6.88629 2.68863C10.811 2.68863 14.6973 3.46166 18.3232 4.96358C21.9492 6.4655 25.2438 8.6669 28.019 11.4421C30.7942 14.2173 32.9956 17.5119 34.4975 21.1378C35.9994 24.7638 36.7725 28.6501 36.7725 32.5748C36.7725 36.4995 35.9994 40.3858 34.4975 44.0117C32.9956 47.6377 30.7942 50.9323 28.019 53.7075C25.2438 56.4827 21.9492 58.6841 18.3232 60.186C14.6973 61.6879 10.811 62.4609 6.8863 62.4609" stroke="#0D1A35" stroke-width="2" stroke-linecap="round"/>
<path d="M56.0932 2.68863C52.1685 2.68863 48.2822 3.46166 44.6563 4.96358C41.0303 6.4655 37.7357 8.6669 34.9605 11.4421C32.1853 14.2173 29.9839 17.5119 28.482 21.1378C26.9801 24.7638 26.207 28.6501 26.207 32.5748C26.207 36.4995 26.9801 40.3858 28.482 44.0117C29.9839 47.6377 32.1853 50.9323 34.9605 53.7075C37.7357 56.4827 41.0303 58.6841 44.6563 60.186C48.2822 61.6879 52.1685 62.4609 56.0932 62.4609" stroke="#0D1A35" stroke-width="2" stroke-linecap="round"/>
<path d="M6.88672 13.0762C9.44749 13.0762 11.9832 13.5806 14.349 14.5605C16.7149 15.5405 18.8646 16.9768 20.6753 18.7876C22.486 20.5983 23.9224 22.748 24.9024 25.1138C25.8823 27.4797 26.3867 30.0154 26.3867 32.5762C26.3867 35.1369 25.8823 37.6726 24.9024 40.0385C23.9224 42.4043 22.486 44.554 20.6753 46.3648C18.8646 48.1755 16.7149 49.6119 14.349 50.5918C11.9832 51.5718 9.4475 52.0762 6.88672 52.0762" stroke="#0D1A35" stroke-width="2" stroke-linecap="round"/>
<path d="M56.0928 13.0762C53.532 13.0762 50.9963 13.5806 48.6304 14.5605C46.2646 15.5405 44.1149 16.9768 42.3042 18.7876C40.4935 20.5983 39.0571 22.748 38.0771 25.1138C37.0972 27.4797 36.5928 30.0154 36.5928 32.5762C36.5928 35.1369 37.0972 37.6726 38.0771 40.0385C39.0571 42.4043 40.4934 44.554 42.3042 46.3648C44.1149 48.1755 46.2646 49.6119 48.6304 50.5918C50.9963 51.5718 53.532 52.0762 56.0928 52.0762" stroke="#0D1A35" stroke-width="2" stroke-linecap="round"/>
<path d="M6.88672 24.0762C8.00295 24.0762 9.10826 24.296 10.1395 24.7232C11.1708 25.1504 12.1078 25.7765 12.8971 26.5658C13.6864 27.3551 14.3125 28.2921 14.7397 29.3234C15.1669 30.3546 15.3867 31.4599 15.3867 32.5762C15.3867 33.6924 15.1669 34.7977 14.7397 35.829C14.3125 36.8602 13.6864 37.7973 12.8971 38.5866C12.1078 39.3759 11.1708 40.002 10.1395 40.4291C9.10826 40.8563 8.00296 41.0762 6.88672 41.0762" stroke="#0D1A35" stroke-width="2" stroke-linecap="round"/>
<path d="M56.0928 24.0762C54.9765 24.0762 53.8712 24.296 52.84 24.7232C51.8087 25.1504 50.8717 25.7765 50.0824 26.5658C49.2931 27.3551 48.667 28.2921 48.2398 29.3234C47.8126 30.3546 47.5928 31.4599 47.5928 32.5762C47.5928 33.6924 47.8126 34.7977 48.2398 35.829C48.667 36.8602 49.2931 37.7973 50.0824 38.5866C50.8717 39.3759 51.8087 40.002 52.84 40.4291C53.8712 40.8563 54.9765 41.0762 56.0928 41.0762" stroke="#0D1A35" stroke-width="2" stroke-linecap="round"/>
</g>
<defs>
<clipPath id="clip0_490_2784">
<rect width="65" height="65" fill="white" transform="translate(0 0.689453)"/>
</clipPath>
</defs>
</svg>
