<svg width="65" height="66" viewBox="0 0 65 66" fill="none" xmlns="http://www.w3.org/2000/svg">
<rect width="65" height="65" transform="translate(0 0.689453)" fill="white"/>
<circle cx="32.7734" cy="33.4609" r="29" stroke="#0D1A35" stroke-width="2"/>
<path fill-rule="evenodd" clip-rule="evenodd" d="M46.2256 34.31C42.7159 37.9836 30.557 49.8065 19.4413 49.8065C10.2888 49.8065 2.86914 42.3868 2.86914 33.2343C2.86914 24.0817 10.2888 16.6621 19.4413 16.6621C30.7147 16.6621 43.0611 28.8229 46.3697 32.31H61.3587V34.31H46.2256ZM43.3298 32.0694C43.7708 32.5039 44.1579 32.8963 44.4852 33.2343C44.1579 33.5723 43.7708 33.9646 43.3298 34.3992C41.7919 35.9148 39.6109 37.9322 37.0362 39.9446C31.7818 44.0515 25.3006 47.8065 19.4413 47.8065C11.3933 47.8065 4.86914 41.2823 4.86914 33.2343C4.86914 25.1863 11.3933 18.6621 19.4413 18.6621C25.3006 18.6621 31.7818 22.4171 37.0362 26.524C39.6109 28.5364 41.7919 30.5537 43.3298 32.0694Z" fill="#0D1A35"/>
<path fill-rule="evenodd" clip-rule="evenodd" d="M18.9775 34.31C22.4872 37.9836 34.6461 49.8065 45.7618 49.8065C54.9144 49.8065 62.334 42.3868 62.334 33.2343C62.334 24.0817 54.9144 16.6621 45.7618 16.6621C34.4884 16.6621 22.142 28.8229 18.8334 32.31H3.8444V34.31H18.9775ZM21.8733 32.0694C21.4323 32.5039 21.0452 32.8963 20.7179 33.2343C21.0452 33.5723 21.4323 33.9646 21.8733 34.3992C23.4112 35.9148 25.5922 37.9322 28.167 39.9446C33.4214 44.0515 39.9025 47.8065 45.7618 47.8065C53.8098 47.8065 60.334 41.2823 60.334 33.2343C60.334 25.1863 53.8098 18.6621 45.7618 18.6621C39.9025 18.6621 33.4214 22.4171 28.167 26.524C25.5922 28.5364 23.4112 30.5537 21.8733 32.0694Z" fill="#0D1A35"/>
</svg>
