<svg width="65" height="66" viewBox="0 0 65 66" fill="none" xmlns="http://www.w3.org/2000/svg">
<rect width="65" height="65" transform="translate(0 0.689453)" fill="white"/>
<path d="M55.8448 9.68945V9.68945C55.5591 9.68945 55.4163 9.68945 55.2955 9.69037C37.8113 9.8224 23.6701 23.9636 23.538 41.4478C23.5371 41.5686 23.5371 41.7115 23.5371 41.9971V60.4587" stroke="#0D1A35" stroke-width="2" stroke-linecap="round"/>
<path d="M61.998 18.1504V18.1504C56.4222 18.1504 53.6343 18.1504 51.3159 18.6115C41.7953 20.5053 34.353 27.9476 32.4592 37.4682C31.998 39.7866 31.998 42.5745 31.998 48.1504V60.4581" stroke="#0D1A35" stroke-width="2" stroke-linecap="round"/>
<path d="M55.0763 28.1504V28.1504C53.5762 28.1504 52.8261 28.1504 52.1942 28.2123C46.0161 28.8171 41.1277 33.7056 40.5228 39.8837C40.4609 40.5155 40.4609 41.2656 40.4609 42.7658V60.4581" stroke="#0D1A35" stroke-width="2" stroke-linecap="round"/>
<path d="M8.15324 9.68945V9.68945C8.43892 9.68945 8.58176 9.68945 8.70259 9.69037C26.1868 9.8224 40.328 23.9636 40.46 41.4478C40.4609 41.5686 40.4609 41.7115 40.4609 41.9971V60.4587" stroke="#0D1A35" stroke-width="2" stroke-linecap="round"/>
<path d="M2 18.1504V18.1504C7.57586 18.1504 10.3638 18.1504 12.6822 18.6115C22.2027 20.5053 29.6451 27.9476 31.5388 37.4682C32 39.7866 32 42.5745 32 48.1504V60.4581" stroke="#0D1A35" stroke-width="2" stroke-linecap="round"/>
<path d="M8.92172 28.1504V28.1504C10.4219 28.1504 11.172 28.1504 11.8038 28.2123C17.9819 28.8171 22.8704 33.7056 23.4752 39.8837C23.5371 40.5155 23.5371 41.2656 23.5371 42.7658V60.4581" stroke="#0D1A35" stroke-width="2" stroke-linecap="round"/>
</svg>
