<svg width="65" height="66" viewBox="0 0 65 66" fill="none" xmlns="http://www.w3.org/2000/svg">
<rect width="65" height="65" transform="translate(0 0.689453)" fill="white"/>
<mask id="path-1-inside-1_490_2772" fill="white">
<path d="M52.8857 33.9883C52.8857 30.617 52.0746 27.2978 50.5242 24.3246C48.9737 21.3515 46.7319 18.8161 43.9971 16.9432C41.2624 15.0702 38.1193 13.9174 34.8461 13.587C31.5729 13.2566 28.2707 13.7586 25.2321 15.0488C22.1934 16.3389 19.5121 18.3772 17.4255 20.9832C15.339 23.5892 13.9117 26.6825 13.27 29.9889C12.6284 33.2954 12.7922 36.713 13.7469 39.9391C14.7017 43.1652 16.4179 46.1001 18.7436 48.484L32.8857 33.9883H52.8857Z"/>
</mask>
<path d="M52.8857 33.9883C52.8857 30.617 52.0746 27.2978 50.5242 24.3246C48.9737 21.3515 46.7319 18.8161 43.9971 16.9432C41.2624 15.0702 38.1193 13.9174 34.8461 13.587C31.5729 13.2566 28.2707 13.7586 25.2321 15.0488C22.1934 16.3389 19.5121 18.3772 17.4255 20.9832C15.339 23.5892 13.9117 26.6825 13.27 29.9889C12.6284 33.2954 12.7922 36.713 13.7469 39.9391C14.7017 43.1652 16.4179 46.1001 18.7436 48.484L32.8857 33.9883H52.8857Z" stroke="#0D1A35" stroke-width="4" mask="url(#path-1-inside-1_490_2772)"/>
<path d="M30 4.57617C31.7405 3.57132 33.8597 3.50836 35.6475 4.3877L36 4.57617L56.7129 16.5352C58.569 17.6069 59.7127 19.5871 59.7129 21.7305V45.6484C59.7127 47.6578 58.7078 49.5243 57.0527 50.6328L56.7129 50.8438L36 62.8027C34.2595 63.8076 32.1403 63.8705 30.3525 62.9912L30 62.8027L9.28711 50.8438C7.43097 49.772 6.28726 47.7918 6.28711 45.6484V21.7305C6.28725 19.7211 7.29222 17.8546 8.94727 16.7461L9.28711 16.5352L30 4.57617Z" stroke="#0D1A35" stroke-width="2" stroke-linecap="round"/>
</svg>
