<svg width="949" height="500" fill="none" xmlns="http://www.w3.org/2000/svg"><path d="M643.028 375.207c5.901 0 10.685 4.784 10.685 10.685v53.423c0 5.901-4.784 10.685-10.685 10.685-5.901 0-10.684-4.784-10.684-10.685v-53.423c0-5.901 4.783-10.685 10.684-10.685zm-84.314-18.067c5.901 0 10.684 4.783 10.684 10.684v53.424c0 5.901-4.783 10.685-10.684 10.685-5.901 0-10.685-4.784-10.685-10.685v-53.424c0-5.901 4.784-10.684 10.685-10.684zm-421.566-48.179c5.901 0 10.685 4.784 10.685 10.685v53.423c0 5.901-4.784 10.685-10.685 10.685-5.901 0-10.684-4.784-10.684-10.685v-53.423c0-5.901 4.784-10.685 10.684-10.685zm168.626 0c5.901 0 10.686 4.784 10.686 10.685v53.423c0 5.901-4.785 10.685-10.686 10.685-5.9 0-10.684-4.784-10.684-10.685v-53.423c0-5.901 4.784-10.685 10.684-10.685zm168.627 0c5.901 0 10.685 4.784 10.685 10.685v53.423c0 5.901-4.784 10.685-10.685 10.685-5.901 0-10.684-4.784-10.684-10.685v-53.423c0-5.901 4.784-10.685 10.684-10.685zM221.461 292.7c5.901 0 10.685 4.785 10.685 10.686v53.423c0 5.901-4.784 10.685-10.685 10.685-5.901 0-10.685-4.784-10.685-10.685v-53.423c0-5.901 4.784-10.686 10.685-10.686zm379.407 0c5.901 0 10.685 4.785 10.685 10.686v53.423c0 5.901-4.784 10.685-10.685 10.685-5.901 0-10.684-4.784-10.684-10.685v-53.423c0-5.901 4.783-10.686 10.684-10.686zm84.315 0c5.901 0 10.684 4.785 10.684 10.686v53.423c0 5.901-4.783 10.685-10.684 10.685-5.901 0-10.685-4.784-10.685-10.685v-53.423c0-5.901 4.784-10.686 10.685-10.686zm84.312 0c5.901 0 10.685 4.785 10.685 10.686v53.423c0 5.901-4.784 10.685-10.685 10.685-5.901 0-10.684-4.784-10.684-10.685v-53.423c0-5.901 4.783-10.686 10.684-10.686zm84.315 0c5.9 0 10.684 4.785 10.684 10.686v53.423c0 5.901-4.783 10.685-10.684 10.685-5.901 0-10.685-4.784-10.685-10.685v-53.423c0-5.901 4.784-10.686 10.685-10.686zm-210.782-25.895c5.901 0 10.685 4.783 10.685 10.684v53.424c0 5.901-4.784 10.685-10.685 10.685-5.901 0-10.684-4.784-10.684-10.685v-53.424c0-5.901 4.783-10.684 10.684-10.684zm-84.314-6.023c5.901 0 10.684 4.784 10.684 10.685v53.424c0 5.901-4.783 10.684-10.684 10.684-5.901 0-10.685-4.783-10.685-10.684v-53.424c0-5.901 4.784-10.685 10.685-10.685zm168.627-11.655c5.901 0 10.684 4.784 10.684 10.685v53.423c0 5.901-4.783 10.685-10.684 10.685-5.901 0-10.685-4.784-10.685-10.685v-53.423c0-5.901 4.784-10.685 10.685-10.685zm84.308 0c5.901 0 10.685 4.784 10.685 10.685v53.423c0 5.901-4.784 10.685-10.685 10.685-5.9 0-10.684-4.784-10.684-10.685v-53.423c0-5.901 4.783-10.685 10.684-10.685zm84.315 0c5.901 0 10.684 4.784 10.684 10.685v53.423c0 5.901-4.783 10.685-10.684 10.685-5.901 0-10.685-4.784-10.685-10.685v-53.423c0-5.901 4.784-10.685 10.685-10.685zm-800.97-4.606c5.901.001 10.685 4.785 10.685 10.686v53.423c0 5.901-4.784 10.684-10.685 10.684-5.9 0-10.685-4.783-10.685-10.684v-53.423c0-5.901 4.784-10.686 10.685-10.686zm84.313 0c5.9.001 10.684 4.785 10.684 10.686v53.423c0 5.901-4.784 10.684-10.684 10.684-5.901 0-10.686-4.783-10.686-10.684v-53.423c0-5.901 4.785-10.686 10.686-10.686zm84.313 0c5.901 0 10.685 4.785 10.685 10.686v53.423c0 5.901-4.784 10.684-10.685 10.684-5.901 0-10.684-4.783-10.684-10.684v-53.423c0-5.901 4.783-10.685 10.684-10.686zm84.313 0c5.901 0 10.684 4.785 10.684 10.686v53.423c0 5.901-4.783 10.684-10.684 10.684-5.901 0-10.685-4.783-10.685-10.684v-53.423c0-5.901 4.784-10.685 10.685-10.686zm84.309 0c5.901.001 10.685 4.785 10.685 10.686v53.423c0 5.901-4.784 10.684-10.685 10.684-5.901 0-10.685-4.783-10.685-10.684v-53.423c0-5.901 4.784-10.686 10.685-10.686zm84.314 0c5.901 0 10.685 4.785 10.685 10.686v53.423c0 5.901-4.784 10.684-10.685 10.684-5.901 0-10.685-4.783-10.685-10.684v-53.423c0-5.901 4.784-10.685 10.685-10.686zM10.685 238.24c5.9 0 10.684 4.784 10.684 10.685v53.424c0 5.901-4.784 10.684-10.684 10.684C4.784 313.033 0 308.249 0 302.349v-53.424c0-5.901 4.784-10.685 10.685-10.685zm126.463-25.636c5.901 0 10.685 4.783 10.685 10.684v53.424c0 5.901-4.784 10.684-10.685 10.684-5.901 0-10.684-4.783-10.684-10.684v-53.424c0-5.901 4.783-10.684 10.684-10.684zm168.626 0c5.901 0 10.686 4.783 10.686 10.684v53.424c0 5.901-4.785 10.684-10.686 10.684-5.9 0-10.684-4.783-10.684-10.684v-53.424c0-5.901 4.784-10.684 10.684-10.684zm84.313 0c5.901 0 10.685 4.783 10.685 10.684v53.424c0 5.901-4.784 10.684-10.685 10.684-5.901 0-10.685-4.783-10.685-10.684v-53.424c0-5.901 4.784-10.684 10.685-10.684zm84.314 0c5.901 0 10.685 4.783 10.685 10.684v53.424c0 5.901-4.784 10.684-10.685 10.684-5.901 0-10.684-4.783-10.684-10.684v-53.424c0-5.901 4.783-10.684 10.684-10.684zM52.834 196.343c5.9 0 10.684 4.784 10.685 10.684v53.424c0 5.901-4.784 10.685-10.685 10.685-5.901 0-10.685-4.784-10.685-10.685v-53.424c0-5.9 4.784-10.684 10.685-10.684zm168.627 0c5.901 0 10.684 4.784 10.685 10.684v53.424c0 5.901-4.784 10.685-10.685 10.685-5.901 0-10.685-4.784-10.685-10.685v-53.424c.001-5.9 4.784-10.684 10.685-10.684zm379.407 0c5.901 0 10.684 4.784 10.685 10.684v53.424c0 5.901-4.784 10.685-10.685 10.685-5.901 0-10.684-4.784-10.684-10.685v-53.424c0-5.9 4.783-10.684 10.684-10.684zm84.315 0c5.9 0 10.684 4.784 10.684 10.684v53.424c0 5.901-4.783 10.685-10.684 10.685-5.901 0-10.685-4.784-10.685-10.685v-53.424c0-5.9 4.784-10.684 10.685-10.684zm84.312 0c5.901 0 10.684 4.784 10.685 10.684v53.424c0 5.901-4.784 10.685-10.685 10.685-5.901 0-10.684-4.784-10.684-10.685v-53.424c0-5.9 4.783-10.684 10.684-10.684zm84.315 0c5.9 0 10.684 4.784 10.684 10.684v53.424c0 5.901-4.783 10.685-10.684 10.685-5.901 0-10.685-4.784-10.685-10.685v-53.424c0-5.9 4.784-10.684 10.685-10.684zm84.308 0c5.901 0 10.684 4.784 10.685 10.684v53.424c0 5.901-4.784 10.685-10.685 10.685-5.901 0-10.684-4.784-10.684-10.685v-53.424c0-5.9 4.783-10.684 10.684-10.684zm-379.404-31.918c5.901 0 10.684 4.783 10.684 10.684v53.424c0 5.901-4.783 10.685-10.684 10.685-5.901 0-10.685-4.784-10.685-10.685v-53.424c0-5.901 4.784-10.684 10.685-10.684zm84.314-6.023c5.901 0 10.685 4.784 10.685 10.685v53.424c0 5.901-4.784 10.684-10.685 10.684-5.901 0-10.684-4.783-10.684-10.684v-53.424c0-5.901 4.783-10.685 10.684-10.685zm84.313-5.633c5.901 0 10.684 4.784 10.684 10.685v53.423c0 5.901-4.783 10.685-10.684 10.685-5.901 0-10.685-4.784-10.685-10.685v-53.423c0-5.901 4.784-10.685 10.685-10.685zm84.308 0c5.901 0 10.685 4.784 10.685 10.685v53.423c0 5.901-4.784 10.685-10.685 10.685-5.901 0-10.684-4.784-10.684-10.685v-53.423c0-5.901 4.783-10.685 10.684-10.685zm84.315 0c5.901 0 10.684 4.784 10.684 10.685v53.423c0 5.901-4.783 10.685-10.684 10.685-5.901 0-10.685-4.784-10.685-10.685v-53.423c0-5.901 4.784-10.685 10.685-10.685zm-800.97-4.605c5.901 0 10.684 4.784 10.685 10.685v53.423c0 5.901-4.784 10.685-10.685 10.685-5.9 0-10.685-4.784-10.685-10.685v-53.423c0-5.901 4.784-10.685 10.685-10.685zm84.313 0c5.9 0 10.684 4.784 10.684 10.685v53.423c0 5.901-4.784 10.685-10.684 10.685-5.901 0-10.686-4.784-10.686-10.685v-53.423c0-5.901 4.785-10.685 10.686-10.685zm84.313 0c5.901 0 10.684 4.784 10.685 10.685v53.423c0 5.901-4.784 10.685-10.685 10.685-5.901 0-10.684-4.784-10.684-10.685v-53.423c0-5.901 4.783-10.685 10.684-10.685zm84.313 0c5.9 0 10.684 4.784 10.684 10.685v53.423c0 5.901-4.783 10.685-10.684 10.685-5.901 0-10.685-4.784-10.685-10.685v-53.423c0-5.901 4.784-10.685 10.685-10.685zm84.309 0c5.901 0 10.685 4.784 10.685 10.685v53.423c0 5.901-4.784 10.685-10.685 10.685-5.901 0-10.685-4.784-10.685-10.685v-53.423c0-5.901 4.784-10.685 10.685-10.685zm84.314 0c5.901 0 10.685 4.784 10.685 10.685v53.423c0 5.901-4.784 10.685-10.685 10.685-5.901 0-10.685-4.784-10.685-10.685v-53.423c0-5.901 4.784-10.685 10.685-10.685zm-505.871-6.281c5.9 0 10.684 4.783 10.684 10.684v53.424c0 5.901-4.784 10.685-10.684 10.685C4.784 216.676 0 211.892 0 205.991v-53.424c0-5.901 4.784-10.684 10.685-10.684zm126.463-25.637c5.901 0 10.685 4.784 10.685 10.685v53.423c0 5.901-4.784 10.685-10.685 10.685-5.9 0-10.684-4.784-10.684-10.685v-53.423c0-5.901 4.783-10.685 10.684-10.685zm168.626 0c5.901 0 10.686 4.784 10.686 10.685v53.423c0 5.901-4.785 10.685-10.686 10.685-5.9 0-10.684-4.784-10.684-10.685v-53.423c0-5.901 4.784-10.685 10.684-10.685zm168.627 0c5.901 0 10.685 4.784 10.685 10.685v53.423c0 5.901-4.784 10.685-10.685 10.685-5.9 0-10.684-4.784-10.684-10.685v-53.423c0-5.901 4.783-10.685 10.684-10.685zm-252.94-16.26c5.901 0 10.684 4.783 10.685 10.684v53.424c0 5.901-4.784 10.684-10.685 10.684-5.901 0-10.685-4.783-10.685-10.684V110.67c.001-5.901 4.784-10.685 10.685-10.685zm379.407 0c5.901 0 10.685 4.783 10.685 10.684v53.424c0 5.901-4.784 10.684-10.685 10.684-5.901 0-10.684-4.783-10.684-10.684V110.67c0-5.901 4.783-10.684 10.684-10.685zm84.315 0c5.901 0 10.684 4.783 10.684 10.684v53.424c0 5.901-4.783 10.684-10.684 10.684-5.901 0-10.685-4.783-10.685-10.684V110.67c0-5.901 4.784-10.685 10.685-10.685zm84.312 0c5.901 0 10.685 4.783 10.685 10.684v53.424c0 5.901-4.784 10.684-10.685 10.684-5.901 0-10.684-4.783-10.684-10.684V110.67c0-5.901 4.783-10.685 10.684-10.685zm84.315 0c5.9 0 10.684 4.783 10.684 10.684v53.424c0 5.901-4.783 10.684-10.684 10.684-5.901 0-10.685-4.783-10.685-10.684V110.67c0-5.901 4.784-10.685 10.685-10.685zm-295.096-31.92c5.901 0 10.684 4.784 10.684 10.685v53.424c0 5.901-4.783 10.684-10.684 10.684-5.901 0-10.685-4.783-10.685-10.684V78.752c0-5.901 4.784-10.685 10.685-10.685zM643.028 50c5.901 0 10.685 4.784 10.685 10.685v53.423c0 5.901-4.784 10.685-10.685 10.685-5.901 0-10.684-4.784-10.684-10.685V60.685c0-5.901 4.783-10.685 10.684-10.685z" fill="url(#paint0_linear_653_9086)"/><defs><linearGradient id="paint0_linear_653_9086" x1="0" y1="420.726" x2="802.31" y2="809.772" gradientUnits="userSpaceOnUse"><stop stop-color="#35FF89"/><stop offset=".149" stop-color="#2ED0A7" stop-opacity=".671"/><stop offset="1" stop-color="#206FE5" stop-opacity="0"/></linearGradient></defs></svg>