<svg width="89" height="88" fill="none" xmlns="http://www.w3.org/2000/svg"><path d="M44.09 8.813c-9.024.228-17.203 3.855-23.309 9.646-.542.147-.973.408-1.292.78a2.664 2.664 0 00-.545 1.097A35.07 35.07 0 009.8 44l.012.908C10.293 63.928 25.863 79.2 45 79.2l.91-.011c18.718-.475 33.804-15.562 34.279-34.28L80.2 44C80.2 24.56 64.44 8.8 45 8.8l-.908.011zM19.055 23.288c.643 2.825 2.597 6.672 5.646 11.113a21.91 21.91 0 00-2.201 9.6c0 12.15 9.85 22 22 22a21.91 21.91 0 009.6-2.2l.226.157c4.839 3.296 8.946 5.267 11.775 5.653l.025.003A33.065 33.065 0 0145 77.201c-18.336 0-33.2-14.864-33.2-33.2a33.058 33.058 0 017.255-20.713zm44.162 32.28c2.785 4.182 4.376 7.561 4.83 9.824l.081.472c.165 1.2-.1 1.556-.145 1.605-.023.025-.296.3-1.407.185l-.45-.062c-2.234-.381-5.695-1.97-10.059-4.875a22.111 22.111 0 007.15-7.15zM44.999 10.8c18.336 0 33.2 14.864 33.2 33.2a33.072 33.072 0 01-8.077 21.705l-.015-.114-.042-.278c-.484-2.866-2.493-6.946-5.766-11.713a21.91 21.91 0 002.2-9.6c0-12.15-9.85-22-22-22-3.49 0-6.79.814-9.72 2.26a.991.991 0 00-.246-.306l-.082-.06-.931-.62c-2.148-1.403-4.117-2.514-5.862-3.325-1.456-.676-2.788-1.158-3.957-1.415A33.063 33.063 0 0145 10.801zm-18.96 25.492c3.398 4.663 7.735 9.66 12.51 14.4 4.526 4.491 9.247 8.553 13.658 11.768A19.938 19.938 0 0144.499 64c-11.046 0-20-8.954-20-20 0-2.732.548-5.336 1.54-7.708zM44.5 24.001c11.046 0 20 8.954 20 20 0 7.506-4.135 14.044-10.251 17.465-4.555-3.231-9.522-7.462-14.29-12.194-5.012-4.974-9.517-10.22-12.924-15.021 3.421-6.115 9.96-10.25 17.465-10.25zm-22.17-3.662c1.091.095 2.599.548 4.486 1.425 1.64.761 3.523 1.822 5.609 3.184l.507.337a22.112 22.112 0 00-7.149 7.149c-2.932-4.403-4.55-7.927-4.896-10.195l-.052-.425a4.077 4.077 0 01-.013-.564c.296-.314.598-.622.905-.925.073-.004.153-.006.24-.005l.363.019z" fill="#0D1A35"/></svg>