<svg width="80" height="80" fill="none" xmlns="http://www.w3.org/2000/svg"><path d="M63.624 61.852c-1.659-1.32-1.734-3.997-1.734-3.997s2.64-.49 4.299.83c1.66 1.32-.867 4.525-2.527 3.167h-.038z" fill="url(#paint0_linear_634_2400)"/><path d="M56.497 62.154c-1.358-1.132-1.396-3.281-1.396-3.281s2.15-.34 3.508.792c1.357 1.131-.755 3.658-2.112 2.527v-.038z" fill="url(#paint1_linear_634_2400)"/><path d="M44.693 58.609c-.301-1.131.49-2.338.49-2.338s1.283.64 1.584 1.772c.302 1.132-1.81 1.697-2.111.566h.037z" fill="url(#paint2_linear_634_2400)"/><path d="M50.5 61.362c-.753-1.094-.414-2.64-.414-2.64s1.584.226 2.338 1.32-1.169 2.414-1.923 1.32z" fill="url(#paint3_linear_634_2400)"/><path d="M50.048 70.45c-.792-1.998.49-4.336.49-4.336s2.527.867 3.319 2.866c.792 1.998-3.017 3.47-3.809 1.47z" fill="url(#paint4_linear_634_2400)"/><path d="M43.712 67.132c-.603-1.66.453-3.545.453-3.545s2.037.792 2.64 2.413c.603 1.622-2.49 2.791-3.093 1.132z" fill="url(#paint5_linear_634_2400)"/><path d="M35.265 58.194c.301-1.131 1.584-1.772 1.584-1.772s.792 1.206.49 2.338c-.302 1.131-2.414.566-2.112-.566h.038z" fill="url(#paint6_linear_634_2400)"/><path d="M38.923 63.474c-.113-1.32.98-2.49.98-2.49s1.245.981 1.358 2.301c.113 1.32-2.225 1.509-2.338.189z" fill="url(#paint7_linear_634_2400)"/><path d="M33.983 71.092c.34-2.112 2.602-3.508 2.602-3.508s1.735 2.037 1.433 4.149c-.302 2.112-4.337 1.508-4.035-.604v-.037z" fill="url(#paint8_linear_634_2400)"/><path d="M30.174 65.058c.302-1.735 2.15-2.866 2.15-2.866s1.357 1.697 1.055 3.431c-.301 1.735-3.545 1.17-3.243-.565h.038z" fill="url(#paint9_linear_634_2400)"/><path d="M27.308 53.103c.83-.83 2.263-.717 2.263-.717s.113 1.433-.717 2.263c-.83.83-2.376-.716-1.546-1.546z" fill="url(#paint10_linear_634_2400)"/><path d="M27.836 59.476c.565-1.206 2.074-1.659 2.074-1.659s.603 1.47 0 2.678c-.604 1.206-2.678.188-2.112-.981l.038-.038z" fill="url(#paint11_linear_634_2400)"/><path d="M19.766 63.625c1.32-1.66 3.997-1.735 3.997-1.735s.49 2.64-.83 4.299c-1.32 1.66-4.525-.867-3.167-2.527v-.037z" fill="url(#paint12_linear_634_2400)"/><path d="M19.427 56.497c1.13-1.358 3.28-1.395 3.28-1.395s.34 2.15-.791 3.507c-1.132 1.358-3.659-.754-2.527-2.112h.038z" fill="url(#paint13_linear_634_2400)"/><path d="M22.971 44.73c1.132-.3 2.339.491 2.339.491s-.641 1.282-1.773 1.584c-1.131.302-1.697-1.81-.566-2.112v.038z" fill="url(#paint14_linear_634_2400)"/><path d="M20.218 50.5c1.094-.753 2.64-.414 2.64-.414s-.226 1.584-1.32 2.338c-1.093.754-2.413-1.169-1.32-1.923z" fill="url(#paint15_linear_634_2400)"/><path d="M11.168 50.048c1.998-.792 4.336.49 4.336.49s-.867 2.527-2.866 3.32c-1.998.791-3.47-3.018-1.47-3.81z" fill="url(#paint16_linear_634_2400)"/><path d="M14.448 43.713c1.66-.604 3.545.452 3.545.452s-.792 2.037-2.413 2.64c-1.622.603-2.791-2.489-1.132-3.092z" fill="url(#paint17_linear_634_2400)"/><path d="M23.386 35.265c1.131.302 1.773 1.584 1.773 1.584s-1.207.792-2.338.49c-1.132-.301-.566-2.413.565-2.111v.037z" fill="url(#paint18_linear_634_2400)"/><path d="M18.144 38.923c1.32-.113 2.489.98 2.489.98s-.98 1.245-2.3 1.358c-1.32.114-1.51-2.225-.19-2.338z" fill="url(#paint19_linear_634_2400)"/><path d="M10.488 33.983c2.112.34 3.508 2.602 3.508 2.602s-2.037 1.735-4.149 1.433c-2.112-.301-1.508-4.337.604-4.035h.037z" fill="url(#paint20_linear_634_2400)"/><path d="M16.522 30.174c1.735.302 2.867 2.15 2.867 2.15s-1.698 1.357-3.432 1.056c-1.735-.302-1.17-3.545.565-3.244v.038z" fill="url(#paint21_linear_634_2400)"/><path d="M28.477 27.308c.83.83.716 2.263.716 2.263s-1.433.113-2.262-.717c-.83-.83.716-2.376 1.546-1.546z" fill="url(#paint22_linear_634_2400)"/><path d="M22.104 27.836c1.207.566 1.66 2.074 1.66 2.074s-1.471.604-2.678 0c-1.207-.603-.189-2.677.98-2.112l.038.038z" fill="url(#paint23_linear_634_2400)"/><path d="M17.956 19.766c1.659 1.32 1.734 3.997 1.734 3.997s-2.64.49-4.299-.83c-1.66-1.32.868-4.525 2.527-3.167h.038z" fill="url(#paint24_linear_634_2400)"/><path d="M25.083 19.464c1.357 1.131 1.395 3.28 1.395 3.28s-2.15.34-3.507-.791c-1.358-1.131.754-3.658 2.112-2.527v.038z" fill="url(#paint25_linear_634_2400)"/><path d="M36.887 22.971c.301 1.131-.49 2.338-.49 2.338s-1.283-.64-1.584-1.772c-.302-1.132 1.81-1.697 2.111-.566h-.037z" fill="url(#paint26_linear_634_2400)"/><path d="M31.08 20.218c.754 1.094.414 2.64.414 2.64s-1.584-.226-2.338-1.32 1.169-2.413 1.923-1.32z" fill="url(#paint27_linear_634_2400)"/><path d="M31.531 11.167c.792 1.999-.49 4.337-.49 4.337s-2.527-.867-3.319-2.866c-.792-1.999 3.017-3.47 3.81-1.47z" fill="url(#paint28_linear_634_2400)"/><path d="M37.867 14.448c.603 1.66-.453 3.545-.453 3.545s-2.036-.792-2.64-2.413c-.603-1.622 2.49-2.791 3.093-1.132z" fill="url(#paint29_linear_634_2400)"/><path d="M46.315 23.424c-.302 1.131-1.584 1.772-1.584 1.772s-.792-1.207-.49-2.338c.301-1.131 2.413-.566 2.111.566h-.037z" fill="url(#paint30_linear_634_2400)"/><path d="M42.656 18.144c.113 1.32-.98 2.489-.98 2.489s-1.245-.98-1.358-2.3c-.113-1.32 2.225-1.509 2.338-.189z" fill="url(#paint31_linear_634_2400)"/><path d="M47.597 10.488c-.34 2.112-2.602 3.508-2.602 3.508s-1.735-2.037-1.433-4.149c.301-2.112 4.337-1.508 4.035.604v.037z" fill="url(#paint32_linear_634_2400)"/><path d="M51.444 16.522c-.302 1.735-2.15 2.866-2.15 2.866s-1.358-1.697-1.056-3.431c.302-1.735 3.545-1.17 3.243.565h-.037z" fill="url(#paint33_linear_634_2400)"/><path d="M54.272 28.515c-.83.83-2.263.716-2.263.716s-.113-1.433.717-2.262c.83-.83 2.376.716 1.546 1.546z" fill="url(#paint34_linear_634_2400)"/><path d="M53.743 22.104c-.565 1.207-2.074 1.659-2.074 1.659s-.603-1.47 0-2.678c.604-1.206 2.678-.188 2.112.981l-.038.038z" fill="url(#paint35_linear_634_2400)"/><path d="M61.815 17.955c-1.32 1.66-3.998 1.735-3.998 1.735s-.49-2.64.83-4.299c1.32-1.66 4.526.867 3.168 2.527v.037z" fill="url(#paint36_linear_634_2400)"/><path d="M62.154 25.083c-1.132 1.358-3.281 1.395-3.281 1.395s-.34-2.15.791-3.507c1.132-1.358 3.659.754 2.527 2.112h-.038z" fill="url(#paint37_linear_634_2400)"/><path d="M58.609 36.887c-1.131.301-2.338-.49-2.338-.49s.64-1.283 1.772-1.584c1.132-.302 1.697 1.81.566 2.111v-.037z" fill="url(#paint38_linear_634_2400)"/><path d="M61.362 31.117c-1.094.754-2.64.415-2.64.415s.226-1.584 1.32-2.338c1.093-.755 2.413 1.169 1.32 1.923z" fill="url(#paint39_linear_634_2400)"/><path d="M70.45 31.532c-1.998.792-4.336-.49-4.336-.49s.867-2.527 2.866-3.32c1.999-.791 3.47 3.018 1.47 3.81z" fill="url(#paint40_linear_634_2400)"/><path d="M67.132 37.867c-1.66.604-3.545-.452-3.545-.452s.792-2.037 2.413-2.64c1.622-.603 2.79 2.489 1.132 3.092z" fill="url(#paint41_linear_634_2400)"/><path d="M58.194 46.315c-1.131-.302-1.772-1.584-1.772-1.584s1.207-.792 2.338-.49c1.131.301.566 2.413-.566 2.112v-.038z" fill="url(#paint42_linear_634_2400)"/><path d="M63.436 42.694c-1.32.114-2.489-.98-2.489-.98s.98-1.245 2.3-1.358c1.32-.113 1.509 2.225.189 2.338z" fill="url(#paint43_linear_634_2400)"/><path d="M71.093 47.597c-2.112-.34-3.508-2.602-3.508-2.602s2.037-1.735 4.149-1.433c2.112.302 1.508 4.337-.604 4.035h-.037z" fill="url(#paint44_linear_634_2400)"/><path d="M65.058 51.444c-1.735-.302-2.866-2.15-2.866-2.15s1.697-1.357 3.432-1.056c1.734.302 1.169 3.545-.566 3.243v-.037z" fill="url(#paint45_linear_634_2400)"/><path d="M53.103 54.272c-.83-.83-.716-2.263-.716-2.263s1.433-.113 2.263.717c.83.83-.717 2.376-1.547 1.546z" fill="url(#paint46_linear_634_2400)"/><path d="M59.477 53.782c-1.207-.566-1.66-2.074-1.66-2.074s1.471-.604 2.678 0c1.207.603.189 2.677-.98 2.111l-.038-.037z" fill="url(#paint47_linear_634_2400)"/><defs><linearGradient id="paint0_linear_634_2400" x1="-9.485" y1="22.238" x2="55.266" y2="113.687" gradientUnits="userSpaceOnUse"><stop stop-color="#35FF89"/><stop offset="1" stop-color="#3177F3"/></linearGradient><linearGradient id="paint1_linear_634_2400" x1="-9.485" y1="22.238" x2="55.266" y2="113.687" gradientUnits="userSpaceOnUse"><stop stop-color="#35FF89"/><stop offset="1" stop-color="#3177F3"/></linearGradient><linearGradient id="paint2_linear_634_2400" x1="-9.485" y1="22.238" x2="55.266" y2="113.687" gradientUnits="userSpaceOnUse"><stop stop-color="#35FF89"/><stop offset="1" stop-color="#3177F3"/></linearGradient><linearGradient id="paint3_linear_634_2400" x1="-9.485" y1="22.238" x2="55.266" y2="113.687" gradientUnits="userSpaceOnUse"><stop stop-color="#35FF89"/><stop offset="1" stop-color="#3177F3"/></linearGradient><linearGradient id="paint4_linear_634_2400" x1="-9.485" y1="22.238" x2="55.266" y2="113.687" gradientUnits="userSpaceOnUse"><stop stop-color="#35FF89"/><stop offset="1" stop-color="#3177F3"/></linearGradient><linearGradient id="paint5_linear_634_2400" x1="-9.485" y1="22.238" x2="55.266" y2="113.687" gradientUnits="userSpaceOnUse"><stop stop-color="#35FF89"/><stop offset="1" stop-color="#3177F3"/></linearGradient><linearGradient id="paint6_linear_634_2400" x1="-9.485" y1="22.238" x2="55.266" y2="113.687" gradientUnits="userSpaceOnUse"><stop stop-color="#35FF89"/><stop offset="1" stop-color="#3177F3"/></linearGradient><linearGradient id="paint7_linear_634_2400" x1="-9.485" y1="22.238" x2="55.266" y2="113.687" gradientUnits="userSpaceOnUse"><stop stop-color="#35FF89"/><stop offset="1" stop-color="#3177F3"/></linearGradient><linearGradient id="paint8_linear_634_2400" x1="-9.485" y1="22.238" x2="55.266" y2="113.687" gradientUnits="userSpaceOnUse"><stop stop-color="#35FF89"/><stop offset="1" stop-color="#3177F3"/></linearGradient><linearGradient id="paint9_linear_634_2400" x1="-9.485" y1="22.238" x2="55.266" y2="113.687" gradientUnits="userSpaceOnUse"><stop stop-color="#35FF89"/><stop offset="1" stop-color="#3177F3"/></linearGradient><linearGradient id="paint10_linear_634_2400" x1="-9.485" y1="22.238" x2="55.266" y2="113.687" gradientUnits="userSpaceOnUse"><stop stop-color="#35FF89"/><stop offset="1" stop-color="#3177F3"/></linearGradient><linearGradient id="paint11_linear_634_2400" x1="-9.485" y1="22.238" x2="55.266" y2="113.687" gradientUnits="userSpaceOnUse"><stop stop-color="#35FF89"/><stop offset="1" stop-color="#3177F3"/></linearGradient><linearGradient id="paint12_linear_634_2400" x1="-9.485" y1="22.238" x2="55.266" y2="113.687" gradientUnits="userSpaceOnUse"><stop stop-color="#35FF89"/><stop offset="1" stop-color="#3177F3"/></linearGradient><linearGradient id="paint13_linear_634_2400" x1="-9.485" y1="22.238" x2="55.266" y2="113.687" gradientUnits="userSpaceOnUse"><stop stop-color="#35FF89"/><stop offset="1" stop-color="#3177F3"/></linearGradient><linearGradient id="paint14_linear_634_2400" x1="-9.485" y1="22.238" x2="55.266" y2="113.687" gradientUnits="userSpaceOnUse"><stop stop-color="#35FF89"/><stop offset="1" stop-color="#3177F3"/></linearGradient><linearGradient id="paint15_linear_634_2400" x1="-9.485" y1="22.238" x2="55.266" y2="113.687" gradientUnits="userSpaceOnUse"><stop stop-color="#35FF89"/><stop offset="1" stop-color="#3177F3"/></linearGradient><linearGradient id="paint16_linear_634_2400" x1="-9.485" y1="22.238" x2="55.266" y2="113.687" gradientUnits="userSpaceOnUse"><stop stop-color="#35FF89"/><stop offset="1" stop-color="#3177F3"/></linearGradient><linearGradient id="paint17_linear_634_2400" x1="-9.485" y1="22.238" x2="55.266" y2="113.687" gradientUnits="userSpaceOnUse"><stop stop-color="#35FF89"/><stop offset="1" stop-color="#3177F3"/></linearGradient><linearGradient id="paint18_linear_634_2400" x1="-9.485" y1="22.238" x2="55.266" y2="113.687" gradientUnits="userSpaceOnUse"><stop stop-color="#35FF89"/><stop offset="1" stop-color="#3177F3"/></linearGradient><linearGradient id="paint19_linear_634_2400" x1="-9.485" y1="22.238" x2="55.266" y2="113.687" gradientUnits="userSpaceOnUse"><stop stop-color="#35FF89"/><stop offset="1" stop-color="#3177F3"/></linearGradient><linearGradient id="paint20_linear_634_2400" x1="-9.485" y1="22.238" x2="55.266" y2="113.687" gradientUnits="userSpaceOnUse"><stop stop-color="#35FF89"/><stop offset="1" stop-color="#3177F3"/></linearGradient><linearGradient id="paint21_linear_634_2400" x1="-9.485" y1="22.238" x2="55.266" y2="113.687" gradientUnits="userSpaceOnUse"><stop stop-color="#35FF89"/><stop offset="1" stop-color="#3177F3"/></linearGradient><linearGradient id="paint22_linear_634_2400" x1="-9.485" y1="22.238" x2="55.266" y2="113.687" gradientUnits="userSpaceOnUse"><stop stop-color="#35FF89"/><stop offset="1" stop-color="#3177F3"/></linearGradient><linearGradient id="paint23_linear_634_2400" x1="-9.485" y1="22.238" x2="55.266" y2="113.687" gradientUnits="userSpaceOnUse"><stop stop-color="#35FF89"/><stop offset="1" stop-color="#3177F3"/></linearGradient><linearGradient id="paint24_linear_634_2400" x1="-9.485" y1="22.238" x2="55.266" y2="113.687" gradientUnits="userSpaceOnUse"><stop stop-color="#35FF89"/><stop offset="1" stop-color="#3177F3"/></linearGradient><linearGradient id="paint25_linear_634_2400" x1="-9.485" y1="22.238" x2="55.266" y2="113.687" gradientUnits="userSpaceOnUse"><stop stop-color="#35FF89"/><stop offset="1" stop-color="#3177F3"/></linearGradient><linearGradient id="paint26_linear_634_2400" x1="-9.485" y1="22.238" x2="55.266" y2="113.687" gradientUnits="userSpaceOnUse"><stop stop-color="#35FF89"/><stop offset="1" stop-color="#3177F3"/></linearGradient><linearGradient id="paint27_linear_634_2400" x1="-9.485" y1="22.238" x2="55.266" y2="113.687" gradientUnits="userSpaceOnUse"><stop stop-color="#35FF89"/><stop offset="1" stop-color="#3177F3"/></linearGradient><linearGradient id="paint28_linear_634_2400" x1="-9.485" y1="22.238" x2="55.266" y2="113.687" gradientUnits="userSpaceOnUse"><stop stop-color="#35FF89"/><stop offset="1" stop-color="#3177F3"/></linearGradient><linearGradient id="paint29_linear_634_2400" x1="-9.485" y1="22.238" x2="55.266" y2="113.687" gradientUnits="userSpaceOnUse"><stop stop-color="#35FF89"/><stop offset="1" stop-color="#3177F3"/></linearGradient><linearGradient id="paint30_linear_634_2400" x1="-9.485" y1="22.238" x2="55.266" y2="113.687" gradientUnits="userSpaceOnUse"><stop stop-color="#35FF89"/><stop offset="1" stop-color="#3177F3"/></linearGradient><linearGradient id="paint31_linear_634_2400" x1="-9.485" y1="22.238" x2="55.266" y2="113.687" gradientUnits="userSpaceOnUse"><stop stop-color="#35FF89"/><stop offset="1" stop-color="#3177F3"/></linearGradient><linearGradient id="paint32_linear_634_2400" x1="-9.485" y1="22.238" x2="55.266" y2="113.687" gradientUnits="userSpaceOnUse"><stop stop-color="#35FF89"/><stop offset="1" stop-color="#3177F3"/></linearGradient><linearGradient id="paint33_linear_634_2400" x1="-9.485" y1="22.238" x2="55.266" y2="113.687" gradientUnits="userSpaceOnUse"><stop stop-color="#35FF89"/><stop offset="1" stop-color="#3177F3"/></linearGradient><linearGradient id="paint34_linear_634_2400" x1="-9.485" y1="22.238" x2="55.266" y2="113.687" gradientUnits="userSpaceOnUse"><stop stop-color="#35FF89"/><stop offset="1" stop-color="#3177F3"/></linearGradient><linearGradient id="paint35_linear_634_2400" x1="-9.485" y1="22.238" x2="55.266" y2="113.687" gradientUnits="userSpaceOnUse"><stop stop-color="#35FF89"/><stop offset="1" stop-color="#3177F3"/></linearGradient><linearGradient id="paint36_linear_634_2400" x1="-9.485" y1="22.238" x2="55.266" y2="113.687" gradientUnits="userSpaceOnUse"><stop stop-color="#35FF89"/><stop offset="1" stop-color="#3177F3"/></linearGradient><linearGradient id="paint37_linear_634_2400" x1="-9.485" y1="22.238" x2="55.266" y2="113.687" gradientUnits="userSpaceOnUse"><stop stop-color="#35FF89"/><stop offset="1" stop-color="#3177F3"/></linearGradient><linearGradient id="paint38_linear_634_2400" x1="-9.485" y1="22.238" x2="55.266" y2="113.687" gradientUnits="userSpaceOnUse"><stop stop-color="#35FF89"/><stop offset="1" stop-color="#3177F3"/></linearGradient><linearGradient id="paint39_linear_634_2400" x1="-9.485" y1="22.238" x2="55.266" y2="113.687" gradientUnits="userSpaceOnUse"><stop stop-color="#35FF89"/><stop offset="1" stop-color="#3177F3"/></linearGradient><linearGradient id="paint40_linear_634_2400" x1="-9.485" y1="22.238" x2="55.266" y2="113.687" gradientUnits="userSpaceOnUse"><stop stop-color="#35FF89"/><stop offset="1" stop-color="#3177F3"/></linearGradient><linearGradient id="paint41_linear_634_2400" x1="-9.485" y1="22.238" x2="55.266" y2="113.687" gradientUnits="userSpaceOnUse"><stop stop-color="#35FF89"/><stop offset="1" stop-color="#3177F3"/></linearGradient><linearGradient id="paint42_linear_634_2400" x1="-9.485" y1="22.238" x2="55.266" y2="113.687" gradientUnits="userSpaceOnUse"><stop stop-color="#35FF89"/><stop offset="1" stop-color="#3177F3"/></linearGradient><linearGradient id="paint43_linear_634_2400" x1="-9.485" y1="22.238" x2="55.266" y2="113.687" gradientUnits="userSpaceOnUse"><stop stop-color="#35FF89"/><stop offset="1" stop-color="#3177F3"/></linearGradient><linearGradient id="paint44_linear_634_2400" x1="-9.485" y1="22.238" x2="55.266" y2="113.687" gradientUnits="userSpaceOnUse"><stop stop-color="#35FF89"/><stop offset="1" stop-color="#3177F3"/></linearGradient><linearGradient id="paint45_linear_634_2400" x1="-9.485" y1="22.238" x2="55.266" y2="113.687" gradientUnits="userSpaceOnUse"><stop stop-color="#35FF89"/><stop offset="1" stop-color="#3177F3"/></linearGradient><linearGradient id="paint46_linear_634_2400" x1="-9.485" y1="22.238" x2="55.266" y2="113.687" gradientUnits="userSpaceOnUse"><stop stop-color="#35FF89"/><stop offset="1" stop-color="#3177F3"/></linearGradient><linearGradient id="paint47_linear_634_2400" x1="-9.485" y1="22.238" x2="55.266" y2="113.687" gradientUnits="userSpaceOnUse"><stop stop-color="#35FF89"/><stop offset="1" stop-color="#3177F3"/></linearGradient></defs></svg>