<svg width="89" height="88" fill="none" xmlns="http://www.w3.org/2000/svg"><path d="M9.906 41.323a34.2 34.2 0 0168.139-.585" stroke="#0D1A35" stroke-width="2"/><mask id="a" fill="#fff"><path d="M79.2 44a35.199 35.199 0 01-70.4 0h12.46a22.739 22.739 0 0031.443 21.01A22.742 22.742 0 0066.741 44h12.46z"/></mask><path d="M79.2 44a35.199 35.199 0 01-70.4 0h12.46a22.739 22.739 0 0031.443 21.01A22.742 22.742 0 0066.741 44h12.46z" stroke="#0D1A35" stroke-width="4" mask="url(#a)"/><mask id="b" fill="#fff"><path d="M66.781 44a22.783 22.783 0 00-45.564 0h12.275a10.506 10.506 0 0120.215-4.022c.528 1.275.8 2.641.8 4.021H66.78z"/></mask><path d="M66.781 44a22.783 22.783 0 00-45.564 0h12.275a10.506 10.506 0 0120.215-4.022c.528 1.275.8 2.641.8 4.021H66.78z" stroke="#0D1A35" stroke-width="4" mask="url(#b)"/><path d="M44 55.827a11.827 11.827 0 01-4.813-22.632" stroke="#0D1A35" stroke-width="2"/></svg>