<svg width="89" height="88" fill="none" xmlns="http://www.w3.org/2000/svg"><path d="M44.91 8.813C63.93 9.293 79.2 24.863 79.2 44l-.011.908C78.707 63.93 63.137 79.201 44 79.201l-.91-.011C24.374 78.715 9.288 63.627 8.813 44.91L8.802 44c0-19.44 15.76-35.2 35.2-35.2l.908.011zM10.82 45.12C11.411 62.937 26.04 77.2 44 77.2c15.282 0 28.15-10.326 32.013-24.38C72.466 62.071 63.5 68.64 53 68.64l-.636-.008c-12.94-.328-23.402-10.634-23.978-23.512H10.82zm19.568 0C30.972 57.103 40.872 66.64 53 66.64c11.03 0 20.216-7.888 22.229-18.33-1.787 5.173-6.698 8.89-12.479 8.89l-.34-.005c-6.758-.171-12.253-5.42-12.812-12.075h-19.21zm21.217 0c.562 5.66 5.337 10.08 11.145 10.08 5.807 0 10.583-4.42 11.145-10.08h-22.29zM44 10.8c-18.041 0-32.722 14.391-33.188 32.32h17.566C28.841 29.92 39.686 19.36 53 19.36l.637.008c10.223.26 18.898 6.746 22.375 15.809C72.148 21.125 59.28 10.8 44 10.8zm9 10.56c-12.209 0-22.159 9.664-22.621 21.76H49.58c.453-6.88 6.176-12.32 13.17-12.32l.34.004c5.632.143 10.386 3.813 12.139 8.883C73.216 29.248 64.03 21.361 53 21.361zm9.75 11.44c-5.89 0-10.713 4.546-11.162 10.32h22.324c-.449-5.774-5.273-10.32-11.162-10.32z" fill="#0D1A35"/></svg>