<svg width="89" height="88" fill="none" xmlns="http://www.w3.org/2000/svg"><path d="M44.907 8.813a35.018 35.018 0 0115.466 4.023 6.43 6.43 0 011.393.502l.333.179a6.403 6.403 0 011.585 1.301c8.655 5.85 14.568 15.447 15.41 26.465.342.761.545 1.542.594 2.34l.01.378c0 .927-.208 1.832-.602 2.71-.84 11.022-6.756 20.622-15.414 26.473-.463.52-.988.957-1.582 1.3l-.334.18c-.441.22-.907.386-1.393.501A35.045 35.045 0 0143.999 79.2l-.91-.01C24.373 78.715 9.286 63.627 8.812 44.91L8.799 44c0-19.44 15.76-35.2 35.2-35.2l.908.011zM44.5 67.787c-4.25 3.996-8.46 6.59-12.055 7.344A33.128 33.128 0 0044 77.2c4.207 0 8.231-.785 11.936-2.213-3.455-.907-7.428-3.43-11.436-7.199zM25.825 56.436a42.537 42.537 0 00-.77 4.191c-.422 3.266-.325 6.013.218 8.104.541 2.081 1.475 3.357 2.625 4.021 1.15.664 2.723.837 4.796.265 2.083-.575 4.51-1.865 7.127-3.865a42.598 42.598 0 003.244-2.763c-2.305-2.335-4.603-5.067-6.801-8.126-3.749-.375-7.264-.998-10.439-1.828zm37.347 0c-3.175.829-6.69 1.452-10.439 1.827-2.198 3.059-4.496 5.79-6.801 8.126a42.565 42.565 0 003.245 2.763c2.617 2 5.044 3.29 7.127 3.865 1.326.366 2.447.425 3.383.248a33.17 33.17 0 002.656-1.591c.579-.713 1.053-1.679 1.382-2.943.543-2.09.64-4.838.217-8.104a42.575 42.575 0 00-.77-4.192zm-52.043-7.76c1.231 8.735 5.86 16.377 12.508 21.547-1.223-3.5-1.102-8.532.261-14.328-5.889-1.775-10.407-4.29-12.77-7.218zm65.533 1.292c-2.543 2.376-6.558 4.419-11.563 5.926 1.228 5.225 1.446 9.827.582 13.248 5.623-4.854 9.6-11.562 10.981-19.174zm-26.574 8.515a83.89 83.89 0 01-4.68.18l-.909.005a84.28 84.28 0 01-5.59-.185c1.83 2.428 3.713 4.61 5.59 6.51 1.877-1.9 3.759-4.083 5.589-6.51zm-5.589-27.15c-2.453 0-4.84.108-7.135.31a81.492 81.492 0 00-3.836 6.024 81.526 81.526 0 00-3.298 6.334 81.491 81.491 0 003.298 6.334 81.49 81.49 0 003.836 6.023c2.296.202 4.682.31 7.135.31a81.49 81.49 0 007.134-.31 81.473 81.473 0 003.837-6.023 81.457 81.457 0 003.298-6.334 81.492 81.492 0 00-3.298-6.334 81.497 81.497 0 00-3.837-6.024 81.49 81.49 0 00-7.134-.31zM29.161 46.401c-1.187 2.8-2.137 5.52-2.844 8.096 2.584.676 5.416 1.215 8.434 1.586a83.978 83.978 0 01-2.496-3.964l-.458-.784a84.295 84.295 0 01-2.636-4.934zm30.675 0a84.362 84.362 0 01-2.635 4.934l-.458.784a83.936 83.936 0 01-2.497 3.964c3.018-.371 5.85-.91 8.434-1.586-.707-2.575-1.657-5.297-2.844-8.096zM24.394 34.047a42.547 42.547 0 00-4.016 1.429c-3.04 1.266-5.37 2.724-6.91 4.24-1.531 1.51-2.17 2.957-2.17 4.285.001 1.328.64 2.775 2.17 4.284 1.54 1.516 3.87 2.975 6.91 4.241 1.24.517 2.583.994 4.015 1.428.869-3.164 2.086-6.52 3.636-9.954-1.55-3.433-2.767-6.789-3.635-9.953zm40.21 0c-.87 3.164-2.086 6.52-3.636 9.953 1.55 3.434 2.767 6.79 3.636 9.954a42.554 42.554 0 004.015-1.428c3.04-1.267 5.371-2.725 6.91-4.24.722-.712 1.244-1.41 1.595-2.088.047-.726.074-1.459.074-2.197 0-.739-.026-1.472-.074-2.198-.351-.678-.873-1.376-1.595-2.087-1.539-1.516-3.87-2.974-6.91-4.24a42.545 42.545 0 00-4.016-1.43zM34.75 31.918c-3.017.372-5.848.91-8.432 1.586.707 2.575 1.656 5.297 2.843 8.096a83.892 83.892 0 012.185-4.144l.45-.789a84.27 84.27 0 012.954-4.749zm19.495 0a84.336 84.336 0 012.955 4.749l.45.79a84.036 84.036 0 012.184 4.143c1.187-2.8 2.136-5.52 2.843-8.096-2.584-.676-5.415-1.215-8.432-1.586zM23.64 17.775c-6.65 5.17-11.279 12.813-12.511 21.547 2.363-2.927 6.881-5.44 12.77-7.215-1.364-5.799-1.483-10.832-.26-14.332zm42.043 1.086c.863 3.42.644 8.021-.584 13.244 5.005 1.508 9.02 3.553 11.563 5.93-1.381-7.613-5.357-14.32-10.98-19.174zm-32.989-3.875c-2.073-.572-3.644-.401-4.795.263-1.15.664-2.085 1.94-2.626 4.021-.543 2.092-.64 4.838-.217 8.104.172 1.332.43 2.735.77 4.192 3.175-.83 6.69-1.454 10.438-1.829 2.198-3.059 4.496-5.79 6.802-8.126a42.602 42.602 0 00-3.244-2.762c-2.617-2-5.045-3.288-7.128-3.863zm26.991-.25c-.936-.177-2.056-.115-3.381.25-2.083.575-4.511 1.863-7.128 3.863a42.568 42.568 0 00-3.245 2.762c2.306 2.335 4.604 5.067 6.802 8.126 3.748.375 7.263 1 10.438 1.828a42.44 42.44 0 00.771-4.191c.423-3.266.326-6.012-.217-8.104-.33-1.264-.805-2.23-1.384-2.944a33.138 33.138 0 00-2.656-1.59zM44.5 23.007c-1.877 1.9-3.76 4.082-5.59 6.51a84.28 84.28 0 015.59-.185l.908.005c1.589.017 3.151.079 4.68.18-1.83-2.427-3.71-4.61-5.588-6.51zM44 10.8c-4.065 0-7.959.732-11.559 2.07 3.595.752 7.808 3.345 12.059 7.343 4.01-3.77 7.984-6.293 11.438-7.2A33.117 33.117 0 0044 10.802z" fill="#192237"/></svg>