<svg width="80" height="80" fill="none" xmlns="http://www.w3.org/2000/svg"><path d="M72.258 35.259c-.83.226-2.3-.264-2.527-1.207-.226-.943.867-1.961 1.697-2.187.83-.227 1.018.528 1.245 1.47.226.943.414 1.697-.415 1.924z" fill="url(#paint0_linear_634_2416)"/><path d="M65.922 42.047c-1.433.15-4.223-1.094-4.261-2.715-.038-1.622 2.715-2.98 4.148-3.093 1.433-.113 1.584 1.207 1.622 2.829.037 1.621-.076 2.866-1.509 3.017v-.038z" fill="url(#paint1_linear_634_2416)"/><path d="M57.437 44.46c-.83-.075-2.49-1.282-2.263-2.375.226-1.094 2.263-1.66 3.092-1.584.83.075.641 1.018.453 2.112-.189 1.093-.415 1.923-1.245 1.848h-.037z" fill="url(#paint2_linear_634_2416)"/><path d="M72.144 46.497c-.867-.075-2.036-1.056-1.96-1.999.075-.943 1.47-1.546 2.337-1.47.868.075.755.83.641 1.81-.113.98-.188 1.734-1.055 1.659h.037z" fill="url(#paint3_linear_634_2416)"/><path d="M63.885 50.683c-1.395-.34-3.582-2.489-3.054-3.997.527-1.509 3.582-1.848 4.977-1.509 1.396.34 1.094 1.697.566 3.206-.528 1.508-1.056 2.677-2.451 2.3h-.038z" fill="url(#paint4_linear_634_2416)"/><path d="M55.06 50.08c-.753-.34-1.922-2.075-1.319-3.017.603-.943 2.678-.792 3.432-.415.754.377.264 1.169-.302 2.112-.566.943-1.056 1.697-1.81 1.32z" fill="url(#paint5_linear_634_2416)"/><path d="M68.223 57.019c-.792-.377-1.584-1.66-1.132-2.527.453-.867 1.924-.943 2.716-.603.791.339.452 1.055 0 1.923-.453.867-.755 1.584-1.547 1.207h-.037z" fill="url(#paint6_linear_634_2416)"/><path d="M59.02 58.112c-1.169-.792-2.526-3.582-1.508-4.827 1.018-1.244 3.997-.528 5.166.302 1.17.83.453 1.96-.565 3.205-1.019 1.245-1.924 2.15-3.093 1.32z" fill="url(#paint7_linear_634_2416)"/><path d="M50.95 54.53c-.603-.604-1.093-2.602-.226-3.281.867-.68 2.79.188 3.394.754.603.566-.15 1.207-1.018 1.886-.868.678-1.546 1.206-2.15.64z" fill="url(#paint8_linear_634_2416)"/><path d="M60.906 65.542c-.603-.604-.905-2.112-.226-2.791.678-.679 2.111-.226 2.753.377.64.603.037 1.131-.642 1.81-.678.679-1.282 1.207-1.885.604z" fill="url(#paint9_linear_634_2416)"/><path d="M51.893 63.43c-.83-1.17-1.17-4.224.226-5.054 1.395-.83 3.922.868 4.752 2.037.83 1.169-.264 1.998-1.622 2.828-1.358.83-2.527 1.358-3.356.189z" fill="url(#paint10_linear_634_2416)"/><path d="M45.557 57.32c-.339-.754-.15-2.79.943-3.167 1.094-.378 2.565 1.13 2.904 1.885.34.754-.528 1.056-1.584 1.433s-1.886.604-2.225-.15h-.038z" fill="url(#paint11_linear_634_2416)"/><path d="M51.14 71.085c-.378-.792-.114-2.3.754-2.677.867-.377 2.074.49 2.45 1.282.378.792-.339 1.094-1.244 1.47-.905.378-1.621.717-1.96-.075z" fill="url(#paint12_linear_634_2416)"/><path d="M43.37 65.994c-.376-1.358.378-4.374 1.924-4.676 1.546-.302 3.394 2.187 3.771 3.545.377 1.357-.905 1.772-2.489 2.074-1.584.302-2.828.415-3.205-.98v.037z" fill="url(#paint13_linear_634_2416)"/><path d="M39.524 58.075c-.076-.83.83-2.678 1.96-2.64 1.132.037 2.037 1.923 2.113 2.753.075.83-.868.83-2 .792-1.13-.038-1.96-.076-2.035-.905h-.038z" fill="url(#paint14_linear_634_2416)"/><path d="M40.09 72.933c-.076-.867.678-2.187 1.62-2.263.944-.075 1.773 1.17 1.849 2.037.075.867-.679.905-1.66.98-.98.076-1.734.114-1.847-.754h.037z" fill="url(#paint15_linear_634_2416)"/><path d="M34.508 65.504c.113-1.433 1.848-3.96 3.432-3.734 1.584.227 2.451 3.206 2.338 4.639-.113 1.433-1.47 1.358-3.055 1.094-1.584-.264-2.79-.604-2.677-2h-.038z" fill="url(#paint16_linear_634_2416)"/><path d="M33.603 56.717c.226-.83 1.697-2.225 2.753-1.81 1.056.415 1.244 2.489 1.018 3.318-.226.83-1.093.49-2.15.076-1.055-.415-1.847-.754-1.62-1.546v-.038z" fill="url(#paint17_linear_634_2416)"/><path d="M29.04 70.897c.226-.83 1.395-1.848 2.3-1.584.905.264 1.283 1.734 1.056 2.564-.226.83-.942.604-1.885.34-.943-.264-1.697-.49-1.471-1.32z" fill="url(#paint18_linear_634_2416)"/><path d="M26.324 61.997c.604-1.283 3.093-3.093 4.488-2.339 1.395.755 1.207 3.847.604 5.13-.604 1.282-1.848.791-3.244 0-1.395-.793-2.451-1.51-1.848-2.83v.039z" fill="url(#paint19_linear_634_2416)"/><path d="M28.474 53.436c.49-.679 2.376-1.508 3.206-.792.83.717.301 2.79-.189 3.47-.49.678-1.207.075-2.037-.68-.83-.753-1.47-1.32-.98-1.998z" fill="url(#paint20_linear_634_2416)"/><path d="M19.348 65.164c.49-.716 1.923-1.244 2.715-.678.792.565.604 2.036.113 2.753-.49.716-1.093.226-1.885-.34-.792-.566-1.433-1.018-.905-1.735h-.038z" fill="url(#paint21_linear_634_2416)"/><path d="M19.838 55.925c.981-1.018 3.96-1.886 5.016-.641 1.056 1.244-.188 4.035-1.169 5.053-.98 1.018-1.999.113-3.054-1.131-1.056-1.245-1.773-2.263-.755-3.281h-.038z" fill="url(#paint22_linear_634_2416)"/><path d="M24.816 48.609c.679-.49 2.753-.604 3.28.377.529.98-.678 2.715-1.357 3.206-.678.49-1.131-.34-1.697-1.32-.566-.981-.943-1.735-.264-2.225l.038-.038z" fill="url(#paint23_linear_634_2416)"/><path d="M12.22 56.528c.717-.49 2.225-.528 2.79.264.567.792-.15 2.15-.829 2.64-.679.49-1.131-.15-1.66-.943-.527-.792-.98-1.47-.263-1.96h-.038z" fill="url(#paint24_linear_634_2416)"/><path d="M15.84 47.968c1.283-.604 4.337-.415 4.94 1.093.604 1.509-1.546 3.734-2.828 4.337-1.282.604-1.923-.603-2.489-2.074-.565-1.47-.905-2.715.377-3.356z" fill="url(#paint25_linear_634_2416)"/><path d="M23.006 42.801c.791-.226 2.79.34 2.941 1.47.15 1.132-1.546 2.34-2.376 2.528-.83.188-.943-.717-1.131-1.81-.189-1.094-.264-1.962.528-2.188h.038z" fill="url(#paint26_linear_634_2416)"/><path d="M8.449 45.931c.83-.226 2.3.264 2.527 1.207.226.943-.868 1.961-1.698 2.187-.83.227-1.018-.528-1.244-1.47-.226-.943-.415-1.697.415-1.924z" fill="url(#paint27_linear_634_2416)"/><path d="M14.822 39.143c1.433-.15 4.224 1.094 4.261 2.715.038 1.622-2.715 2.98-4.148 3.093-1.433.113-1.584-1.207-1.622-2.829-.037-1.621.076-2.866 1.509-3.017v.038z" fill="url(#paint28_linear_634_2416)"/><path d="M23.308 36.73c.83.075 2.489 1.282 2.262 2.375-.226 1.094-2.262 1.66-3.092 1.584-.83-.075-.641-1.018-.453-2.112.189-1.093.415-1.923 1.245-1.847h.038z" fill="url(#paint29_linear_634_2416)"/><path d="M8.562 34.693c.867.076 2.036 1.056 1.96 1.999-.075.943-1.47 1.546-2.337 1.47-.868-.075-.754-.829-.641-1.81.113-.98.188-1.734 1.056-1.659h-.038z" fill="url(#paint30_linear_634_2416)"/><path d="M16.82 30.507c1.396.34 3.583 2.49 3.055 3.998s-3.582 1.847-4.978 1.508c-1.395-.34-1.094-1.697-.566-3.206.529-1.508 1.056-2.677 2.452-2.3h.037z" fill="url(#paint31_linear_634_2416)"/><path d="M25.645 31.11c.755.34 1.924 2.075 1.32 3.017-.603.943-2.677.792-3.431.415-.755-.377-.264-1.169.301-2.112.566-.942 1.056-1.697 1.81-1.32z" fill="url(#paint32_linear_634_2416)"/><path d="M12.484 24.172c.792.377 1.584 1.659 1.132 2.526-.453.867-1.924.943-2.716.604-.792-.34-.452-1.056 0-1.924.453-.867.755-1.584 1.546-1.206h.038z" fill="url(#paint33_linear_634_2416)"/><path d="M21.724 23.04c1.169.792 2.526 3.583 1.508 4.827-1.018 1.245-3.997.528-5.166-.302-1.17-.83-.453-1.96.565-3.205 1.018-1.244 1.924-2.15 3.093-1.32z" fill="url(#paint34_linear_634_2416)"/><path d="M29.756 26.66c.604.604 1.094 2.603.226 3.281-.867.68-2.79-.188-3.394-.754-.603-.566.151-1.207 1.018-1.885.868-.68 1.547-1.207 2.15-.642z" fill="url(#paint35_linear_634_2416)"/><path d="M19.8 15.649c.604.603.905 2.111.226 2.79-.678.679-2.111.227-2.753-.377-.64-.603-.037-1.131.642-1.81.678-.679 1.282-1.207 1.885-.603z" fill="url(#paint36_linear_634_2416)"/><path d="M28.813 17.723c.83 1.169 1.169 4.223-.226 5.053-1.396.83-3.922-.867-4.752-2.036-.83-1.17.264-2 1.621-2.829 1.358-.83 2.527-1.357 3.357-.188z" fill="url(#paint37_linear_634_2416)"/><path d="M35.187 23.87c.339.754.15 2.79-.943 3.168-1.094.377-2.565-1.132-2.904-1.886-.34-.754.528-1.056 1.584-1.433s1.885-.604 2.225.15h.038z" fill="url(#paint38_linear_634_2416)"/><path d="M29.568 10.105c.377.792.113 2.3-.755 2.677-.867.378-2.074-.49-2.45-1.282-.378-.792.339-1.093 1.244-1.47.905-.378 1.621-.717 1.96.075z" fill="url(#paint39_linear_634_2416)"/><path d="M37.336 15.158c.378 1.358-.377 4.375-1.923 4.677-1.546.301-3.394-2.188-3.771-3.545-.377-1.358.905-1.773 2.489-2.074 1.584-.302 2.828-.415 3.205.98v-.038z" fill="url(#paint40_linear_634_2416)"/><path d="M41.221 23.116c.075.83-.83 2.677-1.961 2.64-1.131-.038-2.036-1.924-2.112-2.754-.075-.83.867-.83 1.999-.792 1.131.038 1.96.076 2.036.905h.038z" fill="url(#paint41_linear_634_2416)"/><path d="M40.655 8.257c.075.867-.68 2.187-1.622 2.263-.943.075-1.773-1.17-1.848-2.037-.075-.867.679-.905 1.66-.98.98-.076 1.734-.113 1.847.754h-.037z" fill="url(#paint42_linear_634_2416)"/><path d="M46.236 15.686c-.113 1.433-1.847 3.96-3.431 3.734-1.584-.227-2.452-3.206-2.338-4.639.113-1.433 1.47-1.357 3.054-1.094 1.584.264 2.79.604 2.678 2h.038z" fill="url(#paint43_linear_634_2416)"/><path d="M47.141 24.435c-.226.83-1.697 2.225-2.753 1.81-1.056-.414-1.244-2.488-1.018-3.318.226-.83 1.094-.49 2.15-.075 1.056.414 1.848.754 1.621 1.546v.037z" fill="url(#paint44_linear_634_2416)"/><path d="M51.705 10.293c-.226.83-1.395 1.848-2.3 1.584-.906-.264-1.283-1.734-1.056-2.564.226-.83.942-.603 1.885-.34.943.265 1.697.49 1.471 1.32z" fill="url(#paint45_linear_634_2416)"/><path d="M54.382 19.194c-.603 1.282-3.092 3.092-4.487 2.338-1.396-.755-1.207-3.847-.604-5.13.604-1.281 1.848-.791 3.243 0 1.396.793 2.452 1.51 1.848 2.83v-.038z" fill="url(#paint46_linear_634_2416)"/><path d="M52.233 27.754c-.49.679-2.376 1.509-3.206.792-.83-.716-.302-2.79.189-3.47.49-.678 1.206-.075 2.036.68.83.754 1.47 1.32.98 1.998z" fill="url(#paint47_linear_634_2416)"/><path d="M61.359 15.988c-.49.716-1.924 1.245-2.716.679-.792-.566-.603-2.037-.113-2.753.49-.717 1.094-.226 1.886.34.792.565 1.433 1.017.905 1.734h.038z" fill="url(#paint48_linear_634_2416)"/><path d="M60.868 25.265c-.98 1.018-3.96 1.886-5.016.641-1.056-1.244.189-4.035 1.169-5.053.98-1.018 1.999-.113 3.055 1.131 1.056 1.245 1.772 2.263.754 3.281h.038z" fill="url(#paint49_linear_634_2416)"/><path d="M55.928 32.581c-.679.49-2.753.604-3.281-.377-.528-.98.679-2.715 1.358-3.205.678-.49 1.13.339 1.697 1.32.565.98.942 1.734.264 2.225l-.038.037z" fill="url(#paint50_linear_634_2416)"/><path d="M68.525 24.662c-.717.49-2.226.528-2.791-.264-.566-.792.15-2.15.83-2.64.678-.49 1.13.15 1.659.943.528.792.98 1.47.264 1.96h.038z" fill="url(#paint51_linear_634_2416)"/><path d="M64.866 33.222c-1.282.604-4.337.415-4.94-1.093-.604-1.509 1.546-3.734 2.828-4.337 1.282-.604 1.923.603 2.489 2.074.566 1.47.905 2.715-.377 3.356z" fill="url(#paint52_linear_634_2416)"/><path d="M57.738 38.389c-.792.226-2.79-.34-2.941-1.47-.151-1.132 1.546-2.339 2.376-2.528.83-.188.942.717 1.131 1.81.189 1.094.264 1.962-.528 2.188h-.038z" fill="url(#paint53_linear_634_2416)"/><defs><linearGradient id="paint0_linear_634_2416" x1="-10.903" y1="21.542" x2="55.759" y2="114.999" gradientUnits="userSpaceOnUse"><stop stop-color="#35FF89"/><stop offset="1" stop-color="#3177F3"/></linearGradient><linearGradient id="paint1_linear_634_2416" x1="-10.903" y1="21.542" x2="55.759" y2="114.999" gradientUnits="userSpaceOnUse"><stop stop-color="#35FF89"/><stop offset="1" stop-color="#3177F3"/></linearGradient><linearGradient id="paint2_linear_634_2416" x1="-10.903" y1="21.542" x2="55.759" y2="114.999" gradientUnits="userSpaceOnUse"><stop stop-color="#35FF89"/><stop offset="1" stop-color="#3177F3"/></linearGradient><linearGradient id="paint3_linear_634_2416" x1="-10.903" y1="21.542" x2="55.759" y2="114.999" gradientUnits="userSpaceOnUse"><stop stop-color="#35FF89"/><stop offset="1" stop-color="#3177F3"/></linearGradient><linearGradient id="paint4_linear_634_2416" x1="-10.903" y1="21.542" x2="55.759" y2="114.999" gradientUnits="userSpaceOnUse"><stop stop-color="#35FF89"/><stop offset="1" stop-color="#3177F3"/></linearGradient><linearGradient id="paint5_linear_634_2416" x1="-10.903" y1="21.542" x2="55.759" y2="114.999" gradientUnits="userSpaceOnUse"><stop stop-color="#35FF89"/><stop offset="1" stop-color="#3177F3"/></linearGradient><linearGradient id="paint6_linear_634_2416" x1="-10.903" y1="21.542" x2="55.759" y2="114.999" gradientUnits="userSpaceOnUse"><stop stop-color="#35FF89"/><stop offset="1" stop-color="#3177F3"/></linearGradient><linearGradient id="paint7_linear_634_2416" x1="-10.903" y1="21.542" x2="55.759" y2="114.999" gradientUnits="userSpaceOnUse"><stop stop-color="#35FF89"/><stop offset="1" stop-color="#3177F3"/></linearGradient><linearGradient id="paint8_linear_634_2416" x1="-10.903" y1="21.542" x2="55.759" y2="114.999" gradientUnits="userSpaceOnUse"><stop stop-color="#35FF89"/><stop offset="1" stop-color="#3177F3"/></linearGradient><linearGradient id="paint9_linear_634_2416" x1="-10.903" y1="21.542" x2="55.759" y2="114.999" gradientUnits="userSpaceOnUse"><stop stop-color="#35FF89"/><stop offset="1" stop-color="#3177F3"/></linearGradient><linearGradient id="paint10_linear_634_2416" x1="-10.903" y1="21.542" x2="55.759" y2="114.999" gradientUnits="userSpaceOnUse"><stop stop-color="#35FF89"/><stop offset="1" stop-color="#3177F3"/></linearGradient><linearGradient id="paint11_linear_634_2416" x1="-10.903" y1="21.542" x2="55.759" y2="114.999" gradientUnits="userSpaceOnUse"><stop stop-color="#35FF89"/><stop offset="1" stop-color="#3177F3"/></linearGradient><linearGradient id="paint12_linear_634_2416" x1="-10.903" y1="21.542" x2="55.759" y2="114.999" gradientUnits="userSpaceOnUse"><stop stop-color="#35FF89"/><stop offset="1" stop-color="#3177F3"/></linearGradient><linearGradient id="paint13_linear_634_2416" x1="-10.903" y1="21.542" x2="55.759" y2="114.999" gradientUnits="userSpaceOnUse"><stop stop-color="#35FF89"/><stop offset="1" stop-color="#3177F3"/></linearGradient><linearGradient id="paint14_linear_634_2416" x1="-10.903" y1="21.542" x2="55.759" y2="114.999" gradientUnits="userSpaceOnUse"><stop stop-color="#35FF89"/><stop offset="1" stop-color="#3177F3"/></linearGradient><linearGradient id="paint15_linear_634_2416" x1="-10.903" y1="21.542" x2="55.759" y2="114.999" gradientUnits="userSpaceOnUse"><stop stop-color="#35FF89"/><stop offset="1" stop-color="#3177F3"/></linearGradient><linearGradient id="paint16_linear_634_2416" x1="-10.903" y1="21.542" x2="55.759" y2="114.999" gradientUnits="userSpaceOnUse"><stop stop-color="#35FF89"/><stop offset="1" stop-color="#3177F3"/></linearGradient><linearGradient id="paint17_linear_634_2416" x1="-10.903" y1="21.542" x2="55.759" y2="114.999" gradientUnits="userSpaceOnUse"><stop stop-color="#35FF89"/><stop offset="1" stop-color="#3177F3"/></linearGradient><linearGradient id="paint18_linear_634_2416" x1="-10.903" y1="21.542" x2="55.759" y2="114.999" gradientUnits="userSpaceOnUse"><stop stop-color="#35FF89"/><stop offset="1" stop-color="#3177F3"/></linearGradient><linearGradient id="paint19_linear_634_2416" x1="-10.903" y1="21.542" x2="55.759" y2="114.999" gradientUnits="userSpaceOnUse"><stop stop-color="#35FF89"/><stop offset="1" stop-color="#3177F3"/></linearGradient><linearGradient id="paint20_linear_634_2416" x1="-10.903" y1="21.542" x2="55.759" y2="114.999" gradientUnits="userSpaceOnUse"><stop stop-color="#35FF89"/><stop offset="1" stop-color="#3177F3"/></linearGradient><linearGradient id="paint21_linear_634_2416" x1="-10.903" y1="21.542" x2="55.759" y2="114.999" gradientUnits="userSpaceOnUse"><stop stop-color="#35FF89"/><stop offset="1" stop-color="#3177F3"/></linearGradient><linearGradient id="paint22_linear_634_2416" x1="-10.903" y1="21.542" x2="55.759" y2="114.999" gradientUnits="userSpaceOnUse"><stop stop-color="#35FF89"/><stop offset="1" stop-color="#3177F3"/></linearGradient><linearGradient id="paint23_linear_634_2416" x1="-10.903" y1="21.542" x2="55.759" y2="114.999" gradientUnits="userSpaceOnUse"><stop stop-color="#35FF89"/><stop offset="1" stop-color="#3177F3"/></linearGradient><linearGradient id="paint24_linear_634_2416" x1="-10.903" y1="21.542" x2="55.759" y2="114.999" gradientUnits="userSpaceOnUse"><stop stop-color="#35FF89"/><stop offset="1" stop-color="#3177F3"/></linearGradient><linearGradient id="paint25_linear_634_2416" x1="-10.903" y1="21.542" x2="55.759" y2="114.999" gradientUnits="userSpaceOnUse"><stop stop-color="#35FF89"/><stop offset="1" stop-color="#3177F3"/></linearGradient><linearGradient id="paint26_linear_634_2416" x1="-10.903" y1="21.542" x2="55.759" y2="114.999" gradientUnits="userSpaceOnUse"><stop stop-color="#35FF89"/><stop offset="1" stop-color="#3177F3"/></linearGradient><linearGradient id="paint27_linear_634_2416" x1="-10.903" y1="21.542" x2="55.759" y2="114.999" gradientUnits="userSpaceOnUse"><stop stop-color="#35FF89"/><stop offset="1" stop-color="#3177F3"/></linearGradient><linearGradient id="paint28_linear_634_2416" x1="-10.903" y1="21.542" x2="55.759" y2="114.999" gradientUnits="userSpaceOnUse"><stop stop-color="#35FF89"/><stop offset="1" stop-color="#3177F3"/></linearGradient><linearGradient id="paint29_linear_634_2416" x1="-10.903" y1="21.542" x2="55.759" y2="114.999" gradientUnits="userSpaceOnUse"><stop stop-color="#35FF89"/><stop offset="1" stop-color="#3177F3"/></linearGradient><linearGradient id="paint30_linear_634_2416" x1="-10.903" y1="21.542" x2="55.759" y2="114.999" gradientUnits="userSpaceOnUse"><stop stop-color="#35FF89"/><stop offset="1" stop-color="#3177F3"/></linearGradient><linearGradient id="paint31_linear_634_2416" x1="-10.903" y1="21.542" x2="55.759" y2="114.999" gradientUnits="userSpaceOnUse"><stop stop-color="#35FF89"/><stop offset="1" stop-color="#3177F3"/></linearGradient><linearGradient id="paint32_linear_634_2416" x1="-10.903" y1="21.542" x2="55.759" y2="114.999" gradientUnits="userSpaceOnUse"><stop stop-color="#35FF89"/><stop offset="1" stop-color="#3177F3"/></linearGradient><linearGradient id="paint33_linear_634_2416" x1="-10.903" y1="21.542" x2="55.759" y2="114.999" gradientUnits="userSpaceOnUse"><stop stop-color="#35FF89"/><stop offset="1" stop-color="#3177F3"/></linearGradient><linearGradient id="paint34_linear_634_2416" x1="-10.903" y1="21.542" x2="55.759" y2="114.999" gradientUnits="userSpaceOnUse"><stop stop-color="#35FF89"/><stop offset="1" stop-color="#3177F3"/></linearGradient><linearGradient id="paint35_linear_634_2416" x1="-10.903" y1="21.542" x2="55.759" y2="114.999" gradientUnits="userSpaceOnUse"><stop stop-color="#35FF89"/><stop offset="1" stop-color="#3177F3"/></linearGradient><linearGradient id="paint36_linear_634_2416" x1="-10.903" y1="21.542" x2="55.759" y2="114.999" gradientUnits="userSpaceOnUse"><stop stop-color="#35FF89"/><stop offset="1" stop-color="#3177F3"/></linearGradient><linearGradient id="paint37_linear_634_2416" x1="-10.903" y1="21.542" x2="55.759" y2="114.999" gradientUnits="userSpaceOnUse"><stop stop-color="#35FF89"/><stop offset="1" stop-color="#3177F3"/></linearGradient><linearGradient id="paint38_linear_634_2416" x1="-10.903" y1="21.542" x2="55.759" y2="114.999" gradientUnits="userSpaceOnUse"><stop stop-color="#35FF89"/><stop offset="1" stop-color="#3177F3"/></linearGradient><linearGradient id="paint39_linear_634_2416" x1="-10.903" y1="21.542" x2="55.759" y2="114.999" gradientUnits="userSpaceOnUse"><stop stop-color="#35FF89"/><stop offset="1" stop-color="#3177F3"/></linearGradient><linearGradient id="paint40_linear_634_2416" x1="-10.903" y1="21.542" x2="55.759" y2="114.999" gradientUnits="userSpaceOnUse"><stop stop-color="#35FF89"/><stop offset="1" stop-color="#3177F3"/></linearGradient><linearGradient id="paint41_linear_634_2416" x1="-10.903" y1="21.542" x2="55.759" y2="114.999" gradientUnits="userSpaceOnUse"><stop stop-color="#35FF89"/><stop offset="1" stop-color="#3177F3"/></linearGradient><linearGradient id="paint42_linear_634_2416" x1="-10.903" y1="21.542" x2="55.759" y2="114.999" gradientUnits="userSpaceOnUse"><stop stop-color="#35FF89"/><stop offset="1" stop-color="#3177F3"/></linearGradient><linearGradient id="paint43_linear_634_2416" x1="-10.903" y1="21.542" x2="55.759" y2="114.999" gradientUnits="userSpaceOnUse"><stop stop-color="#35FF89"/><stop offset="1" stop-color="#3177F3"/></linearGradient><linearGradient id="paint44_linear_634_2416" x1="-10.903" y1="21.542" x2="55.759" y2="114.999" gradientUnits="userSpaceOnUse"><stop stop-color="#35FF89"/><stop offset="1" stop-color="#3177F3"/></linearGradient><linearGradient id="paint45_linear_634_2416" x1="-10.903" y1="21.542" x2="55.759" y2="114.999" gradientUnits="userSpaceOnUse"><stop stop-color="#35FF89"/><stop offset="1" stop-color="#3177F3"/></linearGradient><linearGradient id="paint46_linear_634_2416" x1="-10.903" y1="21.542" x2="55.759" y2="114.999" gradientUnits="userSpaceOnUse"><stop stop-color="#35FF89"/><stop offset="1" stop-color="#3177F3"/></linearGradient><linearGradient id="paint47_linear_634_2416" x1="-10.903" y1="21.542" x2="55.759" y2="114.999" gradientUnits="userSpaceOnUse"><stop stop-color="#35FF89"/><stop offset="1" stop-color="#3177F3"/></linearGradient><linearGradient id="paint48_linear_634_2416" x1="-10.903" y1="21.542" x2="55.759" y2="114.999" gradientUnits="userSpaceOnUse"><stop stop-color="#35FF89"/><stop offset="1" stop-color="#3177F3"/></linearGradient><linearGradient id="paint49_linear_634_2416" x1="-10.903" y1="21.542" x2="55.759" y2="114.999" gradientUnits="userSpaceOnUse"><stop stop-color="#35FF89"/><stop offset="1" stop-color="#3177F3"/></linearGradient><linearGradient id="paint50_linear_634_2416" x1="-10.903" y1="21.542" x2="55.759" y2="114.999" gradientUnits="userSpaceOnUse"><stop stop-color="#35FF89"/><stop offset="1" stop-color="#3177F3"/></linearGradient><linearGradient id="paint51_linear_634_2416" x1="-10.903" y1="21.542" x2="55.759" y2="114.999" gradientUnits="userSpaceOnUse"><stop stop-color="#35FF89"/><stop offset="1" stop-color="#3177F3"/></linearGradient><linearGradient id="paint52_linear_634_2416" x1="-10.903" y1="21.542" x2="55.759" y2="114.999" gradientUnits="userSpaceOnUse"><stop stop-color="#35FF89"/><stop offset="1" stop-color="#3177F3"/></linearGradient><linearGradient id="paint53_linear_634_2416" x1="-10.903" y1="21.542" x2="55.759" y2="114.999" gradientUnits="userSpaceOnUse"><stop stop-color="#35FF89"/><stop offset="1" stop-color="#3177F3"/></linearGradient></defs></svg>