<svg width="89" height="88" fill="none" xmlns="http://www.w3.org/2000/svg"><path d="M44.09 8.813c-18.236.461-33.024 14.794-34.212 32.841H9.82v1.164a35.83 35.83 0 00-.021 1.183l.012.908c.481 19.02 16.051 34.292 35.188 34.292l.91-.011c18.718-.475 33.804-15.562 34.279-34.28l.011-.909c0-19.44-15.76-35.2-35.2-35.2l-.908.011zm9.086 22.584a7.04 7.04 0 017.04 7.04v35.078A33.056 33.056 0 0144.999 77.2a33.047 33.047 0 01-16.406-4.332V38.437a7.04 7.04 0 017.04-7.04h17.543zM78.199 44l-.01.857c-.293 11.53-6.464 21.595-15.626 27.319V44h15.636zM26.246 71.398c-8.504-5.831-14.157-15.517-14.436-26.54l-.011-.857h14.447v27.397zM45 10.801c17.547 0 31.913 13.613 33.117 30.853H62.563v-3.218a9.387 9.387 0 00-9.387-9.386H35.633a9.387 9.387 0 00-9.387 9.387v3.217H11.882c1.204-17.24 15.57-30.853 33.117-30.853z" fill="#0D1A35"/></svg>