<svg width="80" height="80" fill="none" xmlns="http://www.w3.org/2000/svg"><path d="M18.931 32.097a3.997 3.997 0 100-7.995 3.997 3.997 0 000 7.995z" fill="url(#paint0_linear_634_2403)"/><path d="M27.68 35.793a2.678 2.678 0 100-5.355 2.678 2.678 0 000 5.355z" fill="url(#paint1_linear_634_2403)"/><path d="M33.752 37.98a1.358 1.358 0 100-2.715 1.358 1.358 0 000 2.715z" fill="url(#paint2_linear_634_2403)"/><path d="M18.931 56.798a3.997 3.997 0 100-7.995 3.997 3.997 0 000 7.995z" fill="url(#paint3_linear_634_2403)"/><path d="M27.68 50.425a2.678 2.678 0 100-5.355 2.678 2.678 0 000 5.355z" fill="url(#paint4_linear_634_2403)"/><path d="M33.752 45.598a1.358 1.358 0 100-2.716 1.358 1.358 0 000 2.716z" fill="url(#paint5_linear_634_2403)"/><path d="M40.351 69.168a3.997 3.997 0 100-7.995 3.997 3.997 0 000 7.995z" fill="url(#paint6_linear_634_2403)"/><path d="M40.352 57.741a2.678 2.678 0 100-5.355 2.678 2.678 0 000 5.355z" fill="url(#paint7_linear_634_2403)"/><path d="M40.351 49.407a1.358 1.358 0 100-2.716 1.358 1.358 0 000 2.716z" fill="url(#paint8_linear_634_2403)"/><path d="M61.773 56.798a3.998 3.998 0 100-7.995 3.998 3.998 0 000 7.995z" fill="url(#paint9_linear_634_2403)"/><path d="M53.023 50.425a2.677 2.677 0 100-5.355 2.677 2.677 0 000 5.355z" fill="url(#paint10_linear_634_2403)"/><path d="M46.952 45.598a1.358 1.358 0 100-2.716 1.358 1.358 0 000 2.716z" fill="url(#paint11_linear_634_2403)"/><path d="M61.773 32.097a3.998 3.998 0 100-7.995 3.998 3.998 0 000 7.995z" fill="url(#paint12_linear_634_2403)"/><path d="M53.023 35.793a2.678 2.678 0 100-5.355 2.678 2.678 0 000 5.355z" fill="url(#paint13_linear_634_2403)"/><path d="M46.952 37.98a1.358 1.358 0 100-2.715 1.358 1.358 0 000 2.715z" fill="url(#paint14_linear_634_2403)"/><path d="M40.351 19.727a3.998 3.998 0 100-7.995 3.998 3.998 0 000 7.995z" fill="url(#paint15_linear_634_2403)"/><path d="M40.352 28.477a2.678 2.678 0 100-5.355 2.678 2.678 0 000 5.355z" fill="url(#paint16_linear_634_2403)"/><path d="M40.351 34.209a1.358 1.358 0 100-2.716 1.358 1.358 0 000 2.716z" fill="url(#paint17_linear_634_2403)"/><defs><linearGradient id="paint0_linear_634_2403" x1=".735" y1="23.934" x2="60.361" y2="98.467" gradientUnits="userSpaceOnUse"><stop stop-color="#35FF89"/><stop offset="1" stop-color="#3177F3"/></linearGradient><linearGradient id="paint1_linear_634_2403" x1=".735" y1="23.934" x2="60.361" y2="98.467" gradientUnits="userSpaceOnUse"><stop stop-color="#35FF89"/><stop offset="1" stop-color="#3177F3"/></linearGradient><linearGradient id="paint2_linear_634_2403" x1=".735" y1="23.934" x2="60.361" y2="98.467" gradientUnits="userSpaceOnUse"><stop stop-color="#35FF89"/><stop offset="1" stop-color="#3177F3"/></linearGradient><linearGradient id="paint3_linear_634_2403" x1=".735" y1="23.934" x2="60.361" y2="98.467" gradientUnits="userSpaceOnUse"><stop stop-color="#35FF89"/><stop offset="1" stop-color="#3177F3"/></linearGradient><linearGradient id="paint4_linear_634_2403" x1=".735" y1="23.934" x2="60.361" y2="98.467" gradientUnits="userSpaceOnUse"><stop stop-color="#35FF89"/><stop offset="1" stop-color="#3177F3"/></linearGradient><linearGradient id="paint5_linear_634_2403" x1=".735" y1="23.934" x2="60.361" y2="98.467" gradientUnits="userSpaceOnUse"><stop stop-color="#35FF89"/><stop offset="1" stop-color="#3177F3"/></linearGradient><linearGradient id="paint6_linear_634_2403" x1=".735" y1="23.934" x2="60.361" y2="98.467" gradientUnits="userSpaceOnUse"><stop stop-color="#35FF89"/><stop offset="1" stop-color="#3177F3"/></linearGradient><linearGradient id="paint7_linear_634_2403" x1=".735" y1="23.934" x2="60.361" y2="98.467" gradientUnits="userSpaceOnUse"><stop stop-color="#35FF89"/><stop offset="1" stop-color="#3177F3"/></linearGradient><linearGradient id="paint8_linear_634_2403" x1=".735" y1="23.934" x2="60.361" y2="98.467" gradientUnits="userSpaceOnUse"><stop stop-color="#35FF89"/><stop offset="1" stop-color="#3177F3"/></linearGradient><linearGradient id="paint9_linear_634_2403" x1=".735" y1="23.934" x2="60.361" y2="98.467" gradientUnits="userSpaceOnUse"><stop stop-color="#35FF89"/><stop offset="1" stop-color="#3177F3"/></linearGradient><linearGradient id="paint10_linear_634_2403" x1=".735" y1="23.934" x2="60.361" y2="98.467" gradientUnits="userSpaceOnUse"><stop stop-color="#35FF89"/><stop offset="1" stop-color="#3177F3"/></linearGradient><linearGradient id="paint11_linear_634_2403" x1=".735" y1="23.934" x2="60.361" y2="98.467" gradientUnits="userSpaceOnUse"><stop stop-color="#35FF89"/><stop offset="1" stop-color="#3177F3"/></linearGradient><linearGradient id="paint12_linear_634_2403" x1=".735" y1="23.934" x2="60.361" y2="98.467" gradientUnits="userSpaceOnUse"><stop stop-color="#35FF89"/><stop offset="1" stop-color="#3177F3"/></linearGradient><linearGradient id="paint13_linear_634_2403" x1=".735" y1="23.934" x2="60.361" y2="98.467" gradientUnits="userSpaceOnUse"><stop stop-color="#35FF89"/><stop offset="1" stop-color="#3177F3"/></linearGradient><linearGradient id="paint14_linear_634_2403" x1=".735" y1="23.934" x2="60.361" y2="98.467" gradientUnits="userSpaceOnUse"><stop stop-color="#35FF89"/><stop offset="1" stop-color="#3177F3"/></linearGradient><linearGradient id="paint15_linear_634_2403" x1=".735" y1="23.934" x2="60.361" y2="98.467" gradientUnits="userSpaceOnUse"><stop stop-color="#35FF89"/><stop offset="1" stop-color="#3177F3"/></linearGradient><linearGradient id="paint16_linear_634_2403" x1=".735" y1="23.934" x2="60.361" y2="98.467" gradientUnits="userSpaceOnUse"><stop stop-color="#35FF89"/><stop offset="1" stop-color="#3177F3"/></linearGradient><linearGradient id="paint17_linear_634_2403" x1=".735" y1="23.934" x2="60.361" y2="98.467" gradientUnits="userSpaceOnUse"><stop stop-color="#35FF89"/><stop offset="1" stop-color="#3177F3"/></linearGradient></defs></svg>