<svg width="523" height="170" fill="none" xmlns="http://www.w3.org/2000/svg"><rect x="1" y="1" width="521" height="167.25" rx="23" stroke="#3177F3" stroke-width="2"/><path d="M13 99.225l16.336-6.532c4.088-1.635 6.132-2.453 7.618-3.984 1.485-1.532 2.239-3.6 3.747-7.737l11.505-31.56c2.318-6.358 3.476-9.536 6.059-11.343 2.582-1.807 5.965-1.807 12.732-1.807h7.675c5.824 0 8.736 0 11.106 1.416 2.369 1.415 3.748 3.98 6.508 9.109l4.052 7.533c2.759 5.129 4.139 7.693 6.508 9.109 2.369 1.416 5.281 1.416 11.105 1.416h6.166c7.62 0 11.429 0 14.161 2.169 2.731 2.169 3.594 5.88 5.32 13.3l.462 1.988c4.894 21.046 7.341 31.568 13.948 32.651.183.03.368.055.552.075 6.657.712 11.814-8.781 22.127-27.768v0c2.703-4.975 4.054-7.463 6.342-8.863l.213-.127c2.323-1.343 5.154-1.343 10.817-1.343h9.796c3.779 0 5.669 0 7.393-.659 1.724-.659 3.132-1.919 5.948-4.44l6.793-6.081c8.838-7.913 13.258-11.87 18.077-10.987 4.82.882 7.552 6.147 13.016 16.676l8.82 17c2.726 5.253 4.089 7.88 6.482 9.334 2.393 1.455 5.352 1.455 11.271 1.455h5.856c5.374 0 8.061 0 10.31 1.235 2.249 1.236 3.69 3.504 6.571 8.041l4.926 7.754c.952 1.498 1.427 2.247 1.987 2.868a9.999 9.999 0 005.771 3.172c.825.139 1.713.139 3.487.139v0c2.118 0 3.178 0 4.134-.189a10.002 10.002 0 006.352-4.209c.546-.808.959-1.784 1.784-3.735l27.829-65.79c2.504-5.92 3.756-8.88 6.267-10.544 2.512-1.665 5.725-1.665 12.153-1.665h31.561c5.78 0 8.67 0 11.028 1.398 2.358 1.398 3.745 3.933 6.519 9.004l17.722 32.4c6.047 11.054 9.07 16.581 14.131 17.225 5.062.645 9.374-3.948 17.997-13.134l8.535-9.091c2.92-3.11 4.38-4.666 6.281-5.489 1.901-.822 4.034-.822 8.301-.822H510" stroke="#3177F3" stroke-width="2"/><path opacity=".5" d="M13 36.75h497m-497 48h497m-497 48h497" stroke="#3177F3" stroke-width="2" stroke-dasharray="1 12"/></svg>