<svg width="949" height="500" viewBox="0 0 949 500" fill="none" xmlns="http://www.w3.org/2000/svg">
<path d="M643.028 375.207C648.929 375.207 653.713 379.991 653.713 385.892V439.315C653.713 445.216 648.929 450 643.028 450C637.127 450 632.344 445.216 632.344 439.315V385.892C632.344 379.991 637.127 375.207 643.028 375.207ZM558.714 357.14C564.615 357.14 569.398 361.923 569.398 367.824V421.248C569.398 427.149 564.615 431.933 558.714 431.933C552.813 431.933 548.029 427.149 548.029 421.248V367.824C548.029 361.923 552.813 357.14 558.714 357.14ZM137.148 308.961C143.049 308.961 147.833 313.745 147.833 319.646V373.069C147.833 378.97 143.049 383.754 137.148 383.754C131.247 383.754 126.464 378.97 126.464 373.069V319.646C126.464 313.745 131.248 308.961 137.148 308.961ZM305.774 308.961C311.675 308.961 316.46 313.745 316.46 319.646V373.069C316.46 378.97 311.675 383.754 305.774 383.754C299.874 383.754 295.09 378.97 295.09 373.069V319.646C295.09 313.745 299.874 308.961 305.774 308.961ZM474.401 308.961C480.302 308.961 485.086 313.745 485.086 319.646V373.069C485.086 378.97 480.302 383.754 474.401 383.754C468.5 383.754 463.717 378.97 463.717 373.069V319.646C463.717 313.745 468.501 308.961 474.401 308.961ZM221.461 292.7C227.362 292.7 232.146 297.485 232.146 303.386V356.809C232.146 362.71 227.362 367.494 221.461 367.494C215.56 367.494 210.776 362.71 210.776 356.809V303.386C210.776 297.485 215.56 292.7 221.461 292.7ZM600.868 292.7C606.769 292.7 611.553 297.485 611.553 303.386V356.809C611.553 362.71 606.769 367.494 600.868 367.494C594.967 367.494 590.184 362.71 590.184 356.809V303.386C590.184 297.485 594.967 292.7 600.868 292.7ZM685.183 292.7C691.084 292.7 695.867 297.485 695.867 303.386V356.809C695.867 362.71 691.084 367.494 685.183 367.494C679.282 367.494 674.498 362.71 674.498 356.809V303.386C674.498 297.485 679.282 292.7 685.183 292.7ZM769.495 292.7C775.396 292.7 780.18 297.485 780.18 303.386V356.809C780.18 362.71 775.396 367.494 769.495 367.494C763.594 367.494 758.811 362.71 758.811 356.809V303.386C758.811 297.485 763.594 292.7 769.495 292.7ZM853.81 292.7C859.71 292.7 864.494 297.485 864.494 303.386V356.809C864.494 362.71 859.711 367.494 853.81 367.494C847.909 367.494 843.125 362.71 843.125 356.809V303.386C843.125 297.485 847.909 292.7 853.81 292.7ZM643.028 266.805C648.929 266.805 653.713 271.588 653.713 277.489V330.913C653.713 336.814 648.929 341.598 643.028 341.598C637.127 341.598 632.344 336.814 632.344 330.913V277.489C632.344 271.588 637.127 266.805 643.028 266.805ZM558.714 260.782C564.615 260.782 569.398 265.566 569.398 271.467V324.891C569.398 330.792 564.615 335.575 558.714 335.575C552.813 335.575 548.029 330.792 548.029 324.891V271.467C548.029 265.566 552.813 260.782 558.714 260.782ZM727.341 249.127C733.242 249.127 738.025 253.911 738.025 259.812V313.235C738.025 319.136 733.242 323.92 727.341 323.92C721.44 323.92 716.656 319.136 716.656 313.235V259.812C716.656 253.911 721.44 249.127 727.341 249.127ZM811.649 249.127C817.55 249.127 822.334 253.911 822.334 259.812V313.235C822.334 319.136 817.55 323.92 811.649 323.92C805.749 323.92 800.965 319.136 800.965 313.235V259.812C800.965 253.911 805.748 249.127 811.649 249.127ZM895.964 249.127C901.865 249.127 906.648 253.911 906.648 259.812V313.235C906.648 319.136 901.865 323.92 895.964 323.92C890.063 323.92 885.279 319.136 885.279 313.235V259.812C885.279 253.911 890.063 249.127 895.964 249.127ZM94.9941 244.521C100.895 244.522 105.679 249.306 105.679 255.207V308.63C105.679 314.531 100.895 319.314 94.9941 319.314C89.0931 319.314 84.3086 314.531 84.3086 308.63V255.207C84.3086 249.306 89.0931 244.521 94.9941 244.521ZM179.307 244.521C185.207 244.522 189.991 249.306 189.991 255.207V308.63C189.991 314.531 185.207 319.314 179.307 319.314C173.406 319.314 168.621 314.531 168.621 308.63V255.207C168.621 249.306 173.406 244.521 179.307 244.521ZM263.62 244.521C269.521 244.521 274.305 249.306 274.305 255.207V308.63C274.305 314.531 269.521 319.314 263.62 319.314C257.719 319.314 252.936 314.531 252.936 308.63V255.207C252.936 249.306 257.719 244.522 263.62 244.521ZM347.933 244.521C353.834 244.521 358.617 249.306 358.617 255.207V308.63C358.617 314.531 353.834 319.314 347.933 319.314C342.032 319.314 337.248 314.531 337.248 308.63V255.207C337.248 249.306 342.032 244.522 347.933 244.521ZM432.242 244.521C438.143 244.522 442.927 249.306 442.927 255.207V308.63C442.927 314.531 438.143 319.314 432.242 319.314C426.341 319.314 421.557 314.531 421.557 308.63V255.207C421.557 249.306 426.341 244.521 432.242 244.521ZM516.556 244.521C522.457 244.521 527.241 249.306 527.241 255.207V308.63C527.241 314.531 522.457 319.314 516.556 319.314C510.655 319.314 505.871 314.531 505.871 308.63V255.207C505.871 249.306 510.655 244.522 516.556 244.521ZM10.6846 238.24C16.5856 238.24 21.3691 243.024 21.3691 248.925V302.349C21.369 308.25 16.5855 313.033 10.6846 313.033C4.78371 313.033 0.000127818 308.249 0 302.349V248.925C-3.28679e-07 243.024 4.78363 238.24 10.6846 238.24ZM137.148 212.604C143.049 212.604 147.833 217.387 147.833 223.288V276.712C147.833 282.613 143.049 287.396 137.148 287.396C131.247 287.396 126.464 282.613 126.464 276.712V223.288C126.464 217.387 131.247 212.604 137.148 212.604ZM305.774 212.604C311.675 212.604 316.46 217.387 316.46 223.288V276.712C316.46 282.613 311.675 287.396 305.774 287.396C299.874 287.396 295.09 282.613 295.09 276.712V223.288C295.09 217.387 299.874 212.604 305.774 212.604ZM390.087 212.604C395.988 212.604 400.772 217.387 400.772 223.288V276.712C400.772 282.613 395.988 287.396 390.087 287.396C384.186 287.396 379.402 282.613 379.402 276.712V223.288C379.402 217.387 384.186 212.604 390.087 212.604ZM474.401 212.604C480.302 212.604 485.086 217.387 485.086 223.288V276.712C485.086 282.613 480.302 287.396 474.401 287.396C468.5 287.396 463.717 282.613 463.717 276.712V223.288C463.717 217.387 468.5 212.604 474.401 212.604ZM52.834 196.343C58.7348 196.343 63.5183 201.127 63.5186 207.027V260.451C63.5186 266.352 58.735 271.136 52.834 271.136C46.933 271.136 42.1494 266.352 42.1494 260.451V207.027C42.1497 201.127 46.9331 196.343 52.834 196.343ZM221.461 196.343C227.362 196.343 232.145 201.127 232.146 207.027V260.451C232.146 266.352 227.362 271.136 221.461 271.136C215.56 271.136 210.776 266.352 210.776 260.451V207.027C210.777 201.127 215.56 196.343 221.461 196.343ZM600.868 196.343C606.769 196.343 611.552 201.127 611.553 207.027V260.451C611.553 266.352 606.769 271.136 600.868 271.136C594.967 271.136 590.184 266.352 590.184 260.451V207.027C590.184 201.127 594.967 196.343 600.868 196.343ZM685.183 196.343C691.083 196.343 695.867 201.127 695.867 207.027V260.451C695.867 266.352 691.084 271.136 685.183 271.136C679.282 271.136 674.498 266.352 674.498 260.451V207.027C674.498 201.127 679.282 196.343 685.183 196.343ZM769.495 196.343C775.396 196.343 780.179 201.127 780.18 207.027V260.451C780.18 266.352 775.396 271.136 769.495 271.136C763.594 271.136 758.811 266.352 758.811 260.451V207.027C758.811 201.127 763.594 196.343 769.495 196.343ZM853.81 196.343C859.71 196.343 864.494 201.127 864.494 207.027V260.451C864.494 266.352 859.711 271.136 853.81 271.136C847.909 271.136 843.125 266.352 843.125 260.451V207.027C843.125 201.127 847.909 196.343 853.81 196.343ZM938.118 196.343C944.019 196.343 948.802 201.127 948.803 207.027V260.451C948.803 266.352 944.019 271.136 938.118 271.136C932.217 271.136 927.434 266.352 927.434 260.451V207.027C927.434 201.127 932.217 196.343 938.118 196.343ZM558.714 164.425C564.615 164.425 569.398 169.208 569.398 175.109V228.533C569.398 234.434 564.615 239.218 558.714 239.218C552.813 239.218 548.029 234.434 548.029 228.533V175.109C548.029 169.208 552.813 164.425 558.714 164.425ZM643.028 158.402C648.929 158.402 653.713 163.186 653.713 169.087V222.511C653.713 228.412 648.929 233.195 643.028 233.195C637.127 233.195 632.344 228.412 632.344 222.511V169.087C632.344 163.186 637.127 158.402 643.028 158.402ZM727.341 152.769C733.242 152.769 738.025 157.553 738.025 163.454V216.877C738.025 222.778 733.242 227.562 727.341 227.562C721.44 227.562 716.656 222.778 716.656 216.877V163.454C716.656 157.553 721.44 152.769 727.341 152.769ZM811.649 152.769C817.55 152.769 822.334 157.553 822.334 163.454V216.877C822.334 222.778 817.55 227.562 811.649 227.562C805.748 227.562 800.965 222.778 800.965 216.877V163.454C800.965 157.553 805.748 152.769 811.649 152.769ZM895.964 152.769C901.865 152.769 906.648 157.553 906.648 163.454V216.877C906.648 222.778 901.865 227.562 895.964 227.562C890.063 227.562 885.279 222.778 885.279 216.877V163.454C885.279 157.553 890.063 152.769 895.964 152.769ZM94.9941 148.164C100.895 148.164 105.678 152.948 105.679 158.849V212.272C105.679 218.173 100.895 222.957 94.9941 222.957C89.0931 222.957 84.3086 218.173 84.3086 212.272V158.849C84.3088 152.948 89.0933 148.164 94.9941 148.164ZM179.307 148.164C185.207 148.164 189.991 152.948 189.991 158.849V212.272C189.991 218.173 185.207 222.957 179.307 222.957C173.406 222.957 168.621 218.173 168.621 212.272V158.849C168.621 152.948 173.406 148.164 179.307 148.164ZM263.62 148.164C269.521 148.164 274.304 152.948 274.305 158.849V212.272C274.305 218.173 269.521 222.957 263.62 222.957C257.719 222.957 252.936 218.173 252.936 212.272V158.849C252.936 152.948 257.719 148.164 263.62 148.164ZM347.933 148.164C353.833 148.164 358.617 152.948 358.617 158.849V212.272C358.617 218.173 353.834 222.957 347.933 222.957C342.032 222.957 337.248 218.173 337.248 212.272V158.849C337.248 152.948 342.032 148.164 347.933 148.164ZM432.242 148.164C438.143 148.164 442.927 152.948 442.927 158.849V212.272C442.927 218.173 438.143 222.957 432.242 222.957C426.341 222.957 421.557 218.173 421.557 212.272V158.849C421.557 152.948 426.341 148.164 432.242 148.164ZM516.556 148.164C522.457 148.164 527.241 152.948 527.241 158.849V212.272C527.241 218.173 522.457 222.957 516.556 222.957C510.655 222.957 505.871 218.173 505.871 212.272V158.849C505.871 152.948 510.655 148.164 516.556 148.164ZM10.6846 141.883C16.5856 141.883 21.3691 146.666 21.3691 152.567V205.991C21.3689 211.892 16.5855 216.676 10.6846 216.676C4.78375 216.676 0.000197911 211.892 0 205.991V152.567C-3.28679e-07 146.666 4.78363 141.883 10.6846 141.883ZM137.148 116.246C143.049 116.246 147.833 121.03 147.833 126.931V180.354C147.833 186.255 143.049 191.039 137.148 191.039C131.248 191.039 126.464 186.255 126.464 180.354V126.931C126.464 121.03 131.247 116.246 137.148 116.246ZM305.774 116.246C311.675 116.246 316.46 121.03 316.46 126.931V180.354C316.46 186.255 311.675 191.039 305.774 191.039C299.874 191.039 295.09 186.255 295.09 180.354V126.931C295.09 121.03 299.874 116.246 305.774 116.246ZM474.401 116.246C480.302 116.246 485.086 121.03 485.086 126.931V180.354C485.086 186.255 480.302 191.039 474.401 191.039C468.501 191.039 463.717 186.255 463.717 180.354V126.931C463.717 121.03 468.5 116.246 474.401 116.246ZM221.461 99.9854C227.362 99.9855 232.145 104.769 232.146 110.67V164.094C232.146 169.995 227.362 174.778 221.461 174.778C215.56 174.778 210.776 169.995 210.776 164.094V110.67C210.777 104.769 215.56 99.9854 221.461 99.9854ZM600.868 99.9854C606.769 99.9854 611.553 104.769 611.553 110.67V164.094C611.553 169.995 606.769 174.778 600.868 174.778C594.967 174.778 590.184 169.995 590.184 164.094V110.67C590.184 104.769 594.967 99.9855 600.868 99.9854ZM685.183 99.9854C691.084 99.9854 695.867 104.769 695.867 110.67V164.094C695.867 169.995 691.084 174.778 685.183 174.778C679.282 174.778 674.498 169.995 674.498 164.094V110.67C674.498 104.769 679.282 99.9854 685.183 99.9854ZM769.495 99.9854C775.396 99.9854 780.18 104.769 780.18 110.67V164.094C780.18 169.995 775.396 174.778 769.495 174.778C763.594 174.778 758.811 169.995 758.811 164.094V110.67C758.811 104.769 763.594 99.9854 769.495 99.9854ZM853.81 99.9854C859.71 99.9855 864.494 104.769 864.494 110.67V164.094C864.494 169.995 859.711 174.778 853.81 174.778C847.909 174.778 843.125 169.995 843.125 164.094V110.67C843.125 104.769 847.909 99.9854 853.81 99.9854ZM558.714 68.0674C564.615 68.0674 569.398 72.8509 569.398 78.752V132.176C569.398 138.077 564.615 142.86 558.714 142.86C552.813 142.86 548.029 138.077 548.029 132.176V78.752C548.029 72.851 552.813 68.0674 558.714 68.0674ZM643.028 50C648.929 50.0001 653.713 54.7837 653.713 60.6846V114.108C653.713 120.009 648.929 124.793 643.028 124.793C637.127 124.793 632.344 120.009 632.344 114.108V60.6846C632.344 54.7836 637.127 50 643.028 50Z" fill="url(#paint0_linear_653_9086)"/>
<defs>
<linearGradient id="paint0_linear_653_9086" x1="-7.13843e-06" y1="420.726" x2="802.31" y2="809.772" gradientUnits="userSpaceOnUse">
<stop stop-color="#35FF89"/>
<stop offset="0.148805" stop-color="#2ED0A7" stop-opacity="0.670881"/>
<stop offset="1" stop-color="#206FE5" stop-opacity="0"/>
</linearGradient>
</defs>
</svg>
