<svg width="80" height="80" viewBox="0 0 80 80" fill="none" xmlns="http://www.w3.org/2000/svg">
<path d="M63.6245 61.8522C61.9651 60.5323 61.8897 57.8547 61.8897 57.8547C61.8897 57.8547 64.5295 57.3644 66.1889 58.6844C67.8482 60.0043 65.3215 63.2098 63.6622 61.8522H63.6245Z" fill="url(#paint0_linear_634_2400)"/>
<path d="M56.4967 62.1539C55.1391 61.0225 55.1014 58.8729 55.1014 58.8729C55.1014 58.8729 57.2509 58.5335 58.6086 59.6649C59.9662 60.7962 57.8543 63.3229 56.4967 62.1916V62.1539Z" fill="url(#paint1_linear_634_2400)"/>
<path d="M44.6933 58.609C44.3916 57.4776 45.1836 56.2708 45.1836 56.2708C45.1836 56.2708 46.4658 56.9119 46.7675 58.0433C47.0692 59.1746 44.9573 59.7403 44.6556 58.609H44.6933Z" fill="url(#paint2_linear_634_2400)"/>
<path d="M50.5009 61.3619C49.7466 60.2683 50.086 58.7221 50.086 58.7221C50.086 58.7221 51.6699 58.9483 52.4242 60.042C53.1784 61.1356 51.2551 62.4556 50.5009 61.3619Z" fill="url(#paint3_linear_634_2400)"/>
<path d="M50.0481 70.4505C49.2561 68.4518 50.5383 66.1137 50.5383 66.1137C50.5383 66.1137 53.065 66.981 53.857 68.9798C54.649 70.9785 50.84 72.4493 50.0481 70.4505Z" fill="url(#paint4_linear_634_2400)"/>
<path d="M43.7125 67.1318C43.1091 65.4725 44.1651 63.5869 44.1651 63.5869C44.1651 63.5869 46.2015 64.3788 46.8049 66.0005C47.4083 67.6221 44.3159 68.7912 43.7125 67.1318Z" fill="url(#paint5_linear_634_2400)"/>
<path d="M35.2648 58.1941C35.5665 57.0627 36.8487 56.4216 36.8487 56.4216C36.8487 56.4216 37.6407 57.6284 37.339 58.7598C37.0373 59.8911 34.9254 59.3255 35.2271 58.1941H35.2648Z" fill="url(#paint6_linear_634_2400)"/>
<path d="M38.9227 63.4738C38.8096 62.1539 39.9032 60.9848 39.9032 60.9848C39.9032 60.9848 41.1477 61.9653 41.2608 63.2852C41.374 64.6052 39.0358 64.7937 38.9227 63.4738Z" fill="url(#paint7_linear_634_2400)"/>
<path d="M33.9828 71.0916C34.3222 68.9797 36.5849 67.5844 36.5849 67.5844C36.5849 67.5844 38.3196 69.6208 38.0179 71.7327C37.7162 73.8446 33.6811 73.2412 33.9828 71.1293V71.0916Z" fill="url(#paint8_linear_634_2400)"/>
<path d="M30.1738 65.0577C30.4755 63.3229 32.3234 62.1916 32.3234 62.1916C32.3234 62.1916 33.681 63.8886 33.3793 65.6234C33.0776 67.3581 29.8344 66.7924 30.1361 65.0577H30.1738Z" fill="url(#paint9_linear_634_2400)"/>
<path d="M27.3081 53.103C28.1377 52.2733 29.5708 52.3864 29.5708 52.3864C29.5708 52.3864 29.6839 53.8195 28.8543 54.6492C28.0246 55.4788 26.4784 53.9326 27.3081 53.103Z" fill="url(#paint10_linear_634_2400)"/>
<path d="M27.8357 59.4763C28.4014 58.2695 29.9099 57.817 29.9099 57.817C29.9099 57.817 30.5133 59.2877 29.9099 60.4945C29.3065 61.7013 27.2323 60.6831 27.798 59.514L27.8357 59.4763Z" fill="url(#paint11_linear_634_2400)"/>
<path d="M19.7656 63.6246C21.0855 61.9653 23.7631 61.8899 23.7631 61.8899C23.7631 61.8899 24.2533 64.5297 22.9334 66.189C21.6135 67.8484 18.4079 65.3217 19.7656 63.6623V63.6246Z" fill="url(#paint12_linear_634_2400)"/>
<path d="M19.4265 56.497C20.5579 55.1394 22.7075 55.1017 22.7075 55.1017C22.7075 55.1017 23.0469 57.2513 21.9155 58.6089C20.7841 59.9666 18.2574 57.8547 19.3888 56.497H19.4265Z" fill="url(#paint13_linear_634_2400)"/>
<path d="M22.9715 44.7309C24.1029 44.4292 25.3097 45.2212 25.3097 45.2212C25.3097 45.2212 24.6686 46.5034 23.5372 46.8051C22.4058 47.1068 21.8402 44.9949 22.9715 44.6932V44.7309Z" fill="url(#paint14_linear_634_2400)"/>
<path d="M20.2183 50.5009C21.3119 49.7466 22.8581 50.086 22.8581 50.086C22.8581 50.086 22.6318 51.6699 21.5382 52.4242C20.4445 53.1784 19.1246 51.2551 20.2183 50.5009Z" fill="url(#paint15_linear_634_2400)"/>
<path d="M11.1675 50.0484C13.1662 49.2564 15.5043 50.5386 15.5043 50.5386C15.5043 50.5386 14.637 53.0653 12.6382 53.8573C10.6395 54.6492 9.16871 50.8403 11.1675 50.0484Z" fill="url(#paint16_linear_634_2400)"/>
<path d="M14.4481 43.7127C16.1075 43.1093 17.9931 44.1653 17.9931 44.1653C17.9931 44.1653 17.2011 46.2017 15.5795 46.8051C13.9579 47.4085 12.7888 44.3161 14.4481 43.7127Z" fill="url(#paint17_linear_634_2400)"/>
<path d="M23.3861 35.2652C24.5175 35.5669 25.1586 36.8491 25.1586 36.8491C25.1586 36.8491 23.9518 37.6411 22.8205 37.3394C21.6891 37.0377 22.2548 34.9258 23.3861 35.2275V35.2652Z" fill="url(#paint18_linear_634_2400)"/>
<path d="M18.1437 38.9233C19.4636 38.8102 20.6327 39.9038 20.6327 39.9038C20.6327 39.9038 19.6522 41.1483 18.3323 41.2614C17.0124 41.3746 16.8238 39.0364 18.1437 38.9233Z" fill="url(#paint19_linear_634_2400)"/>
<path d="M10.4884 33.983C12.6003 34.3224 13.9956 36.5851 13.9956 36.5851C13.9956 36.5851 11.9592 38.3199 9.84731 38.0182C7.73544 37.7165 8.33883 33.6813 10.4507 33.983H10.4884Z" fill="url(#paint20_linear_634_2400)"/>
<path d="M16.5224 30.1741C18.2571 30.4758 19.3885 32.3237 19.3885 32.3237C19.3885 32.3237 17.6914 33.6813 15.9567 33.3796C14.2219 33.0779 14.7876 29.8347 16.5224 30.1364V30.1741Z" fill="url(#paint21_linear_634_2400)"/>
<path d="M28.4768 27.308C29.3065 28.1376 29.1933 29.5707 29.1933 29.5707C29.1933 29.5707 27.7603 29.6838 26.9306 28.8542C26.1009 28.0245 27.6471 26.4783 28.4768 27.308Z" fill="url(#paint22_linear_634_2400)"/>
<path d="M22.104 27.8359C23.3108 28.4016 23.7634 29.9101 23.7634 29.9101C23.7634 29.9101 22.2926 30.5135 21.0858 29.9101C19.879 29.3067 20.8973 27.2326 22.0663 27.7982L22.104 27.8359Z" fill="url(#paint23_linear_634_2400)"/>
<path d="M17.9556 19.7656C19.615 21.0855 19.6904 23.763 19.6904 23.763C19.6904 23.763 17.0505 24.2533 15.3912 22.9334C13.7319 21.6134 16.2586 18.4079 17.9179 19.7656H17.9556Z" fill="url(#paint24_linear_634_2400)"/>
<path d="M25.0828 19.4639C26.4404 20.5952 26.4781 22.7448 26.4781 22.7448C26.4781 22.7448 24.3285 23.0842 22.9709 21.9529C21.6133 20.8215 23.7252 18.2948 25.0828 19.4262V19.4639Z" fill="url(#paint25_linear_634_2400)"/>
<path d="M36.8868 22.9711C37.1885 24.1025 36.3966 25.3092 36.3966 25.3092C36.3966 25.3092 35.1144 24.6681 34.8127 23.5368C34.511 22.4054 36.6228 21.8397 36.9245 22.9711H36.8868Z" fill="url(#paint26_linear_634_2400)"/>
<path d="M31.0792 20.2181C31.8335 21.3118 31.4941 22.858 31.4941 22.858C31.4941 22.858 29.9101 22.6317 29.1559 21.538C28.4017 20.4444 30.325 19.1245 31.0792 20.2181Z" fill="url(#paint27_linear_634_2400)"/>
<path d="M31.5314 11.1672C32.3233 13.166 31.0411 15.5041 31.0411 15.5041C31.0411 15.5041 28.5144 14.6368 27.7225 12.638C26.9305 10.6393 30.7394 9.16851 31.5314 11.1672Z" fill="url(#paint28_linear_634_2400)"/>
<path d="M37.8669 14.4482C38.4703 16.1075 37.4144 17.9931 37.4144 17.9931C37.4144 17.9931 35.3779 17.2012 34.7745 15.5796C34.1712 13.958 37.2635 12.7889 37.8669 14.4482Z" fill="url(#paint29_linear_634_2400)"/>
<path d="M46.3146 23.4236C46.0129 24.555 44.7307 25.1961 44.7307 25.1961C44.7307 25.1961 43.9387 23.9893 44.2404 22.858C44.5421 21.7266 46.654 22.2923 46.3523 23.4236H46.3146Z" fill="url(#paint30_linear_634_2400)"/>
<path d="M42.6562 18.144C42.7694 19.4639 41.6757 20.633 41.6757 20.633C41.6757 20.633 40.4312 19.6525 40.3181 18.3325C40.2049 17.0126 42.5431 16.8241 42.6562 18.144Z" fill="url(#paint31_linear_634_2400)"/>
<path d="M47.5968 10.4884C47.2574 12.6003 44.9947 13.9956 44.9947 13.9956C44.9947 13.9956 43.2599 11.9592 43.5616 9.84731C43.8633 7.73544 47.8985 8.33883 47.5968 10.4507V10.4884Z" fill="url(#paint32_linear_634_2400)"/>
<path d="M51.4436 16.5223C51.1419 18.2571 49.294 19.3884 49.294 19.3884C49.294 19.3884 47.9363 17.6914 48.238 15.9566C48.5397 14.2219 51.783 14.7876 51.4813 16.5223H51.4436Z" fill="url(#paint33_linear_634_2400)"/>
<path d="M54.2721 28.5148C53.4424 29.3444 52.0094 29.2313 52.0094 29.2313C52.0094 29.2313 51.8962 27.7982 52.7259 26.9686C53.5555 26.1389 55.1017 27.6851 54.2721 28.5148Z" fill="url(#paint34_linear_634_2400)"/>
<path d="M53.7434 22.1037C53.1778 23.3105 51.6693 23.763 51.6693 23.763C51.6693 23.763 51.0659 22.2923 51.6693 21.0855C52.2727 19.8787 54.3468 20.8969 53.7811 22.066L53.7434 22.1037Z" fill="url(#paint35_linear_634_2400)"/>
<path d="M61.8148 17.9554C60.4949 19.6147 57.8173 19.6902 57.8173 19.6902C57.8173 19.6902 57.3271 17.0503 58.647 15.391C59.9669 13.7317 63.1725 16.2584 61.8148 17.9177V17.9554Z" fill="url(#paint36_linear_634_2400)"/>
<path d="M62.1535 25.083C61.0222 26.4406 58.8726 26.4783 58.8726 26.4783C58.8726 26.4783 58.5332 24.3287 59.6645 22.9711C60.7959 21.6135 63.3226 23.7253 62.1912 25.083H62.1535Z" fill="url(#paint37_linear_634_2400)"/>
<path d="M58.609 36.8868C57.4776 37.1885 56.2708 36.3966 56.2708 36.3966C56.2708 36.3966 56.9119 35.1144 58.0433 34.8127C59.1746 34.511 59.7403 36.6229 58.609 36.9245V36.8868Z" fill="url(#paint38_linear_634_2400)"/>
<path d="M61.3616 31.1169C60.2679 31.8712 58.7217 31.5317 58.7217 31.5317C58.7217 31.5317 58.948 29.9478 60.0416 29.1936C61.1353 28.4394 62.4552 30.3627 61.3616 31.1169Z" fill="url(#paint39_linear_634_2400)"/>
<path d="M70.4509 31.5317C68.4521 32.3237 66.114 31.0415 66.114 31.0415C66.114 31.0415 66.9814 28.5148 68.9801 27.7228C70.9788 26.9309 72.4496 30.7398 70.4509 31.5317Z" fill="url(#paint40_linear_634_2400)"/>
<path d="M67.1316 37.8674C65.4723 38.4708 63.5867 37.4148 63.5867 37.4148C63.5867 37.4148 64.3786 35.3784 66.0002 34.775C67.6218 34.1716 68.7909 37.264 67.1316 37.8674Z" fill="url(#paint41_linear_634_2400)"/>
<path d="M58.1942 46.3148C57.0629 46.0131 56.4217 44.7309 56.4217 44.7309C56.4217 44.7309 57.6285 43.939 58.7599 44.2407C59.8913 44.5424 59.3256 46.6543 58.1942 46.3526V46.3148Z" fill="url(#paint42_linear_634_2400)"/>
<path d="M63.436 42.6945C62.1161 42.8076 60.947 41.714 60.947 41.714C60.947 41.714 61.9275 40.4695 63.2474 40.3563C64.5674 40.2432 64.7559 42.5814 63.436 42.6945Z" fill="url(#paint43_linear_634_2400)"/>
<path d="M71.0926 47.597C68.9807 47.2576 67.5853 44.9949 67.5853 44.9949C67.5853 44.9949 69.6218 43.2602 71.7337 43.5619C73.8455 43.8636 73.2421 47.8987 71.1303 47.597H71.0926Z" fill="url(#paint44_linear_634_2400)"/>
<path d="M65.058 51.4437C63.3232 51.142 62.1919 49.2941 62.1919 49.2941C62.1919 49.2941 63.8889 47.9365 65.6236 48.2382C67.3584 48.5399 66.7927 51.7831 65.058 51.4814V51.4437Z" fill="url(#paint45_linear_634_2400)"/>
<path d="M53.1035 54.2721C52.2738 53.4424 52.387 52.0094 52.387 52.0094C52.387 52.0094 53.82 51.8962 54.6497 52.7259C55.4793 53.5556 53.9331 55.1017 53.1035 54.2721Z" fill="url(#paint46_linear_634_2400)"/>
<path d="M59.4769 53.7818C58.2701 53.2161 57.8176 51.7077 57.8176 51.7077C57.8176 51.7077 59.2884 51.1043 60.4951 51.7077C61.7019 52.3111 60.6837 54.3852 59.5146 53.8195L59.4769 53.7818Z" fill="url(#paint47_linear_634_2400)"/>
<defs>
<linearGradient id="paint0_linear_634_2400" x1="-9.48525" y1="22.2381" x2="55.2663" y2="113.687" gradientUnits="userSpaceOnUse">
<stop stop-color="#35FF89"/>
<stop offset="1" stop-color="#3177F3"/>
</linearGradient>
<linearGradient id="paint1_linear_634_2400" x1="-9.48525" y1="22.2381" x2="55.2663" y2="113.687" gradientUnits="userSpaceOnUse">
<stop stop-color="#35FF89"/>
<stop offset="1" stop-color="#3177F3"/>
</linearGradient>
<linearGradient id="paint2_linear_634_2400" x1="-9.48525" y1="22.2381" x2="55.2663" y2="113.687" gradientUnits="userSpaceOnUse">
<stop stop-color="#35FF89"/>
<stop offset="1" stop-color="#3177F3"/>
</linearGradient>
<linearGradient id="paint3_linear_634_2400" x1="-9.48525" y1="22.2381" x2="55.2663" y2="113.687" gradientUnits="userSpaceOnUse">
<stop stop-color="#35FF89"/>
<stop offset="1" stop-color="#3177F3"/>
</linearGradient>
<linearGradient id="paint4_linear_634_2400" x1="-9.48525" y1="22.2381" x2="55.2663" y2="113.687" gradientUnits="userSpaceOnUse">
<stop stop-color="#35FF89"/>
<stop offset="1" stop-color="#3177F3"/>
</linearGradient>
<linearGradient id="paint5_linear_634_2400" x1="-9.48525" y1="22.2381" x2="55.2663" y2="113.687" gradientUnits="userSpaceOnUse">
<stop stop-color="#35FF89"/>
<stop offset="1" stop-color="#3177F3"/>
</linearGradient>
<linearGradient id="paint6_linear_634_2400" x1="-9.48525" y1="22.2381" x2="55.2663" y2="113.687" gradientUnits="userSpaceOnUse">
<stop stop-color="#35FF89"/>
<stop offset="1" stop-color="#3177F3"/>
</linearGradient>
<linearGradient id="paint7_linear_634_2400" x1="-9.48525" y1="22.2381" x2="55.2663" y2="113.687" gradientUnits="userSpaceOnUse">
<stop stop-color="#35FF89"/>
<stop offset="1" stop-color="#3177F3"/>
</linearGradient>
<linearGradient id="paint8_linear_634_2400" x1="-9.48525" y1="22.2381" x2="55.2663" y2="113.687" gradientUnits="userSpaceOnUse">
<stop stop-color="#35FF89"/>
<stop offset="1" stop-color="#3177F3"/>
</linearGradient>
<linearGradient id="paint9_linear_634_2400" x1="-9.48525" y1="22.2381" x2="55.2663" y2="113.687" gradientUnits="userSpaceOnUse">
<stop stop-color="#35FF89"/>
<stop offset="1" stop-color="#3177F3"/>
</linearGradient>
<linearGradient id="paint10_linear_634_2400" x1="-9.48525" y1="22.2381" x2="55.2663" y2="113.687" gradientUnits="userSpaceOnUse">
<stop stop-color="#35FF89"/>
<stop offset="1" stop-color="#3177F3"/>
</linearGradient>
<linearGradient id="paint11_linear_634_2400" x1="-9.48525" y1="22.2381" x2="55.2663" y2="113.687" gradientUnits="userSpaceOnUse">
<stop stop-color="#35FF89"/>
<stop offset="1" stop-color="#3177F3"/>
</linearGradient>
<linearGradient id="paint12_linear_634_2400" x1="-9.48525" y1="22.2381" x2="55.2663" y2="113.687" gradientUnits="userSpaceOnUse">
<stop stop-color="#35FF89"/>
<stop offset="1" stop-color="#3177F3"/>
</linearGradient>
<linearGradient id="paint13_linear_634_2400" x1="-9.48525" y1="22.2381" x2="55.2663" y2="113.687" gradientUnits="userSpaceOnUse">
<stop stop-color="#35FF89"/>
<stop offset="1" stop-color="#3177F3"/>
</linearGradient>
<linearGradient id="paint14_linear_634_2400" x1="-9.48525" y1="22.2381" x2="55.2663" y2="113.687" gradientUnits="userSpaceOnUse">
<stop stop-color="#35FF89"/>
<stop offset="1" stop-color="#3177F3"/>
</linearGradient>
<linearGradient id="paint15_linear_634_2400" x1="-9.48525" y1="22.2381" x2="55.2663" y2="113.687" gradientUnits="userSpaceOnUse">
<stop stop-color="#35FF89"/>
<stop offset="1" stop-color="#3177F3"/>
</linearGradient>
<linearGradient id="paint16_linear_634_2400" x1="-9.48525" y1="22.2381" x2="55.2663" y2="113.687" gradientUnits="userSpaceOnUse">
<stop stop-color="#35FF89"/>
<stop offset="1" stop-color="#3177F3"/>
</linearGradient>
<linearGradient id="paint17_linear_634_2400" x1="-9.48525" y1="22.2381" x2="55.2663" y2="113.687" gradientUnits="userSpaceOnUse">
<stop stop-color="#35FF89"/>
<stop offset="1" stop-color="#3177F3"/>
</linearGradient>
<linearGradient id="paint18_linear_634_2400" x1="-9.48525" y1="22.2381" x2="55.2663" y2="113.687" gradientUnits="userSpaceOnUse">
<stop stop-color="#35FF89"/>
<stop offset="1" stop-color="#3177F3"/>
</linearGradient>
<linearGradient id="paint19_linear_634_2400" x1="-9.48525" y1="22.2381" x2="55.2663" y2="113.687" gradientUnits="userSpaceOnUse">
<stop stop-color="#35FF89"/>
<stop offset="1" stop-color="#3177F3"/>
</linearGradient>
<linearGradient id="paint20_linear_634_2400" x1="-9.48525" y1="22.2381" x2="55.2663" y2="113.687" gradientUnits="userSpaceOnUse">
<stop stop-color="#35FF89"/>
<stop offset="1" stop-color="#3177F3"/>
</linearGradient>
<linearGradient id="paint21_linear_634_2400" x1="-9.48525" y1="22.2381" x2="55.2663" y2="113.687" gradientUnits="userSpaceOnUse">
<stop stop-color="#35FF89"/>
<stop offset="1" stop-color="#3177F3"/>
</linearGradient>
<linearGradient id="paint22_linear_634_2400" x1="-9.48525" y1="22.2381" x2="55.2663" y2="113.687" gradientUnits="userSpaceOnUse">
<stop stop-color="#35FF89"/>
<stop offset="1" stop-color="#3177F3"/>
</linearGradient>
<linearGradient id="paint23_linear_634_2400" x1="-9.48525" y1="22.2381" x2="55.2663" y2="113.687" gradientUnits="userSpaceOnUse">
<stop stop-color="#35FF89"/>
<stop offset="1" stop-color="#3177F3"/>
</linearGradient>
<linearGradient id="paint24_linear_634_2400" x1="-9.48525" y1="22.2381" x2="55.2663" y2="113.687" gradientUnits="userSpaceOnUse">
<stop stop-color="#35FF89"/>
<stop offset="1" stop-color="#3177F3"/>
</linearGradient>
<linearGradient id="paint25_linear_634_2400" x1="-9.48525" y1="22.2381" x2="55.2663" y2="113.687" gradientUnits="userSpaceOnUse">
<stop stop-color="#35FF89"/>
<stop offset="1" stop-color="#3177F3"/>
</linearGradient>
<linearGradient id="paint26_linear_634_2400" x1="-9.48525" y1="22.2381" x2="55.2663" y2="113.687" gradientUnits="userSpaceOnUse">
<stop stop-color="#35FF89"/>
<stop offset="1" stop-color="#3177F3"/>
</linearGradient>
<linearGradient id="paint27_linear_634_2400" x1="-9.48525" y1="22.2381" x2="55.2663" y2="113.687" gradientUnits="userSpaceOnUse">
<stop stop-color="#35FF89"/>
<stop offset="1" stop-color="#3177F3"/>
</linearGradient>
<linearGradient id="paint28_linear_634_2400" x1="-9.48525" y1="22.2381" x2="55.2663" y2="113.687" gradientUnits="userSpaceOnUse">
<stop stop-color="#35FF89"/>
<stop offset="1" stop-color="#3177F3"/>
</linearGradient>
<linearGradient id="paint29_linear_634_2400" x1="-9.48525" y1="22.2381" x2="55.2663" y2="113.687" gradientUnits="userSpaceOnUse">
<stop stop-color="#35FF89"/>
<stop offset="1" stop-color="#3177F3"/>
</linearGradient>
<linearGradient id="paint30_linear_634_2400" x1="-9.48525" y1="22.2381" x2="55.2663" y2="113.687" gradientUnits="userSpaceOnUse">
<stop stop-color="#35FF89"/>
<stop offset="1" stop-color="#3177F3"/>
</linearGradient>
<linearGradient id="paint31_linear_634_2400" x1="-9.48525" y1="22.2381" x2="55.2663" y2="113.687" gradientUnits="userSpaceOnUse">
<stop stop-color="#35FF89"/>
<stop offset="1" stop-color="#3177F3"/>
</linearGradient>
<linearGradient id="paint32_linear_634_2400" x1="-9.48525" y1="22.2381" x2="55.2663" y2="113.687" gradientUnits="userSpaceOnUse">
<stop stop-color="#35FF89"/>
<stop offset="1" stop-color="#3177F3"/>
</linearGradient>
<linearGradient id="paint33_linear_634_2400" x1="-9.48525" y1="22.2381" x2="55.2663" y2="113.687" gradientUnits="userSpaceOnUse">
<stop stop-color="#35FF89"/>
<stop offset="1" stop-color="#3177F3"/>
</linearGradient>
<linearGradient id="paint34_linear_634_2400" x1="-9.48525" y1="22.2381" x2="55.2663" y2="113.687" gradientUnits="userSpaceOnUse">
<stop stop-color="#35FF89"/>
<stop offset="1" stop-color="#3177F3"/>
</linearGradient>
<linearGradient id="paint35_linear_634_2400" x1="-9.48525" y1="22.2381" x2="55.2663" y2="113.687" gradientUnits="userSpaceOnUse">
<stop stop-color="#35FF89"/>
<stop offset="1" stop-color="#3177F3"/>
</linearGradient>
<linearGradient id="paint36_linear_634_2400" x1="-9.48525" y1="22.2381" x2="55.2663" y2="113.687" gradientUnits="userSpaceOnUse">
<stop stop-color="#35FF89"/>
<stop offset="1" stop-color="#3177F3"/>
</linearGradient>
<linearGradient id="paint37_linear_634_2400" x1="-9.48525" y1="22.2381" x2="55.2663" y2="113.687" gradientUnits="userSpaceOnUse">
<stop stop-color="#35FF89"/>
<stop offset="1" stop-color="#3177F3"/>
</linearGradient>
<linearGradient id="paint38_linear_634_2400" x1="-9.48525" y1="22.2381" x2="55.2663" y2="113.687" gradientUnits="userSpaceOnUse">
<stop stop-color="#35FF89"/>
<stop offset="1" stop-color="#3177F3"/>
</linearGradient>
<linearGradient id="paint39_linear_634_2400" x1="-9.48525" y1="22.2381" x2="55.2663" y2="113.687" gradientUnits="userSpaceOnUse">
<stop stop-color="#35FF89"/>
<stop offset="1" stop-color="#3177F3"/>
</linearGradient>
<linearGradient id="paint40_linear_634_2400" x1="-9.48525" y1="22.2381" x2="55.2663" y2="113.687" gradientUnits="userSpaceOnUse">
<stop stop-color="#35FF89"/>
<stop offset="1" stop-color="#3177F3"/>
</linearGradient>
<linearGradient id="paint41_linear_634_2400" x1="-9.48525" y1="22.2381" x2="55.2663" y2="113.687" gradientUnits="userSpaceOnUse">
<stop stop-color="#35FF89"/>
<stop offset="1" stop-color="#3177F3"/>
</linearGradient>
<linearGradient id="paint42_linear_634_2400" x1="-9.48525" y1="22.2381" x2="55.2663" y2="113.687" gradientUnits="userSpaceOnUse">
<stop stop-color="#35FF89"/>
<stop offset="1" stop-color="#3177F3"/>
</linearGradient>
<linearGradient id="paint43_linear_634_2400" x1="-9.48525" y1="22.2381" x2="55.2663" y2="113.687" gradientUnits="userSpaceOnUse">
<stop stop-color="#35FF89"/>
<stop offset="1" stop-color="#3177F3"/>
</linearGradient>
<linearGradient id="paint44_linear_634_2400" x1="-9.48525" y1="22.2381" x2="55.2663" y2="113.687" gradientUnits="userSpaceOnUse">
<stop stop-color="#35FF89"/>
<stop offset="1" stop-color="#3177F3"/>
</linearGradient>
<linearGradient id="paint45_linear_634_2400" x1="-9.48525" y1="22.2381" x2="55.2663" y2="113.687" gradientUnits="userSpaceOnUse">
<stop stop-color="#35FF89"/>
<stop offset="1" stop-color="#3177F3"/>
</linearGradient>
<linearGradient id="paint46_linear_634_2400" x1="-9.48525" y1="22.2381" x2="55.2663" y2="113.687" gradientUnits="userSpaceOnUse">
<stop stop-color="#35FF89"/>
<stop offset="1" stop-color="#3177F3"/>
</linearGradient>
<linearGradient id="paint47_linear_634_2400" x1="-9.48525" y1="22.2381" x2="55.2663" y2="113.687" gradientUnits="userSpaceOnUse">
<stop stop-color="#35FF89"/>
<stop offset="1" stop-color="#3177F3"/>
</linearGradient>
</defs>
</svg>
