<svg width="80" height="80" viewBox="0 0 80 80" fill="none" xmlns="http://www.w3.org/2000/svg">
<path d="M18.9312 32.0969C21.1389 32.0969 22.9286 30.3072 22.9286 28.0994C22.9286 25.8917 21.1389 24.102 18.9312 24.102C16.7234 24.102 14.9337 25.8917 14.9337 28.0994C14.9337 30.3072 16.7234 32.0969 18.9312 32.0969Z" fill="url(#paint0_linear_634_2403)"/>
<path d="M27.68 35.7926C29.1588 35.7926 30.3576 34.5939 30.3576 33.1151C30.3576 31.6363 29.1588 30.4375 27.68 30.4375C26.2013 30.4375 25.0024 31.6363 25.0024 33.1151C25.0024 34.5939 26.2013 35.7926 27.68 35.7926Z" fill="url(#paint1_linear_634_2403)"/>
<path d="M33.7523 37.98C34.5021 37.98 35.11 37.3722 35.11 36.6224C35.11 35.8726 34.5021 35.2647 33.7523 35.2647C33.0025 35.2647 32.3947 35.8726 32.3947 36.6224C32.3947 37.3722 33.0025 37.98 33.7523 37.98Z" fill="url(#paint2_linear_634_2403)"/>
<path d="M18.9311 56.7983C21.1388 56.7983 22.9285 55.0085 22.9285 52.8008C22.9285 50.5931 21.1388 48.8033 18.9311 48.8033C16.7233 48.8033 14.9336 50.5931 14.9336 52.8008C14.9336 55.0085 16.7233 56.7983 18.9311 56.7983Z" fill="url(#paint3_linear_634_2403)"/>
<path d="M27.68 50.4249C29.1588 50.4249 30.3576 49.2261 30.3576 47.7474C30.3576 46.2686 29.1588 45.0698 27.68 45.0698C26.2013 45.0698 25.0024 46.2686 25.0024 47.7474C25.0024 49.2261 26.2013 50.4249 27.68 50.4249Z" fill="url(#paint4_linear_634_2403)"/>
<path d="M33.7523 45.5978C34.5021 45.5978 35.11 44.9899 35.11 44.2401C35.11 43.4903 34.5021 42.8825 33.7523 42.8825C33.0025 42.8825 32.3947 43.4903 32.3947 44.2401C32.3947 44.9899 33.0025 45.5978 33.7523 45.5978Z" fill="url(#paint5_linear_634_2403)"/>
<path d="M40.3513 69.1678C42.5591 69.1678 44.3488 67.3781 44.3488 65.1703C44.3488 62.9626 42.5591 61.1729 40.3513 61.1729C38.1436 61.1729 36.3539 62.9626 36.3539 65.1703C36.3539 67.3781 38.1436 69.1678 40.3513 69.1678Z" fill="url(#paint6_linear_634_2403)"/>
<path d="M40.3517 57.7411C41.8305 57.7411 43.0292 56.5423 43.0292 55.0635C43.0292 53.5847 41.8305 52.386 40.3517 52.386C38.8729 52.386 37.6742 53.5847 37.6742 55.0635C37.6742 56.5423 38.8729 57.7411 40.3517 57.7411Z" fill="url(#paint7_linear_634_2403)"/>
<path d="M40.3511 49.4067C41.1009 49.4067 41.7088 48.7989 41.7088 48.0491C41.7088 47.2993 41.1009 46.6915 40.3511 46.6915C39.6013 46.6915 38.9935 47.2993 38.9935 48.0491C38.9935 48.7989 39.6013 49.4067 40.3511 49.4067Z" fill="url(#paint8_linear_634_2403)"/>
<path d="M61.7725 56.7983C63.9802 56.7983 65.77 55.0085 65.77 52.8008C65.77 50.5931 63.9802 48.8033 61.7725 48.8033C59.5648 48.8033 57.775 50.5931 57.775 52.8008C57.775 55.0085 59.5648 56.7983 61.7725 56.7983Z" fill="url(#paint9_linear_634_2403)"/>
<path d="M53.0235 50.4249C54.5023 50.4249 55.701 49.2261 55.701 47.7474C55.701 46.2686 54.5023 45.0698 53.0235 45.0698C51.5447 45.0698 50.3459 46.2686 50.3459 47.7474C50.3459 49.2261 51.5447 50.4249 53.0235 50.4249Z" fill="url(#paint10_linear_634_2403)"/>
<path d="M46.9516 45.5978C47.7014 45.5978 48.3093 44.99 48.3093 44.2402C48.3093 43.4904 47.7014 42.8825 46.9516 42.8825C46.2018 42.8825 45.594 43.4904 45.594 44.2402C45.594 44.99 46.2018 45.5978 46.9516 45.5978Z" fill="url(#paint11_linear_634_2403)"/>
<path d="M61.7725 32.0969C63.9802 32.0969 65.77 30.3072 65.77 28.0994C65.77 25.8917 63.9802 24.102 61.7725 24.102C59.5648 24.102 57.775 25.8917 57.775 28.0994C57.775 30.3072 59.5648 32.0969 61.7725 32.0969Z" fill="url(#paint12_linear_634_2403)"/>
<path d="M53.0235 35.7927C54.5023 35.7927 55.701 34.5939 55.701 33.1151C55.701 31.6363 54.5023 30.4375 53.0235 30.4375C51.5447 30.4375 50.3459 31.6363 50.3459 33.1151C50.3459 34.5939 51.5447 35.7927 53.0235 35.7927Z" fill="url(#paint13_linear_634_2403)"/>
<path d="M46.9517 37.98C47.7015 37.98 48.3094 37.3722 48.3094 36.6224C48.3094 35.8726 47.7015 35.2647 46.9517 35.2647C46.2019 35.2647 45.5941 35.8726 45.5941 36.6224C45.5941 37.3722 46.2019 37.98 46.9517 37.98Z" fill="url(#paint14_linear_634_2403)"/>
<path d="M40.3513 19.7274C42.5591 19.7274 44.3488 17.9376 44.3488 15.7299C44.3488 13.5222 42.5591 11.7324 40.3513 11.7324C38.1436 11.7324 36.3539 13.5222 36.3539 15.7299C36.3539 17.9376 38.1436 19.7274 40.3513 19.7274Z" fill="url(#paint15_linear_634_2403)"/>
<path d="M40.3517 28.4766C41.8305 28.4766 43.0292 27.2778 43.0292 25.799C43.0292 24.3202 41.8305 23.1215 40.3517 23.1215C38.8729 23.1215 37.6742 24.3202 37.6742 25.799C37.6742 27.2778 38.8729 28.4766 40.3517 28.4766Z" fill="url(#paint16_linear_634_2403)"/>
<path d="M40.3511 34.2088C41.1009 34.2088 41.7088 33.601 41.7088 32.8512C41.7088 32.1014 41.1009 31.4935 40.3511 31.4935C39.6013 31.4935 38.9935 32.1014 38.9935 32.8512C38.9935 33.601 39.6013 34.2088 40.3511 34.2088Z" fill="url(#paint17_linear_634_2403)"/>
<defs>
<linearGradient id="paint0_linear_634_2403" x1="0.735361" y1="23.9336" x2="60.3612" y2="98.4669" gradientUnits="userSpaceOnUse">
<stop stop-color="#35FF89"/>
<stop offset="1" stop-color="#3177F3"/>
</linearGradient>
<linearGradient id="paint1_linear_634_2403" x1="0.735361" y1="23.9336" x2="60.3612" y2="98.4669" gradientUnits="userSpaceOnUse">
<stop stop-color="#35FF89"/>
<stop offset="1" stop-color="#3177F3"/>
</linearGradient>
<linearGradient id="paint2_linear_634_2403" x1="0.735361" y1="23.9336" x2="60.3612" y2="98.4669" gradientUnits="userSpaceOnUse">
<stop stop-color="#35FF89"/>
<stop offset="1" stop-color="#3177F3"/>
</linearGradient>
<linearGradient id="paint3_linear_634_2403" x1="0.735361" y1="23.9336" x2="60.3612" y2="98.4669" gradientUnits="userSpaceOnUse">
<stop stop-color="#35FF89"/>
<stop offset="1" stop-color="#3177F3"/>
</linearGradient>
<linearGradient id="paint4_linear_634_2403" x1="0.735361" y1="23.9336" x2="60.3612" y2="98.4669" gradientUnits="userSpaceOnUse">
<stop stop-color="#35FF89"/>
<stop offset="1" stop-color="#3177F3"/>
</linearGradient>
<linearGradient id="paint5_linear_634_2403" x1="0.735361" y1="23.9336" x2="60.3612" y2="98.4669" gradientUnits="userSpaceOnUse">
<stop stop-color="#35FF89"/>
<stop offset="1" stop-color="#3177F3"/>
</linearGradient>
<linearGradient id="paint6_linear_634_2403" x1="0.735361" y1="23.9336" x2="60.3612" y2="98.4669" gradientUnits="userSpaceOnUse">
<stop stop-color="#35FF89"/>
<stop offset="1" stop-color="#3177F3"/>
</linearGradient>
<linearGradient id="paint7_linear_634_2403" x1="0.735361" y1="23.9336" x2="60.3612" y2="98.4669" gradientUnits="userSpaceOnUse">
<stop stop-color="#35FF89"/>
<stop offset="1" stop-color="#3177F3"/>
</linearGradient>
<linearGradient id="paint8_linear_634_2403" x1="0.735361" y1="23.9336" x2="60.3612" y2="98.4669" gradientUnits="userSpaceOnUse">
<stop stop-color="#35FF89"/>
<stop offset="1" stop-color="#3177F3"/>
</linearGradient>
<linearGradient id="paint9_linear_634_2403" x1="0.735361" y1="23.9336" x2="60.3612" y2="98.4669" gradientUnits="userSpaceOnUse">
<stop stop-color="#35FF89"/>
<stop offset="1" stop-color="#3177F3"/>
</linearGradient>
<linearGradient id="paint10_linear_634_2403" x1="0.735361" y1="23.9336" x2="60.3612" y2="98.4669" gradientUnits="userSpaceOnUse">
<stop stop-color="#35FF89"/>
<stop offset="1" stop-color="#3177F3"/>
</linearGradient>
<linearGradient id="paint11_linear_634_2403" x1="0.735361" y1="23.9336" x2="60.3612" y2="98.4669" gradientUnits="userSpaceOnUse">
<stop stop-color="#35FF89"/>
<stop offset="1" stop-color="#3177F3"/>
</linearGradient>
<linearGradient id="paint12_linear_634_2403" x1="0.735361" y1="23.9336" x2="60.3612" y2="98.4669" gradientUnits="userSpaceOnUse">
<stop stop-color="#35FF89"/>
<stop offset="1" stop-color="#3177F3"/>
</linearGradient>
<linearGradient id="paint13_linear_634_2403" x1="0.735361" y1="23.9336" x2="60.3612" y2="98.4669" gradientUnits="userSpaceOnUse">
<stop stop-color="#35FF89"/>
<stop offset="1" stop-color="#3177F3"/>
</linearGradient>
<linearGradient id="paint14_linear_634_2403" x1="0.735361" y1="23.9336" x2="60.3612" y2="98.4669" gradientUnits="userSpaceOnUse">
<stop stop-color="#35FF89"/>
<stop offset="1" stop-color="#3177F3"/>
</linearGradient>
<linearGradient id="paint15_linear_634_2403" x1="0.735361" y1="23.9336" x2="60.3612" y2="98.4669" gradientUnits="userSpaceOnUse">
<stop stop-color="#35FF89"/>
<stop offset="1" stop-color="#3177F3"/>
</linearGradient>
<linearGradient id="paint16_linear_634_2403" x1="0.735361" y1="23.9336" x2="60.3612" y2="98.4669" gradientUnits="userSpaceOnUse">
<stop stop-color="#35FF89"/>
<stop offset="1" stop-color="#3177F3"/>
</linearGradient>
<linearGradient id="paint17_linear_634_2403" x1="0.735361" y1="23.9336" x2="60.3612" y2="98.4669" gradientUnits="userSpaceOnUse">
<stop stop-color="#35FF89"/>
<stop offset="1" stop-color="#3177F3"/>
</linearGradient>
</defs>
</svg>
