<svg width="80" height="80" viewBox="0 0 80 80" fill="none" xmlns="http://www.w3.org/2000/svg">
<path d="M72.2578 35.2588C71.4281 35.4851 69.9573 34.9948 69.7311 34.052C69.5048 33.1092 70.5984 32.091 71.4281 31.8647C72.2578 31.6384 72.4463 32.3927 72.6726 33.3355C72.8989 34.2783 73.0874 35.0325 72.2578 35.2588Z" fill="url(#paint0_linear_634_2416)"/>
<path d="M65.9222 42.0469C64.4892 42.1978 61.6985 40.9533 61.6608 39.3317C61.6231 37.71 64.376 36.3524 65.8091 36.2393C67.2421 36.1261 67.393 37.4461 67.4307 39.0677C67.4684 40.6893 67.3553 41.9338 65.9222 42.0846V42.0469Z" fill="url(#paint1_linear_634_2416)"/>
<path d="M57.4366 44.4605C56.6069 44.3851 54.9476 43.1783 55.1738 42.0847C55.4001 40.991 57.4366 40.4254 58.2662 40.5008C59.0959 40.5762 58.9073 41.519 58.7188 42.6126C58.5302 43.7063 58.3039 44.536 57.4743 44.4605H57.4366Z" fill="url(#paint2_linear_634_2416)"/>
<path d="M72.1443 46.497C71.2769 46.4216 70.1079 45.441 70.1833 44.4982C70.2587 43.5554 71.6541 42.9521 72.5214 43.0275C73.3888 43.1029 73.2757 43.8571 73.1625 44.8377C73.0494 45.8182 72.974 46.5724 72.1066 46.497H72.1443Z" fill="url(#paint3_linear_634_2416)"/>
<path d="M63.8852 50.683C62.4899 50.3436 60.3026 48.194 60.8305 46.6856C61.3585 45.1771 64.4132 44.8377 65.8085 45.1771C67.2039 45.5165 66.9022 46.8741 66.3742 48.3826C65.8462 49.8911 65.3183 51.0602 63.9229 50.683H63.8852Z" fill="url(#paint4_linear_634_2416)"/>
<path d="M55.0609 50.0796C54.3067 49.7402 53.1376 48.0055 53.741 47.0627C54.3444 46.1199 56.4186 46.2707 57.1728 46.6479C57.9271 47.025 57.4368 47.8169 56.8711 48.7597C56.3054 49.7025 55.8152 50.4568 55.0609 50.0796Z" fill="url(#paint5_linear_634_2416)"/>
<path d="M68.2226 57.0187C67.4306 56.6415 66.6387 55.3593 67.0912 54.492C67.5438 53.6246 69.0145 53.5491 69.8065 53.8886C70.5984 54.228 70.259 54.9445 69.8065 55.8119C69.3539 56.6792 69.0522 57.3958 68.2603 57.0187H68.2226Z" fill="url(#paint6_linear_634_2416)"/>
<path d="M59.0203 58.1123C57.8513 57.3204 56.4937 54.5297 57.5119 53.2852C58.5301 52.0407 61.5093 52.7572 62.6784 53.5869C63.8475 54.4165 63.131 55.5479 62.1127 56.7924C61.0945 58.0369 60.1894 58.942 59.0203 58.1123Z" fill="url(#paint7_linear_634_2416)"/>
<path d="M50.9502 54.5296C50.3468 53.9262 49.8566 51.9275 50.7239 51.2487C51.5913 50.5699 53.5146 51.4372 54.118 52.0029C54.7214 52.5686 53.9672 53.2097 53.0998 53.8885C52.2324 54.5673 51.5536 55.0953 50.9502 54.5296Z" fill="url(#paint8_linear_634_2416)"/>
<path d="M60.9059 65.5416C60.3025 64.9382 60.0008 63.4297 60.6796 62.7509C61.3584 62.072 62.7915 62.5246 63.4326 63.128C64.0737 63.7314 63.4703 64.2593 62.7915 64.9382C62.1127 65.617 61.5093 66.1449 60.9059 65.5416Z" fill="url(#paint9_linear_634_2416)"/>
<path d="M51.8926 63.4297C51.063 62.2606 50.7235 59.2059 52.1189 58.3763C53.5142 57.5466 56.0409 59.2437 56.8706 60.4127C57.7003 61.5818 56.6066 62.4115 55.249 63.2411C53.8913 64.0708 52.7223 64.5988 51.8926 63.4297Z" fill="url(#paint10_linear_634_2416)"/>
<path d="M45.5574 57.3203C45.218 56.5661 45.4065 54.5297 46.5002 54.1525C47.5938 53.7754 49.0646 55.2839 49.404 56.0381C49.7434 56.7924 48.8761 57.0941 47.8201 57.4712C46.7642 57.8483 45.9345 58.0746 45.5951 57.3203H45.5574Z" fill="url(#paint11_linear_634_2416)"/>
<path d="M51.1393 71.0853C50.7622 70.2933 51.0262 68.7848 51.8936 68.4077C52.7609 68.0306 53.9677 68.898 54.3449 69.6899C54.722 70.4819 54.0054 70.7835 53.1004 71.1607C52.1953 71.5378 51.4787 71.8772 51.1393 71.0853Z" fill="url(#paint12_linear_634_2416)"/>
<path d="M43.3708 65.9942C42.9937 64.6365 43.7479 61.6196 45.2941 61.3179C46.8403 61.0162 48.6882 63.5051 49.0653 64.8628C49.4424 66.2204 48.1602 66.6353 46.5763 66.937C44.9924 67.2386 43.7479 67.3518 43.3708 65.9564V65.9942Z" fill="url(#paint13_linear_634_2416)"/>
<path d="M39.5238 58.0746C39.4483 57.2449 40.3534 55.397 41.4848 55.4348C42.6162 55.4725 43.5212 57.3581 43.5967 58.1877C43.6721 59.0174 42.7293 59.0174 41.5979 58.9797C40.4666 58.942 39.6369 58.9043 39.5615 58.0746H39.5238Z" fill="url(#paint14_linear_634_2416)"/>
<path d="M40.0893 72.9331C40.0139 72.0657 40.7681 70.7458 41.7109 70.6704C42.6537 70.595 43.4834 71.8394 43.5588 72.7068C43.6343 73.5742 42.88 73.6119 41.8995 73.6873C40.919 73.7628 40.1648 73.8005 40.0516 72.9331H40.0893Z" fill="url(#paint15_linear_634_2416)"/>
<path d="M34.5081 65.5039C34.6212 64.0708 36.3559 61.5441 37.9399 61.7704C39.5238 61.9966 40.3911 64.9759 40.278 66.4089C40.1649 67.842 38.8072 67.7666 37.2233 67.5026C35.6394 67.2386 34.4326 66.8992 34.5458 65.5039H34.5081Z" fill="url(#paint16_linear_634_2416)"/>
<path d="M33.6031 56.7169C33.8293 55.8873 35.3001 54.4919 36.3561 54.9068C37.412 55.3216 37.6005 57.3957 37.3743 58.2254C37.148 59.0551 36.2806 58.7157 35.2247 58.3008C34.1688 57.886 33.3768 57.5466 33.6031 56.7546V56.7169Z" fill="url(#paint17_linear_634_2416)"/>
<path d="M29.04 70.8966C29.2663 70.0669 30.4353 69.0487 31.3404 69.3127C32.2455 69.5767 32.6227 71.0474 32.3964 71.8771C32.1701 72.7068 31.4536 72.4805 30.5108 72.2165C29.568 71.9525 28.8137 71.7263 29.04 70.8966Z" fill="url(#paint18_linear_634_2416)"/>
<path d="M26.3244 61.9966C26.9278 60.7144 29.4168 58.9042 30.8121 59.6584C32.2074 60.4127 32.0189 63.5051 31.4155 64.7873C30.8121 66.0695 29.5676 65.5792 28.1723 64.7873C26.7769 63.9953 25.721 63.2788 26.3244 61.9589V61.9966Z" fill="url(#paint19_linear_634_2416)"/>
<path d="M28.474 53.436C28.9643 52.7571 30.8498 51.9275 31.6795 52.644C32.5092 53.3605 31.9812 55.4347 31.491 56.1135C31.0007 56.7923 30.2842 56.1889 29.4545 55.4347C28.6248 54.6805 27.9837 54.1148 28.474 53.436Z" fill="url(#paint20_linear_634_2416)"/>
<path d="M19.3479 65.1644C19.8382 64.4479 21.2712 63.9199 22.0632 64.4856C22.8551 65.0513 22.6666 66.522 22.1763 67.2386C21.6861 67.9551 21.0827 67.4648 20.2907 66.8992C19.4988 66.3335 18.8577 65.8809 19.3856 65.1644H19.3479Z" fill="url(#paint21_linear_634_2416)"/>
<path d="M19.8385 55.925C20.819 54.9068 23.7983 54.0394 24.8542 55.2839C25.9102 56.5284 24.6657 59.3191 23.6852 60.3373C22.7046 61.3555 21.6864 60.4504 20.6305 59.2059C19.5745 57.9614 18.858 56.9432 19.8762 55.925H19.8385Z" fill="url(#paint22_linear_634_2416)"/>
<path d="M24.8159 48.6088C25.4948 48.1186 27.5689 48.0054 28.0969 48.986C28.6249 49.9665 27.4181 51.7012 26.7393 52.1915C26.0605 52.6817 25.6079 51.8521 25.0422 50.8716C24.4765 49.891 24.0994 49.1368 24.7782 48.6466L24.8159 48.6088Z" fill="url(#paint23_linear_634_2416)"/>
<path d="M12.2202 56.5284C12.9368 56.0381 14.4452 56.0004 15.0109 56.7923C15.5766 57.5843 14.8601 58.9419 14.1813 59.4322C13.5024 59.9224 13.0499 59.2813 12.5219 58.4894C11.994 57.6974 11.5414 57.0186 12.2579 56.5284H12.2202Z" fill="url(#paint24_linear_634_2416)"/>
<path d="M15.8404 47.9677C17.1226 47.3643 20.1773 47.5529 20.7807 49.0614C21.3841 50.5699 19.2345 52.7949 17.9523 53.3983C16.6701 54.0017 16.029 52.7949 15.4633 51.3241C14.8976 49.8533 14.5582 48.6088 15.8404 47.9677Z" fill="url(#paint25_linear_634_2416)"/>
<path d="M23.0055 42.8012C23.7975 42.5749 25.7962 43.1406 25.9471 44.2719C26.0979 45.4033 24.4009 46.6101 23.5712 46.7986C22.7416 46.9872 22.6284 46.0821 22.4399 44.9885C22.2513 43.8948 22.1759 43.0274 22.9678 42.8012H23.0055Z" fill="url(#paint26_linear_634_2416)"/>
<path d="M8.44881 45.9313C9.27848 45.705 10.7493 46.1952 10.9755 47.138C11.2018 48.0808 10.1081 49.0991 9.27848 49.3253C8.44882 49.5516 8.26025 48.7974 8.03398 47.8546C7.80771 46.9118 7.61915 46.1575 8.44881 45.9313Z" fill="url(#paint27_linear_634_2416)"/>
<path d="M14.822 39.1431C16.2551 38.9922 19.0457 40.2367 19.0834 41.8584C19.1212 43.48 16.3682 44.8376 14.9351 44.9507C13.5021 45.0639 13.3512 43.744 13.3135 42.1223C13.2758 40.5007 13.3889 39.2562 14.822 39.1054V39.1431Z" fill="url(#paint28_linear_634_2416)"/>
<path d="M23.3075 36.7296C24.1372 36.805 25.7965 38.0118 25.5702 39.1054C25.344 40.1991 23.3075 40.7647 22.4779 40.6893C21.6482 40.6139 21.8368 39.6711 22.0253 38.5774C22.2139 37.4838 22.4401 36.6541 23.2698 36.7296H23.3075Z" fill="url(#paint29_linear_634_2416)"/>
<path d="M8.56189 34.6932C9.42926 34.7686 10.5983 35.7491 10.5229 36.6919C10.4475 37.6347 9.05213 38.2381 8.18476 38.1627C7.31738 38.0872 7.43052 37.333 7.54366 36.3525C7.6568 35.372 7.73221 34.6177 8.59959 34.6932H8.56189Z" fill="url(#paint30_linear_634_2416)"/>
<path d="M16.8205 30.5071C18.2158 30.8465 20.4031 32.9961 19.8752 34.5046C19.3472 36.0131 16.2925 36.3525 14.8972 36.0131C13.5018 35.6736 13.8035 34.316 14.3315 32.8075C14.8595 31.2991 15.3874 30.13 16.7828 30.5071H16.8205Z" fill="url(#paint31_linear_634_2416)"/>
<path d="M25.6454 31.1105C26.3997 31.4499 27.5688 33.1846 26.9654 34.1274C26.362 35.0702 24.2878 34.9194 23.5336 34.5423C22.7793 34.1652 23.2696 33.3732 23.8353 32.4304C24.4009 31.4876 24.8912 30.7334 25.6454 31.1105Z" fill="url(#paint32_linear_634_2416)"/>
<path d="M12.4841 24.1715C13.2761 24.5486 14.068 25.8308 13.6155 26.6982C13.1629 27.5655 11.6922 27.641 10.9002 27.3016C10.1083 26.9621 10.4477 26.2456 10.9002 25.3782C11.3528 24.5109 11.6545 23.7943 12.4464 24.1715H12.4841Z" fill="url(#paint33_linear_634_2416)"/>
<path d="M21.7237 23.0401C22.8928 23.832 24.2504 26.6227 23.2322 27.8672C22.214 29.1117 19.2347 28.3952 18.0656 27.5655C16.8966 26.7359 17.6131 25.6045 18.6313 24.36C19.6495 23.1155 20.5546 22.2104 21.7237 23.0401Z" fill="url(#paint34_linear_634_2416)"/>
<path d="M29.7561 26.6605C30.3595 27.2638 30.8497 29.2626 29.9823 29.9414C29.115 30.6202 27.1917 29.7528 26.5883 29.1872C25.9849 28.6215 26.7391 27.9804 27.6065 27.3016C28.4739 26.6227 29.1527 26.0948 29.7561 26.6605Z" fill="url(#paint35_linear_634_2416)"/>
<path d="M19.8001 15.6485C20.4035 16.2519 20.7051 17.7604 20.0263 18.4392C19.3475 19.118 17.9145 18.6655 17.2733 18.0621C16.6322 17.4587 17.2356 16.9307 17.9145 16.2519C18.5933 15.5731 19.1967 15.0451 19.8001 15.6485Z" fill="url(#paint36_linear_634_2416)"/>
<path d="M28.8128 17.7227C29.6425 18.8918 29.9819 21.9464 28.5866 22.7761C27.1912 23.6058 24.6645 21.9087 23.8349 20.7397C23.0052 19.5706 24.0988 18.7409 25.4565 17.9113C26.8141 17.0816 27.9832 16.5536 28.8128 17.7227Z" fill="url(#paint37_linear_634_2416)"/>
<path d="M35.1865 23.8697C35.5259 24.624 35.3374 26.6604 34.2437 27.0375C33.1501 27.4147 31.6793 25.9062 31.3399 25.1519C31.0005 24.3977 31.8679 24.096 32.9238 23.7189C33.9797 23.3418 34.8094 23.1155 35.1488 23.8697H35.1865Z" fill="url(#paint38_linear_634_2416)"/>
<path d="M29.5677 10.1049C29.9448 10.8968 29.6808 12.4053 28.8134 12.7824C27.9461 13.1596 26.7393 12.2922 26.3621 11.5002C25.985 10.7083 26.7016 10.4066 27.6067 10.0295C28.5117 9.65235 29.2283 9.31294 29.5677 10.1049Z" fill="url(#paint39_linear_634_2416)"/>
<path d="M37.3364 15.1583C37.7135 16.5159 36.9593 19.5329 35.4131 19.8346C33.8669 20.1363 32.019 17.6473 31.6419 16.2896C31.2648 14.932 32.547 14.5172 34.1309 14.2155C35.7148 13.9138 36.9593 13.8006 37.3364 15.196V15.1583Z" fill="url(#paint40_linear_634_2416)"/>
<path d="M41.221 23.1155C41.2964 23.9452 40.3913 25.7931 39.26 25.7554C38.1286 25.7177 37.2235 23.8321 37.1481 23.0024C37.0727 22.1727 38.0155 22.1727 39.1468 22.2104C40.2782 22.2481 41.1079 22.2859 41.1833 23.1155H41.221Z" fill="url(#paint41_linear_634_2416)"/>
<path d="M40.6546 8.257C40.73 9.12437 39.9758 10.4443 39.033 10.5197C38.0902 10.5951 37.2605 9.35065 37.1851 8.48327C37.1096 7.61589 37.8639 7.57818 38.8444 7.50276C39.8249 7.42733 40.5791 7.38962 40.6923 8.257H40.6546Z" fill="url(#paint42_linear_634_2416)"/>
<path d="M46.2365 15.6863C46.1233 17.1193 44.3886 19.646 42.8047 19.4198C41.2208 19.1935 40.3534 16.2142 40.4665 14.7812C40.5797 13.3481 41.9373 13.4235 43.5212 13.6875C45.1051 13.9515 46.3119 14.2909 46.1988 15.6863H46.2365Z" fill="url(#paint43_linear_634_2416)"/>
<path d="M47.1413 24.4354C46.915 25.2651 45.4442 26.6604 44.3883 26.2456C43.3324 25.8308 43.1438 23.7566 43.3701 22.927C43.5964 22.0973 44.4637 22.4367 45.5197 22.8515C46.5756 23.2664 47.3676 23.6058 47.1413 24.3977V24.4354Z" fill="url(#paint44_linear_634_2416)"/>
<path d="M51.705 10.2935C51.4787 11.1231 50.3096 12.1414 49.4045 11.8774C48.4995 11.6134 48.1223 10.1426 48.3486 9.31295C48.5749 8.48329 49.2914 8.70956 50.2342 8.97355C51.177 9.23753 51.9313 9.4638 51.705 10.2935Z" fill="url(#paint45_linear_634_2416)"/>
<path d="M54.3822 19.1935C53.7788 20.4757 51.2898 22.2859 49.8945 21.5317C48.4991 20.7774 48.6877 17.685 49.2911 16.4028C49.8945 15.1206 51.139 15.6109 52.5343 16.4028C53.9297 17.1948 54.9856 17.9113 54.3822 19.2312V19.1935Z" fill="url(#paint46_linear_634_2416)"/>
<path d="M52.2327 27.7541C51.7424 28.4329 49.8568 29.2626 49.0271 28.5461C48.1975 27.8296 48.7254 25.7554 49.2157 25.0766C49.7059 24.3978 50.4225 25.0012 51.2521 25.7554C52.0818 26.5096 52.7229 27.0753 52.2327 27.7541Z" fill="url(#paint47_linear_634_2416)"/>
<path d="M61.3586 15.988C60.8683 16.7045 59.4353 17.2325 58.6433 16.6668C57.8514 16.1011 58.0399 14.6303 58.5302 13.9138C59.0204 13.1973 59.6238 13.6875 60.4158 14.2532C61.2077 14.8189 61.8488 15.2714 61.3209 15.988H61.3586Z" fill="url(#paint48_linear_634_2416)"/>
<path d="M60.8677 25.2651C59.8871 26.2834 56.9079 27.1507 55.852 25.9062C54.796 24.6617 56.0405 21.8711 57.021 20.8528C58.0015 19.8346 59.0198 20.7397 60.0757 21.9842C61.1317 23.2287 61.8482 24.2469 60.8299 25.2651H60.8677Z" fill="url(#paint49_linear_634_2416)"/>
<path d="M55.9278 32.5812C55.249 33.0715 53.1748 33.1846 52.6468 32.2041C52.1189 31.2236 53.3256 29.4888 54.0045 28.9986C54.6833 28.5083 55.1358 29.338 55.7015 30.3185C56.2672 31.299 56.6443 32.0533 55.9655 32.5435L55.9278 32.5812Z" fill="url(#paint50_linear_634_2416)"/>
<path d="M68.5245 24.6617C67.8079 25.1519 66.2995 25.1897 65.7338 24.3977C65.1681 23.6058 65.8846 22.2481 66.5634 21.7579C67.2423 21.2676 67.6948 21.9087 68.2228 22.7007C68.7508 23.4926 69.2033 24.1714 68.4868 24.6617H68.5245Z" fill="url(#paint51_linear_634_2416)"/>
<path d="M64.8657 33.2223C63.5835 33.8257 60.5289 33.6372 59.9255 32.1287C59.3221 30.6202 61.4717 28.3952 62.7539 27.7918C64.0361 27.1884 64.6772 28.3952 65.2429 29.866C65.8085 31.3367 66.1479 32.5812 64.8657 33.2223Z" fill="url(#paint52_linear_634_2416)"/>
<path d="M57.7384 38.3889C56.9464 38.6151 54.9477 38.0495 54.7969 36.9181C54.646 35.7867 56.3431 34.58 57.1727 34.3914C58.0024 34.2028 58.1155 35.1079 58.3041 36.2016C58.4926 37.2952 58.5681 38.1626 57.7761 38.3889H57.7384Z" fill="url(#paint53_linear_634_2416)"/>
<defs>
<linearGradient id="paint0_linear_634_2416" x1="-10.903" y1="21.5419" x2="55.7587" y2="114.999" gradientUnits="userSpaceOnUse">
<stop stop-color="#35FF89"/>
<stop offset="1" stop-color="#3177F3"/>
</linearGradient>
<linearGradient id="paint1_linear_634_2416" x1="-10.903" y1="21.5419" x2="55.7587" y2="114.999" gradientUnits="userSpaceOnUse">
<stop stop-color="#35FF89"/>
<stop offset="1" stop-color="#3177F3"/>
</linearGradient>
<linearGradient id="paint2_linear_634_2416" x1="-10.903" y1="21.5419" x2="55.7587" y2="114.999" gradientUnits="userSpaceOnUse">
<stop stop-color="#35FF89"/>
<stop offset="1" stop-color="#3177F3"/>
</linearGradient>
<linearGradient id="paint3_linear_634_2416" x1="-10.903" y1="21.5419" x2="55.7587" y2="114.999" gradientUnits="userSpaceOnUse">
<stop stop-color="#35FF89"/>
<stop offset="1" stop-color="#3177F3"/>
</linearGradient>
<linearGradient id="paint4_linear_634_2416" x1="-10.903" y1="21.5419" x2="55.7587" y2="114.999" gradientUnits="userSpaceOnUse">
<stop stop-color="#35FF89"/>
<stop offset="1" stop-color="#3177F3"/>
</linearGradient>
<linearGradient id="paint5_linear_634_2416" x1="-10.903" y1="21.5419" x2="55.7587" y2="114.999" gradientUnits="userSpaceOnUse">
<stop stop-color="#35FF89"/>
<stop offset="1" stop-color="#3177F3"/>
</linearGradient>
<linearGradient id="paint6_linear_634_2416" x1="-10.903" y1="21.5419" x2="55.7587" y2="114.999" gradientUnits="userSpaceOnUse">
<stop stop-color="#35FF89"/>
<stop offset="1" stop-color="#3177F3"/>
</linearGradient>
<linearGradient id="paint7_linear_634_2416" x1="-10.903" y1="21.5419" x2="55.7587" y2="114.999" gradientUnits="userSpaceOnUse">
<stop stop-color="#35FF89"/>
<stop offset="1" stop-color="#3177F3"/>
</linearGradient>
<linearGradient id="paint8_linear_634_2416" x1="-10.903" y1="21.5419" x2="55.7587" y2="114.999" gradientUnits="userSpaceOnUse">
<stop stop-color="#35FF89"/>
<stop offset="1" stop-color="#3177F3"/>
</linearGradient>
<linearGradient id="paint9_linear_634_2416" x1="-10.903" y1="21.5419" x2="55.7587" y2="114.999" gradientUnits="userSpaceOnUse">
<stop stop-color="#35FF89"/>
<stop offset="1" stop-color="#3177F3"/>
</linearGradient>
<linearGradient id="paint10_linear_634_2416" x1="-10.903" y1="21.5419" x2="55.7587" y2="114.999" gradientUnits="userSpaceOnUse">
<stop stop-color="#35FF89"/>
<stop offset="1" stop-color="#3177F3"/>
</linearGradient>
<linearGradient id="paint11_linear_634_2416" x1="-10.903" y1="21.5419" x2="55.7587" y2="114.999" gradientUnits="userSpaceOnUse">
<stop stop-color="#35FF89"/>
<stop offset="1" stop-color="#3177F3"/>
</linearGradient>
<linearGradient id="paint12_linear_634_2416" x1="-10.903" y1="21.5419" x2="55.7587" y2="114.999" gradientUnits="userSpaceOnUse">
<stop stop-color="#35FF89"/>
<stop offset="1" stop-color="#3177F3"/>
</linearGradient>
<linearGradient id="paint13_linear_634_2416" x1="-10.903" y1="21.5419" x2="55.7587" y2="114.999" gradientUnits="userSpaceOnUse">
<stop stop-color="#35FF89"/>
<stop offset="1" stop-color="#3177F3"/>
</linearGradient>
<linearGradient id="paint14_linear_634_2416" x1="-10.903" y1="21.5419" x2="55.7587" y2="114.999" gradientUnits="userSpaceOnUse">
<stop stop-color="#35FF89"/>
<stop offset="1" stop-color="#3177F3"/>
</linearGradient>
<linearGradient id="paint15_linear_634_2416" x1="-10.903" y1="21.5419" x2="55.7587" y2="114.999" gradientUnits="userSpaceOnUse">
<stop stop-color="#35FF89"/>
<stop offset="1" stop-color="#3177F3"/>
</linearGradient>
<linearGradient id="paint16_linear_634_2416" x1="-10.903" y1="21.5419" x2="55.7587" y2="114.999" gradientUnits="userSpaceOnUse">
<stop stop-color="#35FF89"/>
<stop offset="1" stop-color="#3177F3"/>
</linearGradient>
<linearGradient id="paint17_linear_634_2416" x1="-10.903" y1="21.5419" x2="55.7587" y2="114.999" gradientUnits="userSpaceOnUse">
<stop stop-color="#35FF89"/>
<stop offset="1" stop-color="#3177F3"/>
</linearGradient>
<linearGradient id="paint18_linear_634_2416" x1="-10.903" y1="21.5419" x2="55.7587" y2="114.999" gradientUnits="userSpaceOnUse">
<stop stop-color="#35FF89"/>
<stop offset="1" stop-color="#3177F3"/>
</linearGradient>
<linearGradient id="paint19_linear_634_2416" x1="-10.903" y1="21.5419" x2="55.7587" y2="114.999" gradientUnits="userSpaceOnUse">
<stop stop-color="#35FF89"/>
<stop offset="1" stop-color="#3177F3"/>
</linearGradient>
<linearGradient id="paint20_linear_634_2416" x1="-10.903" y1="21.5419" x2="55.7587" y2="114.999" gradientUnits="userSpaceOnUse">
<stop stop-color="#35FF89"/>
<stop offset="1" stop-color="#3177F3"/>
</linearGradient>
<linearGradient id="paint21_linear_634_2416" x1="-10.903" y1="21.5419" x2="55.7587" y2="114.999" gradientUnits="userSpaceOnUse">
<stop stop-color="#35FF89"/>
<stop offset="1" stop-color="#3177F3"/>
</linearGradient>
<linearGradient id="paint22_linear_634_2416" x1="-10.903" y1="21.5419" x2="55.7587" y2="114.999" gradientUnits="userSpaceOnUse">
<stop stop-color="#35FF89"/>
<stop offset="1" stop-color="#3177F3"/>
</linearGradient>
<linearGradient id="paint23_linear_634_2416" x1="-10.903" y1="21.5419" x2="55.7587" y2="114.999" gradientUnits="userSpaceOnUse">
<stop stop-color="#35FF89"/>
<stop offset="1" stop-color="#3177F3"/>
</linearGradient>
<linearGradient id="paint24_linear_634_2416" x1="-10.903" y1="21.5419" x2="55.7587" y2="114.999" gradientUnits="userSpaceOnUse">
<stop stop-color="#35FF89"/>
<stop offset="1" stop-color="#3177F3"/>
</linearGradient>
<linearGradient id="paint25_linear_634_2416" x1="-10.903" y1="21.5419" x2="55.7587" y2="114.999" gradientUnits="userSpaceOnUse">
<stop stop-color="#35FF89"/>
<stop offset="1" stop-color="#3177F3"/>
</linearGradient>
<linearGradient id="paint26_linear_634_2416" x1="-10.903" y1="21.5419" x2="55.7587" y2="114.999" gradientUnits="userSpaceOnUse">
<stop stop-color="#35FF89"/>
<stop offset="1" stop-color="#3177F3"/>
</linearGradient>
<linearGradient id="paint27_linear_634_2416" x1="-10.903" y1="21.5419" x2="55.7587" y2="114.999" gradientUnits="userSpaceOnUse">
<stop stop-color="#35FF89"/>
<stop offset="1" stop-color="#3177F3"/>
</linearGradient>
<linearGradient id="paint28_linear_634_2416" x1="-10.903" y1="21.5419" x2="55.7587" y2="114.999" gradientUnits="userSpaceOnUse">
<stop stop-color="#35FF89"/>
<stop offset="1" stop-color="#3177F3"/>
</linearGradient>
<linearGradient id="paint29_linear_634_2416" x1="-10.903" y1="21.5419" x2="55.7587" y2="114.999" gradientUnits="userSpaceOnUse">
<stop stop-color="#35FF89"/>
<stop offset="1" stop-color="#3177F3"/>
</linearGradient>
<linearGradient id="paint30_linear_634_2416" x1="-10.903" y1="21.5419" x2="55.7587" y2="114.999" gradientUnits="userSpaceOnUse">
<stop stop-color="#35FF89"/>
<stop offset="1" stop-color="#3177F3"/>
</linearGradient>
<linearGradient id="paint31_linear_634_2416" x1="-10.903" y1="21.5419" x2="55.7587" y2="114.999" gradientUnits="userSpaceOnUse">
<stop stop-color="#35FF89"/>
<stop offset="1" stop-color="#3177F3"/>
</linearGradient>
<linearGradient id="paint32_linear_634_2416" x1="-10.903" y1="21.5419" x2="55.7587" y2="114.999" gradientUnits="userSpaceOnUse">
<stop stop-color="#35FF89"/>
<stop offset="1" stop-color="#3177F3"/>
</linearGradient>
<linearGradient id="paint33_linear_634_2416" x1="-10.903" y1="21.5419" x2="55.7587" y2="114.999" gradientUnits="userSpaceOnUse">
<stop stop-color="#35FF89"/>
<stop offset="1" stop-color="#3177F3"/>
</linearGradient>
<linearGradient id="paint34_linear_634_2416" x1="-10.903" y1="21.5419" x2="55.7587" y2="114.999" gradientUnits="userSpaceOnUse">
<stop stop-color="#35FF89"/>
<stop offset="1" stop-color="#3177F3"/>
</linearGradient>
<linearGradient id="paint35_linear_634_2416" x1="-10.903" y1="21.5419" x2="55.7587" y2="114.999" gradientUnits="userSpaceOnUse">
<stop stop-color="#35FF89"/>
<stop offset="1" stop-color="#3177F3"/>
</linearGradient>
<linearGradient id="paint36_linear_634_2416" x1="-10.903" y1="21.5419" x2="55.7587" y2="114.999" gradientUnits="userSpaceOnUse">
<stop stop-color="#35FF89"/>
<stop offset="1" stop-color="#3177F3"/>
</linearGradient>
<linearGradient id="paint37_linear_634_2416" x1="-10.903" y1="21.5419" x2="55.7587" y2="114.999" gradientUnits="userSpaceOnUse">
<stop stop-color="#35FF89"/>
<stop offset="1" stop-color="#3177F3"/>
</linearGradient>
<linearGradient id="paint38_linear_634_2416" x1="-10.903" y1="21.5419" x2="55.7587" y2="114.999" gradientUnits="userSpaceOnUse">
<stop stop-color="#35FF89"/>
<stop offset="1" stop-color="#3177F3"/>
</linearGradient>
<linearGradient id="paint39_linear_634_2416" x1="-10.903" y1="21.5419" x2="55.7587" y2="114.999" gradientUnits="userSpaceOnUse">
<stop stop-color="#35FF89"/>
<stop offset="1" stop-color="#3177F3"/>
</linearGradient>
<linearGradient id="paint40_linear_634_2416" x1="-10.903" y1="21.5419" x2="55.7587" y2="114.999" gradientUnits="userSpaceOnUse">
<stop stop-color="#35FF89"/>
<stop offset="1" stop-color="#3177F3"/>
</linearGradient>
<linearGradient id="paint41_linear_634_2416" x1="-10.903" y1="21.5419" x2="55.7587" y2="114.999" gradientUnits="userSpaceOnUse">
<stop stop-color="#35FF89"/>
<stop offset="1" stop-color="#3177F3"/>
</linearGradient>
<linearGradient id="paint42_linear_634_2416" x1="-10.903" y1="21.5419" x2="55.7587" y2="114.999" gradientUnits="userSpaceOnUse">
<stop stop-color="#35FF89"/>
<stop offset="1" stop-color="#3177F3"/>
</linearGradient>
<linearGradient id="paint43_linear_634_2416" x1="-10.903" y1="21.5419" x2="55.7587" y2="114.999" gradientUnits="userSpaceOnUse">
<stop stop-color="#35FF89"/>
<stop offset="1" stop-color="#3177F3"/>
</linearGradient>
<linearGradient id="paint44_linear_634_2416" x1="-10.903" y1="21.5419" x2="55.7587" y2="114.999" gradientUnits="userSpaceOnUse">
<stop stop-color="#35FF89"/>
<stop offset="1" stop-color="#3177F3"/>
</linearGradient>
<linearGradient id="paint45_linear_634_2416" x1="-10.903" y1="21.5419" x2="55.7587" y2="114.999" gradientUnits="userSpaceOnUse">
<stop stop-color="#35FF89"/>
<stop offset="1" stop-color="#3177F3"/>
</linearGradient>
<linearGradient id="paint46_linear_634_2416" x1="-10.903" y1="21.5419" x2="55.7587" y2="114.999" gradientUnits="userSpaceOnUse">
<stop stop-color="#35FF89"/>
<stop offset="1" stop-color="#3177F3"/>
</linearGradient>
<linearGradient id="paint47_linear_634_2416" x1="-10.903" y1="21.5419" x2="55.7587" y2="114.999" gradientUnits="userSpaceOnUse">
<stop stop-color="#35FF89"/>
<stop offset="1" stop-color="#3177F3"/>
</linearGradient>
<linearGradient id="paint48_linear_634_2416" x1="-10.903" y1="21.5419" x2="55.7587" y2="114.999" gradientUnits="userSpaceOnUse">
<stop stop-color="#35FF89"/>
<stop offset="1" stop-color="#3177F3"/>
</linearGradient>
<linearGradient id="paint49_linear_634_2416" x1="-10.903" y1="21.5419" x2="55.7587" y2="114.999" gradientUnits="userSpaceOnUse">
<stop stop-color="#35FF89"/>
<stop offset="1" stop-color="#3177F3"/>
</linearGradient>
<linearGradient id="paint50_linear_634_2416" x1="-10.903" y1="21.5419" x2="55.7587" y2="114.999" gradientUnits="userSpaceOnUse">
<stop stop-color="#35FF89"/>
<stop offset="1" stop-color="#3177F3"/>
</linearGradient>
<linearGradient id="paint51_linear_634_2416" x1="-10.903" y1="21.5419" x2="55.7587" y2="114.999" gradientUnits="userSpaceOnUse">
<stop stop-color="#35FF89"/>
<stop offset="1" stop-color="#3177F3"/>
</linearGradient>
<linearGradient id="paint52_linear_634_2416" x1="-10.903" y1="21.5419" x2="55.7587" y2="114.999" gradientUnits="userSpaceOnUse">
<stop stop-color="#35FF89"/>
<stop offset="1" stop-color="#3177F3"/>
</linearGradient>
<linearGradient id="paint53_linear_634_2416" x1="-10.903" y1="21.5419" x2="55.7587" y2="114.999" gradientUnits="userSpaceOnUse">
<stop stop-color="#35FF89"/>
<stop offset="1" stop-color="#3177F3"/>
</linearGradient>
</defs>
</svg>
