<svg width="89" height="88" viewBox="0 0 89 88" fill="none" xmlns="http://www.w3.org/2000/svg">
<path d="M44.9072 8.8125C50.4815 8.95372 55.7329 10.3929 60.373 12.8359C60.8595 12.9511 61.3246 13.1178 61.7656 13.3379L62.0986 13.5166C62.6934 13.86 63.2202 14.2977 63.6836 14.8184C72.339 20.6682 78.2524 30.2655 79.0938 41.2832C79.436 42.0441 79.639 42.8247 79.6875 43.6221L79.6982 44.001C79.6982 44.9275 79.49 45.8331 79.0957 46.7119C78.2562 57.7332 72.3399 67.3327 63.6816 73.1836C63.2187 73.7034 62.6936 74.1414 62.0996 74.4844L61.7656 74.6641C61.3246 74.8841 60.8594 75.0499 60.373 75.165C55.4815 77.7403 49.911 79.2001 43.999 79.2002L43.0898 79.1895C24.3715 78.7149 9.28477 63.6276 8.81055 44.9092L8.79883 44.001C8.79894 24.5608 24.5588 8.8009 43.999 8.80078L44.9072 8.8125ZM44.499 67.7881C40.2491 71.7841 36.0383 74.378 32.4443 75.1318C36.043 76.468 39.9353 77.2002 43.999 77.2002C48.2065 77.2002 52.2304 76.415 55.9346 74.9873C52.4805 74.0801 48.5074 71.5569 44.499 67.7881ZM25.8252 56.4355C25.485 57.8931 25.2282 59.2948 25.0557 60.627C24.6327 63.8932 24.7299 66.6404 25.2734 68.7314C25.8144 70.8123 26.7484 72.0876 27.8984 72.752C29.0489 73.4162 30.6212 73.5887 32.6943 73.0166C34.7771 72.4418 37.2041 71.1518 39.8213 69.1523C40.8887 68.3368 41.9732 67.412 43.0654 66.3887C40.7597 64.0538 38.4619 61.3216 36.2637 58.2627C32.5153 57.8883 29.0001 57.2651 25.8252 56.4355ZM63.1719 56.4355C59.997 57.265 56.4818 57.8883 52.7334 58.2627C50.5351 61.3217 48.2374 64.0538 45.9316 66.3887C47.024 67.4122 48.1091 68.3367 49.1768 69.1523C51.7939 71.1518 54.221 72.4418 56.3037 73.0166C57.6299 73.3826 58.7506 73.4418 59.6875 73.2646C60.5991 72.7749 61.4848 72.2437 62.3428 71.6738C62.9216 70.9609 63.3961 69.9951 63.7246 68.7314C64.2681 66.6404 64.3654 63.8932 63.9424 60.627C63.7698 59.2947 63.5121 57.8931 63.1719 56.4355ZM11.1289 48.6768C12.3602 57.4111 16.9884 65.0527 23.6367 70.2227C22.414 66.7229 22.5351 61.6911 23.8984 55.8945C18.0091 54.1204 13.4914 51.6046 11.1289 48.6768ZM76.6621 49.9678C74.1188 52.3443 70.1037 54.3869 65.0986 55.8945C66.3275 61.1192 66.5447 65.7214 65.6807 69.1416C71.3037 64.2879 75.2805 57.5804 76.6621 49.9678ZM50.0879 58.4834C48.5584 58.5851 46.9957 58.6463 45.4072 58.6631L44.499 58.668C42.5967 58.668 40.7297 58.6045 38.9092 58.4834C40.7396 60.9106 42.6219 63.0935 44.499 64.9932C46.376 63.0936 48.2576 60.9104 50.0879 58.4834ZM44.499 31.333C42.0464 31.333 39.6599 31.4405 37.3643 31.6426C36.0414 33.5298 34.7547 35.5428 33.5283 37.667C32.3021 39.791 31.2023 41.912 30.2295 44.001C31.2023 46.0901 32.302 48.2109 33.5283 50.335C34.7546 52.4588 36.0415 54.4715 37.3643 56.3584C39.6599 56.5604 42.0464 56.668 44.499 56.668C46.9512 56.668 49.3376 56.5603 51.6328 56.3584C52.9556 54.4714 54.2434 52.459 55.4697 50.335C56.696 48.2111 57.7948 46.09 58.7676 44.001C57.7948 41.9121 56.6959 39.7908 55.4697 37.667C54.2432 35.5427 52.9558 33.5299 51.6328 31.6426C49.3376 31.4406 46.9511 31.333 44.499 31.333ZM29.1611 46.4014C27.9742 49.2002 27.0241 51.9216 26.3174 54.4971C28.9014 55.1729 31.7333 55.7115 34.751 56.083C33.8981 54.8091 33.0638 53.4866 32.2549 52.1191L31.7969 51.335C30.8456 49.6874 29.9666 48.0387 29.1611 46.4014ZM59.8359 46.4014C59.0305 48.0385 58.1523 49.6875 57.2012 51.335L56.7432 52.1191C55.9342 53.4868 55.0991 54.809 54.2461 56.083C57.2637 55.7115 60.0956 55.1728 62.6797 54.4971C61.9729 51.9216 61.0229 49.2002 59.8359 46.4014ZM24.3936 34.0469C22.9611 34.4811 21.618 34.9588 20.3779 35.4756C17.3379 36.7424 15.0079 38.1996 13.4688 39.7158C11.9368 41.2251 11.2989 42.6726 11.2988 44.001C11.299 45.3293 11.9371 46.776 13.4688 48.2852C15.0078 49.8014 17.3379 51.2596 20.3779 52.5264C21.6176 53.0429 22.9606 53.52 24.3926 53.9541C25.2617 50.7897 26.4792 47.4335 28.0293 44C26.4795 40.5669 25.2625 37.211 24.3936 34.0469ZM64.6035 34.0469C63.7345 37.211 62.5176 40.5668 60.9678 44C62.5179 47.4335 63.7353 50.7897 64.6045 53.9541C66.0367 53.52 67.3793 53.043 68.6191 52.5264C71.6594 51.2595 73.9901 49.8015 75.5293 48.2852C76.2512 47.574 76.7726 46.8758 77.124 46.1982C77.1715 45.472 77.1982 44.7393 77.1982 44.001C77.1982 43.2623 77.1715 42.5294 77.124 41.8027C76.7726 41.1252 76.2509 40.4268 75.5293 39.7158C73.9901 38.1996 71.6592 36.7424 68.6191 35.4756C67.3789 34.9588 66.0361 34.4811 64.6035 34.0469ZM34.751 31.918C31.7341 32.2896 28.9028 32.8282 26.3193 33.5039C27.0259 36.0794 27.9753 38.8008 29.1621 41.5996C29.8388 40.2242 30.5669 38.8401 31.3467 37.4561L31.7969 36.667C32.748 35.0196 33.7359 33.434 34.751 31.918ZM54.2461 31.918C55.2613 33.4342 56.2499 35.0194 57.2012 36.667L57.6514 37.4561C58.431 38.84 59.1583 40.2243 59.835 41.5996C61.0218 38.8008 61.9711 36.0794 62.6777 33.5039C60.0942 32.8283 57.263 32.2895 54.2461 31.918ZM23.6396 17.7754C16.9902 22.945 12.3611 30.5875 11.1289 39.3223C13.4918 36.3952 18.0104 33.8813 23.8984 32.1074C22.5346 26.3085 22.4155 21.2754 23.6396 17.7754ZM65.6826 18.8613C66.5461 22.2811 66.3268 26.8824 65.0986 32.1055C70.104 33.6131 74.1186 35.6577 76.6621 38.0342C75.2807 30.4223 71.3047 23.7151 65.6826 18.8613ZM32.6943 14.9863C30.6214 14.4143 29.0499 14.585 27.8994 15.249C26.749 15.9133 25.8145 17.1891 25.2734 19.2705C24.7299 21.3616 24.6327 24.1079 25.0557 27.374C25.2282 28.7065 25.486 30.1085 25.8262 31.5664C29.0009 30.7369 32.5156 30.1117 36.2637 29.7373C38.4621 26.6782 40.7605 23.9461 43.0664 21.6113C41.9743 20.5881 40.8896 19.6641 39.8223 18.8486C37.205 16.8491 34.7771 15.5611 32.6943 14.9863ZM59.6855 14.7354C58.7491 14.559 57.629 14.6206 56.3037 14.9863C54.221 15.5611 51.793 16.8491 49.1758 18.8486C48.1083 19.6642 47.0229 20.5879 45.9307 21.6113C48.2366 23.9461 50.5349 26.6782 52.7334 29.7373C56.4814 30.1116 59.9962 30.7361 63.1709 31.5654C63.511 30.1078 63.7699 28.7063 63.9424 27.374C64.3653 24.1079 64.2682 21.3616 63.7246 19.2705C63.3958 18.0057 62.9203 17.0396 62.3408 16.3262C61.4828 15.7563 60.5971 15.225 59.6855 14.7354ZM44.499 23.0078C42.622 24.9076 40.7395 27.0903 38.9092 29.5176C40.7297 29.3965 42.5967 29.333 44.499 29.333L45.4072 29.3379C46.9957 29.3547 48.5584 29.4169 50.0879 29.5186C48.2575 27.0912 46.3761 24.9076 44.499 23.0078ZM43.999 10.8008C39.934 10.8008 36.0401 11.533 32.4404 12.8701C36.0352 13.6229 40.2476 16.2165 44.499 20.2139C48.5085 16.4441 52.4828 13.9211 55.9375 13.0146C52.2326 11.5862 48.2075 10.8008 43.999 10.8008Z" fill="#192237"/>
</svg>
