<svg width="89" height="88" viewBox="0 0 89 88" fill="none" xmlns="http://www.w3.org/2000/svg">
<path d="M44.0908 8.8125C25.8541 9.27447 11.066 23.6069 9.87793 41.6543H9.82031V42.8184C9.80735 43.211 9.79883 43.6052 9.79883 44.001L9.81055 44.9092C10.2924 63.9297 25.8624 79.2011 44.999 79.2012L45.9082 79.1895C64.6266 78.7149 79.7133 63.6276 80.1875 44.9092L80.1992 44.001C80.1991 24.5607 64.4393 8.80089 44.999 8.80078L44.0908 8.8125ZM53.1758 31.3965C57.0639 31.3965 60.2158 34.5485 60.2158 38.4365L60.2158 73.5146C55.6572 75.8698 50.4838 77.2011 44.999 77.2012C39.0315 77.2011 33.4322 75.6254 28.5928 72.8691V38.4365C28.5928 34.5485 31.7447 31.3965 35.6328 31.3965L53.1758 31.3965ZM78.1992 44.001L78.1885 44.8584C77.8962 56.3872 71.7249 66.4531 62.5625 72.1768L62.5625 44.001H78.1992ZM26.2461 71.3984C17.7424 65.5666 12.089 55.8811 11.8096 44.8584L11.7988 44.001H26.2461V71.3984ZM44.999 10.8008C62.5457 10.8009 76.9121 24.4137 78.1162 41.6543H62.5625V38.4365C62.5625 33.2524 58.3599 29.0498 53.1758 29.0498L35.6328 29.0498C30.4487 29.0498 26.2461 33.2524 26.2461 38.4365V41.6543H11.8818C13.0859 24.4137 27.4523 10.8009 44.999 10.8008Z" fill="#0D1A35"/>
</svg>
