<svg width="89" height="88" viewBox="0 0 89 88" fill="none" xmlns="http://www.w3.org/2000/svg">
<path d="M9.90574 41.3234C10.5756 32.7934 14.4185 24.8243 20.676 18.9889C26.9336 13.1534 35.1512 9.8755 43.7072 9.80204C52.2631 9.72858 60.5358 12.8649 66.8926 18.5921C73.2495 24.3192 77.2286 32.2212 78.0448 40.7384" stroke="#0D1A35" stroke-width="2"/>
<mask id="path-2-inside-1_682_3746" fill="white">
<path d="M79.2008 44.0008C79.2008 48.6233 78.2903 53.2006 76.5213 57.4712C74.7524 61.7419 72.1596 65.6223 68.8909 68.8909C65.6223 72.1596 61.7419 74.7524 57.4712 76.5213C53.2006 78.2903 48.6233 79.2008 44.0008 79.2008C39.3782 79.2008 34.801 78.2903 30.5303 76.5213C26.2597 74.7524 22.3792 72.1596 19.1106 68.8909C15.842 65.6223 13.2492 61.7419 11.4802 57.4712C9.71126 53.2006 8.80078 48.6233 8.80078 44.0008H21.2602C21.2602 46.9871 21.8484 49.9442 22.9913 52.7032C24.1341 55.4622 25.8091 57.9691 27.9208 60.0808C30.0324 62.1924 32.5393 63.8675 35.2984 65.0103C38.0574 66.1531 41.0144 66.7413 44.0008 66.7413C46.9871 66.7413 49.9442 66.1531 52.7032 65.0103C55.4622 63.8675 57.9691 62.1924 60.0808 60.0808C62.1924 57.9691 63.8675 55.4622 65.0103 52.7032C66.1531 49.9442 66.7413 46.9871 66.7413 44.0008H79.2008Z"/>
</mask>
<path d="M79.2008 44.0008C79.2008 48.6233 78.2903 53.2006 76.5213 57.4712C74.7524 61.7419 72.1596 65.6223 68.8909 68.8909C65.6223 72.1596 61.7419 74.7524 57.4712 76.5213C53.2006 78.2903 48.6233 79.2008 44.0008 79.2008C39.3782 79.2008 34.801 78.2903 30.5303 76.5213C26.2597 74.7524 22.3792 72.1596 19.1106 68.8909C15.842 65.6223 13.2492 61.7419 11.4802 57.4712C9.71126 53.2006 8.80078 48.6233 8.80078 44.0008H21.2602C21.2602 46.9871 21.8484 49.9442 22.9913 52.7032C24.1341 55.4622 25.8091 57.9691 27.9208 60.0808C30.0324 62.1924 32.5393 63.8675 35.2984 65.0103C38.0574 66.1531 41.0144 66.7413 44.0008 66.7413C46.9871 66.7413 49.9442 66.1531 52.7032 65.0103C55.4622 63.8675 57.9691 62.1924 60.0808 60.0808C62.1924 57.9691 63.8675 55.4622 65.0103 52.7032C66.1531 49.9442 66.7413 46.9871 66.7413 44.0008H79.2008Z" stroke="#0D1A35" stroke-width="4" mask="url(#path-2-inside-1_682_3746)"/>
<mask id="path-3-inside-2_682_3746" fill="white">
<path d="M66.7814 43.9991C66.7814 41.0073 66.1921 38.0448 65.0472 35.2807C63.9023 32.5166 62.2242 30.0051 60.1086 27.8896C57.9931 25.774 55.4816 24.0959 52.7175 22.951C49.9534 21.8061 46.9909 21.2168 43.9991 21.2168C41.0073 21.2168 38.0448 21.8061 35.2807 22.951C32.5166 24.0959 30.0051 25.774 27.8896 27.8896C25.774 30.0051 24.0959 32.5166 22.951 35.2807C21.8061 38.0448 21.2168 41.0073 21.2168 43.9991L33.4919 43.9991C33.4919 42.6193 33.7636 41.253 34.2917 39.9782C34.8197 38.7034 35.5937 37.5451 36.5694 36.5694C37.5451 35.5937 38.7034 34.8197 39.9782 34.2917C41.253 33.7636 42.6193 33.4919 43.9991 33.4919C45.3789 33.4919 46.7453 33.7636 48.0201 34.2917C49.2949 34.8197 50.4532 35.5937 51.4289 36.5694C52.4045 37.5451 53.1785 38.7034 53.7065 39.9782C54.2346 41.253 54.5064 42.6193 54.5064 43.9991H66.7814Z"/>
</mask>
<path d="M66.7814 43.9991C66.7814 41.0073 66.1921 38.0448 65.0472 35.2807C63.9023 32.5166 62.2242 30.0051 60.1086 27.8896C57.9931 25.774 55.4816 24.0959 52.7175 22.951C49.9534 21.8061 46.9909 21.2168 43.9991 21.2168C41.0073 21.2168 38.0448 21.8061 35.2807 22.951C32.5166 24.0959 30.0051 25.774 27.8896 27.8896C25.774 30.0051 24.0959 32.5166 22.951 35.2807C21.8061 38.0448 21.2168 41.0073 21.2168 43.9991L33.4919 43.9991C33.4919 42.6193 33.7636 41.253 34.2917 39.9782C34.8197 38.7034 35.5937 37.5451 36.5694 36.5694C37.5451 35.5937 38.7034 34.8197 39.9782 34.2917C41.253 33.7636 42.6193 33.4919 43.9991 33.4919C45.3789 33.4919 46.7453 33.7636 48.0201 34.2917C49.2949 34.8197 50.4532 35.5937 51.4289 36.5694C52.4045 37.5451 53.1785 38.7034 53.7065 39.9782C54.2346 41.253 54.5064 42.6193 54.5064 43.9991H66.7814Z" stroke="#0D1A35" stroke-width="4" mask="url(#path-3-inside-2_682_3746)"/>
<path d="M43.9992 55.8265C41.2896 55.8265 38.6622 54.8961 36.5564 53.191C34.4506 51.4859 32.9941 49.1094 32.4305 46.4591C31.867 43.8088 32.2305 41.0453 33.4604 38.6309C34.6902 36.2165 36.7118 34.2976 39.187 33.1951" stroke="#0D1A35" stroke-width="2"/>
</svg>
