<svg width="80" height="80" viewBox="0 0 80 80" fill="none" xmlns="http://www.w3.org/2000/svg">
<path d="M65.2841 28.579C66.5129 28.579 67.5091 27.5829 67.5091 26.354C67.5091 25.1252 66.5129 24.129 65.2841 24.129C64.0553 24.129 63.059 25.1252 63.059 26.354C63.059 27.5829 64.0553 28.579 65.2841 28.579Z" fill="url(#paint0_linear_634_2411)"/>
<path d="M61.8142 33.6324C62.8764 33.6324 63.7375 32.7713 63.7375 31.7091C63.7375 30.6469 62.8764 29.7858 61.8142 29.7858C60.752 29.7858 59.8909 30.6469 59.8909 31.7091C59.8909 32.7713 60.752 33.6324 61.8142 33.6324Z" fill="url(#paint1_linear_634_2411)"/>
<path d="M54.6867 39.6664C55.4157 39.6664 56.0066 39.0754 56.0066 38.3464C56.0066 37.6175 55.4157 37.0265 54.6867 37.0265C53.9577 37.0265 53.3668 37.6175 53.3668 38.3464C53.3668 39.0754 53.9577 39.6664 54.6867 39.6664Z" fill="url(#paint2_linear_634_2411)"/>
<path d="M58.5332 37.366C59.3663 37.366 60.0417 36.6906 60.0417 35.8575C60.0417 35.0244 59.3663 34.349 58.5332 34.349C57.7001 34.349 57.0248 35.0244 57.0248 35.8575C57.0248 36.6906 57.7001 37.366 58.5332 37.366Z" fill="url(#paint3_linear_634_2411)"/>
<path d="M50.9912 40.9109C51.6368 40.9109 52.1602 40.3875 52.1602 39.7418C52.1602 39.0961 51.6368 38.5727 50.9912 38.5727C50.3455 38.5727 49.8221 39.0961 49.8221 39.7418C49.8221 40.3875 50.3455 40.9109 50.9912 40.9109Z" fill="url(#paint4_linear_634_2411)"/>
<path d="M66.7544 38.1956C67.9833 38.1956 68.9794 37.1994 68.9794 35.9706C68.9794 34.7418 67.9833 33.7456 66.7544 33.7456C65.5256 33.7456 64.5294 34.7418 64.5294 35.9706C64.5294 37.1994 65.5256 38.1956 66.7544 38.1956Z" fill="url(#paint5_linear_634_2411)"/>
<path d="M61.5877 41.6274C62.6499 41.6274 63.511 40.7663 63.511 39.7041C63.511 38.6419 62.6499 37.7808 61.5877 37.7808C60.5255 37.7808 59.6644 38.6419 59.6644 39.7041C59.6644 40.7663 60.5255 41.6274 61.5877 41.6274Z" fill="url(#paint6_linear_634_2411)"/>
<path d="M52.4991 44.6821C53.2281 44.6821 53.819 44.0911 53.819 43.3621C53.819 42.6332 53.2281 42.0422 52.4991 42.0422C51.7702 42.0422 51.1792 42.6332 51.1792 43.3621C51.1792 44.0911 51.7702 44.6821 52.4991 44.6821Z" fill="url(#paint7_linear_634_2411)"/>
<path d="M57.0242 43.9278C57.8573 43.9278 58.5327 43.2524 58.5327 42.4193C58.5327 41.5862 57.8573 40.9109 57.0242 40.9109C56.1911 40.9109 55.5157 41.5862 55.5157 42.4193C55.5157 43.2524 56.1911 43.9278 57.0242 43.9278Z" fill="url(#paint8_linear_634_2411)"/>
<path d="M48.5771 44.4558C49.2227 44.4558 49.7461 43.9324 49.7461 43.2867C49.7461 42.6411 49.2227 42.1177 48.5771 42.1177C47.9314 42.1177 47.408 42.6411 47.408 43.2867C47.408 43.9324 47.9314 44.4558 48.5771 44.4558Z" fill="url(#paint9_linear_634_2411)"/>
<path d="M64.6044 47.699C65.8332 47.699 66.8294 46.7029 66.8294 45.474C66.8294 44.2452 65.8332 43.249 64.6044 43.249C63.3755 43.249 62.3794 44.2452 62.3794 45.474C62.3794 46.7029 63.3755 47.699 64.6044 47.699Z" fill="url(#paint10_linear_634_2411)"/>
<path d="M58.458 49.0189C59.5203 49.0189 60.3814 48.1579 60.3814 47.0956C60.3814 46.0334 59.5203 45.1723 58.458 45.1723C57.3958 45.1723 56.5347 46.0334 56.5347 47.0956C56.5347 48.1579 57.3958 49.0189 58.458 49.0189Z" fill="url(#paint11_linear_634_2411)"/>
<path d="M48.69 48.5664C49.4189 48.5664 50.0099 47.9755 50.0099 47.2465C50.0099 46.5176 49.4189 45.9266 48.69 45.9266C47.961 45.9266 47.3701 46.5176 47.3701 47.2465C47.3701 47.9755 47.961 48.5664 48.69 48.5664Z" fill="url(#paint12_linear_634_2411)"/>
<path d="M53.216 49.4715C54.0491 49.4715 54.7245 48.7962 54.7245 47.9631C54.7245 47.1299 54.0491 46.4546 53.216 46.4546C52.3829 46.4546 51.7075 47.1299 51.7075 47.9631C51.7075 48.7962 52.3829 49.4715 53.216 49.4715Z" fill="url(#paint13_linear_634_2411)"/>
<path d="M45.0322 46.9448C45.6778 46.9448 46.2012 46.4214 46.2012 45.7757C46.2012 45.1301 45.6778 44.6067 45.0322 44.6067C44.3865 44.6067 43.8631 45.1301 43.8631 45.7757C43.8631 46.4214 44.3865 46.9448 45.0322 46.9448Z" fill="url(#paint14_linear_634_2411)"/>
<path d="M59.2496 55.7694C60.4784 55.7694 61.4746 54.7732 61.4746 53.5444C61.4746 52.3155 60.4784 51.3193 59.2496 51.3193C58.0207 51.3193 57.0246 52.3155 57.0246 53.5444C57.0246 54.7732 58.0207 55.7694 59.2496 55.7694Z" fill="url(#paint15_linear_634_2411)"/>
<path d="M52.9136 54.7889C53.9758 54.7889 54.8369 53.9278 54.8369 52.8656C54.8369 51.8034 53.9758 50.9423 52.9136 50.9423C51.8514 50.9423 50.9903 51.8034 50.9903 52.8656C50.9903 53.9278 51.8514 54.7889 52.9136 54.7889Z" fill="url(#paint16_linear_634_2411)"/>
<path d="M43.7495 50.7914C44.4785 50.7914 45.0695 50.2004 45.0695 49.4715C45.0695 48.7425 44.4785 48.1516 43.7495 48.1516C43.0206 48.1516 42.4296 48.7425 42.4296 49.4715C42.4296 50.2004 43.0206 50.7914 43.7495 50.7914Z" fill="url(#paint17_linear_634_2411)"/>
<path d="M47.7093 53.3181C48.5424 53.3181 49.2178 52.6428 49.2178 51.8096C49.2178 50.9765 48.5424 50.3012 47.7093 50.3012C46.8762 50.3012 46.2008 50.9765 46.2008 51.8096C46.2008 52.6428 46.8762 53.3181 47.7093 53.3181Z" fill="url(#paint18_linear_634_2411)"/>
<path d="M40.8458 47.963C41.4915 47.963 42.0149 47.4396 42.0149 46.7939C42.0149 46.1483 41.4915 45.6248 40.8458 45.6248C40.2002 45.6248 39.6768 46.1483 39.6768 46.7939C39.6768 47.4396 40.2002 47.963 40.8458 47.963Z" fill="url(#paint19_linear_634_2411)"/>
<path d="M51.293 61.3885C52.5219 61.3885 53.518 60.3923 53.518 59.1635C53.518 57.9346 52.5219 56.9385 51.293 56.9385C50.0642 56.9385 49.068 57.9346 49.068 59.1635C49.068 60.3923 50.0642 61.3885 51.293 61.3885Z" fill="url(#paint20_linear_634_2411)"/>
<path d="M45.6356 58.1829C46.6978 58.1829 47.5589 57.3218 47.5589 56.2596C47.5589 55.1974 46.6978 54.3363 45.6356 54.3363C44.5734 54.3363 43.7123 55.1974 43.7123 56.2596C43.7123 57.3218 44.5734 58.1829 45.6356 58.1829Z" fill="url(#paint21_linear_634_2411)"/>
<path d="M38.3194 51.0931C39.0483 51.0931 39.6393 50.5021 39.6393 49.7732C39.6393 49.0442 39.0483 48.4532 38.3194 48.4532C37.5904 48.4532 36.9995 49.0442 36.9995 49.7732C36.9995 50.5021 37.5904 51.0931 38.3194 51.0931Z" fill="url(#paint22_linear_634_2411)"/>
<path d="M41.1485 54.902C41.9816 54.902 42.657 54.2266 42.657 53.3935C42.657 52.5604 41.9816 51.8851 41.1485 51.8851C40.3154 51.8851 39.64 52.5604 39.64 53.3935C39.64 54.2266 40.3154 54.902 41.1485 54.902Z" fill="url(#paint23_linear_634_2411)"/>
<path d="M36.5849 47.435C37.2305 47.435 37.7539 46.9116 37.7539 46.266C37.7539 45.6203 37.2305 45.0969 36.5849 45.0969C35.9392 45.0969 35.4158 45.6203 35.4158 46.266C35.4158 46.9116 35.9392 47.435 36.5849 47.435Z" fill="url(#paint24_linear_634_2411)"/>
<path d="M41.864 63.8021C43.0929 63.8021 44.089 62.8059 44.089 61.5771C44.089 60.3483 43.0929 59.3521 41.864 59.3521C40.6352 59.3521 39.639 60.3483 39.639 61.5771C39.639 62.8059 40.6352 63.8021 41.864 63.8021Z" fill="url(#paint25_linear_634_2411)"/>
<path d="M37.6411 58.711C38.7033 58.711 39.5644 57.8499 39.5644 56.7877C39.5644 55.7254 38.7033 54.8643 37.6411 54.8643C36.5789 54.8643 35.7178 55.7254 35.7178 56.7877C35.7178 57.8499 36.5789 58.711 37.6411 58.711Z" fill="url(#paint26_linear_634_2411)"/>
<path d="M33.1154 49.4338C33.8444 49.4338 34.4354 48.8429 34.4354 48.1139C34.4354 47.3849 33.8444 46.794 33.1154 46.794C32.3865 46.794 31.7956 47.3849 31.7956 48.1139C31.7956 48.8429 32.3865 49.4338 33.1154 49.4338Z" fill="url(#paint27_linear_634_2411)"/>
<path d="M34.5111 54.0347C35.3442 54.0347 36.0196 53.3593 36.0196 52.5262C36.0196 51.6931 35.3442 51.0177 34.5111 51.0177C33.678 51.0177 33.0026 51.6931 33.0026 52.5262C33.0026 53.3593 33.678 54.0347 34.5111 54.0347Z" fill="url(#paint28_linear_634_2411)"/>
<path d="M32.7759 45.3609C33.4215 45.3609 33.9449 44.8375 33.9449 44.1918C33.9449 43.5462 33.4215 43.0228 32.7759 43.0228C32.1302 43.0228 31.6068 43.5462 31.6068 44.1918C31.6068 44.8375 32.1302 45.3609 32.7759 45.3609Z" fill="url(#paint29_linear_634_2411)"/>
<path d="M32.2104 62.5953C33.4393 62.5953 34.4354 61.5991 34.4354 60.3703C34.4354 59.1414 33.4393 58.1453 32.2104 58.1453C30.9816 58.1453 29.9855 59.1414 29.9855 60.3703C29.9855 61.5991 30.9816 62.5953 32.2104 62.5953Z" fill="url(#paint30_linear_634_2411)"/>
<path d="M29.9855 56.3351C31.0477 56.3351 31.9087 55.474 31.9087 54.4118C31.9087 53.3496 31.0477 52.4885 29.9855 52.4885C28.9232 52.4885 28.0621 53.3496 28.0621 54.4118C28.0621 55.474 28.9232 56.3351 29.9855 56.3351Z" fill="url(#paint31_linear_634_2411)"/>
<path d="M28.8922 46.0397C29.6211 46.0397 30.2121 45.4487 30.2121 44.7198C30.2121 43.9908 29.6211 43.3999 28.8922 43.3999C28.1632 43.3999 27.5723 43.9908 27.5723 44.7198C27.5723 45.4487 28.1632 46.0397 28.8922 46.0397Z" fill="url(#paint32_linear_634_2411)"/>
<path d="M28.59 50.7914C29.4231 50.7914 30.0985 50.116 30.0985 49.2829C30.0985 48.4498 29.4231 47.7745 28.59 47.7745C27.7569 47.7745 27.0816 48.4498 27.0816 49.2829C27.0816 50.116 27.7569 50.7914 28.59 50.7914Z" fill="url(#paint33_linear_634_2411)"/>
<path d="M29.9853 42.0799C30.6309 42.0799 31.1543 41.5565 31.1543 40.9109C31.1543 40.2652 30.6309 39.7418 29.9853 39.7418C29.3396 39.7418 28.8162 40.2652 28.8162 40.9109C28.8162 41.5565 29.3396 42.0799 29.9853 42.0799Z" fill="url(#paint34_linear_634_2411)"/>
<path d="M23.612 58.0322C24.8408 58.0322 25.837 57.036 25.837 55.8071C25.837 54.5783 24.8408 53.5821 23.612 53.5821C22.3831 53.5821 21.387 54.5783 21.387 55.8071C21.387 57.036 22.3831 58.0322 23.612 58.0322Z" fill="url(#paint35_linear_634_2411)"/>
<path d="M23.6878 51.3571C24.75 51.3571 25.6111 50.496 25.6111 49.4338C25.6111 48.3716 24.75 47.5105 23.6878 47.5105C22.6256 47.5105 21.7645 48.3716 21.7645 49.4338C21.7645 50.496 22.6256 51.3571 23.6878 51.3571Z" fill="url(#paint36_linear_634_2411)"/>
<path d="M26.1761 41.3257C26.9051 41.3257 27.496 40.7347 27.496 40.0058C27.496 39.2768 26.9051 38.6858 26.1761 38.6858C25.4471 38.6858 24.8562 39.2768 24.8562 40.0058C24.8562 40.7347 25.4471 41.3257 26.1761 41.3257Z" fill="url(#paint37_linear_634_2411)"/>
<path d="M24.2526 45.6626C25.0857 45.6626 25.7611 44.9872 25.7611 44.1541C25.7611 43.321 25.0857 42.6456 24.2526 42.6456C23.4195 42.6456 22.7441 43.321 22.7441 44.1541C22.7441 44.9872 23.4195 45.6626 24.2526 45.6626Z" fill="url(#paint38_linear_634_2411)"/>
<path d="M28.5526 38.0448C29.1983 38.0448 29.7217 37.5214 29.7217 36.8757C29.7217 36.23 29.1983 35.7066 28.5526 35.7066C27.9069 35.7066 27.3835 36.23 27.3835 36.8757C27.3835 37.5214 27.9069 38.0448 28.5526 38.0448Z" fill="url(#paint39_linear_634_2411)"/>
<path d="M17.2389 50.6783C18.4678 50.6783 19.4639 49.6821 19.4639 48.4533C19.4639 47.2244 18.4678 46.2282 17.2389 46.2282C16.0101 46.2282 15.0139 47.2244 15.0139 48.4533C15.0139 49.6821 16.0101 50.6783 17.2389 50.6783Z" fill="url(#paint40_linear_634_2411)"/>
<path d="M19.6147 44.4558C20.6769 44.4558 21.538 43.5947 21.538 42.5324C21.538 41.4702 20.6769 40.6091 19.6147 40.6091C18.5525 40.6091 17.6914 41.4702 17.6914 42.5324C17.6914 43.5947 18.5525 44.4558 19.6147 44.4558Z" fill="url(#paint41_linear_634_2411)"/>
<path d="M25.3089 35.9328C26.0379 35.9328 26.6288 35.3419 26.6288 34.6129C26.6288 33.8839 26.0379 33.293 25.3089 33.293C24.5799 33.293 23.989 33.8839 23.989 34.6129C23.989 35.3419 24.5799 35.9328 25.3089 35.9328Z" fill="url(#paint42_linear_634_2411)"/>
<path d="M22.0283 39.3269C22.8614 39.3269 23.5367 38.6516 23.5367 37.8185C23.5367 36.9853 22.8614 36.31 22.0283 36.31C21.1952 36.31 20.5198 36.9853 20.5198 37.8185C20.5198 38.6516 21.1952 39.3269 22.0283 39.3269Z" fill="url(#paint43_linear_634_2411)"/>
<path d="M28.6659 33.7079C29.3116 33.7079 29.835 33.1844 29.835 32.5388C29.835 31.8931 29.3116 31.3697 28.6659 31.3697C28.0202 31.3697 27.4968 31.8931 27.4968 32.5388C27.4968 33.1844 28.0202 33.7079 28.6659 33.7079Z" fill="url(#paint44_linear_634_2411)"/>
<path d="M13.9575 41.552C15.1863 41.552 16.1825 40.5558 16.1825 39.327C16.1825 38.0981 15.1863 37.1019 13.9575 37.1019C12.7286 37.1019 11.7324 38.0981 11.7324 39.327C11.7324 40.5558 12.7286 41.552 13.9575 41.552Z" fill="url(#paint45_linear_634_2411)"/>
<path d="M18.2942 36.574C19.3564 36.574 20.2175 35.7129 20.2175 34.6507C20.2175 33.5885 19.3564 32.7274 18.2942 32.7274C17.232 32.7274 16.3709 33.5885 16.3709 34.6507C16.3709 35.7129 17.232 36.574 18.2942 36.574Z" fill="url(#paint46_linear_634_2411)"/>
<path d="M26.478 30.6155C27.207 30.6155 27.7979 30.0245 27.7979 29.2956C27.7979 28.5666 27.207 27.9756 26.478 27.9756C25.749 27.9756 25.1581 28.5666 25.1581 29.2956C25.1581 30.0245 25.749 30.6155 26.478 30.6155Z" fill="url(#paint47_linear_634_2411)"/>
<path d="M22.2537 32.6143C23.0868 32.6143 23.7622 31.9389 23.7622 31.1058C23.7622 30.2727 23.0868 29.5973 22.2537 29.5973C21.4206 29.5973 20.7452 30.2727 20.7452 31.1058C20.7452 31.9389 21.4206 32.6143 22.2537 32.6143Z" fill="url(#paint48_linear_634_2411)"/>
<path d="M30.3617 29.7481C31.0074 29.7481 31.5308 29.2247 31.5308 28.5791C31.5308 27.9334 31.0074 27.41 30.3617 27.41C29.716 27.41 29.1926 27.9334 29.1926 28.5791C29.1926 29.2247 29.716 29.7481 30.3617 29.7481Z" fill="url(#paint49_linear_634_2411)"/>
<path d="M14.1841 31.8223C15.4129 31.8223 16.4091 30.8261 16.4091 29.5973C16.4091 28.3684 15.4129 27.3723 14.1841 27.3723C12.9553 27.3723 11.9591 28.3684 11.9591 29.5973C11.9591 30.8261 12.9553 31.8223 14.1841 31.8223Z" fill="url(#paint50_linear_634_2411)"/>
<path d="M19.9167 28.7299C20.9789 28.7299 21.84 27.8688 21.84 26.8066C21.84 25.7443 20.9789 24.8832 19.9167 24.8832C18.8545 24.8832 17.9934 25.7443 17.9934 26.8066C17.9934 27.8688 18.8545 28.7299 19.9167 28.7299Z" fill="url(#paint51_linear_634_2411)"/>
<path d="M29.4577 26.0523C30.1866 26.0523 30.7775 25.4614 30.7775 24.7324C30.7775 24.0034 30.1866 23.4125 29.4577 23.4125C28.7287 23.4125 28.1377 24.0034 28.1377 24.7324C28.1377 25.4614 28.7287 26.0523 29.4577 26.0523Z" fill="url(#paint52_linear_634_2411)"/>
<path d="M24.8567 26.3917C25.6898 26.3917 26.3652 25.7164 26.3652 24.8833C26.3652 24.0502 25.6898 23.3748 24.8567 23.3748C24.0236 23.3748 23.3482 24.0502 23.3482 24.8833C23.3482 25.7164 24.0236 26.3917 24.8567 26.3917Z" fill="url(#paint53_linear_634_2411)"/>
<path d="M33.3413 26.618C33.987 26.618 34.5104 26.0946 34.5104 25.449C34.5104 24.8033 33.987 24.2799 33.3413 24.2799C32.6957 24.2799 32.1722 24.8033 32.1722 25.449C32.1722 26.0946 32.6957 26.618 33.3413 26.618Z" fill="url(#paint54_linear_634_2411)"/>
<path d="M17.8797 22.8091C19.1085 22.8091 20.1047 21.8129 20.1047 20.5841C20.1047 19.3552 19.1085 18.3591 17.8797 18.3591C16.6508 18.3591 15.6547 19.3552 15.6547 20.5841C15.6547 21.8129 16.6508 22.8091 17.8797 22.8091Z" fill="url(#paint55_linear_634_2411)"/>
<path d="M24.2154 21.9794C25.2776 21.9794 26.1387 21.1183 26.1387 20.0561C26.1387 18.9939 25.2776 18.1328 24.2154 18.1328C23.1532 18.1328 22.292 18.9939 22.292 20.0561C22.292 21.1183 23.1532 21.9794 24.2154 21.9794Z" fill="url(#paint56_linear_634_2411)"/>
<path d="M33.8695 22.8845C34.5985 22.8845 35.1894 22.2936 35.1894 21.5646C35.1894 20.8356 34.5985 20.2447 33.8695 20.2447C33.1406 20.2447 32.5496 20.8356 32.5496 21.5646C32.5496 22.2936 33.1406 22.8845 33.8695 22.8845Z" fill="url(#paint57_linear_634_2411)"/>
<path d="M29.5328 21.5646C30.3659 21.5646 31.0413 20.8892 31.0413 20.0561C31.0413 19.223 30.3659 18.5476 29.5328 18.5476C28.6997 18.5476 28.0243 19.223 28.0243 20.0561C28.0243 20.8892 28.6997 21.5646 29.5328 21.5646Z" fill="url(#paint58_linear_634_2411)"/>
<path d="M37.2256 24.8078C37.8713 24.8078 38.3947 24.2844 38.3947 23.6387C38.3947 22.9931 37.8713 22.4697 37.2256 22.4697C36.5799 22.4697 36.0565 22.9931 36.0565 23.6387C36.0565 24.2844 36.5799 24.8078 37.2256 24.8078Z" fill="url(#paint59_linear_634_2411)"/>
<defs>
<linearGradient id="paint0_linear_634_2411" x1="-4.25626" y1="27.8345" x2="37.3648" y2="101.517" gradientUnits="userSpaceOnUse">
<stop stop-color="#35FF89"/>
<stop offset="1" stop-color="#3177F3"/>
</linearGradient>
<linearGradient id="paint1_linear_634_2411" x1="-4.25626" y1="27.8345" x2="37.3648" y2="101.517" gradientUnits="userSpaceOnUse">
<stop stop-color="#35FF89"/>
<stop offset="1" stop-color="#3177F3"/>
</linearGradient>
<linearGradient id="paint2_linear_634_2411" x1="-4.25626" y1="27.8345" x2="37.3648" y2="101.517" gradientUnits="userSpaceOnUse">
<stop stop-color="#35FF89"/>
<stop offset="1" stop-color="#3177F3"/>
</linearGradient>
<linearGradient id="paint3_linear_634_2411" x1="-4.25626" y1="27.8345" x2="37.3648" y2="101.517" gradientUnits="userSpaceOnUse">
<stop stop-color="#35FF89"/>
<stop offset="1" stop-color="#3177F3"/>
</linearGradient>
<linearGradient id="paint4_linear_634_2411" x1="-4.25626" y1="27.8345" x2="37.3648" y2="101.517" gradientUnits="userSpaceOnUse">
<stop stop-color="#35FF89"/>
<stop offset="1" stop-color="#3177F3"/>
</linearGradient>
<linearGradient id="paint5_linear_634_2411" x1="-4.25626" y1="27.8345" x2="37.3648" y2="101.517" gradientUnits="userSpaceOnUse">
<stop stop-color="#35FF89"/>
<stop offset="1" stop-color="#3177F3"/>
</linearGradient>
<linearGradient id="paint6_linear_634_2411" x1="-4.25626" y1="27.8345" x2="37.3648" y2="101.517" gradientUnits="userSpaceOnUse">
<stop stop-color="#35FF89"/>
<stop offset="1" stop-color="#3177F3"/>
</linearGradient>
<linearGradient id="paint7_linear_634_2411" x1="-4.25626" y1="27.8345" x2="37.3648" y2="101.517" gradientUnits="userSpaceOnUse">
<stop stop-color="#35FF89"/>
<stop offset="1" stop-color="#3177F3"/>
</linearGradient>
<linearGradient id="paint8_linear_634_2411" x1="-4.25626" y1="27.8345" x2="37.3648" y2="101.517" gradientUnits="userSpaceOnUse">
<stop stop-color="#35FF89"/>
<stop offset="1" stop-color="#3177F3"/>
</linearGradient>
<linearGradient id="paint9_linear_634_2411" x1="-4.25626" y1="27.8345" x2="37.3648" y2="101.517" gradientUnits="userSpaceOnUse">
<stop stop-color="#35FF89"/>
<stop offset="1" stop-color="#3177F3"/>
</linearGradient>
<linearGradient id="paint10_linear_634_2411" x1="-4.25626" y1="27.8345" x2="37.3648" y2="101.517" gradientUnits="userSpaceOnUse">
<stop stop-color="#35FF89"/>
<stop offset="1" stop-color="#3177F3"/>
</linearGradient>
<linearGradient id="paint11_linear_634_2411" x1="-4.25626" y1="27.8345" x2="37.3648" y2="101.517" gradientUnits="userSpaceOnUse">
<stop stop-color="#35FF89"/>
<stop offset="1" stop-color="#3177F3"/>
</linearGradient>
<linearGradient id="paint12_linear_634_2411" x1="-4.25626" y1="27.8345" x2="37.3648" y2="101.517" gradientUnits="userSpaceOnUse">
<stop stop-color="#35FF89"/>
<stop offset="1" stop-color="#3177F3"/>
</linearGradient>
<linearGradient id="paint13_linear_634_2411" x1="-4.25626" y1="27.8345" x2="37.3648" y2="101.517" gradientUnits="userSpaceOnUse">
<stop stop-color="#35FF89"/>
<stop offset="1" stop-color="#3177F3"/>
</linearGradient>
<linearGradient id="paint14_linear_634_2411" x1="-4.25626" y1="27.8345" x2="37.3648" y2="101.517" gradientUnits="userSpaceOnUse">
<stop stop-color="#35FF89"/>
<stop offset="1" stop-color="#3177F3"/>
</linearGradient>
<linearGradient id="paint15_linear_634_2411" x1="-4.25626" y1="27.8345" x2="37.3648" y2="101.517" gradientUnits="userSpaceOnUse">
<stop stop-color="#35FF89"/>
<stop offset="1" stop-color="#3177F3"/>
</linearGradient>
<linearGradient id="paint16_linear_634_2411" x1="-4.25626" y1="27.8345" x2="37.3648" y2="101.517" gradientUnits="userSpaceOnUse">
<stop stop-color="#35FF89"/>
<stop offset="1" stop-color="#3177F3"/>
</linearGradient>
<linearGradient id="paint17_linear_634_2411" x1="-4.25626" y1="27.8345" x2="37.3648" y2="101.517" gradientUnits="userSpaceOnUse">
<stop stop-color="#35FF89"/>
<stop offset="1" stop-color="#3177F3"/>
</linearGradient>
<linearGradient id="paint18_linear_634_2411" x1="-4.25626" y1="27.8345" x2="37.3648" y2="101.517" gradientUnits="userSpaceOnUse">
<stop stop-color="#35FF89"/>
<stop offset="1" stop-color="#3177F3"/>
</linearGradient>
<linearGradient id="paint19_linear_634_2411" x1="-4.25626" y1="27.8345" x2="37.3648" y2="101.517" gradientUnits="userSpaceOnUse">
<stop stop-color="#35FF89"/>
<stop offset="1" stop-color="#3177F3"/>
</linearGradient>
<linearGradient id="paint20_linear_634_2411" x1="-4.25626" y1="27.8345" x2="37.3648" y2="101.517" gradientUnits="userSpaceOnUse">
<stop stop-color="#35FF89"/>
<stop offset="1" stop-color="#3177F3"/>
</linearGradient>
<linearGradient id="paint21_linear_634_2411" x1="-4.25626" y1="27.8345" x2="37.3648" y2="101.517" gradientUnits="userSpaceOnUse">
<stop stop-color="#35FF89"/>
<stop offset="1" stop-color="#3177F3"/>
</linearGradient>
<linearGradient id="paint22_linear_634_2411" x1="-4.25626" y1="27.8345" x2="37.3648" y2="101.517" gradientUnits="userSpaceOnUse">
<stop stop-color="#35FF89"/>
<stop offset="1" stop-color="#3177F3"/>
</linearGradient>
<linearGradient id="paint23_linear_634_2411" x1="-4.25626" y1="27.8345" x2="37.3648" y2="101.517" gradientUnits="userSpaceOnUse">
<stop stop-color="#35FF89"/>
<stop offset="1" stop-color="#3177F3"/>
</linearGradient>
<linearGradient id="paint24_linear_634_2411" x1="-4.25626" y1="27.8345" x2="37.3648" y2="101.517" gradientUnits="userSpaceOnUse">
<stop stop-color="#35FF89"/>
<stop offset="1" stop-color="#3177F3"/>
</linearGradient>
<linearGradient id="paint25_linear_634_2411" x1="-4.25626" y1="27.8345" x2="37.3648" y2="101.517" gradientUnits="userSpaceOnUse">
<stop stop-color="#35FF89"/>
<stop offset="1" stop-color="#3177F3"/>
</linearGradient>
<linearGradient id="paint26_linear_634_2411" x1="-4.25626" y1="27.8345" x2="37.3648" y2="101.517" gradientUnits="userSpaceOnUse">
<stop stop-color="#35FF89"/>
<stop offset="1" stop-color="#3177F3"/>
</linearGradient>
<linearGradient id="paint27_linear_634_2411" x1="-4.25626" y1="27.8345" x2="37.3648" y2="101.517" gradientUnits="userSpaceOnUse">
<stop stop-color="#35FF89"/>
<stop offset="1" stop-color="#3177F3"/>
</linearGradient>
<linearGradient id="paint28_linear_634_2411" x1="-4.25626" y1="27.8345" x2="37.3648" y2="101.517" gradientUnits="userSpaceOnUse">
<stop stop-color="#35FF89"/>
<stop offset="1" stop-color="#3177F3"/>
</linearGradient>
<linearGradient id="paint29_linear_634_2411" x1="-4.25626" y1="27.8345" x2="37.3648" y2="101.517" gradientUnits="userSpaceOnUse">
<stop stop-color="#35FF89"/>
<stop offset="1" stop-color="#3177F3"/>
</linearGradient>
<linearGradient id="paint30_linear_634_2411" x1="-4.25626" y1="27.8345" x2="37.3648" y2="101.517" gradientUnits="userSpaceOnUse">
<stop stop-color="#35FF89"/>
<stop offset="1" stop-color="#3177F3"/>
</linearGradient>
<linearGradient id="paint31_linear_634_2411" x1="-4.25626" y1="27.8345" x2="37.3648" y2="101.517" gradientUnits="userSpaceOnUse">
<stop stop-color="#35FF89"/>
<stop offset="1" stop-color="#3177F3"/>
</linearGradient>
<linearGradient id="paint32_linear_634_2411" x1="-4.25626" y1="27.8345" x2="37.3648" y2="101.517" gradientUnits="userSpaceOnUse">
<stop stop-color="#35FF89"/>
<stop offset="1" stop-color="#3177F3"/>
</linearGradient>
<linearGradient id="paint33_linear_634_2411" x1="-4.25626" y1="27.8345" x2="37.3648" y2="101.517" gradientUnits="userSpaceOnUse">
<stop stop-color="#35FF89"/>
<stop offset="1" stop-color="#3177F3"/>
</linearGradient>
<linearGradient id="paint34_linear_634_2411" x1="-4.25626" y1="27.8345" x2="37.3648" y2="101.517" gradientUnits="userSpaceOnUse">
<stop stop-color="#35FF89"/>
<stop offset="1" stop-color="#3177F3"/>
</linearGradient>
<linearGradient id="paint35_linear_634_2411" x1="-4.25626" y1="27.8345" x2="37.3648" y2="101.517" gradientUnits="userSpaceOnUse">
<stop stop-color="#35FF89"/>
<stop offset="1" stop-color="#3177F3"/>
</linearGradient>
<linearGradient id="paint36_linear_634_2411" x1="-4.25626" y1="27.8345" x2="37.3648" y2="101.517" gradientUnits="userSpaceOnUse">
<stop stop-color="#35FF89"/>
<stop offset="1" stop-color="#3177F3"/>
</linearGradient>
<linearGradient id="paint37_linear_634_2411" x1="-4.25626" y1="27.8345" x2="37.3648" y2="101.517" gradientUnits="userSpaceOnUse">
<stop stop-color="#35FF89"/>
<stop offset="1" stop-color="#3177F3"/>
</linearGradient>
<linearGradient id="paint38_linear_634_2411" x1="-4.25626" y1="27.8345" x2="37.3648" y2="101.517" gradientUnits="userSpaceOnUse">
<stop stop-color="#35FF89"/>
<stop offset="1" stop-color="#3177F3"/>
</linearGradient>
<linearGradient id="paint39_linear_634_2411" x1="-4.25626" y1="27.8345" x2="37.3648" y2="101.517" gradientUnits="userSpaceOnUse">
<stop stop-color="#35FF89"/>
<stop offset="1" stop-color="#3177F3"/>
</linearGradient>
<linearGradient id="paint40_linear_634_2411" x1="-4.25626" y1="27.8345" x2="37.3648" y2="101.517" gradientUnits="userSpaceOnUse">
<stop stop-color="#35FF89"/>
<stop offset="1" stop-color="#3177F3"/>
</linearGradient>
<linearGradient id="paint41_linear_634_2411" x1="-4.25626" y1="27.8345" x2="37.3648" y2="101.517" gradientUnits="userSpaceOnUse">
<stop stop-color="#35FF89"/>
<stop offset="1" stop-color="#3177F3"/>
</linearGradient>
<linearGradient id="paint42_linear_634_2411" x1="-4.25626" y1="27.8345" x2="37.3648" y2="101.517" gradientUnits="userSpaceOnUse">
<stop stop-color="#35FF89"/>
<stop offset="1" stop-color="#3177F3"/>
</linearGradient>
<linearGradient id="paint43_linear_634_2411" x1="-4.25626" y1="27.8345" x2="37.3648" y2="101.517" gradientUnits="userSpaceOnUse">
<stop stop-color="#35FF89"/>
<stop offset="1" stop-color="#3177F3"/>
</linearGradient>
<linearGradient id="paint44_linear_634_2411" x1="-4.25626" y1="27.8345" x2="37.3648" y2="101.517" gradientUnits="userSpaceOnUse">
<stop stop-color="#35FF89"/>
<stop offset="1" stop-color="#3177F3"/>
</linearGradient>
<linearGradient id="paint45_linear_634_2411" x1="-4.25626" y1="27.8345" x2="37.3648" y2="101.517" gradientUnits="userSpaceOnUse">
<stop stop-color="#35FF89"/>
<stop offset="1" stop-color="#3177F3"/>
</linearGradient>
<linearGradient id="paint46_linear_634_2411" x1="-4.25626" y1="27.8345" x2="37.3648" y2="101.517" gradientUnits="userSpaceOnUse">
<stop stop-color="#35FF89"/>
<stop offset="1" stop-color="#3177F3"/>
</linearGradient>
<linearGradient id="paint47_linear_634_2411" x1="-4.25626" y1="27.8345" x2="37.3648" y2="101.517" gradientUnits="userSpaceOnUse">
<stop stop-color="#35FF89"/>
<stop offset="1" stop-color="#3177F3"/>
</linearGradient>
<linearGradient id="paint48_linear_634_2411" x1="-4.25626" y1="27.8345" x2="37.3648" y2="101.517" gradientUnits="userSpaceOnUse">
<stop stop-color="#35FF89"/>
<stop offset="1" stop-color="#3177F3"/>
</linearGradient>
<linearGradient id="paint49_linear_634_2411" x1="-4.25626" y1="27.8345" x2="37.3648" y2="101.517" gradientUnits="userSpaceOnUse">
<stop stop-color="#35FF89"/>
<stop offset="1" stop-color="#3177F3"/>
</linearGradient>
<linearGradient id="paint50_linear_634_2411" x1="-4.25626" y1="27.8345" x2="37.3648" y2="101.517" gradientUnits="userSpaceOnUse">
<stop stop-color="#35FF89"/>
<stop offset="1" stop-color="#3177F3"/>
</linearGradient>
<linearGradient id="paint51_linear_634_2411" x1="-4.25626" y1="27.8345" x2="37.3648" y2="101.517" gradientUnits="userSpaceOnUse">
<stop stop-color="#35FF89"/>
<stop offset="1" stop-color="#3177F3"/>
</linearGradient>
<linearGradient id="paint52_linear_634_2411" x1="-4.25626" y1="27.8345" x2="37.3648" y2="101.517" gradientUnits="userSpaceOnUse">
<stop stop-color="#35FF89"/>
<stop offset="1" stop-color="#3177F3"/>
</linearGradient>
<linearGradient id="paint53_linear_634_2411" x1="-4.25626" y1="27.8345" x2="37.3648" y2="101.517" gradientUnits="userSpaceOnUse">
<stop stop-color="#35FF89"/>
<stop offset="1" stop-color="#3177F3"/>
</linearGradient>
<linearGradient id="paint54_linear_634_2411" x1="-4.25626" y1="27.8345" x2="37.3648" y2="101.517" gradientUnits="userSpaceOnUse">
<stop stop-color="#35FF89"/>
<stop offset="1" stop-color="#3177F3"/>
</linearGradient>
<linearGradient id="paint55_linear_634_2411" x1="-4.25626" y1="27.8345" x2="37.3648" y2="101.517" gradientUnits="userSpaceOnUse">
<stop stop-color="#35FF89"/>
<stop offset="1" stop-color="#3177F3"/>
</linearGradient>
<linearGradient id="paint56_linear_634_2411" x1="-4.25626" y1="27.8345" x2="37.3648" y2="101.517" gradientUnits="userSpaceOnUse">
<stop stop-color="#35FF89"/>
<stop offset="1" stop-color="#3177F3"/>
</linearGradient>
<linearGradient id="paint57_linear_634_2411" x1="-4.25626" y1="27.8345" x2="37.3648" y2="101.517" gradientUnits="userSpaceOnUse">
<stop stop-color="#35FF89"/>
<stop offset="1" stop-color="#3177F3"/>
</linearGradient>
<linearGradient id="paint58_linear_634_2411" x1="-4.25626" y1="27.8345" x2="37.3648" y2="101.517" gradientUnits="userSpaceOnUse">
<stop stop-color="#35FF89"/>
<stop offset="1" stop-color="#3177F3"/>
</linearGradient>
<linearGradient id="paint59_linear_634_2411" x1="-4.25626" y1="27.8345" x2="37.3648" y2="101.517" gradientUnits="userSpaceOnUse">
<stop stop-color="#35FF89"/>
<stop offset="1" stop-color="#3177F3"/>
</linearGradient>
</defs>
</svg>
