<svg width="89" height="88" viewBox="0 0 89 88" fill="none" xmlns="http://www.w3.org/2000/svg">
<path d="M44.9092 8.8125C63.9297 9.29432 79.2011 24.8644 79.2012 44.001L79.1895 44.9092C78.7076 63.9297 63.1376 79.2011 44.001 79.2012L43.0918 79.1895C24.3734 78.7149 9.28667 63.6276 8.8125 44.9092L8.80078 44.001C8.80089 24.5607 24.5607 8.80089 44.001 8.80078L44.9092 8.8125ZM10.8213 45.1211C11.412 62.9383 26.0401 77.2011 44.001 77.2012C59.2828 77.2011 72.1503 66.875 76.0137 52.8203C72.4659 62.0723 63.5012 68.6415 53.001 68.6416L52.3652 68.6328C39.4241 68.3049 28.9629 57.9991 28.3867 45.1211H10.8213ZM30.3887 45.1211C30.9727 57.1042 40.8731 66.6414 53.001 66.6416C64.0307 66.6415 73.2166 58.7528 75.2295 48.3105C73.4431 53.4843 68.5318 57.2011 62.751 57.2012L62.4102 57.1963C55.6525 57.025 50.1579 51.7754 49.5986 45.1211H30.3887ZM51.6064 45.1211C52.1684 50.7807 56.9435 55.2011 62.751 55.2012C68.5584 55.2011 73.3335 50.7807 73.8955 45.1211H51.6064ZM44.001 10.8008C25.9595 10.8009 11.2791 25.1921 10.8125 43.1211H28.3789C28.8423 29.9205 39.6874 19.3615 53.001 19.3613L53.6377 19.3691C63.8612 19.6284 72.5357 26.1153 76.0127 35.1777C72.1479 21.1251 59.2813 10.8009 44.001 10.8008ZM53.001 21.3613C40.7921 21.3615 30.8422 31.0253 30.3799 43.1211H49.5811C50.034 36.2413 55.7567 30.8009 62.751 30.8008L63.0918 30.8047C68.7232 30.9475 73.4774 34.6181 75.2295 39.6885C73.2157 29.2476 64.0298 21.3615 53.001 21.3613ZM62.751 32.8008C56.8618 32.8009 52.0378 37.3471 51.5889 43.1211H73.9131C73.4641 37.3471 68.6402 32.8009 62.751 32.8008Z" fill="#0D1A35"/>
</svg>
