<svg width="89" height="88" viewBox="0 0 89 88" fill="none" xmlns="http://www.w3.org/2000/svg">
<path d="M44.0908 8.8125C35.0663 9.04111 26.8871 12.6679 20.7812 18.459C20.2394 18.6056 19.8079 18.8674 19.4893 19.2393C19.236 19.5349 19.0546 19.9013 18.9443 20.3359C13.2632 26.5869 9.79887 34.8887 9.79883 44.001L9.81055 44.9092C10.2924 63.9297 25.8624 79.2011 44.999 79.2012L45.9082 79.1895C64.6266 78.7149 79.7133 63.6276 80.1875 44.9092L80.1992 44.001C80.1991 24.5607 64.4393 8.80089 44.999 8.80078L44.0908 8.8125ZM19.0537 23.2881C19.6972 26.1129 21.6512 29.9601 24.7002 34.4014C23.291 37.3025 22.499 40.559 22.499 44.001C22.499 56.1512 32.3488 66.001 44.499 66.001C47.9408 66.001 51.1976 65.2099 54.0986 63.8008C54.1745 63.8529 54.2496 63.9065 54.3252 63.958C59.1638 67.254 63.2711 69.2246 66.0996 69.6113L66.125 69.6143C60.385 74.3542 53.0243 77.2011 44.999 77.2012C26.6633 77.2011 11.7989 62.3367 11.7988 44.001C11.7989 36.1661 14.5145 28.9664 19.0537 23.2881ZM63.2158 55.5674C66.0014 59.7501 67.5923 63.1293 68.0459 65.3916L68.127 65.8643C68.2922 67.0632 68.027 67.4203 67.9824 67.4688C67.9587 67.4943 67.6858 67.7692 66.5752 67.6543L66.125 67.5918C63.8907 67.2107 60.4298 65.6227 56.0664 62.7168C58.9673 60.9201 61.4193 58.4684 63.2158 55.5674ZM44.999 10.8008C63.3347 10.8009 78.1991 25.6653 78.1992 44.001C78.1992 52.2989 75.1547 59.886 70.1221 65.7061C70.1174 65.6682 70.1127 65.6301 70.1074 65.5918L70.0654 65.3135C69.5811 62.4475 67.5719 58.3682 64.2988 53.6006C65.7079 50.6996 66.499 47.4428 66.499 44.001C66.499 31.8507 56.6493 22.001 44.499 22.001C41.0091 22.001 37.7098 22.8154 34.7783 24.2617C34.7189 24.1469 34.6372 24.0419 34.5332 23.9551L34.4512 23.8945L33.5195 23.2744C31.372 21.8719 29.403 20.7607 27.6582 19.9502C26.2021 19.2738 24.8703 18.792 23.7012 18.5352C29.4661 13.7087 36.8925 10.8008 44.999 10.8008ZM26.0391 36.293C29.4368 40.9558 33.7736 45.9532 38.5488 50.6924C43.0746 55.1841 47.7956 59.2463 52.207 62.4609C49.8348 63.4526 47.231 64.001 44.499 64.001C33.4533 64.001 24.499 55.0467 24.499 44.001C24.499 41.269 25.0474 38.6652 26.0391 36.293ZM44.499 24.001C55.5447 24.001 64.499 32.9553 64.499 44.001C64.499 51.5065 60.3637 58.0447 54.248 61.4658C49.6933 58.2346 44.7257 54.0042 39.958 49.2725C34.9455 44.2977 30.4405 39.0526 27.0342 34.251C30.4554 28.1358 36.9938 24.001 44.499 24.001ZM22.3301 20.3389C23.4212 20.4338 24.929 20.8869 26.8164 21.7637C28.4556 22.5251 30.3389 23.586 32.4248 24.9482L32.9316 25.2852C30.0312 27.0816 27.5797 29.5331 25.7832 32.4336C22.8511 28.0306 21.2335 24.5069 20.8867 22.2393L20.835 21.8135C20.8161 21.5917 20.8139 21.4055 20.8223 21.25C21.118 20.9358 21.4199 20.6276 21.7275 20.3252C21.8004 20.321 21.8803 20.3192 21.9678 20.3203L22.3301 20.3389Z" fill="#0D1A35"/>
</svg>
