<svg width="523" height="170" viewBox="0 0 523 170" fill="none" xmlns="http://www.w3.org/2000/svg">
<rect x="1" y="1" width="521" height="167.25" rx="23" stroke="#3177F3" stroke-width="2"/>
<path d="M13 99.2246L29.3361 92.6925C33.4243 91.0578 35.4684 90.2405 36.9537 88.7087C38.4389 87.177 39.1929 85.1087 40.7009 80.9721L52.2062 49.4117C54.5237 43.0544 55.6825 39.8758 58.2646 38.0687C60.8467 36.2617 64.23 36.2617 70.9966 36.2617H78.6725C84.4963 36.2617 87.4083 36.2617 89.7776 37.6776C92.147 39.0934 93.5265 41.6578 96.2856 46.7866L100.338 54.3197C103.097 59.4485 104.477 62.0129 106.846 63.4288C109.215 64.8446 112.127 64.8446 117.951 64.8446H124.117C131.737 64.8446 135.546 64.8446 138.278 67.0136C141.009 69.1825 141.872 72.8931 143.598 80.3143L144.06 82.3024C148.954 103.348 151.401 113.87 158.008 114.953C158.191 114.983 158.376 115.008 158.56 115.028C165.217 115.74 170.374 106.247 180.687 87.2605V87.2605C183.39 82.2848 184.741 79.7969 187.029 78.397C187.1 78.3539 187.171 78.3116 187.242 78.2703C189.565 76.9275 192.396 76.9275 198.059 76.9275H207.855C211.634 76.9275 213.524 76.9275 215.248 76.2684C216.972 75.6093 218.38 74.349 221.196 71.8285L227.989 65.7468C236.827 57.8341 241.247 53.8777 246.066 54.7596C250.886 55.6416 253.618 60.9066 259.082 71.4365L267.902 88.4359C270.628 93.6893 271.991 96.3159 274.384 97.7703C276.777 99.2246 279.736 99.2246 285.655 99.2246H291.511C296.885 99.2246 299.572 99.2246 301.821 100.46C304.07 101.696 305.511 103.964 308.392 108.501L313.318 116.255C314.27 117.753 314.745 118.502 315.305 119.123C316.816 120.802 318.85 121.92 321.076 122.295C321.901 122.434 322.789 122.434 324.563 122.434V122.434C326.681 122.434 327.741 122.434 328.697 122.245C331.287 121.735 333.57 120.222 335.049 118.036C335.595 117.228 336.008 116.252 336.833 114.301L364.662 48.5105C367.166 42.5909 368.418 39.6312 370.929 37.9666C373.441 36.3019 376.654 36.3019 383.082 36.3019H414.643C420.423 36.3019 423.313 36.3019 425.671 37.6999C428.029 39.0979 429.416 41.6334 432.19 46.7042L449.912 79.1041C455.959 90.158 458.982 95.685 464.043 96.3295C469.105 96.974 473.417 92.381 482.04 83.1951L490.575 74.1037C493.495 70.9932 494.955 69.438 496.856 68.6152C498.757 67.7925 500.89 67.7925 505.157 67.7925H510" stroke="#3177F3" stroke-width="2"/>
<path opacity="0.5" d="M13 36.75H510" stroke="#3177F3" stroke-width="2" stroke-dasharray="1 12"/>
<path opacity="0.5" d="M13 84.75H510" stroke="#3177F3" stroke-width="2" stroke-dasharray="1 12"/>
<path opacity="0.5" d="M13 132.75H510" stroke="#3177F3" stroke-width="2" stroke-dasharray="1 12"/>
</svg>
