<svg width="89" height="88" viewBox="0 0 89 88" fill="none" xmlns="http://www.w3.org/2000/svg">
<path d="M44.9092 8.8125C63.9297 9.29432 79.2011 24.8644 79.2012 44.001L79.1895 44.9092C78.7076 63.9297 63.1376 79.2011 44.001 79.2012L43.0918 79.1895C24.3734 78.7149 9.28667 63.6276 8.8125 44.9092L8.80078 44.001C8.80089 24.5607 24.5607 8.80089 44.001 8.80078L44.9092 8.8125ZM44.001 10.8008C25.6653 10.8009 10.8009 25.6653 10.8008 44.001C10.8009 62.3367 25.6653 77.2011 44.001 77.2012C62.3367 77.2011 77.2011 62.3367 77.2012 44.001C77.2011 25.6653 62.3367 10.8009 44.001 10.8008Z" fill="#192237"/>
<mask id="mask0_682_3495" style="mask-type:alpha" maskUnits="userSpaceOnUse" x="8" y="8" width="72" height="72">
<circle cx="44.0008" cy="44.0008" r="35.2" fill="#ACACAC"/>
</mask>
<g mask="url(#mask0_682_3495)">
<path d="M44.5 86.5002V30.8524C44.5 24.2776 44.5 20.9902 45.872 18.7991C47.0735 16.8802 48.9541 15.4847 51.1389 14.8907C53.6336 14.2125 56.7799 15.165 63.0726 17.0702L94.3828 26.5494" stroke="#0D1A35" stroke-width="2"/>
<path d="M44.5 97.2541V41.6063C44.5 35.0315 44.5 31.7441 45.872 29.553C47.0735 27.6341 48.9541 26.2386 51.1389 25.6446C53.6336 24.9664 56.7799 25.9189 63.0726 27.8241L94.3828 37.3033" stroke="#0D1A35" stroke-width="2"/>
<path d="M44.5 108.01V52.3621C44.5 45.7874 44.5 42.5 45.872 40.3089C47.0735 38.39 48.9541 36.9944 51.1389 36.4005C53.6336 35.7222 56.7799 36.6748 63.0726 38.5799L94.3828 48.0592" stroke="#0D1A35" stroke-width="2"/>
<path d="M44.5 118.764V63.116C44.5 56.5413 44.5 53.2539 45.872 51.0628C47.0735 49.1439 48.9541 47.7483 51.1389 47.1544C53.6336 46.4761 56.7799 47.4287 63.0726 49.3338L94.3828 58.8131" stroke="#0D1A35" stroke-width="2"/>
<path d="M44.5 129.518V73.87C44.5 67.2952 44.5 64.0078 45.872 61.8167C47.0735 59.8978 48.9541 58.5022 51.1389 57.9083C53.6336 57.2301 56.7799 58.1826 63.0726 60.0877L94.3828 69.567" stroke="#0D1A35" stroke-width="2"/>
<path d="M44.5 140.274V84.6258C44.5 78.0511 44.5 74.7637 45.872 72.5725C47.0735 70.6537 48.9541 69.2581 51.1389 68.6641C53.6336 67.9859 56.7799 68.9385 63.0726 70.8436L94.3828 80.3228" stroke="#0D1A35" stroke-width="2"/>
<path d="M44.5 86.5002V30.8524C44.5 24.2776 44.5 20.9902 43.128 18.7991C41.9265 16.8802 40.0459 15.4847 37.8611 14.8907C35.3664 14.2125 32.2201 15.165 25.9274 17.0702L-5.38279 26.5494" stroke="#0D1A35" stroke-width="2"/>
<path d="M44.5 97.2541V41.6063C44.5 35.0315 44.5 31.7441 43.128 29.553C41.9265 27.6341 40.0459 26.2386 37.8611 25.6446C35.3664 24.9664 32.2201 25.9189 25.9274 27.8241L-5.38279 37.3033" stroke="#0D1A35" stroke-width="2"/>
<path d="M44.5 108.01V52.3621C44.5 45.7874 44.5 42.5 43.128 40.3089C41.9265 38.39 40.0459 36.9944 37.8611 36.4005C35.3664 35.7222 32.2201 36.6748 25.9274 38.5799L-5.38279 48.0592" stroke="#0D1A35" stroke-width="2"/>
<path d="M44.5 118.764V63.116C44.5 56.5413 44.5 53.2539 43.128 51.0628C41.9265 49.1439 40.0459 47.7483 37.8611 47.1544C35.3664 46.4761 32.2201 47.4287 25.9274 49.3338L-5.38279 58.8131" stroke="#0D1A35" stroke-width="2"/>
<path d="M44.5 129.518V73.87C44.5 67.2952 44.5 64.0078 43.128 61.8167C41.9265 59.8978 40.0459 58.5022 37.8611 57.9083C35.3664 57.2301 32.2201 58.1826 25.9274 60.0877L-5.38279 69.567" stroke="#0D1A35" stroke-width="2"/>
<path d="M44.5 140.274V84.6258C44.5 78.0511 44.5 74.7637 43.128 72.5725C41.9265 70.6537 40.0459 69.2581 37.8611 68.6641C35.3664 67.9859 32.2201 68.9385 25.9274 70.8436L-5.38279 80.3228" stroke="#0D1A35" stroke-width="2"/>
</g>
</svg>
