<svg width="220" height="221" viewBox="0 0 220 221" fill="none" xmlns="http://www.w3.org/2000/svg">
<path d="M55.6167 92.3443C63.1199 92.3443 69.2024 86.2618 69.2024 78.7586C69.2024 71.2554 63.1199 65.1728 55.6167 65.1728C48.1135 65.1728 42.0309 71.2554 42.0309 78.7586C42.0309 86.2618 48.1135 92.3443 55.6167 92.3443Z" fill="url(#paint0_linear_653_31340)"/>
<path d="M80.611 100.226C84.5058 100.226 87.663 97.0688 87.663 93.174C87.663 89.2792 84.5058 86.1219 80.611 86.1219C76.7162 86.1219 73.5586 89.2792 73.5586 93.174C73.5586 97.0688 76.7162 100.226 80.611 100.226Z" fill="url(#paint1_linear_653_31340)"/>
<path d="M30.5189 71.2917C34.4137 71.2917 37.5709 68.1343 37.5709 64.2396C37.5709 60.3448 34.4137 57.1874 30.5189 57.1874C26.6241 57.1874 23.4668 60.3448 23.4668 64.2396C23.4668 68.1343 26.6241 71.2917 30.5189 71.2917Z" fill="url(#paint2_linear_653_31340)"/>
<path d="M70.0322 60.7134C73.927 60.7134 77.0846 57.5561 77.0846 53.6613C77.0846 49.7665 73.927 46.6091 70.0322 46.6091C66.1374 46.6091 62.9802 49.7665 62.9802 53.6613C62.9802 57.5561 66.1374 60.7134 70.0322 60.7134Z" fill="url(#paint3_linear_653_31340)"/>
<path d="M41.0976 110.908C44.9924 110.908 48.1497 107.751 48.1497 103.856C48.1497 99.9611 44.9924 96.8038 41.0976 96.8038C37.2028 96.8038 34.0452 99.9611 34.0452 103.856C34.0452 107.751 37.2028 110.908 41.0976 110.908Z" fill="url(#paint4_linear_653_31340)"/>
<path d="M78.6398 178.318C86.143 178.318 92.2255 172.236 92.2255 164.732C92.2255 157.229 86.143 151.147 78.6398 151.147C71.1366 151.147 65.054 157.229 65.054 164.732C65.054 172.236 71.1366 178.318 78.6398 178.318Z" fill="url(#paint5_linear_653_31340)"/>
<path d="M93.0553 146.687C96.9501 146.687 100.108 143.53 100.108 139.635C100.108 135.74 96.9501 132.583 93.0553 132.583C89.1605 132.583 86.0033 135.74 86.0033 139.635C86.0033 143.53 89.1605 146.687 93.0553 146.687Z" fill="url(#paint6_linear_653_31340)"/>
<path d="M64.1207 196.882C68.0155 196.882 71.1728 193.725 71.1728 189.83C71.1728 185.935 68.0155 182.778 64.1207 182.778C60.2259 182.778 57.0683 185.935 57.0683 189.83C57.0683 193.725 60.2259 196.882 64.1207 196.882Z" fill="url(#paint7_linear_653_31340)"/>
<path d="M53.542 157.266C57.4368 157.266 60.594 154.108 60.594 150.213C60.594 146.319 57.4368 143.161 53.542 143.161C49.6472 143.161 46.4899 146.319 46.4899 150.213C46.4899 154.108 49.6472 157.266 53.542 157.266Z" fill="url(#paint8_linear_653_31340)"/>
<path d="M103.634 186.2C107.529 186.2 110.686 183.043 110.686 179.148C110.686 175.253 107.529 172.096 103.634 172.096C99.7393 172.096 96.5817 175.253 96.5817 179.148C96.5817 183.043 99.7393 186.2 103.634 186.2Z" fill="url(#paint9_linear_653_31340)"/>
<path d="M164.614 155.295C172.117 155.295 178.2 149.212 178.2 141.709C178.2 134.206 172.117 128.124 164.614 128.124C157.111 128.124 151.028 134.206 151.028 141.709C151.028 149.212 157.111 155.295 164.614 155.295Z" fill="url(#paint10_linear_653_31340)"/>
<path d="M139.516 134.242C143.411 134.242 146.568 131.085 146.568 127.19C146.568 123.295 143.411 120.138 139.516 120.138C135.621 120.138 132.464 123.295 132.464 127.19C132.464 131.085 135.621 134.242 139.516 134.242Z" fill="url(#paint11_linear_653_31340)"/>
<path d="M189.608 163.177C193.503 163.177 196.66 160.02 196.66 156.125C196.66 152.23 193.503 149.073 189.608 149.073C185.713 149.073 182.556 152.23 182.556 156.125C182.556 160.02 185.713 163.177 189.608 163.177Z" fill="url(#paint12_linear_653_31340)"/>
<path d="M150.094 173.859C153.989 173.859 157.147 170.701 157.147 166.807C157.147 162.912 153.989 159.754 150.094 159.754C146.2 159.754 143.042 162.912 143.042 166.807C143.042 170.701 146.2 173.859 150.094 173.859Z" fill="url(#paint13_linear_653_31340)"/>
<path d="M179.029 123.664C182.924 123.664 186.081 120.507 186.081 116.612C186.081 112.717 182.924 109.56 179.029 109.56C175.135 109.56 171.977 112.717 171.977 116.612C171.977 120.507 175.135 123.664 179.029 123.664Z" fill="url(#paint14_linear_653_31340)"/>
<path d="M141.592 69.3211C149.095 69.3211 155.177 63.2386 155.177 55.7354C155.177 48.2322 149.095 42.1496 141.592 42.1496C134.088 42.1496 128.006 48.2322 128.006 55.7354C128.006 63.2386 134.088 69.3211 141.592 69.3211Z" fill="url(#paint15_linear_653_31340)"/>
<path d="M127.072 87.8849C130.967 87.8849 134.124 84.7275 134.124 80.8327C134.124 76.9379 130.967 73.7806 127.072 73.7806C123.177 73.7806 120.02 76.9379 120.02 80.8327C120.02 84.7275 123.177 87.8849 127.072 87.8849Z" fill="url(#paint16_linear_653_31340)"/>
<path d="M156.007 37.6902C159.902 37.6902 163.059 34.5329 163.059 30.6381C163.059 26.7433 159.902 23.5859 156.007 23.5859C152.112 23.5859 148.955 26.7433 148.955 30.6381C148.955 34.5329 152.112 37.6902 156.007 37.6902Z" fill="url(#paint17_linear_653_31340)"/>
<path d="M166.585 77.203C170.48 77.203 173.638 74.0456 173.638 70.1508C173.638 66.256 170.48 63.0987 166.585 63.0987C162.691 63.0987 159.533 66.256 159.533 70.1508C159.533 74.0456 162.691 77.203 166.585 77.203Z" fill="url(#paint18_linear_653_31340)"/>
<path d="M116.494 48.2685C120.388 48.2685 123.546 45.1111 123.546 41.2163C123.546 37.3216 120.388 34.1642 116.494 34.1642C112.599 34.1642 109.441 37.3216 109.441 41.2163C109.441 45.1111 112.599 48.2685 116.494 48.2685Z" fill="url(#paint19_linear_653_31340)"/>
<defs>
<linearGradient id="paint0_linear_653_31340" x1="-24.9049" y1="60.3999" x2="149.065" y2="305.949" gradientUnits="userSpaceOnUse">
<stop stop-color="#35FF89"/>
<stop offset="1" stop-color="#3177F3"/>
</linearGradient>
<linearGradient id="paint1_linear_653_31340" x1="-24.9049" y1="60.3999" x2="149.065" y2="305.949" gradientUnits="userSpaceOnUse">
<stop stop-color="#35FF89"/>
<stop offset="1" stop-color="#3177F3"/>
</linearGradient>
<linearGradient id="paint2_linear_653_31340" x1="-24.9049" y1="60.3999" x2="149.065" y2="305.949" gradientUnits="userSpaceOnUse">
<stop stop-color="#35FF89"/>
<stop offset="1" stop-color="#3177F3"/>
</linearGradient>
<linearGradient id="paint3_linear_653_31340" x1="-24.9049" y1="60.3999" x2="149.065" y2="305.949" gradientUnits="userSpaceOnUse">
<stop stop-color="#35FF89"/>
<stop offset="1" stop-color="#3177F3"/>
</linearGradient>
<linearGradient id="paint4_linear_653_31340" x1="-24.9049" y1="60.3999" x2="149.065" y2="305.949" gradientUnits="userSpaceOnUse">
<stop stop-color="#35FF89"/>
<stop offset="1" stop-color="#3177F3"/>
</linearGradient>
<linearGradient id="paint5_linear_653_31340" x1="-24.9049" y1="60.3999" x2="149.065" y2="305.949" gradientUnits="userSpaceOnUse">
<stop stop-color="#35FF89"/>
<stop offset="1" stop-color="#3177F3"/>
</linearGradient>
<linearGradient id="paint6_linear_653_31340" x1="-24.9049" y1="60.3999" x2="149.065" y2="305.949" gradientUnits="userSpaceOnUse">
<stop stop-color="#35FF89"/>
<stop offset="1" stop-color="#3177F3"/>
</linearGradient>
<linearGradient id="paint7_linear_653_31340" x1="-24.9049" y1="60.3999" x2="149.065" y2="305.949" gradientUnits="userSpaceOnUse">
<stop stop-color="#35FF89"/>
<stop offset="1" stop-color="#3177F3"/>
</linearGradient>
<linearGradient id="paint8_linear_653_31340" x1="-24.9049" y1="60.3999" x2="149.065" y2="305.949" gradientUnits="userSpaceOnUse">
<stop stop-color="#35FF89"/>
<stop offset="1" stop-color="#3177F3"/>
</linearGradient>
<linearGradient id="paint9_linear_653_31340" x1="-24.9049" y1="60.3999" x2="149.065" y2="305.949" gradientUnits="userSpaceOnUse">
<stop stop-color="#35FF89"/>
<stop offset="1" stop-color="#3177F3"/>
</linearGradient>
<linearGradient id="paint10_linear_653_31340" x1="-24.9049" y1="60.3999" x2="149.065" y2="305.949" gradientUnits="userSpaceOnUse">
<stop stop-color="#35FF89"/>
<stop offset="1" stop-color="#3177F3"/>
</linearGradient>
<linearGradient id="paint11_linear_653_31340" x1="-24.9049" y1="60.3999" x2="149.065" y2="305.949" gradientUnits="userSpaceOnUse">
<stop stop-color="#35FF89"/>
<stop offset="1" stop-color="#3177F3"/>
</linearGradient>
<linearGradient id="paint12_linear_653_31340" x1="-24.9049" y1="60.3999" x2="149.065" y2="305.949" gradientUnits="userSpaceOnUse">
<stop stop-color="#35FF89"/>
<stop offset="1" stop-color="#3177F3"/>
</linearGradient>
<linearGradient id="paint13_linear_653_31340" x1="-24.9049" y1="60.3999" x2="149.065" y2="305.949" gradientUnits="userSpaceOnUse">
<stop stop-color="#35FF89"/>
<stop offset="1" stop-color="#3177F3"/>
</linearGradient>
<linearGradient id="paint14_linear_653_31340" x1="-24.9049" y1="60.3999" x2="149.065" y2="305.949" gradientUnits="userSpaceOnUse">
<stop stop-color="#35FF89"/>
<stop offset="1" stop-color="#3177F3"/>
</linearGradient>
<linearGradient id="paint15_linear_653_31340" x1="-24.9049" y1="60.3999" x2="149.065" y2="305.949" gradientUnits="userSpaceOnUse">
<stop stop-color="#35FF89"/>
<stop offset="1" stop-color="#3177F3"/>
</linearGradient>
<linearGradient id="paint16_linear_653_31340" x1="-24.9049" y1="60.3999" x2="149.065" y2="305.949" gradientUnits="userSpaceOnUse">
<stop stop-color="#35FF89"/>
<stop offset="1" stop-color="#3177F3"/>
</linearGradient>
<linearGradient id="paint17_linear_653_31340" x1="-24.9049" y1="60.3999" x2="149.065" y2="305.949" gradientUnits="userSpaceOnUse">
<stop stop-color="#35FF89"/>
<stop offset="1" stop-color="#3177F3"/>
</linearGradient>
<linearGradient id="paint18_linear_653_31340" x1="-24.9049" y1="60.3999" x2="149.065" y2="305.949" gradientUnits="userSpaceOnUse">
<stop stop-color="#35FF89"/>
<stop offset="1" stop-color="#3177F3"/>
</linearGradient>
<linearGradient id="paint19_linear_653_31340" x1="-24.9049" y1="60.3999" x2="149.065" y2="305.949" gradientUnits="userSpaceOnUse">
<stop stop-color="#35FF89"/>
<stop offset="1" stop-color="#3177F3"/>
</linearGradient>
</defs>
</svg>
