<svg width="89" height="88" viewBox="0 0 89 88" fill="none" xmlns="http://www.w3.org/2000/svg">
<path d="M66.8691 70.7578C74.4162 64.3018 79.201 54.7093 79.2012 43.999L79.1904 43.0908C78.7085 24.0705 63.1374 8.79906 44.001 8.79883L43.334 8.80469C42.0022 8.8296 40.6882 8.92973 39.3965 9.09863L38.752 9.18848C26.927 16.6108 35.623 32.4242 53.7324 46.0195L54.6016 46.665C63.0729 52.8889 67.1995 62.056 66.8691 70.7578ZM68.6572 66.2285C67.6688 58.4868 63.4686 50.8692 56.2041 45.3652L55.7861 45.0537C46.5597 38.2752 39.8972 31.0312 36.9736 24.7578C35.5187 21.6357 35.0632 18.9153 35.4951 16.6719C35.8954 14.5938 37.1011 12.6948 39.4736 11.1064C40.9535 10.9046 42.465 10.7988 44.001 10.7988C62.0501 10.7991 76.7359 25.2029 77.1904 43.1426L77.2012 43.999C77.2011 52.5491 73.9687 60.3419 68.6572 66.2285ZM44.001 79.1992C44.88 79.1992 45.7514 79.1668 46.6143 79.1035C61.0946 72.0436 51.9637 55.0277 32.4531 40.6934C24.4649 34.8245 20.3396 26.3388 20.1719 18.0938C13.1821 24.5267 8.80078 33.7506 8.80078 43.999C8.80078 63.4394 24.5606 79.1992 44.001 79.1992ZM44.001 77.1992C25.6651 77.1992 10.8008 62.3349 10.8008 43.999L10.8125 43.0957C11.0209 35.2923 13.9216 28.1622 18.6221 22.5957C19.9549 29.9734 24.2136 37.1213 31.2686 42.3047L32.1641 42.9707C41.3278 49.8577 47.8144 57.1617 50.4365 63.4014C51.7795 66.5972 52.0345 69.3294 51.3447 71.5449C50.6934 73.6371 49.1004 75.5786 46.0723 77.1348C45.5916 77.1644 45.1081 77.1844 44.6221 77.1934L44.001 77.1992Z" fill="#0D1A35"/>
<path d="M22.1797 71.6201C14.0298 65.1733 8.79897 55.1973 8.79883 43.999L8.81055 43.0908C9.29251 24.0704 24.8625 8.79891 43.999 8.79883L44.8438 8.80859C46.528 8.84872 48.183 9.00856 49.8008 9.27734L50.6064 9.4209C61.8947 16.9379 53.1879 32.5694 35.2588 46.0264L34.3984 46.665C25.6467 53.0949 21.5335 62.6659 22.1797 71.6201ZM20.2373 67.1797C20.9911 59.1191 25.2288 51.1036 32.7822 45.375L33.2139 45.0537C42.3448 38.3453 48.9681 31.179 51.9375 24.9473C53.4161 21.8441 53.9165 19.1275 53.542 16.8779C53.1954 14.7969 52.0658 12.9062 49.8242 11.3135C47.9326 10.9784 45.9867 10.7988 43.999 10.7988C25.9497 10.7989 11.2641 25.2028 10.8096 43.1426L10.7988 43.999C10.799 53.0182 14.3968 61.1947 20.2373 67.1797ZM43.999 79.1992C43.5021 79.1992 43.0076 79.1864 42.5156 79.166C27.8513 72.1446 36.9782 55.0703 56.5469 40.6934C64.2379 35.0428 68.3481 26.9664 68.793 19.0146C75.219 25.392 79.1992 34.2304 79.1992 43.999C79.1992 63.4394 63.4394 79.1992 43.999 79.1992ZM43.999 77.1992C62.3349 77.1992 77.1992 62.3349 77.1992 43.999L77.1885 43.1377C77.001 35.7726 74.4143 29.007 70.1807 23.5859C68.6571 30.6103 64.4702 37.3537 57.7314 42.3047L56.833 42.9727C47.6421 49.8806 41.146 57.2074 38.54 63.458C37.2058 66.6585 36.9659 69.391 37.6748 71.6045C38.3434 73.692 39.9583 75.6317 43.0186 77.1816C43.1132 77.1846 43.2075 77.1882 43.3018 77.1904L43.999 77.1992Z" fill="#0D1A35"/>
</svg>
