<svg width="89" height="88" viewBox="0 0 89 88" fill="none" xmlns="http://www.w3.org/2000/svg">
<circle cx="44.0008" cy="44.0008" r="34.2" stroke="#0D1A35" stroke-width="2"/>
<mask id="mask0_682_3456" style="mask-type:alpha" maskUnits="userSpaceOnUse" x="8" y="44" width="72" height="36">
<path d="M79.2008 44.0008C79.2008 48.6233 78.2903 53.2006 76.5213 57.4712C74.7524 61.7419 72.1596 65.6223 68.8909 68.8909C65.6223 72.1596 61.7419 74.7524 57.4712 76.5213C53.2006 78.2903 48.6233 79.2008 44.0008 79.2008C39.3782 79.2008 34.801 78.2903 30.5303 76.5213C26.2597 74.7524 22.3792 72.1596 19.1106 68.8909C15.842 65.6223 13.2492 61.7419 11.4802 57.4712C9.71126 53.2006 8.80078 48.6233 8.80078 44.0008L44.0008 44.0008H79.2008Z" fill="#D9D9D9"/>
</mask>
<g mask="url(#mask0_682_3456)">
<circle cx="44.0017" cy="44.0017" r="23.8474" stroke="#0D1A35" stroke-width="2"/>
<circle cx="44.0002" cy="44.0002" r="11.4787" stroke="#0D1A35" stroke-width="2"/>
<line x1="91.7441" y1="45" x2="-2.74156" y2="45" stroke="#0D1A35" stroke-width="2"/>
</g>
<mask id="mask1_682_3456" style="mask-type:alpha" maskUnits="userSpaceOnUse" x="8" y="8" width="72" height="36">
<path d="M8.80078 44.0008C8.80078 34.6652 12.5093 25.7119 19.1106 19.1106C25.7119 12.5093 34.6652 8.80078 44.0008 8.80078C53.3364 8.80078 62.2896 12.5093 68.8909 19.1106C75.4922 25.7119 79.2008 34.6651 79.2008 44.0008L44.0008 44.0008L8.80078 44.0008Z" fill="#D9D9D9"/>
</mask>
<g mask="url(#mask1_682_3456)">
<line x1="20.8613" y1="-3.24219" x2="20.8613" y2="91.2435" stroke="#0D1A35" stroke-width="2"/>
<line x1="32.5938" y1="-3.24219" x2="32.5937" y2="91.2435" stroke="#0D1A35" stroke-width="2"/>
<line x1="44.3281" y1="-3.24219" x2="44.3281" y2="91.2435" stroke="#0D1A35" stroke-width="2"/>
<line x1="56.0605" y1="-3.24219" x2="56.0605" y2="91.2435" stroke="#0D1A35" stroke-width="2"/>
<line x1="67.7949" y1="-3.24219" x2="67.7949" y2="91.2435" stroke="#0D1A35" stroke-width="2"/>
</g>
</svg>
