<svg width="89" height="88" viewBox="0 0 89 88" fill="none" xmlns="http://www.w3.org/2000/svg">
<circle cx="35.2" cy="35.2" r="34.2" transform="matrix(1 0 0 -1 8.80078 79.1992)" stroke="#0D1A35" stroke-width="2"/>
<path d="M55.3104 62.7233C63.4062 58.0492 68.0977 49.0426 70.7624 41.0339C72.0877 37.0507 72.8957 33.3631 73.3719 30.6708C73.6098 29.3257 73.7642 28.2312 73.8592 27.4757C73.8804 27.307 73.8969 27.1548 73.9124 27.021C73.7885 26.9674 73.6486 26.905 73.4915 26.8389C72.7898 26.5434 71.7648 26.1298 70.4808 25.6633C67.911 24.7295 64.3133 23.5847 60.2009 22.7408C51.9328 21.0442 41.7871 20.6038 33.6913 25.2779C25.5954 29.952 20.9041 38.9586 18.2393 46.9673C16.9139 50.9508 16.1065 54.6388 15.6303 57.3312C15.3924 58.6765 15.2372 59.7714 15.1422 60.5268C15.1209 60.696 15.105 60.8483 15.0895 60.9824C15.2132 61.0359 15.3531 61.0977 15.5099 61.1637C16.2116 61.4592 17.2374 61.8722 18.5214 62.3388C21.0911 63.2726 24.6887 64.4166 28.8008 65.2604C37.069 66.9571 47.2146 67.3975 55.3104 62.7233Z" stroke="#0D1A35" stroke-width="2"/>
<path d="M42.5194 51.3965C51.7707 53.8754 60.7145 54.0628 67.3571 53.6256C70.6751 53.4072 73.4112 53.0337 75.314 52.7155C75.6897 52.6526 76.033 52.5897 76.3416 52.5328C76.1026 52.3292 75.8374 52.1023 75.5432 51.8599C74.0545 50.6328 71.8721 48.9406 69.1077 47.0924C63.5736 43.3924 55.7343 39.0828 46.483 36.6039C37.2319 34.125 28.2879 33.9377 21.6453 34.3748C18.3269 34.5932 15.5901 34.9673 13.6872 35.2856C13.3107 35.3486 12.9675 35.412 12.6584 35.469C12.8975 35.6727 13.1636 35.8985 13.458 36.1412C14.9467 37.3683 17.1301 39.0597 19.8947 40.908C25.4288 44.608 33.2681 48.9176 42.5194 51.3965Z" stroke="#0D1A35" stroke-width="2"/>
</svg>
