<svg width="220" height="220" viewBox="0 0 220 220" fill="none" xmlns="http://www.w3.org/2000/svg">
<path d="M116.212 39.4676C119.82 39.4676 122.745 36.5424 122.745 32.934C122.745 29.3256 119.82 26.4004 116.212 26.4004C112.603 26.4004 109.678 29.3256 109.678 32.934C109.678 36.5424 112.603 39.4676 116.212 39.4676Z" fill="url(#paint0_linear_653_8982)"/>
<path d="M103.766 52.5348C106.916 52.5348 109.469 49.9811 109.469 46.8309C109.469 43.6807 106.916 41.1269 103.766 41.1269C100.615 41.1269 98.0616 43.6807 98.0616 46.8309C98.0616 49.9811 100.615 52.5348 103.766 52.5348Z" fill="url(#paint1_linear_653_8982)"/>
<path d="M90.5962 75.9728C92.7154 75.9728 94.4333 74.2548 94.4333 72.1356C94.4333 70.0163 92.7154 68.2984 90.5962 68.2984C88.4769 68.2984 86.759 70.0163 86.759 72.1356C86.759 74.2548 88.4769 75.9728 90.5962 75.9728Z" fill="url(#paint2_linear_653_8982)"/>
<path d="M94.6392 63.7353C97.1021 63.7353 99.0986 61.7388 99.0986 59.2759C99.0986 56.813 97.1021 54.8165 94.6392 54.8165C92.1763 54.8165 90.1797 56.813 90.1797 59.2759C90.1797 61.7388 92.1763 63.7353 94.6392 63.7353Z" fill="url(#paint3_linear_653_8982)"/>
<path d="M89.5586 86.9658C91.3914 86.9658 92.8773 85.48 92.8773 83.6472C92.8773 81.8143 91.3914 80.3285 89.5586 80.3285C87.7257 80.3285 86.24 81.8143 86.24 83.6472C86.24 85.48 87.7257 86.9658 89.5586 86.9658Z" fill="url(#paint4_linear_653_8982)"/>
<path d="M93.4989 95.781C95.0453 95.781 96.299 94.5273 96.299 92.9809C96.299 91.4344 95.0453 90.1808 93.4989 90.1808C91.9524 90.1808 90.6987 91.4344 90.6987 92.9809C90.6987 94.5273 91.9524 95.781 93.4989 95.781Z" fill="url(#paint5_linear_653_8982)"/>
<path d="M87.1735 42.9936C90.7819 42.9936 93.7071 40.0684 93.7071 36.46C93.7071 32.8516 90.7819 29.9264 87.1735 29.9264C83.5651 29.9264 80.6398 32.8516 80.6398 36.46C80.6398 40.0684 83.5651 42.9936 87.1735 42.9936Z" fill="url(#paint6_linear_653_8982)"/>
<path d="M80.7432 59.6907C83.8934 59.6907 86.447 57.1369 86.447 53.9867C86.447 50.8365 83.8934 48.2828 80.7432 48.2828C77.593 48.2828 75.0392 50.8365 75.0392 53.9867C75.0392 57.1369 77.593 59.6907 80.7432 59.6907Z" fill="url(#paint7_linear_653_8982)"/>
<path d="M77.527 86.1361C79.6462 86.1361 81.3641 84.4181 81.3641 82.2989C81.3641 80.1797 79.6462 78.4617 77.527 78.4617C75.4078 78.4617 73.6897 80.1797 73.6897 82.2989C73.6897 84.4181 75.4078 86.1361 77.527 86.1361Z" fill="url(#paint8_linear_653_8982)"/>
<path d="M76.6984 73.3801C79.1613 73.3801 81.1578 71.3836 81.1578 68.9207C81.1578 66.4578 79.1613 64.4612 76.6984 64.4612C74.2355 64.4612 72.2389 66.4578 72.2389 68.9207C72.2389 71.3836 74.2355 73.3801 76.6984 73.3801Z" fill="url(#paint9_linear_653_8982)"/>
<path d="M80.743 96.7144C82.5759 96.7144 84.0616 95.2286 84.0616 93.3958C84.0616 91.5629 82.5759 90.0771 80.743 90.0771C78.9102 90.0771 77.4243 91.5629 77.4243 93.3958C77.4243 95.2286 78.9102 96.7144 80.743 96.7144Z" fill="url(#paint10_linear_653_8982)"/>
<path d="M87.7949 103.455C89.3414 103.455 90.5951 102.202 90.5951 100.655C90.5951 99.1089 89.3414 97.8552 87.7949 97.8552C86.2485 97.8552 84.9948 99.1089 84.9948 100.655C84.9948 102.202 86.2485 103.455 87.7949 103.455Z" fill="url(#paint11_linear_653_8982)"/>
<path d="M61.5576 56.8905C65.166 56.8905 68.0912 53.9653 68.0912 50.3569C68.0912 46.7485 65.166 43.8233 61.5576 43.8233C57.9492 43.8233 55.0239 46.7485 55.0239 50.3569C55.0239 53.9653 57.9492 56.8905 61.5576 56.8905Z" fill="url(#paint12_linear_653_8982)"/>
<path d="M61.7657 74.6245C64.9159 74.6245 67.4697 72.0708 67.4697 68.9206C67.4697 65.7704 64.9159 63.2166 61.7657 63.2166C58.6155 63.2166 56.0617 65.7704 56.0617 68.9206C56.0617 72.0708 58.6155 74.6245 61.7657 74.6245Z" fill="url(#paint13_linear_653_8982)"/>
<path d="M69.024 100.448C71.1432 100.448 72.8611 98.7299 72.8611 96.6107C72.8611 94.4915 71.1432 92.7735 69.024 92.7735C66.9047 92.7735 65.1868 94.4915 65.1868 96.6107C65.1868 98.7299 66.9047 100.448 69.024 100.448Z" fill="url(#paint14_linear_653_8982)"/>
<path d="M63.4254 88.8325C65.8883 88.8325 67.8847 86.836 67.8847 84.3731C67.8847 81.9102 65.8883 79.9136 63.4254 79.9136C60.9625 79.9136 58.9658 81.9102 58.9658 84.3731C58.9658 86.836 60.9625 88.8325 63.4254 88.8325Z" fill="url(#paint15_linear_653_8982)"/>
<path d="M75.9721 109.056C77.8049 109.056 79.2908 107.57 79.2908 105.737C79.2908 103.904 77.8049 102.418 75.9721 102.418C74.1392 102.418 72.6535 103.904 72.6535 105.737C72.6535 107.57 74.1392 109.056 75.9721 109.056Z" fill="url(#paint16_linear_653_8982)"/>
<path d="M85.2016 112.789C86.748 112.789 88.0018 111.535 88.0018 109.989C88.0018 108.443 86.748 107.189 85.2016 107.189C83.6551 107.189 82.4014 108.443 82.4014 109.989C82.4014 111.535 83.6551 112.789 85.2016 112.789Z" fill="url(#paint17_linear_653_8982)"/>
<path d="M42.578 79.0842C46.1864 79.0842 49.1117 76.159 49.1117 72.5506C49.1117 68.9421 46.1864 66.0169 42.578 66.0169C38.9696 66.0169 36.0445 68.9421 36.0445 72.5506C36.0445 76.159 38.9696 79.0842 42.578 79.0842Z" fill="url(#paint18_linear_653_8982)"/>
<path d="M49.5268 95.4701C52.677 95.4701 55.2308 92.9164 55.2308 89.7662C55.2308 86.616 52.677 84.0622 49.5268 84.0622C46.3766 84.0622 43.823 86.616 43.823 89.7662C43.823 92.9164 46.3766 95.4701 49.5268 95.4701Z" fill="url(#paint19_linear_653_8982)"/>
<path d="M66.2243 116.73C68.3435 116.73 70.0616 115.012 70.0616 112.893C70.0616 110.774 68.3435 109.056 66.2243 109.056C64.105 109.056 62.3871 110.774 62.3871 112.893C62.3871 115.012 64.105 116.73 66.2243 116.73Z" fill="url(#paint20_linear_653_8982)"/>
<path d="M56.5797 108.019C59.0425 108.019 61.039 106.022 61.039 103.559C61.039 101.096 59.0425 99.0998 56.5797 99.0998C54.1168 99.0998 52.1201 101.096 52.1201 103.559C52.1201 106.022 54.1168 108.019 56.5797 108.019Z" fill="url(#paint21_linear_653_8982)"/>
<path d="M76.0765 122.227C77.9093 122.227 79.3952 120.741 79.3952 118.908C79.3952 117.075 77.9093 115.589 76.0765 115.589C74.2437 115.589 72.7579 117.075 72.7579 118.908C72.7579 120.741 74.2437 122.227 76.0765 122.227Z" fill="url(#paint22_linear_653_8982)"/>
<path d="M86.2403 122.434C87.7868 122.434 89.0403 121.18 89.0403 119.634C89.0403 118.087 87.7868 116.834 86.2403 116.834C84.6939 116.834 83.4402 118.087 83.4402 119.634C83.4402 121.18 84.6939 122.434 86.2403 122.434Z" fill="url(#paint23_linear_653_8982)"/>
<path d="M32.934 106.567C36.5425 106.567 39.4675 103.642 39.4675 100.033C39.4675 96.4247 36.5425 93.4995 32.934 93.4995C29.3256 93.4995 26.4004 96.4247 26.4004 100.033C26.4004 103.642 29.3256 106.567 32.934 106.567Z" fill="url(#paint24_linear_653_8982)"/>
<path d="M45.5867 119.323C48.7369 119.323 51.2906 116.769 51.2906 113.619C51.2906 110.469 48.7369 107.915 45.5867 107.915C42.4365 107.915 39.8828 110.469 39.8828 113.619C39.8828 116.769 42.4365 119.323 45.5867 119.323Z" fill="url(#paint25_linear_653_8982)"/>
<path d="M69.6469 133.012C71.7661 133.012 73.4841 131.294 73.4841 129.175C73.4841 127.056 71.7661 125.338 69.6469 125.338C67.5277 125.338 65.8098 127.056 65.8098 129.175C65.8098 131.294 67.5277 133.012 69.6469 133.012Z" fill="url(#paint26_linear_653_8982)"/>
<path d="M57.202 128.449C59.6649 128.449 61.6614 126.452 61.6614 123.99C61.6614 121.527 59.6649 119.53 57.202 119.53C54.7391 119.53 52.7425 121.527 52.7425 123.99C52.7425 126.452 54.7391 128.449 57.202 128.449Z" fill="url(#paint27_linear_653_8982)"/>
<path d="M80.95 134.568C82.7828 134.568 84.2687 133.082 84.2687 131.249C84.2687 129.416 82.7828 127.931 80.95 127.931C79.1171 127.931 77.6314 129.416 77.6314 131.249C77.6314 133.082 79.1171 134.568 80.95 134.568Z" fill="url(#paint28_linear_653_8982)"/>
<path d="M90.5947 130.938C92.1412 130.938 93.3949 129.685 93.3949 128.138C93.3949 126.592 92.1412 125.338 90.5947 125.338C89.0483 125.338 87.7946 126.592 87.7946 128.138C87.7946 129.685 89.0483 130.938 90.5947 130.938Z" fill="url(#paint29_linear_653_8982)"/>
<path d="M33.8683 135.709C37.4767 135.709 40.402 132.783 40.402 129.175C40.402 125.567 37.4767 122.641 33.8683 122.641C30.2599 122.641 27.3347 125.567 27.3347 129.175C27.3347 132.783 30.2599 135.709 33.8683 135.709Z" fill="url(#paint30_linear_653_8982)"/>
<path d="M50.565 142.968C53.7152 142.968 56.2689 140.415 56.2689 137.264C56.2689 134.114 53.7152 131.56 50.565 131.56C47.4148 131.56 44.861 134.114 44.861 137.264C44.861 140.415 47.4148 142.968 50.565 142.968Z" fill="url(#paint31_linear_653_8982)"/>
<path d="M78.5674 146.909C80.6866 146.909 82.4045 145.191 82.4045 143.072C82.4045 140.953 80.6866 139.235 78.5674 139.235C76.4481 139.235 74.7302 140.953 74.7302 143.072C74.7302 145.191 76.4481 146.909 78.5674 146.909Z" fill="url(#paint32_linear_653_8982)"/>
<path d="M65.1881 147.22C67.651 147.22 69.6475 145.224 69.6475 142.761C69.6475 140.298 67.651 138.301 65.1881 138.301C62.7253 138.301 60.7286 140.298 60.7286 142.761C60.7286 145.224 62.7253 147.22 65.1881 147.22Z" fill="url(#paint33_linear_653_8982)"/>
<path d="M89.8704 144.213C91.7032 144.213 93.1891 142.727 93.1891 140.894C93.1891 139.061 91.7032 137.575 89.8704 137.575C88.0375 137.575 86.5518 139.061 86.5518 140.894C86.5518 142.727 88.0375 144.213 89.8704 144.213Z" fill="url(#paint34_linear_653_8982)"/>
<path d="M97.7529 137.368C99.2994 137.368 100.553 136.114 100.553 134.568C100.553 133.021 99.2994 131.768 97.7529 131.768C96.2065 131.768 94.9528 133.021 94.9528 134.568C94.9528 136.114 96.2065 137.368 97.7529 137.368Z" fill="url(#paint35_linear_653_8982)"/>
<path d="M45.2745 162.569C48.883 162.569 51.808 159.644 51.808 156.036C51.808 152.427 48.883 149.502 45.2745 149.502C41.6661 149.502 38.7409 152.427 38.7409 156.036C38.7409 159.644 41.6661 162.569 45.2745 162.569Z" fill="url(#paint36_linear_653_8982)"/>
<path d="M63.7357 163.295C66.8859 163.295 69.4395 160.741 69.4395 157.591C69.4395 154.441 66.8859 151.887 63.7357 151.887C60.5855 151.887 58.0317 154.441 58.0317 157.591C58.0317 160.741 60.5855 163.295 63.7357 163.295Z" fill="url(#paint37_linear_653_8982)"/>
<path d="M91.9433 156.658C94.0625 156.658 95.7805 154.94 95.7805 152.821C95.7805 150.701 94.0625 148.983 91.9433 148.983C89.8241 148.983 88.106 150.701 88.106 152.821C88.106 154.94 89.8241 156.658 91.9433 156.658Z" fill="url(#paint38_linear_653_8982)"/>
<path d="M79.2906 161.843C81.7535 161.843 83.75 159.847 83.75 157.384C83.75 154.921 81.7535 152.924 79.2906 152.924C76.8277 152.924 74.8311 154.921 74.8311 157.384C74.8311 159.847 76.8277 161.843 79.2906 161.843Z" fill="url(#paint39_linear_653_8982)"/>
<path d="M101.692 150.02C103.524 150.02 105.01 148.535 105.01 146.702C105.01 144.869 103.524 143.383 101.692 143.383C99.8587 143.383 98.373 144.869 98.373 146.702C98.373 148.535 99.8587 150.02 101.692 150.02Z" fill="url(#paint40_linear_653_8982)"/>
<path d="M106.774 140.79C108.32 140.79 109.574 139.537 109.574 137.99C109.574 136.444 108.32 135.19 106.774 135.19C105.227 135.19 103.974 136.444 103.974 137.99C103.974 139.537 105.227 140.79 106.774 140.79Z" fill="url(#paint41_linear_653_8982)"/>
<path d="M65.6009 183.518C69.2093 183.518 72.1346 180.593 72.1346 176.984C72.1346 173.376 69.2093 170.451 65.6009 170.451C61.9925 170.451 59.0673 173.376 59.0673 176.984C59.0673 180.593 61.9925 183.518 65.6009 183.518Z" fill="url(#paint42_linear_653_8982)"/>
<path d="M83.4392 177.399C86.5894 177.399 89.1432 174.845 89.1432 171.695C89.1432 168.545 86.5894 165.991 83.4392 165.991C80.289 165.991 77.7352 168.545 77.7352 171.695C77.7352 174.845 80.289 177.399 83.4392 177.399Z" fill="url(#paint43_linear_653_8982)"/>
<path d="M108.018 160.91C110.138 160.91 111.856 159.192 111.856 157.072C111.856 154.953 110.138 153.235 108.018 153.235C105.899 153.235 104.181 154.953 104.181 157.072C104.181 159.192 105.899 160.91 108.018 160.91Z" fill="url(#paint44_linear_653_8982)"/>
<path d="M97.8546 170.347C100.317 170.347 102.314 168.35 102.314 165.888C102.314 163.425 100.317 161.428 97.8546 161.428C95.3917 161.428 93.3952 163.425 93.3952 165.888C93.3952 168.35 95.3917 170.347 97.8546 170.347Z" fill="url(#paint45_linear_653_8982)"/>
<path d="M114.863 151.265C116.696 151.265 118.181 149.779 118.181 147.946C118.181 146.113 116.696 144.627 114.863 144.627C113.03 144.627 111.544 146.113 111.544 147.946C111.544 149.779 113.03 151.265 114.863 151.265Z" fill="url(#paint46_linear_653_8982)"/>
<path d="M116.418 140.687C117.964 140.687 119.218 139.433 119.218 137.886C119.218 136.34 117.964 135.086 116.418 135.086C114.871 135.086 113.618 136.34 113.618 137.886C113.618 139.433 114.871 140.687 116.418 140.687Z" fill="url(#paint47_linear_653_8982)"/>
<path d="M92.0472 195.652C95.6556 195.652 98.5808 192.727 98.5808 189.118C98.5808 185.51 95.6556 182.585 92.0472 182.585C88.4388 182.585 85.5135 185.51 85.5135 189.118C85.5135 192.727 88.4388 195.652 92.0472 195.652Z" fill="url(#paint48_linear_653_8982)"/>
<path d="M106.774 183.414C109.924 183.414 112.478 180.861 112.478 177.71C112.478 174.56 109.924 172.006 106.774 172.006C103.624 172.006 101.07 174.56 101.07 177.71C101.07 180.861 103.624 183.414 106.774 183.414Z" fill="url(#paint49_linear_653_8982)"/>
<path d="M124.507 159.147C126.626 159.147 128.344 157.429 128.344 155.309C128.344 153.19 126.626 151.472 124.507 151.472C122.388 151.472 120.669 153.19 120.669 155.309C120.669 157.429 122.388 159.147 124.507 159.147Z" fill="url(#paint50_linear_653_8982)"/>
<path d="M118.181 171.592C120.644 171.592 122.641 169.595 122.641 167.132C122.641 164.669 120.644 162.673 118.181 162.673C115.718 162.673 113.722 164.669 113.722 167.132C113.722 169.595 115.718 171.592 118.181 171.592Z" fill="url(#paint51_linear_653_8982)"/>
<path d="M127.515 147.531C129.348 147.531 130.834 146.046 130.834 144.213C130.834 142.38 129.348 140.894 127.515 140.894C125.682 140.894 124.196 142.38 124.196 144.213C124.196 146.046 125.682 147.531 127.515 147.531Z" fill="url(#paint52_linear_653_8982)"/>
<path d="M125.442 137.161C126.988 137.161 128.242 135.907 128.242 134.36C128.242 132.814 126.988 131.56 125.442 131.56C123.896 131.56 122.642 132.814 122.642 134.36C122.642 135.907 123.896 137.161 125.442 137.161Z" fill="url(#paint53_linear_653_8982)"/>
<path d="M121.189 197.519C124.798 197.519 127.723 194.593 127.723 190.985C127.723 187.377 124.798 184.451 121.189 184.451C117.581 184.451 114.656 187.377 114.656 190.985C114.656 194.593 117.581 197.519 121.189 197.519Z" fill="url(#paint54_linear_653_8982)"/>
<path d="M130.834 180.718C133.985 180.718 136.538 178.164 136.538 175.014C136.538 171.864 133.985 169.31 130.834 169.31C127.684 169.31 125.13 171.864 125.13 175.014C125.13 178.164 127.684 180.718 130.834 180.718Z" fill="url(#paint55_linear_653_8982)"/>
<path d="M139.131 151.472C141.25 151.472 142.968 149.754 142.968 147.635C142.968 145.516 141.25 143.798 139.131 143.798C137.012 143.798 135.294 145.516 135.294 147.635C135.294 149.754 137.012 151.472 139.131 151.472Z" fill="url(#paint56_linear_653_8982)"/>
<path d="M137.576 165.473C140.039 165.473 142.035 163.476 142.035 161.013C142.035 158.551 140.039 156.554 137.576 156.554C135.113 156.554 133.116 158.551 133.116 161.013C133.116 163.476 135.113 165.473 137.576 165.473Z" fill="url(#paint57_linear_653_8982)"/>
<path d="M138.093 139.546C139.926 139.546 141.412 138.06 141.412 136.227C141.412 134.394 139.926 132.909 138.093 132.909C136.26 132.909 134.775 134.394 134.775 136.227C134.775 138.06 136.26 139.546 138.093 139.546Z" fill="url(#paint58_linear_653_8982)"/>
<path d="M132.493 130.523C134.039 130.523 135.293 129.27 135.293 127.723C135.293 126.177 134.039 124.923 132.493 124.923C130.947 124.923 129.693 126.177 129.693 127.723C129.693 129.27 130.947 130.523 132.493 130.523Z" fill="url(#paint59_linear_653_8982)"/>
<path d="M148.985 188.6C152.594 188.6 155.519 185.675 155.519 182.066C155.519 178.458 152.594 175.533 148.985 175.533C145.377 175.533 142.451 178.458 142.451 182.066C142.451 185.675 145.377 188.6 148.985 188.6Z" fill="url(#paint60_linear_653_8982)"/>
<path d="M152.199 169.414C155.349 169.414 157.903 166.86 157.903 163.71C157.903 160.56 155.349 158.006 152.199 158.006C149.049 158.006 146.495 160.56 146.495 163.71C146.495 166.86 149.049 169.414 152.199 169.414Z" fill="url(#paint61_linear_653_8982)"/>
<path d="M150.125 139.027C152.244 139.027 153.962 137.309 153.962 135.19C153.962 133.071 152.244 131.353 150.125 131.353C148.005 131.353 146.287 133.071 146.287 135.19C146.287 137.309 148.005 139.027 150.125 139.027Z" fill="url(#paint62_linear_653_8982)"/>
<path d="M153.443 152.717C155.906 152.717 157.903 150.72 157.903 148.257C157.903 145.794 155.906 143.798 153.443 143.798C150.98 143.798 148.984 145.794 148.984 148.257C148.984 150.72 150.98 152.717 153.443 152.717Z" fill="url(#paint63_linear_653_8982)"/>
<path d="M144.94 128.242C146.773 128.242 148.258 126.756 148.258 124.923C148.258 123.09 146.773 121.604 144.94 121.604C143.107 121.604 141.621 123.09 141.621 124.923C141.621 126.756 143.107 128.242 144.94 128.242Z" fill="url(#paint64_linear_653_8982)"/>
<path d="M136.643 121.915C138.19 121.915 139.443 120.662 139.443 119.115C139.443 117.569 138.19 116.315 136.643 116.315C135.097 116.315 133.843 117.569 133.843 119.115C133.843 120.662 135.097 121.915 136.643 121.915Z" fill="url(#paint65_linear_653_8982)"/>
<path d="M171.694 170.243C175.302 170.243 178.228 167.318 178.228 163.71C178.228 160.101 175.302 157.176 171.694 157.176C168.086 157.176 165.16 160.101 165.16 163.71C165.16 167.318 168.086 170.243 171.694 170.243Z" fill="url(#paint66_linear_653_8982)"/>
<path d="M168.064 151.161C171.214 151.161 173.768 148.608 173.768 145.457C173.768 142.307 171.214 139.753 168.064 139.753C164.914 139.753 162.36 142.307 162.36 145.457C162.36 148.608 164.914 151.161 168.064 151.161Z" fill="url(#paint67_linear_653_8982)"/>
<path d="M155.826 123.471C157.946 123.471 159.664 121.753 159.664 119.634C159.664 117.515 157.946 115.797 155.826 115.797C153.707 115.797 151.989 117.515 151.989 119.634C151.989 121.753 153.707 123.471 155.826 123.471Z" fill="url(#paint68_linear_653_8982)"/>
<path d="M163.606 135.087C166.069 135.087 168.066 133.09 168.066 130.627C168.066 128.164 166.069 126.168 163.606 126.168C161.144 126.168 159.147 128.164 159.147 130.627C159.147 133.09 161.144 135.087 163.606 135.087Z" fill="url(#paint69_linear_653_8982)"/>
<path d="M147.322 115.278C149.155 115.278 150.641 113.792 150.641 111.96C150.641 110.127 149.155 108.641 147.322 108.641C145.489 108.641 144.004 110.127 144.004 111.96C144.004 113.792 145.489 115.278 147.322 115.278Z" fill="url(#paint70_linear_653_8982)"/>
<path d="M137.471 112.271C139.018 112.271 140.271 111.017 140.271 109.471C140.271 107.924 139.018 106.67 137.471 106.67C135.925 106.67 134.671 107.924 134.671 109.471C134.671 111.017 135.925 112.271 137.471 112.271Z" fill="url(#paint71_linear_653_8982)"/>
<path d="M186.318 145.042C189.927 145.042 192.852 142.117 192.852 138.509C192.852 134.9 189.927 131.975 186.318 131.975C182.71 131.975 179.785 134.9 179.785 138.509C179.785 142.117 182.71 145.042 186.318 145.042Z" fill="url(#paint72_linear_653_8982)"/>
<path d="M176.257 128.449C179.407 128.449 181.961 125.895 181.961 122.745C181.961 119.595 179.407 117.041 176.257 117.041C173.107 117.041 170.553 119.595 170.553 122.745C170.553 125.895 173.107 128.449 176.257 128.449Z" fill="url(#paint73_linear_653_8982)"/>
<path d="M155.515 106.982C157.634 106.982 159.352 105.264 159.352 103.144C159.352 101.025 157.634 99.3072 155.515 99.3072C153.396 99.3072 151.678 101.025 151.678 103.144C151.678 105.264 153.396 106.982 155.515 106.982Z" fill="url(#paint74_linear_653_8982)"/>
<path d="M166.819 114.967C169.282 114.967 171.279 112.97 171.279 110.508C171.279 108.045 169.282 106.048 166.819 106.048C164.356 106.048 162.36 108.045 162.36 110.508C162.36 112.97 164.356 114.967 166.819 114.967Z" fill="url(#paint75_linear_653_8982)"/>
<path d="M144.833 102.315C146.666 102.315 148.152 100.829 148.152 98.996C148.152 97.1631 146.666 95.6773 144.833 95.6773C143 95.6773 141.514 97.1631 141.514 98.996C141.514 100.829 143 102.315 144.833 102.315Z" fill="url(#paint76_linear_653_8982)"/>
<path d="M134.774 103.041C136.321 103.041 137.574 101.787 137.574 100.24C137.574 98.694 136.321 97.4403 134.774 97.4403C133.228 97.4403 131.974 98.694 131.974 100.24C131.974 101.787 133.228 103.041 134.774 103.041Z" fill="url(#paint77_linear_653_8982)"/>
<path d="M190.78 116.212C194.388 116.212 197.313 113.286 197.313 109.678C197.313 106.07 194.388 103.144 190.78 103.144C187.171 103.144 184.246 106.07 184.246 109.678C184.246 113.286 187.171 116.212 190.78 116.212Z" fill="url(#paint78_linear_653_8982)"/>
<path d="M175.741 104.285C178.891 104.285 181.445 101.731 181.445 98.5812C181.445 95.431 178.891 92.8773 175.741 92.8773C172.59 92.8773 170.037 95.431 170.037 98.5812C170.037 101.731 172.59 104.285 175.741 104.285Z" fill="url(#paint79_linear_653_8982)"/>
<path d="M149.294 91.6328C151.413 91.6328 153.131 89.9148 153.131 87.7956C153.131 85.6764 151.413 83.9584 149.294 83.9584C147.175 83.9584 145.457 85.6764 145.457 87.7956C145.457 89.9148 147.175 91.6328 149.294 91.6328Z" fill="url(#paint80_linear_653_8982)"/>
<path d="M162.467 95.0552C164.93 95.0552 166.926 93.0586 166.926 90.5958C166.926 88.1329 164.93 86.1363 162.467 86.1363C160.004 86.1363 158.008 88.1329 158.008 90.5958C158.008 93.0586 160.004 95.0552 162.467 95.0552Z" fill="url(#paint81_linear_653_8982)"/>
<path d="M137.784 91.1143C139.617 91.1143 141.103 89.6285 141.103 87.7956C141.103 85.9628 139.617 84.477 137.784 84.477C135.952 84.477 134.466 85.9628 134.466 87.7956C134.466 89.6285 135.952 91.1143 137.784 91.1143Z" fill="url(#paint82_linear_653_8982)"/>
<path d="M128.865 95.3662C130.411 95.3662 131.665 94.1126 131.665 92.5661C131.665 91.0197 130.411 89.766 128.865 89.766C127.318 89.766 126.065 91.0197 126.065 92.5661C126.065 94.1126 127.318 95.3662 128.865 95.3662Z" fill="url(#paint83_linear_653_8982)"/>
<path d="M184.452 87.6918C188.061 87.6918 190.986 84.7666 190.986 81.1582C190.986 77.5498 188.061 74.6246 184.452 74.6246C180.844 74.6246 177.919 77.5498 177.919 81.1582C177.919 84.7666 180.844 87.6918 184.452 87.6918Z" fill="url(#paint84_linear_653_8982)"/>
<path d="M166.509 81.9879C169.66 81.9879 172.213 79.4341 172.213 76.2839C172.213 73.1337 169.66 70.58 166.509 70.58C163.359 70.58 160.805 73.1337 160.805 76.2839C160.805 79.4341 163.359 81.9879 166.509 81.9879Z" fill="url(#paint85_linear_653_8982)"/>
<path d="M137.888 79.4988C140.007 79.4988 141.725 77.7809 141.725 75.6616C141.725 73.5424 140.007 71.8244 137.888 71.8244C135.768 71.8244 134.051 73.5424 134.051 75.6616C134.051 77.7809 135.768 79.4988 137.888 79.4988Z" fill="url(#paint86_linear_653_8982)"/>
<path d="M151.162 78.047C153.625 78.047 155.622 76.0504 155.622 73.5875C155.622 71.1246 153.625 69.1281 151.162 69.1281C148.699 69.1281 146.703 71.1246 146.703 73.5875C146.703 76.0504 148.699 78.047 151.162 78.047Z" fill="url(#paint87_linear_653_8982)"/>
<path d="M127.206 83.2324C129.039 83.2324 130.525 81.7466 130.525 79.9137C130.525 78.0809 129.039 76.5951 127.206 76.5951C125.373 76.5951 123.887 78.0809 123.887 79.9137C123.887 81.7466 125.373 83.2324 127.206 83.2324Z" fill="url(#paint88_linear_653_8982)"/>
<path d="M120.568 90.3882C122.114 90.3882 123.368 89.1345 123.368 87.588C123.368 86.0416 122.114 84.7879 120.568 84.7879C119.021 84.7879 117.768 86.0416 117.768 87.588C117.768 89.1345 119.021 90.3882 120.568 90.3882Z" fill="url(#paint89_linear_653_8982)"/>
<path d="M168.271 63.3205C171.879 63.3205 174.804 60.3953 174.804 56.7869C174.804 53.1785 171.879 50.2533 168.271 50.2533C164.662 50.2533 161.737 53.1785 161.737 56.7869C161.737 60.3953 164.662 63.3205 168.271 63.3205Z" fill="url(#paint90_linear_653_8982)"/>
<path d="M149.811 64.4613C152.961 64.4613 155.515 61.9076 155.515 58.7574C155.515 55.6072 152.961 53.0535 149.811 53.0535C146.661 53.0535 144.107 55.6072 144.107 58.7574C144.107 61.9076 146.661 64.4613 149.811 64.4613Z" fill="url(#paint91_linear_653_8982)"/>
<path d="M122.952 72.4468C125.071 72.4468 126.789 70.7288 126.789 68.6096C126.789 66.4903 125.071 64.7724 122.952 64.7724C120.832 64.7724 119.114 66.4903 119.114 68.6096C119.114 70.7288 120.832 72.4468 122.952 72.4468Z" fill="url(#paint92_linear_653_8982)"/>
<path d="M134.568 66.3281C137.03 66.3281 139.027 64.3315 139.027 61.8686C139.027 59.4057 137.03 57.4092 134.568 57.4092C132.105 57.4092 130.108 59.4057 130.108 61.8686C130.108 64.3315 132.105 66.3281 134.568 66.3281Z" fill="url(#paint93_linear_653_8982)"/>
<path d="M114.447 79.7063C116.28 79.7063 117.766 78.2205 117.766 76.3877C117.766 74.5548 116.28 73.069 114.447 73.069C112.615 73.069 111.129 74.5548 111.129 76.3877C111.129 78.2205 112.615 79.7063 114.447 79.7063Z" fill="url(#paint94_linear_653_8982)"/>
<path d="M111.129 88.729C112.675 88.729 113.929 87.4753 113.929 85.9288C113.929 84.3824 112.675 83.1287 111.129 83.1287C109.582 83.1287 108.328 84.3824 108.328 85.9288C108.328 87.4753 109.582 88.729 111.129 88.729Z" fill="url(#paint95_linear_653_8982)"/>
<path d="M144.524 46.5197C148.132 46.5197 151.058 43.5945 151.058 39.9861C151.058 36.3777 148.132 33.4525 144.524 33.4525C140.916 33.4525 137.99 36.3777 137.99 39.9861C137.99 43.5945 140.916 46.5197 144.524 46.5197Z" fill="url(#paint96_linear_653_8982)"/>
<path d="M127.93 54.194C131.081 54.194 133.634 51.6403 133.634 48.4901C133.634 45.3399 131.081 42.7861 127.93 42.7861C124.78 42.7861 122.227 45.3399 122.227 48.4901C122.227 51.6403 124.78 54.194 127.93 54.194Z" fill="url(#paint97_linear_653_8982)"/>
<path d="M106.461 71.2021C108.581 71.2021 110.299 69.4842 110.299 67.3649C110.299 65.2457 108.581 63.5277 106.461 63.5277C104.342 63.5277 102.624 65.2457 102.624 67.3649C102.624 69.4842 104.342 71.2021 106.461 71.2021Z" fill="url(#paint98_linear_653_8982)"/>
<path d="M114.862 61.2463C117.325 61.2463 119.321 59.2497 119.321 56.7868C119.321 54.324 117.325 52.3274 114.862 52.3274C112.399 52.3274 110.402 54.324 110.402 56.7868C110.402 59.2497 112.399 61.2463 114.862 61.2463Z" fill="url(#paint99_linear_653_8982)"/>
<path d="M101.38 80.9508C103.213 80.9508 104.699 79.465 104.699 77.6321C104.699 75.7993 103.213 74.3135 101.38 74.3135C99.5475 74.3135 98.0618 75.7993 98.0618 77.6321C98.0618 79.465 99.5475 80.9508 101.38 80.9508Z" fill="url(#paint100_linear_653_8982)"/>
<path d="M101.692 90.5956C103.239 90.5956 104.492 89.3419 104.492 87.7955C104.492 86.249 103.239 84.9954 101.692 84.9954C100.146 84.9954 98.8922 86.249 98.8922 87.7955C98.8922 89.3419 100.146 90.5956 101.692 90.5956Z" fill="url(#paint101_linear_653_8982)"/>
<defs>
<linearGradient id="paint0_linear_653_8982" x1="-21.3343" y1="62.7517" x2="150.484" y2="305.117" gradientUnits="userSpaceOnUse">
<stop stop-color="#35FF89"/>
<stop offset="1" stop-color="#3177F3"/>
</linearGradient>
<linearGradient id="paint1_linear_653_8982" x1="-21.3343" y1="62.7517" x2="150.484" y2="305.117" gradientUnits="userSpaceOnUse">
<stop stop-color="#35FF89"/>
<stop offset="1" stop-color="#3177F3"/>
</linearGradient>
<linearGradient id="paint2_linear_653_8982" x1="-21.3343" y1="62.7517" x2="150.484" y2="305.117" gradientUnits="userSpaceOnUse">
<stop stop-color="#35FF89"/>
<stop offset="1" stop-color="#3177F3"/>
</linearGradient>
<linearGradient id="paint3_linear_653_8982" x1="-21.3343" y1="62.7517" x2="150.484" y2="305.117" gradientUnits="userSpaceOnUse">
<stop stop-color="#35FF89"/>
<stop offset="1" stop-color="#3177F3"/>
</linearGradient>
<linearGradient id="paint4_linear_653_8982" x1="-21.3343" y1="62.7517" x2="150.484" y2="305.117" gradientUnits="userSpaceOnUse">
<stop stop-color="#35FF89"/>
<stop offset="1" stop-color="#3177F3"/>
</linearGradient>
<linearGradient id="paint5_linear_653_8982" x1="-21.3343" y1="62.7517" x2="150.484" y2="305.117" gradientUnits="userSpaceOnUse">
<stop stop-color="#35FF89"/>
<stop offset="1" stop-color="#3177F3"/>
</linearGradient>
<linearGradient id="paint6_linear_653_8982" x1="-21.3343" y1="62.7517" x2="150.484" y2="305.117" gradientUnits="userSpaceOnUse">
<stop stop-color="#35FF89"/>
<stop offset="1" stop-color="#3177F3"/>
</linearGradient>
<linearGradient id="paint7_linear_653_8982" x1="-21.3343" y1="62.7517" x2="150.484" y2="305.117" gradientUnits="userSpaceOnUse">
<stop stop-color="#35FF89"/>
<stop offset="1" stop-color="#3177F3"/>
</linearGradient>
<linearGradient id="paint8_linear_653_8982" x1="-21.3343" y1="62.7517" x2="150.484" y2="305.117" gradientUnits="userSpaceOnUse">
<stop stop-color="#35FF89"/>
<stop offset="1" stop-color="#3177F3"/>
</linearGradient>
<linearGradient id="paint9_linear_653_8982" x1="-21.3343" y1="62.7517" x2="150.484" y2="305.117" gradientUnits="userSpaceOnUse">
<stop stop-color="#35FF89"/>
<stop offset="1" stop-color="#3177F3"/>
</linearGradient>
<linearGradient id="paint10_linear_653_8982" x1="-21.3343" y1="62.7517" x2="150.484" y2="305.117" gradientUnits="userSpaceOnUse">
<stop stop-color="#35FF89"/>
<stop offset="1" stop-color="#3177F3"/>
</linearGradient>
<linearGradient id="paint11_linear_653_8982" x1="-21.3343" y1="62.7517" x2="150.484" y2="305.117" gradientUnits="userSpaceOnUse">
<stop stop-color="#35FF89"/>
<stop offset="1" stop-color="#3177F3"/>
</linearGradient>
<linearGradient id="paint12_linear_653_8982" x1="-21.3343" y1="62.7517" x2="150.484" y2="305.117" gradientUnits="userSpaceOnUse">
<stop stop-color="#35FF89"/>
<stop offset="1" stop-color="#3177F3"/>
</linearGradient>
<linearGradient id="paint13_linear_653_8982" x1="-21.3343" y1="62.7517" x2="150.484" y2="305.117" gradientUnits="userSpaceOnUse">
<stop stop-color="#35FF89"/>
<stop offset="1" stop-color="#3177F3"/>
</linearGradient>
<linearGradient id="paint14_linear_653_8982" x1="-21.3343" y1="62.7517" x2="150.484" y2="305.117" gradientUnits="userSpaceOnUse">
<stop stop-color="#35FF89"/>
<stop offset="1" stop-color="#3177F3"/>
</linearGradient>
<linearGradient id="paint15_linear_653_8982" x1="-21.3343" y1="62.7517" x2="150.484" y2="305.117" gradientUnits="userSpaceOnUse">
<stop stop-color="#35FF89"/>
<stop offset="1" stop-color="#3177F3"/>
</linearGradient>
<linearGradient id="paint16_linear_653_8982" x1="-21.3343" y1="62.7517" x2="150.484" y2="305.117" gradientUnits="userSpaceOnUse">
<stop stop-color="#35FF89"/>
<stop offset="1" stop-color="#3177F3"/>
</linearGradient>
<linearGradient id="paint17_linear_653_8982" x1="-21.3343" y1="62.7517" x2="150.484" y2="305.117" gradientUnits="userSpaceOnUse">
<stop stop-color="#35FF89"/>
<stop offset="1" stop-color="#3177F3"/>
</linearGradient>
<linearGradient id="paint18_linear_653_8982" x1="-21.3343" y1="62.7517" x2="150.484" y2="305.117" gradientUnits="userSpaceOnUse">
<stop stop-color="#35FF89"/>
<stop offset="1" stop-color="#3177F3"/>
</linearGradient>
<linearGradient id="paint19_linear_653_8982" x1="-21.3343" y1="62.7517" x2="150.484" y2="305.117" gradientUnits="userSpaceOnUse">
<stop stop-color="#35FF89"/>
<stop offset="1" stop-color="#3177F3"/>
</linearGradient>
<linearGradient id="paint20_linear_653_8982" x1="-21.3343" y1="62.7517" x2="150.484" y2="305.117" gradientUnits="userSpaceOnUse">
<stop stop-color="#35FF89"/>
<stop offset="1" stop-color="#3177F3"/>
</linearGradient>
<linearGradient id="paint21_linear_653_8982" x1="-21.3343" y1="62.7517" x2="150.484" y2="305.117" gradientUnits="userSpaceOnUse">
<stop stop-color="#35FF89"/>
<stop offset="1" stop-color="#3177F3"/>
</linearGradient>
<linearGradient id="paint22_linear_653_8982" x1="-21.3343" y1="62.7517" x2="150.484" y2="305.117" gradientUnits="userSpaceOnUse">
<stop stop-color="#35FF89"/>
<stop offset="1" stop-color="#3177F3"/>
</linearGradient>
<linearGradient id="paint23_linear_653_8982" x1="-21.3343" y1="62.7517" x2="150.484" y2="305.117" gradientUnits="userSpaceOnUse">
<stop stop-color="#35FF89"/>
<stop offset="1" stop-color="#3177F3"/>
</linearGradient>
<linearGradient id="paint24_linear_653_8982" x1="-21.3343" y1="62.7517" x2="150.484" y2="305.117" gradientUnits="userSpaceOnUse">
<stop stop-color="#35FF89"/>
<stop offset="1" stop-color="#3177F3"/>
</linearGradient>
<linearGradient id="paint25_linear_653_8982" x1="-21.3343" y1="62.7517" x2="150.484" y2="305.117" gradientUnits="userSpaceOnUse">
<stop stop-color="#35FF89"/>
<stop offset="1" stop-color="#3177F3"/>
</linearGradient>
<linearGradient id="paint26_linear_653_8982" x1="-21.3343" y1="62.7517" x2="150.484" y2="305.117" gradientUnits="userSpaceOnUse">
<stop stop-color="#35FF89"/>
<stop offset="1" stop-color="#3177F3"/>
</linearGradient>
<linearGradient id="paint27_linear_653_8982" x1="-21.3343" y1="62.7517" x2="150.484" y2="305.117" gradientUnits="userSpaceOnUse">
<stop stop-color="#35FF89"/>
<stop offset="1" stop-color="#3177F3"/>
</linearGradient>
<linearGradient id="paint28_linear_653_8982" x1="-21.3343" y1="62.7517" x2="150.484" y2="305.117" gradientUnits="userSpaceOnUse">
<stop stop-color="#35FF89"/>
<stop offset="1" stop-color="#3177F3"/>
</linearGradient>
<linearGradient id="paint29_linear_653_8982" x1="-21.3343" y1="62.7517" x2="150.484" y2="305.117" gradientUnits="userSpaceOnUse">
<stop stop-color="#35FF89"/>
<stop offset="1" stop-color="#3177F3"/>
</linearGradient>
<linearGradient id="paint30_linear_653_8982" x1="-21.3343" y1="62.7517" x2="150.484" y2="305.117" gradientUnits="userSpaceOnUse">
<stop stop-color="#35FF89"/>
<stop offset="1" stop-color="#3177F3"/>
</linearGradient>
<linearGradient id="paint31_linear_653_8982" x1="-21.3343" y1="62.7517" x2="150.484" y2="305.117" gradientUnits="userSpaceOnUse">
<stop stop-color="#35FF89"/>
<stop offset="1" stop-color="#3177F3"/>
</linearGradient>
<linearGradient id="paint32_linear_653_8982" x1="-21.3343" y1="62.7517" x2="150.484" y2="305.117" gradientUnits="userSpaceOnUse">
<stop stop-color="#35FF89"/>
<stop offset="1" stop-color="#3177F3"/>
</linearGradient>
<linearGradient id="paint33_linear_653_8982" x1="-21.3343" y1="62.7517" x2="150.484" y2="305.117" gradientUnits="userSpaceOnUse">
<stop stop-color="#35FF89"/>
<stop offset="1" stop-color="#3177F3"/>
</linearGradient>
<linearGradient id="paint34_linear_653_8982" x1="-21.3343" y1="62.7517" x2="150.484" y2="305.117" gradientUnits="userSpaceOnUse">
<stop stop-color="#35FF89"/>
<stop offset="1" stop-color="#3177F3"/>
</linearGradient>
<linearGradient id="paint35_linear_653_8982" x1="-21.3343" y1="62.7517" x2="150.484" y2="305.117" gradientUnits="userSpaceOnUse">
<stop stop-color="#35FF89"/>
<stop offset="1" stop-color="#3177F3"/>
</linearGradient>
<linearGradient id="paint36_linear_653_8982" x1="-21.3343" y1="62.7517" x2="150.484" y2="305.117" gradientUnits="userSpaceOnUse">
<stop stop-color="#35FF89"/>
<stop offset="1" stop-color="#3177F3"/>
</linearGradient>
<linearGradient id="paint37_linear_653_8982" x1="-21.3343" y1="62.7517" x2="150.484" y2="305.117" gradientUnits="userSpaceOnUse">
<stop stop-color="#35FF89"/>
<stop offset="1" stop-color="#3177F3"/>
</linearGradient>
<linearGradient id="paint38_linear_653_8982" x1="-21.3343" y1="62.7517" x2="150.484" y2="305.117" gradientUnits="userSpaceOnUse">
<stop stop-color="#35FF89"/>
<stop offset="1" stop-color="#3177F3"/>
</linearGradient>
<linearGradient id="paint39_linear_653_8982" x1="-21.3343" y1="62.7517" x2="150.484" y2="305.117" gradientUnits="userSpaceOnUse">
<stop stop-color="#35FF89"/>
<stop offset="1" stop-color="#3177F3"/>
</linearGradient>
<linearGradient id="paint40_linear_653_8982" x1="-21.3343" y1="62.7517" x2="150.484" y2="305.117" gradientUnits="userSpaceOnUse">
<stop stop-color="#35FF89"/>
<stop offset="1" stop-color="#3177F3"/>
</linearGradient>
<linearGradient id="paint41_linear_653_8982" x1="-21.3343" y1="62.7517" x2="150.484" y2="305.117" gradientUnits="userSpaceOnUse">
<stop stop-color="#35FF89"/>
<stop offset="1" stop-color="#3177F3"/>
</linearGradient>
<linearGradient id="paint42_linear_653_8982" x1="-21.3343" y1="62.7517" x2="150.484" y2="305.117" gradientUnits="userSpaceOnUse">
<stop stop-color="#35FF89"/>
<stop offset="1" stop-color="#3177F3"/>
</linearGradient>
<linearGradient id="paint43_linear_653_8982" x1="-21.3343" y1="62.7517" x2="150.484" y2="305.117" gradientUnits="userSpaceOnUse">
<stop stop-color="#35FF89"/>
<stop offset="1" stop-color="#3177F3"/>
</linearGradient>
<linearGradient id="paint44_linear_653_8982" x1="-21.3343" y1="62.7517" x2="150.484" y2="305.117" gradientUnits="userSpaceOnUse">
<stop stop-color="#35FF89"/>
<stop offset="1" stop-color="#3177F3"/>
</linearGradient>
<linearGradient id="paint45_linear_653_8982" x1="-21.3343" y1="62.7517" x2="150.484" y2="305.117" gradientUnits="userSpaceOnUse">
<stop stop-color="#35FF89"/>
<stop offset="1" stop-color="#3177F3"/>
</linearGradient>
<linearGradient id="paint46_linear_653_8982" x1="-21.3343" y1="62.7517" x2="150.484" y2="305.117" gradientUnits="userSpaceOnUse">
<stop stop-color="#35FF89"/>
<stop offset="1" stop-color="#3177F3"/>
</linearGradient>
<linearGradient id="paint47_linear_653_8982" x1="-21.3343" y1="62.7517" x2="150.484" y2="305.117" gradientUnits="userSpaceOnUse">
<stop stop-color="#35FF89"/>
<stop offset="1" stop-color="#3177F3"/>
</linearGradient>
<linearGradient id="paint48_linear_653_8982" x1="-21.3343" y1="62.7517" x2="150.484" y2="305.117" gradientUnits="userSpaceOnUse">
<stop stop-color="#35FF89"/>
<stop offset="1" stop-color="#3177F3"/>
</linearGradient>
<linearGradient id="paint49_linear_653_8982" x1="-21.3343" y1="62.7517" x2="150.484" y2="305.117" gradientUnits="userSpaceOnUse">
<stop stop-color="#35FF89"/>
<stop offset="1" stop-color="#3177F3"/>
</linearGradient>
<linearGradient id="paint50_linear_653_8982" x1="-21.3343" y1="62.7517" x2="150.484" y2="305.117" gradientUnits="userSpaceOnUse">
<stop stop-color="#35FF89"/>
<stop offset="1" stop-color="#3177F3"/>
</linearGradient>
<linearGradient id="paint51_linear_653_8982" x1="-21.3343" y1="62.7517" x2="150.484" y2="305.117" gradientUnits="userSpaceOnUse">
<stop stop-color="#35FF89"/>
<stop offset="1" stop-color="#3177F3"/>
</linearGradient>
<linearGradient id="paint52_linear_653_8982" x1="-21.3343" y1="62.7517" x2="150.484" y2="305.117" gradientUnits="userSpaceOnUse">
<stop stop-color="#35FF89"/>
<stop offset="1" stop-color="#3177F3"/>
</linearGradient>
<linearGradient id="paint53_linear_653_8982" x1="-21.3343" y1="62.7517" x2="150.484" y2="305.117" gradientUnits="userSpaceOnUse">
<stop stop-color="#35FF89"/>
<stop offset="1" stop-color="#3177F3"/>
</linearGradient>
<linearGradient id="paint54_linear_653_8982" x1="-21.3343" y1="62.7517" x2="150.484" y2="305.117" gradientUnits="userSpaceOnUse">
<stop stop-color="#35FF89"/>
<stop offset="1" stop-color="#3177F3"/>
</linearGradient>
<linearGradient id="paint55_linear_653_8982" x1="-21.3343" y1="62.7517" x2="150.484" y2="305.117" gradientUnits="userSpaceOnUse">
<stop stop-color="#35FF89"/>
<stop offset="1" stop-color="#3177F3"/>
</linearGradient>
<linearGradient id="paint56_linear_653_8982" x1="-21.3343" y1="62.7517" x2="150.484" y2="305.117" gradientUnits="userSpaceOnUse">
<stop stop-color="#35FF89"/>
<stop offset="1" stop-color="#3177F3"/>
</linearGradient>
<linearGradient id="paint57_linear_653_8982" x1="-21.3343" y1="62.7517" x2="150.484" y2="305.117" gradientUnits="userSpaceOnUse">
<stop stop-color="#35FF89"/>
<stop offset="1" stop-color="#3177F3"/>
</linearGradient>
<linearGradient id="paint58_linear_653_8982" x1="-21.3343" y1="62.7517" x2="150.484" y2="305.117" gradientUnits="userSpaceOnUse">
<stop stop-color="#35FF89"/>
<stop offset="1" stop-color="#3177F3"/>
</linearGradient>
<linearGradient id="paint59_linear_653_8982" x1="-21.3343" y1="62.7517" x2="150.484" y2="305.117" gradientUnits="userSpaceOnUse">
<stop stop-color="#35FF89"/>
<stop offset="1" stop-color="#3177F3"/>
</linearGradient>
<linearGradient id="paint60_linear_653_8982" x1="-21.3343" y1="62.7517" x2="150.484" y2="305.117" gradientUnits="userSpaceOnUse">
<stop stop-color="#35FF89"/>
<stop offset="1" stop-color="#3177F3"/>
</linearGradient>
<linearGradient id="paint61_linear_653_8982" x1="-21.3343" y1="62.7517" x2="150.484" y2="305.117" gradientUnits="userSpaceOnUse">
<stop stop-color="#35FF89"/>
<stop offset="1" stop-color="#3177F3"/>
</linearGradient>
<linearGradient id="paint62_linear_653_8982" x1="-21.3343" y1="62.7517" x2="150.484" y2="305.117" gradientUnits="userSpaceOnUse">
<stop stop-color="#35FF89"/>
<stop offset="1" stop-color="#3177F3"/>
</linearGradient>
<linearGradient id="paint63_linear_653_8982" x1="-21.3343" y1="62.7517" x2="150.484" y2="305.117" gradientUnits="userSpaceOnUse">
<stop stop-color="#35FF89"/>
<stop offset="1" stop-color="#3177F3"/>
</linearGradient>
<linearGradient id="paint64_linear_653_8982" x1="-21.3343" y1="62.7517" x2="150.484" y2="305.117" gradientUnits="userSpaceOnUse">
<stop stop-color="#35FF89"/>
<stop offset="1" stop-color="#3177F3"/>
</linearGradient>
<linearGradient id="paint65_linear_653_8982" x1="-21.3343" y1="62.7517" x2="150.484" y2="305.117" gradientUnits="userSpaceOnUse">
<stop stop-color="#35FF89"/>
<stop offset="1" stop-color="#3177F3"/>
</linearGradient>
<linearGradient id="paint66_linear_653_8982" x1="-21.3343" y1="62.7517" x2="150.484" y2="305.117" gradientUnits="userSpaceOnUse">
<stop stop-color="#35FF89"/>
<stop offset="1" stop-color="#3177F3"/>
</linearGradient>
<linearGradient id="paint67_linear_653_8982" x1="-21.3343" y1="62.7517" x2="150.484" y2="305.117" gradientUnits="userSpaceOnUse">
<stop stop-color="#35FF89"/>
<stop offset="1" stop-color="#3177F3"/>
</linearGradient>
<linearGradient id="paint68_linear_653_8982" x1="-21.3343" y1="62.7517" x2="150.484" y2="305.117" gradientUnits="userSpaceOnUse">
<stop stop-color="#35FF89"/>
<stop offset="1" stop-color="#3177F3"/>
</linearGradient>
<linearGradient id="paint69_linear_653_8982" x1="-21.3343" y1="62.7517" x2="150.484" y2="305.117" gradientUnits="userSpaceOnUse">
<stop stop-color="#35FF89"/>
<stop offset="1" stop-color="#3177F3"/>
</linearGradient>
<linearGradient id="paint70_linear_653_8982" x1="-21.3343" y1="62.7517" x2="150.484" y2="305.117" gradientUnits="userSpaceOnUse">
<stop stop-color="#35FF89"/>
<stop offset="1" stop-color="#3177F3"/>
</linearGradient>
<linearGradient id="paint71_linear_653_8982" x1="-21.3343" y1="62.7517" x2="150.484" y2="305.117" gradientUnits="userSpaceOnUse">
<stop stop-color="#35FF89"/>
<stop offset="1" stop-color="#3177F3"/>
</linearGradient>
<linearGradient id="paint72_linear_653_8982" x1="-21.3343" y1="62.7517" x2="150.484" y2="305.117" gradientUnits="userSpaceOnUse">
<stop stop-color="#35FF89"/>
<stop offset="1" stop-color="#3177F3"/>
</linearGradient>
<linearGradient id="paint73_linear_653_8982" x1="-21.3343" y1="62.7517" x2="150.484" y2="305.117" gradientUnits="userSpaceOnUse">
<stop stop-color="#35FF89"/>
<stop offset="1" stop-color="#3177F3"/>
</linearGradient>
<linearGradient id="paint74_linear_653_8982" x1="-21.3343" y1="62.7517" x2="150.484" y2="305.117" gradientUnits="userSpaceOnUse">
<stop stop-color="#35FF89"/>
<stop offset="1" stop-color="#3177F3"/>
</linearGradient>
<linearGradient id="paint75_linear_653_8982" x1="-21.3343" y1="62.7517" x2="150.484" y2="305.117" gradientUnits="userSpaceOnUse">
<stop stop-color="#35FF89"/>
<stop offset="1" stop-color="#3177F3"/>
</linearGradient>
<linearGradient id="paint76_linear_653_8982" x1="-21.3343" y1="62.7517" x2="150.484" y2="305.117" gradientUnits="userSpaceOnUse">
<stop stop-color="#35FF89"/>
<stop offset="1" stop-color="#3177F3"/>
</linearGradient>
<linearGradient id="paint77_linear_653_8982" x1="-21.3343" y1="62.7517" x2="150.484" y2="305.117" gradientUnits="userSpaceOnUse">
<stop stop-color="#35FF89"/>
<stop offset="1" stop-color="#3177F3"/>
</linearGradient>
<linearGradient id="paint78_linear_653_8982" x1="-21.3343" y1="62.7517" x2="150.484" y2="305.117" gradientUnits="userSpaceOnUse">
<stop stop-color="#35FF89"/>
<stop offset="1" stop-color="#3177F3"/>
</linearGradient>
<linearGradient id="paint79_linear_653_8982" x1="-21.3343" y1="62.7517" x2="150.484" y2="305.117" gradientUnits="userSpaceOnUse">
<stop stop-color="#35FF89"/>
<stop offset="1" stop-color="#3177F3"/>
</linearGradient>
<linearGradient id="paint80_linear_653_8982" x1="-21.3343" y1="62.7517" x2="150.484" y2="305.117" gradientUnits="userSpaceOnUse">
<stop stop-color="#35FF89"/>
<stop offset="1" stop-color="#3177F3"/>
</linearGradient>
<linearGradient id="paint81_linear_653_8982" x1="-21.3343" y1="62.7517" x2="150.484" y2="305.117" gradientUnits="userSpaceOnUse">
<stop stop-color="#35FF89"/>
<stop offset="1" stop-color="#3177F3"/>
</linearGradient>
<linearGradient id="paint82_linear_653_8982" x1="-21.3343" y1="62.7517" x2="150.484" y2="305.117" gradientUnits="userSpaceOnUse">
<stop stop-color="#35FF89"/>
<stop offset="1" stop-color="#3177F3"/>
</linearGradient>
<linearGradient id="paint83_linear_653_8982" x1="-21.3343" y1="62.7517" x2="150.484" y2="305.117" gradientUnits="userSpaceOnUse">
<stop stop-color="#35FF89"/>
<stop offset="1" stop-color="#3177F3"/>
</linearGradient>
<linearGradient id="paint84_linear_653_8982" x1="-21.3343" y1="62.7517" x2="150.484" y2="305.117" gradientUnits="userSpaceOnUse">
<stop stop-color="#35FF89"/>
<stop offset="1" stop-color="#3177F3"/>
</linearGradient>
<linearGradient id="paint85_linear_653_8982" x1="-21.3343" y1="62.7517" x2="150.484" y2="305.117" gradientUnits="userSpaceOnUse">
<stop stop-color="#35FF89"/>
<stop offset="1" stop-color="#3177F3"/>
</linearGradient>
<linearGradient id="paint86_linear_653_8982" x1="-21.3343" y1="62.7517" x2="150.484" y2="305.117" gradientUnits="userSpaceOnUse">
<stop stop-color="#35FF89"/>
<stop offset="1" stop-color="#3177F3"/>
</linearGradient>
<linearGradient id="paint87_linear_653_8982" x1="-21.3343" y1="62.7517" x2="150.484" y2="305.117" gradientUnits="userSpaceOnUse">
<stop stop-color="#35FF89"/>
<stop offset="1" stop-color="#3177F3"/>
</linearGradient>
<linearGradient id="paint88_linear_653_8982" x1="-21.3343" y1="62.7517" x2="150.484" y2="305.117" gradientUnits="userSpaceOnUse">
<stop stop-color="#35FF89"/>
<stop offset="1" stop-color="#3177F3"/>
</linearGradient>
<linearGradient id="paint89_linear_653_8982" x1="-21.3343" y1="62.7517" x2="150.484" y2="305.117" gradientUnits="userSpaceOnUse">
<stop stop-color="#35FF89"/>
<stop offset="1" stop-color="#3177F3"/>
</linearGradient>
<linearGradient id="paint90_linear_653_8982" x1="-21.3343" y1="62.7517" x2="150.484" y2="305.117" gradientUnits="userSpaceOnUse">
<stop stop-color="#35FF89"/>
<stop offset="1" stop-color="#3177F3"/>
</linearGradient>
<linearGradient id="paint91_linear_653_8982" x1="-21.3343" y1="62.7517" x2="150.484" y2="305.117" gradientUnits="userSpaceOnUse">
<stop stop-color="#35FF89"/>
<stop offset="1" stop-color="#3177F3"/>
</linearGradient>
<linearGradient id="paint92_linear_653_8982" x1="-21.3343" y1="62.7517" x2="150.484" y2="305.117" gradientUnits="userSpaceOnUse">
<stop stop-color="#35FF89"/>
<stop offset="1" stop-color="#3177F3"/>
</linearGradient>
<linearGradient id="paint93_linear_653_8982" x1="-21.3343" y1="62.7517" x2="150.484" y2="305.117" gradientUnits="userSpaceOnUse">
<stop stop-color="#35FF89"/>
<stop offset="1" stop-color="#3177F3"/>
</linearGradient>
<linearGradient id="paint94_linear_653_8982" x1="-21.3343" y1="62.7517" x2="150.484" y2="305.117" gradientUnits="userSpaceOnUse">
<stop stop-color="#35FF89"/>
<stop offset="1" stop-color="#3177F3"/>
</linearGradient>
<linearGradient id="paint95_linear_653_8982" x1="-21.3343" y1="62.7517" x2="150.484" y2="305.117" gradientUnits="userSpaceOnUse">
<stop stop-color="#35FF89"/>
<stop offset="1" stop-color="#3177F3"/>
</linearGradient>
<linearGradient id="paint96_linear_653_8982" x1="-21.3343" y1="62.7517" x2="150.484" y2="305.117" gradientUnits="userSpaceOnUse">
<stop stop-color="#35FF89"/>
<stop offset="1" stop-color="#3177F3"/>
</linearGradient>
<linearGradient id="paint97_linear_653_8982" x1="-21.3343" y1="62.7517" x2="150.484" y2="305.117" gradientUnits="userSpaceOnUse">
<stop stop-color="#35FF89"/>
<stop offset="1" stop-color="#3177F3"/>
</linearGradient>
<linearGradient id="paint98_linear_653_8982" x1="-21.3343" y1="62.7517" x2="150.484" y2="305.117" gradientUnits="userSpaceOnUse">
<stop stop-color="#35FF89"/>
<stop offset="1" stop-color="#3177F3"/>
</linearGradient>
<linearGradient id="paint99_linear_653_8982" x1="-21.3343" y1="62.7517" x2="150.484" y2="305.117" gradientUnits="userSpaceOnUse">
<stop stop-color="#35FF89"/>
<stop offset="1" stop-color="#3177F3"/>
</linearGradient>
<linearGradient id="paint100_linear_653_8982" x1="-21.3343" y1="62.7517" x2="150.484" y2="305.117" gradientUnits="userSpaceOnUse">
<stop stop-color="#35FF89"/>
<stop offset="1" stop-color="#3177F3"/>
</linearGradient>
<linearGradient id="paint101_linear_653_8982" x1="-21.3343" y1="62.7517" x2="150.484" y2="305.117" gradientUnits="userSpaceOnUse">
<stop stop-color="#35FF89"/>
<stop offset="1" stop-color="#3177F3"/>
</linearGradient>
</defs>
</svg>
