<svg width="840" height="500" viewBox="0 0 840 500" fill="none" xmlns="http://www.w3.org/2000/svg">
<path d="M651.472 221.796C655.707 221.796 659.141 225.23 659.141 229.466V320.486C659.14 324.722 655.707 328.155 651.472 328.155C647.236 328.155 643.803 324.722 643.803 320.486V229.466C643.803 225.23 647.236 221.796 651.472 221.796ZM693.726 221.796C697.961 221.796 701.395 225.23 701.395 229.466V320.486C701.394 324.722 697.961 328.155 693.726 328.155C689.49 328.155 686.057 324.722 686.057 320.486V229.466C686.057 225.23 689.49 221.796 693.726 221.796ZM609.222 209.36C613.457 209.36 616.891 212.795 616.891 217.03V308.051C616.891 312.286 613.457 315.72 609.222 315.72C604.986 315.72 601.553 312.286 601.553 308.051V217.03C601.553 212.795 604.986 209.36 609.222 209.36ZM735.976 209.36C740.211 209.36 743.645 212.795 743.645 217.03V308.051C743.644 312.286 740.211 315.72 735.976 315.72C731.74 315.72 728.307 312.286 728.307 308.051V217.03C728.307 212.795 731.74 209.36 735.976 209.36ZM7.66895 219.87C11.9044 219.87 15.3377 223.305 15.3379 227.54V288.209C15.3379 292.445 11.9045 295.878 7.66895 295.878C3.43349 295.878 8.77598e-06 292.444 0 288.209V227.54C0.000156676 223.305 3.43358 219.87 7.66895 219.87ZM832.331 219.87C836.567 219.87 840 223.305 840 227.54V288.209C840 292.445 836.567 295.878 832.331 295.878C828.096 295.878 824.662 292.444 824.662 288.209V227.54C824.662 223.305 828.096 219.87 832.331 219.87ZM566.968 188.47C571.203 188.47 574.637 191.903 574.637 196.139V287.159C574.637 291.395 571.203 294.828 566.968 294.828C562.732 294.828 559.299 291.395 559.299 287.159V196.139C559.299 191.903 562.732 188.47 566.968 188.47ZM778.231 188.469C782.467 188.469 785.9 191.903 785.9 196.139V287.159C785.9 291.395 782.467 294.828 778.231 294.828C773.996 294.828 770.562 291.395 770.562 287.159V196.139C770.563 191.903 773.996 188.469 778.231 188.469ZM524.718 164.345C528.953 164.345 532.387 167.779 532.387 172.015V263.035C532.387 267.271 528.953 270.704 524.718 270.704C520.482 270.704 517.049 267.271 517.049 263.035V172.015C517.049 167.779 520.482 164.345 524.718 164.345ZM806.151 160.614C810.387 160.614 813.82 164.049 813.82 168.284V259.305C813.82 263.54 810.387 266.974 806.151 266.974C801.916 266.974 798.482 263.54 798.482 259.305V168.284C798.482 164.049 801.916 160.614 806.151 160.614ZM32.0264 159.892C36.2618 159.892 39.6952 163.325 39.6953 167.561V258.581C39.6953 262.817 36.2619 266.25 32.0264 266.25C27.7909 266.25 24.3574 262.817 24.3574 258.581V167.561C24.3576 163.325 27.791 159.892 32.0264 159.892ZM482.464 140.198C486.699 140.198 490.133 143.633 490.133 147.868V238.889C490.133 243.124 486.699 246.558 482.464 246.558C478.229 246.557 474.795 243.124 474.795 238.889V147.868C474.795 143.633 478.228 140.198 482.464 140.198ZM59.9463 132.533C64.1818 132.533 67.6151 135.968 67.6152 140.203V231.224C67.6152 235.459 64.1819 238.893 59.9463 238.893C55.7108 238.892 52.2773 235.459 52.2773 231.224V140.203C52.2774 135.968 55.7109 132.533 59.9463 132.533ZM440.214 113.836C444.449 113.836 447.883 117.269 447.883 121.505V212.525C447.883 216.761 444.449 220.194 440.214 220.194C435.978 220.194 432.545 216.761 432.545 212.525V121.505C432.545 117.269 435.978 113.836 440.214 113.836ZM102.196 106.172C106.432 106.172 109.865 109.605 109.865 113.841V204.861C109.865 209.097 106.432 212.53 102.196 212.53C97.9609 212.53 94.5275 209.097 94.5273 204.861V113.841C94.5273 109.605 97.9608 106.172 102.196 106.172ZM651.472 168.894C655.707 168.894 659.141 172.327 659.141 176.562V203.721C659.14 207.956 655.707 211.39 651.472 211.39C647.236 211.39 643.803 207.956 643.803 203.721V176.562C643.803 172.327 647.236 168.894 651.472 168.894ZM693.726 168.894C697.961 168.894 701.394 172.327 701.395 176.562V203.721C701.394 207.956 697.961 211.39 693.726 211.39C689.49 211.39 686.057 207.956 686.057 203.721V176.562C686.057 172.327 689.49 168.894 693.726 168.894ZM609.222 156.458C613.457 156.458 616.891 159.891 616.891 164.127V191.285C616.891 195.521 613.457 198.954 609.222 198.954C604.986 198.954 601.553 195.521 601.553 191.285V164.127C601.553 159.892 604.986 156.458 609.222 156.458ZM735.976 156.458C740.211 156.458 743.644 159.891 743.645 164.127V191.285C743.644 195.521 740.211 198.954 735.976 198.954C731.74 198.954 728.307 195.521 728.307 191.285V164.127C728.307 159.892 731.74 156.458 735.976 156.458ZM397.96 91.9502C402.196 91.9502 405.629 95.3836 405.629 99.6191V190.64C405.629 194.875 402.195 198.309 397.96 198.309C393.725 198.308 390.291 194.875 390.291 190.64V99.6191C390.291 95.3837 393.724 91.9503 397.96 91.9502ZM144.452 84.2852C148.688 84.2852 152.121 87.7187 152.121 91.9541V182.975C152.121 187.21 148.688 190.644 144.452 190.644C140.217 190.643 136.783 187.21 136.783 182.975V91.9541C136.783 87.7188 140.217 84.2853 144.452 84.2852ZM566.968 135.566C571.203 135.566 574.636 139 574.637 143.235V170.394C574.637 174.629 571.203 178.062 566.968 178.062C562.732 178.062 559.299 174.629 559.299 170.394V143.235C559.299 139 562.732 135.567 566.968 135.566ZM778.231 135.566C782.467 135.566 785.9 139 785.9 143.235V170.394C785.9 174.629 782.467 178.062 778.231 178.062C773.996 178.062 770.562 174.629 770.562 170.394V143.235C770.563 139 773.996 135.566 778.231 135.566ZM355.708 71.6006C359.944 71.6006 363.377 75.034 363.377 79.2695V170.29C363.377 174.526 359.944 177.959 355.708 177.959C351.473 177.959 348.039 174.526 348.039 170.29V79.2695C348.039 75.034 351.473 71.6007 355.708 71.6006ZM186.7 66.3789C190.936 66.3789 194.369 69.8123 194.369 74.0479V165.068C194.369 169.304 190.936 172.737 186.7 172.737C182.465 172.737 179.031 169.304 179.031 165.068V74.0479C179.031 69.8124 182.465 66.379 186.7 66.3789ZM313.46 57.877C317.695 57.877 321.129 61.3105 321.129 65.5459V156.566C321.129 160.802 317.696 164.235 313.46 164.235C309.224 164.235 305.791 160.802 305.791 156.566V65.5459C305.791 61.3106 309.225 57.8771 313.46 57.877ZM228.954 54.6885C233.19 54.6885 236.623 58.1229 236.623 62.3584V153.379C236.623 157.614 233.19 161.048 228.954 161.048C224.719 161.048 221.285 157.614 221.285 153.379V62.3584C221.285 58.1229 224.719 54.6886 228.954 54.6885ZM271.204 52.9033C275.44 52.9033 278.873 56.3367 278.873 60.5723V151.593C278.873 155.828 275.44 159.262 271.204 159.262C266.969 159.262 263.535 155.828 263.535 151.593V60.5723C263.535 56.3368 266.969 52.9034 271.204 52.9033ZM524.718 111.442C528.953 111.442 532.387 114.876 532.387 119.111V146.27C532.387 150.505 528.953 153.938 524.718 153.938C520.482 153.938 517.049 150.505 517.049 146.27V119.111C517.049 114.876 520.482 111.443 524.718 111.442ZM806.151 134.04C810.387 134.04 813.82 137.474 813.82 141.709V142.539C813.82 146.775 810.387 150.208 806.151 150.208C801.916 150.208 798.482 146.774 798.482 142.539V141.709C798.483 137.474 801.916 134.04 806.151 134.04ZM32.0264 133.894C36.2618 133.894 39.696 137.327 39.6963 141.562V141.815C39.6963 146.051 36.2619 149.485 32.0264 149.485C27.7909 149.485 24.3574 146.051 24.3574 141.815V141.562C24.3577 137.327 27.7911 133.894 32.0264 133.894ZM482.464 87.2959C486.699 87.2959 490.134 90.7294 490.134 94.9648V122.123C490.134 126.358 486.699 129.792 482.464 129.792C478.229 129.792 474.795 126.358 474.795 122.123V94.9648C474.795 90.7295 478.229 87.2961 482.464 87.2959ZM59.9463 79.6309C64.1817 79.6309 67.615 83.0644 67.6152 87.2998V114.458C67.6152 118.694 64.1819 122.127 59.9463 122.127C55.7108 122.127 52.2773 118.693 52.2773 114.458V87.2998C52.2776 83.0645 55.711 79.631 59.9463 79.6309ZM440.214 60.9326C444.449 60.9326 447.883 64.3662 447.883 68.6016V95.7598C447.883 99.9953 444.449 103.429 440.214 103.429C435.978 103.429 432.545 99.9953 432.545 95.7598V68.6016C432.545 64.3663 435.979 60.9327 440.214 60.9326ZM102.196 53.2686C106.432 53.2686 109.865 56.702 109.865 60.9375V88.0957C109.865 92.3311 106.432 95.7646 102.196 95.7646C97.9609 95.7645 94.5275 92.331 94.5273 88.0957V60.9375C94.5275 56.7021 97.9609 53.2687 102.196 53.2686ZM397.96 39.0469C402.195 39.0469 405.629 42.4804 405.629 46.7158V73.874C405.629 78.1095 402.195 81.543 397.96 81.543C393.725 81.5428 390.291 78.1095 390.291 73.874V46.7158C390.291 42.4804 393.725 39.047 397.96 39.0469ZM144.452 31.3818C148.688 31.3818 152.121 34.8155 152.121 39.0508V66.209C152.121 70.4445 148.688 73.8779 144.452 73.8779C140.217 73.8779 136.783 70.4445 136.783 66.209V39.0508C136.784 34.8155 140.217 31.3819 144.452 31.3818ZM355.708 18.6973C359.943 18.6973 363.377 22.1308 363.377 26.3662V53.5244C363.377 57.76 359.944 61.1934 355.708 61.1934C351.473 61.1932 348.039 57.7599 348.039 53.5244V26.3662C348.039 22.1308 351.473 18.6974 355.708 18.6973ZM186.7 13.4756C190.936 13.4756 194.369 16.9091 194.369 21.1445V48.3027C194.369 52.5382 190.936 55.9717 186.7 55.9717C182.465 55.9716 179.031 52.5381 179.031 48.3027V21.1445C179.031 16.9091 182.465 13.4757 186.7 13.4756ZM313.46 4.97363C317.695 4.97363 321.129 8.40734 321.129 12.6426V39.8008C321.129 44.0364 317.696 47.4697 313.46 47.4697C309.224 47.4696 305.791 44.0363 305.791 39.8008V12.6426C305.791 8.4074 309.225 4.97374 313.46 4.97363ZM228.954 1.78613C233.19 1.78613 236.623 5.21965 236.623 9.45508V36.6133C236.623 40.8489 233.19 44.2822 228.954 44.2822C224.719 44.2821 221.285 40.8488 221.285 36.6133V9.45508C221.285 5.21973 224.719 1.78626 228.954 1.78613ZM271.204 0C275.44 0 278.873 3.43348 278.873 7.66895V34.8271C278.873 39.0627 275.44 42.4961 271.204 42.4961C266.969 42.496 263.535 39.0626 263.535 34.8271V7.66895C263.535 3.43356 266.969 0.000125496 271.204 0Z" fill="url(#paint0_linear_649_8749)"/>
<path d="M186.704 278.203C182.469 278.203 179.035 274.77 179.035 270.534V179.514C179.035 175.278 182.469 171.845 186.704 171.845C190.939 171.845 194.373 175.278 194.373 179.514V270.534C194.373 274.77 190.94 278.203 186.704 278.203ZM144.45 278.204C140.215 278.204 136.781 274.77 136.781 270.534V179.514C136.781 175.278 140.215 171.845 144.45 171.845C148.686 171.845 152.119 175.278 152.119 179.514V270.534C152.119 274.77 148.686 278.204 144.45 278.204ZM102.2 290.64C97.9646 290.64 94.5312 287.205 94.5312 282.97V185.355C94.5315 181.12 97.9648 177.687 102.2 177.687C106.435 177.687 109.869 181.12 109.869 185.355V282.97C109.869 287.205 106.436 290.64 102.2 290.64ZM228.952 290.64C224.717 290.64 221.283 287.205 221.283 282.97V191.949C221.283 187.714 224.717 184.28 228.952 184.28C233.188 184.28 236.621 187.714 236.621 191.949V282.97C236.621 287.205 233.188 290.64 228.952 290.64ZM271.208 311.531C266.973 311.531 263.539 308.097 263.539 303.861V212.841C263.539 208.605 266.972 205.172 271.208 205.172C275.443 205.172 278.877 208.605 278.877 212.841V303.861C278.877 308.097 275.443 311.531 271.208 311.531ZM59.9463 311.531C55.7108 311.531 52.2775 308.097 52.2773 303.861V212.841C52.2773 208.605 55.7107 205.172 59.9463 205.172C64.1818 205.172 67.6152 208.605 67.6152 212.841V303.861C67.6151 308.097 64.1817 311.531 59.9463 311.531ZM313.458 335.655C309.222 335.655 305.789 332.221 305.789 327.985V236.965C305.789 232.729 309.223 229.296 313.458 229.296C317.693 229.296 321.127 232.729 321.127 236.965V327.985C321.127 332.221 317.693 335.655 313.458 335.655ZM32.0244 339.386C27.789 339.386 24.3557 335.952 24.3555 331.717V240.696C24.3555 236.461 27.7888 233.026 32.0244 233.026C36.2599 233.026 39.6934 236.461 39.6934 240.696V331.717C39.6931 335.952 36.2597 339.386 32.0244 339.386ZM806.151 340.108C801.916 340.108 798.483 336.675 798.482 332.439V241.418C798.483 237.183 801.916 233.749 806.151 233.749C810.387 233.749 813.82 237.183 813.82 241.418V332.439C813.82 336.675 810.387 340.108 806.151 340.108ZM355.712 359.802C351.476 359.802 348.043 356.367 348.043 352.132V261.111C348.043 256.876 351.476 253.442 355.712 253.442C359.947 253.443 363.381 256.876 363.381 261.111V352.132C363.381 356.367 359.947 359.802 355.712 359.802ZM778.231 367.467C773.996 367.467 770.563 364.032 770.562 359.797V268.776C770.562 264.541 773.996 261.107 778.231 261.107C782.467 261.108 785.9 264.541 785.9 268.776V359.797C785.9 364.032 782.467 367.467 778.231 367.467ZM397.964 386.164C393.728 386.164 390.295 382.731 390.295 378.495V287.475C390.295 283.239 393.728 279.806 397.964 279.806C402.199 279.806 405.633 283.239 405.633 287.475V378.495C405.633 382.73 402.199 386.164 397.964 386.164ZM735.981 393.828C731.746 393.828 728.312 390.395 728.312 386.159V288.895C728.313 284.659 731.746 281.226 735.981 281.226C740.217 281.226 743.65 284.659 743.65 288.895V386.159C743.65 390.395 740.217 393.828 735.981 393.828ZM186.704 331.106C182.469 331.106 179.035 327.673 179.035 323.438V296.279C179.035 292.044 182.469 288.61 186.704 288.61C190.939 288.61 194.373 292.044 194.373 296.279V323.438C194.373 327.673 190.94 331.106 186.704 331.106ZM144.45 331.106C140.215 331.106 136.781 327.673 136.781 323.438V296.279C136.781 292.044 140.215 288.61 144.45 288.61C148.686 288.61 152.119 292.044 152.119 296.279V323.438C152.119 327.673 148.686 331.106 144.45 331.106ZM228.952 343.542C224.717 343.542 221.283 340.109 221.283 335.873V308.715C221.283 304.479 224.717 301.046 228.952 301.046C233.188 301.046 236.621 304.479 236.621 308.715V335.873C236.621 340.108 233.188 343.542 228.952 343.542ZM102.2 343.542C97.9647 343.542 94.5314 340.109 94.5312 335.873V308.715C94.5312 304.479 97.9646 301.046 102.2 301.046C106.436 301.046 109.869 304.479 109.869 308.715V335.873C109.869 340.108 106.436 343.542 102.2 343.542ZM440.216 408.05C435.98 408.05 432.547 404.616 432.547 400.381V309.36C432.547 305.125 435.98 301.691 440.216 301.691C444.451 301.692 447.885 305.125 447.885 309.36V400.381C447.885 404.616 444.451 408.05 440.216 408.05ZM693.726 415.715C689.49 415.715 686.057 412.281 686.057 408.046V317.025C686.057 312.79 689.49 309.356 693.726 309.356C697.961 309.357 701.395 312.79 701.395 317.025V408.046C701.394 412.281 697.961 415.715 693.726 415.715ZM271.208 364.434C266.973 364.434 263.539 361 263.539 356.765V329.606C263.539 325.371 266.972 321.938 271.208 321.938C275.443 321.938 278.877 325.371 278.877 329.606V356.765C278.877 361 275.443 364.433 271.208 364.434ZM59.9463 364.434C55.7109 364.434 52.2766 361 52.2764 356.765V329.606C52.2764 325.371 55.7107 321.938 59.9463 321.938C64.1817 321.938 67.6152 325.371 67.6152 329.606V356.765C67.615 361 64.1816 364.433 59.9463 364.434ZM482.468 428.399C478.232 428.399 474.799 424.966 474.799 420.73V329.71C474.799 325.474 478.232 322.041 482.468 322.041C486.703 322.041 490.137 325.474 490.137 329.71V420.73C490.137 424.966 486.703 428.399 482.468 428.399ZM651.478 433.621C647.242 433.621 643.809 430.188 643.809 425.952V334.932C643.809 330.696 647.242 327.263 651.478 327.263C655.713 327.263 659.146 330.696 659.146 334.932V425.952C659.146 430.188 655.713 433.621 651.478 433.621ZM524.72 442.123C520.484 442.123 517.051 438.689 517.051 434.453V343.433C517.051 339.197 520.484 335.764 524.72 335.764C528.955 335.764 532.388 339.197 532.389 343.433V434.453C532.389 438.689 528.955 442.123 524.72 442.123ZM609.224 445.311C604.988 445.311 601.555 441.877 601.555 437.642V346.621C601.555 342.386 604.988 338.952 609.224 338.952C613.459 338.952 616.893 342.386 616.893 346.621V437.642C616.893 441.877 613.459 445.31 609.224 445.311ZM566.972 447.097C562.736 447.097 559.303 443.663 559.303 439.428V348.407C559.303 344.172 562.736 340.738 566.972 340.738C571.207 340.738 574.641 344.172 574.641 348.407V439.428C574.641 443.663 571.207 447.097 566.972 447.097ZM313.458 388.558C309.223 388.558 305.789 385.124 305.789 380.889V353.73C305.789 349.495 309.223 346.062 313.458 346.062C317.693 346.062 321.127 349.495 321.127 353.73V380.889C321.127 385.124 317.693 388.557 313.458 388.558ZM32.0244 366.579C27.7891 366.579 24.3558 363.145 24.3555 358.91V357.461C24.3557 353.226 27.789 349.792 32.0244 349.792C36.2597 349.792 39.6931 353.226 39.6934 357.461V358.91C39.693 363.145 36.2596 366.579 32.0244 366.579ZM805.998 365.547C801.847 365.547 798.483 362.182 798.482 358.031C798.482 353.88 801.847 350.515 805.998 350.515H806.305C810.455 350.515 813.82 353.88 813.82 358.031C813.82 362.182 810.455 365.547 806.305 365.547H805.998ZM355.712 412.704C351.476 412.704 348.042 409.271 348.042 405.035V377.877C348.042 373.642 351.476 370.208 355.712 370.208C359.947 370.208 363.381 373.642 363.381 377.877V405.035C363.381 409.27 359.947 412.704 355.712 412.704ZM778.231 420.369C773.996 420.369 770.563 416.936 770.562 412.7V385.542C770.562 381.306 773.996 377.873 778.231 377.873C782.467 377.873 785.9 381.307 785.9 385.542V412.7C785.9 416.935 782.467 420.369 778.231 420.369ZM397.964 439.067C393.728 439.067 390.295 435.634 390.295 431.398V404.24C390.295 400.005 393.728 396.571 397.964 396.571C402.199 396.571 405.633 400.005 405.633 404.24V431.398C405.633 435.634 402.199 439.067 397.964 439.067ZM735.981 446.731C731.746 446.731 728.313 443.298 728.312 439.062V411.904C728.313 407.669 731.746 404.235 735.981 404.235C740.217 404.235 743.65 407.669 743.65 411.904V439.062C743.65 443.298 740.217 446.731 735.981 446.731ZM440.216 460.953C435.98 460.953 432.547 457.52 432.547 453.284V426.126C432.547 421.89 435.98 418.457 440.216 418.457C444.451 418.457 447.885 421.891 447.885 426.126V453.284C447.885 457.52 444.451 460.953 440.216 460.953ZM693.726 468.618C689.49 468.618 686.057 465.185 686.057 460.949V433.791C686.057 429.555 689.49 426.122 693.726 426.122C697.961 426.122 701.395 429.555 701.395 433.791V460.949C701.394 465.184 697.961 468.618 693.726 468.618ZM482.468 481.303C478.232 481.303 474.799 477.869 474.799 473.634V446.476C474.799 442.24 478.232 438.807 482.468 438.807C486.703 438.807 490.137 442.24 490.137 446.476V473.634C490.137 477.869 486.703 481.303 482.468 481.303ZM651.478 486.524C647.242 486.524 643.809 483.091 643.809 478.855V451.697C643.809 447.462 647.242 444.028 651.478 444.028C655.713 444.028 659.146 447.462 659.146 451.697V478.855C659.146 483.091 655.713 486.524 651.478 486.524ZM524.72 495.025C520.484 495.025 517.05 491.592 517.05 487.356V460.198C517.05 455.963 520.484 452.529 524.72 452.529C528.955 452.529 532.388 455.963 532.389 460.198V487.356C532.389 491.592 528.955 495.025 524.72 495.025ZM609.224 498.214C604.988 498.214 601.555 494.78 601.555 490.545V463.387C601.555 459.151 604.988 455.718 609.224 455.718C613.459 455.718 616.893 459.151 616.893 463.387V490.545C616.892 494.78 613.459 498.214 609.224 498.214ZM566.972 500C562.736 500 559.303 496.566 559.303 492.331V465.173C559.303 460.937 562.736 457.504 566.972 457.504C571.207 457.504 574.641 460.937 574.641 465.173V492.331C574.64 496.566 571.207 500 566.972 500Z" fill="url(#paint1_linear_649_8749)"/>
<defs>
<linearGradient id="paint0_linear_649_8749" x1="125.263" y1="94.9267" x2="752.397" y2="480.372" gradientUnits="userSpaceOnUse">
<stop stop-color="#35FF89"/>
<stop offset="1" stop-color="#2099E5" stop-opacity="0"/>
</linearGradient>
<linearGradient id="paint1_linear_649_8749" x1="605.143" y1="515.662" x2="532.641" y2="119.607" gradientUnits="userSpaceOnUse">
<stop stop-color="#35FF89"/>
<stop offset="1" stop-color="#2099E5" stop-opacity="0"/>
</linearGradient>
</defs>
</svg>
